<svg width="223" height="70" viewBox="0 0 223 70" fill="none" xmlns="http://www.w3.org/2000/svg">
<path d="M34.6 27.92C35.3733 27.92 36.0133 27.9867 36.52 28.12C37.0533 28.2267 37.7467 28.3333 38.6 28.44C38.7333 29.0267 38.84 29.72 38.92 30.52C39 31.2933 39.0533 32.0267 39.08 32.72C39.08 32.8533 38.9467 32.92 38.68 32.92C38.5733 32.92 38.4533 32.9067 38.32 32.88C38.2133 32.8533 38.1067 32.8 38 32.72C37.8667 32.24 37.64 31.72 37.32 31.16C37.0267 30.6 36.6533 30.1333 36.2 29.76C35.7733 29.36 35.28 29.16 34.72 29.16C33.7867 29.16 33.0933 29.4 32.64 29.88C32.1867 30.3333 31.96 30.9067 31.96 31.6C31.96 32.2667 32.12 32.8133 32.44 33.24C32.76 33.64 33.1733 34 33.68 34.32C34.2133 34.6133 34.7733 34.9333 35.36 35.28C35.9467 35.6267 36.5867 36.0133 37.28 36.44C37.9733 36.8667 38.5733 37.3733 39.08 37.96C39.5867 38.52 39.84 39.2133 39.84 40.04C39.84 41.08 39.56 42.0133 39 42.84C38.44 43.64 37.7067 44.28 36.8 44.76C35.8933 45.2133 34.9067 45.44 33.84 45.44C32.9333 45.44 32.16 45.3467 31.52 45.16C30.88 45 30.1333 44.84 29.28 44.68C29.1733 44.3867 29.0667 43.9867 28.96 43.48C28.8533 42.9733 28.76 42.4533 28.68 41.92C28.6267 41.3867 28.6 40.96 28.6 40.64C28.8133 40.48 29.0533 40.4 29.32 40.4C29.4533 40.4 29.56 40.4267 29.64 40.48C29.8 41.0133 30.08 41.5733 30.48 42.16C30.88 42.72 31.3733 43.2 31.96 43.6C32.5467 43.9733 33.1867 44.16 33.88 44.16C34.68 44.16 35.3467 43.92 35.88 43.44C36.4133 42.96 36.68 42.2667 36.68 41.36C36.68 40.56 36.44 39.92 35.96 39.44C35.48 38.9333 34.88 38.4933 34.16 38.12C33.44 37.72 32.6933 37.3067 31.92 36.88C31.1467 36.4267 30.4533 35.88 29.84 35.24C29.2533 34.5733 28.96 33.72 28.96 32.68C28.96 31.72 29.2267 30.88 29.76 30.16C30.32 29.44 31.0267 28.8933 31.88 28.52C32.7333 28.12 33.64 27.92 34.6 27.92ZM51.3341 27.84C53.0674 27.84 54.5474 28.2133 55.7741 28.96C57.0274 29.7067 57.9874 30.72 58.6541 32C59.3474 33.28 59.6941 34.7333 59.6941 36.36C59.6941 38.04 59.3341 39.56 58.6141 40.92C57.8941 42.2533 56.9074 43.32 55.6541 44.12C54.4007 44.8933 52.9874 45.28 51.4141 45.28C49.7074 45.28 48.2141 44.9067 46.9341 44.16C45.6807 43.3867 44.7074 42.36 44.0141 41.08C43.3474 39.7733 43.0141 38.3067 43.0141 36.68C43.0141 35 43.3741 33.4933 44.0941 32.16C44.8407 30.8267 45.8407 29.7733 47.0941 29C48.3474 28.2267 49.7607 27.84 51.3341 27.84ZM50.8941 29.16C49.8007 29.16 48.9207 29.4933 48.2541 30.16C47.5874 30.8 47.1074 31.64 46.8141 32.68C46.5207 33.6933 46.3741 34.76 46.3741 35.88C46.3741 37.1333 46.5741 38.3867 46.9741 39.64C47.4007 40.8933 48.0141 41.9333 48.8141 42.76C49.6407 43.5867 50.6407 44 51.8141 44C52.9341 44 53.8141 43.68 54.4541 43.04C55.1207 42.3733 55.6007 41.52 55.8941 40.48C56.1874 39.44 56.3341 38.3733 56.3341 37.28C56.3341 36 56.1207 34.7467 55.6941 33.52C55.2674 32.2667 54.6541 31.2267 53.8541 30.4C53.0541 29.5733 52.0674 29.16 50.8941 29.16ZM73.7769 27.88C74.9502 27.88 75.8969 28.1333 76.6169 28.64C77.3635 29.12 77.8969 29.9467 78.2169 31.12C79.0702 30.3467 80.0035 29.6133 81.0169 28.92C82.0569 28.2267 83.0435 27.88 83.9769 27.88C85.3902 27.88 86.4569 28.1733 87.1769 28.76C87.8969 29.3467 88.3769 30.2533 88.6169 31.48C88.8835 32.7067 89.0169 34.2667 89.0169 36.16V40.48C89.0169 41.0667 89.0169 41.6133 89.0169 42.12C89.0435 42.6267 89.1102 43.04 89.2169 43.36C89.2702 43.4933 89.4569 43.6133 89.7769 43.72C90.1235 43.8267 90.4835 43.9067 90.8569 43.96C91.2302 43.9867 91.4969 44 91.6569 44C91.7369 44.1067 91.7769 44.2933 91.7769 44.56C91.8035 44.8267 91.7635 45.0133 91.6569 45.12C90.8569 45.0667 90.1502 45.0267 89.5369 45C88.9502 44.9467 88.2702 44.92 87.4969 44.92C86.7502 44.92 86.0702 44.9467 85.4569 45C84.8435 45.0267 84.1369 45.0667 83.3369 45.12C83.2302 45.0133 83.1769 44.8267 83.1769 44.56C83.2035 44.2933 83.2569 44.1067 83.3369 44C83.4969 44 83.7635 43.9867 84.1369 43.96C84.5369 43.9067 84.9102 43.8267 85.2569 43.72C85.6035 43.6133 85.7902 43.4933 85.8169 43.36C85.8969 43.0933 85.9369 42.76 85.9369 42.36C85.9635 41.9333 85.9769 41.4667 85.9769 40.96C85.9769 40.88 85.9769 40.8 85.9769 40.72C85.9769 40.64 85.9769 40.56 85.9769 40.48V36.28C85.9769 34.9733 85.8835 33.8667 85.6969 32.96C85.5369 32.0533 85.2035 31.36 84.6969 30.88C84.1902 30.4 83.4035 30.16 82.3369 30.16C81.6969 30.16 81.0835 30.3333 80.4969 30.68C79.9102 31 79.4302 31.3467 79.0569 31.72C78.6835 32.0667 78.4969 32.2933 78.4969 32.4C78.4969 32.4267 78.4969 32.5067 78.4969 32.64C78.5235 32.7467 78.5369 32.8267 78.5369 32.88C78.5902 33.2533 78.6302 33.72 78.6569 34.28C78.6835 34.84 78.6969 35.3067 78.6969 35.68V40.48C78.6969 41.0667 78.6969 41.6133 78.6969 42.12C78.7235 42.6267 78.7902 43.04 78.8969 43.36C78.9502 43.4933 79.1369 43.6133 79.4569 43.72C79.8035 43.8267 80.1635 43.9067 80.5369 43.96C80.9102 43.9867 81.1769 44 81.3369 44C81.4169 44.1067 81.4569 44.2933 81.4569 44.56C81.4835 44.8267 81.4435 45.0133 81.3369 45.12C80.5369 45.0667 79.8302 45.0267 79.2169 45C78.6302 44.9467 77.9502 44.92 77.1769 44.92C76.4302 44.92 75.7502 44.9467 75.1369 45C74.5235 45.0267 73.8169 45.0667 73.0169 45.12C72.9102 45.0133 72.8569 44.8267 72.8569 44.56C72.8835 44.2933 72.9369 44.1067 73.0169 44C73.1769 44 73.4435 43.9867 73.8169 43.96C74.2169 43.9067 74.5902 43.8267 74.9369 43.72C75.2835 43.6133 75.4702 43.4933 75.4969 43.36C75.6035 43.04 75.6569 42.6267 75.6569 42.12C75.6835 41.6133 75.6969 41.0667 75.6969 40.48V36.48C75.6969 34.1067 75.4302 32.4667 74.8969 31.56C74.3902 30.6267 73.4302 30.16 72.0169 30.16C71.4302 30.16 70.8569 30.3067 70.2969 30.6C69.7369 30.8933 69.2702 31.2133 68.8969 31.56C68.5502 31.88 68.3769 32.1333 68.3769 32.32V40.48C68.3769 41.0667 68.3769 41.6133 68.3769 42.12C68.4035 42.6267 68.4702 43.04 68.5769 43.36C68.6302 43.4933 68.8169 43.6133 69.1369 43.72C69.4835 43.8267 69.8435 43.9067 70.2169 43.96C70.5902 43.9867 70.8569 44 71.0169 44C71.0969 44.1067 71.1369 44.2933 71.1369 44.56C71.1635 44.8267 71.1235 45.0133 71.0169 45.12C70.2169 45.0667 69.5102 45.0267 68.8969 45C68.3102 44.9467 67.6302 44.92 66.8569 44.92C66.1102 44.92 65.4302 44.9467 64.8169 45C64.2035 45.0267 63.4969 45.0667 62.6969 45.12C62.5902 45.0133 62.5369 44.8267 62.5369 44.56C62.5635 44.2933 62.6169 44.1067 62.6969 44C62.8569 44 63.1235 43.9867 63.4969 43.96C63.8969 43.9067 64.2702 43.8267 64.6169 43.72C64.9635 43.6133 65.1502 43.4933 65.1769 43.36C65.2835 43.04 65.3369 42.6267 65.3369 42.12C65.3635 41.6133 65.3769 41.0667 65.3769 40.48V33.36C65.3769 33.0933 65.3635 32.72 65.3369 32.24C65.3369 31.76 65.2835 31.4 65.1769 31.16C65.0969 30.92 64.8702 30.76 64.4969 30.68C64.1235 30.5733 63.7502 30.52 63.3769 30.52C63.0035 30.4933 62.7635 30.48 62.6569 30.48C62.6302 30.4267 62.6035 30.2667 62.5769 30C62.5502 29.7333 62.5769 29.5467 62.6569 29.44C63.6702 29.3067 64.6569 29.1067 65.6169 28.84C66.5769 28.5733 67.4435 28.2267 68.2169 27.8C68.3235 27.8 68.4169 27.88 68.4969 28.04C68.6035 28.2 68.6569 28.3333 68.6569 28.44C68.6569 28.52 68.6302 28.7067 68.5769 29C68.5502 29.2933 68.5102 29.5867 68.4569 29.88C68.4302 30.1733 68.4169 30.3733 68.4169 30.48C68.4169 30.5867 68.4435 30.64 68.4969 30.64C68.5235 30.64 68.5635 30.6133 68.6169 30.56C68.9369 30.2667 69.3635 29.92 69.8969 29.52C70.4302 29.0933 71.0302 28.72 71.6969 28.4C72.3902 28.0533 73.0835 27.88 73.7769 27.88ZM102.076 27.84C103.81 27.84 105.29 28.2133 106.516 28.96C107.77 29.7067 108.73 30.72 109.396 32C110.09 33.28 110.436 34.7333 110.436 36.36C110.436 38.04 110.076 39.56 109.356 40.92C108.636 42.2533 107.65 43.32 106.396 44.12C105.143 44.8933 103.73 45.28 102.156 45.28C100.45 45.28 98.9563 44.9067 97.6763 44.16C96.4229 43.3867 95.4496 42.36 94.7563 41.08C94.0896 39.7733 93.7563 38.3067 93.7563 36.68C93.7563 35 94.1163 33.4933 94.8363 32.16C95.5829 30.8267 96.5829 29.7733 97.8363 29C99.0896 28.2267 100.503 27.84 102.076 27.84ZM101.636 29.16C100.543 29.16 99.6629 29.4933 98.9963 30.16C98.3296 30.8 97.8496 31.64 97.5563 32.68C97.2629 33.6933 97.1163 34.76 97.1163 35.88C97.1163 37.1333 97.3163 38.3867 97.7163 39.64C98.1429 40.8933 98.7563 41.9333 99.5563 42.76C100.383 43.5867 101.383 44 102.556 44C103.676 44 104.556 43.68 105.196 43.04C105.863 42.3733 106.343 41.52 106.636 40.48C106.93 39.44 107.076 38.3733 107.076 37.28C107.076 36 106.863 34.7467 106.436 33.52C106.01 32.2667 105.396 31.2267 104.596 30.4C103.796 29.5733 102.81 29.16 101.636 29.16ZM118.279 28.12H123.319C123.452 28.12 123.519 28.2667 123.519 28.56C123.519 28.96 123.332 29.3467 122.959 29.72H118.279V39.96C118.279 42.0933 119.146 43.16 120.879 43.16C121.466 43.16 121.999 43.04 122.479 42.8C122.959 42.56 123.266 42.3867 123.399 42.28C123.479 42.3067 123.519 42.3867 123.519 42.52C123.519 42.8133 123.466 43.0133 123.359 43.12C123.172 43.3333 122.879 43.6133 122.479 43.96C122.106 44.3067 121.652 44.6133 121.119 44.88C120.586 45.1467 119.999 45.28 119.359 45.28C118.692 45.28 118.039 45.16 117.399 44.92C116.786 44.68 116.279 44.2533 115.879 43.64C115.479 43.0267 115.279 42.16 115.279 41.04V29.72H112.999C112.946 29.72 112.906 29.68 112.879 29.6C112.852 29.4933 112.839 29.4133 112.839 29.36C112.839 29.3067 112.919 29.1867 113.079 29C113.239 28.7867 113.399 28.5867 113.559 28.4C113.746 28.2133 113.839 28.12 113.839 28.12H115.279V25.68C115.546 25.3867 115.852 25.0533 116.199 24.68C116.572 24.28 116.906 23.92 117.199 23.6C117.492 23.2533 117.652 23.0667 117.679 23.04C117.786 22.9333 117.906 22.88 118.039 22.88C118.199 22.88 118.279 22.92 118.279 23V28.12ZM135.988 27.92C136.495 27.92 136.975 28.04 137.428 28.28C137.882 28.4933 138.202 28.76 138.388 29.08C138.442 29.1867 138.482 29.3333 138.508 29.52C138.535 29.7067 138.548 29.9067 138.548 30.12C138.548 30.84 138.375 31.36 138.028 31.68C137.708 32 137.442 32.16 137.228 32.16C136.962 32.16 136.708 32.0667 136.468 31.88C136.228 31.6933 136.002 31.5333 135.788 31.4C135.602 31.2667 135.402 31.16 135.188 31.08C135.002 30.9733 134.722 30.92 134.348 30.92C133.788 30.92 133.268 31.16 132.788 31.64C132.335 32.0933 131.962 32.6 131.668 33.16C131.375 33.72 131.228 34.1467 131.228 34.44V40.48C131.228 41.0667 131.228 41.6133 131.228 42.12C131.255 42.6267 131.322 43.04 131.428 43.36C131.482 43.4933 131.748 43.6133 132.228 43.72C132.708 43.8267 133.215 43.9067 133.748 43.96C134.282 43.9867 134.628 44 134.788 44C134.868 44.1067 134.908 44.2933 134.908 44.56C134.935 44.8267 134.895 45.0133 134.788 45.12C133.988 45.0667 133.175 45.0267 132.348 45C131.522 44.9467 130.722 44.92 129.948 44.92C129.202 44.92 128.482 44.9467 127.788 45C127.095 45.0267 126.348 45.0667 125.548 45.12C125.442 45.0133 125.388 44.8267 125.388 44.56C125.415 44.2933 125.468 44.1067 125.548 44C125.708 44 125.975 43.9867 126.348 43.96C126.748 43.9067 127.122 43.8267 127.468 43.72C127.815 43.6133 128.002 43.4933 128.028 43.36C128.135 43.04 128.188 42.6267 128.188 42.12C128.215 41.6133 128.228 41.0667 128.228 40.48V33.2C128.228 32.9333 128.215 32.5867 128.188 32.16C128.188 31.7333 128.135 31.4 128.028 31.16C127.948 30.92 127.722 30.76 127.348 30.68C126.975 30.5733 126.602 30.52 126.228 30.52C125.855 30.4933 125.615 30.48 125.508 30.48C125.482 30.4267 125.455 30.2667 125.428 30C125.402 29.7333 125.428 29.5467 125.508 29.44C126.522 29.3067 127.508 29.1067 128.468 28.84C129.428 28.5733 130.295 28.2267 131.068 27.8C131.175 27.8 131.268 27.88 131.348 28.04C131.455 28.2 131.508 28.3333 131.508 28.44C131.508 28.52 131.482 28.8267 131.428 29.36C131.375 29.8933 131.322 30.44 131.268 31C131.242 31.5333 131.228 31.88 131.228 32.04C131.228 32.12 131.242 32.16 131.268 32.16C131.322 32.16 131.362 32.1467 131.388 32.12C131.655 31.56 132.028 30.96 132.508 30.32C133.015 29.6533 133.575 29.0933 134.188 28.64C134.802 28.16 135.402 27.92 135.988 27.92ZM148.509 27.96C149.256 27.96 149.949 28.2 150.589 28.68C151.256 29.16 151.789 29.8 152.189 30.6C152.589 31.4 152.789 32.3067 152.789 33.32V41.36C152.789 41.8667 152.883 42.3067 153.069 42.68C153.256 43.0267 153.563 43.2 153.989 43.2C154.363 43.2 154.656 43.12 154.869 42.96C155.083 42.8 155.216 42.7067 155.269 42.68C155.323 42.68 155.363 42.72 155.389 42.8C155.416 42.88 155.429 42.9467 155.429 43C155.429 43.2933 155.363 43.5467 155.229 43.76C155.069 43.8933 154.803 44.08 154.429 44.32C154.083 44.56 153.709 44.7733 153.309 44.96C152.936 45.1467 152.603 45.24 152.309 45.24C151.749 45.24 151.243 44.96 150.789 44.4C150.363 43.84 150.083 43.2667 149.949 42.68C149.843 42.7867 149.589 42.9867 149.189 43.28C148.816 43.5733 148.376 43.88 147.869 44.2C147.363 44.4933 146.856 44.76 146.349 45C145.869 45.2133 145.456 45.32 145.109 45.32C143.829 45.32 142.749 44.8933 141.869 44.04C140.989 43.16 140.549 42.0933 140.549 40.84C140.549 40.04 140.763 39.36 141.189 38.8C141.643 38.2133 142.083 37.84 142.509 37.68C143.256 37.4133 144.083 37.1333 144.989 36.84C145.923 36.52 146.789 36.2133 147.589 35.92C148.389 35.6267 148.976 35.4 149.349 35.24C149.563 35.16 149.696 35.0667 149.749 34.96C149.803 34.8267 149.829 34.5867 149.829 34.24V33.2C149.829 32.6133 149.683 32.04 149.389 31.48C149.096 30.8933 148.696 30.4133 148.189 30.04C147.683 29.64 147.109 29.44 146.469 29.44C145.803 29.44 145.309 29.6533 144.989 30.08C144.669 30.5067 144.443 31.1067 144.309 31.88C144.069 33.1333 143.456 33.76 142.469 33.76C142.043 33.76 141.709 33.5867 141.469 33.24C141.256 32.8933 141.149 32.52 141.149 32.12C141.149 32.04 141.176 31.8933 141.229 31.68C141.283 31.44 141.349 31.2667 141.429 31.16C141.829 30.7867 142.403 30.3467 143.149 29.84C143.896 29.3333 144.736 28.8933 145.669 28.52C146.629 28.1467 147.576 27.96 148.509 27.96ZM146.429 43.2C146.883 43.2 147.376 43.0933 147.909 42.88C148.443 42.6667 148.896 42.44 149.269 42.2C149.643 41.9333 149.829 41.7333 149.829 41.6V36.28C149.323 36.44 148.683 36.64 147.909 36.88C147.136 37.12 146.563 37.3067 146.189 37.44C145.496 37.7067 144.923 38.0933 144.469 38.6C144.016 39.1067 143.789 39.7333 143.789 40.48C143.789 41.2 144.043 41.84 144.549 42.4C145.056 42.9333 145.683 43.2 146.429 43.2ZM170.826 29.92C170.826 30.6133 170.666 31.1067 170.346 31.4C170.026 31.6667 169.693 31.8 169.346 31.8C168.92 31.8 168.52 31.6133 168.146 31.24C167.773 30.8667 167.413 30.5733 167.066 30.36C166.64 30.0667 166.293 29.8667 166.026 29.76C165.76 29.6533 165.373 29.6 164.866 29.6C164.173 29.6 163.48 29.8667 162.786 30.4C162.12 30.9067 161.56 31.64 161.106 32.6C160.68 33.56 160.466 34.7333 160.466 36.12C160.466 38.3867 161.08 40.0533 162.306 41.12C163.533 42.1867 165.026 42.72 166.786 42.72C167.88 42.72 168.773 42.4667 169.466 41.96C170.186 41.4533 170.68 41.0533 170.946 40.76C170.973 40.76 171.026 40.8133 171.106 40.92C171.213 41 171.266 41.12 171.266 41.28C171.266 41.4933 171.186 41.7333 171.026 42C170.786 42.3733 170.413 42.8267 169.906 43.36C169.4 43.8667 168.76 44.32 167.986 44.72C167.213 45.12 166.32 45.32 165.306 45.32C163.733 45.32 162.346 44.9467 161.146 44.2C159.973 43.4533 159.053 42.48 158.386 41.28C157.746 40.08 157.426 38.8 157.426 37.44C157.426 36 157.72 34.7067 158.306 33.56C158.92 32.3867 159.693 31.3733 160.626 30.52C161.586 29.6667 162.613 29.0133 163.706 28.56C164.826 28.1067 165.893 27.88 166.906 27.88C168.346 27.88 169.52 28.2 170.426 28.84C170.506 28.92 170.586 29.0667 170.666 29.28C170.773 29.4933 170.826 29.7067 170.826 29.92ZM178.91 40.48C178.91 41.0667 178.91 41.6133 178.91 42.12C178.936 42.6267 179.003 43.04 179.11 43.36C179.163 43.4933 179.35 43.6133 179.67 43.72C180.016 43.8267 180.376 43.9067 180.75 43.96C181.15 43.9867 181.43 44 181.59 44C181.67 44.1067 181.71 44.2933 181.71 44.56C181.736 44.8267 181.696 45.0133 181.59 45.12C180.79 45.0667 180.083 45.0267 179.47 45C178.856 44.9467 178.163 44.92 177.39 44.92C176.643 44.92 175.963 44.9467 175.35 45C174.763 45.0267 174.07 45.0667 173.27 45.12C173.163 45.0133 173.11 44.8267 173.11 44.56C173.136 44.2933 173.19 44.1067 173.27 44C173.43 44 173.696 43.9867 174.07 43.96C174.443 43.9067 174.803 43.8267 175.15 43.72C175.496 43.6133 175.683 43.4933 175.71 43.36C175.816 43.04 175.87 42.6267 175.87 42.12C175.896 41.6133 175.91 41.0667 175.91 40.48V23.2C175.91 22.9067 175.896 22.56 175.87 22.16C175.87 21.7333 175.816 21.4 175.71 21.16C175.603 20.8667 175.31 20.68 174.83 20.6C174.376 20.52 173.883 20.48 173.35 20.48C173.323 20.48 173.296 20.32 173.27 20C173.27 19.6533 173.31 19.4667 173.39 19.44C174.376 19.3333 175.336 19.1467 176.27 18.88C177.203 18.5867 178.083 18.2533 178.91 17.88C179.016 17.88 179.11 17.96 179.19 18.12C179.296 18.2533 179.35 18.3867 179.35 18.52C179.35 18.52 179.27 18.8133 179.11 19.4C178.976 19.9867 178.91 20.8267 178.91 21.92V35.84C179.256 35.7067 179.71 35.4133 180.27 34.96C180.856 34.5067 181.483 34 182.15 33.44C183.163 32.5867 184.003 31.88 184.67 31.32C185.363 30.76 185.71 30.3867 185.71 30.2C185.71 29.9867 185.576 29.84 185.31 29.76C185.07 29.68 184.803 29.6267 184.51 29.6C184.216 29.5467 184.003 29.52 183.87 29.52C183.763 29.3867 183.71 29.1733 183.71 28.88C183.736 28.5867 183.803 28.4267 183.91 28.4C184.47 28.4533 185.083 28.5067 185.75 28.56C186.416 28.5867 187.056 28.6 187.67 28.6C189.03 28.6 190.176 28.5333 191.11 28.4C191.19 28.5067 191.216 28.7067 191.19 29C191.19 29.2667 191.163 29.44 191.11 29.52C190.843 29.52 190.376 29.6 189.71 29.76C189.07 29.92 188.536 30.1467 188.11 30.44C188.003 30.52 187.723 30.72 187.27 31.04C186.816 31.36 186.27 31.76 185.63 32.24C185.016 32.72 184.363 33.2267 183.67 33.76C183.003 34.2933 182.376 34.8 181.79 35.28C182.776 36.32 183.75 37.3867 184.71 38.48C185.67 39.5467 186.523 40.4933 187.27 41.32C188.016 42.12 188.536 42.6533 188.83 42.92C189.336 43.3467 189.923 43.64 190.59 43.8C191.283 43.96 191.883 44.0267 192.39 44C192.443 44.0533 192.47 44.2 192.47 44.44C192.496 44.6533 192.483 44.8133 192.43 44.92C192.296 44.9733 191.976 45.0267 191.47 45.08C190.963 45.1333 190.443 45.16 189.91 45.16C188.763 45.16 187.75 44.96 186.87 44.56C185.99 44.1333 185.403 43.76 185.11 43.44C185.11 43.44 184.923 43.2533 184.55 42.88C184.203 42.48 183.736 41.9733 183.15 41.36C182.563 40.72 181.95 40.0533 181.31 39.36C180.67 38.6667 180.07 38.0133 179.51 37.4C179.43 37.2933 179.31 37.2133 179.15 37.16C178.99 37.08 178.91 37.04 178.91 37.04V40.48ZM195.226 35.32C195.2 36.9733 195.48 38.36 196.066 39.48C196.653 40.6 197.44 41.44 198.426 42C199.413 42.5333 200.48 42.8 201.626 42.8C202.346 42.8 203 42.68 203.586 42.44C204.173 42.1733 204.666 41.88 205.066 41.56C205.466 41.2133 205.746 40.9467 205.906 40.76C205.933 40.76 205.986 40.8133 206.066 40.92C206.173 41 206.226 41.12 206.226 41.28C206.226 41.4933 206.146 41.7333 205.986 42C205.746 42.3733 205.373 42.8267 204.866 43.36C204.36 43.8667 203.72 44.32 202.946 44.72C202.173 45.12 201.28 45.32 200.266 45.32C198.746 45.32 197.4 44.96 196.226 44.24C195.053 43.52 194.133 42.5467 193.466 41.32C192.8 40.0933 192.466 38.72 192.466 37.2C192.466 35.8933 192.693 34.68 193.146 33.56C193.626 32.4133 194.24 31.4267 194.986 30.6C195.76 29.7467 196.6 29.08 197.506 28.6C198.413 28.12 199.293 27.88 200.146 27.88C201.32 27.88 202.28 28.08 203.026 28.48C203.8 28.88 204.4 29.3733 204.826 29.96C205.28 30.5467 205.586 31.1333 205.746 31.72C205.933 32.3067 206.026 32.8 206.026 33.2C206.026 33.76 205.96 34.2 205.826 34.52C205.693 34.84 205.44 35.0133 205.066 35.04C204.826 35.0667 204.346 35.0933 203.626 35.12C202.933 35.12 202.133 35.1333 201.226 35.16C200.32 35.1867 199.426 35.2133 198.546 35.24C197.666 35.2667 196.92 35.2933 196.306 35.32C195.693 35.32 195.333 35.32 195.226 35.32ZM195.426 33.88H201.786C202.026 33.88 202.226 33.8133 202.386 33.68C202.573 33.5467 202.68 33.3067 202.706 32.96C202.733 32.64 202.64 32.1867 202.426 31.6C202.213 31.0133 201.866 30.48 201.386 30C200.933 29.52 200.306 29.28 199.506 29.28C198.68 29.28 198 29.52 197.466 30C196.933 30.4533 196.506 30.9867 196.186 31.6C195.893 32.1867 195.68 32.72 195.546 33.2C195.44 33.6533 195.4 33.88 195.426 33.88ZM219.504 27.92C220.011 27.92 220.491 28.04 220.944 28.28C221.397 28.4933 221.717 28.76 221.904 29.08C221.957 29.1867 221.997 29.3333 222.024 29.52C222.051 29.7067 222.064 29.9067 222.064 30.12C222.064 30.84 221.891 31.36 221.544 31.68C221.224 32 220.957 32.16 220.744 32.16C220.477 32.16 220.224 32.0667 219.984 31.88C219.744 31.6933 219.517 31.5333 219.304 31.4C219.117 31.2667 218.917 31.16 218.704 31.08C218.517 30.9733 218.237 30.92 217.864 30.92C217.304 30.92 216.784 31.16 216.304 31.64C215.851 32.0933 215.477 32.6 215.184 33.16C214.891 33.72 214.744 34.1467 214.744 34.44V40.48C214.744 41.0667 214.744 41.6133 214.744 42.12C214.771 42.6267 214.837 43.04 214.944 43.36C214.997 43.4933 215.264 43.6133 215.744 43.72C216.224 43.8267 216.731 43.9067 217.264 43.96C217.797 43.9867 218.144 44 218.304 44C218.384 44.1067 218.424 44.2933 218.424 44.56C218.451 44.8267 218.411 45.0133 218.304 45.12C217.504 45.0667 216.691 45.0267 215.864 45C215.037 44.9467 214.237 44.92 213.464 44.92C212.717 44.92 211.997 44.9467 211.304 45C210.611 45.0267 209.864 45.0667 209.064 45.12C208.957 45.0133 208.904 44.8267 208.904 44.56C208.931 44.2933 208.984 44.1067 209.064 44C209.224 44 209.491 43.9867 209.864 43.96C210.264 43.9067 210.637 43.8267 210.984 43.72C211.331 43.6133 211.517 43.4933 211.544 43.36C211.651 43.04 211.704 42.6267 211.704 42.12C211.731 41.6133 211.744 41.0667 211.744 40.48V33.2C211.744 32.9333 211.731 32.5867 211.704 32.16C211.704 31.7333 211.651 31.4 211.544 31.16C211.464 30.92 211.237 30.76 210.864 30.68C210.491 30.5733 210.117 30.52 209.744 30.52C209.371 30.4933 209.131 30.48 209.024 30.48C208.997 30.4267 208.971 30.2667 208.944 30C208.917 29.7333 208.944 29.5467 209.024 29.44C210.037 29.3067 211.024 29.1067 211.984 28.84C212.944 28.5733 213.811 28.2267 214.584 27.8C214.691 27.8 214.784 27.88 214.864 28.04C214.971 28.2 215.024 28.3333 215.024 28.44C215.024 28.52 214.997 28.8267 214.944 29.36C214.891 29.8933 214.837 30.44 214.784 31C214.757 31.5333 214.744 31.88 214.744 32.04C214.744 32.12 214.757 32.16 214.784 32.16C214.837 32.16 214.877 32.1467 214.904 32.12C215.171 31.56 215.544 30.96 216.024 30.32C216.531 29.6533 217.091 29.0933 217.704 28.64C218.317 28.16 218.917 27.92 219.504 27.92Z" fill="black"/>
<rect x="5" y="28" width="18" height="6" rx="3" fill="#3477FF"/>
<rect y="39" width="18" height="6" rx="3" fill="#3477FF"/>
</svg>
