<?xml version="1.0" encoding="UTF-8"?>
<svg version="1.1" xmlns="http://www.w3.org/2000/svg" width="400" height="400">
<path d="M0 0 C4.90403992 -0.00050399 9.80807804 -0.00281714 14.7121172 -0.00549722 C30.99564798 -0.014212 47.27917235 -0.01892776 63.56270549 -0.01816674 C64.42742143 -0.01812679 65.29213737 -0.01808683 66.18305683 -0.01804566 C67.48175997 -0.01798434 67.48175997 -0.01798434 68.80669954 -0.01792178 C82.9832958 -0.01751121 97.15986603 -0.02720666 111.33645472 -0.04118403 C126.00814272 -0.05553327 140.67981795 -0.06245597 155.35151315 -0.06159025 C163.54452558 -0.06125924 171.73751022 -0.0639686 179.93051624 -0.0747683 C186.86167275 -0.08385082 193.79278864 -0.08606473 200.72394851 -0.07925888 C204.25313782 -0.07599094 207.78224901 -0.07594863 211.31143093 -0.08461213 C215.13356448 -0.0938999 218.95558329 -0.08771412 222.77772236 -0.07998109 C223.8918578 -0.08512465 225.00599325 -0.09026821 226.15389037 -0.09556764 C235.88072174 -0.05191331 235.88072174 -0.05191331 240.53608418 2.16725707 C241.86502675 4.82514222 241.66199573 6.82863117 241.66306782 9.80626464 C241.66588764 11.00755004 241.66870747 12.20883544 241.67161274 13.44652343 C241.66966777 14.78621474 241.66761956 16.1259059 241.66547871 17.46559691 C241.66683366 18.87231531 241.66861413 20.27903335 241.67078876 21.68575072 C241.67536939 25.52731585 241.67356637 29.36885426 241.67040968 33.21041989 C241.66786856 37.27111641 241.6702304 41.33181071 241.67179585 45.39250731 C241.67362113 52.25769494 241.67121093 59.12287186 241.66645527 65.98805785 C241.66168732 72.94900254 241.66157214 79.90992575 241.66645527 86.87087035 C241.71114778 152.62096937 241.71114778 152.62096937 241.15327168 180.70631957 C241.13812645 181.60634074 241.12298122 182.50636191 241.10737705 183.43365645 C241.06395822 185.88380519 241.00756224 188.33323491 240.94575214 190.78297973 C240.92901258 191.81776395 240.92901258 191.81776395 240.91193485 192.8734529 C240.79446999 196.69482508 240.31805275 199.76185453 238.53608418 203.16725707 C236.23497353 204.31781239 234.91279009 204.3038749 232.35226154 204.32547545 C231.47151463 204.33526459 230.59076771 204.34505372 229.68333149 204.35513949 C228.225145 204.36377222 228.225145 204.36377222 226.73750019 204.37257934 C225.7112302 204.3824761 224.68496021 204.39237287 223.62759113 204.40256953 C220.18174821 204.43445428 216.73589302 204.45913551 213.28999043 204.48366332 C210.84825066 204.50435977 208.40651382 204.52540368 205.96477985 204.54677367 C200.05780132 204.59706283 194.15079701 204.64231881 188.2437591 204.68490922 C183.47863582 204.71933626 178.71353417 204.75598803 173.94843769 204.79393554 C124.47759398 205.18623843 75.0083837 205.2930138 25.53608418 205.16725707 C27.41108418 200.41725707 27.41108418 200.41725707 28.53608418 198.16725707 C70.61150181 197.16080246 112.66546026 197.03892386 154.7502476 197.09523046 C163.48159058 197.10669625 172.21293465 197.11197724 180.94428337 197.11693347 C198.80822553 197.12720235 216.67215358 197.1446227 234.53608418 197.16725707 C236.15500821 190.69156093 235.53608418 183.84225187 235.53608418 177.16725707 C189.99608418 177.16725707 144.45608418 177.16725707 97.53608418 177.16725707 C103.39529349 172.77285009 106.64483894 171.87290631 113.94013691 171.92433715 C115.21248692 171.92148963 115.21248692 171.92148963 116.51054096 171.91858459 C119.33034615 171.91486798 122.14989528 171.92562209 124.96967793 171.93678832 C126.96040536 171.93798334 128.95113337 171.9384326 130.94186115 171.93817687 C135.14102884 171.93974502 139.34011172 171.94803848 143.539258 171.96144652 C148.80325092 171.97807826 154.06714842 171.98218725 159.33116436 171.98162055 C184.74794098 171.982358 210.13343196 172.30798915 235.53608418 173.16725707 C235.53386356 172.3727867 235.53164295 171.57831634 235.52935505 170.75977111 C235.50843124 162.87932042 235.49367822 154.99888489 235.484272 147.11841273 C235.47927258 143.07698267 235.47265889 139.03557716 235.46064472 134.99416137 C235.35590785 98.71400885 235.97096294 62.44183307 236.53608418 26.16725707 C128.75422277 26.83199714 128.75422277 26.83199714 20.97358418 27.66725707 C19.21028641 27.68240481 19.21028641 27.68240481 17.41136646 27.69785857 C-8.46923535 27.92115476 -34.34952992 28.16856511 -60.22954082 28.45241332 C-61.69927979 28.46853069 -61.69927979 28.46853069 -63.19871044 28.48497367 C-82.62060562 28.69909515 -102.04221671 28.93565248 -121.46391582 29.16725707 C-121.79391582 76.02725707 -122.12391582 122.88725707 -122.46391582 171.16725707 C-82.53391582 171.16725707 -42.60391582 171.16725707 -1.46391582 171.16725707 C-6.46391582 177.16725707 -6.46391582 177.16725707 -8.46732426 177.90833735 C-9.11865644 177.90410542 -9.76998863 177.89987348 -10.44105816 177.8955133 C-11.57528461 177.91005301 -11.57528461 177.91005301 -12.73242474 177.92488647 C-13.54793301 177.90488585 -14.36344128 177.88488524 -15.20366192 177.86427855 C-16.50996311 177.86800223 -16.50996311 177.86800223 -17.84265423 177.87180114 C-20.72510333 177.87271972 -23.60524321 177.83083964 -26.48735332 177.78835082 C-28.51018151 177.77968216 -30.53302197 177.77354456 -32.55586529 177.76981139 C-37.8969675 177.75256533 -43.2371115 177.69851029 -48.57786846 177.63753295 C-52.87084008 177.59438549 -57.16372637 177.57645848 -61.45687199 177.56026149 C-81.82334373 177.48225979 -102.11787631 177.13571793 -122.46391582 176.16725707 C-122.46391582 183.75725707 -122.46391582 191.34725707 -122.46391582 199.16725707 C-120.00954082 199.09506957 -117.55516582 199.02288207 -115.02641582 198.94850707 C-84.50385149 198.0982089 -53.99651505 198.05539003 -23.46391582 198.16725707 C-25.03399921 200.86175058 -26.29941519 202.97839461 -28.46391582 205.16725707 C-31.44128741 205.86772321 -33.33938263 206.07450283 -36.30498028 205.97780395 C-37.07980251 205.98043242 -37.85462475 205.9830609 -38.65292645 205.98576903 C-41.21238197 205.98599046 -43.76827778 205.93638358 -46.32719707 205.88600707 C-48.12016628 205.87547198 -49.91315519 205.86791135 -51.7061491 205.86317992 C-56.4336757 205.84213109 -61.15972052 205.77826769 -65.88670635 205.7061975 C-69.70256899 205.65477665 -73.51832092 205.63244411 -77.3344574 205.61207366 C-88.37882828 205.55279856 -99.42346327 205.48321302 -110.46391582 205.16725707 C-111.24108833 205.14567534 -112.01826084 205.12409362 -112.81898403 205.1018579 C-115.06274647 205.03068383 -117.30419122 204.93659463 -119.5466795 204.8332727 C-121.47781849 204.75091369 -121.47781849 204.75091369 -123.44797039 204.66689086 C-124.44323238 204.50201171 -125.43849438 204.33713256 -126.46391582 204.16725707 C-128.76131828 200.72115338 -128.71326621 199.46456856 -128.71115398 195.40799499 C-128.71534847 194.20533492 -128.71954296 193.00267486 -128.72386456 191.76357055 C-128.71837964 190.42751018 -128.71269662 189.09145061 -128.70683575 187.75539184 C-128.70790896 186.3485255 -128.70984823 184.9416596 -128.71258831 183.53479552 C-128.7174517 179.69738722 -128.70974804 175.86009465 -128.69963527 172.02270031 C-128.6908088 167.96468113 -128.69261357 163.90666513 -128.69299603 159.8486383 C-128.69205695 152.98941179 -128.68336546 146.13022924 -128.66972637 139.27101684 C-128.65594494 132.31690637 -128.64870185 125.36283646 -128.64921856 118.40871215 C-128.65323223 53.82778589 -128.65323223 53.82778589 -128.07719707 24.63210082 C-128.06216829 23.73196321 -128.04713951 22.83182559 -128.03165531 21.90441108 C-127.98860691 19.45381662 -127.93264979 17.00392959 -127.87138653 14.55373168 C-127.86042509 13.86367726 -127.84946365 13.17362285 -127.83817005 12.46265769 C-127.71596232 8.44455096 -127.4593755 4.16271675 -124.46391582 1.16725707 C-123.032081 1.04517443 -121.59437609 0.99117263 -120.15759182 0.96460032 C-118.75659339 0.93549298 -118.75659339 0.93549298 -117.32729197 0.9057976 C-116.29043143 0.88961386 -115.25357089 0.87343013 -114.18529034 0.85675597 C-113.09538437 0.8363897 -112.00547841 0.81602344 -110.88254499 0.79504001 C-107.20759721 0.72899335 -103.53258049 0.67151826 -99.85747051 0.61525512 C-97.9325862 0.58388302 -97.9325862 0.58388302 -95.96881533 0.55187714 C-63.98040023 0.03701057 -31.99183628 0.00260702 0 0 Z M-32.90141582 6.66725707 C-34.58339054 6.67621764 -34.58339054 6.67621764 -36.29934454 6.68535924 C-65.02091138 6.83851864 -93.74243291 6.99911536 -122.46391582 7.16725707 C-122.46391582 12.77725707 -122.46391582 18.38725707 -122.46391582 24.16725707 C-59.1192003 24.36742008 4.22114011 23.85376917 67.56324652 23.35036747 C79.34407903 23.25682183 91.12494088 23.16779965 102.90582339 23.08079905 C115.19382018 22.9900147 127.48179129 22.89628075 139.76974165 22.79941148 C146.59385596 22.74566165 153.41797378 22.69295725 160.24211979 22.64337897 C166.62064735 22.59683959 172.99913324 22.54640475 179.3776083 22.49316764 C181.68798186 22.47449452 183.99836623 22.45709862 186.30876064 22.44121337 C203.06540099 22.32483629 219.79269582 21.840992 236.53608418 21.16725707 C236.56301993 19.04232566 236.58245046 16.91729795 236.59858418 14.79225707 C236.61598652 13.01721801 236.61598652 13.01721801 236.63374043 11.20631957 C236.7507501 8.24804186 236.7507501 8.24804186 235.53608418 6.16725707 C213.18192454 6.13485818 190.82776384 6.11571545 168.47358418 6.10475707 C167.18449721 6.10410562 167.18449721 6.10410562 165.86936808 6.103441 C99.61122724 6.07090274 33.3557152 6.31368091 -32.90141582 6.66725707 Z " fill="#000000" transform="translate(143.46391582489014,68.83274292945862)"/>
<path d="M0 0 C15.60336853 12.31505533 25.54199357 28.19607309 28.9609375 47.86328125 C30.39917471 70.07532961 26.73852344 89.54521654 11.8828125 106.76171875 C11.24859375 107.45523438 10.614375 108.14875 9.9609375 108.86328125 C9.40921875 109.49492187 8.8575 110.1265625 8.2890625 110.77734375 C-2.11185582 122.02024117 -18.62899078 129.98976189 -33.92138672 131.06616211 C-37.08831067 131.16687079 -40.24562635 131.18534778 -43.4140625 131.17578125 C-44.47367187 131.19189453 -45.53328125 131.20800781 -46.625 131.22460938 C-54.84582833 131.22964665 -62.11119717 129.89045132 -69.72338867 126.7590332 C-71.94800403 125.72604179 -71.94800403 125.72604179 -74.11328125 125.92578125 C-78.63886455 128.12890497 -81.06372155 133.44061523 -83.0390625 137.86328125 C-83.10116359 140.16026466 -83.10116359 140.16026466 -82.5390625 142.30078125 C-81.4461603 147.73653169 -83.73394538 150.90881524 -86.625 155.4296875 C-94.32180968 166.55423949 -102.84463508 177.04758021 -111.67871094 187.28076172 C-113.58899444 189.5030262 -115.4762197 191.74442927 -117.36425781 193.9855957 C-119.58258978 196.6171091 -121.81120741 199.23982573 -124.0390625 201.86328125 C-124.72226563 202.6728125 -125.40546875 203.48234375 -126.109375 204.31640625 C-133.76750015 213.26746162 -133.76750015 213.26746162 -139.8515625 214.86328125 C-144.67093568 215.23610068 -148.15654138 213.61513241 -152.0390625 210.86328125 C-156.19863992 206.88455502 -158.87251772 202.68255175 -159.0390625 196.86328125 C-157.96119179 190.30792921 -155.64827485 186.30973643 -151.5390625 181.17578125 C-150.72840332 180.13006958 -150.72840332 180.13006958 -149.90136719 179.06323242 C-148.80227662 177.64732042 -147.69783745 176.23554282 -146.58789062 174.828125 C-144.46160161 172.13071422 -142.37705438 169.40295432 -140.2890625 166.67578125 C-139.09603516 165.13083984 -139.09603516 165.13083984 -137.87890625 163.5546875 C-133.50260348 157.87823728 -129.17227976 152.16645733 -124.83496094 146.46020508 C-123.5386935 144.75639657 -122.24039358 143.05413223 -120.93994141 141.35351562 C-119.66466312 139.68284538 -118.39617253 138.00697357 -117.13427734 136.32617188 C-116.52922363 135.52888672 -115.92416992 134.73160156 -115.30078125 133.91015625 C-114.76799561 133.20213867 -114.23520996 132.49412109 -113.6862793 131.76464844 C-111.938785 129.74753186 -110.3052834 128.27411079 -108.0390625 126.86328125 C-106.9459375 126.86328125 -105.8528125 126.86328125 -104.7265625 126.86328125 C-99.42511 125.42559922 -98.05408904 122.23207357 -95.2265625 117.72265625 C-93.86074586 114.43391356 -93.77879138 113.16270351 -95.0390625 109.86328125 C-96.60157884 107.86203749 -96.60157884 107.86203749 -98.6015625 105.98828125 C-112.36804765 91.06017168 -116.00615068 72.36419843 -115.41796875 52.625 C-114.53442364 35.63822214 -107.20189766 21.48019313 -96.0390625 8.86328125 C-95.50925781 8.239375 -94.97945313 7.61546875 -94.43359375 6.97265625 C-70.62410844 -19.12959431 -27.54338735 -19.36533789 0 0 Z M-94.51171875 15.6484375 C-106.27372528 30.55221539 -111.94563641 47.91895131 -110.0390625 66.86328125 C-107.33593156 85.73564043 -98.14743619 100.67391777 -83.6015625 112.73828125 C-69.32056726 123.19400991 -51.6752141 128.11080909 -34.06201172 125.57910156 C-15.24582246 122.14458304 0.80651032 112.7696418 11.95703125 97.03125 C21.7480376 81.55268051 25.13549466 64.51204229 22.45703125 46.46875 C21.78087463 43.52070716 20.94953393 40.72100533 19.9609375 37.86328125 C19.63222656 36.88101563 19.30351562 35.89875 18.96484375 34.88671875 C12.72556544 18.17667925 -0.15879275 5.58285682 -16.0390625 -2.13671875 C-43.61234725 -13.14595502 -74.49539833 -6.89759167 -94.51171875 15.6484375 Z M-89.0390625 115.86328125 C-90.18943721 117.46419435 -91.33421066 119.0691335 -92.4765625 120.67578125 C-93.11464844 121.56910156 -93.75273437 122.46242187 -94.41015625 123.3828125 C-96.17196518 125.83462459 -96.17196518 125.83462459 -97.0390625 128.86328125 C-95.58456849 129.86885735 -94.12533807 130.8675856 -92.6640625 131.86328125 C-91.85195312 132.42015625 -91.03984375 132.97703125 -90.203125 133.55078125 C-88.17588063 135.03613969 -88.17588063 135.03613969 -86.0390625 134.86328125 C-84.4374156 132.7573275 -84.4374156 132.7573275 -82.9140625 130.11328125 C-82.10582031 128.79070312 -82.10582031 128.79070312 -81.28125 127.44140625 C-79.74968794 124.7396551 -79.74968794 124.7396551 -80.0390625 120.86328125 C-83.0090625 119.21328125 -85.9790625 117.56328125 -89.0390625 115.86328125 Z M-119.8515625 146.42578125 C-120.36654297 147.12050537 -120.88152344 147.81522949 -121.41210938 148.53100586 C-125.093095 153.5152011 -128.67618703 158.5660902 -132.24047852 163.6340332 C-135.4183665 168.10621604 -138.82343774 172.36195809 -142.2890625 176.61328125 C-150.767163 186.31102501 -150.767163 186.31102501 -154.6640625 198.17578125 C-153.95196159 202.37717664 -153.15584061 203.99256457 -150.0390625 206.86328125 C-146.68774739 209.09749133 -144.63477785 209.84161887 -140.6015625 209.98828125 C-133.10965659 207.62241623 -128.88589543 200.50675436 -124.203125 194.53125 C-121.93084409 191.72986396 -119.54578463 189.07810279 -117.1015625 186.42578125 C-98.61979926 167.31500634 -98.61979926 167.31500634 -86.4140625 144.42578125 C-87.60368426 139.54833205 -92.00765762 137.10895405 -96.109375 134.59375 C-108.01943471 128.18586616 -113.00168526 137.04902426 -119.8515625 146.42578125 Z " fill="#000000" transform="translate(252.0390625,117.13671875)"/>
<path d="M0 0 C4.24429789 1.28844757 5.99812004 2.38786381 8.5 6.0625 C8.23570137 11.83502236 6.98045813 15.78634159 4.25 20.9375 C3.53543189 22.30936167 2.8219786 23.68180435 2.109375 25.0546875 C1.70525391 25.82522461 1.30113281 26.59576172 0.88476562 27.38964844 C-1.66942987 32.31971407 -4.13018191 37.29708076 -6.60534668 42.26715088 C-8.04631056 45.15881089 -9.49213056 48.04804021 -10.9375 50.9375 C-11.783125 52.62875 -12.62875 54.32 -13.5 56.0625 C-0.63 56.5575 -0.63 56.5575 12.5 57.0625 C12.5 53.1025 12.5 49.1425 12.5 45.0625 C15.5 40.0625 15.5 40.0625 18.5 38.0625 C19.82 38.0625 21.14 38.0625 22.5 38.0625 C22.46519531 38.87589844 22.43039063 39.68929687 22.39453125 40.52734375 C22.0423505 55.43632895 24.1402609 69.91656549 31.63671875 83.0546875 C33.79744537 88.08008787 32.96057489 94.8522077 31.875 100.125 C30.5 103.0625 30.5 103.0625 27.75 104.5 C19.77025614 105.88110951 19.77025614 105.88110951 15.6875 103.25 C9.94212549 94.87816857 12.40230234 80.92996395 12.5 71.0625 C11.92258057 71.06773682 11.34516113 71.07297363 10.75024414 71.07836914 C-27.97902686 71.38139107 -27.97902686 71.38139107 -36.5 68.0625 C-39.00596209 64.30355686 -38.85705729 62.52803473 -38.5 58.0625 C-37.66526279 55.52410117 -36.80486034 53.27758702 -35.6875 50.875 C-35.3783667 50.19356934 -35.0692334 49.51213867 -34.75073242 48.81005859 C-28.82565844 36.04196161 -21.8551219 23.81825096 -14.125 12.0625 C-13.63749268 11.31500488 -13.14998535 10.56750977 -12.64770508 9.79736328 C-6.12212317 0.10932363 -6.12212317 0.10932363 0 0 Z " fill="#2B7FFF" transform="translate(110.5,128.9375)"/>
<path d="M0 0 C12.82516713 9.52081452 21.38702864 22.42459837 24.3125 38.1875 C26.51053176 55.03907683 22.98314269 71.17149864 13 85 C2.54266172 97.25369087 -9.86399735 104.85262322 -26 107 C-42.53453532 107.98487496 -57.91283207 105.17566832 -70.75341797 94.15869141 C-81.17233705 84.74479177 -90.04771296 72.19846858 -91.17700195 57.73266602 C-91.65705102 38.31458577 -89.20331251 22.55559473 -75.4375 7.75 C-54.87144493 -11.63194887 -24.02758889 -15.26202606 0 0 Z M-76.64453125 15.98046875 C-85.62086269 28.09283497 -87.62482985 42.36350663 -86 57 C-83.47826747 70.51028769 -76.30284459 82.57862419 -65.1875 90.6875 C-51.82735656 99.62096922 -37.05173737 102.23509565 -21.29296875 99.3125 C-6.32751553 95.05187275 5.44682505 86.08053119 13.26953125 72.63671875 C20.20838382 58.95834109 20.42148578 44.45897165 16 30 C10.54629296 15.72533498 0.04485757 5.71726504 -13.5625 -0.875 C-36.53830893 -10.56791939 -61.04888835 -2.80098243 -76.64453125 15.98046875 Z " fill="#000000" transform="translate(242,128)"/>
<path d="M0 0 C2.34674452 1.82524574 2.76148999 3.49185027 3.6875 6.3125 C3.96871242 8.57546407 4.17454889 10.84880662 4.3125 13.125 C4.38726562 14.28644531 4.46203125 15.44789063 4.5390625 16.64453125 C4.58804688 17.52496094 4.63703125 18.40539062 4.6875 19.3125 C5.63625 19.415625 6.585 19.51875 7.5625 19.625 C10.6875 20.3125 10.6875 20.3125 12.6875 23.3125 C13.04276205 26.15459638 13.12643614 27.66564675 11.5 30.0625 C9.27717232 31.5954846 7.3228745 31.84667276 4.6875 32.3125 C4.69910156 33.04210937 4.71070313 33.77171875 4.72265625 34.5234375 C4.80586783 44.15220606 4.29128262 53.70588732 3.6875 63.3125 C-4.8203125 67.09375 -4.8203125 67.09375 -9.3125 66.3125 C-12.93093101 63.7393935 -14.15069377 62.20742829 -14.9453125 57.8125 C-15.47048188 52.65178043 -15.42108851 47.49399024 -15.375 42.3125 C-15.354375 39.0125 -15.33375 35.7125 -15.3125 32.3125 C-22.2425 32.3125 -29.1725 32.3125 -36.3125 32.3125 C-34.4375 20.5625 -34.4375 20.5625 -33.3125 18.3125 C-27.3725 18.3125 -21.4325 18.3125 -15.3125 18.3125 C-15.35375 16.435625 -15.395 14.55875 -15.4375 12.625 C-15.53206994 8.32206761 -15.25697865 5.1876176 -13.3125 1.3125 C-9.47428269 -1.67278013 -4.4921927 -1.33551675 0 0 Z " fill="#2B7FFF" transform="translate(318.3125,167.6875)"/>
<path d="M0 0 C-0.33 0.99 -0.66 1.98 -1 3 C-5.455 3.495 -5.455 3.495 -10 4 C-10.23783203 5.64548828 -10.23783203 5.64548828 -10.48046875 7.32421875 C-10.71508152 8.7788179 -10.95081823 10.23323607 -11.1875 11.6875 C-11.28869141 12.40873047 -11.38988281 13.12996094 -11.49414062 13.87304688 C-12.35947816 18.99490957 -13.75763262 21.68324005 -18 25 C-21.0625 25.5625 -21.0625 25.5625 -24 25 C-26.94099535 22.74651005 -27.90014994 21.38998043 -28.828125 17.765625 C-28.96734375 16.60546875 -29.1065625 15.4453125 -29.25 14.25 C-29.39953125 13.07953125 -29.5490625 11.9090625 -29.703125 10.703125 C-29.80109375 9.81109375 -29.8990625 8.9190625 -30 8 C-34.88320577 8.61040072 -38.71305312 10.73788412 -43 13 C-51.3814433 17.42268041 -51.3814433 17.42268041 -56 18 C-53.94195977 11.60693887 -49.67278601 9.19552287 -44 6 C-32.45624865 0.77582055 -12.16479478 -6.27860376 0 0 Z M-19 4 C-19 7.63 -19 11.26 -19 15 C-19.66 14.67 -20.32 14.34 -21 14 C-21.6328125 11.93359375 -21.6328125 11.93359375 -22.125 9.4375 C-22.29257813 8.61121094 -22.46015625 7.78492188 -22.6328125 6.93359375 C-22.75398438 6.29550781 -22.87515625 5.65742188 -23 5 C-23.99 5 -24.98 5 -26 5 C-26.19392201 10.52677733 -25.7479503 14.75614911 -24 20 C-22.16299211 20.77242269 -22.16299211 20.77242269 -20 21 C-17.80865101 19.53910067 -17.12049849 18.37244987 -16.3125 15.875 C-15.88155622 11.9103172 -15.92189055 7.98358191 -16 4 C-16.99 4 -17.98 4 -19 4 Z " fill="#000000" transform="translate(240,188)"/>
<path d="M0 0 C2.67732965 0.64774105 4.12847276 1.3702784 5.9375 3.46875 C7.8299863 8.31824615 6.42522524 11.73019891 4.4609375 16.2578125 C1.07713559 23.38982576 -2.47272007 30.43857278 -6.0625 37.46875 C-8.82067155 34.71057845 -9.16167372 31.59430055 -10 27.90625 C-11.07528904 23.22640511 -12.20906093 18.92604351 -14.1875 14.53125 C-15.21232051 11.69664007 -15.21318984 10.82410814 -14.015625 8 C-10.20166573 2.03360827 -7.52485162 -1.21725541 0 0 Z " fill="#2B7FFF" transform="translate(292.0625,129.53125)"/>
<path d="M0 0 C2.04119788 1.61594832 4.04072937 3.2856382 6 5 C7.794375 5.4640625 7.794375 5.4640625 9.625 5.9375 C13 7 13 7 15.4375 9.8125 C16.98335826 12.96605084 17.57205332 14.56768009 17 18 C11.86961658 23.13038342 -0.25158612 21.12247663 -7.25619507 21.13812256 C-8.8710752 21.13718183 -10.48595516 21.13458114 -12.10083008 21.13037109 C-14.58876447 21.12494269 -17.07652373 21.13038132 -19.56445312 21.13671875 C-21.1484379 21.13605909 -22.73242256 21.13478025 -24.31640625 21.1328125 C-25.43034508 21.13584885 -25.43034508 21.13584885 -26.56678772 21.13894653 C-31.76998762 21.11500619 -31.76998762 21.11500619 -34 20 C-33.34 17.03 -32.68 14.06 -32 11 C-30.9275 10.773125 -29.855 10.54625 -28.75 10.3125 C-24.91002098 9.34079939 -24.91002098 9.34079939 -23 6.5 C-19.86083669 2.57604586 -15.92774302 2.3855486 -11.1875 1.4375 C-2.66666667 -0.26666667 -2.66666667 -0.26666667 0 0 Z M-7 4 C-7.66 5.32 -8.32 6.64 -9 8 C-9.53625 7.649375 -10.0725 7.29875 -10.625 6.9375 C-13.87278698 5.65547882 -15.69296839 5.94456438 -19 7 C-20.85233285 9.40803271 -22 10.92741925 -22 14 C-22.94875 13.79375 -23.8975 13.5875 -24.875 13.375 C-25.90625 13.25125 -26.9375 13.1275 -28 13 C-28.66 13.66 -29.32 14.32 -30 15 C-30 15.99 -30 16.98 -30 18 C-15.6391479 18.1524147 -1.34370819 17.69241678 13 17 C12.42547254 13.06924356 12.42547254 13.06924356 10 10 C8.88625 9.71125 7.7725 9.4225 6.625 9.125 C3 8 3 8 0.9375 5.875 C-0.94234855 3.65666552 -0.94234855 3.65666552 -4.25 3.75 C-5.1575 3.8325 -6.065 3.915 -7 4 Z " fill="#2B7FFF" transform="translate(350,113)"/>
<path d="M0 0 C2.9375 1.875 2.9375 1.875 5 4 C5 4.66 5 5.32 5 6 C5.886875 5.896875 6.77375 5.79375 7.6875 5.6875 C11 6 11 6 13.875 8 C16.74696333 12.05453646 16.48783154 14.1216846 16 19 C11.75355468 23.24644532 -2.73322047 21.12397684 -8.87478638 21.13787842 C-10.38226506 21.13710354 -11.88974383 21.13459325 -13.3972168 21.13037109 C-15.72255707 21.12491779 -18.04771174 21.13040056 -20.37304688 21.13671875 C-21.85677126 21.13605943 -23.34049553 21.13478131 -24.82421875 21.1328125 C-25.86312508 21.13584885 -25.86312508 21.13584885 -26.92301941 21.13894653 C-31.76995678 21.11502161 -31.76995678 21.11502161 -34 20 C-33.25 12.25 -33.25 12.25 -31 10 C-30.05125 9.896875 -29.1025 9.79375 -28.125 9.6875 C-24.8250012 9.30596711 -24.8250012 9.30596711 -23.0625 6.5625 C-19.87378568 2.60076402 -15.98907668 2.39781534 -11.1875 1.4375 C-2.80952381 -0.23809524 -2.80952381 -0.23809524 0 0 Z M-8.4375 5.5625 C-8.953125 6.036875 -9.46875 6.51125 -10 7 C-11.11375 6.79375 -12.2275 6.5875 -13.375 6.375 C-17.13838503 5.55603612 -17.13838503 5.55603612 -19.875 8.3125 C-21.97578043 10.78159899 -21.97578043 10.78159899 -23 13 C-23.78375 12.95875 -24.5675 12.9175 -25.375 12.875 C-28.16116119 12.71271266 -28.16116119 12.71271266 -30 15 C-30 15.99 -30 16.98 -30 18 C-15.97396876 18.15938672 -2.0092496 17.67067454 12 17 C13.33749938 14.12158702 13.33749938 14.12158702 12.0625 11.9375 C9.44348721 9.47721526 7.30006285 9.26001257 3.8515625 8.5703125 C1.28247745 7.77899095 0.55056731 6.11440997 -1 4 C-5.17410623 3.30193667 -5.17410623 3.30193667 -8.4375 5.5625 Z " fill="#2B7FFF" transform="translate(64,121)"/>
<path d="M0 0 C1.35500919 1.31129922 2.68671343 2.64691687 4 4 C6.32873375 4.68255989 8.66182791 5.35050775 11 6 C13.4294516 9.6441774 13.16179575 11.71241272 13 16 C8.00010408 16.82147238 3.16822982 17.1358223 -1.90234375 17.09765625 C-2.6249086 17.0962413 -3.34747345 17.09482635 -4.0919342 17.09336853 C-6.37383365 17.08782225 -8.65563079 17.0752802 -10.9375 17.0625 C-12.49544128 17.05747804 -14.05338412 17.05291636 -15.61132812 17.04882812 C-19.40759081 17.0378705 -23.20377813 17.02064372 -27 17 C-27.92926933 14.02124624 -28.11013498 13.26921885 -26.875 10.25 C-25 8 -25 8 -22.3125 7.6875 C-21.549375 7.790625 -20.78625 7.89375 -20 8 C-19.62875 7.071875 -19.62875 7.071875 -19.25 6.125 C-17.74244918 3.5621636 -16.79082862 2.95685553 -14 2 C-12.33333333 2 -10.66666667 2 -9 2 C-5.50875983 -0.32749345 -4.10777749 -0.50299316 0 0 Z M-6.875 4.5625 C-7.57625 5.036875 -8.2775 5.51125 -9 6 C-9.825 5.814375 -10.65 5.62875 -11.5 5.4375 C-12.325 5.293125 -13.15 5.14875 -14 5 C-16.37580018 6.70881764 -16.37580018 6.70881764 -18 9 C-18 9.66 -18 10.32 -18 11 C-18.78375 10.938125 -19.5675 10.87625 -20.375 10.8125 C-21.674375 10.9053125 -21.674375 10.9053125 -23 11 C-23.66 11.99 -24.32 12.98 -25 14 C-23.85448482 15.37962883 -23.85448482 15.37962883 -20.76538086 15.02172852 C-19.33170297 14.97939774 -17.89818643 14.93137481 -16.46484375 14.87890625 C-15.71159317 14.85529526 -14.95834259 14.83168427 -14.18226624 14.80735779 C-11.76716071 14.73054502 -9.3523618 14.64659728 -6.9375 14.5625 C-5.30405166 14.5092969 -3.67058818 14.4565564 -2.03710938 14.40429688 C1.97545601 14.27490625 5.98776044 14.13911453 10 14 C9.505 11.525 9.505 11.525 9 9 C7.39125 8.62875 7.39125 8.62875 5.75 8.25 C1.92991338 6.97663779 0.66310465 5.85332641 -2 3 C-5.0226732 2.6799078 -5.0226732 2.6799078 -6.875 4.5625 Z " fill="#2B7FFF" transform="translate(133,104)"/>
<path d="M0 0 C0.99 0.33 1.98 0.66 3 1 C1.80100302 4.0831351 0.52299523 7.06279492 -1 10 C-0.154375 10.7425 0.69125 11.485 1.5625 12.25 C2.366875 13.1575 3.17125 14.065 4 15 C3.8125 17.3125 3.8125 17.3125 3 19 C-0.59391114 17.66511872 -3.75490696 16.03977277 -7 14 C-7.28875 14.61875 -7.5775 15.2375 -7.875 15.875 C-9 18 -9 18 -11 20 C-12.32 20 -13.64 20 -15 20 C-14.58650949 17.02286831 -14.27878703 15.33041425 -12.3125 13 C-11.879375 12.34 -11.44625 11.68 -11 11 C-11.68931667 8.44288628 -11.68931667 8.44288628 -13 6 C-13.35858516 4.67323492 -13.7018576 3.34164079 -14 2 C-10.65626525 2.55728913 -7.96687001 3.35173889 -5 5 C-3.35 3.35 -1.7 1.7 0 0 Z " fill="#000000" transform="translate(187,154)"/>
<path d="M0 0 C0.66 0.33 1.32 0.66 2 1 C1.44271087 4.34373475 0.64826111 7.03312999 -1 10 C-0.154375 10.928125 0.69125 11.85625 1.5625 12.8125 C3.00390625 14.39453125 3.00390625 14.39453125 4 16 C3.67 16.99 3.34 17.98 3 19 C-0.38457255 18.39561204 -2.3000178 17.06998635 -5 15 C-5.66 15 -6.32 15 -7 15 C-8.2065625 16.2375 -8.2065625 16.2375 -9.4375 17.5 C-12 20 -12 20 -15 20 C-14.46930939 16.17902761 -13.50298434 13.93828597 -11 11 C-11.309375 10.443125 -11.61875 9.88625 -11.9375 9.3125 C-13.05761821 6.87459567 -13.56037364 4.63775814 -14 2 C-10.65626525 2.55728913 -7.96687001 3.35173889 -5 5 C-3.35 3.35 -1.7 1.7 0 0 Z " fill="#000000" transform="translate(242,154)"/>
<path d="M0 0 C1.875 1.1875 1.875 1.1875 3 3 C3.39365568 6.14924548 3.52854531 8.11909116 1.875 10.875 C-0.89296119 12.53577671 -2.83090818 12.38805206 -6 12 C-8.375 10.9375 -8.375 10.9375 -10 9 C-10.5 5.5 -10.5 5.5 -10 2 C-7.00946104 -1.68066334 -4.3259629 -1.28858469 0 0 Z M-6 3 C-6.33 3.99 -6.66 4.98 -7 6 C-6.34 6.66 -5.68 7.32 -5 8 C-2.89179203 7.6814823 -2.89179203 7.6814823 -1 7 C-1.33 5.68 -1.66 4.36 -2 3 C-3.32 3 -4.64 3 -6 3 Z " fill="#000000" transform="translate(76,79)"/>
<path d="M0 0 C1.875 1.125 1.875 1.125 3 3 C3.39365568 6.14924548 3.52854531 8.11909116 1.875 10.875 C-0.88090884 12.52854531 -2.85075452 12.39365568 -6 12 C-7.875 10.875 -7.875 10.875 -9 9 C-9.39365568 5.85075452 -9.52854531 3.88090884 -7.875 1.125 C-5.11909116 -0.52854531 -3.14924548 -0.39365568 0 0 Z M-5 4 C-4.67 5.32 -4.34 6.64 -4 8 C-3.01 8 -2.02 8 -1 8 C-1.33 6.35 -1.66 4.7 -2 3 C-3.2236068 2.9254644 -3.2236068 2.9254644 -5 4 Z " fill="#000000" transform="translate(40,79)"/>
<path d="M0 0 C3 0.5 3 0.5 4.875 1.625 C6.52854531 4.38090884 6.39365568 6.35075452 6 9.5 C4.9375 11.4375 4.9375 11.4375 3 12.5 C-0.6875 12.1875 -0.6875 12.1875 -4 11.5 C-5.54188454 8.01047182 -6.27792963 6.29904768 -5 2.625 C-3 0.5 -3 0.5 0 0 Z M-1 3.5 C-1.66 4.82 -2.32 6.14 -3 7.5 C-0.525 7.995 -0.525 7.995 2 8.5 C2.33 7.18 2.66 5.86 3 4.5 C1.68 4.17 0.36 3.84 -1 3.5 Z " fill="#000000" transform="translate(55,78.5)"/>
</svg>
