<?xml version="1.0" encoding="UTF-8"?>
<svg version="1.1" xmlns="http://www.w3.org/2000/svg" width="400" height="400">
<path d="M0 0 C2.84652508 3.30391544 5.33797608 6.69064599 7.72265625 10.33984375 C8.23779785 11.12311035 8.75293945 11.90637695 9.28369141 12.71337891 C21.81641755 32.09237414 32.39298816 52.81734278 42.28515625 73.65234375 C42.63247803 74.28414047 42.9797998 74.91593719 43.33764648 75.56687927 C46.7898185 82.29800828 46.88689056 88.53520208 46.89453125 96 C46.9110675 97.25244003 46.92760376 98.50488007 46.94464111 99.79527283 C46.98476509 103.09472295 47.00823958 106.39371844 47.02337646 109.69335938 C47.04306726 113.07242241 47.08502285 116.45120499 47.125 119.83007812 C47.19871399 126.43743097 47.25045146 133.04467699 47.28515625 139.65234375 C47.94515625 139.65234375 48.60515625 139.65234375 49.28515625 139.65234375 C49.21514404 138.5015332 49.14513184 137.35072266 49.07299805 136.16503906 C48.27452637 122.24053621 48.08850452 108.34754946 48.09765625 94.40234375 C48.09693115 93.26071777 48.09620605 92.1190918 48.09545898 90.94287109 C48.09648575 76.23341767 48.43181671 61.65550776 49.5690918 46.99121094 C50.73753319 31.23358285 50.46433987 15.4425554 50.28515625 -0.34765625 C58.98234669 0.47031368 66.96953448 2.64642129 75.28125 5.2421875 C76.34243042 5.56956909 77.40361084 5.89695068 78.49694824 6.23425293 C81.0943134 7.03619765 83.69030291 7.84231587 86.28515625 8.65234375 C86.17566211 21.32199806 86.06271206 33.99161699 85.94581699 46.66120529 C85.89158606 52.54967764 85.83837346 58.43815481 85.7878418 64.32666016 C85.52565126 94.77600359 85.07888804 125.21197683 84.28515625 155.65234375 C82.07929574 155.51455875 79.87379495 155.37100855 77.66845703 155.22509766 C75.82611984 155.10613632 75.82611984 155.10613632 73.94656372 154.98477173 C68.54922266 154.49473417 63.4071066 153.34776834 58.16015625 152.02734375 C56.54584717 151.62757324 56.54584717 151.62757324 54.89892578 151.21972656 C0.19838486 137.28771481 0.19838486 137.28771481 -10.31030273 122.390625 C-11.86675894 119.35617118 -12.08886401 117.55640329 -12.078125 114.171875 C-12.0788501 113.10195313 -12.0795752 112.03203125 -12.08032227 110.9296875 C-12.06283936 109.78628906 -12.04535645 108.64289063 -12.02734375 107.46484375 C-12.01823975 106.2840625 -12.00913574 105.10328125 -11.99975586 103.88671875 C-11.56507105 72.20302564 -11.56507105 72.20302564 -8.71484375 63.65234375 C-9.37484375 63.65234375 -10.03484375 63.65234375 -10.71484375 63.65234375 C-11.45479638 73.06557689 -12.13761755 82.48178314 -12.77734375 91.90234375 C-12.86822266 93.19914062 -12.95910156 94.4959375 -13.05273438 95.83203125 C-14.70530444 110.204227 -14.70530444 110.204227 -10.71484375 123.65234375 C-5.77598496 128.95044625 -0.11646794 132.40770695 6.41015625 135.40234375 C7.73587646 136.0224231 7.73587646 136.0224231 9.08837891 136.6550293 C26.60506635 144.62922173 45.02531561 150.63822825 63.28515625 156.65234375 C63.0334668 157.20994385 62.78177734 157.76754395 62.52246094 158.34204102 C55.06244355 174.98348676 50.10136203 190.46638846 48.28515625 208.65234375 C28.74360309 204.25892665 10.26293852 195.22594173 -7.71484375 186.65234375 C-8.61154785 186.22663086 -9.50825195 185.80091797 -10.43212891 185.36230469 C-26.36586271 177.7510085 -42.46249135 169.48841421 -55.71484375 157.65234375 C-56.3903125 157.0696875 -57.06578125 156.48703125 -57.76171875 155.88671875 C-64.55611795 149.65384015 -66.35299033 142.66845566 -66.82284546 133.55825806 C-66.8792074 131.22074283 -66.90536616 128.88503815 -66.91796875 126.546875 C-66.92498306 125.67804688 -66.93199738 124.80921875 -66.93922424 123.9140625 C-66.95674413 121.09760358 -66.96308427 118.2813553 -66.96484375 115.46484375 C-66.96551849 114.50138031 -66.96619324 113.53791687 -66.96688843 112.54525757 C-66.88776707 41.33086155 -66.88776707 41.33086155 -48.703125 22.4453125 C-38.10258872 12.88608627 -24.76026439 6.60622284 -11.58984375 1.40234375 C-10.78426025 1.06589844 -9.97867676 0.72945312 -9.14868164 0.3828125 C-3.50431294 -1.73955103 -3.50431294 -1.73955103 0 0 Z M59.28515625 8.65234375 C59.90056028 11.48163935 60.77010051 13.81647018 62.1328125 16.3671875 C62.49052734 17.05361328 62.84824219 17.74003906 63.21679688 18.44726562 C63.96994573 19.87421604 64.72775702 21.29871544 65.49023438 22.72070312 C67.45003433 26.50208929 68.82552264 29.2693719 68.28515625 33.65234375 C65.31515625 34.97234375 62.34515625 36.29234375 59.28515625 37.65234375 C59.66103744 41.91233057 61.09541665 43.85159199 64.2265625 46.734375 C66.04574034 50.03037618 65.88125213 53.05374264 65.28515625 56.65234375 C63.78281713 61.26949569 61.89514761 65.69643062 59.97265625 70.15234375 C58.97576247 72.51658991 57.97964874 74.88116515 56.984375 77.24609375 C56.28127197 78.90125 56.28127197 78.90125 55.56396484 80.58984375 C54.03744984 84.24555284 52.63552363 87.92846373 51.28515625 91.65234375 C51.94515625 91.65234375 52.60515625 91.65234375 53.28515625 91.65234375 C57.68038718 82.1396195 62.06491629 72.61604645 65.84765625 62.83984375 C66.32332031 61.61652344 66.79898438 60.39320313 67.2890625 59.1328125 C68.60774675 54.5251746 69.35518053 50.63205229 67.0078125 46.2890625 C66.18603516 45.32419922 66.18603516 45.32419922 65.34765625 44.33984375 C62.28812361 40.65827847 62.28812361 40.65827847 61.28515625 38.65234375 C61.92324219 38.44738281 62.56132812 38.24242187 63.21875 38.03125 C64.04503906 37.76183594 64.87132812 37.49242187 65.72265625 37.21484375 C66.54636719 36.94800781 67.37007812 36.68117188 68.21875 36.40625 C70.24735213 35.83078881 70.24735213 35.83078881 71.28515625 34.65234375 C71.01694705 28.13745572 68.33419602 23.34300717 65.22265625 17.71484375 C64.75021484 16.84021484 64.27777344 15.96558594 63.79101562 15.06445312 C62.63182879 12.92171383 61.46312308 10.78479846 60.28515625 8.65234375 C59.95515625 8.65234375 59.62515625 8.65234375 59.28515625 8.65234375 Z M-5.71484375 10.65234375 C-9.50994922 21.69156995 -9.50994922 21.69156995 -7.640625 32.734375 C-4.99737748 35.3668994 -2.00191705 36.29410472 1.47265625 37.40234375 C2.12685547 37.62277344 2.78105469 37.84320313 3.45507812 38.0703125 C5.06115047 38.60957767 6.67266187 39.13259655 8.28515625 39.65234375 C8.25035156 40.65394531 8.21554688 41.65554687 8.1796875 42.6875 C7.76787952 52.60172319 7.76787952 52.60172319 11.28515625 61.65234375 C19.61290631 70.31671639 28.59511265 78.541304 38.28515625 85.65234375 C38.94515625 85.32234375 39.60515625 84.99234375 40.28515625 84.65234375 C35.17067639 79.95944791 30.00649902 75.37988897 24.59765625 71.02734375 C13.46386602 62.0097633 13.46386602 62.0097633 11.28515625 57.65234375 C11.23687861 56.31076168 11.24791241 54.96669412 11.29296875 53.625 C11.30972656 52.83287109 11.32648438 52.04074219 11.34375 51.22460938 C11.38792351 49.5551105 11.43997327 47.88580094 11.5 46.21679688 C11.52126953 45.02666992 11.52126953 45.02666992 11.54296875 43.8125 C11.56504395 43.08683838 11.58711914 42.36117676 11.60986328 41.61352539 C11.1846134 39.04508003 10.31835241 38.23388158 8.28515625 36.65234375 C4.67255644 35.33480735 1.0219963 34.235811 -2.66015625 33.12890625 C-5.71484375 31.65234375 -5.71484375 31.65234375 -6.703125 29.5078125 C-6.71866556 25.72109521 -6.3160555 22.08405772 -5.77734375 18.33984375 C-5.62749023 17.22899414 -5.62749023 17.22899414 -5.47460938 16.09570312 C-5.2286444 14.28024738 -4.97274001 12.46614304 -4.71484375 10.65234375 C-5.04484375 10.65234375 -5.37484375 10.65234375 -5.71484375 10.65234375 Z " fill="#2B7FFF" transform="translate(76.71484375,154.34765625)"/>
<path d="M0 0 C10.55330525 -0.23984785 23.97699158 -0.41808062 32.109375 7.13671875 C37.37974643 12.23141113 37.46473012 20.90352833 37.734375 27.83984375 C37.77232178 28.72238831 37.81026855 29.60493286 37.84936523 30.51422119 C38.44625078 46.77461511 38.16778805 63.07237572 38.09899902 79.34057617 C38.07567141 84.97574068 38.05705516 90.61088919 38.046875 96.24609375 C38.04543739 97.03072306 38.04399979 97.81535236 38.04251862 98.62375832 C38.03064166 109.14016508 38.23776065 119.61687808 38.7333374 130.12339783 C39.25758858 141.50901429 39.33123929 152.89296718 39.34960938 164.28930664 C39.35948892 167.99191358 39.39075149 171.69400238 39.421875 175.39648438 C39.42839309 177.79556972 39.43364822 180.1946589 39.4375 182.59375 C39.4498468 183.67831985 39.4621936 184.76288971 39.47491455 185.88032532 C39.44982412 194.57150853 38.74954502 203.9252669 33.546875 211.19921875 C27.47801308 217.20958562 19.44935863 217.32057166 11.37158203 217.69873047 C10.50337893 217.74027693 9.63517582 217.78182339 8.74066353 217.82462883 C-2.82221794 218.32524445 -14.38956092 218.28081521 -25.9609375 218.26953125 C-28.45490529 218.27020803 -30.94887301 218.27118112 -33.44284058 218.27243042 C-38.65525952 218.27389586 -43.86766121 218.27179428 -49.08007812 218.26708984 C-55.62568183 218.26145792 -62.17124426 218.26472383 -68.71684647 218.27054214 C-98.78909983 218.2930461 -128.83173513 218.06594547 -158.890625 217.13671875 C-158.890625 216.14671875 -158.890625 215.15671875 -158.890625 214.13671875 C-157.73329739 214.13037084 -157.73329739 214.13037084 -156.55258942 214.12389469 C-137.66729499 214.02001018 -118.78203384 213.91129359 -99.89679718 213.79737949 C-90.76356652 213.74240185 -81.630332 213.68898353 -72.49707031 213.6394043 C-64.52463378 213.59612238 -56.5522219 213.54974349 -48.57982397 213.4998402 C-44.36933062 213.47358758 -40.15884103 213.44875327 -35.94831848 213.42764473 C-13.5402777 213.31597842 -13.5402777 213.31597842 8.86132812 212.80444336 C9.80113274 212.78316911 10.74093735 212.76189486 11.70922089 212.73997593 C18.29142058 212.4835883 23.85371999 211.33648565 29.421875 207.57421875 C34.05455556 200.88256905 34.54682158 192.83576021 34.4375 184.9375 C34.43598938 183.9707132 34.43447876 183.00392639 34.43292236 182.00784302 C34.42352076 178.82136281 34.39177057 175.63554171 34.359375 172.44921875 C34.34736172 170.17000804 34.33631453 167.89079206 34.32617188 165.61157227 C34.22974393 148.48110283 33.90856811 131.3540657 33.53671265 114.22763062 C33.2270279 99.91786788 33.07463011 85.61724184 33.11328125 71.3046875 C33.11590784 70.17579637 33.11590784 70.17579637 33.11858749 69.02409935 C33.13625485 61.58987741 33.16284177 54.15588238 33.21955967 46.72184849 C33.23411415 44.63673566 33.24426344 42.55165294 33.25267029 40.46650696 C33.2635661 37.91591026 33.28227653 35.36532959 33.31044006 32.81486511 C33.47570437 21.12953787 33.47570437 21.12953787 28.859375 10.69921875 C18.10585841 0.67889648 -8.17680522 4.58015792 -21.890625 4.13671875 C-21.890625 3.14671875 -21.890625 2.15671875 -21.890625 1.13671875 C-14.59546485 0.71728449 -7.29901281 0.34522358 0 0 Z " fill="#000000" transform="translate(350.890625,101.86328125)"/>
<path d="M0 0 C1.4490047 0.00119917 2.8980102 0.00164342 4.34701538 0.00138855 C7.36046336 0.00293618 10.37378967 0.0110845 13.38720703 0.0246582 C17.17880643 0.04155517 20.97027321 0.04539236 24.76190567 0.04483223 C41.30960408 0.04549158 57.8112285 0.25770272 74.3359375 1.23046875 C74.0059375 2.55046875 73.6759375 3.87046875 73.3359375 5.23046875 C72.19747375 5.22602753 71.05901001 5.2215863 69.88604736 5.2170105 C59.11757978 5.17633439 48.34912794 5.14642218 37.58060074 5.12684441 C32.04540028 5.1164407 26.51026222 5.10234426 20.97509766 5.07958984 C15.62585595 5.05773924 10.27667398 5.0458745 4.92739105 5.04071426 C2.89422415 5.03704034 0.86106024 5.02986652 -1.17208099 5.01900864 C-22.51985676 4.22036387 -22.51985676 4.22036387 -41.6640625 12.23046875 C-44.97751037 17.20080217 -46.1652826 20.39788543 -46.18977356 26.49005127 C-46.19798038 27.18655847 -46.20618719 27.88306568 -46.2146427 28.60067916 C-46.23714447 30.91669365 -46.23151274 33.23174807 -46.22583008 35.54785156 C-46.23621006 37.21575535 -46.24831995 38.88364914 -46.26202393 40.55152893 C-46.29412228 45.07035649 -46.30167155 49.58892557 -46.30449891 54.10785389 C-46.311367 58.84734007 -46.33993556 63.58669778 -46.3658905 68.32611084 C-46.40641687 76.28852647 -46.43225829 84.25087739 -46.44799805 92.21337891 C-46.46821027 102.40997403 -46.51136856 112.60633168 -46.56229115 122.80281448 C-46.60612571 131.59323157 -46.64060423 140.38368164 -46.67295623 149.17414761 C-46.68355972 151.98706567 -46.69518805 154.79997833 -46.70685768 157.61289215 C-46.72455288 162.04848835 -46.73642821 166.48406634 -46.74394226 170.91969109 C-46.7474286 172.54053913 -46.75262346 174.16138461 -46.75972557 175.78222084 C-47.2806233 193.16838735 -47.2806233 193.16838735 -41.6640625 209.23046875 C-42.9840625 209.23046875 -44.3040625 209.23046875 -45.6640625 209.23046875 C-50.25780029 204.37423166 -50.8129422 200.44574105 -50.81123352 194.01411438 C-50.81674855 192.90392646 -50.81674855 192.90392646 -50.822375 191.77131051 C-50.83341323 189.28413818 -50.83725592 186.79700762 -50.84106445 184.30981445 C-50.84732904 182.52927009 -50.85397583 180.74872704 -50.86097717 178.96818542 C-50.88202183 173.11421622 -50.89238042 167.26024674 -50.90234375 161.40625 C-50.90639125 159.39090651 -50.91050817 157.37556316 -50.91469383 155.36021996 C-50.93374694 145.89139569 -50.94797733 136.42257922 -50.9563058 126.95373946 C-50.96607696 116.02513015 -50.99239287 105.09672345 -51.03280669 94.16818553 C-51.06297365 85.72050979 -51.07777526 77.2728921 -51.08108681 68.82516354 C-51.08343678 63.78010808 -51.09239031 58.73526904 -51.11754799 53.69027138 C-51.14084357 48.94191307 -51.14505593 44.19391344 -51.13478661 39.44551277 C-51.13429148 37.70568396 -51.14060493 35.96583741 -51.15434265 34.22606277 C-51.28399056 16.82938157 -51.28399056 16.82938157 -45.0234375 9.2421875 C-32.68263416 -0.91201719 -15.22407229 -0.08576133 0 0 Z " fill="#000000" transform="translate(216.6640625,101.76953125)"/>
<path d="M0 0 C0 0.99 0 1.98 0 3 C-10.99956991 3.26570222 -21.99924138 3.52671041 -32.99905109 3.78230286 C-38.11099375 3.90121962 -43.22289392 4.02154064 -48.3347168 4.14550781 C-68.65314293 4.63720894 -88.96781889 5.09251855 -109.29296875 5.125 C-110.41748664 5.12888229 -110.41748664 5.12888229 -111.56472206 5.13284302 C-113.63979767 5.13859542 -115.71471894 5.13719552 -117.78979492 5.1328125 C-118.9484758 5.13168457 -120.10715668 5.13055664 -121.3009491 5.12939453 C-124 5 -124 5 -126 4 C-126 12.25 -126 20.5 -126 29 C-121.67600098 28.90912109 -121.67600098 28.90912109 -117.26464844 28.81640625 C-107.62168619 28.61416844 -97.97865867 28.41518261 -88.33559799 28.21769714 C-82.50267051 28.09814558 -76.6697681 27.97757873 -70.83691406 27.85449219 C-46.55374614 27.34273802 -22.28957022 26.85898653 2 27 C2 18.42 2 9.84 2 1 C3.32 1 4.64 1 6 1 C6 10.57 6 20.14 6 30 C2.58659466 31.70670267 -1.31560212 31.37345122 -5.078125 31.52734375 C-6.04357239 31.56866928 -7.00901978 31.60999481 -8.00372314 31.65257263 C-21.50635782 32.18854292 -35.01922787 32.35201067 -48.53033066 32.53263092 C-50.77296921 32.56280909 -53.01558981 32.59410571 -55.25820923 32.62567139 C-73.90076291 32.88658505 -92.5429166 33.09946237 -111.1875 33.125 C-112.51013855 33.12888229 -112.51013855 33.12888229 -113.85949707 33.13284302 C-116.27486554 33.13854803 -118.69010029 33.13723192 -121.10546875 33.1328125 C-121.80304794 33.13479141 -122.50062714 33.13677032 -123.21934509 33.1388092 C-127.8844196 33.1155804 -127.8844196 33.1155804 -129 32 C-129.08783542 29.78144736 -129.10694609 27.56011504 -129.09765625 25.33984375 C-129.0962413 24.67537735 -129.09482635 24.01091095 -129.09336853 23.3263092 C-129.08775518 21.19666101 -129.07520054 19.06711661 -129.0625 16.9375 C-129.05748671 15.49674631 -129.05292351 14.05599097 -129.04882812 12.61523438 C-129.03778145 9.07678898 -129.02050792 5.53840461 -129 2 C-126.0592322 0.5296161 -123.05571871 0.77328145 -119.8269043 0.70556641 C-118.71396342 0.67691561 -118.71396342 0.67691561 -117.57853889 0.647686 C-115.09802691 0.58554568 -112.61741533 0.53079942 -110.13671875 0.4765625 C-108.38140058 0.43515618 -106.62608548 0.39361928 -104.87077332 0.35195923 C-86.37882831 -0.07498598 -67.88434506 -0.33902803 -49.38891602 -0.55761719 C-44.64738639 -0.61387139 -39.90598439 -0.67756701 -35.16457081 -0.74279213 C-31.45781981 -0.7926722 -27.75102261 -0.8378386 -24.04419518 -0.88163376 C-22.29188588 -0.90307994 -20.53959627 -0.92620739 -18.78733253 -0.9510994 C-16.37363159 -0.98488945 -13.9599433 -1.01209258 -11.54614258 -1.03759766 C-10.8363324 -1.04897263 -10.12652222 -1.0603476 -9.39520264 -1.07206726 C-6.10835717 -1.10010043 -3.14180388 -1.02300043 0 0 Z " fill="#000000" transform="translate(339,253)"/>
<path d="M0 0 C2.42999287 -0.00322234 4.85998554 -0.0065871 7.28997803 -0.01008606 C12.32873995 -0.01601312 17.36748485 -0.01793198 22.40625 -0.01733398 C28.87365177 -0.01723116 35.3409467 -0.03103395 41.80832291 -0.04810619 C46.80096954 -0.05917953 51.79358959 -0.06125486 56.78624725 -0.06072426 C59.17376839 -0.06190562 61.56129019 -0.06633612 63.94879913 -0.07405663 C67.26054219 -0.08378854 70.57204261 -0.08100875 73.88378906 -0.07495117 C75.36403061 -0.08338043 75.36403061 -0.08338043 76.87417603 -0.09197998 C77.77068878 -0.08778549 78.66720154 -0.083591 79.59088135 -0.07926941 C80.37164158 -0.07981418 81.15240181 -0.08035894 81.95682144 -0.08092022 C83.859375 0.16796875 83.859375 0.16796875 85.859375 2.16796875 C86.85322955 7.93232513 86.95663524 13.64587308 86.984375 19.48046875 C86.98904785 20.17414551 86.9937207 20.86782227 86.99853516 21.58251953 C86.98790158 24.95172651 86.75602565 27.92818386 85.859375 31.16796875 C71.31836858 32.19874379 56.83062502 32.2991261 42.2578125 32.265625 C39.83973215 32.26375529 37.42165142 32.26233401 35.00357056 32.26133728 C28.70075396 32.2575556 22.39796114 32.24776351 16.09515381 32.2366333 C9.63895998 32.22632462 3.18276223 32.22181958 -3.2734375 32.21679688 C-15.89584336 32.20613646 -28.5182329 32.18931136 -41.140625 32.16796875 C-41.140625 31.17796875 -41.140625 30.18796875 -41.140625 29.16796875 C-11.28825585 28.48274572 18.56437943 27.99313067 48.421875 27.60546875 C49.2767664 27.59436695 50.13165779 27.58326515 51.01245499 27.57182693 C61.62805833 27.43424343 72.24370059 27.29994855 82.859375 27.16796875 C82.859375 19.57796875 82.859375 11.98796875 82.859375 4.16796875 C40.619375 4.16796875 -1.620625 4.16796875 -45.140625 4.16796875 C-45.140625 12.74796875 -45.140625 21.32796875 -45.140625 30.16796875 C-46.130625 30.49796875 -47.120625 30.82796875 -48.140625 31.16796875 C-49.4869518 28.47531514 -49.27025136 26.36682626 -49.2734375 23.35546875 C-49.27472656 22.19789063 -49.27601563 21.0403125 -49.27734375 19.84765625 C-49.27347656 18.63335937 -49.26960937 17.4190625 -49.265625 16.16796875 C-49.26949219 14.95367187 -49.27335938 13.739375 -49.27734375 12.48828125 C-49.27605469 11.33070313 -49.27476562 10.173125 -49.2734375 8.98046875 C-49.27230957 7.91441406 -49.27118164 6.84835938 -49.27001953 5.75 C-49.140625 3.16796875 -49.140625 3.16796875 -48.140625 1.16796875 C-32.08527585 0.29027415 -16.07757557 0.00508446 0 0 Z " fill="#000000" transform="translate(258.140625,201.83203125)"/>
<path d="M0 0 C5.64227224 3.96565398 9.8938047 8.3168803 12 15 C12.25 18.5 12.25 18.5 12 21 C4.13344266 21.91615379 -3.7122235 22.30106702 -11.625 22.5625 C-12.85379883 22.6049585 -14.08259766 22.64741699 -15.34863281 22.69116211 C-24.2367911 22.98216439 -33.10774091 23.1242707 -42 23 C-41.75362618 15.36241164 -39.86669273 9.97183754 -35 4 C-24.80761572 -4.82733282 -11.76902569 -7.30714233 0 0 Z " fill="#000000" transform="translate(290,166)"/>
<path d="M0 0 C3 1 3 1 4 3 C4.09833936 5.47005337 4.13903081 7.90557661 4.125 10.375 C4.13080078 11.38433594 4.13080078 11.38433594 4.13671875 12.4140625 C4.13014641 15.75280945 4.03109003 18.80853085 3 22 C-1.16413007 21.68769025 -3.70353622 20.65803827 -7.0625 18.3125 C-10.01656464 16.25945172 -10.01656464 16.25945172 -13.5 16.375 C-14.97822138 17.3358439 -16.44994549 18.30703248 -17.90625 19.30078125 C-23.53539254 23.02903797 -23.53539254 23.02903797 -27 22.8125 C-27.66 22.544375 -28.32 22.27625 -29 22 C-31.57231219 14.96901335 -32.12996178 8.40782155 -32 1 C-26.82372434 1.28757087 -23.42390554 2.15114055 -18.875 4.6875 C-15.10316933 6.72395464 -15.10316933 6.72395464 -10.875 6.625 C-7.75834205 4.86341072 -4.76469835 2.97922665 -1.83203125 0.92578125 C-1.22746094 0.62027344 -0.62289062 0.31476563 0 0 Z " fill="#000000" transform="translate(118,145)"/>
<path d="M0 0 C2.72707207 2.31387933 3.87341441 4.37728771 4.36328125 7.93359375 C4.39415972 13.87255269 3.50633745 17.12513756 -0.625 21.5625 C-4.05308688 23.32286894 -7.2174345 23.38040216 -10.9375 22.75 C-14.2713374 21.48275186 -17.16151013 19.99054567 -19.10546875 16.8828125 C-20.55142251 13.17628314 -20.61266824 9.65247245 -19.9375 5.75 C-15.82618669 -1.87174237 -7.59583648 -3.23227084 0 0 Z " fill="#000000" transform="translate(281.9375,134.25)"/>
<path d="M0 0 C0.99 0.33 1.98 0.66 3 1 C4.16820814 3.67714366 5.12046616 6.22704898 6 9 C6.39082764 10.22178955 6.39082764 10.22178955 6.78955078 11.46826172 C10.59627048 23.77403666 12.25694497 35.48416444 12.4375 48.375 C12.45989746 49.36129395 12.48229492 50.34758789 12.50537109 51.36376953 C12.48113225 58.9658375 11.38783115 67.11531174 6.22045898 73.04052734 C0.81079931 78.02260359 -3.87484908 78.22984358 -11 78 C-11.66 77.67 -12.32 77.34 -13 77 C-13 81.95 -13 86.9 -13 92 C-14.485 92.495 -14.485 92.495 -16 93 C-16.33 87.39 -16.66 81.78 -17 76 C-19.31 75.34 -21.62 74.68 -24 74 C-24 73.01 -24 72.02 -24 71 C-20.38058281 71.44319394 -17.09222119 71.9692596 -13.625 73.125 C-8.60025162 74.3378703 -3.81391741 74.5506481 0.8359375 71.98828125 C6.15763004 67.87370433 7.11273217 63.34905586 8 57 C9.26176304 39.17946509 6.56082192 22.18959307 -0.14453125 5.65234375 C-1 3 -1 3 0 0 Z " fill="#000000" transform="translate(127,53)"/>
<path d="M0 0 C0.99 0.33 1.98 0.66 3 1 C3.53421455 9.36936133 3.13049288 17.49117189 -1 25 C-4.65813201 26.64915788 -8.1429801 25.66756114 -12 25 C-11.63495936 30.66442374 -10.9445679 35.00703705 -8 40 C-6.35 40 -4.7 40 -3 40 C-1.41910739 45.94553088 -0.26009069 51.85045136 0.625 57.9375 C0.75688721 58.84395264 0.88877441 59.75040527 1.0246582 60.68432617 C2.17032211 69.15424089 2.30180483 77.47121896 2 86 C1.01 86 0.02 86 -1 86 C-1.57406043 81.12582999 -2.1435787 76.25115812 -2.70898438 71.37597656 C-2.90176157 69.71925708 -3.09575622 68.06267877 -3.29101562 66.40625 C-3.57225387 64.01859472 -3.84903907 61.63045778 -4.125 59.2421875 C-4.21249512 58.50757294 -4.29999023 57.77295837 -4.39013672 57.01608276 C-4.8508122 52.98777923 -5.08922151 49.05400238 -5 45 C-6.11375 44.9071875 -6.11375 44.9071875 -7.25 44.8125 C-11.04494009 43.6912677 -11.93284656 42.37635062 -14 39 C-16.39872689 33.16605929 -17.79290762 28.14711182 -16 22 C-12.52728445 19.6848563 -11.07260203 19.74546237 -7 20 C-6.01 20.33 -5.02 20.66 -4 21 C-1.88329723 13.99757448 -0.45965708 7.30696249 0 0 Z " fill="#000000" transform="translate(91,59)"/>
<path d="M0 0 C-0.28417969 1.89599609 -0.28417969 1.89599609 -1 4 C-6.79384984 6.79205886 -12.41749825 7.62828567 -18.75 8.375 C-26.87071068 9.48394694 -33.63488881 11.30385564 -41 15 C-56.09044668 22.53653269 -68.72021954 27.85449464 -86 27 C-86 25.68 -86 24.36 -86 23 C-85.15179688 22.97421875 -84.30359375 22.9484375 -83.4296875 22.921875 C-69.51880312 22.24926081 -58.82623734 18.53852551 -46.5 12.4375 C-37.96774841 8.22257459 -30.50693681 5.17286053 -21 4 C-18.94896935 3.73372408 -16.89825583 3.46513147 -14.84765625 3.19555664 C-12.92828549 2.95218153 -11.00518133 2.73878957 -9.08203125 2.52734375 C-5.43936382 1.90407366 -3.71621158 0 0 0 Z " fill="#000000" transform="translate(235,322)"/>
<path d="M0 0 C0.73828125 2.18359375 0.73828125 2.18359375 1 5 C-0.58203125 7.53515625 -0.58203125 7.53515625 -2.8125 10.0625 C-5.32293503 12.94616784 -7.46460568 15.4824035 -9 19 C-9.99 19 -10.98 19 -12 19 C-11.69723124 12.94462479 -8.72245962 9.48516542 -5 5 C-10.39716844 7.28341742 -14.53529882 10.15802817 -18.9375 14 C-24.62157063 18.91083702 -29.81797027 22.61981548 -37.4375 23.3125 C-40 23 -40 23 -42 22 C-42 21.34 -42 20.68 -42 20 C-41.33355469 19.87625 -40.66710937 19.7525 -39.98046875 19.625 C-31.83995102 17.80334568 -26.44309607 14.17014396 -20 9 C-7.68058394 -0.54861314 -7.68058394 -0.54861314 0 0 Z " fill="#000000" transform="translate(195,303)"/>
<path d="M0 0 C4.71403788 0.47939368 8.66579301 0.96834048 13 3 C12.40409913 10.43500931 10.29082838 17.21734467 8.0625 24.3125 C7.70220703 25.49134766 7.34191406 26.67019531 6.97070312 27.88476562 C4.26344302 36.60483547 4.26344302 36.60483547 2 40 C0.58249437 39.88490339 -0.83401169 39.75746342 -2.25 39.625 C-3.03890625 39.55539062 -3.8278125 39.48578125 -4.640625 39.4140625 C-7.085877 38.98492887 -8.84836903 38.21399362 -11 37 C-11 36.01 -11 35.02 -11 34 C-6.88425629 34.4748935 -3.63616656 35.0210244 0 37 C0.14695313 36.44957031 0.29390625 35.89914062 0.4453125 35.33203125 C3.18158834 25.18893978 6.10280274 15.09799823 9 5 C6.03 4.34 3.06 3.68 0 3 C0 2.01 0 1.02 0 0 Z " fill="#2B7FFF" transform="translate(139,315)"/>
<path d="M0 0 C3.13348567 2.28372684 6.00315771 4.8946401 7.84375 8.34375 C7.51375 9.33375 7.18375 10.32375 6.84375 11.34375 C6.18375 11.34375 5.52375 11.34375 4.84375 11.34375 C4.163125 10.43625 3.4825 9.52875 2.78125 8.59375 C-1.0398918 3.89252015 -5.82426276 1.83330735 -11.76171875 0.9609375 C-19.54086177 0.62417806 -28.3895393 2.12433915 -34.44140625 7.296875 C-36.35398132 9.32554395 -36.35398132 9.32554395 -37.15625 12.34375 C-38.14625 12.34375 -39.13625 12.34375 -40.15625 12.34375 C-40.63424043 8.99781702 -40.36700937 7.64483482 -38.40625 4.84375 C-28.59559815 -3.76448212 -11.65270097 -6.27453129 0 0 Z " fill="#000000" transform="translate(110.15625,42.65625)"/>
<path d="M0 0 C0.7890625 2.109375 0.7890625 2.109375 1 4 C-1.76276177 3.47731534 -4.3260876 2.89130413 -7 2 C-16.50985715 1.26715626 -16.50985715 1.26715626 -25 5 C-26.714395 7.01255065 -27.01651483 8.27184604 -26.95703125 10.89453125 C-26.58275694 14.7008304 -25.8699668 17.63405976 -24 21 C-24 21.99 -24 22.98 -24 24 C-25.8125 23.875 -25.8125 23.875 -28 23 C-31.56356927 18.03645708 -31.81484432 12.88605192 -31 7 C-29.07611472 2.27773612 -26.70973858 0.60735116 -22.1875 -1.375 C-14.71976923 -3.98052942 -7.13234874 -3.66181889 0 0 Z " fill="#000000" transform="translate(101,54)"/>
<path d="M0 0 C0.99 0 1.98 0 3 0 C9.30593779 17.55261035 13.87828885 35.44294424 16 54 C14.515 54.495 14.515 54.495 13 55 C11.59755137 49.61969706 10.42683848 44.23034228 9.3503418 38.77612305 C7.35583211 28.72246402 4.99730737 18.92415164 1.87988281 9.15722656 C0 3.25572848 0 3.25572848 0 0 Z " fill="#2B7FFF" transform="translate(106,165)"/>
<path d="M0 0 C0.99 0 1.98 0 3 0 C6.39747931 8.41786169 7.86016655 15.90479633 7 25 C6.67 25.33 6.34 25.66 6 26 C-1.41176471 25.29411765 -1.41176471 25.29411765 -4 24 C-4 23.01 -4 22.02 -4 21 C1.75 21.875 1.75 21.875 4 23 C2.96324187 15.24637268 1.83622588 7.60722152 0 0 Z " fill="#000000" transform="translate(120,80)"/>
<path d="M0 0 C4.1500316 -0.49405138 5.71915862 -0.18902785 9.25 2.1875 C13.32233702 6.35239013 14.08936055 9.11909796 14.125 14.8125 C14.09311538 16.20859103 14.05472088 17.60461746 14 19 C12.09765625 18.8046875 12.09765625 18.8046875 10 18 C9.05859375 15.8203125 9.05859375 15.8203125 8.4375 13.125 C7.58540121 9.49431819 6.93604763 7.379978 4 5 C1.90010348 3.82425289 1.90010348 3.82425289 0 3 C0 2.01 0 1.02 0 0 Z " fill="#000000" transform="translate(297,94)"/>
<path d="M0 0 C4.99503071 0.4913145 6.31841769 1.88091769 9.8125 5.375 C11.41975635 8.58951269 10.86998185 11.81112536 10.8125 15.375 C9.8225 15.375 8.8325 15.375 7.8125 15.375 C7.39677734 14.41787109 7.39677734 14.41787109 6.97265625 13.44140625 C6.61042969 12.61511719 6.24820312 11.78882812 5.875 10.9375 C5.51535156 10.11378906 5.15570313 9.29007813 4.78515625 8.44140625 C3.98127677 6.43089883 3.98127677 6.43089883 2.8125 5.375 C0.48432036 5.00739269 -1.8493385 4.67258419 -4.1875 4.375 C-4.1875 0.23032509 -4.13587463 0.48657349 0 0 Z " fill="#000000" transform="translate(290.1875,95.625)"/>
<path d="M0 0 C6.20666773 0.53505756 11.13621567 1.32713462 15.875 5.75 C17.44241453 8.88482905 17.19900143 11.55064189 17 15 C16.01 15 15.02 15 14 15 C13.79375 13.906875 13.5875 12.81375 13.375 11.6875 C12.35504608 7.86053641 12.35504608 7.86053641 9.3125 6.1875 C5.8917237 4.96118397 2.51612064 3.91419137 -1 3 C-0.67 2.01 -0.34 1.02 0 0 Z " fill="#000000" transform="translate(110,37)"/>
<path d="M0 0 C2.1875 -0.375 2.1875 -0.375 5 0 C9.04991929 4.23400653 11.14533528 6.82653005 11.0625 12.625 C11.05347656 13.44226563 11.04445313 14.25953125 11.03515625 15.1015625 C11.02355469 15.72804688 11.01195312 16.35453125 11 17 C10.01 17 9.02 17 8 17 C7.32942113 15.2097939 6.6636531 13.41778511 6 11.625 C5.62875 10.62726563 5.2575 9.62953125 4.875 8.6015625 C4 6 4 6 4 4 C2.68 3.67 1.36 3.34 0 3 C0 2.01 0 1.02 0 0 Z " fill="#000000" transform="translate(309,95)"/>
<path d="M0 0 C0.042721 1.66611905 0.04063832 3.33382885 0 5 C-1 6 -1 6 -4 6.125 C-7 6 -7 6 -8 5 C-8.04063832 3.33382885 -8.042721 1.66611905 -8 0 C-5.13822943 -1.43088528 -3.06624227 -0.59991697 0 0 Z " fill="#000000" transform="translate(260,265)"/>
<path d="M0 0 C4.875 0.875 4.875 0.875 6 2 C6.04063832 3.66617115 6.042721 5.33388095 6 7 C3.6875 7.6875 3.6875 7.6875 1 8 C-0.8125 6.5625 -0.8125 6.5625 -2 5 C-1.34 3.35 -0.68 1.7 0 0 Z " fill="#000000" transform="translate(299,263)"/>
<path d="M0 0 C0.99 0.66 1.98 1.32 3 2 C3 2.66 3 3.32 3 4 C0 5 0 5 -2.4375 4.375 C-5.070943 3.69978727 -5.070943 3.69978727 -7.1875 5.4375 C-7.785625 5.953125 -8.38375 6.46875 -9 7 C-9.66 7 -10.32 7 -11 7 C-10.75 4.625 -10.75 4.625 -10 2 C-6.89865622 -0.41215627 -3.81505974 -0.32468594 0 0 Z " fill="#000000" transform="translate(113,73)"/>
<path d="M0 0 C2.5625 0.1875 2.5625 0.1875 4.5625 2.1875 C4.02678571 5.72321429 4.02678571 5.72321429 2.5625 7.1875 C0.0625 7.3125 0.0625 7.3125 -2.4375 7.1875 C-3.4375 6.1875 -3.4375 6.1875 -3.5625 3.6875 C-3.39599509 0.35740177 -3.31519894 0.2550153 0 0 Z " fill="#000000" transform="translate(225.4375,264.8125)"/>
<path d="M0 0 C0 0.99 0 1.98 0 3 C-1.60149886 3.67305018 -3.20631029 4.33822227 -4.8125 5 C-5.70582031 5.37125 -6.59914063 5.7425 -7.51953125 6.125 C-10 7 -10 7 -13 7 C-10.66265451 0.83790735 -6.22059253 -0.43399483 0 0 Z " fill="#000000" transform="translate(122,107)"/>
<path d="M0 0 C2.58148508 0.35606691 3.82045747 0.83328193 5.75 2.625 C7.43754802 5.83134123 7.20576047 8.43348514 7 12 C6.01 12 5.02 12 4 12 C3.32645501 10.56570999 2.66140299 9.12742943 2 7.6875 C1.62875 6.88699219 1.2575 6.08648437 0.875 5.26171875 C0 3 0 3 0 0 Z " fill="#000000" transform="translate(320,97)"/>
<path d="M0 0 C2.625 0.375 2.625 0.375 5 1 C6.125 4.75 6.125 4.75 5 7 C3.02 7 1.04 7 -1 7 C-1.625 4.625 -1.625 4.625 -2 2 C-1.34 1.34 -0.68 0.68 0 0 Z " fill="#000000" transform="translate(284,263)"/>
<path d="M0 0 C2.5 0.125 2.5 0.125 3.5 1.125 C3.625 3.625 3.625 3.625 3.5 6.125 C2.5 7.125 2.5 7.125 0 7.25 C-2.5 7.125 -2.5 7.125 -3.5 6.125 C-3.625 3.625 -3.625 3.625 -3.5 1.125 C-2.5 0.125 -2.5 0.125 0 0 Z " fill="#000000" transform="translate(271.5,263.875)"/>
<path d="M0 0 C2.00720923 0.28674418 4.0085944 0.61866701 6 1 C6 2.98 6 4.96 6 7 C4.00045254 7.04254356 1.99958364 7.04080783 0 7 C-1 6 -1 6 -1.125 3.5 C-1 1 -1 1 0 0 Z " fill="#000000" transform="translate(238,264)"/>
<path d="M0 0 C2.4375 0.875 2.4375 0.875 3.75 2.9375 C4.0903125 3.8965625 4.0903125 3.8965625 4.4375 4.875 C3.344375 4.854375 2.25125 4.83375 1.125 4.8125 C-2.50634191 4.68955548 -2.50634191 4.68955548 -5.5625 5.875 C-5.5625 4.555 -5.5625 3.235 -5.5625 1.875 C-2.5625 -0.125 -2.5625 -0.125 0 0 Z " fill="#000000" transform="translate(127.5625,71.125)"/>
<path d="M0 0 C1.4540625 0.61875 1.4540625 0.61875 2.9375 1.25 C3.2675 2.24 3.5975 3.23 3.9375 4.25 C0.9675 3.92 -2.0025 3.59 -5.0625 3.25 C-5.0625 2.26 -5.0625 1.27 -5.0625 0.25 C-3.0625 -0.75 -3.0625 -0.75 0 0 Z " fill="#000000" transform="translate(129.0625,106.75)"/>
<path d="M0 0 C0.33 0.99 0.66 1.98 1 3 C-3.455 3.495 -3.455 3.495 -8 4 C-7.67 3.01 -7.34 2.02 -7 1 C-4.53721199 -0.231394 -2.7204945 -0.07159196 0 0 Z " fill="#000000" transform="translate(115,82)"/>
<path d="M0 0 C1.65 0 3.3 0 5 0 C5 0.99 5 1.98 5 3 C3.02 3 1.04 3 -1 3 C-0.67 2.01 -0.34 1.02 0 0 Z " fill="#000000" transform="translate(126,81)"/>
</svg>
