<?xml version="1.0" encoding="UTF-8"?>
<svg version="1.1" xmlns="http://www.w3.org/2000/svg" width="400" height="400">
<path d="M0 0 C0.91797363 0.00418945 1.83594727 0.00837891 2.78173828 0.01269531 C12.26921573 0.17084798 20.72932383 1.71737416 28.5625 7.3125 C31.15082426 10.36539528 32.40468209 12.36559253 33.0625 16.3125 C32.3910683 20.34109018 31.29236806 22.2497212 28.5625 25.3125 C19.25136851 31.01091247 8.82933013 31.65713113 -1.8125 31.625 C-2.87210938 31.64111328 -3.93171875 31.65722656 -5.0234375 31.67382812 C-14.6182419 31.67970729 -23.77919721 30.43914224 -31.4375 24.3125 C-32.05625 23.9 -32.675 23.4875 -33.3125 23.0625 C-35.27996586 20.00199754 -34.99535043 16.7646097 -34.4375 13.3125 C-32.10165681 7.89759078 -28.52449052 5.91399029 -23.4609375 3.390625 C-15.7808169 0.65197734 -8.10686383 -0.05080799 0 0 Z M-17.4375 11.3125 C-17.7675 12.9625 -18.0975 14.6125 -18.4375 16.3125 C-17.4475 16.8075 -17.4475 16.8075 -16.4375 17.3125 C-16.1075 15.3325 -15.7775 13.3525 -15.4375 11.3125 C-16.0975 11.3125 -16.7575 11.3125 -17.4375 11.3125 Z M15.5625 11.3125 C15.5625 12.9625 15.5625 14.6125 15.5625 16.3125 C16.5525 16.3125 17.5425 16.3125 18.5625 16.3125 C18.2325 14.6625 17.9025 13.0125 17.5625 11.3125 C16.9025 11.3125 16.2425 11.3125 15.5625 11.3125 Z " fill="#000000" transform="translate(214.4375,201.6875)"/>
<path d="M0 0 C0.99 0.495 0.99 0.495 2 1 C2.51489258 3.52612305 2.51489258 3.52612305 2.89453125 7.01171875 C2.9669957 7.66362183 3.03946014 8.3155249 3.11412048 8.98718262 C3.35774146 11.21960387 3.58568717 13.4533119 3.8125 15.6875 C3.89415405 16.46179352 3.97580811 17.23608704 4.05993652 18.03384399 C6.49514416 41.16046295 8.22535084 64.36149882 10.046875 87.54296875 C10.19188698 89.38586487 10.19188698 89.38586487 10.33982849 91.26599121 C10.47083702 92.95033264 10.47083702 92.95033264 10.60449219 94.66870117 C10.68125183 95.65408371 10.75801147 96.63946625 10.83709717 97.65470886 C10.93753315 99.10067282 11 100.55055212 11 102 C12.14210938 102.08636719 13.28421875 102.17273438 14.4609375 102.26171875 C41.44504559 104.51251782 68.25980727 110.37847327 93.5 120.25 C94.34933105 120.57911377 95.19866211 120.90822754 96.07373047 121.24731445 C96.84346191 121.56273193 97.61319336 121.87814941 98.40625 122.203125 C99.07978516 122.47801758 99.75332031 122.75291016 100.44726562 123.03613281 C102 124 102 124 103 127 C97.79800115 126.36721341 93.39414496 124.71392393 88.5625 122.8125 C65.17368815 113.96958176 40.4927999 109.74462938 15.78540039 106.45605469 C13 106 13 106 11 105 C11.13277344 106.29808594 11.26554688 107.59617187 11.40234375 108.93359375 C12.8152181 123.27867531 13.55535577 137.59424987 14 152 C13.01 152 12.02 152 11 152 C10.5387948 146.72941353 10.08102392 141.45853669 9.625 136.1875 C9.55686096 135.40166534 9.48872192 134.61583069 9.41851807 133.80618286 C8.38663745 121.87842752 7.44005354 109.948997 6.64697266 98.00268555 C6.57526855 96.96926025 6.50356445 95.93583496 6.4296875 94.87109375 C6.37022949 93.97318115 6.31077148 93.07526855 6.24951172 92.15014648 C6.11837913 89.95248205 6.11837913 89.95248205 5 88 C2.8954837 87.37299976 2.8954837 87.37299976 0.3203125 87 C-1.15115234 86.75407104 -1.15115234 86.75407104 -2.65234375 86.50317383 C-4.24755859 86.25410278 -4.24755859 86.25410278 -5.875 86 C-7.52048828 85.7383606 -7.52048828 85.7383606 -9.19921875 85.47143555 C-59.97981236 77.56837314 -109.8489185 81.7041247 -160 92 C-160 91.01 -160 90.02 -160 89 C-105.59451479 72.662803 -49.42454128 74.68002813 6 84 C5.93006836 83.27675537 5.86013672 82.55351074 5.78808594 81.80834961 C4.12657684 64.54281258 2.54316862 47.26966215 1.02990723 29.99050903 C0.84351945 27.8743006 0.65464154 25.75830999 0.46325684 23.64254761 C0.19261747 20.64376569 -0.06884647 17.64431399 -0.328125 14.64453125 C-0.41126953 13.74370819 -0.49441406 12.84288513 -0.58007812 11.9147644 C-0.93180894 7.7366058 -1.16904531 4.09218519 0 0 Z " fill="#2B7FFF" transform="translate(274,75)"/>
<path d="M0 0 C0.82935059 0.35690918 1.65870117 0.71381836 2.51318359 1.08154297 C3.26422363 1.42330566 4.01526367 1.76506836 4.7890625 2.1171875 C5.4382666 2.40964355 6.0874707 2.70209961 6.75634766 3.00341797 C8.7936744 4.4151041 9.43913297 5.8639594 10.375 8.125 C4.88002027 7.55805765 0.65480765 5.54115264 -4.25 3.1875 C-47.41256374 -16.72221935 -94.74349561 -26.37800254 -142.1875 -26.1875 C-143.14033875 -26.18567719 -144.09317749 -26.18385437 -145.07489014 -26.18197632 C-161.08882936 -26.13071061 -176.78065774 -25.3758314 -192.625 -22.875 C-193.6867041 -22.70871094 -194.7484082 -22.54242188 -195.84228516 -22.37109375 C-230.34571236 -16.75486144 -263.34459445 -5.75345575 -294.80688477 9.36572266 C-296.625 10.125 -296.625 10.125 -298.625 10.125 C-298.625 9.135 -298.625 8.145 -298.625 7.125 C-205.2035934 -40.47308342 -95.78353283 -41.9349915 0 0 Z " fill="#2B7FFF" transform="translate(353.625,92.875)"/>
<path d="M0 0 C15.94124963 15.57894851 28.69376264 51.93565725 29.609375 74.08203125 C29.568125 74.73429687 29.526875 75.3865625 29.484375 76.05859375 C28.494375 76.05859375 27.504375 76.05859375 26.484375 76.05859375 C26.28392578 75.2900708 26.08347656 74.52154785 25.87695312 73.72973633 C16.46868341 32.21803334 16.46868341 32.21803334 -8.015625 -0.69140625 C-29.24900582 -12.96695454 -62.36063597 -9.79760065 -85.12109375 -4.02734375 C-95.04059531 -0.73422987 -99.69753243 5.09717265 -104.515625 14.05859375 C-106.21303405 17.8320161 -107.66787762 21.66981603 -109.078125 25.55859375 C-109.46307129 26.60378174 -109.84801758 27.64896973 -110.24462891 28.72583008 C-115.02349645 41.91860843 -118.53801554 55.3567486 -121.515625 69.05859375 C-122.505625 69.05859375 -123.495625 69.05859375 -124.515625 69.05859375 C-121.34337711 46.26849709 -115.68181273 13.17051191 -97.515625 -2.94140625 C-74.02966584 -19.46689951 -22.40869042 -17.29366326 0 0 Z " fill="#000000" transform="translate(266.515625,260.94140625)"/>
<path d="M0 0 C0.66238678 0.00149048 1.32477356 0.00298096 2.00723267 0.0045166 C10.93237244 0.04035248 19.76669997 0.42589224 28.625 1.5625 C29.52033447 1.67166748 30.41566895 1.78083496 31.33813477 1.89331055 C34.77992709 2.40875131 37.348606 2.94817605 40.32421875 4.7890625 C42.84084488 8.72548013 43.87721981 12.94723219 45.0625 17.4375 C45.31386719 18.33726562 45.56523437 19.23703125 45.82421875 20.1640625 C48.21679875 28.8825739 50.27366933 37.23592813 49.9375 46.3125 C44.51700992 46.47719124 39.57252939 45.85654407 34.25 44.875 C27.14549312 43.64258554 20.15431196 42.59737416 12.9375 42.3125 C12.26654297 42.28526855 11.59558594 42.25803711 10.90429688 42.22998047 C-2.92135533 41.7491671 -16.34075034 43.18818011 -30.03955078 44.94873047 C-34.70446746 45.51008775 -39.38049207 45.92296158 -44.0625 46.3125 C-44.49410948 37.20434106 -43.15450447 28.55411502 -41.5625 19.625 C-41.32077365 18.22996316 -41.07988265 16.83478131 -40.83984375 15.43945312 C-40.25699488 12.06207951 -39.6629426 8.68679579 -39.0625 5.3125 C-26.50954722 0.46750068 -13.33267442 -0.05771353 0 0 Z M-36.0625 7.3125 C-36.70331581 9.18747338 -36.70331581 9.18747338 -37.09765625 11.4765625 C-37.2668457 12.34514893 -37.43603516 13.21373535 -37.61035156 14.10864258 C-37.78018555 15.04216553 -37.95001953 15.97568848 -38.125 16.9375 C-38.3012793 17.88069092 -38.47755859 18.82388184 -38.65917969 19.7956543 C-40.06500453 27.63332712 -40.8180482 35.35559403 -41.0625 43.3125 C-39.89074219 43.10753906 -38.71898437 42.90257812 -37.51171875 42.69140625 C-35.92451768 42.4190463 -34.33727586 42.14692375 -32.75 41.875 C-31.98365234 41.74029297 -31.21730469 41.60558594 -30.42773438 41.46679688 C-8.21446479 37.68777591 14.26399763 38.62666166 36.46240234 41.94873047 C39.94769104 42.46096959 43.44039678 42.88923134 46.9375 43.3125 C44.19619565 28.93713457 44.19619565 28.93713457 40.875 14.6875 C40.42447266 12.90472656 40.42447266 12.90472656 39.96484375 11.0859375 C39.13890936 8.02242281 39.13890936 8.02242281 35.9375 6.3125 C16.5127791 1.21805937 -17.500952 -1.968274 -36.0625 7.3125 Z " fill="#000000" transform="translate(215.0625,267.6875)"/>
<path d="M0 0 C0.99 0.33 1.98 0.66 3 1 C11.62351213 41.8002641 17.58156254 82.83513798 22.6171875 124.22265625 C22.74290131 125.25111664 22.86861511 126.27957703 22.99813843 127.33920288 C23.78456202 133.88381018 24.43911063 140.43226216 25 147 C24.34 147.33 23.68 147.66 23 148 C22.34 147.67 21.68 147.34 21 147 C20.52738953 144.88212585 20.52738953 144.88212585 20.2097168 142.04174805 C20.08569489 140.97564301 19.96167297 139.90953796 19.83389282 138.81112671 C19.64347916 137.05416977 19.64347916 137.05416977 19.44921875 135.26171875 C19.31003021 134.04932526 19.17084167 132.83693176 19.0274353 131.58779907 C18.7284581 128.97804694 18.43264673 126.36816136 18.14212036 123.75747681 C17.46453155 117.67357117 16.75974188 111.59280436 16.05449486 105.51205254 C15.89810681 104.16317742 15.74203207 102.81426594 15.58626747 101.46531868 C14.22967347 89.72539004 12.7267836 78.01256455 11.0625 66.3125 C10.90145279 65.17764664 10.90145279 65.17764664 10.7371521 64.01986694 C10.16685283 60.01194729 9.58834925 56.00531651 9 52 C8.39414062 51.82694336 7.78828125 51.65388672 7.1640625 51.47558594 C1.8917433 49.93647429 -3.24746068 48.20681477 -8.37719727 46.24731445 C-30.20843256 37.94603956 -52.39271209 33.01688447 -75.40991211 29.46142578 C-78 29 -78 29 -81 28 C-81 27.34 -81 26.68 -81 26 C-73.62831223 25.80100423 -66.69065192 26.24679996 -59.4375 27.5625 C-58.45716797 27.73813477 -57.47683594 27.91376953 -56.46679688 28.09472656 C-34.76166643 32.16871792 -13.46748744 38.73033092 7 47 C6.28963517 37.91812058 4.62668013 29.06256403 2.9375 20.125 C2.51389012 17.87989174 2.09158062 15.6345833 1.67372131 13.38839722 C1.41560371 12.00097909 1.15424244 10.61415924 0.8891449 9.22805786 C0.29908718 6.05758105 0 3.24600314 0 0 Z " fill="#2B7FFF" transform="translate(365,102)"/>
<path d="M0 0 C1.99954746 -0.04254356 4.00041636 -0.04080783 6 0 C7 1 7 1 7.1875 3.4375 C7 6 7 6 5 8 C4.10667969 8.25652344 3.21335937 8.51304688 2.29296875 8.77734375 C-1.85910973 10.31898143 -4.44010387 12.62091247 -7.6875 15.5625 C-8.93007888 16.65858537 -10.17357748 17.75362893 -11.41796875 18.84765625 C-12.3313501 19.65614014 -12.3313501 19.65614014 -13.26318359 20.48095703 C-15.62698776 22.54837192 -18.05682804 24.52736486 -20.5 26.5 C-25.33851813 30.42773824 -30.0711186 34.46703252 -34.78442383 38.54321289 C-39.35422907 42.48391986 -44.02995573 46.25869119 -48.79296875 49.96484375 C-51.12730883 52.11739452 -52.42789821 54.26389364 -54 57 C-56 57.9375 -56 57.9375 -58 58 C-61 56 -61 56 -61.8359375 54.1171875 C-63.49269003 51.10389935 -65.73396096 49.94745246 -68.625 48.125 C-73.03378063 45.30549239 -77.17985616 42.39904717 -81.18359375 39.03125 C-83.81107927 37.53951629 -85.01210558 37.37188789 -88 38 C-90.41225921 39.91321159 -92.3653816 42.1764339 -94.375 44.5 C-94.94718262 45.14203369 -95.51936523 45.78406738 -96.10888672 46.44555664 C-97.24037477 47.71795849 -98.36636071 48.99527807 -99.48632812 50.27783203 C-100.73216698 51.69527514 -102.0103436 53.08422927 -103.296875 54.46484375 C-106.12294616 57.51434361 -108.15779155 60.00114186 -109.5625 63.9375 C-110.036875 64.948125 -110.51125 65.95875 -111 67 C-114.1875 67.9375 -114.1875 67.9375 -117 68 C-118.125 65.6875 -118.125 65.6875 -119 63 C-117 60 -117 60 -114.80859375 59.26171875 C-110.61428177 57.3774868 -108.10038135 54.19700721 -105.0625 50.8125 C-104.46759766 50.16474609 -103.87269531 49.51699219 -103.25976562 48.84960938 C-101.49021574 46.91374114 -99.74277738 44.95997593 -98 43 C-97.42854248 42.36868164 -96.85708496 41.73736328 -96.26831055 41.08691406 C-95.73117432 40.48202148 -95.19403809 39.87712891 -94.640625 39.25390625 C-94.16270508 38.71967041 -93.68478516 38.18543457 -93.19238281 37.63500977 C-91.23356623 34.94905672 -90.70870286 32.22137664 -90 29 C-89 28 -89 28 -86.75 27.4375 C-84 28 -84 28 -82.94091797 29.57861328 C-82.40942139 30.59544189 -82.40942139 30.59544189 -81.8671875 31.6328125 C-78.91924691 36.58137671 -75.11544864 39.29472816 -70.375 42.4375 C-69.611875 42.96537109 -68.84875 43.49324219 -68.0625 44.03710938 C-62.56726005 48.02926323 -62.56726005 48.02926323 -56 48.625 C-50.05174802 46.73745449 -45.61210995 42.02402677 -41 38 C-39.85650394 37.01702365 -38.71193795 36.03529082 -37.56640625 35.0546875 C-35.77433878 33.5204271 -33.9830228 31.98538151 -32.1953125 30.44604492 C-28.64789204 27.39396312 -25.06768989 24.39132263 -21.4375 21.4375 C-20.56996094 20.72851562 -19.70242187 20.01953125 -18.80859375 19.2890625 C-17.31307466 18.07018325 -15.81655111 16.85249753 -14.31298828 15.64355469 C-12.53369669 14.20976135 -10.76634096 12.76220253 -9 11.3125 C-8.17133423 10.65302368 -8.17133423 10.65302368 -7.32592773 9.98022461 C-3.76324644 7.03128485 -1.79244923 4.25084314 0 0 Z " fill="#2B7FFF" transform="translate(246,83)"/>
<path d="M0 0 C0.99 0 1.98 0 3 0 C3.03738281 0.94101563 3.07476563 1.88203125 3.11328125 2.8515625 C3.21189453 4.71941406 3.21189453 4.71941406 3.3125 6.625 C3.37050781 7.85476562 3.42851562 9.08453125 3.48828125 10.3515625 C4.20483156 15.46040213 5.71040218 18.80712202 9.5 22.3125 C13.0848605 24.73228084 14.47651613 25.08581703 18.8125 24.375 C22.98980601 23.74956232 25.38938726 24.74336703 29 27 C34.41690856 24.00354145 34.41690856 24.00354145 37.4140625 19.0546875 C37.48367187 18.33539063 37.55328125 17.61609375 37.625 16.875 C37.810625 14.956875 37.810625 14.956875 38 13 C38.99 13 39.98 13 41 13 C41.91380499 16.48907359 42.1518704 18.5443888 41 22 C38.88370237 25.17444644 36.71506762 27.18769784 33.765625 29.5546875 C31.78122384 31.1245533 31.78122384 31.1245533 29.375 33.6875 C25.15794813 37.79357682 20.39385991 39.76805797 15 42 C13.906875 42.556875 12.81375 43.11375 11.6875 43.6875 C5.01102589 46.06387214 -1.44856634 45.75849838 -8 43 C-8 42.01 -8 41.02 -8 40 C-7.05898437 40.09539062 -6.11796875 40.19078125 -5.1484375 40.2890625 C-3.90320312 40.39992188 -2.65796875 40.51078125 -1.375 40.625 C-0.14523438 40.74101562 1.08453125 40.85703125 2.3515625 40.9765625 C6.05318114 41.00034163 8.59017997 40.37441976 12 39 C10.7315625 38.96132813 10.7315625 38.96132813 9.4375 38.921875 C0.89029661 38.49451483 -5.39182888 37.6983754 -11.5 31.4375 C-13 29 -13 29 -13 26 C-10.21509353 27.17822966 -8.71352288 28.29382269 -6.5625 30.5 C-2.04111742 34.48116544 4.24420546 34.42783645 10 35 C10 34.34 10 33.68 10 33 C9.195625 32.95875 8.39125 32.9175 7.5625 32.875 C0.52223822 31.1458129 -5.20021944 26.81993633 -9.13671875 20.74609375 C-10.38502981 18.2212293 -10.79585149 15.79002965 -11 13 C-10.01 13 -9.02 13 -8 13 C-6.640625 15.01171875 -6.640625 15.01171875 -5.25 17.6875 C-1.7197987 23.86535228 1.84178267 26.7941352 8.4375 29.3125 C9.283125 29.539375 10.12875 29.76625 11 30 C10.278125 29.29875 9.55625 28.5975 8.8125 27.875 C3.77209803 22.76300141 -0.34234359 18.44922362 -1 11 C-0.86321217 7.30184342 -0.49866154 3.66583621 0 0 Z " fill="#000000" transform="translate(23,244)"/>
<path d="M0 0 C11.41959652 10.0255655 18.44221991 24.97200384 20 40 C20.09620259 45.59455079 19.88411514 49.72940574 16 54 C15.34 54 14.68 54 14 54 C14.15855469 53.3090625 14.31710937 52.618125 14.48046875 51.90625 C16.97945947 37.92693351 13.87503004 25.1959394 5.91796875 13.57421875 C-2.49509146 2.28255546 -9.98913435 -2.69272141 -24 -5 C-36.78257368 -6.06761902 -48.20841106 -4.06804483 -59 3 C-59.886875 3.5775 -60.77375 4.155 -61.6875 4.75 C-70.65711806 13.47719595 -76.0715246 26.73884091 -76.25 39.1875 C-76.22330973 45.0993953 -75.21851739 49.54614475 -73 55 C-76.7890625 54.234375 -76.7890625 54.234375 -78.6875 52.125 C-83.42990397 40.83356198 -79.95818429 28.63992667 -75.75 17.6875 C-70.71368936 6.39714391 -62.78129333 -1.51908251 -51.32421875 -6.1875 C-35.00224682 -11.89333221 -13.89156992 -10.89489347 0 0 Z " fill="#000000" transform="translate(247,198)"/>
<path d="M0 0 C7.84361839 0.8503362 14.17098734 2.45394912 20 8 C26.00822745 16.01940253 27.98253387 23.04006761 27 33 C25.51305093 38.08490357 23.34449984 42.77666141 19 46 C18.01 46 17.02 46 16 46 C15.74347656 44.87207031 15.48695313 43.74414062 15.22265625 42.58203125 C12.32829944 30.48343785 8.02834429 19.48322677 2.92822266 8.15771484 C1.78016144 5.48897075 0.84740048 2.77784223 0 0 Z " fill="#000000" transform="translate(277,273)"/>
<path d="M0 0 C0.99 0 1.98 0 3 0 C11.16734267 16.1959198 18.59759569 32.85224446 13.875 51.375 C10.76856178 60.20306396 3.82900512 67.83101863 -4.37109375 72.2890625 C-15.77414163 77.4943947 -31.10771718 78.33583116 -42.9453125 73.93359375 C-46.35953909 72.38226266 -49.69439062 70.77523467 -53 69 C-52.67 68.01 -52.34 67.02 -52 66 C-46.39 67.98 -40.78 69.96 -35 72 C-34.67 68.04 -34.34 64.08 -34 60 C-33.01 60 -32.02 60 -31 60 C-31 63.96 -31 67.92 -31 72 C-21.35937228 72.46837058 -13.90650345 72.14772718 -5 68 C-6.11539761 65.71585967 -7.26053748 63.58915243 -8.625 61.4375 C-10 59 -10 59 -10 56 C-9.01 56 -8.02 56 -7 56 C-6.05598958 57.79036458 -5.11197917 59.58072917 -4.16796875 61.37109375 C-3.00980201 63.32267987 -3.00980201 63.32267987 0 64 C7.88049154 55.59414236 11.17094164 48.29075573 11.0625 36.6875 C11.05347656 35.43324219 11.04445313 34.17898438 11.03515625 32.88671875 C11.02355469 31.93410156 11.01195312 30.98148437 11 30 C9.84951172 30.50660156 9.84951172 30.50660156 8.67578125 31.0234375 C5.61652706 32.13995363 4.08180324 31.88051521 1 31 C1 30.34 1 29.68 1 29 C4.96 27.515 4.96 27.515 9 26 C7.24256746 19.03193413 4.6318939 12.98047585 1.20703125 6.6640625 C0 4 0 4 0 0 Z " fill="#000000" transform="translate(357,244)"/>
<path d="M0 0 C3 1 3 1 4.68359375 4.01953125 C5.27818089 5.27920468 5.86243827 6.54379396 6.4375 7.8125 C8.42929176 12.18549 10.31904143 15.78826252 14 19 C14.48210938 18.566875 14.96421875 18.13375 15.4609375 17.6875 C16.09257813 17.130625 16.72421875 16.57375 17.375 16 C18.00148438 15.443125 18.62796875 14.88625 19.2734375 14.3125 C21 13 21 13 23 13 C21.6302836 16.99500618 19.74277578 19.80009492 17 23 C26.19359286 29.52027862 33.63768084 33.35986934 45 34 C45 30.7 45 27.4 45 24 C45.99 24 46.98 24 48 24 C48.495 29.445 48.495 29.445 49 35 C57.96892766 34.09114866 65.8031639 32.97305468 74 29 C73.505 28.29875 73.01 27.5975 72.5 26.875 C70.8063319 23.62880281 70.74837685 21.60659844 71 18 C71.66 18 72.32 18 73 18 C73.67154933 19.28913487 74.33708859 20.58140204 75 21.875 C75.556875 22.95394531 75.556875 22.95394531 76.125 24.0546875 C77 26 77 26 77 28 C84.63813334 23.23554052 84.63813334 23.23554052 92 18.0625 C95 16 95 16 98 16 C94.11773131 24.69777504 84.06217734 29.84575571 75.66796875 33.41796875 C68.20953088 36.22207825 60.92759518 38.16731734 53 39 C52.27941406 39.08378906 51.55882812 39.16757812 50.81640625 39.25390625 C39.44861982 39.92007143 26.99634162 35.77871195 18 29 C17.22140625 28.41347656 16.4428125 27.82695312 15.640625 27.22265625 C8.17428706 21.09675146 2.59903509 13.36657092 0 4 C0 2.68 0 1.36 0 0 Z " fill="#000000" transform="translate(38,290)"/>
<path d="M0 0 C-2.10673783 6.55363046 -4.49711333 12.96376855 -7 19.375 C-9.53798756 25.92160622 -11.89605772 32.36544163 -13.4296875 39.234375 C-13.61789063 39.81703125 -13.80609375 40.3996875 -14 41 C-14.99 41.495 -14.99 41.495 -16 42 C-21.08812572 37.87449266 -23.12444815 33.49894157 -24 27 C-23.76906701 19.28884636 -21.79692365 12.12453176 -17 6 C-11.64468451 1.09194163 -7.16092601 -0.13511181 0 0 Z " fill="#000000" transform="translate(158,269)"/>
<path d="M0 0 C7.28885033 -0.32156693 14.17966173 0.30692159 21.375 1.375 C22.24286133 1.50108643 23.11072266 1.62717285 24.00488281 1.75708008 C24.83600586 1.88622803 25.66712891 2.01537598 26.5234375 2.1484375 C27.26513184 2.26364746 28.00682617 2.37885742 28.77099609 2.49755859 C31 3 31 3 36 5 C36 9.29 36 13.58 36 18 C24.12 16.68 12.24 15.36 0 14 C0 9.38 0 4.76 0 0 Z " fill="#2B7FFF" transform="translate(232,127)"/>
<path d="M0 0 C0.99 0 1.98 0 3 0 C2.4688611 9.83526738 1.53671818 19.53639348 0.22503281 29.29553604 C-0.08597654 31.61097322 -0.39072413 33.92716761 -0.69406128 36.24362183 C-1.12998506 39.56977562 -1.56791502 42.89565465 -2.00759888 46.22131348 C-5.84584094 75.28201148 -9.38816906 104.3426234 -12.28588867 133.51318359 C-12.39756378 134.62863556 -12.50923889 135.74408752 -12.6242981 136.89334106 C-12.8294156 138.9533793 -13.03066637 141.01380779 -13.2272644 143.07467651 C-13.31541412 143.96687897 -13.40356384 144.85908142 -13.49438477 145.77832031 C-13.56859146 146.55121399 -13.64279816 147.32410767 -13.71925354 148.12042236 C-14 150 -14 150 -15 152 C-15.66 152 -16.32 152 -17 152 C-16.40851111 136.43589675 -15.08528662 120.99209737 -13.5 105.5 C-13.37460846 104.2609491 -13.24921692 103.02189819 -13.12002563 101.74530029 C-10.86884848 79.65318338 -8.12507549 57.63547821 -5.1875 35.625 C-5.08698334 34.87121063 -4.98646667 34.11742126 -4.88290405 33.34078979 C-4.21297171 28.32274474 -3.53668451 23.30558758 -2.85546875 18.2890625 C-2.68278976 17.01467316 -2.51011078 15.74028381 -2.3321991 14.42727661 C-2.17125259 13.25454193 -2.01030609 12.08180725 -1.84448242 10.87353516 C-1.70491623 9.8545816 -1.56535004 8.83562805 -1.42155457 7.78579712 C-1.02565094 5.1695114 -0.5429269 2.58935509 0 0 Z " fill="#2B7FFF" transform="translate(50,104)"/>
<path d="M0 0 C3.75453003 1.36528365 5.38172326 3.24782256 7.3125 6.625 C9.31653385 11.07477311 9.90579574 15.18685006 9 20 C6.07317073 25.46341463 6.07317073 25.46341463 3 27 C-1.33943865 27.50070446 -3.46046433 27.32164627 -7.25 25.0625 C-10.77898212 21.68530206 -12.34982862 17.80068402 -13 13 C-12.74146176 8.74643033 -12.28711296 4.69120657 -9.65625 1.234375 C-6.75616432 -0.92700961 -3.41496084 -0.46872012 0 0 Z " fill="#2B7FFF" transform="translate(308,142)"/>
<path d="M0 0 C1.26355915 3.79067746 0.51849676 4.89380005 -0.94921875 8.55078125 C-1.38556641 9.64197266 -1.82191406 10.73316406 -2.27148438 11.85742188 C-2.73876953 12.99759766 -3.20605469 14.13777344 -3.6875 15.3125 C-4.35942383 17.00536133 -4.35942383 17.00536133 -5.04492188 18.73242188 C-7.26302016 24.21793715 -9.42404154 29.26834536 -13 34 C-15.45195106 31.54804894 -15.91106083 29.63887026 -16.9453125 26.3359375 C-17.47705078 24.65371094 -17.47705078 24.65371094 -18.01953125 22.9375 C-18.38433594 21.761875 -18.74914062 20.58625 -19.125 19.375 C-19.49753906 18.19164063 -19.87007813 17.00828125 -20.25390625 15.7890625 C-21.17480937 12.86106285 -22.08991361 9.93137624 -23 7 C-16.29406391 -0.1333474 -9.31593643 -0.46237184 0 0 Z " fill="#2B7FFF" transform="translate(91,109)"/>
<path d="M0 0 C3.46227679 0.96174355 4.88751612 1.86180552 7.1875 4.6875 C10.89539015 11.46398889 11.27331405 17.45349536 11 25 C3.23896554 28.23376436 -4.84462249 30.05023135 -13 32 C-12.42261317 27.61781335 -11.32590827 24.01362204 -9.53125 19.98046875 C-9.04269531 18.87638672 -8.55414063 17.77230469 -8.05078125 16.63476562 C-7.53902344 15.49716797 -7.02726562 14.35957031 -6.5 13.1875 C-5.98824219 12.03056641 -5.47648437 10.87363281 -4.94921875 9.68164062 C-1.15326554 1.15326554 -1.15326554 1.15326554 0 0 Z " fill="#2B7FFF" transform="translate(94,111)"/>
<path d="M0 0 C3.8590992 0.37958353 5.71121481 1.08530154 8.51953125 3.765625 C12.02092125 8.12385062 13.11472934 12.59828848 12.6875 18.125 C11.63442454 24.34674174 11.63442454 24.34674174 8.8125 26.375 C4.24724878 27.2122565 0.88718689 27.015239 -3.125 24.625 C-6.73301278 20.68898606 -7.47984343 17.76555323 -7.5 12.4375 C-7.51675781 11.41785156 -7.53351563 10.39820313 -7.55078125 9.34765625 C-6.93325567 4.29457056 -5.14642445 0.6054617 0 0 Z " fill="#2B7FFF" transform="translate(334.1875,149.625)"/>
<path d="M0 0 C3.94249898 3.04647649 6.35027927 6.31132003 8 11 C9.00551786 20.60062944 9.00551786 20.60062944 6.68359375 23.83203125 C5 25 5 25 1.6875 25 C-3.19715575 23.67534759 -6.33971142 21.58643594 -9.1484375 17.2109375 C-10.2430164 14.36904915 -10.30119744 11.97788862 -10.3125 8.9375 C-10.32925781 7.89464844 -10.34601563 6.85179687 -10.36328125 5.77734375 C-10 3 -10 3 -8.69140625 1.16015625 C-5.7589752 -0.8512341 -3.42909731 -0.47297894 0 0 Z " fill="#2B7FFF" transform="translate(364,160)"/>
<path d="M0 0 C0 0.66 0 1.32 0 2 C-2.58064369 3.29032184 -4.74414932 3.33239487 -7.625 3.578125 C-39.90490514 6.50780467 -70.78889798 13.08018074 -101 25 C-102.67835937 25.65742188 -102.67835937 25.65742188 -104.390625 26.328125 C-106.60008285 27.20450214 -108.80380232 28.09103387 -111 29 C-111.33 28.01 -111.66 27.02 -112 26 C-82.25863811 9.55477637 -46.40888915 3.32200747 -13 -0.375 C-12.2474292 -0.45975586 -11.4948584 -0.54451172 -10.71948242 -0.63183594 C-6.93645453 -1.00048162 -3.68074599 -0.99207607 0 0 Z " fill="#2B7FFF" transform="translate(147,231)"/>
<path d="M0 0 C0.66 0 1.32 0 2 0 C2.40089844 0.9178125 2.80179688 1.835625 3.21484375 2.78125 C7.7763191 12.80283867 12.7122026 20.05819586 23.25 24.5 C36.49426201 28.63191461 48.84128742 25.25951143 60.84716797 19.16015625 C66.40861316 16.23089816 71.67160476 13.1069293 76.484375 9.03125 C78 8 78 8 81 8 C81 8.99 81 9.98 81 11 C68.02621251 23.07666389 50.56014784 30.76089667 32.76416016 30.46606445 C21.24057462 29.9195301 13.7103282 25.42012375 6 17 C2.03636893 12.04080901 0.0940788 7.23624914 -1 1 C-0.67 0.67 -0.34 0.34 0 0 Z " fill="#000000" transform="translate(51,282)"/>
<path d="M0 0 C0.66 0.33 1.32 0.66 2 1 C1.00609707 3.89888353 0.04387974 5.9476274 -1.9375 8.3125 C-7.19814915 15.16728526 -8.06216474 22.58177947 -7 31 C-6.17911505 33.31104996 -5.23201975 35.27996709 -3.97265625 37.37890625 C-3 39 -3 39 -2 42 C0.42383077 43.16953416 0.42383077 43.16953416 3 44 C3.66 44.33 4.32 44.66 5 45 C11.53285588 45.76986517 16.76227077 45.55338868 22.16015625 41.6015625 C28.96423464 35.67869172 32.66811252 29.35275019 36 21 C36.99 21 37.98 21 39 21 C37.79422928 30.54802163 32.59993928 39.10321836 25 45 C19.25134006 48.7823175 13.43620537 50.54566743 6.5546875 49.69921875 C-0.65903823 48.07778498 -5.00481004 44.13966693 -9 38 C-12.21953883 30.18262304 -12.28371524 21.45732587 -9.25 13.5625 C-6.90597639 8.46031434 -4.21842454 3.79658209 0 0 Z " fill="#2B7FFF" transform="translate(66,117)"/>
<path d="M0 0 C0.99 0 1.98 0 3 0 C3.50512244 1.60256108 4.00391627 3.20711792 4.5 4.8125 C4.7784375 5.70582031 5.056875 6.59914063 5.34375 7.51953125 C6 10 6 10 6 13 C7.73636719 12.96519531 7.73636719 12.96519531 9.5078125 12.9296875 C11.04686851 12.91091852 12.58593155 12.89271954 14.125 12.875 C14.88554687 12.85824219 15.64609375 12.84148437 16.4296875 12.82421875 C21.03270731 12.78453754 24.66464004 13.24092423 29 15 C29 15.99 29 16.98 29 18 C28.03964844 17.84660156 27.07929688 17.69320313 26.08984375 17.53515625 C21.59396353 16.89288765 17.09548428 16.66031389 12.5625 16.4375 C11.32209961 16.37272461 11.32209961 16.37272461 10.05664062 16.30664062 C8.03790451 16.20161967 6.01897049 16.10041441 4 16 C2.74335022 13.09399739 2 11.20395416 2 8 C1.34 8 0.68 8 0 8 C-0.18175781 8.85271484 -0.18175781 8.85271484 -0.3671875 9.72265625 C-1.41322054 14.54245464 -2.59204484 19.2732934 -4 24 C-7 23 -7 23 -8.38671875 20.71484375 C-8.81597656 19.79832031 -9.24523437 18.88179688 -9.6875 17.9375 C-10.12449219 17.01839844 -10.56148437 16.09929687 -11.01171875 15.15234375 C-11.50091797 14.08693359 -11.50091797 14.08693359 -12 13 C-12.99 14.485 -12.99 14.485 -14 16 C-16.33837891 16.52416992 -16.33837891 16.52416992 -19.2265625 16.73046875 C-20.2578125 16.81103516 -21.2890625 16.89160156 -22.3515625 16.97460938 C-23.43179688 17.04486328 -24.51203125 17.11511719 -25.625 17.1875 C-27.25695312 17.3102832 -27.25695312 17.3102832 -28.921875 17.43554688 C-31.61392407 17.63626983 -34.30624934 17.82385312 -37 18 C-37 17.01 -37 16.02 -37 15 C-29.90673679 13.27669093 -23.29031024 12.7505217 -16 13 C-15.34 10.69 -14.68 8.38 -14 6 C-13.01 6 -12.02 6 -11 6 C-9.35 9.3 -7.7 12.6 -6 16 C-5.65066406 14.92878906 -5.30132812 13.85757812 -4.94140625 12.75390625 C-4.48192855 11.35671896 -4.02228454 9.95958635 -3.5625 8.5625 C-3.33240234 7.85544922 -3.10230469 7.14839844 -2.86523438 6.41992188 C-1.11328125 1.11328125 -1.11328125 1.11328125 0 0 Z " fill="#000000" transform="translate(221,276)"/>
<path d="M0 0 C-0.40992188 0.85722656 -0.81984375 1.71445313 -1.2421875 2.59765625 C-5.41895247 11.46079147 -8.15942321 19.24488519 -9 29 C-13.83766699 28.58534283 -15.85646376 26.5801385 -19 23 C-20.857304 19.285392 -20.44282906 15.05406882 -20 11 C-17.41445332 5.63001843 -13.60209128 2.35078423 -8 0.25 C-5.32837427 -0.08395322 -2.68985268 -0.01461876 0 0 Z " fill="#000000" transform="translate(173,209)"/>
<path d="M0 0 C6.35818861 0.2513118 11.03777925 0.62851982 16 5 C19.45451955 9.20144269 20.90419178 12.53893141 21 18 C19.70464885 22.49563048 18.61481375 24.51065844 14.9375 27.4375 C12 29 12 29 10 29 C9.76925781 27.87722656 9.53851563 26.75445312 9.30078125 25.59765625 C6.97369377 14.65141076 6.97369377 14.65141076 2.05078125 4.6640625 C1 3 1 3 0 0 Z " fill="#000000" transform="translate(258,207)"/>
<path d="M0 0 C3 1 3 1 3.96728516 2.6105957 C4.37406494 3.63286255 4.37406494 3.63286255 4.7890625 4.67578125 C5.09070313 5.42150391 5.39234375 6.16722656 5.703125 6.93554688 C6.00734375 7.71994141 6.3115625 8.50433594 6.625 9.3125 C6.93695313 10.08529297 7.24890625 10.85808594 7.5703125 11.65429688 C10.01581791 17.78387185 11.17005319 22.69944165 11.25 29.375 C11.27578125 30.66148437 11.3015625 31.94796875 11.328125 33.2734375 C10.87403548 38.43059708 9.09459554 41.64785257 5.875 45.625 C-2.58402872 52.61289329 -11.27150309 52.9515359 -21.87939453 52.23193359 C-29.31281967 51.41892946 -35.30307304 48.83066795 -40 43 C-36.0938605 43 -34.07317581 43.5582934 -30.5 44.9375 C-21.97774952 48.20358226 -11.7837644 50.27663451 -2.9375 46.8125 C2.13139146 43.68488612 5.09713632 40.6418239 7 35 C8.58169435 24.910455 4.95842394 14.57626183 0.26953125 5.73828125 C-1 3 -1 3 0 0 Z " fill="#000000" transform="translate(345,249)"/>
<path d="M0 0 C2.82892649 2.82892649 2.40523614 5.58937419 2.4375 9.375 C2.47037109 10.04789063 2.50324219 10.72078125 2.53710938 11.4140625 C2.55859375 13.3984375 2.55859375 13.3984375 2 17 C-1.91228265 20.9508907 -5.74944743 22.91507349 -11.3125 23.125 C-12.199375 23.08375 -13.08625 23.0425 -14 23 C-14.33 22.01 -14.66 21.02 -15 20 C-15.825 19.938125 -16.65 19.87625 -17.5 19.8125 C-23.38125501 18.44720866 -27.58935652 15.70000625 -31.4375 11.0625 C-33.02444794 7.95208204 -33.67046929 5.46007251 -34 2 C-33.01 2 -32.02 2 -31 2 C-30.70867187 2.60328125 -30.41734375 3.2065625 -30.1171875 3.828125 C-27.47889017 8.97197514 -25.39322186 12.41125351 -20 15 C-16.70373207 15.95891431 -14.37152354 16.59355851 -11.140625 15.1953125 C-9.39949422 14.17593252 -7.69819409 13.08940753 -6 12 C-3.5625 11.25 -3.5625 11.25 -2 11 C-2 8.69 -2 6.38 -2 4 C-5.63 4.33 -9.26 4.66 -13 5 C-13 4.01 -13 3.02 -13 2 C-8.51023509 0.24789662 -4.81989758 -0.37076135 0 0 Z " fill="#000000" transform="translate(355,225)"/>
<path d="M0 0 C24.08285705 0.45911859 48.16238052 8.2599254 70 18 C70 18.99 70 19.98 70 21 C64.81145096 20.36984499 60.43904663 18.71748848 55.625 16.8125 C37.69673288 9.9866325 18.83987867 6.33622851 0 3 C0 2.01 0 1.02 0 0 Z " fill="#2B7FFF" transform="translate(294,116)"/>
<path d="M0 0 C7.53678347 -0.26126548 14.40110294 0.33282617 21.75 2 C23.21796021 2.32677734 23.21796021 2.32677734 24.71557617 2.66015625 C38.71034983 5.9275749 54.83124097 10.0586439 67 18 C67.495 19.485 67.495 19.485 68 21 C61.97912541 20.38273387 56.75583962 18.03092434 51.1875 15.8125 C34.9140219 9.51474934 18.21143873 5.70329772 1 3 C0.67 2.01 0.34 1.02 0 0 Z " fill="#2B7FFF" transform="translate(292,103)"/>
<path d="M0 0 C21.87724475 0.40445326 45.98046956 7.13884709 65 18 C65 18.99 65 19.98 65 21 C59.99054418 20.40790258 55.76257975 18.76299269 51.1875 16.75 C34.63722077 9.75868715 17.61792645 6.30269748 0 3 C0 2.01 0 1.02 0 0 Z " fill="#2B7FFF" transform="translate(292,90)"/>
<path d="M0 0 C0.99 0 1.98 0 3 0 C2.38494655 14.75325045 1.17472176 29.43508047 -0.15673828 44.1394043 C-0.50406488 47.98247679 -0.84414346 51.82614649 -1.18359375 55.66992188 C-1.40321962 58.12243404 -1.62325619 60.57490947 -1.84375 63.02734375 C-1.94482056 64.17202621 -2.04589111 65.31670868 -2.15002441 66.49607849 C-2.24682495 67.55561234 -2.34362549 68.61514618 -2.44335938 69.70678711 C-2.52694702 70.63543076 -2.61053467 71.5640744 -2.69665527 72.52085876 C-2.97018308 74.75631565 -3.39615664 76.83340893 -4 79 C-4.66 79 -5.32 79 -6 79 C-6.1548165 70.17222218 -5.68665397 61.48928511 -4.94140625 52.6953125 C-4.83134485 51.35923133 -4.72164655 50.0231202 -4.61228943 48.6869812 C-4.38412898 45.91182705 -4.15272641 43.1369703 -3.91870117 40.36230469 C-3.61995929 36.81904176 -3.32782505 33.27527253 -3.03788853 29.73127937 C-2.81255838 26.9823838 -2.58460746 24.23371068 -2.35578728 21.48510361 C-2.19471546 19.54761803 -2.03515467 17.61000702 -1.87562561 15.6723938 C-1.77559738 14.49031342 -1.67556915 13.30823303 -1.57250977 12.09033203 C-1.48590591 11.05619171 -1.39930206 10.02205139 -1.31007385 8.95657349 C-0.99403792 5.94315115 -0.52863765 2.98284179 0 0 Z " fill="#2B7FFF" transform="translate(118,82)"/>
<path d="M0 0 C0 0.99 0 1.98 0 3 C-0.7120459 3.05945801 -1.4240918 3.11891602 -2.15771484 3.18017578 C-19.03489253 4.6457615 -35.08573143 7.25939097 -51.51855469 11.40332031 C-54.32778787 12.07881873 -57.13901796 12.59690631 -60 13 C-60 12.01 -60 11.02 -60 10 C-40.57975806 2.7211382 -20.6942308 -0.29610187 0 0 Z " fill="#2B7FFF" transform="translate(192,79)"/>
<path d="M0 0 C0 0.99 0 1.98 0 3 C-3.13300033 3.88641209 -6.12210583 4.23695723 -9.3671875 4.46484375 C-10.93448608 4.58013428 -10.93448608 4.58013428 -12.53344727 4.69775391 C-13.63615967 4.77687012 -14.73887207 4.85598633 -15.875 4.9375 C-24.98794813 5.62311776 -33.98267331 6.48366957 -43 8 C-43 7.01 -43 6.02 -43 5 C-28.84001178 0.90751786 -14.69497826 -0.41919114 0 0 Z " fill="#2B7FFF" transform="translate(155,189)"/>
<path d="M0 0 C0.84312744 0.00080566 1.68625488 0.00161133 2.55493164 0.00244141 C22.4198704 0.19346844 22.4198704 0.19346844 29.25 4.1875 C29.25 4.8475 29.25 5.5075 29.25 6.1875 C28.56067383 6.12763916 27.87134766 6.06777832 27.16113281 6.00610352 C18.77963045 5.29150365 10.39248822 4.69433965 2 4.125 C0.65754651 4.03328462 -0.68490144 3.94148818 -2.02734375 3.84960938 C-5.26817595 3.62811365 -8.50906092 3.40742544 -11.75 3.1875 C-11.75 2.5275 -11.75 1.8675 -11.75 1.1875 C-7.83002721 -0.1191576 -4.08653332 -0.00400601 0 0 Z " fill="#2B7FFF" transform="translate(289.75,231.8125)"/>
<path d="M0 0 C0 0.99 0 1.98 0 3 C-0.99797607 3.25692627 -0.99797607 3.25692627 -2.01611328 3.51904297 C-5.05297471 4.30218624 -8.08898978 5.08856362 -11.125 5.875 C-12.69507813 6.27912109 -12.69507813 6.27912109 -14.296875 6.69140625 C-19.25730393 7.97860616 -24.16812348 9.27791252 -29 11 C-29 9.68 -29 8.36 -29 7 C-26.08416415 6.01834721 -23.1671912 5.04011699 -20.25 4.0625 C-19.425 3.78470703 -18.6 3.50691406 -17.75 3.22070312 C-16.95078125 2.95322266 -16.1515625 2.68574219 -15.328125 2.41015625 C-14.5949707 2.16402588 -13.86181641 1.91789551 -13.10644531 1.66430664 C-8.58221424 0.23750637 -4.78351466 -0.09199067 0 0 Z " fill="#2B7FFF" transform="translate(92,180)"/>
<path d="M0 0 C-0.33 0.99 -0.66 1.98 -1 3 C-2.71484375 3.75195312 -2.71484375 3.75195312 -4.9375 4.28125 C-5.75089844 4.48363281 -6.56429687 4.68601563 -7.40234375 4.89453125 C-8.25957031 5.09433594 -9.11679688 5.29414063 -10 5.5 C-16.44895013 7.05941852 -22.73742059 8.79902101 -29 11 C-29 10.01 -29 9.02 -29 8 C-20.3770488 3.07259931 -10.00626803 -0.43103924 0 0 Z " fill="#2B7FFF" transform="translate(90,214)"/>
<path d="M0 0 C-0.33 0.99 -0.66 1.98 -1 3 C-3.84767191 3.98113066 -6.58614998 4.77918123 -9.5 5.5 C-11.14367192 5.92929796 -12.78690737 6.36027074 -14.4296875 6.79296875 C-15.21956055 6.99841309 -16.00943359 7.20385742 -16.82324219 7.41552734 C-20.61400016 8.43336882 -24.2993029 9.69790287 -28 11 C-28 10.01 -28 9.02 -28 8 C-25.81477184 7.03619618 -23.62704614 6.07890561 -21.4375 5.125 C-20.82841797 4.85558594 -20.21933594 4.58617187 -19.59179688 4.30859375 C-13.06930507 1.47872958 -7.1995966 -0.29386109 0 0 Z " fill="#2B7FFF" transform="translate(90,197)"/>
<path d="M0 0 C9.56542436 0.19271001 17.21181228 2.47692475 26 6 C26 6.99 26 7.98 26 9 C17.30899048 7.10377974 8.65636869 5.04731567 0 3 C0 2.01 0 1.02 0 0 Z " fill="#2B7FFF" transform="translate(364,246)"/>
<path d="M0 0 C-0.33 0.99 -0.66 1.98 -1 3 C-8.59 3.99 -16.18 4.98 -24 6 C-24 5.01 -24 4.02 -24 3 C-15.8390222 0.56907044 -8.50922528 -0.40735653 0 0 Z " fill="#2B7FFF" transform="translate(136,206)"/>
<path d="M0 0 C6.89319614 0.43082476 12.52793921 6.15526747 17 11 C16.67 11.99 16.34 12.98 16 14 C12.60905377 12.50921954 10.17173288 10.5469045 7.4375 8.0625 C6.67308594 7.37285156 5.90867187 6.68320313 5.12109375 5.97265625 C1.49672819 2.60192953 1.49672819 2.60192953 0 1 C0 0.67 0 0.34 0 0 Z " fill="#000000" transform="translate(322,200)"/>
<path d="M0 0 C0.66 0 1.32 0 2 0 C3.4783226 2.95664519 3.06032783 5.74229737 3 9 C4.27875 8.979375 5.5575 8.95875 6.875 8.9375 C10.75 8.875 10.75 8.875 13 10 C13 10.66 13 11.32 13 12 C11.58344207 12.0272415 10.16672955 12.04650467 8.75 12.0625 C7.56664062 12.07990234 7.56664062 12.07990234 6.359375 12.09765625 C4 12 4 12 0 11 C0 7.37 0 3.74 0 0 Z " fill="#2B7FFF" transform="translate(295,214)"/>
<path d="M0 0 C2.02408755 0.09002398 4.04544287 0.24641038 6.0625 0.4375 C7.71958984 0.59025391 7.71958984 0.59025391 9.41015625 0.74609375 C10.26480469 0.82988281 11.11945313 0.91367188 12 1 C12 1.99 12 2.98 12 4 C5.375 4.125 5.375 4.125 2 3 C2 5.64 2 8.28 2 11 C1.34 11 0.68 11 0 11 C-0.19406478 9.35492782 -0.38007935 7.70890406 -0.5625 6.0625 C-0.66691406 5.14597656 -0.77132813 4.22945312 -0.87890625 3.28515625 C-0.91886719 2.53105469 -0.95882813 1.77695313 -1 1 C-0.67 0.67 -0.34 0.34 0 0 Z " fill="#2B7FFF" transform="translate(294,187)"/>
<path d="M0 0 C0 0.99 0 1.98 0 3 C-1.56020867 3.65134925 -3.12328579 4.29582964 -4.6875 4.9375 C-5.55761719 5.29714844 -6.42773438 5.65679687 -7.32421875 6.02734375 C-9.88179265 6.9570312 -12.3221323 7.54162625 -15 8 C-14.0007455 5.44276805 -13.33618056 4.2102751 -10.9765625 2.734375 C-9.81253906 2.24710938 -9.81253906 2.24710938 -8.625 1.75 C-7.85414063 1.41484375 -7.08328125 1.0796875 -6.2890625 0.734375 C-4 0 -4 0 0 0 Z " fill="#000000" transform="translate(345,214)"/>
<path d="M0 0 C0.79921875 0.01804688 1.5984375 0.03609375 2.421875 0.0546875 C3.02515625 0.07789063 3.6284375 0.10109375 4.25 0.125 C4.58 1.115 4.91 2.105 5.25 3.125 C4.64671875 3.17398438 4.0434375 3.22296875 3.421875 3.2734375 C2.22304688 3.38558594 2.22304688 3.38558594 1 3.5 C-0.18335938 3.60441406 -0.18335938 3.60441406 -1.390625 3.7109375 C-3.84537697 4.14173834 -5.54465101 5.00409948 -7.75 6.125 C-8.74 6.125 -9.73 6.125 -10.75 6.125 C-9.79632051 3.74080127 -9.17010128 2.39032713 -6.96875 1 C-4.47106748 0.01499844 -2.6723318 -0.07859799 0 0 Z " fill="#000000" transform="translate(347.75,218.875)"/>
<path d="M0 0 C1.45922693 0.11409593 2.91740598 0.24165544 4.375 0.375 C5.59316406 0.47941406 5.59316406 0.47941406 6.8359375 0.5859375 C9 1 9 1 11 3 C11.26991906 5.68839385 11.08737357 8.29141936 11 11 C10.34 11 9.68 11 9 11 C8.67 8.69 8.34 6.38 8 4 C7.236875 3.855625 6.47375 3.71125 5.6875 3.5625 C3 3 3 3 0 2 C0 1.34 0 0.68 0 0 Z " fill="#2B7FFF" transform="translate(365,207)"/>
<path d="M0 0 C2.625 0.375 2.625 0.375 5 1 C5.625 2.875 5.625 2.875 6 5 C4 7 4 7 1.375 7.125 C0.59125 7.08375 -0.1925 7.0425 -1 7 C-1.625 4.625 -1.625 4.625 -2 2 C-1.34 1.34 -0.68 0.68 0 0 Z " fill="#2B7FFF" transform="translate(50,222)"/>
<path d="M0 0 C1.67542976 0.28604898 3.34385343 0.61781233 5 1 C6 4 6 4 5 7 C3.0625 7.75 3.0625 7.75 1 8 C0.34 7.67 -0.32 7.34 -1 7 C-1.04254356 5.00045254 -1.04080783 2.99958364 -1 1 C-0.67 0.67 -0.34 0.34 0 0 Z " fill="#2B7FFF" transform="translate(51,205)"/>
<path d="M0 0 C0.99 0.33 1.98 0.66 3 1 C3 3.31 3 5.62 3 8 C-0.3 7.34 -3.6 6.68 -7 6 C-7 5.01 -7 4.02 -7 3 C-4.69 3.33 -2.38 3.66 0 4 C0 2.68 0 1.36 0 0 Z " fill="#2B7FFF" transform="translate(375,234)"/>
<path d="M0 0 C1.65 0.33 3.3 0.66 5 1 C6.125 4.75 6.125 4.75 5 7 C3.02 7 1.04 7 -1 7 C-1.625 5.1875 -1.625 5.1875 -2 3 C-1.34 2.01 -0.68 1.02 0 0 Z " fill="#2B7FFF" transform="translate(52,188)"/>
<path d="M0 0 C0.66 0 1.32 0 2 0 C2 2.64 2 5.28 2 8 C1.01 8 0.02 8 -1 8 C-1.04241723 5.66705225 -1.04092937 3.33297433 -1 1 C-0.67 0.67 -0.34 0.34 0 0 Z " fill="#2B7FFF" transform="translate(112,172)"/>
<path d="M0 0 C0.66 0.33 1.32 0.66 2 1 C2 3.31 2 5.62 2 8 C1.01 8 0.02 8 -1 8 C-1.04241723 5.66705225 -1.04092937 3.33297433 -1 1 C-0.67 0.67 -0.34 0.34 0 0 Z " fill="#2B7FFF" transform="translate(234,162)"/>
<path d="M0 0 C0.99 0.33 1.98 0.66 3 1 C3 2.98 3 4.96 3 7 C2.01 7 1.02 7 0 7 C0 4.69 0 2.38 0 0 Z " fill="#2B7FFF" transform="translate(170,163)"/>
<path d="M0 0 C0.99 0 1.98 0 3 0 C3 2.31 3 4.62 3 7 C2.01 6.67 1.02 6.34 0 6 C0 4.02 0 2.04 0 0 Z " fill="#2B7FFF" transform="translate(192,162)"/>
<path d="M0 0 C0.99 0.33 1.98 0.66 3 1 C3 2.65 3 4.3 3 6 C2.01 6.33 1.02 6.66 0 7 C0 4.69 0 2.38 0 0 Z " fill="#2B7FFF" transform="translate(130,169)"/>
<path d="M0 0 C0.99 0.33 1.98 0.66 3 1 C3 2.98 3 4.96 3 7 C2.01 6.67 1.02 6.34 0 6 C0 4.02 0 2.04 0 0 Z " fill="#2B7FFF" transform="translate(252,165)"/>
<path d="M0 0 C0.99 0.33 1.98 0.66 3 1 C3 2.65 3 4.3 3 6 C2.01 6 1.02 6 0 6 C0 4.02 0 2.04 0 0 Z " fill="#2B7FFF" transform="translate(269,167)"/>
<path d="M0 0 C0.66 0 1.32 0 2 0 C2 1.98 2 3.96 2 6 C1.01 6 0.02 6 -1 6 C-0.67 4.02 -0.34 2.04 0 0 Z " fill="#2B7FFF" transform="translate(149,166)"/>
<path d="M0 0 C0.66 0 1.32 0 2 0 C2 2.31 2 4.62 2 7 C1.34 7 0.68 7 0 7 C0 4.69 0 2.38 0 0 Z " fill="#2B7FFF" transform="translate(213,162)"/>
</svg>
