<?xml version="1.0" encoding="UTF-8"?>
<svg version="1.1" xmlns="http://www.w3.org/2000/svg" width="400" height="400">
<path d="M0 0 C6.3655664 0.28868782 10.82244458 1.16860899 16 5 C19.78317336 10.00355187 19.83606802 15.95899869 19 22 C18.45085937 23.09699219 17.90171875 24.19398438 17.3359375 25.32421875 C15.56850541 30.18724097 16.47753664 32.67629508 18.25 37.375 C18.5286792 38.15375488 18.8073584 38.93250977 19.09448242 39.73486328 C24.0528962 53.05128566 30.93440207 65.06422627 40 76 C40.69609375 76.84820312 41.3921875 77.69640625 42.109375 78.5703125 C53.20754976 91.49118019 67.59746756 102.66322119 83 110 C83.66 109.34 84.32 108.68 85 108 C86.77734375 108.171875 86.77734375 108.171875 88.9375 108.75 C89.74832031 108.94851562 90.55914062 109.14703125 91.39453125 109.3515625 C92.25433594 109.56554687 93.11414063 109.77953125 94 110 C105.91538471 112.77963874 117.90778887 112.59332664 130 111 C130.226875 112.2375 130.45375 113.475 130.6875 114.75 C131.47949888 117.8847648 131.94873312 118.94588496 134.25 121.375 C140.30317344 124.95187521 146.05683858 125.87203458 153 125 C158.81488018 123.09217094 162.37427547 118.72805104 166 114 C164.68 113.67 163.36 113.34 162 113 C162.564193 107.01139723 163.82125064 101.72990203 165.8125 96.0625 C166.1847168 94.91297852 166.1847168 94.91297852 166.56445312 93.74023438 C167.33203125 91.53515625 167.33203125 91.53515625 169 88 C171.10424805 87.27905273 171.10424805 87.27905273 173 87 C173.33 84.69 173.66 82.38 174 80 C172.35 80 170.7 80 169 80 C168.731875 80.763125 168.46375 81.52625 168.1875 82.3125 C167.05575888 84.87380884 166.08776599 86.19692938 164 88 C163.01 87.67 162.02 87.34 161 87 C160.91773488 82.80447907 161.18070349 79.09648253 162 75 C162.56652386 70.46511626 162.56652386 70.46511626 160.91796875 66.359375 C159.63035781 64.88994003 158.31583832 63.44421279 157 62 C156.1875 59.625 156.1875 59.625 156 58 C155.01 58.33 154.02 58.66 153 59 C146.66442454 59.5851686 140.53446777 59.4012682 135 56 C131.16753902 52.46812419 128.34002214 49.13823716 127.76171875 43.80078125 C127.53437475 36.17877443 129.19373869 31.30148389 134.125 25.5 C138.42276711 23.25768672 142.25438836 23.27167511 147 24 C157.87588376 29.00290653 164.05717048 41.09734544 168.04296875 51.80078125 C168.78331462 54.15482618 168.78331462 54.15482618 170.9375 54.9375 C174.12471524 56.57939876 174.68822818 58.71311721 176 62 C176.15730554 64.81218152 176.19885815 67.39601715 176.0625 70.1875 C175.69379288 75.87446337 175.69379288 75.87446337 178 81 C177.84356616 84.67619526 177.40450487 86.50415532 175.0625 89.375 C173 91 173 91 171 91 C170.87882813 91.69867188 170.75765625 92.39734375 170.6328125 93.1171875 C169.71481123 97.29919328 168.19637734 101.23622542 166.7421875 105.2578125 C165.71258035 108.05956383 165.71258035 108.05956383 167 111 C168.5159375 111.185625 168.5159375 111.185625 170.0625 111.375 C172.88753083 111.72122936 175.70274871 112.10217545 178.51953125 112.51171875 C190.69495277 114.25106468 200.88267024 114.12718015 213 112 C218.48442885 126.08164165 219.37263921 143.15995232 219.375 158.125 C219.3764502 159.08841309 219.37790039 160.05182617 219.37939453 161.04443359 C219.19524725 172.80709996 219.19524725 172.80709996 217 178 C214.52103966 179.98016261 211.97516566 180.94445443 209 182 C207.20818192 182.74963818 205.41651608 183.49964037 203.625 184.25 C199.27692308 186 199.27692308 186 197 186 C197 188.64 197 191.28 197 194 C197.58652344 194.08894531 198.17304688 194.17789063 198.77734375 194.26953125 C203.95048675 195.96966788 207.30390108 201.84708617 210 206.3125 C211 209 211 209 210 212 C208.0390625 213.46484375 208.0390625 213.46484375 205.625 214.9375 C202.28710299 216.97611788 199.96723247 218.58656718 198 222 C197.67518931 224.82370712 197.51183195 227.43946688 197.48828125 230.265625 C197.47033005 231.05902283 197.45237885 231.85242065 197.43388367 232.66986084 C197.37983074 235.19652031 197.34590188 237.72299144 197.3125 240.25 C197.2793224 241.96617201 197.24483233 243.68231919 197.20898438 245.3984375 C197.12410745 249.59882232 197.05727279 253.79915177 197 258 C186.84453432 259.60500446 176.71274771 261.14060977 166.4375 261.6875 C165.42453857 261.74151978 165.42453857 261.74151978 164.39111328 261.79663086 C138.89359081 262.9337575 112.32434844 261.10811615 88 253 C88.66 228.91 89.32 204.82 90 180 C84.72 177.36 79.44 174.72 74 172 C69.9704908 169.69742331 65.96550258 167.4033349 62 165 C63.38432815 158.16225791 65.30894347 151.70190619 67.625 145.125 C67.97111328 144.1342749 68.31722656 143.1435498 68.67382812 142.12280273 C72.05863085 132.57903127 75.932811 123.27016216 80 114 C79.175 113.57332031 78.35 113.14664063 77.5 112.70703125 C48.16106143 96.82602098 24.71089958 70.42345435 14.87109375 38.31640625 C13.09024863 31.53641742 12.57365709 26.70812451 15 20 C15.47161199 16.16625092 15.31786779 12.84141474 13.9375 9.1875 C10.31328639 5.09564592 5.27499384 3.79924149 0 3 C0 2.01 0 1.02 0 0 Z M141 27 C140.67 27.66 140.34 28.32 140 29 C141.5778125 29.2475 141.5778125 29.2475 143.1875 29.5 C146.65752731 30.46545115 147.86208693 31.80602427 149.6875 34.875 C150.07679688 35.58398438 150.46609375 36.29296875 150.8671875 37.0234375 C152.24038719 39.41943419 153.94324622 41.17177442 156 43 C155.70220725 37.04414499 152.88213623 33.28773255 149 29 C145.77208445 26.8480563 144.71599191 26.79913557 141 27 Z M114.0625 118 C105.55111102 119.80660274 96.65372553 119.16375318 88 119 C95.66603088 124.11068726 107.65427948 122.86995412 116.375 121.1875 C117.57125 120.795625 118.7675 120.40375 120 120 C120.33 119.01 120.66 118.02 121 117 C118.31117328 117 116.61645845 117.33495476 114.0625 118 Z M106 152 C106 152.66 106 153.32 106 154 C101.05 155.485 101.05 155.485 96 157 C96 158.65 96 160.3 96 162 C98.88467556 163.27686193 98.88467556 163.27686193 101.375 162.3125 C104.27008545 160.86495727 106.54794585 159.1017607 109 157 C108.34 155.35 107.68 153.7 107 152 C106.67 152 106.34 152 106 152 Z M198 197 C188.86133155 200.96159026 182.88630932 204.92508491 177.515625 213.3203125 C176.64435113 216.24501563 176.64435113 216.24501563 178.9921875 219.33203125 C179.93487179 220.5070673 180.89672658 221.66692394 181.875 222.8125 C182.36097656 223.40998047 182.84695312 224.00746094 183.34765625 224.62304688 C184.54901866 226.09530473 185.77247604 227.54948293 187 229 C188.53846327 227.01300516 189.97065248 225.04946108 191.25390625 222.88671875 C195.06229645 216.48634956 199.69998902 212.87214114 206 209 C205.4273599 207.7450653 204.84128945 206.49625622 204.25 205.25 C203.76273438 204.20585937 203.76273438 204.20585937 203.265625 203.140625 C201.81465019 200.68650712 200.07767193 198.93799651 198 197 Z " fill="#2B7FFF" transform="translate(56,104)"/>
<path d="M0 0 C10.87588376 5.00290653 17.05717048 17.09734544 21.04296875 27.80078125 C21.78331462 30.15482618 21.78331462 30.15482618 23.9375 30.9375 C27.12471524 32.57939876 27.68822818 34.71311721 29 38 C29.15730554 40.81218152 29.19885815 43.39601715 29.0625 46.1875 C28.69379288 51.87446337 28.69379288 51.87446337 31 57 C30.84356616 60.67619526 30.40450487 62.50415532 28.0625 65.375 C26 67 26 67 24 67 C23.81824219 68.051875 23.81824219 68.051875 23.6328125 69.125 C22.72572227 73.24610127 21.20429653 77.10976386 19.7421875 81.0625 C18.95629168 84.17299292 19.11494959 85.95273784 20 89 C18.35 89 16.7 89 15 89 C15.564193 83.01139723 16.82125064 77.72990203 18.8125 72.0625 C19.06064453 71.29615234 19.30878906 70.52980469 19.56445312 69.74023438 C20.33203125 67.53515625 20.33203125 67.53515625 22 64 C24.10424805 63.27905273 24.10424805 63.27905273 26 63 C26.33 60.69 26.66 58.38 27 56 C25.35 56 23.7 56 22 56 C21.731875 56.763125 21.46375 57.52625 21.1875 58.3125 C20.05575888 60.87380884 19.08776599 62.19692938 17 64 C16.01 63.67 15.02 63.34 14 63 C13.91773488 58.80447907 14.18070349 55.09648253 15 51 C15.56652386 46.46511626 15.56652386 46.46511626 13.91796875 42.359375 C12.63035781 40.88994003 11.31583832 39.44421279 10 38 C9.1875 35.625 9.1875 35.625 9 34 C7.515 34.495 7.515 34.495 6 35 C-0.33557546 35.5851686 -6.46553223 35.4012682 -12 32 C-15.83246098 28.46812419 -18.65997786 25.13823716 -19.23828125 19.80078125 C-19.46562525 12.17877443 -17.80626131 7.30148389 -12.875 1.5 C-8.57723289 -0.74231328 -4.74561164 -0.72832489 0 0 Z M-6 3 C-6.33 3.66 -6.66 4.32 -7 5 C-5.4221875 5.2475 -5.4221875 5.2475 -3.8125 5.5 C-0.34247269 6.46545115 0.86208693 7.80602427 2.6875 10.875 C3.07679688 11.58398438 3.46609375 12.29296875 3.8671875 13.0234375 C5.24038719 15.41943419 6.94324622 17.17177442 9 19 C8.70220725 13.04414499 5.88213623 9.28773255 2 5 C-1.22791555 2.8480563 -2.28400809 2.79913557 -6 3 Z " fill="#000000" transform="translate(203,128)"/>
<path d="M0 0 C0.66 0 1.32 0 2 0 C2.16491943 0.60134766 2.32983887 1.20269531 2.49975586 1.82226562 C9.51052299 27.15581267 17.84375659 51.6931922 32 74 C35.465 73.01 35.465 73.01 39 72 C40.20254524 73.23553276 41.38666232 74.48902339 42.5625 75.75 C43.22378906 76.44609375 43.88507813 77.1421875 44.56640625 77.859375 C46 80 46 80 45.96484375 82.140625 C44.72743856 84.52526011 43.46131257 85.04723384 41 86 C47.19646005 93.53013523 54.07027754 100.39376389 62.125 105.9375 C63.07375 106.618125 64.0225 107.29875 65 108 C65 108.66 65 109.32 65 110 C59.73957198 109.57283742 56.55516442 107.62375237 52.5625 104.375 C51.9955542 103.92640625 51.4286084 103.4778125 50.84448242 103.015625 C46.60665692 99.61516321 42.6874996 95.99384572 39 92 C38.01 91.01 38.01 91.01 37 90 C35.865625 90.515625 34.73125 91.03125 33.5625 91.5625 C28.92209074 93.27994684 24.72063825 93.70173721 20 92 C16.4705871 87.58823387 16.41388546 82.46328803 16 77 C19.63 77 23.26 77 27 77 C25.53717226 73.34293065 24.00126048 70.1420124 22.08129883 66.73754883 C10.92819077 46.74765591 2.03468548 22.91333313 0 0 Z " fill="#2B7FFF" transform="translate(52,146)"/>
<path d="M0 0 C1.12148438 0.08314453 1.12148438 0.08314453 2.265625 0.16796875 C5.95364464 1.1247663 7.95587693 2.16984152 10.75 4.8125 C11.58171226 8.24573083 11.45097998 11.54948156 11.3125 15.0625 C11.31056641 15.97902344 11.30863281 16.89554687 11.30664062 17.83984375 C11.20043244 23.35480224 10.92106016 30.64143984 6.75 34.8125 C0.92402942 35.28808944 -2.97808443 34.03225392 -8.25 31.8125 C-8.10831863 30.37458484 -7.96148957 28.9371763 -7.8125 27.5 C-7.73128906 26.69949219 -7.65007812 25.89898437 -7.56640625 25.07421875 C-7.25 22.8125 -7.25 22.8125 -6.25 19.8125 C-6.1693378 18.33126453 -6.14238807 16.84667796 -6.15234375 15.36328125 C-6.15556641 14.51572266 -6.15878906 13.66816406 -6.16210938 12.79492188 C-6.17048828 11.91384766 -6.17886719 11.03277344 -6.1875 10.125 C-6.19201172 9.23232422 -6.19652344 8.33964844 -6.20117188 7.41992188 C-6.21295017 5.21738013 -6.22939836 3.01497401 -6.25 0.8125 C-3.85072241 -0.38713879 -2.65132005 -0.23897953 0 0 Z " fill="#2B7FFF" transform="translate(297.25,283.1875)"/>
<path d="M0 0 C0.66 0 1.32 0 2 0 C1.46084372 5.28919134 0.1376604 9.70817785 -2.0625 14.5625 C-2.36978027 15.25069824 -2.67706055 15.93889648 -2.99365234 16.64794922 C-6.7360921 24.85346946 -10.77526441 33.44916212 -16.8046875 40.2109375 C-17.52914062 41.13132813 -18.25359375 42.05171875 -19 43 C-18.67 43.99 -18.34 44.98 -18 46 C-18.16839941 50.63098366 -18.16839941 50.63098366 -20 53 C-23.13869458 54.24449698 -26.30474112 55.01576685 -29.57421875 55.85546875 C-33.11106122 57.03710483 -35.033627 58.31197684 -37.8125 60.75 C-41.97278573 64.39280338 -46.19746292 66.88422427 -51.125 69.3125 C-51.78218018 69.63766602 -52.43936035 69.96283203 -53.11645508 70.29785156 C-64.9633642 76 -64.9633642 76 -70 76 C-70 75.01 -70 74.02 -70 73 C-68.86304688 72.52691406 -67.72609375 72.05382812 -66.5546875 71.56640625 C-58.69766856 68.22753612 -51.11550634 64.77592867 -43.9375 60.125 C-43.34888184 59.7441626 -42.76026367 59.3633252 -42.15380859 58.97094727 C-39.06706858 56.96474718 -39.06706858 56.96474718 -37 54 C-38.98 53.01 -40.96 52.02 -43 51 C-41.87548273 48.0280615 -40.77706209 45.66559313 -39 43 C-35.8046875 43.09375 -35.8046875 43.09375 -31.875 43.5 C-27.80132343 43.68996669 -24.84873742 43.66353412 -21.51171875 41.0546875 C-19.3922727 38.1409801 -17.68878427 35.18242013 -16 32 C-15.33742188 30.9275 -14.67484375 29.855 -13.9921875 28.75 C-9.23420644 20.93460905 -5.68274965 12.83281758 -2.34765625 4.32421875 C-1 1 -1 1 0 0 Z " fill="#2B7FFF" transform="translate(343,146)"/>
<path d="M0 0 C6.3655664 0.28868782 10.82244458 1.16860899 16 5 C19.78317336 10.00355187 19.83606802 15.95899869 19 22 C18.45085937 23.09699219 17.90171875 24.19398438 17.3359375 25.32421875 C15.56850541 30.18724097 16.47753664 32.67629508 18.25 37.375 C18.5286792 38.15375488 18.8073584 38.93250977 19.09448242 39.73486328 C24.0528962 53.05128566 30.93440207 65.06422627 40 76 C40.69609375 76.84820312 41.3921875 77.69640625 42.109375 78.5703125 C51.64617061 89.67337016 63.06366677 98.06334536 75.30810547 105.90966797 C77.89297794 107.57547467 80.44557562 109.28795068 83 111 C82.505 112.485 82.505 112.485 82 114 C56.95295769 106.39123279 35.14199909 80.7674614 23.125 58.5 C10.48769794 34.20685339 10.48769794 34.20685339 13.9375 22.9375 C14.288125 21.968125 14.63875 20.99875 15 20 C15.47161199 16.16625092 15.31786779 12.84141474 13.9375 9.1875 C10.31328639 5.09564592 5.27499384 3.79924149 0 3 C0 2.01 0 1.02 0 0 Z " fill="#000000" transform="translate(56,104)"/>
<path d="M0 0 C0.99 0 1.98 0 3 0 C-1.08061291 33.37575934 -12.96235302 65.02227045 -39.91357422 86.52685547 C-65.85835203 106 -65.85835203 106 -78 106 C-78 105.01 -78 104.02 -78 103 C-77.37134033 102.68361572 -76.74268066 102.36723145 -76.0949707 102.04125977 C-59.966252 93.88469837 -45.00284588 85.78504276 -32 73 C-31.24074219 72.25363281 -30.48148437 71.50726563 -29.69921875 70.73828125 C-11.05871546 51.260726 -5.59639122 25.50053737 0 0 Z " fill="#000000" transform="translate(355,165)"/>
<path d="M0 0 C0.22042969 0.96099609 0.22042969 0.96099609 0.4453125 1.94140625 C2.06162486 8.17442689 3.92773983 12.87118022 9 17 C11.81965459 18.65276364 14.65619861 20.14303404 17.609375 21.54296875 C20.21122729 23.1287382 20.96295698 24.18430763 22 27 C19.00998835 31.21668309 15.90524559 35.28063863 12.375 39.0625 C11.82585937 39.65160156 11.27671875 40.24070313 10.7109375 40.84765625 C9 42 9 42 7.0546875 41.8359375 C-3.9131768 37.37372655 -11.36111855 27.89890322 -16.125 17.3125 C-17.51305652 13.6440649 -18.15812089 11.83627543 -17 8 C-12.00265682 3.93864129 -6.51779396 0 0 0 Z M-9.6875 7.5 C-10.62142578 8.19609375 -10.62142578 8.19609375 -11.57421875 8.90625 C-12.04472656 9.2671875 -12.51523438 9.628125 -13 10 C-10.51793727 20.62497028 -5.22390251 28.86850411 4 35 C6.51967446 35.87843518 6.51967446 35.87843518 9 36 C12.36317036 33.83796191 14.86056031 31.37806266 17 28 C17 27.34 17 26.68 17 26 C16.443125 25.74347656 15.88625 25.48695312 15.3125 25.22265625 C6.50865265 20.80586121 0.19835132 14.395157 -3 5 C-6.39593478 5 -7.06619881 5.52165948 -9.6875 7.5 Z " fill="#000000" transform="translate(166,62)"/>
<path d="M0 0 C4.93568524 0.79173108 7.5686295 2.24183231 11 6 C11.7622318 12.35193164 7.85307856 16.52456767 4.203125 21.44921875 C1.95065594 24.05713062 -0.10240079 26.12749485 -3 28 C-5.109375 28.00390625 -5.109375 28.00390625 -7 27 C-8.703125 25.15234375 -8.703125 25.15234375 -10.25 22.9375 C-10.77078125 22.20402344 -11.2915625 21.47054687 -11.828125 20.71484375 C-12.21484375 20.14894531 -12.6015625 19.58304688 -13 19 C-11.66509863 15.97591064 -10.93674464 14.95220706 -8.1875 12.875 C-3.93276556 9.56111593 -2.12154079 4.83448455 0 0 Z " fill="#2B7FFF" transform="translate(270,107)"/>
<path d="M0 0 C4.70493453 3.87769329 8.94362398 9.24214716 11 15 C9.80543256 18.58370231 9.02536031 18.82398178 5.875 20.6875 C-1.4214195 25.36647377 -6.14630674 31.94008253 -11 39 C-13.92301013 38.6659417 -14.86172694 38.16057517 -16.81640625 35.890625 C-17.39261719 35.01921875 -17.96882812 34.1478125 -18.5625 33.25 C-19.14128906 32.38890625 -19.72007812 31.5278125 -20.31640625 30.640625 C-20.87199219 29.76921875 -21.42757812 28.8978125 -22 28 C-22.56460938 27.1234375 -23.12921875 26.246875 -23.7109375 25.34375 C-25 23 -25 23 -25.0625 20.25 C-22.21289612 11.53356459 -16.8894702 6.37506984 -9 2 C-8.35289062 1.61714844 -7.70578125 1.23429687 -7.0390625 0.83984375 C-4.43279289 -0.23361979 -2.79514927 -0.42667388 0 0 Z M-2 3 C-11.13866845 6.96159026 -17.11369068 10.92508491 -22.484375 19.3203125 C-23.35564887 22.24501563 -23.35564887 22.24501563 -21.0078125 25.33203125 C-20.06512821 26.5070673 -19.10327342 27.66692394 -18.125 28.8125 C-17.63902344 29.40998047 -17.15304688 30.00746094 -16.65234375 30.62304688 C-15.45098134 32.09530473 -14.22752396 33.54948293 -13 35 C-11.46153673 33.01300516 -10.02934752 31.04946108 -8.74609375 28.88671875 C-4.93770355 22.48634956 -0.30001098 18.87214114 6 15 C5.4273599 13.7450653 4.84128945 12.49625622 4.25 11.25 C3.76273437 10.20585937 3.76273437 10.20585937 3.265625 9.140625 C1.81465019 6.68650712 0.07767193 4.93799651 -2 3 Z " fill="#1A1D1F" transform="translate(256,298)"/>
<path d="M0 0 C0.66 0 1.32 0 2 0 C2.16491943 0.60134766 2.32983887 1.20269531 2.49975586 1.82226562 C9.26098245 26.25409294 16.95083148 50.78034569 31.06640625 72.08203125 C32 74 32 74 31 77 C30.01 77 29.02 77 28 77 C14.97310371 55.22691329 0 25.96191724 0 0 Z " fill="#1A1A1B" transform="translate(52,146)"/>
<path d="M0 0 C0.99 0 1.98 0 3 0 C2.67 1.98 2.34 3.96 2 6 C3.98 6 5.96 6 8 6 C8.33 7.32 8.66 8.64 9 10 C6.36 10 3.72 10 1 10 C-2.35292026 21.23228288 -4.86734994 31.18476639 -4 43 C1.5409866 45.52958084 7.14340094 47.33846988 13 49 C12.67 49.99 12.34 50.98 12 52 C10.02 51.67 8.04 51.34 6 51 C5.34 53.97 4.68 56.94 4 60 C3.01 60 2.02 60 1 60 C1.33 56.37 1.66 52.74 2 49 C0.9275 48.9175 -0.145 48.835 -1.25 48.75 C-5 48 -5 48 -7.4375 46.625 C-11.41464739 39.94339238 -8.74797628 30.66123197 -7.01367188 23.53710938 C-6.74103516 22.47298828 -6.46839844 21.40886719 -6.1875 20.3125 C-5.79594727 18.69891602 -5.79594727 18.69891602 -5.39648438 17.05273438 C-3.94357151 11.1944462 -2.25452445 5.59907423 0 0 Z " fill="#000000" transform="translate(187,159)"/>
<path d="M0 0 C0.66 0.268125 1.32 0.53625 2 0.8125 C7.94304263 3.16495437 13.82639646 5.32798237 20 7 C19.125 12.75 19.125 12.75 18 15 C12.51302475 16.82899175 7.87320504 16.68976898 2.6875 14.25 C-0.27860527 12.58594488 -2.551088 11.18760641 -4 8 C-3.8517636 4.96115373 -3.42925609 3.49793707 -1.4375 1.1875 C-0.963125 0.795625 -0.48875 0.40375 0 0 Z " fill="#2B7FFF" transform="translate(117,86)"/>
<path d="M0 0 C2.625 0.375 2.625 0.375 5 1 C5.02392822 1.61520508 5.04785645 2.23041016 5.07250977 2.86425781 C5.20101578 5.66236421 5.38116268 8.45484095 5.5625 11.25 C5.59923828 12.21808594 5.63597656 13.18617187 5.67382812 14.18359375 C5.87661653 19.33083902 5.87661653 19.33083902 8.54858398 23.45458984 C10.65089669 24.65221861 10.65089669 24.65221861 14 26 C16.05473858 27.88764995 17.35385336 29.70537135 19 32 C19 32.66 19 33.32 19 34 C15.72883961 33.42065842 14.23352955 32.48562373 11.9375 30.125 C7.58693495 26.17339506 2.64167578 25.16302177 -3 24 C-3 23.34 -3 22.68 -3 22 C-1.35 21.67 0.3 21.34 2 21 C1.67 16.71 1.34 12.42 1 8 C0.855625 9.60875 0.71125 11.2175 0.5625 12.875 C0.125 17.75 0.125 17.75 -1 20 C-1.66 20 -2.32 20 -3 20 C-3.20107509 7.64505291 -3.20107509 7.64505291 -2 2 C-1.34 1.34 -0.68 0.68 0 0 Z " fill="#000000" transform="translate(353,83)"/>
<path d="M0 0 C2.5625 0.1875 2.5625 0.1875 4.5625 2.1875 C4.8688859 4.92184962 5.0738336 7.57029821 5.1875 10.3125 C5.22617187 11.06660156 5.26484375 11.82070312 5.3046875 12.59765625 C5.39901031 14.46053184 5.48184662 16.32398255 5.5625 18.1875 C7.2125 18.5175 8.8625 18.8475 10.5625 19.1875 C10.2325 20.1775 9.9025 21.1675 9.5625 22.1875 C8.67046875 22.30867188 7.7784375 22.42984375 6.859375 22.5546875 C5.68890625 22.72226563 4.5184375 22.88984375 3.3125 23.0625 C2.15234375 23.22492188 0.9921875 23.38734375 -0.203125 23.5546875 C-3.06613705 24.11484203 -4.88824597 24.89108449 -7.4375 26.1875 C-8.7575 26.1875 -10.0775 26.1875 -11.4375 26.1875 C-10.875 24.375 -10.875 24.375 -9.4375 22.1875 C-7.12765841 21.13437309 -4.79470877 20.12984348 -2.4375 19.1875 C-2.52128906 17.89972656 -2.60507812 16.61195312 -2.69140625 15.28515625 C-2.79454621 13.60678773 -2.89739584 11.92840136 -3 10.25 C-3.05607422 9.39986328 -3.11214844 8.54972656 -3.16992188 7.67382812 C-3.24243164 6.46049805 -3.24243164 6.46049805 -3.31640625 5.22265625 C-3.3635376 4.4737915 -3.41066895 3.72492676 -3.45922852 2.95336914 C-3.42449299 0.13042473 -2.78855672 0.21450436 0 0 Z M-0.4375 3.1875 C0.21599633 10.73788422 0.21599633 10.73788422 1.5625 18.1875 C1.8925 18.1875 2.2225 18.1875 2.5625 18.1875 C2.2325 13.2375 1.9025 8.2875 1.5625 3.1875 C0.9025 3.1875 0.2425 3.1875 -0.4375 3.1875 Z " fill="#000000" transform="translate(46.4375,73.8125)"/>
<path d="M0 0 C1.3726682 1.97321053 2.70427617 3.97543152 4 6 C6.91765 7.9451 8.62537285 8.45276317 12 9 C11.47784461 12.7595188 10.82726947 15.36771463 8 18 C5.3125 18.6875 5.3125 18.6875 2 18 C-2.565757 15.15685461 -5.50797119 12.45148498 -7.25 7.3125 C-7 4 -7 4 -5.25 1.5625 C-3 0 -3 0 0 0 Z " fill="#2B7FFF" transform="translate(136,162)"/>
<path d="M0 0 C1.9375 1 1.9375 1 3 3 C3.5290635 5.68235196 3.77574285 8.26406275 4 11 C3.38511719 11.03738281 2.77023438 11.07476562 2.13671875 11.11328125 C0.92435547 11.21189453 0.92435547 11.21189453 -0.3125 11.3125 C-1.11300781 11.37050781 -1.91351563 11.42851563 -2.73828125 11.48828125 C-5.39937691 12.09035989 -6.15565927 13.07299974 -8 15 C-8.99 15 -9.98 15 -11 15 C-12.89327223 12.54575822 -13.88209106 10.52403974 -14.5625 7.5 C-13.85830593 4.37024857 -12.39526888 2.86160982 -9.85546875 0.94921875 C-6.41393908 -0.81139537 -3.80901684 -0.49954319 0 0 Z " fill="#2B7FFF" transform="translate(226,115)"/>
<path d="M0 0 C0 0.99 0 1.98 0 3 C-2.046875 4.6484375 -2.046875 4.6484375 -4.75 6.375 C-11.75226323 11.09213363 -11.75226323 11.09213363 -14.75 18.75 C-14.48480669 24.58425288 -9.95544935 28.16003822 -6 32 C-4.66666667 33.33333333 -3.33333333 34.66666667 -2 36 C-3.485 36.495 -3.485 36.495 -5 37 C-10.5203624 34.13587892 -15.16482823 29.52495012 -18 24 C-19.30670551 19.77242335 -19.2890412 17.0003343 -17.5625 13 C-14.09570687 6.76946969 -7.2732183 0 0 0 Z " fill="#000000" transform="translate(54,110)"/>
<path d="M0 0 C0.66 0 1.32 0 2 0 C1.46085256 5.28910465 0.13791329 9.70834615 -2.0625 14.5625 C-2.37050537 15.25142334 -2.67851074 15.94034668 -2.99584961 16.65014648 C-7.49485568 26.5050584 -12.47711487 36.10097061 -20 44 C-21.32 43.67 -22.64 43.34 -24 43 C-23.5153125 42.36835938 -23.030625 41.73671875 -22.53125 41.0859375 C-13.89516661 29.56008774 -7.5874218 17.69207918 -2.34765625 4.32421875 C-1 1 -1 1 0 0 Z " fill="#000000" transform="translate(343,146)"/>
<path d="M0 0 C0.78375 0.04125 1.5675 0.0825 2.375 0.125 C2.375 0.785 2.375 1.445 2.375 2.125 C0.41172417 3.77537874 -1.53643805 5.27147045 -3.625 6.75 C-4.24785889 7.19150391 -4.87071777 7.63300781 -5.51245117 8.08789062 C-14.88795628 14.55455834 -25.2267261 20.49667516 -36.625 22.125 C-36.625 21.135 -36.625 20.145 -36.625 19.125 C-35.48804688 18.65191406 -34.35109375 18.17882812 -33.1796875 17.69140625 C-24.47224261 13.99074217 -8.33169426 0.39674735 0 0 Z " fill="#000000" transform="translate(309.625,199.875)"/>
<path d="M0 0 C5.43544554 0.43483564 8.76167555 1.53228 13 5 C15.85802654 8.42963185 16.54904999 11.42533022 16.33984375 15.90234375 C15.04524429 23.89314729 9.04286175 30.02690162 4 36 C3.34 35.67 2.68 35.34 2 35 C3.34455561 31.18929967 5.07982066 28.42202454 7.5625 25.25 C10.83612296 20.68056796 12.6313646 16.69335799 12 11 C11.03984492 8.07015534 10.2637224 7.16428609 7.6171875 5.515625 C6.25980469 4.88914063 6.25980469 4.88914063 4.875 4.25 C3.96492188 3.82203125 3.05484375 3.3940625 2.1171875 2.953125 C1.06917969 2.48132813 1.06917969 2.48132813 0 2 C0 1.34 0 0.68 0 0 Z " fill="#000000" transform="translate(356,127)"/>
<path d="M0 0 C0.2096324 4.12277052 0.31823119 7.10146489 -1.0625 11 C-3 13 -3 13 -6.25 13.75 C-10.83306933 12.83338613 -12.34950199 11.17694996 -15.32421875 7.7265625 C-17.09377533 5.90338299 -18.68215235 4.99985585 -21 4 C-21 3.34 -21 2.68 -21 2 C-18.25162151 1.46892686 -15.50187625 0.94984119 -12.75 0.4375 C-11.97269531 0.28603516 -11.19539062 0.13457031 -10.39453125 -0.02148438 C-9.64042969 -0.16005859 -8.88632813 -0.29863281 -8.109375 -0.44140625 C-7.07248535 -0.63778687 -7.07248535 -0.63778687 -6.01464844 -0.83813477 C-3.78712058 -1.01710362 -2.12493038 -0.65206197 0 0 Z M-13 4 C-11.84826645 6.46800047 -10.95216435 8.04783565 -9 10 C-6.39719432 9.67958603 -6.39719432 9.67958603 -4 9 C-3.67 7.02 -3.34 5.04 -3 3 C-6.50935186 3 -9.56484998 3.37542727 -13 4 Z " fill="#000000" transform="translate(209,187)"/>
<path d="M0 0 C5.625 -0.25 5.625 -0.25 9 2 C9.82336802 7.99882415 8.17309028 11.14120551 5 16 C2.69 15.67 0.38 15.34 -2 15 C-2 11.52023497 -1.6465936 8.64461639 -1 5.25 C-0.814375 4.26515625 -0.62875 3.2803125 -0.4375 2.265625 C-0.293125 1.51796875 -0.14875 0.7703125 0 0 Z " fill="#2B7FFF" transform="translate(276,135)"/>
<path d="M0 0 C2.97 0 5.94 0 9 0 C9.06058594 0.72445312 9.12117188 1.44890625 9.18359375 2.1953125 C9.61483433 7.17116533 10.07047641 12.08680391 11 17 C8.17116253 18.41441874 6.12623255 18.31900332 3 18 C0.40986014 15.40986014 -0.87879077 12.76822883 -1.1328125 9.0625 C-1.13023438 8.381875 -1.12765625 7.70125 -1.125 7 C-1.12757812 6.319375 -1.13015625 5.63875 -1.1328125 4.9375 C-1 3 -1 3 0 0 Z M2 3 C1.70837071 7.95769796 1.87059945 11.02806853 5 15 C5.66 15 6.32 15 7 15 C6.67 11.04 6.34 7.08 6 3 C4.68 3 3.36 3 2 3 Z " fill="#000000" transform="translate(63,247)"/>
<path d="M0 0 C3.90079158 1.57479753 6.19803558 4.09600817 9.0625 7.125 C13.64232925 11.88215346 18.48525276 15.74462458 23.98046875 19.44140625 C24.64691406 19.95574219 25.31335938 20.47007812 26 21 C26 21.66 26 22.32 26 23 C20.74021591 22.57288971 17.5541583 20.62460404 13.5625 17.375 C12.9962793 16.92495605 12.43005859 16.47491211 11.84667969 16.01123047 C-0.25021327 6.27055963 -0.25021327 6.27055963 -1 1 C-0.67 0.67 -0.34 0.34 0 0 Z " fill="#1A1A1B" transform="translate(91,233)"/>
<path d="M0 0 C2.46800047 1.15173355 4.04783565 2.04783565 6 4 C5.78387419 8.86283076 4.3679057 11.53586842 1 15 C-1.96524047 17.00871129 -4.44663236 17.63778394 -8 17 C-9.875 14.6875 -9.875 14.6875 -11 12 C-9.65709609 7.97128826 -7.48692446 7.32461631 -4 5 C-1.67722584 2.3908613 -1.67722584 2.3908613 0 0 Z M1 4 C-0.54166642 5.37485532 -0.54166642 5.37485532 -2 7 C-2 7.66 -2 8.32 -2 9 C-3.98 9.66 -5.96 10.32 -8 11 C-7.01 12.485 -7.01 12.485 -6 14 C-2.15719715 12.75368556 0.07319896 11.63951308 2 8 C1.78282648 5.79199472 1.78282648 5.79199472 1 4 Z " fill="#000000" transform="translate(158,135)"/>
<path d="M0 0 C3.53586014 3.17320782 5.58578031 5.16743695 6 10 C4.87720538 10.98169476 3.75168527 11.96027298 2.625 12.9375 C1.99851563 13.48277344 1.37203125 14.02804687 0.7265625 14.58984375 C-3.07521901 17.69491869 -6.24421109 17.07670627 -11 17 C-13 10.375 -13 10.375 -13 7 C-11.783125 6.773125 -10.56625 6.54625 -9.3125 6.3125 C-5.04439716 5.27390304 -2.84971116 3.384032 0 0 Z M0 4 C0 4.66 0 5.32 0 6 C-4.95 7.485 -4.95 7.485 -10 9 C-10 10.65 -10 12.3 -10 14 C-7.11532444 15.27686193 -7.11532444 15.27686193 -4.625 14.3125 C-1.72991455 12.86495727 0.54794585 11.1017607 3 9 C2.34 7.35 1.68 5.7 1 4 C0.67 4 0.34 4 0 4 Z " fill="#1B2025" transform="translate(162,252)"/>
<path d="M0 0 C3 1 3 1 4.3125 3.375 C6.40372047 6.62800962 8.49036073 7.51815231 12 9 C9.79976162 15.26221692 9.79976162 15.26221692 7 17 C2.79159945 17 0.72297575 16.6488244 -2.4375 13.8125 C-4.30215998 10.45611204 -4.6303761 8.7822566 -4 5 C-2 2.125 -2 2.125 0 0 Z M0 5 C-0.85974801 7.29294488 -0.85974801 7.29294488 -1 10 C0.56304526 12.47981752 0.56304526 12.47981752 3 14 C5.21858253 13.86358623 5.21858253 13.86358623 7 13 C7 12.01 7 11.02 7 10 C6.401875 9.731875 5.80375 9.46375 5.1875 9.1875 C3.02775192 8.01506533 1.64209744 6.80630718 0 5 Z " fill="#000000" transform="translate(262,171)"/>
<path d="M0 0 C-1 3 -1 3 -2.9609375 4.24609375 C-4.56509079 5.03778752 -6.16925737 5.82945437 -7.7734375 6.62109375 C-10.26454691 8.16383344 -11.5070517 9.48827881 -13 12 C-13.64466326 14.75056323 -13.63620894 17.24498805 -13 20 C-10.60140956 22.33630748 -10.60140956 22.33630748 -8 24 C-8 24.99 -8 25.98 -8 27 C-12.41256335 25.82331644 -14.64229464 24.95262369 -17 21 C-17.87621438 16.21634309 -17.5013605 12.1071711 -15.5 7.6875 C-11.34932425 3.22552357 -6.45303628 -1.00828692 0 0 Z " fill="#000000" transform="translate(352,118)"/>
<path d="M0 0 C0.66 0 1.32 0 2 0 C2.33 0.66 2.66 1.32 3 2 C3.66 2 4.32 2 5 2 C7.24018522 6.48037043 6.34808477 12.37766639 5 17.0625 C4.505 18.5165625 4.505 18.5165625 4 20 C2.68 20 1.36 20 0 20 C-2.70914967 14.58170067 -1.27472414 5.73625864 0 0 Z " fill="#000000" transform="translate(352,128)"/>
<path d="M0 0 C0.99 0 1.98 0 3 0 C4.32388229 6.43028541 5.24794402 12.4294834 5 19 C3.35 19 1.7 19 0 19 C-2.09570426 13.30601106 -3.45018084 8.04801071 -4 2 C-3.01 2 -2.02 2 -1 2 C-0.67 2.66 -0.34 3.32 0 4 C0 2.68 0 1.36 0 0 Z M1 10 C2 13 2 13 2 13 Z " fill="#000000" transform="translate(53,117)"/>
<path d="M0 0 C1.90625 1.375 1.90625 1.375 2.734375 3.7578125 C2.87359375 4.66273438 3.0128125 5.56765625 3.15625 6.5 C3.30578125 7.41007813 3.4553125 8.32015625 3.609375 9.2578125 C3.75632813 10.30582031 3.75632813 10.30582031 3.90625 11.375 C-0.71875 14.375 -0.71875 14.375 -4.09375 14.375 C-4.2890625 12.35677083 -4.484375 10.33854167 -4.6796875 8.3203125 C-4.95749749 6.14831755 -4.95749749 6.14831755 -7.09375 4.375 C-7.09375 3.385 -7.09375 2.395 -7.09375 1.375 C-2.71991822 -0.81191589 -2.71991822 -0.81191589 0 0 Z " fill="#2B7FFF" transform="translate(145.09375,184.625)"/>
<path d="M0 0 C1.0725 -0.01417969 2.145 -0.02835938 3.25 -0.04296875 C6 0.1875 6 0.1875 8 2.1875 C7.7578125 4.3515625 7.7578125 4.3515625 7.125 6.8125 C6.92132813 7.62976562 6.71765625 8.44703125 6.5078125 9.2890625 C6.25644531 10.22878906 6.25644531 10.22878906 6 11.1875 C5.32453125 11.10371094 4.6490625 11.01992188 3.953125 10.93359375 C2.61507812 10.78083984 2.61507812 10.78083984 1.25 10.625 C0.36828125 10.52058594 -0.5134375 10.41617188 -1.421875 10.30859375 C-4.26910983 10.05092929 -4.26910983 10.05092929 -8 11.1875 C-8 7.8875 -8 4.5875 -8 1.1875 C-5.27457733 -0.17521133 -3.03912726 0.01826399 0 0 Z M-6 3.1875 C-6 4.5075 -6 5.8275 -6 7.1875 C-2.37 7.1875 1.26 7.1875 5 7.1875 C4.67 5.5375 4.34 3.8875 4 2.1875 C-1.08303686 2.07429144 -1.08303686 2.07429144 -6 3.1875 Z " fill="#000000" transform="translate(241,52.8125)"/>
<path d="M0 0 C-0.33 0.99 -0.66 1.98 -1 3 C-3.07421875 3.921875 -3.07421875 3.921875 -5.6875 4.75 C-10.93434542 6.69689536 -14.02552905 9.26938385 -17 14 C-17.33 14.99 -17.66 15.98 -18 17 C-18.99 17 -19.98 17 -21 17 C-20.33510652 11.34840542 -17.69581367 7.56536646 -13.5625 3.75 C-8.95452575 0.60309075 -5.58363281 -0.25970385 0 0 Z " fill="#000000" transform="translate(55,98)"/>
<path d="M0 0 C8.54011956 0.44947998 16.01533633 3.14908583 24 6 C24 7.32 24 8.64 24 10 C21.31081925 9.23468759 18.62376181 8.46293869 15.9375 7.6875 C15.18533203 7.47416016 14.43316406 7.26082031 13.65820312 7.04101562 C8.92712776 5.66879896 4.48815725 4.03248555 0 2 C0 1.34 0 0.68 0 0 Z " fill="#000000" transform="translate(360,82)"/>
<path d="M0 0 C6.24462167 -0.4460444 10.9219165 0.10211074 16 4 C19.34156412 7.9483857 21 10.76854806 21 16 C20.01 16 19.02 16 18 16 C17.78085937 15.46890625 17.56171875 14.9378125 17.3359375 14.390625 C15.06741289 9.33716368 13.11768209 6.55884105 8 4 C5.33832482 3.1640226 2.73944348 2.56678141 0 2 C0 1.34 0 0.68 0 0 Z " fill="#000000" transform="translate(352,114)"/>
<path d="M0 0 C6.18483028 0.51949766 11.23442329 1.96847068 16.9375 4.375 C17.70384766 4.67921875 18.47019531 4.9834375 19.25976562 5.296875 C21.21350997 6.10675308 23.11293952 7.04500144 25 8 C25.33 8.99 25.66 9.98 26 11 C20.77878019 10.45918311 16.71298025 9.23693288 11.875 7.0625 C10.69679688 6.53785156 9.51859375 6.01320313 8.3046875 5.47265625 C7.21414063 4.98667969 6.12359375 4.50070313 5 4 C3.3371833 3.32378787 1.67205052 2.65304615 0 2 C0 1.34 0 0.68 0 0 Z " fill="#000000" transform="translate(319,64)"/>
<path d="M0 0 C0 0.99 0 1.98 0 3 C-3.95706627 3.53078256 -7.91579444 4.0479381 -11.875 4.5625 C-13.56689453 4.78969727 -13.56689453 4.78969727 -15.29296875 5.02148438 C-16.90751953 5.2293457 -16.90751953 5.2293457 -18.5546875 5.44140625 C-20.04718018 5.63778687 -20.04718018 5.63778687 -21.56982422 5.83813477 C-24 6 -24 6 -26 5 C-26 4.34 -26 3.68 -26 3 C-22.79279138 2.4926043 -19.58407837 1.995421 -16.375 1.5 C-15.47136719 1.35691406 -14.56773438 1.21382813 -13.63671875 1.06640625 C-9.04560134 0.36265833 -4.66168185 -0.18584778 0 0 Z " fill="#000000" transform="translate(76,65)"/>
<path d="M0 0 C0.99 0 1.98 0 3 0 C3.98829417 2.51758117 4.9657226 5.03854724 5.9375 7.5625 C6.21529297 8.26697266 6.49308594 8.97144531 6.77929688 9.69726562 C8.4865875 14.16090498 9.50625566 18.24380456 10 23 C9.01 23 8.02 23 7 23 C6.0170943 20.10538781 5.03856299 17.20941921 4.0625 14.3125 C3.78470703 13.49587891 3.50691406 12.67925781 3.22070312 11.83789062 C1.90264127 7.9154656 0.65946414 4.09869486 0 0 Z " fill="#000000" transform="translate(344,53)"/>
<path d="M0 0 C0.66 0 1.32 0 2 0 C1.44133754 3.97474603 -0.50038774 5.98534159 -3.1875 8.875 C-3.99445312 9.74640625 -4.80140625 10.6178125 -5.6328125 11.515625 C-8.37641945 14.39505408 -11.15142476 17.22446515 -14 20 C-14.99 19.67 -15.98 19.34 -17 19 C-13.00261716 14.32221157 -8.9038574 9.84448698 -4.50390625 5.54296875 C-2.86092288 3.9256345 -2.86092288 3.9256345 -1.1875 1.5625 C-0.795625 1.046875 -0.40375 0.53125 0 0 Z " fill="#000000" transform="translate(62,45)"/>
<path d="M0 0 C0 0.99 0 1.98 0 3 C-2.02241051 4.51530758 -3.95660488 5.79210329 -6.125 7.0625 C-6.97964844 7.5894043 -6.97964844 7.5894043 -7.8515625 8.12695312 C-11.45516562 10.29321 -14.97038656 11.81806171 -19 13 C-19 12.01 -19 11.02 -19 10 C-17.57885742 8.74145508 -17.57885742 8.74145508 -15.60546875 7.51953125 C-14.89712891 7.07802734 -14.18878906 6.63652344 -13.45898438 6.18164062 C-12.70939453 5.72982422 -11.95980469 5.27800781 -11.1875 4.8125 C-10.08051758 4.11737305 -10.08051758 4.11737305 -8.95117188 3.40820312 C-3.4046852 0 -3.4046852 0 0 0 Z " fill="#000000" transform="translate(84,46)"/>
<path d="M0 0 C0 0.99 0 1.98 0 3 C-1.44632812 3.81404297 -1.44632812 3.81404297 -2.921875 4.64453125 C-4.19799877 5.3670425 -5.47403588 6.08970683 -6.75 6.8125 C-7.70132812 7.34713867 -7.70132812 7.34713867 -8.671875 7.89257812 C-11.34662122 9.41105384 -13.87134247 10.90264338 -16.328125 12.76171875 C-18 14 -18 14 -20 14 C-17.43295989 7.78721675 -11.26316905 4.29922668 -5.625 1.0625 C-3 0 -3 0 0 0 Z " fill="#000000" transform="translate(379,64)"/>
<path d="M0 0 C0.66 0 1.32 0 2 0 C1.42770367 5.19228855 -1.0982161 9.3103703 -3.5625 13.8125 C-3.98724609 14.60076172 -4.41199219 15.38902344 -4.84960938 16.20117188 C-5.89396554 18.1373378 -6.9442077 20.07005367 -8 22 C-8.66 22 -9.32 22 -10 22 C-9.46674529 16.64245655 -7.57420028 12.80035889 -5 8.1875 C-4.44699219 7.1675293 -4.44699219 7.1675293 -3.8828125 6.12695312 C-1.1799794 1.1799794 -1.1799794 1.1799794 0 0 Z " fill="#000000" transform="translate(368,46)"/>
<path d="M0 0 C0 0.66 0 1.32 0 2 C-4.62369023 3.80679587 -8.42528653 4.21839082 -13.375 4.125 C-14.62023437 4.10695313 -15.86546875 4.08890625 -17.1484375 4.0703125 C-18.55996094 4.03550781 -18.55996094 4.03550781 -20 4 C-20 3.01 -20 2.02 -20 1 C-13.29980211 0.29867087 -6.73742646 -0.11044961 0 0 Z " fill="#000000" transform="translate(350,82)"/>
<path d="M0 0 C0.99 0 1.98 0 3 0 C4.69220486 2.41361852 6.1723127 4.76092505 7.625 7.3125 C8.03234375 8.00279297 8.4396875 8.69308594 8.859375 9.40429688 C10.53367968 12.27334547 11.94477165 14.83431496 13 18 C10.61705605 17.62283663 9.33893867 17.38618584 7.71972656 15.54125977 C7.36362305 14.93080811 7.00751953 14.32035645 6.640625 13.69140625 C6.24746094 13.02689453 5.85429688 12.36238281 5.44921875 11.67773438 C5.05347656 10.97970703 4.65773438 10.28167969 4.25 9.5625 C3.83878906 8.86833984 3.42757813 8.17417969 3.00390625 7.45898438 C0 2.30444093 0 2.30444093 0 0 Z " fill="#000000" transform="translate(27,47)"/>
<path d="M0 0 C0.99 0 1.98 0 3 0 C2.01 2.97 1.02 5.94 0 9 C0.99 9.33 1.98 9.66 3 10 C3 10.66 3 11.32 3 12 C0.29120665 13.35439668 -2.00933268 13.06501451 -5 13 C-4.39254603 8.14036821 -2.27241033 4.2594482 0 0 Z " fill="#000000" transform="translate(197,170)"/>
<path d="M0 0 C0.66 0 1.32 0 2 0 C2 6.6 2 13.2 2 20 C1.01 20 0.02 20 -1 20 C-1.02722517 17.79173622 -1.04649729 15.58337362 -1.0625 13.375 C-1.07410156 12.14523438 -1.08570313 10.91546875 -1.09765625 9.6484375 C-1.00863924 6.32276209 -0.63686087 3.25952412 0 0 Z " fill="#000000" transform="translate(42,34)"/>
<path d="M0 0 C0.70125 0.19335938 1.4025 0.38671875 2.125 0.5859375 C7.73492134 2.125617 13.35010447 3.61417657 19 5 C19 5.99 19 6.98 19 8 C12.31816637 6.9559635 6.2534035 5.5957524 0 3 C0 2.01 0 1.02 0 0 Z " fill="#000000" transform="translate(10,55)"/>
<path d="M0 0 C0 0.99 0 1.98 0 3 C-2.41625321 3.33659249 -4.83292808 3.66938388 -7.25 4 C-7.93191406 4.09539062 -8.61382812 4.19078125 -9.31640625 4.2890625 C-12.59371988 4.7345226 -15.68384153 5 -19 5 C-18.67 4.01 -18.34 3.02 -18 2 C-15.56281065 1.66424944 -13.12529385 1.33130715 -10.6875 1 C-9.99720703 0.90460938 -9.30691406 0.80921875 -8.59570312 0.7109375 C-5.70352927 0.31972558 -2.92235023 0 0 0 Z " fill="#000000" transform="translate(40,69)"/>
<path d="M0 0 C2.625 0.9375 2.625 0.9375 5 2 C5 2.99 5 3.98 5 5 C2.36 5 -0.28 5 -3 5 C-2.625 3.0625 -2.625 3.0625 -2 1 C-1.34 0.67 -0.68 0.34 0 0 Z " fill="#000000" transform="translate(210,168)"/>
<path d="M0 0 C0.99 0.33 1.98 0.66 3 1 C3 2.65 3 4.3 3 6 C2.01 6.33 1.02 6.66 0 7 C-0.66 6.34 -1.32 5.68 -2 5 C-1.46428571 1.46428571 -1.46428571 1.46428571 0 0 Z " fill="#000000" transform="translate(189,171)"/>
<path d="M0 0 C0.66 0.33 1.32 0.66 2 1 C2.4140625 3.06640625 2.4140625 3.06640625 2.625 5.5625 C2.69976562 6.38878906 2.77453125 7.21507812 2.8515625 8.06640625 C2.92503906 9.02353516 2.92503906 9.02353516 3 10 C2.01 9.67 1.02 9.34 0 9 C-0.87890625 2.84765625 -0.87890625 2.84765625 -1 1 C-0.67 0.67 -0.34 0.34 0 0 Z " fill="#000000" transform="translate(341,40)"/>
<path d="M0 0 C2.475 0.495 2.475 0.495 5 1 C4.67 2.32 4.34 3.64 4 5 C2.68 5 1.36 5 0 5 C0 3.35 0 1.7 0 0 Z " fill="#000000" transform="translate(208,175)"/>
<path d="M0 0 C-1.36983503 3.16115776 -1.9890638 3.9927092 -5 6 C-5.99 6 -6.98 6 -8 6 C-6.24081631 1.94034532 -4.71412298 0 0 0 Z " fill="#000000" transform="translate(390,57)"/>
<path d="M0 0 C0.99 0 1.98 0 3 0 C3.99 2.31 4.98 4.62 6 7 C5.01 7.33 4.02 7.66 3 8 C0 2.25 0 2.25 0 0 Z " fill="#1B1B1B" transform="translate(20,36)"/>
<path d="M0 0 C0 0.99 0 1.98 0 3 C-2.31 3 -4.62 3 -7 3 C-7 2.34 -7 1.68 -7 1 C-4 0 -4 0 0 0 Z " fill="#000000" transform="translate(325,85)"/>
<path d="M0 0 C0.66 0 1.32 0 2 0 C1.75 1.875 1.75 1.875 1 4 C-1.0625 5.25 -1.0625 5.25 -3 6 C-2.42655063 3.13275314 -2.1385485 2.1385485 0 0 Z " fill="#000000" transform="translate(69,37)"/>
<path d="M0 0 C0 0.66 0 1.32 0 2 C-1.98 2 -3.96 2 -6 2 C-6 1.34 -6 0.68 -6 0 C-3.50907189 -1.24546405 -2.58919267 -0.7767578 0 0 Z " fill="#000000" transform="translate(16,74)"/>
</svg>
