<?xml version="1.0" encoding="UTF-8" standalone="no"?>
<svg
   width="1002"
   height="1002"
   viewBox="0 0 1002 1002"
   fill="none"
   version="1.1"
   id="svg47"
   sodipodi:docname="confused.svg"
   inkscape:version="1.4.1 (93de688d, 2025-03-30)"
   xmlns:inkscape="http://www.inkscape.org/namespaces/inkscape"
   xmlns:sodipodi="http://sodipodi.sourceforge.net/DTD/sodipodi-0.dtd"
   xmlns="http://www.w3.org/2000/svg"
   xmlns:svg="http://www.w3.org/2000/svg">
  <defs
     id="defs47" />
  <sodipodi:namedview
     id="namedview47"
     pagecolor="#ffffff"
     bordercolor="#666666"
     borderopacity="1.0"
     inkscape:showpageshadow="2"
     inkscape:pageopacity="0.0"
     inkscape:pagecheckerboard="0"
     inkscape:deskcolor="#d1d1d1"
     inkscape:zoom="0.69634329"
     inkscape:cx="407.84481"
     inkscape:cy="362.60851"
     inkscape:window-width="1608"
     inkscape:window-height="792"
     inkscape:window-x="0"
     inkscape:window-y="30"
     inkscape:window-maximized="0"
     inkscape:current-layer="svg47" />
  <path
     d="M687.748 308.887C688.163 309.027 688.835 310.447 689.243 312.048C690.33 316.311 691.971 318.739 695.448 321.236C698.291 323.278 698.9 323.458 702.945 323.458C706.132 323.458 707.778 323.155 708.897 322.364C709.749 321.76 710.886 321.266 711.422 321.266C712.412 321.266 719.561 314.458 719.561 313.516C719.561 313.235 720.082 312.256 720.718 311.341C723.564 307.253 722.88 304.753 718.033 301.537C716.117 300.267 714.551 298.864 714.551 298.423C714.551 297.982 714.108 297.253 713.567 296.805C711.209 294.849 707.061 284.07 707.044 279.864C707.036 277.612 709.198 273.571 711.28 271.948C711.833 271.52 713.587 271.166 715.175 271.166C719.561 271.166 722.933 273.924 726.282 280.247C727.74 283.002 727.98 284.328 728.291 291.312C728.484 295.675 728.86 299.463 729.123 299.726C729.964 300.565 736.041 298.646 739.288 296.519C743.632 293.669 748.995 287.907 748.995 286.091C748.995 285.127 747.7 283.368 745.172 280.911C743.068 278.867 740.683 276.144 739.872 274.859C739.063 273.576 738.106 272.344 737.747 272.121C737.389 271.9 737.096 271.206 737.096 270.58C737.096 269.954 736.703 269.115 736.224 268.716C735.743 268.318 734.566 265.535 733.607 262.534C732.076 257.75 731.861 256.091 731.856 249.115C731.851 242.514 732.028 240.954 732.905 239.984C733.489 239.343 733.965 238.541 733.965 238.206C733.965 237.87 734.894 236.695 736.032 235.593C737.893 233.789 738.469 233.591 741.896 233.591C744.746 233.591 746.092 233.904 747.286 234.844C748.163 235.533 749.067 236.096 749.298 236.096C749.944 236.096 753.379 239.681 753.379 240.355C753.379 240.685 753.792 241.297 754.298 241.715C755.373 242.607 758.379 247.83 758.411 248.857C758.421 249.245 758.975 250.688 759.641 252.066C761.397 255.7 761.447 270.958 759.719 275.37C757.652 280.643 757.502 282.256 758.997 283.055C760.087 283.639 760.886 283.428 763.717 281.81C767.306 279.756 774.671 272.173 774.671 270.53C774.671 269.999 775.112 268.934 775.653 268.165C776.194 267.394 776.978 265.568 777.399 264.11C777.965 262.148 778.526 261.407 779.548 261.259C780.691 261.094 780.934 261.362 780.934 262.777C780.934 264.521 778 273.721 777.261 274.298C777.041 274.47 776.039 275.823 775.032 277.304C773.133 280.102 767.8 284.944 766.615 284.944C766.239 284.944 765.012 285.507 763.882 286.194C762.437 287.076 760.726 287.444 758.068 287.446C756.813 287.446 755.558 287.449 754.3 287.449C753.419 288.579 752.534 289.711 751.65 290.843C748.148 295.327 742.314 300.187 738.349 301.92C737.487 302.296 735.578 303.14 734.105 303.794C732.632 304.448 730.728 304.984 729.877 304.984C728.008 304.984 725.824 307.013 725.824 308.751C725.824 311.469 718.156 322.519 716.27 322.519C715.896 322.519 715.07 322.99 714.433 323.566C712.645 325.184 707.104 326.903 703.679 326.903C700.062 326.903 694.266 324.929 691.938 322.902C688.87 320.229 686.996 316.189 686.996 312.236C686.996 309.713 687.222 308.711 687.748 308.887ZM722.53 282.441C720.26 277.895 716.297 274.485 714.095 275.182C712.74 275.613 711.42 278.01 711.42 280.037C711.42 281.472 713.108 287.063 714.13 289.014C714.493 289.703 715.283 291.276 715.886 292.509C716.936 294.653 721.522 299.348 722.57 299.348C724.053 299.348 724.571 297.486 724.566 292.178C724.561 287.046 724.368 286.124 722.53 282.441ZM756.132 255.197C755.608 253.819 754.912 251.808 754.583 250.725C754.253 249.641 753.566 248.411 753.055 247.985C752.544 247.562 752.126 246.983 752.126 246.697C752.126 246.412 751.292 244.941 750.272 243.431C747.925 239.954 744.213 237.349 741.605 237.349C739.897 237.349 739.331 237.785 737.735 240.325C735.969 243.135 735.869 243.656 735.869 249.874C735.871 255.084 736.127 257.016 737.109 259.18C737.79 260.68 738.349 262.334 738.349 262.852C738.349 264.633 743.293 272.724 745.077 273.859C745.51 274.135 745.864 274.716 745.864 275.152C745.864 276.184 748.847 278.877 751.009 279.794C752.392 280.377 752.89 280.332 753.669 279.553C754.198 279.024 754.631 278.048 754.631 277.381C754.631 276.717 755.195 275.119 755.884 273.834C756.926 271.893 757.131 270.337 757.109 264.601C757.091 260.014 756.763 256.863 756.132 255.197Z"
     fill="#19AFF8"
     id="path1"
     style="fill:#2b7fff;fill-opacity:1" />
  <path
     d="M428.355 145.29C431.822 138.739 433.205 136.164 433.666 135.343C434.998 132.968 442.776 125.35 446.203 123.063C447.924 121.916 451.005 120.493 453.049 119.902C456.516 118.905 456.987 118.9 460.023 119.857C464.279 121.199 466.065 122.675 468.422 126.796C470.033 129.611 470.399 130.994 470.564 134.932C470.78 140.022 471.421 141.265 474.878 143.301C475.857 143.88 477.46 145.653 478.442 147.246C481.974 152.98 481.822 166.021 478.112 175.663C477.548 177.124 476.987 178.586 476.426 180.047C477.476 181.137 478.525 182.226 479.577 183.313C483.871 187.765 484.89 191.625 483.598 198.521C482.24 205.761 477.067 213.08 469.86 217.958C465.735 220.753 465.837 218.922 470.058 214.416C477.167 206.828 479.304 203.321 481.023 196.415C481.684 193.757 481.481 192.672 479.545 188.556C478.773 186.918 477.513 185.43 476.438 184.894C474.645 184 474.595 184.025 470.772 187.968C466.932 191.926 462.423 194.746 459.92 194.759C457.866 194.766 456.238 192.502 456.311 189.736C456.446 184.603 462.451 179.839 469.682 179.133C473.087 178.797 473.134 178.764 474.585 175.701C476.353 171.968 478.092 163.689 478.014 159.361C477.894 152.64 474.367 145.29 471.258 145.29C469.527 145.29 469.144 145.774 467.653 149.829C467.288 150.821 466.922 151.813 466.556 152.805C465.827 151.958 465.309 152.028 464.925 152.417C464.419 152.933 464.209 152.742 464.141 151.708C464.111 151.239 464.081 150.771 464.051 150.3C465.133 147.339 465.261 146.292 465.031 146.062C464.803 145.834 463.22 146.129 461.516 146.72C460.482 147.079 459.447 147.437 458.415 147.795C457.997 147.169 457.581 146.543 457.162 145.916C458.215 144.506 459.976 143.672 461.754 143.156C466.098 141.893 467.147 141.011 467.821 138.071C468.653 134.428 466.546 128.537 463.177 125.092C460.659 122.515 460.524 122.464 456.536 122.527C453.009 122.582 452.007 122.885 449.021 124.799C441.601 129.551 432.811 140.1 430.249 147.324C429.44 149.609 428.355 149.521 428.355 147.169C428.355 146.543 428.355 145.916 428.355 145.29ZM468.936 182.99C467.779 181.833 466.709 182.073 463.655 184.175C460.669 186.229 459.259 188.414 459.878 190.027C460.679 192.113 463.232 191.019 467.576 186.725C469.91 184.418 470.031 184.085 468.936 182.99Z"
     fill="#19AFF8"
     id="path2"
     style="fill:#2b7fff;fill-opacity:1" />
  <path
     d="M464.051 157.815C459.126 167.139 450.965 171.127 446.03 166.618C444.279 165.019 444.011 164.366 444.011 161.693C444.011 159.656 444.43 157.998 445.244 156.803C447.633 153.301 454.986 145.904 456.065 145.909C456.431 145.911 456.797 145.914 457.162 145.916C457.581 146.542 457.997 147.169 458.415 147.795C455.85 149.661 454.933 150.465 454.725 150.783C454.515 151.104 453.731 151.688 452.982 152.084C451.128 153.058 447.724 158.226 447.33 160.666C446.942 163.05 447.889 165.052 449.62 165.505C450.334 165.691 452.275 165.117 454.086 164.185C457.498 162.427 460.344 158.845 462.769 153.253C463.197 152.269 463.623 151.284 464.051 150.3C464.081 150.771 464.111 151.239 464.141 151.708C464.209 152.742 464.419 152.933 464.925 152.417C465.309 152.028 465.827 151.958 466.556 152.805C466.348 153.223 466.138 153.639 465.93 154.057C465.512 154.892 465.096 155.728 464.677 156.562C464.677 156.77 464.677 156.981 464.677 157.189C464.47 157.397 464.259 157.607 464.051 157.815Z"
     fill="#2EA8FC"
     id="path3"
     style="fill:#2b7fff;fill-opacity:1" />
  <path
     d="M15.8365 706.089C18.8951 702.447 32.3295 689.108 40.8089 681.295C58.2612 665.208 65.6409 658.316 67.3944 656.478C68.4691 655.353 69.5838 654.431 69.8694 654.431C70.1575 654.431 71.8158 653.046 73.5542 651.353C75.2927 649.659 79.7316 645.586 83.4189 642.3C87.1063 639.016 90.6534 635.822 91.3022 635.203C91.9485 634.584 94.2756 632.528 96.47 630.634C98.6619 628.74 103.156 624.787 106.452 621.849C109.749 618.91 113.003 616.03 113.682 615.448C114.361 614.865 116.044 613.412 117.422 612.222C118.8 611.03 122.314 607.994 125.23 605.471C128.146 602.949 130.979 600.464 131.527 599.948C132.074 599.431 133.739 598.021 135.227 596.816C136.715 595.611 140.107 592.793 142.762 590.554C145.418 588.314 148.802 585.496 150.285 584.291C151.768 583.086 155.042 580.338 157.562 578.184C160.084 576.032 162.346 574.271 162.589 574.271C162.832 574.271 163.479 573.848 164.025 573.332C165.731 571.711 172.116 566.756 172.494 566.756C172.692 566.756 174.022 565.91 175.45 564.878C178.248 562.848 179.468 562.55 179.909 563.78C180.533 565.519 178.977 567.267 170.613 574.244C167.534 576.811 164.791 579.279 164.516 579.725C164.24 580.171 163.619 580.534 163.138 580.534C162.657 580.534 162.036 580.887 161.76 581.318C161.485 581.751 158.722 584.209 155.623 586.779C152.524 589.351 149.706 591.766 149.361 592.149C149.015 592.53 145.776 595.258 142.159 598.212C138.541 601.165 134.431 604.667 133.02 605.992C131.61 607.317 129.25 609.389 127.777 610.594C124.872 612.969 113.8 622.7 111.72 624.702C111.017 625.381 108.787 627.347 106.763 629.068C100.708 634.226 90.0021 643.903 87.9154 646.107C86.8408 647.242 85.7411 648.169 85.473 648.169C85.205 648.169 83.97 649.133 82.7301 650.308C81.4876 651.488 78.0783 654.642 75.1499 657.322C67.5322 664.291 53.905 677.099 48.0558 682.783C45.3003 685.461 42.6726 687.86 42.2167 688.116C41.7583 688.374 36.36 693.559 30.2177 699.642C19.5038 710.255 17.3821 711.843 14.6166 711.312C12.7078 710.944 13.071 709.378 15.8365 706.089Z"
     fill="#141516"
     id="path4" />
  <path
     d="M875.633 564.877C876.81 564.877 899.5 588.059 909.726 599.712C911.504 601.736 915.457 606.217 918.511 609.672C921.567 613.126 924.545 616.508 925.126 617.187C926.765 619.093 930.099 622.948 934.896 628.474C942.233 636.931 949.833 645.977 958.726 656.828C961.962 660.779 964.996 664.464 965.467 665.015C965.938 665.566 968.205 668.412 970.504 671.34C972.804 674.268 975.054 676.889 975.504 677.164C975.955 677.44 976.324 677.983 976.324 678.376C976.324 678.767 976.855 679.669 977.503 680.381C978.155 681.092 980.96 684.852 983.741 688.737C988.438 695.305 989.387 697.642 987.353 697.642C985.855 697.642 979.878 690.962 966.624 674.471C962.887 669.822 959.462 665.593 959.017 665.077C957.496 663.324 949.718 653.895 947.829 651.518C946.795 650.218 943.977 646.866 941.567 644.073C939.157 641.28 936.196 637.78 934.991 636.297C932.887 633.71 929.21 629.441 924.41 624.008C923.17 622.603 921.166 620.238 919.961 618.75C918.756 617.262 914.803 612.771 911.179 608.765C907.551 604.76 904.107 600.924 903.521 600.246C898.03 593.88 884.007 578.397 881.915 576.39C880.798 575.316 879.881 574.211 879.881 573.938C879.881 573.662 879.465 572.991 878.954 572.445C875.858 569.133 874.871 567.663 874.871 566.353C874.871 565.541 875.214 564.877 875.633 564.877Z"
     fill="#141516"
     id="path5" />
  <path
     d="M804.486 561.062C805.671 560.08 821.665 559.479 853.265 559.229C868.709 559.106 870.823 559.209 870.996 560.065C871.101 560.601 870.47 561.511 869.593 562.087C868.158 563.029 864.776 563.144 836.394 563.224C804.198 563.314 801.961 563.162 804.486 561.062Z"
     fill="#141516"
     id="path6" />
  <path
     d="M186.152 558.209C189.045 556.696 213.576 556.789 218.887 558.332C222.674 559.434 223.692 560.644 222.133 562.2C221.254 563.079 220.079 563.096 210.931 562.372C205.312 561.927 197.589 561.498 193.772 561.418C183.987 561.21 182.008 560.376 186.152 558.209Z"
     fill="#141516"
     id="path7" />
  <path
     d="M591.18 372.619C591.18 374.239 593.733 374.214 597.372 372.559C598.96 371.837 601.528 370.68 603.079 369.991C604.629 369.3 606.46 368.43 607.149 368.057C607.838 367.684 609.248 366.962 610.281 366.451C615.398 363.926 622.492 357.784 622.492 355.878C622.492 355.454 623.206 354.928 624.081 354.71C624.992 354.48 626.087 353.478 626.658 352.348C627.204 351.269 628.206 349.776 628.888 349.032C629.965 347.852 630.378 347.762 632.074 348.355C633.146 348.729 634.98 349.685 636.152 350.48C637.325 351.276 639.732 352.646 641.503 353.528C643.274 354.407 645.568 355.672 646.603 356.339C647.638 357.005 649.256 357.99 650.203 358.526C651.15 359.062 653.524 360.547 655.481 361.832C657.435 363.115 659.759 364.618 660.646 365.171C664.236 367.413 675.461 374.836 676.157 375.429C676.565 375.778 677.926 376.767 679.181 377.629C680.433 378.49 683.479 380.747 685.949 382.649C688.419 384.548 691.202 386.589 692.134 387.183C695.551 389.367 709.777 401.118 720.646 410.737C725.673 415.186 750.773 440.179 754.421 444.367C756.199 446.411 759.158 449.808 760.996 451.914C771.928 464.45 780.879 476.694 785.428 485.344C786.425 487.238 787.479 489.211 787.772 489.727C788.068 490.244 788.927 492.217 789.686 494.111C790.445 496.005 791.605 498.598 792.261 499.87C792.92 501.145 793.464 502.836 793.471 503.628C793.481 504.422 794.042 506.298 794.724 507.801C795.405 509.302 795.964 511.275 795.961 512.185C795.961 513.094 796.505 515.81 797.174 518.222C798.216 521.994 799.734 533.117 799.734 537.009C799.734 537.698 799.458 541.982 799.12 546.531C798.654 552.771 798.191 555.381 797.234 557.167C796.535 558.47 795.964 559.857 795.964 560.248C795.964 561.258 792.973 566.486 791.873 567.397C791.367 567.818 790.954 568.502 790.954 568.918C790.954 569.562 783.752 576.749 780.763 579.091C779.644 579.968 774.31 582.59 770.287 584.241C759.854 588.525 748.87 589.529 725.45 588.337C717.151 587.916 709.789 587.265 709.093 586.891C708.396 586.518 705.463 586.037 702.577 585.824C699.692 585.609 696.062 585.048 694.511 584.572C692.961 584.098 690.142 583.535 688.249 583.319C686.355 583.104 683.184 582.387 681.202 581.731C679.218 581.072 676.964 580.529 676.192 580.519C675.418 580.514 673.557 579.95 672.054 579.266C670.553 578.585 668.707 578.029 667.953 578.029C667.197 578.029 666.305 577.753 665.969 577.417C665.631 577.079 663.812 576.26 661.929 575.596C655.804 573.437 653.965 572.678 653.091 571.954C652.618 571.561 651.47 571.05 650.538 570.814C649.609 570.581 648.519 569.995 648.119 569.514C647.718 569.031 647.072 568.635 646.683 568.632C645.917 568.63 639.314 565.446 638.011 564.449C637.57 564.113 635.378 563.159 633.139 562.332C629.374 560.94 628.322 560.839 619.108 561.002C613.099 561.107 608.63 561.463 607.836 561.899C606.032 562.891 513.337 563.274 487.849 562.395C477.343 562.032 459.026 561.456 447.142 561.11C423.926 560.439 403.733 559.517 398.488 558.888C395.234 558.497 391.887 559.361 385.77 562.165C383.49 563.209 380.549 564.484 375.75 566.511C369.067 569.334 366.431 570.383 362.599 571.754C360.359 572.553 357.323 573.73 355.85 574.366C354.377 575.003 352.499 575.524 351.679 575.524C350.858 575.524 348.681 576.057 346.842 576.709C345.004 577.36 341.667 578.204 339.427 578.582C337.188 578.963 333.946 579.547 332.226 579.877C330.505 580.208 326.7 580.762 323.771 581.105C320.843 581.451 317.181 582.014 315.63 582.357C311.033 583.379 282.586 583.212 279.034 582.144C277.399 581.651 274.182 581.065 271.89 580.844C266.685 580.338 257.379 577.415 253.005 574.907C252.489 574.612 250.375 573.495 248.308 572.428C243.709 570.05 238.867 565.98 233.326 559.83C229.308 555.371 228.303 553.963 226.647 550.474C221.745 540.151 221.066 537.192 221.066 526.143C221.066 519.587 221.329 515.987 221.908 514.6C222.369 513.492 222.96 511.458 223.218 510.081C223.473 508.703 224.18 506.448 224.789 505.071C225.395 503.693 226.074 502.142 226.297 501.626C227.056 499.865 231.164 492.551 232.627 490.354C234.242 487.926 237.314 483.214 238.296 481.654C244.06 472.501 246.201 469.447 253.659 459.74C254.881 458.149 256.322 456.143 256.863 455.281C257.401 454.417 260.838 450.191 264.498 445.887C268.158 441.584 271.93 437.112 272.88 435.953C277.634 430.154 306.504 401.717 312.832 396.599C321.189 389.843 323.493 387.937 323.789 387.533C323.974 387.285 325.289 386.294 326.715 385.329C328.14 384.367 330.247 382.731 331.396 381.699C332.544 380.667 334.751 378.979 336.299 377.949C337.847 376.922 340.525 375.021 342.246 373.731C349.553 368.25 356.527 363.551 366.456 357.423C378.528 349.969 381.083 348.508 392.346 342.609C395.101 341.166 397.624 339.718 397.952 339.392C398.939 338.41 400.399 338.781 402.052 340.432C402.914 341.294 403.828 341.983 404.086 341.965C404.244 341.955 404.402 341.945 404.557 341.932C404.765 342.351 404.976 342.767 405.184 343.185C405.184 347.514 406.689 349.375 416.859 357.636C422.979 362.609 424.788 363.779 425.534 363.258C425.847 363.037 426.163 362.819 426.476 362.599C427.937 363.225 429.4 363.851 430.86 364.477C430.86 365.419 431.777 365.93 432.894 366.218C434.705 366.684 434.953 367.018 435.138 369.209C435.254 370.567 434.926 372.526 434.41 373.558C433.896 374.59 432.756 377.128 431.879 379.194C425.865 393.383 425.266 394.723 424.299 396.103C423.816 396.792 423.245 398.112 423.029 399.034C422.814 399.958 422.253 401.035 421.779 401.426C421.306 401.817 420.732 402.994 420.502 404.041C420.274 405.089 419.415 406.93 418.598 408.137C417.779 409.342 416.381 411.777 415.489 413.548C413.818 416.872 413.21 417.947 411.181 421.153C408.165 425.923 406.719 428.067 406.321 428.368C405.544 428.951 404.497 432.308 404.825 433.16C405.266 434.309 406.376 434.202 409.104 432.739C410.389 432.05 412.08 431.486 412.862 431.486C413.643 431.486 415.264 430.965 416.466 430.329C417.666 429.693 420.134 429.001 421.947 428.791C423.763 428.583 426.724 427.989 428.523 427.476C431.702 426.566 438.157 425.832 453.718 424.615C457.851 424.292 471.378 424.194 483.778 424.397C491.293 424.52 498.808 424.643 506.323 424.765C507.185 425.677 508.044 426.589 508.903 427.501C510.324 429.004 511.944 430.234 512.505 430.234C512.844 430.234 513.184 430.234 513.525 430.234C514.359 430.86 515.196 431.486 516.03 432.112C516.03 433.137 517.646 434.174 519.62 435.078C522.871 436.566 523.911 436.719 530.734 436.697C537.38 436.674 538.618 436.496 541.298 435.174C546.258 432.729 549.174 430.617 549.196 429.452C549.206 429.086 549.214 428.721 549.221 428.355C550.474 427.102 551.726 425.85 552.979 424.597C555.995 422.556 556.736 421.506 556.739 420.665C556.744 419.282 556.796 419.274 566.984 419.362C572.818 419.41 577.758 419.733 578.465 420.111C579.146 420.477 582.781 421.048 586.538 421.379C590.298 421.712 594.419 422.433 595.699 422.977C596.982 423.523 599.003 423.971 600.193 423.971C602.034 423.971 602.783 424.472 605.223 427.325C606.799 429.172 608.099 431.073 608.111 431.554C608.124 432.035 608.7 433.13 609.389 433.991C610.08 434.853 612.472 438.375 614.704 441.819C620.033 450.046 619.717 449.577 624.171 455.815C627.923 461.07 630.619 464.605 634.218 468.986C635.175 470.151 636.292 471.559 636.703 472.117C642.921 480.569 669.341 507.055 682.612 518.139C688.336 522.921 693.299 526.676 693.892 526.676C694.296 526.676 695.335 527.232 696.202 527.914C698.369 529.62 700.448 528.618 699.854 526.155C699.388 524.216 697.853 522.698 691.38 517.771C688.797 515.802 685.977 513.55 685.112 512.763C684.248 511.977 682.417 510.379 681.042 509.211C675.603 504.6 668.346 497.841 661.403 490.925C654.812 484.362 652.462 481.809 645.601 473.768C644.429 472.395 642.628 470.306 641.593 469.126C640.561 467.947 639.091 466.253 638.329 465.361C636.08 462.726 629.652 454.136 625.456 448.157C621.994 443.222 619.106 439.252 615.724 434.785C615.14 434.016 613.96 432.391 613.099 431.173C612.237 429.956 611.047 428.33 610.451 427.561C606.495 422.451 604.331 419.405 604.331 418.949C604.331 418.661 603.928 418.019 603.432 417.526C602.377 416.471 594.624 401.213 593.978 398.921C593.735 398.06 593.169 396.932 592.721 396.416C592.272 395.9 591.713 394.713 591.481 393.781C591.248 392.847 590.661 391.757 590.18 391.356C589.697 390.955 589.301 390.089 589.301 389.427C589.301 388.768 588.808 387.478 588.207 386.559C586.661 384.199 585.408 380.762 585.313 378.616C585.241 377.02 585.516 376.709 587.422 376.218C590.158 375.512 591.057 374.708 590.053 373.871C589.802 373.663 589.552 373.453 589.301 373.245C589.927 373.037 590.554 372.827 591.18 372.619ZM403.989 434.339C402.739 433.568 400.797 434.668 399.828 436.699C398.864 438.716 395.807 444.262 392.295 450.366C391.233 452.21 390.164 454.141 389.916 454.657C389.67 455.174 388.846 456.626 388.087 457.884C387.331 459.141 385.605 462.1 384.252 464.46C382.902 466.819 381.306 469.452 380.707 470.314C379.773 471.656 377.784 474.695 375.437 478.37C375.094 478.908 373.753 480.827 372.463 482.633C371.171 484.439 370.114 486.088 370.114 486.298C370.114 486.694 365.204 493.034 363.538 494.79C363.022 495.336 362.599 495.987 362.599 496.238C362.599 496.764 355.607 504.898 349.54 511.433C343.353 518.092 342.366 519.562 342.827 521.398C343.959 525.912 348.866 523.239 356.454 513.973C359.66 510.058 364.33 504.444 366.827 501.503C369.322 498.558 371.366 495.942 371.366 495.687C371.366 495.434 372.441 493.918 373.756 492.32C375.074 490.722 376.792 488.35 377.576 487.05C378.36 485.747 379.355 484.334 379.783 483.906C380.211 483.477 380.925 482.445 381.371 481.614C381.817 480.78 382.431 479.8 382.731 479.434C383.919 477.997 386.396 473.986 386.396 473.503C386.396 473.22 386.925 472.315 387.574 471.491C388.954 469.735 392.879 462.646 394.465 459.041C395.194 457.385 395.97 456.043 397.801 453.272C398.418 452.34 398.921 451.181 398.921 450.697C398.921 450.214 399.485 449.099 400.174 448.225C400.863 447.348 401.426 446.221 401.426 445.72C401.426 445.216 401.962 444.126 402.616 443.292C404.036 441.489 405.033 434.986 403.989 434.339Z"
     fill="#2B7FFF"
     id="path8"
     style="fill:#2b7fff;fill-opacity:1" />
  <path
     d="M445.735 645.022C446.682 644.687 447.879 644.133 448.395 643.793C449.485 643.074 452.34 641.413 457.007 638.785C457.999 638.224 460.384 636.966 463.738 635.235C464.427 634.88 465.695 634.216 466.556 633.765C467.418 633.314 468.686 632.663 469.374 632.317C470.063 631.974 471.05 631.448 471.566 631.147C472.082 630.847 473.633 630.038 475.011 629.346C476.388 628.655 477.939 627.818 478.455 627.483C478.971 627.149 480.098 626.593 480.96 626.25C481.822 625.907 482.949 625.361 483.465 625.038C483.981 624.714 485.815 623.835 487.536 623.084C490.582 621.754 491.331 621.4 494.267 619.89C495.043 619.492 496.17 618.928 496.772 618.637C497.375 618.347 498.503 617.783 499.277 617.385C500.053 616.987 501.11 616.468 501.626 616.23C503.047 615.579 504.795 614.707 507.698 613.206C509.146 612.458 510.652 611.846 511.045 611.846C511.438 611.846 512.478 611.283 513.355 610.594C514.229 609.905 515.356 609.341 515.86 609.341C516.361 609.341 517.488 608.778 518.365 608.089C519.239 607.4 520.584 606.836 521.353 606.836C522.122 606.836 523.467 606.273 524.342 605.584C525.218 604.895 526.228 604.331 526.586 604.331C526.944 604.331 528.48 603.67 530 602.861C531.521 602.052 533.297 601.215 533.948 601.002C534.597 600.787 535.554 600.366 536.07 600.065C537.052 599.494 541.198 597.603 551.273 593.134C555.459 591.275 558.898 591.398 561.947 593.51C564.7 595.418 575.371 606.16 596.601 628.397C604.469 636.636 613.091 645.574 615.759 648.256C618.429 650.939 620.614 653.354 620.611 653.625C620.611 653.895 621.583 655.105 622.776 656.31C626.796 660.376 640.381 676.27 650.361 688.584C652.082 690.711 655.376 694.674 657.678 697.395C676.753 719.925 680.832 725.137 680.609 726.696C680.443 727.833 676.285 730.934 671.653 733.369C670.964 733.732 669.273 734.709 667.896 735.538C666.518 736.37 664.404 737.632 663.199 738.344C661.994 739.055 660.163 740.185 659.128 740.854C658.094 741.523 656.263 742.65 655.058 743.359C653.853 744.068 652.022 745.195 650.987 745.864C649.952 746.533 648.121 747.66 646.916 748.366C645.711 749.073 643.034 750.766 640.967 752.129C638.9 753.492 636.33 755.105 635.256 755.713C631.736 757.712 628.475 759.654 626.563 760.894C625.531 761.563 623.697 762.69 622.493 763.399C621.288 764.108 619.454 765.235 618.422 765.904C617.39 766.573 615.697 767.59 614.664 768.163C613.632 768.739 612.645 769.401 612.473 769.634C612.3 769.867 610.521 771.024 608.522 772.209C606.523 773.391 603.845 774.982 602.573 775.743C601.3 776.507 599.274 777.712 598.069 778.424C596.864 779.135 595.03 780.265 593.998 780.934C592.104 782.161 588.906 784.07 585.306 786.117C584.231 786.728 582.505 787.775 581.473 788.446C580.441 789.118 578.608 790.245 577.403 790.954C576.198 791.663 574.364 792.797 573.332 793.476C572.3 794.158 570.607 795.147 569.574 795.676C568.542 796.204 566.428 797.467 564.878 798.479C563.327 799.493 561.496 800.606 560.807 800.951C560.118 801.297 558.427 802.289 557.049 803.158C555.672 804.027 553.558 805.192 552.353 805.746C551.148 806.297 550.02 806.971 549.848 807.236C549.675 807.502 548.548 808.171 547.343 808.719C546.138 809.268 544.697 810.049 544.139 810.455C542.874 811.38 541.08 810.746 541.08 809.376C541.08 808.807 540.163 807.038 539.046 805.443C536.331 801.57 535.632 800.435 534.369 797.843C533.783 796.638 532.966 795.227 532.553 794.711C532.142 794.195 530.917 792.081 529.83 790.014C528.743 787.948 527.182 785.13 526.358 783.752C525.534 782.374 524.597 780.683 524.274 779.994C523.948 779.306 522.212 776.207 520.414 773.106C518.615 770.004 516.879 766.906 516.554 766.217C516.23 765.528 515.346 763.927 514.59 762.662C513.833 761.395 511.724 757.732 509.903 754.521C508.084 751.31 506.318 748.259 505.978 747.743C505.637 747.227 504.933 745.959 504.409 744.924C503.886 743.89 502.633 741.778 501.626 740.228C500.619 738.677 499.359 736.565 498.826 735.531C498.295 734.496 497.167 732.525 496.323 731.147C495.479 729.769 494.467 727.865 494.076 726.921C493.683 725.974 493.152 725.198 492.891 725.198C492.633 725.198 491.962 724.14 491.398 722.848C490.835 721.558 489.813 719.656 489.126 718.622C488.44 717.587 487.38 715.851 486.769 714.759C485.376 712.274 480.474 703.887 478.643 700.859C477.886 699.606 476.952 697.883 476.569 697.029C476.186 696.175 475.647 695.33 475.371 695.15C475.098 694.97 473.919 693.101 472.751 690.994C470.89 687.635 466.166 679.444 464.364 676.453C463.423 674.885 459.034 668.129 457.704 666.2C457.062 665.265 456.536 664.344 456.536 664.151C456.536 663.667 445.274 648.875 444.577 648.444C443.343 647.68 444.041 645.621 445.735 645.022ZM671.48 721.736C670.198 720.348 668.161 717.988 666.956 716.49C665.751 714.992 662.933 711.595 660.694 708.938C658.454 706.282 655.636 702.901 654.431 701.423C653.226 699.947 650.408 696.565 648.169 693.908C645.929 691.252 643.111 687.871 641.906 686.393C636.29 679.511 631.035 673.487 630.248 673.031C629.772 672.755 629.381 672.214 629.381 671.831C629.381 671.448 628.973 670.686 628.472 670.14C627.974 669.594 625.955 667.317 623.993 665.078C620.138 660.684 607.265 647.049 593.607 632.898C588.916 628.036 581.882 620.676 577.976 616.543C564.552 602.332 557.871 595.564 557.272 595.564C556.942 595.564 555.629 596.107 554.354 596.769C553.082 597.433 550.629 598.605 548.908 599.371C547.187 600.14 545.354 601.01 544.838 601.303C544.322 601.596 543.194 602.142 542.333 602.518C541.471 602.893 537.368 604.865 533.212 606.896C529.059 608.93 525.221 610.594 524.687 610.594C524.151 610.594 523.019 611.14 522.172 611.806C521.323 612.475 519.888 613.207 518.981 613.434C518.074 613.662 517.007 614.244 516.606 614.725C516.205 615.208 515.554 615.604 515.161 615.604C514.768 615.604 513.395 616.167 512.11 616.856C510.825 617.545 509.464 618.109 509.086 618.109C508.708 618.109 507.683 618.672 506.807 619.361C505.932 620.05 504.805 620.614 504.302 620.614C503.801 620.614 502.673 621.177 501.797 621.866C500.922 622.555 499.655 623.119 498.979 623.119C498.305 623.119 497.037 623.682 496.16 624.371C495.286 625.06 494.079 625.624 493.478 625.624C492.876 625.624 492.045 626.035 491.626 626.538C491.208 627.042 490.259 627.628 489.515 627.838C487.568 628.394 483.375 630.348 476.682 633.82C474.818 634.787 472.503 635.752 471.534 635.964C470.567 636.177 469.452 636.736 469.061 637.209C468.671 637.683 467.541 638.244 466.556 638.462C465.572 638.68 464.427 639.261 464.019 639.755C463.608 640.25 462.814 640.654 462.253 640.656C461.692 640.656 460.311 641.22 459.182 641.909C458.054 642.598 456.749 643.159 456.283 643.159C455.82 643.159 455.088 643.58 454.66 644.093C454.234 644.609 452.791 645.323 451.454 645.684C448.232 646.551 448.297 647.853 451.752 651.703C453.964 654.166 457.606 658.635 461.376 663.512C461.642 663.855 462.679 665.406 463.678 666.956C464.68 668.507 465.968 670.478 466.541 671.34C467.112 672.202 467.779 673.329 468.017 673.845C468.257 674.361 469.284 676.052 470.301 677.603C471.316 679.153 472.578 681.265 473.107 682.299C473.635 683.334 474.625 685.022 475.306 686.057C475.985 687.091 477.12 688.923 477.829 690.128C478.538 691.332 479.658 693.164 480.319 694.198C480.983 695.233 482.679 698.051 484.091 700.461C485.504 702.87 487.208 705.689 487.881 706.723C488.553 707.758 489.537 709.446 490.066 710.481C490.594 711.515 491.852 713.627 492.859 715.178C493.866 716.728 495.123 718.84 495.652 719.874C496.18 720.909 497.18 722.597 497.869 723.632C498.558 724.666 499.577 726.498 500.133 727.703C500.687 728.907 501.353 730.035 501.611 730.208C501.869 730.38 502.994 732.212 504.106 734.278C505.221 736.345 506.952 739.446 507.951 741.167C508.951 742.888 510.071 745.002 510.439 745.864C510.807 746.723 511.484 747.85 511.944 748.369C512.403 748.885 513.665 750.999 514.75 753.066C515.832 755.132 517.258 757.667 517.919 758.702C518.578 759.736 519.838 762.031 520.717 763.802C521.599 765.573 522.949 767.968 523.715 769.125C524.484 770.283 525.917 772.778 526.902 774.671C527.886 776.565 529.502 779.526 530.491 781.247C531.483 782.968 532.716 785.222 533.229 786.257C534.206 788.213 534.993 789.554 536.749 792.231C537.323 793.106 537.986 794.706 538.224 795.788C538.46 796.871 539.061 798.091 539.555 798.501C540.051 798.912 540.454 799.684 540.454 800.212C540.454 801.512 543.48 806.61 544.251 806.61C544.775 806.61 555.857 799.619 561.253 795.886C562.185 795.24 563.089 794.711 563.262 794.711C563.435 794.711 565.89 793.136 568.718 791.212C571.543 789.285 574.444 787.449 575.161 787.129C575.877 786.808 577.731 785.708 579.281 784.689C580.832 783.667 582.523 782.632 583.039 782.389C583.555 782.144 585.529 780.871 587.423 779.561C589.316 778.251 591.185 777.176 591.573 777.176C591.962 777.176 592.638 776.743 593.076 776.214C593.517 775.686 595.692 774.205 597.911 772.925C600.13 771.648 602.696 770.115 603.61 769.524C604.524 768.93 606.258 767.865 607.463 767.156C608.667 766.447 610.501 765.32 611.533 764.651C612.565 763.982 614.399 762.855 615.604 762.149C616.809 761.442 619.487 759.749 621.553 758.386C623.62 757.024 626.19 755.41 627.265 754.802C630.784 752.803 634.046 750.861 635.957 749.621C636.989 748.952 638.823 747.825 640.028 747.116C641.232 746.407 643.064 745.28 644.098 744.611C645.133 743.942 646.801 742.933 647.811 742.364C648.818 741.798 650.932 740.433 652.507 739.333C654.083 738.234 655.794 737.134 656.31 736.891C656.826 736.648 658.517 735.621 660.068 734.604C661.618 733.589 663.73 732.327 664.764 731.798C665.799 731.27 667.357 730.343 668.231 729.739C669.103 729.135 670.721 728.078 671.829 727.389C672.933 726.701 673.833 725.714 673.825 725.198C673.82 724.682 672.763 723.123 671.48 721.736Z"
     fill="#141516"
     id="path9" />
  <path
     d="M559.712 744.904C563.069 743.306 566.944 741.503 568.322 740.891C569.7 740.283 572.094 739.178 573.645 738.439C575.196 737.698 576.886 737.091 577.402 737.091C577.919 737.089 579.189 736.528 580.221 735.844C581.253 735.16 582.523 734.599 583.039 734.596C583.555 734.596 585.105 734.06 586.483 733.411C587.861 732.76 589.905 731.911 591.025 731.53C595.814 729.892 597.25 729.368 599.294 728.509C602.062 727.347 612.71 724.571 614.406 724.571C615.293 724.571 615.631 724.912 615.491 725.668C615.251 726.949 607.901 730.789 605.584 730.841C604.722 730.859 602.891 731.42 601.513 732.086C600.135 732.753 598.304 733.309 597.442 733.321C596.581 733.336 595.03 733.907 593.998 734.591C592.966 735.275 591.633 735.836 591.04 735.839C590.446 735.841 588.755 736.372 587.282 737.019C585.809 737.662 583.617 738.534 582.412 738.955C579.983 739.799 579.301 740.07 561.937 747.054C555.03 749.829 553.605 750.115 553.605 748.714C553.605 748.186 556.14 746.605 559.712 744.904Z"
     fill="#141516"
     id="path10" />
  <path
     d="M540.001 721.555C541.168 720.588 552.996 714.551 553.725 714.551C554.069 714.551 555.063 713.988 555.94 713.299C556.814 712.61 557.941 712.046 558.445 712.046C558.946 712.046 560.073 711.483 560.95 710.794C561.824 710.105 562.951 709.541 563.455 709.541C563.956 709.541 565.083 708.978 565.96 708.289C566.834 707.6 568.162 707.036 568.908 707.036C569.652 707.036 570.531 706.778 570.857 706.46C571.892 705.458 578.73 702.109 580.566 701.706C581.533 701.495 582.663 700.917 583.071 700.421C583.482 699.925 584.276 699.521 584.838 699.519C585.399 699.516 586.711 698.995 587.758 698.356C588.805 697.72 590.494 697.056 591.516 696.883C592.538 696.708 593.863 696.357 594.462 696.102C596.057 695.418 596.746 697.577 595.228 698.504C591.734 700.636 586.681 703.279 586.1 703.279C585.732 703.279 584.712 703.842 583.835 704.531C582.961 705.22 581.649 705.789 580.92 705.796C580.191 705.806 578.891 706.362 578.029 707.036C577.167 707.71 576.095 708.266 575.647 708.276C574.875 708.289 573.75 708.8 567.573 711.956C566.125 712.695 564.479 713.299 563.913 713.299C563.347 713.299 562.167 713.862 561.29 714.551C560.416 715.24 559.282 715.804 558.773 715.804C558.262 715.804 556.681 716.395 555.256 717.119C549.214 720.185 548.137 720.651 545.291 721.425C543.645 721.873 542.15 722.482 541.967 722.778C541.529 723.487 539.201 723.479 539.201 722.77C539.201 722.467 539.562 721.921 540.001 721.555Z"
     fill="#141516"
     id="path11" />
  <path
     d="M530.905 695.694C533.239 693.797 535.842 692.162 537.225 691.723C538.019 691.473 540.612 690.305 542.989 689.131C545.364 687.958 547.525 686.996 547.793 686.999C548.062 686.999 549.409 686.455 550.787 685.791C554.705 683.9 560.9 681.36 561.591 681.36C561.937 681.36 562.57 680.937 562.999 680.421C563.427 679.905 564.387 679.481 565.128 679.481C565.87 679.481 567.077 679.06 567.808 678.549C569.835 677.129 579.156 674.288 580.321 674.737C582.45 675.553 578.871 678.126 570.341 681.911C568.695 682.643 567.004 683.239 566.583 683.236C566.16 683.236 564.62 683.8 563.154 684.489C561.691 685.18 559.296 686.307 557.834 686.999C556.368 687.688 554.747 688.254 554.231 688.254C553.715 688.256 552.445 688.817 551.413 689.501C550.381 690.185 549.139 690.746 548.655 690.749C548.172 690.751 546.198 691.475 544.271 692.359C542.345 693.244 539.92 694.336 538.888 694.789C537.856 695.245 535.664 696.212 534.018 696.944C532.373 697.673 530.752 698.269 530.416 698.269C529.419 698.269 529.725 696.651 530.905 695.694Z"
     fill="#141516"
     id="path12" />
  <path
     d="M512.428 672.765C516.493 669.612 548.505 653.081 554.702 650.937C560.256 649.016 560.797 651.901 555.366 654.474C551.731 656.197 547.748 658.029 544.524 659.456C542.803 660.218 540.97 661.092 540.454 661.398C539.938 661.706 538.81 662.264 537.949 662.645C537.087 663.023 535.96 663.587 535.444 663.898C534.928 664.206 533.8 664.769 532.939 665.15C532.077 665.528 530.95 666.08 530.434 666.375C529.918 666.671 527.663 667.801 525.424 668.883C523.184 669.965 519.382 671.808 516.969 672.978C514.557 674.146 512.375 675.103 512.117 675.1C511.356 675.098 511.579 673.424 512.428 672.765Z"
     fill="#141516"
     id="path13" />
  <path
     d="M202.419 703.001C203.183 702.465 204.383 702.024 205.079 702.021C205.778 702.019 207.196 701.458 208.228 700.774C209.26 700.09 210.811 699.526 211.672 699.521C212.534 699.516 214.085 698.953 215.117 698.269C216.149 697.585 217.782 697.024 218.744 697.021C219.703 697.019 221.595 696.453 222.945 695.764C224.295 695.075 225.986 694.511 226.702 694.511C227.419 694.511 229.11 693.948 230.46 693.259C231.81 692.57 233.426 692.006 234.052 692.006C234.678 692.006 235.756 691.61 236.444 691.127C237.136 690.646 238.957 689.927 240.497 689.534C243.331 688.807 245.786 687.808 249.996 685.669C251.271 685.02 252.627 684.491 253.01 684.491C253.731 684.491 259.553 681.966 262.494 680.378C263.408 679.885 264.535 679.476 264.999 679.469C265.465 679.459 266.547 678.903 267.409 678.229C268.27 677.555 269.493 676.999 270.127 676.989C270.763 676.981 271.998 676.413 272.875 675.724C273.749 675.035 274.876 674.471 275.38 674.471C275.881 674.471 277.008 673.908 277.885 673.219C278.759 672.53 279.886 671.966 280.39 671.966C280.891 671.966 282.018 671.403 282.895 670.714C283.769 670.025 284.881 669.461 285.367 669.461C285.85 669.461 287.01 668.955 287.945 668.342C290.715 666.51 292.058 665.734 293.711 665.005C294.573 664.627 295.7 664.065 296.216 663.755C296.732 663.444 298.138 662.7 299.337 662.099C300.537 661.498 302.925 660.09 304.645 658.97C306.366 657.853 308.002 656.936 308.283 656.936C308.563 656.936 309.555 656.41 310.49 655.769C313.22 653.888 319.615 649.762 320.327 649.421C320.685 649.248 322.524 648.119 324.412 646.909C326.299 645.699 328.305 644.431 328.874 644.091C329.44 643.75 331.274 642.505 332.944 641.323C346.817 631.511 350.061 629.93 350.595 632.725C350.873 634.193 349.054 636.115 343.185 640.549C340.602 642.502 338.348 644.268 338.175 644.476C338.002 644.687 335.607 646.298 332.852 648.056C330.096 649.817 327.526 651.528 327.138 651.856C326.75 652.187 324.786 653.334 322.774 654.409C320.763 655.483 318.663 656.771 318.107 657.274C317.551 657.778 316.902 658.189 316.667 658.189C316.246 658.189 310.693 661.33 307.807 663.199C304.545 665.313 298.165 668.835 297.599 668.835C297.268 668.835 296.667 669.231 296.266 669.714C295.865 670.195 294.776 670.781 293.841 671.014C292.91 671.247 291.722 671.811 291.206 672.269C289.858 673.459 275.56 680.588 273.541 681.074C272.607 681.3 271.517 681.879 271.116 682.359C270.715 682.843 270.099 683.239 269.748 683.239C269.398 683.239 267.812 683.845 266.226 684.586C264.638 685.325 262.071 686.5 260.52 687.197C258.969 687.893 256.677 688.978 255.425 689.609C254.172 690.24 252.679 690.754 252.106 690.754C251.532 690.754 250.019 691.287 248.744 691.939C247.471 692.59 245.442 693.464 244.237 693.882C239.135 695.656 236.928 696.48 235.157 697.274C233.416 698.053 231.923 698.607 227.016 700.28C225.983 700.636 223.724 701.453 221.993 702.101C220.265 702.748 218.065 703.279 217.106 703.279C215.58 703.279 211.382 704.782 208.541 706.342C207.028 707.174 207.404 707.998 211.046 711.848C212.94 713.852 214.966 716.232 215.55 717.134C216.134 718.038 218.388 720.917 220.56 723.529C222.732 726.142 226.765 731.25 229.521 734.879C233.999 740.776 239.358 747.587 241.602 750.232C242.048 750.759 244.265 753.441 246.527 756.197C254.991 766.502 274.618 787.184 275.943 787.191C276.331 787.194 277.035 787.722 277.509 788.366C279.1 790.53 296.176 803.476 299.347 804.922C299.863 805.157 301.697 806.187 303.418 807.206C305.139 808.226 307.724 809.681 309.157 810.44C310.029 810.899 310.898 811.36 311.767 811.818C313.09 810.673 314.412 809.528 315.733 808.384C320.933 803.88 332.451 794.711 332.907 794.711C333.102 794.711 335.332 793.02 337.862 790.954C340.392 788.887 342.646 787.196 342.872 787.196C343.097 787.196 345.304 785.545 347.777 783.524C350.249 781.505 353.313 779.145 354.588 778.281C357.341 776.412 362.358 772.296 363.758 770.758C364.307 770.155 365.021 769.661 365.347 769.661C365.672 769.661 366.384 769.238 366.93 768.722C367.476 768.206 369.753 766.307 371.992 764.501C374.232 762.695 376.346 760.914 376.689 760.543C377.032 760.17 378.092 759.388 379.036 758.8C379.983 758.213 383.515 755.268 386.885 752.251C390.251 749.235 393.563 746.3 394.242 745.729C395.549 744.631 413.22 727.016 415.154 724.884C418.771 720.899 432.112 703.612 432.112 702.911C432.112 702.452 431.759 701.786 431.331 701.43C430.9 701.074 427.588 698.321 423.971 695.305C420.354 692.294 417.032 689.544 416.589 689.193C416.146 688.845 414.738 687.61 413.458 686.448C411.188 684.384 400.479 675.26 399.234 674.331C398.891 674.073 397.341 672.71 395.79 671.302C394.239 669.895 390.577 666.721 387.649 664.251C384.72 661.778 382.1 659.404 381.825 658.973C381.549 658.542 380.928 658.189 380.447 658.189C379.966 658.189 379.345 657.81 379.069 657.352C378.556 656.493 368.04 647.099 363.18 643.159C358.721 639.544 353.205 633.828 353.205 632.826C353.205 630.453 356.782 632.164 362.977 637.5C364.392 638.717 366.764 640.701 368.252 641.906C371.604 644.622 381.013 652.683 383.681 655.123C384.77 656.12 385.953 656.936 386.311 656.936C386.667 656.936 387.185 657.325 387.461 657.801C387.869 658.502 392.914 662.903 404.577 672.723C405.106 673.169 407.821 675.506 410.609 677.916C413.4 680.325 416.892 683.286 418.372 684.491C419.853 685.696 422.213 687.745 423.613 689.043C425.016 690.34 427.954 692.735 430.141 694.366C432.33 695.994 434.998 698.073 436.073 698.983C436.722 699.534 437.373 700.085 438.022 700.636C437.438 701.756 436.852 702.875 436.268 703.993C435.301 705.839 433.693 708.617 432.696 710.168C431.697 711.718 430.682 713.409 430.442 713.925C430.204 714.441 427.759 717.683 425.013 721.127C419.838 727.622 397.077 750.874 395.898 750.874C395.527 750.874 395.001 751.229 394.725 751.668C394.45 752.104 393.237 753.269 392.032 754.256C390.828 755.243 388.052 757.632 385.865 759.569C383.681 761.503 380.737 763.87 379.327 764.827C377.914 765.784 376.321 766.966 375.785 767.452C371.769 771.107 368.956 773.419 368.531 773.419C368.252 773.419 367.581 773.852 367.035 774.381C366.023 775.36 359.761 780.162 350.727 786.883C347.949 788.95 344.149 791.838 342.281 793.303C340.414 794.766 338.678 795.964 338.425 795.964C338.175 795.964 337.521 796.397 336.975 796.928C335.94 797.933 330.477 802.036 326.584 804.731C325.339 805.593 323.964 806.623 323.523 807.021C323.085 807.422 321.199 808.727 319.332 809.924C317.469 811.122 315.166 812.98 314.217 814.052C312.193 816.339 311.366 816.442 308.601 814.754C307.471 814.065 305.808 813.504 304.904 813.501C303.999 813.499 302.93 813.103 302.529 812.619C302.128 812.139 301.061 811.557 300.154 811.329C299.247 811.101 297.812 810.37 296.965 809.704C296.116 809.035 295.079 808.489 294.663 808.489C294.245 808.489 293.396 807.925 292.772 807.236C292.148 806.547 291.189 805.981 290.64 805.979C290.091 805.976 288.654 805.059 287.449 803.942C284.335 801.059 280.998 798.311 279.287 797.216C274.523 794.173 253.248 772.923 246.116 764.088C243.215 760.493 240.244 756.898 239.854 756.51C238.949 755.611 235.66 751.51 234.844 750.263C234.328 749.471 232.707 747.334 231.241 745.508C229.779 743.684 228.581 741.984 228.581 741.731C228.581 741.48 228.158 740.826 227.639 740.28C225.818 738.359 221.066 732.164 221.066 731.711C221.066 731.46 220.643 730.806 220.124 730.26C218.303 728.339 213.551 722.144 213.551 721.691C213.551 721.44 213.128 720.786 212.609 720.24C210.633 718.153 206.036 712.106 206.036 711.588C206.036 711.29 204.909 709.872 203.531 708.439C200.673 705.463 200.45 704.381 202.419 703.001Z"
     fill="#141516"
     id="path14" />
  <path
     d="M426.476 362.599C433.38 356.895 433.976 356.512 441.506 352.882C444.089 351.639 446.627 350.357 447.143 350.031C447.659 349.711 448.786 349.165 449.648 348.821C450.509 348.478 451.637 347.912 452.153 347.569C452.669 347.223 453.671 346.687 454.377 346.376C455.086 346.068 457.047 344.448 458.743 342.779C459.77 341.765 460.797 340.753 461.822 339.741C461.829 338.175 461.832 336.609 461.839 335.044C461.852 330.843 461.629 329.949 459.73 326.589C458.56 324.523 457.288 322.268 456.905 321.579C456.519 320.891 455.735 319.623 455.164 318.761C453.483 316.226 451.526 309.934 451.526 307.065C451.526 302.536 455.076 294.618 458.761 290.928C463.217 286.464 472.598 279.934 474.55 279.934C475.787 279.934 475.241 281.863 473.771 282.684C468.247 285.773 459.948 293.656 457.062 298.553C455.537 301.149 455.304 302.196 455.296 306.549C455.286 310.79 455.564 312.148 457.1 315.397C458.099 317.509 459.227 319.428 459.605 319.663C459.983 319.896 460.294 320.592 460.294 321.206C460.294 321.82 460.857 322.834 461.546 323.458C462.235 324.082 462.799 325.041 462.801 325.59C462.801 326.141 463.39 327.549 464.104 328.721C465.126 330.4 465.409 331.933 465.434 335.923C465.444 337.614 465.457 339.302 465.467 340.993C464.031 342.426 462.593 343.856 461.158 345.289C457.072 349.362 455.825 350.294 452.153 352.008C451.291 352.411 449.6 353.233 448.395 353.836C447.19 354.443 444.793 355.602 443.072 356.416C439.653 358.035 432.08 362.822 431.331 363.841C431.173 364.054 431.015 364.265 430.86 364.478C429.4 363.851 427.937 363.225 426.476 362.599Z"
     fill="#141516"
     id="path15" />
  <path
     d="M589.301 373.245C582.989 368.759 577.841 363.355 575.952 359.227C574.532 356.128 574.271 354.698 574.271 350.014C574.271 345.572 574.522 344.059 575.521 342.419C576.21 341.289 576.774 339.438 576.774 338.3C576.776 337.163 577.265 335.332 577.861 334.23C579.407 331.377 579.404 320.983 577.859 318.776C577.265 317.925 576.776 316.64 576.776 315.921C576.776 312.852 566.852 300.685 563.472 299.613C562.866 299.42 562.373 299.019 562.373 298.721C562.373 298.423 561.776 297.99 561.05 297.759C559.259 297.191 554.858 293.148 554.858 292.073C554.858 291.026 558.337 290.876 558.968 291.895C559.201 292.276 560.276 292.99 561.353 293.481C564.349 294.849 569.332 298.689 572.621 302.166C576.771 306.552 579.988 312.018 581.634 317.471C583.294 322.982 583.41 327.151 582.032 332.251C581.478 334.302 580.787 336.97 580.499 338.175C580.208 339.38 579.527 341.254 578.986 342.338C578.337 343.636 577.976 346.201 577.926 349.853C577.834 356.529 578.442 357.732 585.594 365.019C588.204 367.679 590.529 370.477 590.762 371.236C590.9 371.697 591.04 372.158 591.18 372.619C590.554 372.827 589.928 373.037 589.301 373.245Z"
     fill="#141516"
     id="path16" />
  <path
     d="M404.558 341.933C413.553 332.283 416.068 328.994 416.511 327.619C416.915 326.364 417.544 324.964 417.904 324.508C419.262 322.804 419.164 313.739 417.709 306.231C415.725 295.998 416.557 287.602 420.266 280.437C420.928 279.162 421.466 277.717 421.466 277.223C421.466 276.732 421.905 275.966 422.441 275.52C422.979 275.074 423.829 273.726 424.332 272.522C425.577 269.541 437.16 258.015 438.911 258.015C441.376 258.015 440.357 260.117 435.254 265.54C429.385 271.775 426.361 275.65 424.988 278.681C424.442 279.886 423.746 281.297 423.44 281.813C420.327 287.063 419.457 298.934 421.491 308.428C422.155 311.527 422.699 315.332 422.699 316.883C422.704 320.362 420.407 327.619 418.242 330.973C416.594 333.523 406.509 343.358 405.655 343.245C405.497 343.225 405.339 343.205 405.184 343.185C404.976 342.767 404.766 342.351 404.558 341.933Z"
     fill="#141516"
     id="path17" />
  <path
     d="M589.842 254.258C590.434 254.258 594.614 258.676 598.069 262.952C599.274 264.445 601.952 267.679 604.018 270.139C606.085 272.599 608.059 275.062 608.402 275.613C608.745 276.164 609.867 277.855 610.894 279.37C619.614 292.246 621.583 301.492 618.487 315.004C617.893 317.586 617.004 320.324 616.508 321.088C616.01 321.85 615.604 322.872 615.604 323.355C615.604 323.841 614.98 325.613 614.219 327.293C613.076 329.808 612.828 331.507 612.808 336.923C612.786 343.27 612.851 343.586 614.664 346.003C615.696 347.381 617.417 349.352 618.482 350.387C622.224 354.009 622.498 356.206 619.106 355.354C617.457 354.944 611.846 349.382 611.846 348.165C611.846 347.774 611.283 346.737 610.594 345.86C609.519 344.495 609.341 343.32 609.341 337.616C609.341 331.73 609.564 330.349 611.29 325.645C612.36 322.722 613.615 319.059 614.076 317.509C614.537 315.958 615.351 313.308 615.887 311.617C617.332 307.035 617.124 300.953 615.338 295.512C612.412 286.615 609.87 282.669 594.001 262.399C589.777 257.006 588.374 254.258 589.842 254.258Z"
     fill="#141516"
     id="path18" />
  <path
     d="M441.331 291.519C441.501 290.831 442.736 288.614 444.077 286.595C445.419 284.576 446.516 282.8 446.516 282.652C446.516 282.296 452.636 276.176 452.989 276.176C453.14 276.176 454.916 275.089 456.935 273.757C460.564 271.367 466.556 268.924 466.556 269.834C466.556 270.56 464.081 273.045 463.358 273.045C462.275 273.045 457.674 276.507 453.944 280.129C450.532 283.441 445.289 290.006 445.241 291.023C445.191 292.123 442.225 295.094 441.577 294.693C440.855 294.247 440.81 293.654 441.331 291.519Z"
     fill="#141516"
     id="path19" />
  <path
     d="M577.007 265.53C577.846 265.53 589.975 277.499 594.782 283.065C598.284 287.126 600.689 291.575 600.456 293.579C600.218 295.638 598.217 295.916 597.255 294.024C596.907 293.336 596.375 292.349 596.08 291.833C595.782 291.316 595.193 290.177 594.77 289.3C594.344 288.423 593.575 287.196 593.059 286.572C590.531 283.526 585.404 277.865 581.02 273.278C576.408 268.458 574.893 265.53 577.007 265.53Z"
     fill="#141516"
     id="path20" />
  <path
     d="M431.459 279.621C432.493 277.339 440.289 268.894 444.177 265.843C452.318 259.458 454.262 258.083 454.735 258.376C455.885 259.087 455.106 260.302 451.752 263.025C447.208 266.717 436.892 277.454 434.978 280.482C433.037 283.561 431.531 285.046 430.81 284.598C429.963 284.077 430.176 282.449 431.459 279.621Z"
     fill="#141516"
     id="path21" />
  <path
     d="M562.092 280.422C562.791 279.723 570.218 282.607 576.18 285.891C579.078 287.489 587.23 294.819 588.635 297.091C589.945 299.21 589.943 300.6 588.633 300.6C588.304 300.6 586.403 299.12 584.404 297.314C579.088 292.501 577.358 291.081 574.574 289.247C570.784 286.745 564.582 283.255 563.084 282.78C561.824 282.379 561.326 281.191 562.092 280.422Z"
     fill="#141516"
     id="path22" />
  <path
     d="M650.519 664.985C652.778 662.172 662.64 652.457 667.325 648.429C669.361 646.678 673.141 643.429 675.724 641.207C684.131 633.978 693.166 626.876 693.955 626.876C694.379 626.876 695.243 626.408 695.874 625.837C697.112 624.714 698.286 624.955 707.562 628.209C709.401 628.853 711.455 629.381 712.127 629.381C712.798 629.381 714.454 629.945 715.804 630.634C717.154 631.323 718.985 631.886 719.875 631.886C720.764 631.886 722.595 632.45 723.945 633.139C725.295 633.828 727.192 634.391 728.156 634.391C729.123 634.391 730.964 634.955 732.249 635.644C733.534 636.333 735.26 636.896 736.087 636.896C736.911 636.896 738.815 637.452 740.315 638.134C741.818 638.818 743.757 639.381 744.629 639.386C745.498 639.396 746.838 639.84 747.607 640.378C748.374 640.917 750.34 641.598 751.974 641.894C753.607 642.189 756.355 642.906 758.076 643.484C764.316 645.591 765.02 645.807 768.479 646.661C770.413 647.139 772.808 647.951 773.802 648.469C774.797 648.988 776.222 649.416 776.968 649.416C777.715 649.419 779.639 649.985 781.247 650.674C782.855 651.363 784.819 651.926 785.613 651.926C786.41 651.926 788.289 652.485 789.789 653.166C791.292 653.848 793.168 654.409 793.96 654.419C794.752 654.426 796.234 654.865 797.256 655.391C798.276 655.919 800.305 656.603 801.766 656.909C803.226 657.217 805.756 657.911 807.392 658.454C809.03 658.998 811.705 659.887 813.344 660.436C814.979 660.982 817.444 661.651 818.822 661.919C820.2 662.189 822.374 662.868 823.657 663.429C824.937 663.993 826.635 664.451 827.429 664.451C828.226 664.451 829.503 664.89 830.272 665.428C831.039 665.967 833.005 666.648 834.639 666.944C836.272 667.239 838.877 667.901 840.428 668.414C848.316 671.032 851.487 671.966 852.484 671.966C853.09 671.966 854.636 672.53 855.921 673.219C857.206 673.908 859.012 674.471 859.934 674.471C861.547 674.471 866.104 678.101 866.104 679.386C866.104 679.689 865.54 680.656 864.851 681.53C864.163 682.407 863.599 683.509 863.599 683.98C863.599 684.454 863.138 685.496 862.574 686.3C862.013 687.104 860.713 689.351 859.686 691.292C858.659 693.234 857.429 695.27 856.951 695.814C856.475 696.357 856.084 697.034 856.084 697.319C856.084 698.063 840.623 721.124 839.496 722.061C838.975 722.492 838.549 723.113 838.549 723.436C838.549 723.935 837.502 725.491 834.629 729.268C833.634 730.573 830.628 734.704 828.216 738.078C826.838 740.005 824.09 743.667 822.111 746.219C820.13 748.767 818.509 751.019 818.509 751.219C818.509 751.558 815.48 755.811 814.741 756.51C814.559 756.683 813.935 757.527 813.354 758.389C812.772 759.25 811.164 761.505 809.781 763.399C808.399 765.293 805.648 769.238 803.674 772.166C801.698 775.095 799.929 777.63 799.744 777.803C799.559 777.975 798.587 779.383 797.587 780.934C796.585 782.484 795.247 784.516 794.614 785.448C793.977 786.382 793.459 787.394 793.459 787.7C793.459 788.005 792.895 788.764 792.206 789.388C791.518 790.012 790.954 790.778 790.954 791.092C790.954 791.407 790.215 792.632 789.313 793.814C787.319 796.427 785.117 796.608 778.276 794.711C775.791 794.022 772.958 793.459 771.981 793.459C771.004 793.459 769.589 793.126 768.837 792.717C768.086 792.309 765.779 791.495 763.712 790.904C759.003 789.559 756.275 788.594 752.998 787.109C751.583 786.467 750.07 785.944 749.639 785.944C749.206 785.944 747.828 785.43 746.575 784.799C745.323 784.168 743.031 783.081 741.48 782.379C739.93 781.68 737.958 780.789 737.096 780.398C736.235 780.009 735.107 779.436 734.591 779.128C734.075 778.817 732.948 778.253 732.086 777.875C731.225 777.494 730.097 776.931 729.581 776.623C729.065 776.312 727.938 775.748 727.076 775.37C726.215 774.989 725.087 774.431 724.571 774.123C722.79 773.068 717.858 770.914 717.222 770.914C716.871 770.914 716.255 770.518 715.854 770.034C715.453 769.554 714.364 768.977 713.429 768.757C712.497 768.537 710.606 767.83 709.228 767.186C707.851 766.543 705.173 765.398 703.279 764.641C701.385 763.885 698.63 762.732 697.157 762.081C695.684 761.427 694.061 760.894 693.555 760.894C693.044 760.894 691.576 760.33 690.29 759.641C689.005 758.952 687.442 758.389 686.819 758.389C686.192 758.389 684.912 757.99 683.968 757.505C683.028 757.016 681.142 756.407 679.779 756.152C678.417 755.896 676.172 755.175 674.79 754.546C673.409 753.92 671.525 753.401 670.601 753.391C669.679 753.384 668.552 753.023 668.096 752.587C667.643 752.151 666.493 751.302 665.549 750.693C661.465 748.083 665.09 746.159 670.06 748.296C671.754 749.025 673.72 749.621 674.434 749.621C675.145 749.621 676.781 750.185 678.066 750.874C679.351 751.563 681.12 752.126 681.994 752.126C682.871 752.126 684.176 752.54 684.897 753.043C685.619 753.549 687.302 754.24 688.637 754.579C691.561 755.323 697.866 757.494 700.461 758.654C707.179 761.655 708.434 762.146 709.401 762.159C709.995 762.169 711.185 762.725 712.046 763.399C712.908 764.073 714.213 764.629 714.945 764.639C715.679 764.646 716.613 765.055 717.024 765.551C717.435 766.047 718.574 766.625 719.561 766.843C720.548 767.061 721.676 767.625 722.066 768.096C722.457 768.567 723.584 769.13 724.571 769.348C725.558 769.566 726.676 770.12 727.059 770.578C727.442 771.039 728.517 771.608 729.451 771.841C730.383 772.074 731.57 772.632 732.086 773.081C732.602 773.529 733.73 774.105 734.591 774.358C735.453 774.611 736.58 775.175 737.096 775.611C737.612 776.047 738.74 776.598 739.601 776.838C740.463 777.076 742.435 777.855 743.985 778.567C745.536 779.28 747.931 780.355 749.308 780.956C750.686 781.558 753.113 782.645 754.699 783.371C756.287 784.098 758.063 784.691 758.647 784.691C759.231 784.691 760.749 785.225 762.021 785.876C763.296 786.527 765.182 787.347 766.217 787.695C772.334 789.764 773.867 790.27 779.934 792.206C781.164 792.6 782.397 792.993 783.629 793.386C784.223 792.75 784.819 792.114 785.413 791.477C786.395 790.428 787.196 789.128 787.196 788.589C787.196 788.05 787.665 787.091 788.236 786.457C788.81 785.826 789.584 784.759 789.959 784.085C790.333 783.414 792.537 780.102 794.854 776.73C797.169 773.359 799.914 769.366 800.951 767.858C801.988 766.347 803.827 763.905 805.037 762.429C806.247 760.951 807.236 759.561 807.236 759.338C807.236 758.997 808.459 757.239 811.157 753.692C811.42 753.349 812.474 751.938 813.499 750.561C814.523 749.183 815.583 747.773 815.849 747.429C816.117 747.086 817.6 745.025 819.145 742.85C820.688 740.676 823.151 737.384 824.616 735.533C826.079 733.684 827.276 731.991 827.276 731.773C827.276 731.417 829.749 727.92 831.347 726.017C831.69 725.608 832.677 724.258 833.539 723.018C834.401 721.778 836.089 719.436 837.294 717.813C839.919 714.276 854.831 691.986 854.831 691.6C854.831 691.453 855.357 690.566 855.999 689.632C859.391 684.704 861.72 680.726 861.72 679.857C861.72 679.288 860.999 678.74 859.997 678.544C859.052 678.359 857.149 677.911 855.771 677.545C854.393 677.179 851.715 676.508 849.821 676.054C847.928 675.598 845.33 674.774 844.047 674.223C842.767 673.67 840.994 673.219 840.102 673.219C839.213 673.219 837.725 672.831 836.795 672.357C835.866 671.881 833.689 671.192 831.961 670.827C830.232 670.461 827.975 669.724 826.951 669.191C825.924 668.655 824.298 668.214 823.339 668.214C822.377 668.211 820.485 667.645 819.135 666.956C817.785 666.267 815.894 665.701 814.932 665.699C813.972 665.699 812.342 665.253 811.307 664.714C810.272 664.173 808.301 663.492 806.923 663.199C805.546 662.906 803.008 662.194 801.287 661.616C799.566 661.037 797.312 660.278 796.277 659.932C795.242 659.587 793.271 659.02 791.893 658.677C790.516 658.334 788.183 657.517 786.71 656.869C785.238 656.217 783.264 655.674 782.327 655.661C781.387 655.651 779.494 655.098 778.116 654.431C776.738 653.765 775.007 653.211 774.271 653.201C773.534 653.189 771.7 652.62 770.2 651.939C768.697 651.257 766.836 650.696 766.059 650.686C765.283 650.679 763.594 650.11 762.309 649.421C761.024 648.732 759.263 648.164 758.399 648.156C757.532 648.146 755.596 647.585 754.093 646.904C752.592 646.222 750.759 645.654 750.022 645.641C749.286 645.631 747.555 645.078 746.177 644.411C744.799 643.745 742.968 643.189 742.106 643.176C741.245 643.164 739.697 642.69 738.662 642.129C737.627 641.566 735.656 640.887 734.278 640.621C731.721 640.128 727.815 638.85 722.577 636.794C720.964 636.162 719.05 635.644 718.324 635.644C717.6 635.644 715.902 635.08 714.551 634.391C713.201 633.702 711.538 633.139 710.857 633.139C710.173 633.139 707.222 632.012 704.293 630.634C701.365 629.256 698.83 628.129 698.657 628.129C698.484 628.129 696.423 629.815 694.078 631.876C691.733 633.935 689.476 635.626 689.063 635.634C688.65 635.639 688.086 636.022 687.811 636.483C687.535 636.944 686.851 637.578 686.29 637.891C685.729 638.206 683.492 640.012 681.318 641.906C679.146 643.8 676.561 646.055 675.571 646.916C674.584 647.778 672.735 649.371 671.463 650.458C666.503 654.694 656.531 663.78 654.745 665.686C650.168 670.576 646.511 669.972 650.519 664.985Z"
     fill="#141516"
     id="path23" />
  <path
     d="M746.398 728.329C746.979 727.124 748.296 724.894 749.321 723.374C752.58 718.549 753.319 717.409 754.313 715.648C754.849 714.704 756.831 711.663 758.717 708.892C760.603 706.122 762.164 703.657 762.189 703.412C762.212 703.166 763.176 701.698 764.333 700.148C765.491 698.597 767.908 695.005 769.707 692.162C772.667 687.485 774.679 685.706 774.666 687.778C774.664 688.211 773.371 690.816 771.796 693.572C770.22 696.327 768.532 699.426 768.046 700.461C767.56 701.495 766.638 703.184 765.994 704.218C764.459 706.688 762.768 709.521 759.639 714.864C758.229 717.274 756.533 720.092 755.871 721.127C755.208 722.161 754.025 724.1 753.241 725.438C752.455 726.778 751.53 728.346 751.187 728.925C750.012 730.899 747.019 733.261 746.127 732.92C744.987 732.482 745.07 731.079 746.398 728.329Z"
     fill="#141516"
     id="path24" />
  <path
     d="M687.099 699.366C687.442 698.419 687.941 697.643 688.201 697.643C688.462 697.643 689 696.926 689.399 696.052C689.797 695.18 690.408 694.123 690.759 693.705C691.601 692.7 694.061 689.371 698.269 683.544C700.163 680.919 703.657 676.465 706.037 673.647C708.414 670.829 711.363 667.184 712.588 665.548C714.814 662.578 716.43 661.726 716.43 663.522C716.43 664.446 712.016 670.914 707.848 676.102C706.713 677.515 705.784 678.885 705.784 679.146C705.784 679.406 704.727 680.929 703.434 682.527C702.144 684.128 700.804 685.912 700.461 686.49C699.173 688.66 691.38 699.902 689.942 701.661C688.94 702.888 688.106 703.359 687.41 703.091C686.245 702.645 686.182 701.876 687.099 699.366Z"
     fill="#141516"
     id="path25" />
  <path
     d="M773.299 733.96C775.603 730.806 779.11 726.142 781.089 723.597C783.071 721.049 784.691 718.777 784.691 718.547C784.691 718.314 785.749 716.838 787.041 715.268C788.331 713.695 789.671 711.904 790.015 711.285C790.358 710.669 792.717 706.911 795.253 702.936C799.509 696.265 801.472 694.429 801.164 697.41C800.949 699.494 792.124 714.474 786.452 722.379C785.466 723.757 783.945 725.962 783.073 727.277C782.202 728.594 780.025 731.292 778.236 733.271C776.448 735.253 774.093 737.908 773.003 739.175C771.913 740.443 770.746 741.48 770.408 741.48C768.609 741.48 769.506 739.148 773.299 733.96Z"
     fill="#141516"
     id="path26" />
  <path
     d="M714.281 720.814C715.463 719.263 716.628 717.572 716.871 717.056C717.112 716.54 718.169 714.894 719.218 713.401C720.268 711.906 721.415 710.215 721.766 709.644C722.117 709.07 723.244 707.364 724.271 705.851C725.298 704.338 726.42 702.647 726.763 702.094C727.106 701.54 730.989 695.651 735.388 689.008C742.745 677.893 744.664 675.568 745.656 676.558C746.087 676.989 745.774 677.715 743.72 681.047C742.868 682.425 741.157 685.243 739.917 687.309C735.704 694.326 734.985 695.446 726.042 708.915C716.751 722.91 713.737 726.793 712.673 726.137C711.555 725.445 712.084 723.692 714.281 720.814Z"
     fill="#141516"
     id="path27" />
  <path
     d="M197.309 856.372C197.675 856.146 198.243 855.355 198.571 854.613C198.902 853.872 200.002 851.998 201.016 850.448C202.028 848.897 203.291 846.785 203.819 845.751C204.348 844.716 205.275 843.12 205.878 842.204C207.96 839.042 211.046 833.556 211.046 833.02C211.046 832.722 211.61 831.971 212.299 831.347C212.988 830.723 213.551 829.899 213.551 829.513C213.551 829.127 214.556 827.289 215.783 825.425C217.011 823.561 218.419 821.172 218.912 820.117C219.408 819.06 220.367 817.351 221.049 816.317C221.728 815.282 222.857 813.451 223.561 812.246C231.517 798.584 245.292 779.681 247.291 779.681C248.626 779.681 247.988 782.059 245.836 785.092C243.213 788.792 235.397 800.242 234.531 801.66C234.185 802.221 233.263 803.777 232.477 805.117C231.693 806.455 230.503 808.394 229.834 809.428C228.606 811.322 226.7 814.521 224.651 818.121C224.04 819.195 222.983 820.919 222.301 821.953C221.62 822.988 220.63 824.676 220.102 825.711C219.573 826.745 218.316 828.857 217.309 830.408C216.302 831.958 215.044 834.07 214.516 835.104C213.987 836.139 212.988 837.827 212.299 838.862C211.61 839.896 210.6 841.698 210.059 842.867C209.518 844.037 208.672 845.395 208.181 845.886C207.69 846.377 207.289 847.138 207.289 847.577C207.289 848.015 206.725 848.884 206.036 849.508C205.347 850.132 204.784 850.891 204.784 851.197C204.784 851.502 204.193 852.549 203.471 853.526C202.75 854.503 202.259 855.831 202.382 856.477C202.655 857.92 204.794 858.193 225.763 859.471C234.03 859.974 241.64 860.675 242.672 861.029C243.704 861.382 247.324 861.968 250.715 862.331C254.105 862.694 257.439 863.291 258.125 863.659C258.809 864.025 262.236 864.611 265.735 864.962C269.237 865.312 272.619 865.876 273.25 866.214C273.879 866.55 281.066 867.093 289.22 867.421C297.374 867.747 304.748 868.281 305.61 868.604C306.472 868.929 313.759 869.493 321.805 869.856C329.851 870.219 336.9 870.766 337.471 871.071C338.042 871.379 344.405 871.953 351.609 872.349C358.811 872.745 365.161 873.313 365.718 873.614C366.276 873.909 371.963 874.45 378.36 874.811C384.756 875.169 390.712 875.743 391.602 876.079C392.491 876.417 398.623 877.008 405.234 877.396C411.845 877.782 417.937 878.358 418.773 878.676C419.61 878.995 421.273 879.255 422.466 879.255C424.873 879.255 425.853 880.56 424.59 882.081C423.696 883.16 418.673 883.348 416.173 882.399C415.284 882.061 407.819 881.497 399.585 881.149C391.351 880.798 383.904 880.242 383.037 879.914C382.17 879.586 374.751 879.02 366.549 878.661C358.35 878.303 350.67 877.729 349.488 877.389C348.303 877.048 340.465 876.469 332.073 876.104C323.679 875.738 316.159 875.192 315.362 874.889C314.568 874.586 309.157 874.145 303.343 873.907C297.253 873.659 290.287 872.975 286.91 872.294C283.686 871.645 279.581 871.114 277.787 871.114C275.993 871.114 273.11 870.693 271.379 870.179C269.648 869.666 265.723 868.982 262.654 868.664C259.586 868.343 256.282 867.777 255.31 867.404C254.338 867.031 250.297 866.442 246.329 866.096C242.364 865.748 238.564 865.167 237.887 864.804C237.211 864.443 232.234 863.874 226.825 863.541C221.42 863.208 216.149 862.682 215.117 862.371C214.085 862.061 210.56 861.612 207.289 861.374C202.965 861.061 200.698 860.578 198.995 859.608C196.65 858.276 196.059 857.143 197.309 856.372Z"
     fill="#141516"
     id="path28" />
  <path
     d="M377.273 770.53C378.383 770.105 380.968 770.395 385.144 771.415C394.177 773.622 403.34 774.666 430.234 776.557C438.558 777.141 444.861 777.83 452.087 778.942C454.076 779.25 455.204 779.852 456.141 781.114C457.408 782.812 457.413 782.933 456.361 785.894C455.77 787.565 455.284 789.386 455.284 789.944C455.284 790.503 454.72 792.011 454.031 793.296C453.342 794.581 452.779 796.144 452.779 796.77C452.779 797.397 452.245 798.95 451.594 800.222C450.943 801.497 450.098 803.456 449.715 804.576C447.964 809.701 447.536 810.848 446.439 813.358C445.792 814.831 445.264 816.605 445.264 817.299C445.264 817.99 444.7 819.664 444.011 821.014C443.322 822.364 442.759 824.055 442.759 824.771C442.759 825.488 442.195 827.179 441.506 828.529C440.817 829.879 440.254 831.527 440.254 832.194C440.254 832.857 439.698 834.631 439.016 836.131C438.333 837.634 437.769 839.488 437.764 840.255C437.754 841.019 437.215 842.852 436.566 844.325C435.915 845.798 435.048 848.271 434.64 849.821C432.887 856.492 431.95 859.568 431.491 860.154C431.223 860.498 430.805 861.768 430.562 862.972C429.5 868.241 426.87 875.578 425.853 876.124C423.591 877.334 423.44 875.645 425.266 869.548C425.988 867.138 427.088 863.333 427.709 861.094C431.972 845.748 433.671 840.079 434.936 836.981C435.357 835.946 435.903 834.115 436.146 832.91C436.391 831.705 437.1 829.31 437.721 827.589C439.738 822.003 440.382 820.122 441.248 817.256C442.869 811.886 444.67 806.916 445.592 805.262C446.101 804.345 446.516 803.078 446.519 802.444C446.519 801.808 447.083 800.365 447.771 799.238C448.458 798.108 449.021 796.628 449.021 795.946C449.021 795.265 449.585 793.654 450.274 792.369C450.963 791.084 451.526 789.666 451.526 789.215C451.526 788.767 452.087 787.299 452.774 785.956C454.112 783.329 453.946 781.848 452.265 781.41C451.687 781.257 444.167 781.061 435.557 780.974C426.947 780.886 417.787 780.543 415.204 780.215C412.621 779.887 407.125 779.323 402.992 778.965C398.859 778.604 393.3 777.772 390.64 777.116C387.98 776.46 385.021 775.921 384.064 775.919C381.699 775.909 376.755 773.351 376.494 772.003C376.379 771.402 376.73 770.738 377.273 770.53Z"
     fill="#141516"
     id="path29" />
  <path
     d="M373.355 844.185C373.696 842.98 374.317 841.57 374.733 841.054C375.149 840.538 376.554 838 377.854 835.417C379.154 832.835 380.89 829.593 381.712 828.216C382.533 826.838 383.383 825.287 383.598 824.771C386.426 818.028 398.646 796.878 400.041 796.312C402.088 795.48 401.176 798.556 396.672 807.687C393.989 813.123 391.604 817.71 391.371 817.882C391.138 818.055 390.735 818.899 390.477 819.761C390.216 820.623 389.645 821.75 389.202 822.266C388.761 822.782 387.954 824.193 387.411 825.397C386.867 826.602 386.163 828.013 385.85 828.529C385.534 829.045 384.968 830.172 384.59 831.034C384.209 831.895 383.646 833.023 383.338 833.539C383.027 834.055 382.463 835.182 382.085 836.044C381.356 837.699 380.58 839.04 378.748 841.81C378.132 842.745 377.619 843.872 377.606 844.315C377.564 845.833 374.673 848.769 373.618 848.366C372.496 847.935 372.458 847.334 373.355 844.185Z"
     fill="#141516"
     id="path30" />
  <path
     d="M348.3 842.306C348.884 840.921 354.342 829.734 355.632 827.276C355.903 826.76 356.634 825.35 357.253 824.145C358.638 821.455 362.341 814.406 364.49 810.368C364.949 809.506 366.296 806.971 367.486 804.731C370.069 799.877 371.725 797.95 372.589 798.814C372.982 799.21 372.779 800.3 372.008 801.921C371.351 803.293 367.298 811.605 363.005 820.388C358.709 829.17 355.016 836.78 354.801 837.296C353.19 841.149 350.061 845.751 349.054 845.751C347.677 845.751 347.394 844.453 348.3 842.306Z"
     fill="#141516"
     id="path31" />
  <path
     d="M327.454 836.662C328.386 834.075 329.36 831.617 329.618 831.202C329.876 830.783 330.613 828.955 331.254 827.136C333.581 820.553 334.247 819.022 336.66 814.734C338.987 810.598 340.68 809.175 340.68 811.359C340.68 812.667 337.584 821.61 336.579 823.206C336.144 823.894 334.478 827.559 332.88 831.347C328.072 842.722 327.331 844.223 326.632 843.992C325.47 843.611 325.705 841.512 327.454 836.662Z"
     fill="#141516"
     id="path32" />
  <path
     d="M296.234 839.801C297.018 835.671 299.448 828.599 300.337 827.86C300.828 827.454 301.226 826.765 301.226 826.327C301.226 825.41 302.945 824.598 303.786 825.12C304.676 825.668 304.49 826.452 302.541 830.382C301.542 832.394 300.259 835.691 299.688 837.705C299.117 839.719 298.506 841.86 298.33 842.462C297.962 843.727 296.477 843.932 296.086 842.777C295.938 842.344 296.006 841.006 296.234 839.801Z"
     fill="#141516"
     id="path33" />
  <path
     d="M218.521 206.976C219.944 193.584 226.224 180.337 235.47 171.217C242.321 164.461 247.639 160.946 256.449 157.354C265.029 153.855 276.176 151.983 276.176 154.04C276.176 154.661 270.089 157.189 268.594 157.189C267.96 157.189 266.236 157.722 264.763 158.376C263.29 159.027 260.535 160.187 258.641 160.951C256.747 161.715 254.773 162.58 254.257 162.87C247.203 166.851 244.693 168.712 239.693 173.679C234.107 179.23 229.834 184.629 229.834 186.134C229.834 186.522 229.433 187.281 228.942 187.825C227.877 189.007 226.399 192.857 224.716 198.834C222.572 206.435 222.374 208.005 222.346 217.592C222.316 227.404 223.423 234.383 226.124 241.432C226.788 243.16 227.329 244.929 227.329 245.365C227.329 246.382 234.11 259.443 236.334 262.712C243.621 273.416 255.036 283.135 266.156 288.108C267.018 288.491 268.568 289.25 269.601 289.788C270.633 290.33 272.607 290.986 273.984 291.246C275.362 291.509 277.617 292.158 278.994 292.689C280.923 293.433 284.167 293.659 293.085 293.671C303.308 293.681 304.991 293.538 307.401 292.446C308.901 291.762 310.795 291.206 311.609 291.206C312.935 291.206 316.892 289.693 320.327 287.875C321.016 287.511 322.707 286.667 324.084 286.001C326.334 284.914 330.88 281.848 334.012 279.31C339.305 275.019 348.821 264.453 348.821 262.865C348.821 262.359 349.325 261.269 349.938 260.447C351.592 258.235 354.675 250.623 355.74 246.116C358.383 234.944 358.528 233.737 358.478 223.258C358.435 214.926 358.197 212.016 357.381 209.871C356.807 208.363 356.331 206.109 356.321 204.861C356.316 203.614 355.752 201.364 355.069 199.861C354.387 198.361 353.831 196.725 353.831 196.229C353.831 195.731 353.295 194.283 352.639 193.008C351.982 191.735 350.775 189.283 349.956 187.562C347.048 181.452 342.571 175.478 336.885 170.127C333.716 167.144 330.783 164.704 330.362 164.704C329.943 164.704 329.092 164.14 328.468 163.451C327.844 162.762 326.975 162.199 326.537 162.199C326.098 162.199 325.367 161.828 324.911 161.375C323.796 160.265 317.211 157.189 315.951 157.189C315.394 157.189 314.097 156.75 313.062 156.217C312.025 155.681 307.882 154.857 303.854 154.383C299.826 153.907 296.038 153.329 295.437 153.098C294.836 152.865 291.948 153.03 289.014 153.466C286.083 153.902 283.491 154.065 283.253 153.827C281.417 151.991 294.443 148.451 300.046 149.265C311.637 150.946 319.287 152.863 321.579 154.664C321.922 154.934 322.904 155.373 323.759 155.636C324.613 155.896 326.023 156.595 326.89 157.184C327.759 157.775 330.439 159.563 332.852 161.159C336.634 163.659 347.569 173.907 347.569 174.949C347.569 175.147 348.633 176.941 349.936 178.932C353.182 183.902 353.733 184.819 354.548 186.623C357.867 193.957 359.357 198.246 360.156 202.755C360.477 204.568 361.158 207.657 361.669 209.618C362.962 214.578 362.977 235.555 361.692 239.363C361.196 240.838 360.514 243.737 360.181 245.803C359.846 247.87 359.129 250.407 358.586 251.439C358.042 252.471 357.594 253.661 357.591 254.082C357.586 255.164 352.509 265.492 351.191 267.096C350.91 267.441 350.049 268.619 349.28 269.716C346.236 274.057 341.426 279.212 337.671 282.158C335.502 283.864 333.255 285.75 332.679 286.352C332.105 286.955 331.178 287.449 330.617 287.449C330.059 287.449 329.092 288.012 328.468 288.701C327.844 289.39 326.93 289.954 326.434 289.954C325.938 289.954 324.818 290.517 323.941 291.206C323.067 291.895 321.755 292.461 321.026 292.464C320.297 292.466 318.854 293.027 317.822 293.711C316.79 294.395 315.369 294.956 314.668 294.959C313.969 294.961 311.712 295.57 309.658 296.309C306.294 297.516 304.648 297.652 293.085 297.644C281.577 297.637 279.861 297.496 276.512 296.299C274.458 295.565 272.201 294.961 271.502 294.959C270.8 294.956 269.38 294.395 268.348 293.711C267.316 293.027 266.021 292.466 265.475 292.464C264.926 292.461 262.812 291.602 260.778 290.555C255.775 287.98 255.031 287.509 251.64 284.791C250.029 283.496 248.453 282.439 248.14 282.439C247.441 282.439 238.944 274.05 236.55 270.996C233.889 267.604 229.25 260.555 228.248 258.388C227.757 257.321 227.116 256.026 226.823 255.51C224.909 252.131 223.571 249.172 223.571 248.316C223.571 247.767 223.048 246.274 222.406 244.994C221.765 243.716 221.049 241.404 220.811 239.854C220.573 238.303 219.992 235.891 219.518 234.496C218.491 231.462 217.837 213.411 218.521 206.976Z"
     fill="#141516"
     id="path34" />
  <path
     d="M288.037 176.603C289.613 176.603 289.801 178.206 290.234 195.23C290.42 202.549 290.831 209.736 291.144 211.199C291.457 212.667 291.908 216.62 292.146 219.987C292.444 224.218 292.877 226.407 293.548 227.078C294.37 227.897 295.846 227.993 303.04 227.687C328.543 226.605 334.062 226.59 335.357 227.602C336.514 228.509 336.532 228.644 335.565 229.395C334.751 230.032 329.728 230.202 312.887 230.179C293.634 230.149 291.141 230.034 290.219 229.112C289.378 228.276 289.072 225.946 288.616 216.9C288.305 210.753 287.774 204.704 287.436 203.459C287.101 202.214 286.823 195.661 286.823 188.9C286.823 177.151 286.878 176.603 288.037 176.603Z"
     fill="#141516"
     id="path35" />
  <path
     d="M229.613 226.505C229.851 226.269 232.251 226.076 234.949 226.076C238.864 226.076 239.854 226.264 239.854 227.003C239.854 228.238 237.359 228.802 233.521 228.433C230.417 228.135 228.787 227.331 229.613 226.505Z"
     fill="#141516"
     id="path36" />
  <path
     d="M292.09 276.802C293.238 276.802 294.533 280.778 294.237 283.388C294.079 284.768 293.696 285.257 292.772 285.257C291.662 285.257 291.499 284.778 291.334 281.031C291.184 277.602 291.326 276.802 292.09 276.802Z"
     fill="#0A0F12"
     id="path37" />
  <path
     d="M346.161 229.002C346.419 228.852 347.757 228.549 349.134 228.333C351.722 227.93 353.651 228.604 352.985 229.681C352.501 230.467 347.975 231.201 346.679 230.705C345.63 230.305 345.377 229.465 346.161 229.002Z"
     fill="#141516"
     id="path38" />
  <path
     d="M286.847 158.737C287.915 158.081 289.327 160.102 289.327 162.281C289.327 164.165 288.31 165.19 287.371 164.25C286.351 163.231 285.976 159.278 286.847 158.737Z"
     fill="#141516"
     id="path39" />
  <path
     d="M513.525 430.234C515.191 422.982 515.153 420.479 513.37 419.355C512.593 418.866 510.068 418.275 507.756 418.039C501.358 417.393 495.314 413.596 490.777 407.376C489.392 405.477 486.759 398.41 485.995 394.538C484.342 386.158 484.001 381.376 484.667 375.903C485.036 372.889 485.639 367.614 486.01 364.177C486.378 360.74 486.952 357.601 487.283 357.203C488.067 356.259 489.833 346.995 489.372 346.249C489.176 345.931 488.119 345.259 487.025 344.753C485.001 343.824 484.465 343.511 480.041 340.695C474.873 337.406 469.061 331.582 469.061 329.691C469.061 329.297 468.498 328.466 467.809 327.842C467.12 327.218 466.556 326.151 466.556 325.47C466.556 324.788 465.97 323.285 465.256 322.128C464.071 320.214 463.976 319.262 464.184 311.72C464.42 303.165 464.565 302.587 468.114 296.204C469.705 293.341 476.822 287.108 480.647 285.227C484.297 283.431 484.662 283.381 493.485 283.411C505.517 283.456 505.036 283.25 525.424 297.123C530.466 300.555 536.042 303.451 538.575 303.947C539.437 304.117 541.268 304.688 542.646 305.219C544.023 305.748 546.198 306.194 547.475 306.209C548.755 306.224 551.23 306.8 552.979 307.489C554.727 308.178 556.681 308.741 557.322 308.741C560.454 308.741 569.524 316.139 570.321 319.345C570.541 320.229 571.233 322.08 571.856 323.458C573.397 326.86 573.54 340.319 572.052 341.963C571.521 342.549 570.915 344.122 570.704 345.455C570.494 346.79 569.802 348.553 569.166 349.375C568.53 350.197 568.009 351.379 568.009 352C568.009 352.621 567.776 353.275 567.49 353.451C567.207 353.626 566.12 355.545 565.075 357.714C560.719 366.767 560.451 367.927 562.059 370.74C562.643 371.76 562.964 374.222 562.976 377.797C562.996 382.524 562.791 383.616 561.513 385.625C560.699 386.912 559.499 388.408 558.853 388.954C556.756 390.722 552.363 392.659 550.446 392.659C548.873 392.659 548.212 393.212 546.24 396.178C544.953 398.117 543.557 400.299 543.142 401.033C542.042 402.977 532.906 411.699 530.729 412.884C527.423 414.683 523.302 416.594 520.414 417.666C519.474 418.014 518.535 418.365 517.596 418.713C517.666 420.169 517.738 421.624 517.809 423.079C517.954 426.091 517.713 428.175 517.027 429.78C516.694 430.559 516.361 431.336 516.03 432.113C515.196 431.486 514.359 430.86 513.525 430.234ZM484.229 329.408C483.638 328.546 482.238 326.963 481.115 325.888C479.996 324.816 479.081 323.711 479.081 323.433C479.081 323.158 478.625 322.429 478.069 321.812C475.905 319.42 474.497 309.553 475.619 304.636C476.158 302.278 475.086 301.201 472.658 301.67C470.482 302.086 468.435 306.362 468.435 310.487C468.435 316.782 472.057 325.319 476.894 330.437C479.893 333.606 480.341 333.861 482.588 333.679C485.434 333.446 485.995 331.978 484.229 329.408ZM485.664 288.083C484.547 287.153 483.946 287.364 480.489 289.894C477.699 291.935 477 294.122 478.688 295.525C479.575 296.261 481.586 295.856 481.586 294.939C481.586 294.653 482.22 294.23 482.994 293.992C486.276 292.992 487.724 289.788 485.664 288.083ZM557.353 369.67C555.231 367.406 552.235 366.584 548.715 367.301C547.445 367.559 545.449 367.804 544.281 367.847C542.25 367.919 542.11 367.774 540.992 364.478C540.349 362.584 539.645 359.202 539.427 356.963C538.826 350.808 538.527 350.462 534.286 351.018C526.456 352.045 506.456 350.632 499.61 348.571C497.641 347.977 494.966 347.579 493.665 347.687C491.311 347.882 491.303 347.892 490.835 351.326C490.577 353.22 489.945 356.602 489.434 358.841C487.979 365.214 487.152 380.089 487.834 387.649C489.156 402.308 494.96 410.645 506.566 414.555C511.246 416.131 512.458 416.138 517.761 414.628C523.846 412.894 529.342 409.778 533.841 405.507C536.601 402.887 544.838 392.774 544.838 392.005C544.838 391.734 544.151 390.993 543.312 390.362C542.395 389.675 541.616 388.275 541.363 386.867C540.835 383.931 541.604 383.834 544.883 386.431C549.427 390.031 552.914 389.425 557.493 384.245C559.048 382.486 559.194 381.885 559.214 377.003C559.234 371.935 559.146 371.584 557.353 369.67Z"
     fill="#141516"
     id="path40" />
  <path
     d="M549.221 428.355C549.221 426.361 548.643 424.512 547.936 422.962C546.869 420.617 546.636 418.741 546.559 411.88C546.456 402.832 547.237 399.425 548.598 402.992C548.991 404.024 549.191 405.717 549.039 406.749C548.568 409.983 550.885 423.593 551.999 424.127C552.325 424.284 552.653 424.442 552.979 424.598C551.726 425.85 550.474 427.103 549.221 428.355Z"
     fill="#141516"
     id="path41" />
  <path
     d="M504.768 387.023C505.106 386.507 505.687 384.956 506.055 383.578C507.333 378.826 510.98 371.276 512.195 370.87C513.465 370.447 512.939 372.837 510.394 379.042C509.016 382.401 507.889 385.848 507.889 386.699C507.889 388.588 509.92 389.29 512.531 388.295C513.828 387.802 514.537 387.814 515.176 388.345C516.433 389.39 515.251 390.535 512.42 391.016C511.133 391.231 509.212 391.577 508.147 391.78C505.066 392.363 503.089 389.58 504.768 387.023Z"
     fill="#141516"
     id="path42" />
  <path
     d="M505.487 401.113C508.327 395.963 512.456 394.921 515.907 398.483C517.729 400.359 518.643 403.305 517.405 403.305C517.13 403.305 515.935 402.305 514.75 401.085C511.965 398.21 510.026 398.353 507.942 401.581C505.76 404.963 503.59 404.55 505.487 401.113Z"
     fill="#141516"
     id="path43" />
  <path
     d="M499.247 368.987C500.269 367.965 501.939 368.04 502.859 369.149C504.099 370.645 502.553 374.498 500.717 374.498C499.607 374.498 499.189 374.052 498.886 372.541C498.367 369.943 498.375 369.858 499.247 368.987Z"
     fill="#141516"
     id="path44" />
  <path
     d="M523.841 371.261C526.884 369.873 528.65 373.711 526.05 376.063C525.632 376.441 525.216 376.82 524.798 377.195C524.379 376.82 523.963 376.441 523.545 376.063C521.782 374.468 521.924 372.133 523.841 371.261Z"
     fill="#141516"
     id="path45" />
  <path
     d="M496.794 359.598C498.921 357.536 501 356.95 501 358.411C501 359.52 497.846 362.444 496.368 362.704C494.409 363.047 494.59 361.735 496.794 359.598Z"
     fill="#141516"
     id="path46" />
  <path
     d="M523.427 359.227C523.72 359.047 524.848 359.52 525.937 360.279C529.064 362.461 529.514 365.537 526.468 363.909C524.785 363.007 522.646 359.711 523.427 359.227Z"
     fill="#141516"
     id="path47" />
</svg>
