<?xml version="1.0" encoding="UTF-8"?>
<svg version="1.1" xmlns="http://www.w3.org/2000/svg" width="400" height="400">
<path d="M0 0 C2.04761493 0.05110227 4.09709417 0.00505619 6.14453125 -0.05273438 C9.80281449 0.0658211 12.0392671 0.31798474 15.26953125 2.05664062 C19.21245894 6.6533819 21.22218294 12.44064129 23.26953125 18.05664062 C23.91341797 19.69826172 23.91341797 19.69826172 24.5703125 21.37304688 C30.29940468 37.68533479 29.73516603 55.99605333 30.26953125 73.05664062 C52.4949699 73.99026465 73.04543935 69.30767905 94.26953125 63.05664062 C101.79319409 84.43383761 101.79319409 84.43383761 100.26953125 93.05664062 C98.29270895 95.4447481 96.30633578 96.80703686 93.68359375 98.44726562 C86.49125692 103.24215684 83.77518963 112.25897572 80.859375 120.01757812 C79.02517354 123.52374209 77.61371194 124.11813224 74.26953125 126.05664062 C72.74889493 128.21783803 71.42843748 130.26793821 70.14453125 132.55664062 C66.1046699 139.59130267 66.1046699 139.59130267 63.26953125 142.05664062 C61.19920545 139.98631483 61.99413648 135.55583997 61.89453125 132.68164062 C61.36626522 121.2011867 59.57299985 111.39133923 52.01953125 102.36914062 C46.00090744 97.30802515 39.44118168 94.68856071 31.53515625 94.84960938 C19.64821388 95.93582997 11.31679384 102.80819647 3.26953125 111.05664062 C2.60953125 111.05664062 1.94953125 111.05664062 1.26953125 111.05664062 C-0.02805136 108.46147541 0.13684023 106.51481036 0.14453125 103.61914062 C0.14195312 102.65105469 0.139375 101.68296875 0.13671875 100.68554688 C0.26953125 98.05664062 0.26953125 98.05664062 1.26953125 95.05664062 C2.05328125 94.62351562 2.83703125 94.19039063 3.64453125 93.74414062 C6.99673029 91.58915553 7.88810786 89.76467183 9.26953125 86.05664062 C9.71374987 82.00974708 9.71374987 82.00974708 8.21484375 78.36914062 C6.60298413 74.42607906 7.59190666 70.21986351 8.08007812 66.07617188 C8.53698287 61.17483005 8.07122282 58.13459083 5.26953125 54.05664062 C3.22721921 52.6914464 3.22721921 52.6914464 0.89453125 51.99414062 C-5.78711179 49.36263453 -8.9044704 44.9807671 -12.73046875 39.05664062 C-15.89476103 34.3102022 -19.29766795 31.70054637 -24.73046875 30.05664062 C-30.37668135 29.32307757 -35.05373195 29.24821395 -40.23046875 31.74414062 C-45.21312903 36.35310138 -48.32361751 40.4720671 -49.1015625 47.32617188 C-49.22506796 53.9155516 -49.29166704 59.09491168 -45.2421875 64.50195312 C-42.94370781 66.86576428 -40.60867666 68.450199 -37.73046875 70.05664062 C-37.80265625 70.71148437 -37.87484375 71.36632812 -37.94921875 72.04101562 C-39.07103281 83.07218717 -39.41961816 92.50529103 -35.73046875 103.05664062 C-35.38215813 104.38614 -35.04372734 105.71844858 -34.73046875 107.05664062 C-35.40851563 106.84007812 -36.0865625 106.62351562 -36.78515625 106.40039062 C-46.29276792 103.55600819 -54.65691448 102.42495184 -63.73046875 107.05664062 C-64.32601562 107.35054688 -64.9215625 107.64445312 -65.53515625 107.94726562 C-78.07395266 115.41481549 -81.32645051 133.89319352 -84.76953125 146.94335938 C-85.45301154 149.64214837 -86.11279979 152.34214809 -86.73046875 155.05664062 C-90.46940629 151.41930465 -93.8881724 147.62147029 -97.23046875 143.61914062 C-97.69066406 143.07193359 -98.15085937 142.52472656 -98.625 141.9609375 C-101.67126003 138.33545901 -104.70057921 134.69580143 -107.73046875 131.05664062 C-106.10796934 130.21844905 -104.48238378 129.38622903 -102.85546875 128.55664062 C-101.95054688 128.09257812 -101.045625 127.62851562 -100.11328125 127.15039062 C-97.73046875 126.05664062 -97.73046875 126.05664062 -95.73046875 126.05664062 C-96.10558594 125.39019531 -96.48070313 124.72375 -96.8671875 124.03710938 C-98.5202754 121.05988558 -100.13245706 118.06377373 -101.73046875 115.05664062 C-102.18292969 114.21617187 -102.63539062 113.37570313 -103.1015625 112.50976562 C-112.0146917 94.62797372 -113.70807185 71.68819036 -115.73046875 52.05664062 C-110.48267798 53.62319908 -105.23937884 55.20325857 -100.00390625 56.81054688 C-99.03453125 57.10767578 -98.06515625 57.40480469 -97.06640625 57.7109375 C-95.08421162 58.31893255 -93.10244335 58.92831927 -91.12109375 59.5390625 C-88.32851032 60.39359303 -85.53171858 61.23100363 -82.73046875 62.05664062 C-81.96637695 62.28593262 -81.20228516 62.51522461 -80.41503906 62.75146484 C-75.01802008 64.26540631 -75.01802008 64.26540631 -69.73046875 63.05664062 C-58.21005435 48.98340712 -53.79609287 30.80319965 -52.94140625 13.01757812 C-52.76527798 10.54525904 -52.43416728 8.42152914 -51.73046875 6.05664062 C-34.46512793 1.60525113 -17.86134607 -0.62038601 0 0 Z " fill="#2B7FFF" transform="translate(210.73046875,134.943359375)"/>
<path d="M0 0 C4.87312369 4.13156139 8.85985135 8.73906119 12.1875 14.1875 C14.80194279 18.06107243 18.19235315 18.99177102 22.5703125 20.22265625 C25.97822961 22.0190329 26.64127727 23.82298122 27.875 27.4375 C28.02295377 30.37085964 27.75698385 33.20939538 27.4375 36.125 C26.62033291 42.05527724 26.62033291 42.05527724 28.875 47.4375 C28.65430246 54.38947256 28.65430246 54.38947256 26.0625 57.875 C23.88686995 59.42902146 22.43992715 59.88364781 19.875 60.4375 C19.77920616 68.51611415 19.74986367 76.42090366 20.875 84.4375 C21.535 84.4375 22.195 84.4375 22.875 84.4375 C22.61328125 86.30078125 22.61328125 86.30078125 21.875 88.4375 C20.16796875 89.66796875 20.16796875 89.66796875 18.0625 90.625 C17.37542969 90.94855469 16.68835938 91.27210938 15.98046875 91.60546875 C8.82409274 94.4334986 0.39322383 94.61024128 -6.875 92.1875 C-9.125 90.4375 -9.125 90.4375 -10.125 88.5 C-10.125 85.94815968 -9.28986382 84.70251299 -8.125 82.4375 C-7.73750787 80.11254723 -7.39517161 77.77898732 -7.125 75.4375 C-7.7025 75.210625 -8.28 74.98375 -8.875 74.75 C-13.04914121 72.31508429 -14.79147355 69.38805038 -16.375 64.875 C-18.34080554 55.60266061 -17.0517688 45.77138576 -16.125 36.4375 C-17.0325 35.880625 -17.94 35.32375 -18.875 34.75 C-22.96277047 31.84139409 -25.53001434 29.22245698 -27.125 24.4375 C-27.76786775 16.73362581 -27.94748072 9.79940453 -23.125 3.4375 C-16.48838641 -3.19911359 -8.25164093 -4.12582046 0 0 Z M-22.125 10.4375 C-24.54421343 14.99131351 -24.20478358 18.56828727 -23.125 23.4375 C-22.39378594 25.8267395 -22.39378594 25.8267395 -21.125 27.4375 C-20.135 27.7675 -19.145 28.0975 -18.125 28.4375 C-18.434375 27.674375 -18.74375 26.91125 -19.0625 26.125 C-20.59297469 22.25379931 -21.24133 19.39490994 -21.1875 15.25 C-21.17847656 14.34894531 -21.16945312 13.44789063 -21.16015625 12.51953125 C-21.14855469 11.83246094 -21.13695312 11.14539063 -21.125 10.4375 C-21.455 10.4375 -21.785 10.4375 -22.125 10.4375 Z M0.7421875 36.65625 C-0.06347656 36.70136719 -0.86914062 36.74648437 -1.69921875 36.79296875 C-2.96185547 36.86451172 -2.96185547 36.86451172 -4.25 36.9375 C-5.09949219 36.98519531 -5.94898438 37.03289062 -6.82421875 37.08203125 C-8.92450708 37.20002498 -11.02475721 37.31869839 -13.125 37.4375 C-15.39128961 55.28788016 -15.39128961 55.28788016 -8.9375 71.5 C-5.92192994 73.57739271 -3.92431969 74.09517412 -0.26171875 73.87890625 C3.46302624 73.10944339 6.62951703 71.37097922 9.875 69.4375 C8.91481909 71.83795228 8.3647607 73.16293718 6.0703125 74.44921875 C5.38710937 74.67222656 4.70390625 74.89523438 4 75.125 C2.98292969 75.47111328 2.98292969 75.47111328 1.9453125 75.82421875 C-0.06213977 76.41887914 -2.09383445 76.92970861 -4.125 77.4375 C-4.785 81.0675 -5.445 84.6975 -6.125 88.4375 C2.14500093 91.74550037 7.77258982 90.89683757 15.90625 87.5078125 C18.03539495 86.59354843 18.03539495 86.59354843 18.875 84.4375 C18.565625 83.468125 18.25625 82.49875 17.9375 81.5 C15.85696742 74.78044208 16.40381839 67.24171494 17.875 60.4375 C16.885 59.7775 15.895 59.1175 14.875 58.4375 C15.205 57.7775 15.535 57.1175 15.875 56.4375 C16.431875 56.685 16.98875 56.9325 17.5625 57.1875 C20.07252467 57.70049321 20.07252467 57.70049321 22.5625 55.75 C25.31058838 53.04180731 25.31058838 53.04180731 25.875 49.4375 C25.01709817 47.21978936 25.01709817 47.21978936 23.875 45.4375 C21.46622743 45.55091534 21.46622743 45.55091534 18.875 46.4375 C17.03065651 48.89865547 17.03065651 48.89865547 15.875 51.4375 C11.59140596 49.6863452 10.57394147 47.53345634 8.69140625 43.48046875 C7.76304042 41.15733321 7.18537685 38.92051477 6.875 36.4375 C4.82085529 36.4375 2.7931184 36.5407046 0.7421875 36.65625 Z " fill="#000000" transform="translate(190.125,167.5625)"/>
<path d="M0 0 C13.62447084 0.55610085 28.35440066 3.71512118 38 14 C39.8470181 16.27983433 41.59171659 18.62384251 43.3125 21 C43.74530273 21.59337158 44.17810547 22.18674316 44.62402344 22.7980957 C47.15712609 26.40462305 48.81369466 29.70046242 50 34 C50.75023438 34.09925781 51.50046875 34.19851563 52.2734375 34.30078125 C62.68854676 36.97170468 72.31194183 54.25527505 78 63 C78.21914062 61.76507813 78.43828125 60.53015625 78.6640625 59.2578125 C80.29096385 50.43483267 82.13468814 41.78179557 84.9375 33.25 C85.1658252 32.53730957 85.39415039 31.82461914 85.62939453 31.09033203 C87.97394592 24.24359743 91.37308595 17.88149299 96.9375 13.125 C97.56527344 12.57070312 98.19304687 12.01640625 98.83984375 11.4453125 C105.23503157 7.16643457 112.58706166 7.15702811 120 8 C125.10875655 9.58923936 129.48887411 11.74010196 132.625 16.1875 C134 19 134 19 134 21 C131.21257469 19.82070468 129.40299495 18.4919106 127.0625 16.5 C121.81378971 12.21533854 117.41178669 11.53990205 110.78125 11.69140625 C105.05807713 12.32642122 100.87259783 14.79476449 96.875 18.875 C88.1550704 30.14710412 85.45723361 45.29370106 83 59 C82.83218018 59.85940186 82.66436035 60.71880371 82.49145508 61.60424805 C81.46955261 68.15157529 82.73630291 71.83258295 86.3125 77.3125 C87.14437966 78.6612508 87.9738727 80.011477 88.80078125 81.36328125 C89.38206787 82.30421631 89.38206787 82.30421631 89.97509766 83.26416016 C92.21555987 87.05874957 93 89.56644748 93 94 C89.33384796 92.77794932 89.20179262 92.02930814 87.50390625 88.6875 C86.79911133 87.33398438 86.79911133 87.33398438 86.08007812 85.953125 C85.57927734 84.97859375 85.07847656 84.0040625 84.5625 83 C77.45689184 69.60432357 69.21434944 57.57941875 59.4375 46 C58.93669922 45.40574219 58.43589844 44.81148438 57.91992188 44.19921875 C55.65607359 41.59688012 54.33099465 40.11033155 51 39 C48.88576057 39.99161714 48.88576057 39.99161714 46.75 41.5625 C45.65945312 42.30693359 45.65945312 42.30693359 44.546875 43.06640625 C41.24327983 45.57450381 38.12296374 48.27215712 35 51 C36.15897592 55.83719542 37.331565 60.6708365 38.515625 65.50195312 C38.9146772 67.13781132 39.31031716 68.77450657 39.70214844 70.41210938 C44.67812972 91.18364148 51.13607155 115.48198808 69.32421875 128.6875 C74.49396225 131.77705808 79.31792777 133.85934911 85.41015625 132.4375 C92.11852863 130.17102125 95.88666822 126.65155835 100 121 C100.66 120.195625 101.32 119.39125 102 118.5625 C104.88460566 111.17069799 100.74517528 99.43421114 99.37304688 91.79492188 C98.38728986 86.1006405 97.78493914 80.77889337 98 75 C98.66 75 99.32 75 100 75 C102.09908101 82.99675279 103.79290176 90.98964014 105.25 99.125 C107.21043437 109.80757375 109.78735182 120.21637318 112.85253906 130.63525391 C113.29291504 132.17125244 113.29291504 132.17125244 113.7421875 133.73828125 C114.0088623 134.63587158 114.27553711 135.53346191 114.55029297 136.45825195 C115.04894837 139.27665662 114.73202727 141.25319894 114 144 C111.30542746 141.67391601 110.36918386 139.73248592 109.39453125 136.33203125 C109.13349609 135.43935547 108.87246094 134.54667969 108.60351562 133.62695312 C108.34248047 132.69818359 108.08144531 131.76941406 107.8125 130.8125 C107.53986328 129.87212891 107.26722656 128.93175781 106.98632812 127.96289062 C106.31546425 125.64429093 105.65374456 123.32347352 105 121 C104.60095459 121.54487061 104.20190918 122.08974121 103.79077148 122.65112305 C102.99521851 123.72680542 102.99521851 123.72680542 102.18359375 124.82421875 C101.66079834 125.53408936 101.13800293 126.24395996 100.59936523 126.9753418 C96.67044847 131.94901097 92.0575074 135.01564413 86 137 C78.19806275 137.89530428 71.92116749 135.72405094 65.4921875 131.2578125 C45.42515332 114.58770574 39.21990398 88.35525569 34 64 C33.83129395 63.2167334 33.66258789 62.4334668 33.48876953 61.62646484 C32.85615458 58.67721258 32.23291329 55.72717597 31.640625 52.76953125 C30.47571566 47.73342927 28.6866985 42.94780652 26.6875 38.1875 C26.29949219 37.23230469 25.91148438 36.27710938 25.51171875 35.29296875 C24.22603547 32.82418438 24.22603547 32.82418438 21.83081055 32.29443359 C18.40908004 31.93853821 15.58119144 32.38317653 12.1953125 32.99609375 C11.5531076 33.10848892 10.91090271 33.22088409 10.24923706 33.33668518 C8.20619806 33.69508126 6.16555475 34.06523989 4.125 34.4375 C2.09143742 34.8051074 0.05751525 35.16989858 -1.97781372 35.52760315 C-3.82996513 35.85354462 -5.68042166 36.18907455 -7.53076172 36.52514648 C-11.06528884 37.00893644 -14.43722678 37.08220034 -18 37 C-18 36.34 -18 35.68 -18 35 C-9.72897713 32.56443721 -1.51667273 30.60281984 7 29.25 C7.78802002 29.12262451 8.57604004 28.99524902 9.38793945 28.86401367 C22.13046015 26.9334927 22.13046015 26.9334927 27 30 C28.18847656 31.69580078 28.18847656 31.69580078 29.140625 33.6953125 C29.48867187 34.41074219 29.83671875 35.12617188 30.1953125 35.86328125 C30.54335937 36.60964844 30.89140625 37.35601562 31.25 38.125 C31.61351562 38.87910156 31.97703125 39.63320313 32.3515625 40.41015625 C33.24531269 42.26821586 34.12412375 44.13344818 35 46 C35.92232422 45.16855469 35.92232422 45.16855469 36.86328125 44.3203125 C37.67152344 43.59585938 38.47976562 42.87140625 39.3125 42.125 C40.11300781 41.40570313 40.91351563 40.68640625 41.73828125 39.9453125 C44 38 44 38 47 36 C44.33120007 30.27918785 40.57430221 25.18065203 37 20 C36.56429687 19.35933594 36.12859375 18.71867187 35.6796875 18.05859375 C30.14557007 10.64752041 21.25188693 8.18315879 12.625 6.3125 C10.86599004 5.91806308 9.10811158 5.51853652 7.3515625 5.11328125 C6.58666504 4.94610596 5.82176758 4.77893066 5.03369141 4.60668945 C3 4 3 4 0 2 C0 1.34 0 0.68 0 0 Z " fill="#000000" transform="translate(47,232)"/>
<path d="M0 0 C-1.46998177 4.40021034 -4.68008872 5.74856845 -8.5625 7.75 C-18.75435558 13.32960686 -25.53824802 19.04246204 -30 30 C-30.391875 30.94359375 -30.78375 31.8871875 -31.1875 32.859375 C-32.1514184 35.22900773 -33.07938155 37.61321144 -34 40 C-29.71 41.65 -25.42 43.3 -21 45 C-20.113125 43.7625 -19.22625 42.525 -18.3125 41.25 C-11.6681824 32.4887719 -3.73403135 30.15634657 6.8046875 28.33984375 C13.18421459 27.66133659 19.59429663 27.85532916 26 28 C26.33 28.99 26.66 29.98 27 31 C25.8140625 31.09796875 24.628125 31.1959375 23.40625 31.296875 C3.14382074 32.56992001 3.14382074 32.56992001 -14 42 C-15.86923203 45.14988873 -15.86923203 45.14988873 -17 48 C-16.34 48 -15.68 48 -15 48 C-15.48326543 59.39443226 -16.80756282 70.45422922 -18.75 81.6875 C-18.8831662 82.4700415 -19.0163324 83.25258301 -19.15353394 84.05883789 C-27.49767496 132.9785686 -27.49767496 132.9785686 -40.79296875 143.40625 C-45.08841305 146.06127076 -49.14292342 147.58276111 -54.1640625 146.55859375 C-62.20637701 144.20507362 -66.60170238 140.00469621 -71 133 C-71.33 133 -71.66 133 -72 133 C-72.20496094 134.13179687 -72.40992188 135.26359375 -72.62109375 136.4296875 C-72.89306972 137.91148761 -73.16521387 139.39325685 -73.4375 140.875 C-73.57220703 141.62136719 -73.70691406 142.36773437 -73.84570312 143.13671875 C-74.88671875 148.7734375 -74.88671875 148.7734375 -76 151 C-76.99 151 -77.98 151 -79 151 C-78.46866657 144.51773209 -77.55932623 138.16191218 -76.5 131.75 C-73.1109789 110.8137424 -73.83500908 90.09465695 -75 69 C-74.01 69.33 -73.02 69.66 -72 70 C-70.48309524 77.99694265 -69.84682466 85.61463853 -70.015625 93.73046875 C-70.03137573 94.57980988 -70.04712646 95.429151 -70.06335449 96.30422974 C-70.13593132 99.82013267 -70.22028165 103.33481789 -70.34277344 106.84936523 C-70.86781544 121.87793429 -70.86781544 121.87793429 -64 135 C-60.28072519 138.79633671 -57.17782733 141.79059353 -51.75 142.3125 C-46.02957369 141.83579781 -42.79289762 139.02259599 -38.9375 135 C-32.5143199 126.98577737 -30.07651582 116.54480328 -28 106.6875 C-27.75290283 105.54684082 -27.50580566 104.40618164 -27.2512207 103.23095703 C-23.952316 87.58834267 -21.06440395 71.63102813 -19.42578125 55.7265625 C-19 52 -19 52 -18 50 C-18.6290625 49.81824219 -19.258125 49.63648438 -19.90625 49.44921875 C-24.12887839 48.20913963 -28.28182317 46.93432478 -32.375 45.3125 C-35.98429513 43.77303928 -35.98429513 43.77303928 -40 44 C-41.45887928 45.53150935 -41.45887928 45.53150935 -42.55078125 47.6640625 C-42.99848877 48.44918213 -43.44619629 49.23430176 -43.9074707 50.04321289 C-44.37113037 50.89520264 -44.83479004 51.74719238 -45.3125 52.625 C-45.7974292 53.49439209 -46.2823584 54.36378418 -46.78198242 55.25952148 C-48.20582081 57.83038683 -49.60527224 60.41325455 -51 63 C-51.3609375 63.65468262 -51.721875 64.30936523 -52.09375 64.98388672 C-57.37051891 74.58260597 -60.77483564 84.58023822 -64 95 C-64.66 95 -65.32 95 -66 95 C-65.65209721 87.13739685 -63.69030851 80.36471954 -61 73 C-59.29392429 67.88177287 -60.06090008 62.42436244 -60.24194336 57.07836914 C-60.31143799 54.96972395 -60.36626088 52.86105284 -60.41992188 50.75195312 C-60.77995144 38.51837122 -61.41891994 25.74982571 -70.4375 16.5 C-77.12647635 12.58450165 -83.99581005 11.77226396 -91.515625 13.6171875 C-98.97591672 16.26817166 -105.22546957 21.03008211 -110.66015625 26.74609375 C-112 28 -112 28 -114 28 C-111.75061062 20.99228693 -105.8104623 16.37829875 -99.703125 12.56640625 C-92.11297735 8.67146206 -83.72454252 7.42317991 -75.390625 9.71875 C-68.33449656 12.65485714 -63.70806802 17.32547757 -60 24 C-56.89567763 32.45204993 -56.47449107 40.75947795 -56.3125 49.6875 C-56.27833984 50.97333984 -56.24417969 52.25917969 -56.20898438 53.58398438 C-56.12731117 56.72256889 -56.05790041 59.86090231 -56 63 C-55.72325439 62.48614746 -55.44650879 61.97229492 -55.16137695 61.44287109 C-53.88535248 59.0830889 -52.59902739 56.7290714 -51.3125 54.375 C-50.65991211 53.16263672 -50.65991211 53.16263672 -49.99414062 51.92578125 C-47.38709808 47.17517039 -44.79726207 42.89172133 -41 39 C-40.01 39 -39.02 39 -38 39 C-37.8047876 38.47680176 -37.6095752 37.95360352 -37.40844727 37.41455078 C-31.0139892 20.56165897 -23.9208866 10.69574529 -8 2 C-7.29488281 1.5978125 -6.58976562 1.195625 -5.86328125 0.78125 C-4 0 -4 0 0 0 Z " fill="#000000" transform="translate(328,222)"/>
<path d="M0 0 C3.11409715 3.0523763 6.06527703 6.17326391 8.94335938 9.45336914 C16.83993487 18.37362695 23.35022534 22.36595169 35 25 C35 22.69 35 20.38 35 18 C41.43395444 14.9232348 47.88765594 12.66871531 54.75 10.75 C55.66910156 10.481875 56.58820313 10.21375 57.53515625 9.9375 C58.42589844 9.68484375 59.31664062 9.4321875 60.234375 9.171875 C61.03069336 8.9459668 61.82701172 8.72005859 62.64746094 8.48730469 C65.17592932 7.96355802 67.42480987 7.84564406 70 8 C71.57596305 9.57596305 71.28418746 11.12252067 71.375 13.3125 C71.18334229 28.26180165 59.98414647 41.84720241 50 52 C49.278125 52.73476562 48.55625 53.46953125 47.8125 54.2265625 C35.79214843 65.68882632 20.42338927 68.49677725 4.31494141 68.35131836 C-10.74928343 67.93979804 -22.6589029 62.86653287 -33.64453125 52.4921875 C-39.59376025 46.1976467 -44.75004474 39.05423694 -48 31 C-47.81176758 28.91210938 -47.81176758 28.91210938 -47 27 C-45.4597168 25.81835938 -45.4597168 25.81835938 -43.44921875 24.84375 C-42.69745361 24.46694092 -41.94568848 24.09013184 -41.17114258 23.7019043 C-39.9417395 23.10696167 -39.9417395 23.10696167 -38.6875 22.5 C-31.38961075 18.82277981 -24.3017545 14.923332 -17.3125 10.6875 C-16.50063232 10.19636719 -15.68876465 9.70523438 -14.85229492 9.19921875 C-9.87616883 6.17335585 -4.93132099 3.09826088 0 0 Z M-8.3125 9.25 C-14.85796137 13.76684781 -21.63738464 17.70716884 -28.625 21.5 C-29.57286377 22.01594727 -30.52072754 22.53189453 -31.49731445 23.06347656 C-35.60799857 25.27417814 -39.63777406 27.32437895 -44 29 C-42.18071637 38.87940098 -33.15101868 49.07759466 -25.36328125 55.0078125 C-20.04253463 58.55497691 -14.39905208 61.93349132 -8 63 C-7.01 62.67 -6.02 62.34 -5 62 C-5.66 62 -6.32 62 -7 62 C-7 61.34 -7 60.68 -7 60 C-5.72125 60.0825 -4.4425 60.165 -3.125 60.25 C7.79655013 60.21570942 16.07841014 53.82411734 23.6875 46.625 C28.99286461 41.12583212 32.29513296 35.4394198 34 28 C33.39414062 27.92523438 32.78828125 27.85046875 32.1640625 27.7734375 C19.40130055 25.77066562 12.02353228 18.74601536 4 9 C3.47277344 8.22914062 2.94554687 7.45828125 2.40234375 6.6640625 C1.93957031 6.11492188 1.47679687 5.56578125 1 5 C-3.032439 5 -5.14836496 6.99942354 -8.3125 9.25 Z M58.80078125 13.53125 C56.98803711 14.00498047 56.98803711 14.00498047 55.13867188 14.48828125 C53.87603516 14.82214844 52.61339844 15.15601563 51.3125 15.5 C49.40114258 16.00080078 49.40114258 16.00080078 47.45117188 16.51171875 C44.29991115 17.33789197 41.14958099 18.16745032 38 19 C37.96406738 19.71067627 37.92813477 20.42135254 37.89111328 21.15356445 C37.08235504 33.12056449 32.04931368 43.87928792 23 52 C14.61094755 58.89549403 6.72870759 62.02466295 -4 63 C-4 63.33 -4 63.66 -4 64 C14.16091428 66.16574121 30.90399129 63.30056484 45.6875 51.93359375 C56.77203901 41.48410645 65.84026573 27.1503747 68 12 C64.65998719 12 62.03209063 12.68170387 58.80078125 13.53125 Z " fill="#000000" transform="translate(231,24)"/>
<path d="M0 0 C4.93518956 1.00649226 9.77247259 2.27916715 14.625 3.625 C15.59681213 3.88944916 15.59681213 3.88944916 16.58825684 4.15924072 C46.23001701 12.23001701 46.23001701 12.23001701 51 17 C51.39676972 19.93992021 51.44343708 21.40576876 49.64453125 23.81640625 C48.73767578 24.68072266 48.73767578 24.68072266 47.8125 25.5625 C38.01922929 36.10909922 37.03587879 50.67825342 36.125 64.375 C35.16149189 76.73687846 32.89560474 87.46504832 26 98 C25.4740625 98.85335937 24.948125 99.70671875 24.40625 100.5859375 C23.8390625 101.42382812 23.271875 102.26171875 22.6875 103.125 C22.17574219 103.89070313 21.66398437 104.65640625 21.13671875 105.4453125 C18.33764808 107.48193064 16.5884053 106.92315891 13.28279114 106.43164062 C9.34922256 105.68786343 5.52991368 104.6105453 1.6875 103.49609375 C0.83317383 103.2533522 -0.02115234 103.01061066 -0.90136719 102.76051331 C-3.60251685 101.99167483 -6.30125518 101.21473272 -9 100.4375 C-10.842294 99.91156993 -12.68474058 99.386174 -14.52734375 98.86132812 C-19.02001659 97.58038693 -23.51054677 96.29217789 -28 95 C-28.33 93.68 -28.66 92.36 -29 91 C-22.4797907 91.98313631 -16.15527448 93.42427891 -9.8125 95.19921875 C-8.73923462 95.49954514 -8.73923462 95.49954514 -7.64428711 95.80593872 C-4.66793412 96.6437518 -1.69372823 97.48883538 1.27880859 98.34008789 C3.47555475 98.96708671 5.67500642 99.58372858 7.875 100.19921875 C8.88276489 100.49284554 8.88276489 100.49284554 9.91088867 100.79240417 C13.17685426 101.70070743 14.70513416 102.09828861 18 101 C28.48133966 87.11814357 30.70026217 72.6689399 32.19287109 55.82324219 C33.47405964 41.86248241 36.88071791 30.11928209 47 20 C40.08012204 16.24697384 33.26242492 13.60632951 25.6875 11.5 C24.65584717 11.20738281 23.62419434 10.91476563 22.5612793 10.61328125 C15.50567403 8.63730191 8.42511575 6.75971849 1.3125 5 C0.4464917 4.78021484 -0.4195166 4.56042969 -1.31176758 4.33398438 C-7.18293574 2.84965002 -7.18293574 2.84965002 -13 4 C-23.03608693 14.15415854 -24.37130181 29.80758424 -25.421875 43.2578125 C-27.54054312 70.11758307 -27.54054312 70.11758307 -34 80 C-34.99 79.67 -35.98 79.34 -37 79 C-36.3431052 75.28211086 -35.29700121 71.87624878 -34.0625 68.3125 C-31.2432502 59.27461617 -30.58768945 50.07012726 -29.80712891 40.6796875 C-28.59370193 26.25304935 -26.80245246 11.72565778 -16 1 C-11.03004883 -2.31330078 -5.73221374 -0.80030115 0 0 Z " fill="#000000" transform="translate(120,89)"/>
<path d="M0 0 C4.13462797 -0.3324324 6.8568737 -0.43560345 10.23046875 2.125 C12.24680619 4.483898 13.69340199 6.83418384 15.171875 9.5625 C15.95304687 10.97789063 15.95304687 10.97789063 16.75 12.421875 C19.71228485 18.31652264 21.82872376 24.29167705 23.58203125 30.6328125 C23.79546677 31.40440201 24.00890228 32.17599152 24.22880554 32.97096252 C26.59687475 41.78926595 28.30965897 50.72542896 29.96704102 59.69995117 C30.49378671 62.55094049 31.03215692 65.39956159 31.57226562 68.24804688 C31.91471936 70.07018917 32.25654119 71.89245037 32.59765625 73.71484375 C32.75696121 74.56159164 32.91626617 75.40833954 33.08039856 76.28074646 C33.6572653 79.41504299 34.171875 82.36816598 34.171875 85.5625 C28.61110099 88.44399199 23.05094805 90.90879225 17.171875 93.0625 C16.35170898 93.36365723 15.53154297 93.66481445 14.68652344 93.97509766 C1.07968729 98.85643853 -12.26925679 101.75381257 -26.765625 101.625 C-27.73564453 101.62048828 -28.70566406 101.61597656 -29.70507812 101.61132812 C-32.0794926 101.5996315 -34.45377521 101.58324086 -36.828125 101.5625 C-36.89543823 100.325 -36.89543823 100.325 -36.96411133 99.0625 C-38.41855134 73.09630825 -41.36209355 49.43568485 -53.37573242 25.95532227 C-54.26169075 24.1904659 -55.05327488 22.37888307 -55.828125 20.5625 C-54.0510603 15.23130591 -47.625879 12.99340478 -42.79980469 10.51855469 C-29.43907582 4.04002395 -14.53401963 2.13561105 0 0 Z M-0.50390625 3.98046875 C-1.40705566 4.09825684 -2.31020508 4.21604492 -3.24072266 4.33740234 C-4.19769043 4.47355957 -5.1546582 4.6097168 -6.140625 4.75 C-7.12595215 4.88873535 -8.1112793 5.0274707 -9.12646484 5.17041016 C-24.26864139 7.40976351 -38.69278871 11.50218 -51.828125 19.5625 C-50.3911985 23.28080271 -48.74655829 26.84775443 -47.015625 30.4375 C-38.71248717 48.40062988 -34.94780792 66.82852853 -34.265625 86.5 C-34.22244141 87.66080078 -34.17925781 88.82160156 -34.13476562 90.01757812 C-34.02927658 92.86578232 -33.92715945 95.71406529 -33.828125 98.5625 C-11.30577937 99.34762344 9.84962128 93.07349234 30.171875 83.5625 C28.15166242 60.14398307 23.39449299 33.00536377 12.609375 12 C12.23312988 11.26571777 11.85688477 10.53143555 11.46923828 9.77490234 C9.60652991 6.08162856 9.60652991 6.08162856 6.32763672 3.83740234 C3.92137895 3.53055679 1.90152012 3.66544092 -0.50390625 3.98046875 Z " fill="#000000" transform="translate(278.828125,105.4375)"/>
<path d="M0 0 C7.07351713 0.55108626 13.86451235 1.67147872 20.78515625 3.21484375 C21.76745712 3.4306459 22.749758 3.64644806 23.76182556 3.86878967 C25.81704736 4.32226376 27.87161425 4.77871557 29.92553711 5.23803711 C33.08289077 5.94204662 36.243363 6.63062583 39.40429688 7.31835938 C41.40645525 7.76209577 43.40841606 8.2067247 45.41015625 8.65234375 C46.35794449 8.85762192 47.30573273 9.06290009 48.28224182 9.2743988 C49.15082321 9.47122757 50.0194046 9.66805634 50.91430664 9.87084961 C51.68134415 10.04104111 52.44838165 10.2112326 53.23866272 10.38658142 C55 11 55 11 56 13 C57.55510259 29.39231092 52.11288605 45.28582776 42.1875 58.25 C39.47239817 61.51019876 36.61999838 64.2731106 33.375 67 C25.85832411 73.46874001 22.58053384 81.18705208 20.0546875 90.62890625 C19 93 19 93 17.31640625 94.02734375 C13.84433581 93.9863581 11.12353511 92.4882149 8.0625 91 C-1.67071245 86.48315224 -11.78600401 83.24327148 -22 80 C-22.495 77.525 -22.495 77.525 -23 75 C-18.89033728 76.34491066 -14.7827979 77.69607812 -10.67700195 79.05273438 C-9.2839959 79.51208379 -7.89045243 79.96980712 -6.49633789 80.42578125 C1.17802686 82.93709113 8.68976168 85.53512514 16 89 C16.16773926 88.33572998 16.33547852 87.67145996 16.50830078 86.98706055 C19.3204152 76.21619474 24.40992564 69.40989805 32.375 61.875 C39.85211909 54.74188663 44.20491787 47.55419598 48 38 C48.54720703 36.62714844 48.54720703 36.62714844 49.10546875 35.2265625 C50.70605518 30.5826075 51.22422058 26.09154898 51.56640625 21.19921875 C51.6912439 19.45451294 51.6912439 19.45451294 51.81860352 17.67456055 C51.87846436 16.79195557 51.9383252 15.90935059 52 15 C51.46208832 14.87916046 50.92417664 14.75832092 50.3699646 14.63381958 C44.75605938 13.37204405 39.14313837 12.10595924 33.53076172 10.83740234 C31.43791072 10.36494844 29.34481379 9.89358253 27.25146484 9.42333984 C24.23729712 8.74604705 21.22404438 8.06480716 18.2109375 7.3828125 C16.81371964 7.07018967 16.81371964 7.07018967 15.38827515 6.75125122 C10.83045753 5.7156324 6.40561887 4.58755297 2 3 C2.1546875 4.423125 2.1546875 4.423125 2.3125 5.875 C2.28117632 13.62760968 -2.84590877 20.51908115 -7.91796875 26 C-11.19753014 29.1503479 -14.70874522 31.9827172 -18.265625 34.8125 C-21.94833127 37.75866501 -25.47974525 40.86303946 -29 44 C-29.66 42.68 -30.32 41.36 -31 40 C-29.16776693 38.31129185 -27.33441865 36.62383183 -25.5 34.9375 C-24.95263184 34.43379883 -24.40526367 33.93009766 -23.84130859 33.41113281 C-20.81414493 30.63393476 -17.75526672 27.91133571 -14.625 25.25 C-8.44984062 19.84513077 -4.34124974 14.93854215 -2 7 C-1.79503906 6.319375 -1.59007812 5.63875 -1.37890625 4.9375 C-0.89942366 3.29733887 -0.44670941 1.64938861 0 0 Z " fill="#000000" transform="translate(334,97)"/>
<path d="M0 0 C15.90805925 12.56061049 20.17387607 34.55742209 23 53.4375 C25.18314942 67.98704188 27.90154807 82.1443488 35.08203125 95.1796875 C36 97 36 97 36 99 C31.22169095 101.91360308 28.44893869 102.19876651 23 101 C25.38573379 99.10786631 27.07175348 97.97608217 30 97 C29.72027344 96.30777344 29.44054687 95.61554688 29.15234375 94.90234375 C23.8683721 81.5938999 20.65262566 68.65884133 18.62426758 54.50561523 C15.83344915 35.25920334 11.43742658 18.69718532 -2 4 C-8.90485692 5.36967509 -15.29841692 7.37961812 -21.875 9.875 C-22.89207031 10.257771 -23.90914062 10.64054199 -24.95703125 11.03491211 C-37.52356895 15.84922886 -49.76441034 21.40768615 -62 27 C-61.5973291 27.65009033 -61.1946582 28.30018066 -60.77978516 28.9699707 C-52.06030429 43.23497816 -49.4875309 57.67386421 -47 74 C-48.98 74.495 -48.98 74.495 -51 75 C-51.12528076 74.351521 -51.25056152 73.70304199 -51.37963867 73.03491211 C-54.33115145 51.6641736 -54.33115145 51.6641736 -63.65625 32.9140625 C-66.24502723 29.69534948 -66.24754239 28.91694579 -66 25 C-55.83544525 19.32616385 -45.56818293 14.53348529 -34.75 10.25 C-33.36949746 9.69474132 -31.98928831 9.13875265 -30.609375 8.58203125 C-6.05241746 -1.28985946 -6.05241746 -1.28985946 0 0 Z " fill="#000000" transform="translate(76,162)"/>
<path d="M0 0 C0.99 0 1.98 0 3 0 C3.39832031 0.95261719 3.79664063 1.90523438 4.20703125 2.88671875 C4.74199105 4.1537288 5.27715832 5.42065126 5.8125 6.6875 C6.07353516 7.31333984 6.33457031 7.93917969 6.60351562 8.58398438 C8.15535831 12.24326775 9.86520232 15.6471496 12 19 C15.5185381 17.67373656 18.69983753 16.1167701 21.94140625 14.21484375 C22.85470703 13.68439453 23.76800781 13.15394531 24.70898438 12.60742188 C26.61594106 11.49144106 28.52218841 10.37424729 30.42773438 9.25585938 C31.33974609 8.72669922 32.25175781 8.19753906 33.19140625 7.65234375 C34.01842041 7.16757568 34.84543457 6.68280762 35.69750977 6.18334961 C37.82327171 5.09082834 39.66548894 4.45912163 42 4 C42 5.32 42 6.64 42 8 C38.55329161 9.96397346 35.10268258 11.92089307 31.6484375 13.87158203 C29.90157847 14.8599618 28.15779377 15.85376879 26.4140625 16.84765625 C25.30546875 17.47285156 24.196875 18.09804688 23.0546875 18.7421875 C21.53077393 19.60626221 21.53077393 19.60626221 19.97607422 20.48779297 C17.03459929 21.98241936 14.15271693 23.04226461 11 24 C5.24951179 17.28121652 0 9.05744846 0 0 Z " fill="#000000" transform="translate(32,270)"/>
<path d="M0 0 C3.0625 2.0625 3.0625 2.0625 5 5 C5.25 8.4375 5.25 8.4375 4 12 C1.07458665 15.25210925 -2.37741077 17.58494051 -6 20 C-7.19232613 22.05003955 -7.19232613 22.05003955 -8 24 C-8.99 23.67 -9.98 23.34 -11 23 C-11.0625 20.375 -11.0625 20.375 -10 17 C-7.77146571 15.29331059 -5.49408632 13.93427181 -3.03125 12.58984375 C-0.75333559 11.12565706 -0.75333559 11.12565706 -0.21875 8.31640625 C-0.1465625 7.55199219 -0.074375 6.78757812 0 6 C-4.91582077 4.48046291 -4.91582077 4.48046291 -10 4 C-10 3.01 -10 2.02 -10 1 C-6.77001957 -0.61499021 -3.49190008 -0.57976204 0 0 Z " fill="#2B7FFF" transform="translate(205,94)"/>
<path d="M0 0 C1.734375 1.265625 1.734375 1.265625 3 3 C3.109375 5.15625 3.109375 5.15625 2.75 7.5 C2.64171875 8.2734375 2.5334375 9.046875 2.421875 9.84375 C2 12 2 12 1 15 C1.66 15.66 2.32 16.32 3 17 C3 17.99 3 18.98 3 20 C0.625 19.6875 0.625 19.6875 -2 19 C-4 16 -4 16 -3.6875 13.6875 C-3.460625 12.800625 -3.23375 11.91375 -3 11 C-2.66055205 9.00102872 -2.32578384 7.00124361 -2 5 C-5.58327753 3.99782936 -5.58327753 3.99782936 -9 5 C-10.13350534 7.01669827 -10.13350534 7.01669827 -11 9 C-11.66 9 -12.32 9 -13 9 C-13.36627907 3.50581395 -13.36627907 3.50581395 -11.6875 1.1875 C-7.73413631 -1.59449667 -4.52893966 -0.97048707 0 0 Z " fill="#2B7FFF" transform="translate(133,51)"/>
<path d="M0 0 C-0.33 0.99 -0.66 1.98 -1 3 C-3.38048027 4.10846791 -5.65429406 5.01833601 -8.125 5.875 C-8.83551514 6.13039551 -9.54603027 6.38579102 -10.27807617 6.64892578 C-12.51404164 7.44669099 -14.7559748 8.22522487 -17 9 C-18.07773682 9.37705078 -18.07773682 9.37705078 -19.17724609 9.76171875 C-31.32306134 14 -31.32306134 14 -35 14 C-33.98035819 11.10205058 -33.30739385 10.15707871 -30.52563477 8.7355957 C-29.50783936 8.38585693 -28.49004395 8.03611816 -27.44140625 7.67578125 C-26.33345703 7.28712891 -25.22550781 6.89847656 -24.08398438 6.49804688 C-22.92189453 6.10681641 -21.75980469 5.71558594 -20.5625 5.3125 C-19.40427734 4.90966797 -18.24605469 4.50683594 -17.05273438 4.09179688 C-4.87713146 -0.13181436 -4.87713146 -0.13181436 0 0 Z " fill="#000000" transform="translate(79,195)"/>
<path d="M0 0 C0.495 1.485 0.495 1.485 1 3 C-0.93939453 3.23783203 -0.93939453 3.23783203 -2.91796875 3.48046875 C-12.31730169 4.71422172 -20.76287018 6.12843815 -29.46875 10.01171875 C-32 11 -32 11 -36 11 C-36 10.34 -36 9.68 -36 9 C-24.321206 2.49775253 -13.41459466 -0.72583979 0 0 Z " fill="#000000" transform="translate(357,224)"/>
<path d="M0 0 C4.47911082 -0.05856225 8.9581217 -0.09378482 13.4375 -0.125 C14.69755859 -0.14175781 15.95761719 -0.15851563 17.25585938 -0.17578125 C24.17984933 -0.21193786 30.31774582 0.15310929 37 2 C37 2.66 37 3.32 37 4 C24.63991137 4.17327227 12.34177486 3.63594729 0 3 C0 2.01 0 1.02 0 0 Z " fill="#000000" transform="translate(21,240)"/>
<path d="M0 0 C-0.33 0.99 -0.66 1.98 -1 3 C-4.79073089 3.65140456 -8.58273657 4.29508257 -12.375 4.9375 C-13.96634766 5.21110352 -13.96634766 5.21110352 -15.58984375 5.49023438 C-22.04739949 6.5796993 -28.47352255 7.45262392 -35 8 C-35 7.34 -35 6.68 -35 6 C-23.17915167 2.12862519 -12.48054829 -0.43452586 0 0 Z " fill="#000000" transform="translate(364,231)"/>
<path d="M0 0 C-0.17236328 1.87988281 -0.17236328 1.87988281 -1 4 C-3.26904297 5.09667969 -3.26904297 5.09667969 -6.2421875 5.921875 C-7.30824219 6.22480469 -8.37429687 6.52773437 -9.47265625 6.83984375 C-10.59542969 7.14019531 -11.71820313 7.44054687 -12.875 7.75 C-13.99003906 8.06582031 -15.10507812 8.38164062 -16.25390625 8.70703125 C-24.48278544 11 -24.48278544 11 -28 11 C-27.81176758 9.12011719 -27.81176758 9.12011719 -27 7 C-24.83862305 5.90332031 -24.83862305 5.90332031 -22.01171875 5.078125 C-20.99529297 4.77519531 -19.97886719 4.47226563 -18.93164062 4.16015625 C-17.32579102 3.70962891 -17.32579102 3.70962891 -15.6875 3.25 C-14.09905273 2.77626953 -14.09905273 2.77626953 -12.47851562 2.29296875 C-8.12955946 1.02372191 -4.5594922 0 0 0 Z " fill="#000000" transform="translate(79,210)"/>
<path d="M0 0 C3.52199765 0.44965507 7.04232733 0.91129138 10.5625 1.375 C11.55314453 1.50132812 12.54378906 1.62765625 13.56445312 1.7578125 C18.88281019 2.46457091 23.89142386 3.35207221 29 5 C29 5.99 29 6.98 29 8 C19.0753735 7.56279178 9.6277296 5.27718577 0 3 C0 2.01 0 1.02 0 0 Z " fill="#000000" transform="translate(106,152)"/>
<path d="M0 0 C9.35775436 0.40685889 17.92982326 1.60438853 27 4 C27 5.32 27 6.64 27 8 C23.43592229 7.38378724 19.87407806 6.75548651 16.3125 6.125 C15.30509766 5.95097656 14.29769531 5.77695313 13.25976562 5.59765625 C12.28330078 5.42363281 11.30683594 5.24960938 10.30078125 5.0703125 C9.40528564 4.91320801 8.50979004 4.75610352 7.5871582 4.59423828 C4.9125796 3.97992061 2.5174382 3.08315308 0 2 C0 1.34 0 0.68 0 0 Z " fill="#000000" transform="translate(111,123)"/>
<path d="M0 0 C0 0.66 0 1.32 0 2 C-21.60739583 4.38776806 -21.60739583 4.38776806 -31 4 C-29 1 -29 1 -25.91015625 0.26953125 C-24.64042969 0.11871094 -23.37070312 -0.03210938 -22.0625 -0.1875 C-21.05848145 -0.30702026 -21.05848145 -0.30702026 -20.03417969 -0.42895508 C-5.97327437 -1.99109146 -5.97327437 -1.99109146 0 0 Z " fill="#000000" transform="translate(46,249)"/>
<path d="M0 0 C9.11689851 0.72356337 18.01638277 2.34292907 27 4 C27.33 4.99 27.66 5.98 28 7 C24.74176453 8.05025651 22.46186645 7.92000538 19.12109375 7.2578125 C18.20005859 7.07863281 17.27902344 6.89945313 16.33007812 6.71484375 C15.37552734 6.52019531 14.42097656 6.32554687 13.4375 6.125 C12.47908203 5.93808594 11.52066406 5.75117188 10.53320312 5.55859375 C6.94117813 4.84874718 3.47702005 4.15900668 0 3 C0 2.01 0 1.02 0 0 Z " fill="#000000" transform="translate(110,137)"/>
<path d="M0 0 C8 2.66666667 16 5.33333333 24 8 C23.67 9.32 23.34 10.64 23 12 C14.66710752 10.13002019 7.50526106 7.04733974 0 3 C0 2.01 0 1.02 0 0 Z " fill="#000000" transform="translate(337,126)"/>
<path d="M0 0 C-0.33 0.99 -0.66 1.98 -1 3 C-4.39378931 3.53477621 -7.79023051 4.05033758 -11.1875 4.5625 C-12.14720703 4.71396484 -13.10691406 4.86542969 -14.09570312 5.02148438 C-15.02705078 5.16005859 -15.95839844 5.29863281 -16.91796875 5.44140625 C-17.77156982 5.57232666 -18.6251709 5.70324707 -19.50463867 5.83813477 C-22.19195204 6.01245125 -24.39390077 5.63876982 -27 5 C-26.67 4.34 -26.34 3.68 -26 3 C-23.0859375 2.18359375 -23.0859375 2.18359375 -19.375 1.4375 C-18.16585938 1.18871094 -16.95671875 0.93992187 -15.7109375 0.68359375 C-4.83769634 -1.31937173 -4.83769634 -1.31937173 0 0 Z " fill="#000000" transform="translate(47,256)"/>
<path d="M0 0 C5.21108776 0.67019239 10.26848828 1.64304229 15.375 2.875 C16.09816406 3.03613281 16.82132812 3.19726562 17.56640625 3.36328125 C19.6484375 3.8671875 19.6484375 3.8671875 23 5 C23.33 5.99 23.66 6.98 24 8 C15.38354731 8.57443018 7.268186 6.84545733 0 2 C0 1.34 0 0.68 0 0 Z " fill="#000000" transform="translate(324,147)"/>
<path d="M0 0 C7.34467941 1.61831919 14.67349113 3.30142762 22 5 C22 6.32 22 7.64 22 9 C7.12306545 7.08689167 7.12306545 7.08689167 1 3 C0.67 2.01 0.34 1.02 0 0 Z " fill="#000000" transform="translate(331,139)"/>
<path d="M0 0 C-0.33 0.99 -0.66 1.98 -1 3 C-9.02124152 3.71413279 -16.94641862 4.14525497 -25 4 C-25 3.34 -25 2.68 -25 2 C-16.92082388 -0.33053157 -8.2945479 -2.01677307 0 0 Z " fill="#000000" transform="translate(360,241)"/>
<path d="M0 0 C0.66 0 1.32 0 2 0 C1.125 7.625 1.125 7.625 0 11 C1.32 11.33 2.64 11.66 4 12 C2 14 2 14 -0.625 14.125 C-1.40875 14.08375 -2.1925 14.0425 -3 14 C-2.88512252 12.41590006 -2.75765492 10.83271037 -2.625 9.25 C-2.55539063 8.36828125 -2.48578125 7.4865625 -2.4140625 6.578125 C-2.00149945 4.00933618 -1.28839043 2.24158985 0 0 Z " fill="#000000" transform="translate(187,212)"/>
<path d="M0 0 C2.00720923 0.28674418 4.0085944 0.61866701 6 1 C6.33 2.32 6.66 3.64 7 5 C6.01 5.33 5.02 5.66 4 6 C3.67 5.34 3.34 4.68 3 4 C1.35 4.33 -0.3 4.66 -2 5 C-1.125 1.125 -1.125 1.125 0 0 Z " fill="#000000" transform="translate(184,229)"/>
<path d="M0 0 C0.99 0.33 1.98 0.66 3 1 C2.67 2.32 2.34 3.64 2 5 C0.68 4.67 -0.64 4.34 -2 4 C-1.34 2.68 -0.68 1.36 0 0 Z " fill="#1B1B1B" transform="translate(181,212)"/>
<path d="M0 0 C0.99 0 1.98 0 3 0 C3 1.65 3 3.3 3 5 C1.68 4.67 0.36 4.34 -1 4 C-0.67 2.68 -0.34 1.36 0 0 Z " fill="#000000" transform="translate(192,213)"/>
<path d="M0 0 C1.98 0.495 1.98 0.495 4 1 C3.67 1.99 3.34 2.98 3 4 C1.68 3.67 0.36 3.34 -1 3 C-0.67 2.01 -0.34 1.02 0 0 Z " fill="#2B7FFF" transform="translate(194,122)"/>
<path d="M0 0 C0.99 0.33 1.98 0.66 3 1 C2.67 2.32 2.34 3.64 2 5 C1.01 4.67 0.02 4.34 -1 4 C-0.67 2.68 -0.34 1.36 0 0 Z " fill="#2B7FFF" transform="translate(138,74)"/>
</svg>
