<?xml version="1.0" encoding="UTF-8"?>
<svg version="1.1" xmlns="http://www.w3.org/2000/svg" width="400" height="400">
<path d="M0 0 C1.04669068 1.12032721 2.08828023 2.24543966 3.125 3.375 C8.4444698 7.87356397 15.88951596 10.03914418 22.8515625 9.7265625 C30.6115258 8.52656817 38.23655494 6.83473097 43.125 0.375 C44.125 -0.625 44.125 -0.625 46.1015625 -0.6796875 C64.7884853 0.58815682 80.99758452 9.36500327 94.125 22.375 C94.79402344 23.00664062 95.46304688 23.63828125 96.15234375 24.2890625 C97.869618 25.93735533 99.50550889 27.63126221 101.125 29.375 C101.95 30.24125 102.775 31.1075 103.625 32 C107.11638802 39.85562304 104.40507711 49.72171477 101.5390625 57.515625 C97.218871 66.25148185 90.24641455 72.12813886 81.125 75.375 C78.65 75.87 78.65 75.87 76.125 76.375 C75.135 71.755 74.145 67.135 73.125 62.375 C74.115 71.285 75.105 80.195 76.125 89.375 C70.72961389 92.45807778 67.38929625 94.10356138 61.625 95.5625 C60.3771875 95.88605469 59.129375 96.20960938 57.84375 96.54296875 C31.17723539 102.50932128 -4.5660151 101.68001941 -29.875 90.375 C-30.875 89.375 -30.875 89.375 -30.98852539 86.50756836 C-30.98328857 85.25596924 -30.97805176 84.00437012 -30.97265625 82.71484375 C-30.9712413 82.05037735 -30.96982635 81.38591095 -30.96836853 80.7013092 C-30.96275518 78.57166101 -30.95020054 76.44211661 -30.9375 74.3125 C-30.93248671 72.87174631 -30.92792351 71.43099097 -30.92382812 69.99023438 C-30.91278145 66.45178898 -30.89550792 62.91340461 -30.875 59.375 C-31.205 62.345 -31.535 65.315 -31.875 68.375 C-38.17919992 71.66414778 -44.11274964 72.71517311 -51.08203125 70.75390625 C-57.61862649 67.94179549 -61.34877991 63.14470969 -63.98046875 56.64453125 C-66.27761556 49.05090619 -66.55975299 41.90748718 -63.875 34.375 C-61.3473141 30.46297171 -58.33272637 27.47449345 -54.875 24.375 C-54.05773437 23.61574219 -53.24046875 22.85648437 -52.3984375 22.07421875 C-41.19798026 12.27804845 -27.65156939 5.73723876 -13.875 0.375 C-12.93527344 -0.03492188 -11.99554688 -0.44484375 -11.02734375 -0.8671875 C-6.35235158 -2.68641522 -3.98619819 -3.38784709 0 0 Z M71.125 52.375 C72.125 55.375 72.125 55.375 72.125 55.375 Z " fill="#2B7FFF" transform="translate(176.875,243.625)"/>
<path d="M0 0 C2.92000675 2.0857191 3.83050421 4.67143505 5 8 C6.3303125 7.8453125 6.3303125 7.8453125 7.6875 7.6875 C11 8 11 8 13.9375 10.125 C16 13 16 13 15.5625 16 C15.2840625 17.485 15.2840625 17.485 15 19 C16.78468339 21.77287937 16.78468339 21.77287937 19 24 C20.71928489 27.43856978 20.38974252 31.23248896 20 35 C18.5 38.0625 18.5 38.0625 17 40 C17.804375 40.309375 18.60875 40.61875 19.4375 40.9375 C22 42 22 42 23 43 C23.62117159 48.90113007 22.89265025 52.40066385 19.5 57.296875 C17.30200233 59.79251819 15.1394603 60.97626294 12 62 C11.01 61.67 10.02 61.34 9 61 C9 60.34 9 59.68 9 59 C10.093125 58.46375 11.18625 57.9275 12.3125 57.375 C16.07146244 55.22593662 17.48649995 53.12008347 19 49 C19.69907414 46.26427415 19.69907414 46.26427415 20 44 C18.35 44 16.7 44 15 44 C15.0825 44.886875 15.165 45.77375 15.25 46.6875 C14.94608803 50.71433365 13.81763407 52.18236593 11 55 C10.34 55 9.68 55 9 55 C8.79375 56.299375 8.5875 57.59875 8.375 58.9375 C6.8885424 65.56375113 3.7061822 70.97036335 -1.75 75.0625 C-7.74190294 76.79093354 -13.46992875 77.00642056 -19.25 74.4375 C-26.18867146 70.43066155 -29.60114772 64.36721947 -32.82421875 57.234375 C-33.865168 54.95454918 -33.865168 54.95454918 -35.6484375 53.4765625 C-37 52 -37 52 -37.15234375 49.9140625 C-37.08144531 49.15867188 -37.01054687 48.40328125 -36.9375 47.625 C-36.75927874 43.02095089 -37.96754326 41.49191988 -41 38 C-41.9375 34.4375 -41.9375 34.4375 -42 31 C-41.505 30.360625 -41.01 29.72125 -40.5 29.0625 C-38.56469852 26.88844712 -38.56469852 26.88844712 -39.4375 23.0625 C-39.55480469 22.36898437 -39.67210937 21.67546875 -39.79296875 20.9609375 C-40.17310278 17.36042275 -38.73576287 15.01605349 -36.6875 12.1875 C-34.4011239 10.57856867 -32.72977292 10.77866706 -30 11 C-29.938125 10.236875 -29.87625 9.47375 -29.8125 8.6875 C-29 6 -29 6 -26.8125 4.1875 C-23.58891957 2.82643271 -21.46695664 2.62315689 -18 3 C-17.01 3.66 -16.02 4.32 -15 5 C-14.071875 4.195625 -13.14375 3.39125 -12.1875 2.5625 C-8.11975636 -0.96287782 -5.23021423 -1.30755356 0 0 Z " fill="#000000" transform="translate(209,152)"/>
<path d="M0 0 C2.6472168 2.17724609 2.6472168 2.17724609 5.44921875 5.0234375 C6.19725517 5.7764061 6.19725517 5.7764061 6.96040344 6.54458618 C8.54569155 8.14557944 10.11628133 9.76020992 11.6875 11.375 C12.75499 12.4539858 13.82334093 13.53212057 14.89257812 14.609375 C22.63753446 22.45630169 22.63753446 22.45630169 25 26 C24.64111965 28.96076291 24.15341979 29.84658021 22 32 C22.33112687 36.10597317 22.84440382 40.03795597 24 44 C24.99 44 25.98 44 27 44 C27 44.99 27 45.98 27 47 C23.27209617 48.79430286 19.54246051 50.58497696 15.8125 52.375 C14.75740234 52.88289063 13.70230469 53.39078125 12.61523438 53.9140625 C11.08286133 54.64882812 11.08286133 54.64882812 9.51953125 55.3984375 C8.58214111 55.84880371 7.64475098 56.29916992 6.67895508 56.76318359 C1.54341194 59.1341543 -2.23891934 60.75853184 -8 60 C-10.48000156 58.46497089 -12.41088232 56.52109705 -14.4375 54.4375 C-15.57606881 53.32474871 -16.71538866 52.21276535 -17.85546875 51.1015625 C-18.3973584 50.56305664 -18.93924805 50.02455078 -19.49755859 49.46972656 C-21.34432542 47.66317208 -23.2777703 45.98039766 -25.25 44.3125 C-28.2021927 41.74346422 -31.06104033 39.09516102 -33.875 36.375 C-34.61492187 35.66085938 -35.35484375 34.94671875 -36.1171875 34.2109375 C-39.77276202 29.9182919 -40.24665765 26.22292292 -40.125 20.6875 C-40.10695313 19.61886719 -40.08890625 18.55023438 -40.0703125 17.44921875 C-40.04710937 16.64097656 -40.02390625 15.83273438 -40 15 C-31.9550335 9.91612201 -23.81046411 5.87726655 -14.9375 2.4375 C-13.58168823 1.89996094 -13.58168823 1.89996094 -12.19848633 1.3515625 C-11.33763428 1.02800781 -10.47678223 0.70445313 -9.58984375 0.37109375 C-8.82534912 0.08161865 -8.06085449 -0.20785645 -7.27319336 -0.50610352 C-4.3733617 -1.13614964 -2.81112588 -0.99034406 0 0 Z M-7.82421875 16.77734375 C-8.43910156 17.16019531 -9.05398438 17.54304688 -9.6875 17.9375 C-10.780625 18.618125 -11.87375 19.29875 -13 20 C-12.01 20.495 -12.01 20.495 -11 21 C-8.98074133 20.23399418 -8.98074133 20.23399418 -6.875 19.0625 C-6.15054688 18.68222656 -5.42609375 18.30195312 -4.6796875 17.91015625 C-4.12539063 17.60980469 -3.57109375 17.30945313 -3 17 C-5.82866925 15.68887926 -5.82866925 15.68887926 -7.82421875 16.77734375 Z M-1 20 C-3.31 21.32 -5.62 22.64 -8 24 C-7.01 24.495 -7.01 24.495 -6 25 C-3.96855359 24.06553465 -1.96466413 23.06775224 0 22 C-0.33 21.34 -0.66 20.68 -1 20 Z M-30 24 C-29.0919838 25.13199353 -28.17316174 26.25532363 -27.25 27.375 C-26.48429687 28.31472656 -26.48429687 28.31472656 -25.703125 29.2734375 C-23.91800519 31.08312318 -22.32050356 32.00117455 -20 33 C-20.9080162 31.86800647 -21.82683826 30.74467637 -22.75 29.625 C-23.51570313 28.68527344 -23.51570313 28.68527344 -24.296875 27.7265625 C-26.08199481 25.91687682 -27.67949644 24.99882545 -30 24 Z M-20 33 C-19.07347299 34.17539996 -18.13336613 35.34010577 -17.1875 36.5 C-16.66542969 37.1496875 -16.14335937 37.799375 -15.60546875 38.46875 C-14.00795167 40.34509128 -14.00795167 40.34509128 -11 40 C-12.11878383 38.82737096 -13.24523051 37.66204862 -14.375 36.5 C-15.00148438 35.8503125 -15.62796875 35.200625 -16.2734375 34.53125 C-17.86475907 32.77882569 -17.86475907 32.77882569 -20 33 Z M10.9375 36.75 C6.74118411 39.01333208 2.55199376 41.25432287 -1.75 43.3125 C-4.54758336 44.76509136 -6.06569187 45.6237283 -8 48 C-8.41673207 51.54199641 -8.41673207 51.54199641 -8 55 C-7.34 55.66 -6.68 56.32 -6 57 C-1.6713375 56.65902544 1.74198825 55.39015181 5.6171875 53.49609375 C6.63554687 53.00302734 7.65390625 52.50996094 8.703125 52.00195312 C9.74984375 51.48568359 10.7965625 50.96941406 11.875 50.4375 C13.47988281 49.65729492 13.47988281 49.65729492 15.1171875 48.86132812 C17.74822149 47.58104819 20.37558323 46.29377581 23 45 C22.67 44.34 22.34 43.68 22 43 C21.34 43 20.68 43 20 43 C19.505 38.05 19.505 38.05 19 33 C16.37718902 33 13.26910142 35.4870956 10.9375 36.75 Z " fill="#2B7FFF" transform="translate(359,101)"/>
<path d="M0 0 C2.09842594 0.03173537 4.19692549 0.05895987 6.29547119 0.0814209 C9.12209277 0.11394355 11.94764222 0.1655642 14.77383423 0.22381592 C15.58866272 0.23021591 16.40349121 0.23661591 17.24301147 0.24320984 C20.16562326 0.32149764 22.52938859 0.40787575 25.11196899 1.85614014 C31.49083568 13.82409425 24.70150568 38.67504722 23.44888306 52.14544678 C23.16854643 55.18291527 22.8966035 58.22110999 22.62484932 61.2593565 C22.35842305 64.23085262 22.0880973 67.20198388 21.81652451 70.17301369 C21.68893372 71.57086362 21.56216353 72.96878875 21.43631363 74.36679649 C18.97686314 101.55241297 18.97686314 101.55241297 16.11367798 105.73553467 C13.37810741 107.54614776 11.23304864 107.98312562 7.98770142 107.96258545 C7.18717346 107.96243439 6.38664551 107.96228333 5.56185913 107.96212769 C4.7075531 107.95180511 3.85324707 107.94148254 2.97305298 107.93084717 C2.09087097 107.92801727 1.20868896 107.92518738 0.29977417 107.92227173 C-2.51239701 107.91109428 -5.32424742 107.88599417 -8.13632202 107.86053467 C-10.04517158 107.85050172 -11.95402614 107.84137642 -13.86288452 107.83319092 C-18.53748691 107.81116291 -23.21185011 107.77664978 -27.88632202 107.73553467 C-27.88632202 106.74553467 -27.88632202 105.75553467 -27.88632202 104.73553467 C-26.82195923 104.71571533 -25.75759644 104.695896 -24.66098022 104.67547607 C-20.70045895 104.59922675 -16.74029582 104.51053953 -12.78012085 104.41815186 C-11.06827888 104.37994182 -9.3563588 104.34507515 -7.64437866 104.31365967 C-5.17917019 104.26783529 -2.71449569 104.20987054 -0.24960327 104.14959717 C0.51204636 104.13804596 1.27369598 104.12649475 2.0584259 104.11459351 C6.11286918 104.00276126 9.60794446 103.88107127 13.11367798 101.73553467 C13.83448632 100.09155853 14.50716919 98.42502255 15.11367798 96.73553467 C14.11222748 96.7421965 14.11222748 96.7421965 13.09054565 96.74899292 C6.14775735 96.79320745 -0.79499102 96.82339334 -7.73788452 96.84539795 C-10.32969792 96.85546135 -12.92149995 96.86911331 -15.51327515 96.88641357 C-19.23661096 96.91064662 -22.95979679 96.92201441 -26.68319702 96.93084717 C-28.42400543 96.94633102 -28.42400543 96.94633102 -30.19998169 96.96212769 C-31.82120941 96.96235428 -31.82120941 96.96235428 -33.47518921 96.96258545 C-34.90082184 96.96924728 -34.90082184 96.96924728 -36.35525513 96.9760437 C-38.9926426 96.72543179 -40.62463542 96.07720401 -42.88632202 94.73553467 C-42.88632202 94.40553467 -42.88632202 94.07553467 -42.88632202 93.73553467 C-28.15611903 93.1301618 -13.44273101 92.63460472 1.30117798 92.61053467 C3.03621582 92.60376709 3.03621582 92.60376709 4.80630493 92.59686279 C5.87066772 92.59879639 6.93503052 92.60072998 8.03164673 92.60272217 C8.9677478 92.6038501 9.90384888 92.60497803 10.86831665 92.60614014 C13.11367798 92.73553467 13.11367798 92.73553467 15.11367798 93.73553467 C16.03102051 83.46067683 16.94407331 73.18544751 17.85173798 62.90972996 C18.27339105 58.1376907 18.69648888 53.36578895 19.12295532 48.59417725 C19.5349015 43.9844169 19.94296521 39.37432748 20.34840393 34.7639904 C20.50331537 33.01012999 20.65959637 31.25638997 20.81730652 29.50277901 C21.038928 27.0358341 21.25555817 24.56849574 21.47109985 22.10101318 C21.53655502 21.38531158 21.60201019 20.66960999 21.66944885 19.93222046 C22.10594872 14.85196208 22.16516855 9.83464658 22.11367798 4.73553467 C0.97252611 4.71212051 -20.16862361 4.69451378 -41.30978584 4.6837225 C-51.12713175 4.67857758 -60.94446958 4.67156945 -70.7618103 4.66009521 C-79.32376641 4.65009305 -87.88571666 4.64366812 -96.44767845 4.64144617 C-100.97644964 4.64014843 -105.50520408 4.6371223 -110.03396988 4.62980461 C-114.30697867 4.6229569 -118.579964 4.6209353 -122.85297775 4.62242699 C-124.41127907 4.62215456 -125.96958128 4.62020181 -127.52787781 4.61632919 C-136.98660747 4.59399945 -146.48229566 4.59458556 -155.88632202 5.73553467 C-157.55075645 7.3999691 -157.03337791 9.37177582 -157.03573608 11.65472412 C-156.98218829 17.21546121 -156.37737997 22.54557412 -155.49569702 28.02850342 C-155.35094437 28.97019379 -155.20619171 29.91188416 -155.05705261 30.8821106 C-154.59144177 33.89705296 -154.11408337 36.90999629 -153.63632202 39.92303467 C-153.31399246 41.9964226 -152.99229855 44.06990944 -152.67123413 46.14349365 C-150.8573907 57.80938541 -149.0098302 69.47156484 -146.95370483 81.09759521 C-146.80900757 81.9281543 -146.6643103 82.75871338 -146.51522827 83.61444092 C-146.39220337 84.30094727 -146.26917847 84.98745361 -146.14242554 85.69476318 C-145.85000077 88.02496208 -145.88632202 90.38705875 -145.88632202 92.73553467 C-121.79632202 92.73553467 -97.70632202 92.73553467 -72.88632202 92.73553467 C-72.88632202 93.72553467 -72.88632202 94.71553467 -72.88632202 95.73553467 C-96.64632202 95.73553467 -120.40632202 95.73553467 -144.88632202 95.73553467 C-143.69726668 101.54729989 -143.69726668 101.54729989 -141.08384705 102.74441528 C-140.36454514 102.85669464 -139.64524323 102.968974 -138.90414429 103.08465576 C-138.0965567 103.21330017 -137.28896912 103.34194458 -136.45690918 103.4744873 C-132.16689014 103.91014581 -127.91194266 104.09390595 -123.60116577 104.14959717 C-122.65947037 104.16896332 -121.71777496 104.18832947 -120.74754333 104.20828247 C-117.77305844 104.2675234 -114.79853366 104.31423941 -111.82382202 104.36053467 C-109.79320724 104.39876563 -107.76260778 104.43782025 -105.73202515 104.47772217 C-100.78358361 104.57317855 -95.83506632 104.65741164 -90.88632202 104.73553467 C-90.88632202 105.72553467 -90.88632202 106.71553467 -90.88632202 107.73553467 C-97.45163654 107.78639684 -104.0168999 107.82133628 -110.58236694 107.84539795 C-112.81415709 107.85543283 -115.04593417 107.86906374 -117.27767944 107.88641357 C-120.49231195 107.91077228 -123.70677005 107.92204314 -126.92147827 107.93084717 C-127.9134169 107.94116974 -128.90535553 107.95149231 -129.92735291 107.96212769 C-142.49968979 107.96414715 -142.49968979 107.96414715 -146.74105835 104.00360107 C-148.18186323 101.15024841 -148.69290537 98.60465763 -149.21054077 95.44647217 C-149.31787033 94.81089386 -149.42519989 94.17531555 -149.53578186 93.52047729 C-149.89312446 91.38553488 -150.23373545 89.24828887 -150.57382202 87.11053467 C-150.82320285 85.59022391 -151.07338776 84.07004486 -151.3243103 82.54998779 C-151.87872538 79.17639519 -152.42502808 75.80159534 -152.96688843 72.42596436 C-153.7920834 67.29650819 -154.64177829 62.1713209 -155.49510193 57.04647827 C-156.24113061 52.55630049 -156.97838241 48.06470953 -157.71362305 43.57275391 C-158.07649934 41.36168941 -158.44184532 39.1510287 -158.80975342 36.9407959 C-159.33091081 33.80080262 -159.84043594 30.65911935 -160.34725952 27.51678467 C-160.50321091 26.59084503 -160.65916229 25.6649054 -160.81983948 24.71090698 C-163.41931484 8.33398017 -163.41931484 8.33398017 -160.55609131 3.48077393 C-158.54185456 1.37549802 -156.87756152 0.81810412 -153.98692322 0.57731628 C-153.26351242 0.561772 -152.54010162 0.54622772 -151.79476929 0.5302124 C-150.5368306 0.50030968 -150.5368306 0.50030968 -149.253479 0.46980286 C-148.32923126 0.45308029 -147.40498352 0.43635773 -146.45272827 0.41912842 C-145.465961 0.39825668 -144.47919373 0.37738495 -143.46252441 0.35588074 C-140.12471287 0.28843838 -136.78683026 0.22987649 -133.44882202 0.17303467 C-131.70153305 0.14176483 -131.70153305 0.14176483 -129.91894531 0.10986328 C-86.62859547 -0.64515228 -43.2917517 -0.67384857 0 0 Z " fill="#000000" transform="translate(256.8863220214844,57.26446533203125)"/>
<path d="M0 0 C1.79589844 1.47119141 1.79589844 1.47119141 3.609375 3.3515625 C4.28226562 4.03863281 4.95515625 4.72570312 5.6484375 5.43359375 C6.68871094 6.51833984 6.68871094 6.51833984 7.75 7.625 C18.1897205 18.89219707 18.1897205 18.89219707 31 27 C38.87532553 26.74207449 44.9599176 23.47626485 51.9296875 20.0625 C52.78304687 19.65773437 53.63640625 19.25296875 54.515625 18.8359375 C55.66466309 18.27205322 55.66466309 18.27205322 56.83691406 17.69677734 C59.37304471 16.87983413 60.55264386 16.99586417 63 18 C67.46529953 23.64307349 69.8928482 29.63750646 69.390625 36.83984375 C68.66121806 40.87346412 67.26167849 43.0818358 63.97167969 45.47607422 C59.98984076 47.51802612 55.98411028 48.44005503 51.640625 49.4453125 C50.73681091 49.66065643 49.83299683 49.87600037 48.90179443 50.09786987 C46.99311526 50.5506314 45.083438 50.99920326 43.17285156 51.44384766 C40.27148676 52.11999264 37.37392716 52.81084401 34.4765625 53.50390625 C32.6147915 53.9435907 30.75281838 54.38242039 28.890625 54.8203125 C28.03406311 55.02447784 27.17750122 55.22864319 26.29498291 55.43899536 C20.86818346 56.69319579 15.54669902 57.480215 10 58 C5.58104872 49.47941575 1.3951215 40.89192095 -2.375 32.0625 C-2.70822266 31.29510498 -3.04144531 30.52770996 -3.38476562 29.73706055 C-5.5510761 24.5798404 -6.96739868 19.49555301 -8 14 C-7.34 14 -6.68 14 -6 14 C-5.56655273 14.96301025 -5.13310547 15.92602051 -4.68652344 16.91821289 C-3.06488277 20.51860408 -1.43863033 24.11689678 0.18896484 27.71459961 C0.89040425 29.26677237 1.5906212 30.81949821 2.28955078 32.37280273 C3.29913203 34.61591656 4.3132124 36.85695047 5.328125 39.09765625 C5.63558655 39.78336197 5.9430481 40.46906769 6.25982666 41.17555237 C8.27419333 45.60807189 10.52879557 49.80420019 13 54 C33.93453732 49.43906748 33.93453732 49.43906748 54.75 44.375 C55.4620459 44.20589111 56.1740918 44.03678223 56.90771484 43.86254883 C60.0362562 43.01838274 61.81603387 42.2017923 64.015625 39.7890625 C65.27730615 36.21429925 64.62328896 33.69149661 64 30 C58.85346697 31.08002976 53.70776727 32.16396033 48.5625 33.25 C47.80690796 33.40928986 47.05131592 33.56857971 46.27282715 33.73269653 C36.49181401 35.79711563 26.74143325 37.92700153 17.046875 40.37109375 C16.04140625 40.57863281 15.0359375 40.78617188 14 41 C12.70835937 41.29583984 12.70835937 41.29583984 11.390625 41.59765625 C8.48788461 40.87197115 8.17155194 40.25636542 6.546875 37.8203125 C3.30705731 32.06317168 0.79091845 25.96361591 -1.75 19.875 C-2.49056641 18.14443359 -2.49056641 18.14443359 -3.24609375 16.37890625 C-5.42094333 11.21289368 -7.24605415 6.58397637 -8 1 C-4.88757954 -0.88968385 -3.42470093 -1.26160528 0 0 Z " fill="#000000" transform="translate(321,135)"/>
<path d="M0 0 C7.97793491 7.55715775 10.92539751 16.94569242 11.2890625 27.69140625 C11.03695088 37.78683232 7.86413049 46.40202045 0.8515625 53.75390625 C-1.67380521 56.012067 -4.30187359 57.92163523 -7.1484375 59.75390625 C-7.71820313 60.14578125 -8.28796875 60.53765625 -8.875 60.94140625 C-16.50542496 65.51293838 -27.8531507 66.63188111 -36.5234375 65.19140625 C-46.66021595 62.48258646 -53.90741216 57.7203554 -59.39453125 48.70703125 C-64.72710582 38.62787931 -66.03192114 26.78670943 -63.42578125 15.671875 C-60.54017931 8.06650309 -56.47134749 1.57455494 -49.1484375 -2.24609375 C-48.1584375 -1.91609375 -47.1684375 -1.58609375 -46.1484375 -1.24609375 C-46.8496875 -0.60671875 -47.5509375 0.03265625 -48.2734375 0.69140625 C-55.98057761 8.46423221 -60.18568075 17.20577036 -60.5859375 28.12890625 C-60.33272464 38.438287 -56.55837644 47.58575873 -49.2109375 54.87890625 C-43.44176859 59.6138613 -35.79776337 61.31347037 -28.5234375 62.19140625 C-19.70270048 61.04797738 -9.65658778 58.67095905 -3.42578125 51.875 C-1.27995992 48.31175541 -1.46628561 44.78008536 -2.1484375 40.75390625 C-4.23557597 37.94706486 -6.23020139 36.69939699 -9.1484375 34.75390625 C-8.9243822 30.94496618 -7.88133835 29.29432353 -5.1484375 26.81640625 C-2.75505482 24.58946985 -2.17574116 23.84673869 -1.2109375 20.56640625 C-0.98845989 17.67179514 -0.98845989 17.67179514 -2.1484375 14.75390625 C-4.3087495 13.79559794 -4.3087495 13.79559794 -6.8984375 13.19140625 C-10.42532689 12.23136473 -13.78684949 11.21059439 -17.1484375 9.75390625 C-17.1756305 8.17066937 -17.19492056 6.58729563 -17.2109375 5.00390625 C-17.22253906 4.1221875 -17.23414063 3.24046875 -17.24609375 2.33203125 C-17.15669948 -0.02797755 -16.81756571 -1.99107899 -16.1484375 -4.24609375 C-24.29846674 -5.3077208 -31.98226556 -5.08997479 -40.1484375 -4.24609375 C-40.1484375 -5.23609375 -40.1484375 -6.22609375 -40.1484375 -7.24609375 C-24.98182352 -10.2060297 -12.4305302 -9.88004293 0 0 Z " fill="#2B7FFF" transform="translate(78.1484375,103.24609375)"/>
<path d="M0 0 C4.92898662 0.42248457 6.60004933 2.60004933 10 6 C13.80601691 8.04397205 16.29026767 9 20.625 9 C24.45670031 9 26.12801707 9.47613622 29 12 C29.6875 14.375 29.6875 14.375 29 17 C26.39668715 19.60331285 23.81518783 21.48981442 20.703125 23.4375 C15.78422275 26.52387004 13.36190332 28.53032916 11 34 C7.86198811 36.38056074 4.84987164 36.48123395 1 36 C-1.375 34.5 -1.375 34.5 -3 32 C-3.32638734 29.24150058 -3.18634339 26.79515088 -3 24 C-4.11375 23.87625 -5.2275 23.7525 -6.375 23.625 C-10 23 -10 23 -12 21 C-11.86420383 16.11133799 -9.23009829 13.45545398 -6 10 C-5.278125 9.525625 -4.55625 9.05125 -3.8125 8.5625 C-1.07747253 6.2047177 -0.77676442 3.43070951 0 0 Z " fill="#2B7FFF" transform="translate(33,119)"/>
<path d="M0 0 C-0.83879984 7.39513329 -3.34588047 12.11585203 -9 17 C-16.14342273 21.02629281 -23.07676912 21.74491761 -30.89453125 19.7265625 C-36.24490567 17.88023663 -39.89798269 14.65302597 -43 10 C-44.25 6.6875 -44.25 6.6875 -45 4 C-42.10846536 4.54216274 -39.3792909 5.19185554 -36.5625 6.0625 C-26.15666839 8.62966373 -15.68277656 7.48165664 -6 3 C-1.94749403 0 -1.94749403 0 0 0 Z " fill="#000000" transform="translate(76,163)"/>
<path d="M0 0 C0.99 0.33 1.98 0.66 3 1 C3.95720618 3.87161854 4.1287398 5.69369292 4.1328125 8.67578125 C4.13474609 10.04186523 4.13474609 10.04186523 4.13671875 11.43554688 C4.13285156 12.38494141 4.12898438 13.33433594 4.125 14.3125 C4.13080078 15.71918945 4.13080078 15.71918945 4.13671875 17.15429688 C4.13542969 18.06888672 4.13414062 18.98347656 4.1328125 19.92578125 C4.13168457 20.75505127 4.13055664 21.58432129 4.12939453 22.4387207 C4 25 4 25 3.50708008 27.87768555 C2.95194808 31.29587677 2.82230692 34.5693007 2.75390625 38.03125 C2.72250107 39.40259556 2.69074921 40.77393321 2.65869141 42.14526367 C2.64332336 42.85637299 2.62795532 43.5674823 2.61212158 44.30014038 C1.34244256 100.58846291 1.34244256 100.58846291 -8.859375 112.09765625 C-15.23120466 117.93051535 -20.45468322 119.44191749 -29.0390625 119.3359375 C-33.2414251 118.8591523 -35.60928531 117.46597432 -39 115 C-39 114.34 -39 113.68 -39 113 C-34.25 113.875 -34.25 113.875 -32 115 C-25.70566332 115.64638811 -20.42724629 115.32824111 -14.75390625 112.4609375 C-4.32951257 103.77781225 -3.64817368 85.24345328 -2.4765625 72.66015625 C-1.780701 64.07321209 -1.67602308 55.45857338 -1.52319336 46.84790039 C-1.36569479 38.32883127 -0.93964337 30.1161614 0.56396484 21.70166016 C1.73316691 14.45732081 0.84633444 7.23918206 0 0 Z " fill="#000000" transform="translate(303,205)"/>
<path d="M0 0 C7.68629496 0.32026229 12.00363272 4.08248449 17.375 9.3125 C20.04372715 13.72616413 21.39233772 18.08261692 20.6953125 23.265625 C19.41258052 27.79477743 17.41658731 30.86912231 14.375 34.4375 C10.49476708 39.06110386 9.91335654 43.0711115 10 49 C10.9075 49.103125 11.815 49.20625 12.75 49.3125 C16.01961575 50.00414949 17.53717737 50.82134921 20 53 C19.814375 53.556875 19.62875 54.11375 19.4375 54.6875 C18.85395758 56.98068681 18.85395758 56.98068681 19.4375 59.1875 C20.22583877 63.12919383 20.07855455 66.99371801 20 71 C18.515 71.495 18.515 71.495 17 72 C16.6392073 69.18820232 16.2860722 66.37581501 15.9375 63.5625 C15.83373047 62.76005859 15.72996094 61.95761719 15.62304688 61.13085938 C15.37355657 59.09192132 15.18219682 57.04604939 15 55 C15.33 54.67 15.66 54.34 16 54 C12.86128812 52.43064406 10.46144178 52.64798897 7 53 C3.84045695 55.54137159 2.28459114 57.14622659 1 61 C0.77674186 63.05893621 0.59294241 65.12233653 0.4375 67.1875 C0.35371094 68.27417969 0.26992188 69.36085938 0.18359375 70.48046875 C0.12300781 71.31191406 0.06242187 72.14335937 0 73 C-0.66 73 -1.32 73 -2 73 C-3.97643376 67.07069873 -3.62108241 60.61660517 -1 55 C1.20697584 52.51715218 3.02035598 50.48982201 6 49 C6.31686329 46.84207531 6.31686329 46.84207531 6.375 44.3125 C6.76642801 39.49175503 7.89635754 36.81304646 11 33 C15.3458387 28.0093252 15.3458387 28.0093252 17.1171875 21.8515625 C16.54490989 16.59030057 15.6158858 13.07946091 12 9 C8.23341409 6.21566545 4.19600979 4.06054052 0 2 C0 1.34 0 0.68 0 0 Z " fill="#000000" transform="translate(282,145)"/>
<path d="M0 0 C0.66 0.33 1.32 0.66 2 1 C0.52592783 6.04164046 -1.70423086 10.26493851 -4.25 14.8125 C-12.32919026 29.69573318 -19.3431493 46.8106407 -16 64 C-14.20085581 69.20804897 -11.85488279 71.42976793 -7 74 C-1.91445162 75.46915842 2.84645645 74.74440074 8 74 C8 74.66 8 75.32 8 76 C1.25660153 79.02964279 -3.98976058 79.61095652 -11 77 C-16.0380638 74.25870058 -18.18654849 70.3449097 -20 65 C-25.7651236 44.56001633 -12.40513804 20.99086192 -3.04980469 3.71728516 C-2 2 -2 2 0 0 Z " fill="#000000" transform="translate(116,241)"/>
<path d="M0 0 C0 0.99 0 1.98 0 3 C-0.99478867 3.00879936 -0.99478867 3.00879936 -2.00967407 3.01777649 C-8.92062848 3.08177708 -15.8311201 3.16621457 -22.74169922 3.26245117 C-25.3197621 3.29567781 -27.89789733 3.32371673 -30.47607422 3.34643555 C-34.18488354 3.38002207 -37.8930312 3.43234244 -41.6015625 3.48828125 C-42.75177887 3.49467117 -43.90199524 3.5010611 -45.08706665 3.50764465 C-53.02716386 3.54811056 -53.02716386 3.54811056 -60 7 C-61.35037047 9.42723783 -61.35037047 9.42723783 -61.8984375 12.296875 C-62.14980469 13.3384375 -62.40117188 14.38 -62.66015625 15.453125 C-62.89605469 16.54109375 -63.13195312 17.6290625 -63.375 18.75 C-63.63410156 19.8225 -63.89320312 20.895 -64.16015625 22 C-65.42551515 27.43635676 -66.3348642 32.41893004 -66 38 C-63.29816945 39.35091528 -60.88191794 39.33858058 -57.875 39.5625 C-56.77929688 39.64628906 -55.68359375 39.73007813 -54.5546875 39.81640625 C-53.29011719 39.90728516 -53.29011719 39.90728516 -52 40 C-52 40.66 -52 41.32 -52 42 C-57.67184119 42.91154591 -62.33891747 43.07365358 -68 42 C-70 40 -70 40 -70.26953125 36.07421875 C-70.1409755 30.48819186 -68.97478136 25.23088485 -67.6875 19.8125 C-67.47416016 18.85408203 -67.26082031 17.89566406 -67.04101562 16.90820312 C-64.1454982 4.40129654 -64.1454982 4.40129654 -60.27416992 1.87280273 C-57.43963516 0.78493781 -55.06706734 0.67612403 -52.03125 0.5859375 C-50.83258301 0.54718506 -49.63391602 0.50843262 -48.39892578 0.46850586 C-47.11228027 0.43764893 -45.82563477 0.40679199 -44.5 0.375 C-43.18112793 0.33705322 -41.86225586 0.29910645 -40.50341797 0.26000977 C-27.00390353 -0.1079936 -13.50349928 -0.10232309 0 0 Z " fill="#000000" transform="translate(163,188)"/>
<path d="M0 0 C0.66 0 1.32 0 2 0 C2 0.99 2 1.98 2 3 C3.81325551 2.88648483 5.62563357 2.75887039 7.4375 2.625 C8.44683594 2.55539063 9.45617187 2.48578125 10.49609375 2.4140625 C11.32238281 2.27742187 12.14867187 2.14078125 13 2 C13.33 1.34 13.66 0.68 14 0 C14.66 0 15.32 0 16 0 C16 0.99 16 1.98 16 3 C18.97 3 21.94 3 25 3 C25 2.34 25 1.68 25 1 C25.99 1 26.98 1 28 1 C28 1.66 28 2.32 28 3 C30.31 3 32.62 3 35 3 C35 3.66 35 4.32 35 5 C32.69 5 30.38 5 28 5 C28 8.3 28 11.6 28 15 C31.3 15 34.6 15 38 15 C38 15.99 38 16.98 38 18 C34.37 18 30.74 18 27 18 C27 18.99 27 19.98 27 21 C26.34 21 25.68 21 25 21 C25 20.01 25 19.02 25 18 C21.7 17.67 18.4 17.34 15 17 C15 16.34 15 15.68 15 15 C18.3 15 21.6 15 25 15 C25 12.03 25 9.06 25 6 C22.8034375 6.185625 22.8034375 6.185625 20.5625 6.375 C19.73878906 6.44460937 18.91507813 6.51421875 18.06640625 6.5859375 C17.38449219 6.72257813 16.70257813 6.85921875 16 7 C15.67 7.66 15.34 8.32 15 9 C14.34 9 13.68 9 13 9 C13 8.01 13 7.02 13 6 C9.04 6 5.08 6 1 6 C0.67 6.99 0.34 7.98 0 9 C-0.33 8.01 -0.66 7.02 -1 6 C-4.3 6 -7.6 6 -11 6 C-11.33 7.65 -11.66 9.3 -12 11 C-12.66 11 -13.32 11 -14 11 C-14 9.35 -14 7.7 -14 6 C-15.32 6 -16.64 6 -18 6 C-18 5.01 -18 4.02 -18 3 C-15.36 2.34 -12.72 1.68 -10 1 C-10 1.66 -10 2.32 -10 3 C-8.5199159 2.88637738 -7.04089926 2.75877092 -5.5625 2.625 C-4.32693359 2.52058594 -4.32693359 2.52058594 -3.06640625 2.4140625 C-2.38449219 2.27742187 -1.70257813 2.14078125 -1 2 C-0.67 1.34 -0.34 0.68 0 0 Z " fill="#000000" transform="translate(125,196)"/>
<path d="M0 0 C3.73504052 0.01039541 7.47008822 0.01483167 11.20513916 0.01983643 C18.47924676 0.03042792 25.7533197 0.04739967 33.02740479 0.06866455 C33.02740479 1.05866455 33.02740479 2.04866455 33.02740479 3.06866455 C15.90541364 3.86688436 -1.18243951 4.22915911 -18.32269287 4.19903564 C-22.05368891 4.19354522 -25.78457094 4.19909158 -29.51556396 4.2053833 C-31.89707465 4.20472452 -34.27858526 4.20344754 -36.66009521 4.20147705 C-38.32685303 4.2045134 -38.32685303 4.2045134 -40.02728271 4.20761108 C-41.04435303 4.20445892 -42.06142334 4.20130676 -43.10931396 4.19805908 C-44.00352051 4.19726349 -44.89772705 4.1964679 -45.81903076 4.19564819 C-47.97259521 4.06866455 -47.97259521 4.06866455 -49.97259521 3.06866455 C-49.97259521 2.40866455 -49.97259521 1.74866455 -49.97259521 1.06866455 C-33.32464638 -0.13727507 -16.67976384 -0.05147073 0 0 Z " fill="#000000" transform="translate(65.97259521484375,266.93133544921875)"/>
<path d="M0 0 C1.59142319 0.0001133 1.59142319 0.0001133 3.21499634 0.00022888 C4.36398407 0.00539017 5.5129718 0.01055145 6.69677734 0.01586914 C7.87033783 0.01728409 9.04389832 0.01869904 10.25302124 0.02015686 C14.0129447 0.0257685 17.77280929 0.03832301 21.53271484 0.05102539 C24.07698482 0.05603889 26.62125572 0.06060206 29.16552734 0.06469727 C35.41294337 0.07574171 41.6603249 0.09249121 47.90771484 0.11352539 C47.90771484 1.43352539 47.90771484 2.75352539 47.90771484 4.11352539 C42.83508301 4.94730328 37.91489022 5.26092762 32.77099609 5.24633789 C31.62995674 5.24777298 31.62995674 5.24777298 30.46586609 5.24923706 C28.86322954 5.24991398 27.26059018 5.24809397 25.65795898 5.24389648 C23.24440106 5.23857868 20.8310324 5.24383888 18.41748047 5.25024414 C9.86455199 5.25354758 1.42204521 5.03473082 -7.09228516 4.11352539 C-7.09228516 3.12352539 -7.09228516 2.13352539 -7.09228516 1.11352539 C-4.56484427 -0.15019505 -2.82848207 -0.00670256 0 0 Z " fill="#000000" transform="translate(211.09228515625,80.886474609375)"/>
<path d="M0 0 C3.88820784 5.6703031 3.16028259 13.56954355 3.5 20.1875 C3.53544922 20.86506348 3.57089844 21.54262695 3.60742188 22.24072266 C3.70144916 24.26470789 3.76229329 26.28699638 3.8125 28.3125 C3.86857422 30.14167969 3.86857422 30.14167969 3.92578125 32.0078125 C3.5 35.1875 3.5 35.1875 1.97631836 37.36181641 C-1.4406658 39.88101265 -4.47091358 39.69108594 -8.546875 39.578125 C-9.70367767 39.56963531 -9.70367767 39.56963531 -10.8838501 39.56097412 C-13.33987279 39.53863589 -15.79442055 39.48844763 -18.25 39.4375 C-19.91794763 39.41743154 -21.58591821 39.39918137 -23.25390625 39.3828125 C-27.33650323 39.33877992 -31.41800181 39.26977283 -35.5 39.1875 C-35.5 38.5275 -35.5 37.8675 -35.5 37.1875 C-33.96291382 37.10447632 -33.96291382 37.10447632 -32.39477539 37.01977539 C-28.60576861 36.81388264 -24.81712602 36.60185583 -21.02856445 36.38793945 C-19.38640523 36.29608519 -17.74415111 36.20591195 -16.10180664 36.11743164 C-13.74598861 35.99022457 -11.39057406 35.85704596 -9.03515625 35.72265625 C-8.29660904 35.68406998 -7.55806183 35.6454837 -6.7971344 35.60572815 C-3.35475293 35.69082596 -3.35475293 35.69082596 -0.5 34.1875 C0.71694816 17.69461614 0.71694816 17.69461614 -3.59375 2.37890625 C-6.58260098 0.51087438 -9.75953001 0.61202516 -13.1875 0.5 C-14.2403418 0.44875977 -14.2403418 0.44875977 -15.31445312 0.39648438 C-17.04241387 0.31420053 -18.77118072 0.2491676 -20.5 0.1875 C-20.5 -0.4725 -20.5 -1.1325 -20.5 -1.8125 C-5.46296296 -3.96064815 -5.46296296 -3.96064815 0 0 Z " fill="#000000" transform="translate(251.5,189.8125)"/>
<path d="M0 0 C1.7669258 0.00502982 3.533853 0.00959008 5.30078125 0.01367188 C9.57555626 0.0245491 13.85026208 0.04173023 18.125 0.0625 C18.62 1.5475 18.62 1.5475 19.125 3.0625 C17.125 5.0625 17.125 5.0625 14.98629761 5.30300903 C14.1024942 5.29856781 13.2186908 5.29412659 12.30810547 5.28955078 C11.30721893 5.28939972 10.3063324 5.28924866 9.27511597 5.28909302 C7.65006638 5.27360916 7.65006638 5.27360916 5.9921875 5.2578125 C4.88521515 5.2549826 3.7782428 5.25215271 2.63772583 5.24923706 C-0.90829137 5.23801519 -4.45405875 5.21290691 -8 5.1875 C-10.39973594 5.1774728 -12.79947583 5.1683465 -15.19921875 5.16015625 C-21.09123151 5.13806932 -26.98309791 5.10457207 -32.875 5.0625 C-33.205 3.7425 -33.535 2.4225 -33.875 1.0625 C-22.56352899 0.02621878 -11.34784507 -0.05683574 0 0 Z " fill="#000000" transform="translate(160.875,79.9375)"/>
<path d="M0 0 C25.08 0 50.16 0 76 0 C76 0.99 76 1.98 76 3 C66.53379822 3.02315348 57.06760616 3.04093046 47.60138226 3.05181217 C43.20600574 3.0570344 38.81064858 3.06412013 34.4152832 3.07543945 C30.17482627 3.08629171 25.93438797 3.09228182 21.69391823 3.09487724 C20.07477335 3.09672726 18.4556295 3.1003398 16.83649254 3.10573006 C14.57155515 3.11297148 12.30669511 3.11398962 10.04174805 3.11352539 C8.10648506 3.11685631 8.10648506 3.11685631 6.13212585 3.12025452 C3 3 3 3 0 2 C0 1.34 0 0.68 0 0 Z " fill="#000000" transform="translate(309,267)"/>
<path d="M0 0 C1.7096288 2.10023935 3.24021767 4.14229257 4.75 6.375 C5.16121094 6.9525 5.57242188 7.53 5.99609375 8.125 C8.28346217 11.45346302 9 12.84358918 9 17 C4.7158797 15.47547071 3.13529708 12.61196542 0.75 8.875 C0.04359375 7.77929688 -0.6628125 6.68359375 -1.390625 5.5546875 C-1.92171875 4.71164063 -2.4528125 3.86859375 -3 3 C-10.19215094 5.70162015 -14.01889005 9.17527206 -17.23828125 16.03515625 C-18.791597 20.04191432 -19.11373351 23.44638483 -19.0625 27.75 C-19.05347656 28.73484375 -19.04445313 29.7196875 -19.03515625 30.734375 C-19.02355469 31.48203125 -19.01195312 32.2296875 -19 33 C-19.66 33 -20.32 33 -21 33 C-23.66088099 27.67823802 -22.76427852 19.65354645 -21.1640625 14.09765625 C-17.92414025 7.04158397 -12.95382678 2.24649249 -6.25 -1.5625 C-3.27552412 -2.14087031 -2.52781325 -1.67147072 0 0 Z " fill="#000000" transform="translate(32,92)"/>
<path d="M0 0 C0.66 0 1.32 0 2 0 C2.01417969 0.71285156 2.02835937 1.42570313 2.04296875 2.16015625 C2.31632613 8.91016126 2.31632613 8.91016126 5.5625 14.625 C9.37569449 19.20891586 8.20342022 24.60886316 7.7253418 30.22851562 C7.37019561 33.80250266 6.97338271 37.36950918 6.5625 40.9375 C6.42779297 42.16791016 6.29308594 43.39832031 6.15429688 44.66601562 C5.13069696 53.73860608 5.13069696 53.73860608 4 56 C3.34 56 2.68 56 2 56 C1.73148109 48.25770489 2.24074822 40.79921835 3.28857422 33.14086914 C4.75993373 24.26981525 4.75993373 24.26981525 2.0625 16.1875 C1.0415625 15.1046875 1.0415625 15.1046875 0 14 C-0.99293628 11.02119115 -1.13406411 8.98398802 -1.125 5.875 C-1.12757813 4.98554688 -1.13015625 4.09609375 -1.1328125 3.1796875 C-1 1 -1 1 0 0 Z " fill="#000000" transform="translate(275,212)"/>
<path d="M0 0 C1.02787125 0.00212242 1.02787125 0.00212242 2.07650757 0.00428772 C4.26719511 0.0098895 6.4577808 0.02244219 8.6484375 0.03515625 C10.13281102 0.04017103 11.61718615 0.04473397 13.1015625 0.04882812 C16.74222065 0.05985948 20.38281914 0.07712526 24.0234375 0.09765625 C24.0234375 1.41765625 24.0234375 2.73765625 24.0234375 4.09765625 C1.22985793 6.01136008 1.22985793 6.01136008 -8.9765625 4.09765625 C-8.9765625 3.10765625 -8.9765625 2.11765625 -8.9765625 1.09765625 C-6.00296801 -0.389141 -3.31357071 -0.0134698 0 0 Z " fill="#000000" transform="translate(137.9765625,90.90234375)"/>
<path d="M0 0 C10.56 0 21.12 0 32 0 C32.495 1.98 32.495 1.98 33 4 C22.11 4 11.22 4 0 4 C0 2.68 0 1.36 0 0 Z " fill="#000000" transform="translate(205,91)"/>
<path d="M0 0 C3.4375 0.8125 3.4375 0.8125 7 2 C7.33 2.99 7.66 3.98 8 5 C6.35 5 4.7 5 3 5 C3 8.3 3 11.6 3 15 C4.98 15 6.96 15 9 15 C8.67 15.99 8.34 16.98 8 18 C6.68 18 5.36 18 4 18 C4 18.99 4 19.98 4 21 C3.01 20.67 2.02 20.34 1 20 C1 19.34 1 18.68 1 18 C-2.96 18 -6.92 18 -11 18 C-11 17.34 -11 16.68 -11 16 C-6.9472484 15.01751476 -3.16138263 14.91840426 1 15 C0.67 11.7 0.34 8.4 0 5 C-1.32 5 -2.64 5 -4 5 C-3.67 4.01 -3.34 3.02 -3 2 C-2.01 2 -1.02 2 0 2 C0 1.34 0 0.68 0 0 Z " fill="#000000" transform="translate(238,197)"/>
<path d="M0 0 C0.66 0 1.32 0 2 0 C2.36076925 5.07081218 2.5619882 8.87602359 0.25 13.5 C-2 16 -2 16 -4.10546875 16.89453125 C-4.73066406 17.25933594 -5.35585937 17.62414062 -6 18 C-6.59152487 19.95353036 -6.59152487 19.95353036 -6.5625 22.1875 C-6.85708037 26.73876677 -8.00243321 29.9180157 -10 34 C-10.66 34 -11.32 34 -12 34 C-11.53315634 31.57638608 -11.05447937 29.15615113 -10.55859375 26.73828125 C-10.21885635 25.07285526 -9.89435808 23.40409751 -9.59765625 21.73046875 C-8.87490938 18.13050102 -8.2569273 16.24375154 -5.5625 13.6875 C-1.80166534 9.74321 -1.12634191 5.2287905 0 0 Z " fill="#000000" transform="translate(144,223)"/>
<path d="M0 0 C0.598125 0.20625 1.19625 0.4125 1.8125 0.625 C1.8125 1.615 1.8125 2.605 1.8125 3.625 C0.4925 3.295 -0.8275 2.965 -2.1875 2.625 C-1.8028821 8.29811399 -1.36444415 11.44805585 2.8125 15.625 C3.4725 15.955 4.1325 16.285 4.8125 16.625 C4.8125 17.615 4.8125 18.605 4.8125 19.625 C1.37438206 19.33849017 0.07078807 18.89066773 -2.375 16.375 C-5.0905658 12.2548312 -6.25490388 9.95060957 -6 4.9375 C-5.09295538 1.23954885 -4.12554428 -0.70723616 0 0 Z " fill="#000000" transform="translate(169.1875,193.375)"/>
<path d="M0 0 C9.9 0 19.8 0 30 0 C29.67 0.99 29.34 1.98 29 3 C9.65957447 3.19148936 9.65957447 3.19148936 0 2 C0 1.34 0 0.68 0 0 Z " fill="#000000" transform="translate(150,228)"/>
<path d="M0 0 C0.66 0 1.32 0 2 0 C2.04898438 0.92941406 2.09796875 1.85882813 2.1484375 2.81640625 C2.53436623 9.19753821 3.06017658 14.92188662 5 21 C5.125 23.9375 5.125 23.9375 5 26 C0.85945037 22.68756029 -0.35127317 19.10769733 -1 14 C-1.53424658 3.06849315 -1.53424658 3.06849315 0 0 Z " fill="#000000" transform="translate(113,214)"/>
<path d="M0 0 C7.59 0 15.18 0 23 0 C22.67 0.99 22.34 1.98 22 3 C15.07 3 8.14 3 1 3 C0.67 2.01 0.34 1.02 0 0 Z " fill="#000000" transform="translate(219,133)"/>
<path d="M0 0 C0 0.66 0 1.32 0 2 C-2.32343556 3.16171778 -3.69633316 3.12903969 -6.28125 3.1328125 C-7.54388672 3.13474609 -7.54388672 3.13474609 -8.83203125 3.13671875 C-10.15267578 3.13091797 -10.15267578 3.13091797 -11.5 3.125 C-12.38042969 3.12886719 -13.26085937 3.13273437 -14.16796875 3.13671875 C-15.00972656 3.13542969 -15.85148438 3.13414063 -16.71875 3.1328125 C-17.49154297 3.13168457 -18.26433594 3.13055664 -19.06054688 3.12939453 C-21 3 -21 3 -23 2 C-23 1.34 -23 0.68 -23 0 C-19.54210946 -0.19635974 -16.08367803 -0.38058252 -12.625 -0.5625 C-11.64015625 -0.61857422 -10.6553125 -0.67464844 -9.640625 -0.73242188 C-8.69960937 -0.78076172 -7.75859375 -0.82910156 -6.7890625 -0.87890625 C-5.48509521 -0.94960327 -5.48509521 -0.94960327 -4.15478516 -1.02172852 C-2 -1 -2 -1 0 0 Z " fill="#000000" transform="translate(243,108)"/>
<path d="M0 0 C7.26 0 14.52 0 22 0 C21.67 0.99 21.34 1.98 21 3 C14.07 3 7.14 3 0 3 C0 2.01 0 1.02 0 0 Z " fill="#000000" transform="translate(146,108)"/>
<path d="M0 0 C7.92 0 15.84 0 24 0 C24 0.66 24 1.32 24 2 C19.0128318 2.8150236 14.25748817 3.13510965 9.1875 3.125 C7.88167969 3.12757813 6.57585937 3.13015625 5.23046875 3.1328125 C2 3 2 3 0 2 C0 1.34 0 0.68 0 0 Z " fill="#000000" transform="translate(146,132)"/>
<path d="M0 0 C0.66 0 1.32 0 2 0 C2.08172936 2.5215021 2.14083373 5.04029917 2.1875 7.5625 C2.22520508 8.61920898 2.22520508 8.61920898 2.26367188 9.69726562 C2.33532304 14.88003315 1.32172598 18.36264182 -1 23 C-1.66 23 -2.32 23 -3 23 C-2.01 15.41 -1.02 7.82 0 0 Z " fill="#000000" transform="translate(287,201)"/>
<path d="M0 0 C0.99 0 1.98 0 3 0 C2.65775391 1.28583984 2.65775391 1.28583984 2.30859375 2.59765625 C0.08467311 11.26889647 0.08467311 11.26889647 1 20 C-0.9375 19.375 -0.9375 19.375 -3 18 C-4.7382115 12.90952348 -3.6265858 7.99390376 -2 3 C-1.34 2.01 -0.68 1.02 0 0 Z " fill="#000000" transform="translate(134,209)"/>
<path d="M0 0 C0.99 0.33 1.98 0.66 3 1 C2.73445312 1.556875 2.46890625 2.11375 2.1953125 2.6875 C-0.14769018 7.74975396 -1.81099626 12.55039954 -3 18 C-3.66 18 -4.32 18 -5 18 C-5.55797683 11.30427803 -4.61897757 6.69734622 -1 1 C-0.67 0.67 -0.34 0.34 0 0 Z " fill="#000000" transform="translate(129,204)"/>
<path d="M0 0 C1.13598633 0.00483398 1.13598633 0.00483398 2.29492188 0.00976562 C3.47344727 0.02233398 3.47344727 0.02233398 4.67578125 0.03515625 C5.47306641 0.03966797 6.27035156 0.04417969 7.09179688 0.04882812 C9.05732382 0.06059775 11.0228121 0.07853277 12.98828125 0.09765625 C12.98828125 0.75765625 12.98828125 1.41765625 12.98828125 2.09765625 C10.28111883 3.00004372 8.75051357 3.21616927 5.9765625 3.1953125 C4.84057617 3.19047852 4.84057617 3.19047852 3.68164062 3.18554688 C2.89595703 3.17716797 2.11027344 3.16878906 1.30078125 3.16015625 C0.50349609 3.15564453 -0.29378906 3.15113281 -1.11523438 3.14648438 C-3.08076132 3.13471475 -5.0462496 3.11677973 -7.01171875 3.09765625 C-7.01171875 2.43765625 -7.01171875 1.77765625 -7.01171875 1.09765625 C-4.30455633 0.19526878 -2.77395107 -0.02085677 0 0 Z " fill="#000000" transform="translate(228.01171875,119.90234375)"/>
<path d="M0 0 C0.66 0 1.32 0 2 0 C2.32873343 6.02677947 1.8874859 11.56962527 -1 17 C-1.99 17.33 -2.98 17.66 -4 18 C-2.9611908 11.8887076 -1.84269722 5.92295536 0 0 Z " fill="#000000" transform="translate(184,226)"/>
<path d="M0 0 C0.70189453 0.00451172 1.40378906 0.00902344 2.12695312 0.01367188 C3.85550538 0.02543073 5.58401365 0.04336546 7.3125 0.0625 C7.6425 1.0525 7.9725 2.0425 8.3125 3.0625 C2.0425 3.0625 -4.2275 3.0625 -10.6875 3.0625 C-10.6875 2.4025 -10.6875 1.7425 -10.6875 1.0625 C-7.06882441 -0.1437252 -3.76243749 -0.04566918 0 0 Z " fill="#000000" transform="translate(156.6875,119.9375)"/>
<path d="M0 0 C0.66 0 1.32 0 2 0 C2.67321284 2.24805002 3.33834123 4.49852224 4 6.75 C4.556875 8.62945312 4.556875 8.62945312 5.125 10.546875 C6 14 6 14 6 18 C5.34 18 4.68 18 4 18 C1.13035626 11.74827614 -0.51137226 6.90352555 0 0 Z " fill="#000000" transform="translate(211,226)"/>
<path d="M0 0 C0.99 0.33 1.98 0.66 3 1 C4.2710735 4.16678884 4.10265074 7.37733787 4.0625 10.75 C4.05347656 11.73484375 4.04445313 12.7196875 4.03515625 13.734375 C4.02355469 14.48203125 4.01195312 15.2296875 4 16 C3.01 16.33 2.02 16.66 1 17 C0.67 11.39 0.34 5.78 0 0 Z " fill="#000000" transform="translate(292,199)"/>
<path d="M0 0 C0.66 0 1.32 0 2 0 C1.9278125 0.88042969 1.855625 1.76085937 1.78125 2.66796875 C1.6884375 3.82941406 1.595625 4.99085938 1.5 6.1875 C1.4071875 7.33605469 1.314375 8.48460937 1.21875 9.66796875 C1.0354038 12.46072426 0.95786363 15.20319812 1 18 C0.01 18 -0.98 18 -2 18 C-2.054348 15.9377952 -2.09294961 13.87517184 -2.125 11.8125 C-2.14820312 10.66394531 -2.17140625 9.51539063 -2.1953125 8.33203125 C-2.00484152 5.08259628 -1.39360127 2.91339479 0 0 Z " fill="#000000" transform="translate(119,206)"/>
<path d="M0 0 C0.99 0 1.98 0 3 0 C2.40269644 3.34489996 1.42082645 5.57917355 -1 8 C-3.5625 8.375 -3.5625 8.375 -6 8 C-6.66 7.34 -7.32 6.68 -8 6 C-8 5.01 -8 4.02 -8 3 C-5.525 3.495 -5.525 3.495 -3 4 C-2.3503125 3.01 -2.3503125 3.01 -1.6875 2 C-1.130625 1.34 -0.57375 0.68 0 0 Z " fill="#2B7FFF" transform="translate(212,117)"/>
<path d="M0 0 C0.99 0 1.98 0 3 0 C1.68775452 3.93673644 0.08089673 6.22719294 -3 9 C-4.7074998 7.71937515 -6.37373596 6.38232443 -8 5 C-8 4.34 -8 3.68 -8 3 C-6.576875 3.0928125 -6.576875 3.0928125 -5.125 3.1875 C-3.578125 3.0946875 -3.578125 3.0946875 -2 3 C-1.34 2.01 -0.68 1.02 0 0 Z " fill="#2B7FFF" transform="translate(138,105)"/>
<path d="M0 0 C1.98 0.495 1.98 0.495 4 1 C4.25 8.625 4.25 8.625 2 12 C1.01 12 0.02 12 -1 12 C-0.67 11.01 -0.34 10.02 0 9 C0.06740865 7.43881572 0.08514456 5.8749748 0.0625 4.3125 C0.05347656 3.50425781 0.04445313 2.69601563 0.03515625 1.86328125 C0.02355469 1.24839844 0.01195312 0.63351563 0 0 Z " fill="#000000" transform="translate(335,176)"/>
<path d="M0 0 C0.66 0 1.32 0 2 0 C2.144375 1.2375 2.28875 2.475 2.4375 3.75 C2.78688502 6.56504499 3.20379366 9.2701497 4 12 C2.0625 11.6875 2.0625 11.6875 0 11 C-1.16461426 7.50615721 -1.13568319 4.66344611 -1 1 C-0.67 0.67 -0.34 0.34 0 0 Z " fill="#000000" transform="translate(379,133)"/>
<path d="M0 0 C0.99 0 1.98 0 3 0 C3.33 1.32 3.66 2.64 4 4 C2.35 4.33 0.7 4.66 -1 5 C-1 1 -1 1 0 0 Z " fill="#2B7FFF" transform="translate(134,120)"/>
<path d="M0 0 C0.99 0.66 1.98 1.32 3 2 C2.67 3.32 2.34 4.64 2 6 C0.68 5.67 -0.64 5.34 -2 5 C-2 3.68 -2 2.36 -2 1 C-1.34 0.67 -0.68 0.34 0 0 Z " fill="#2B7FFF" transform="translate(208,106)"/>
<path d="M0 0 C1.98 0.495 1.98 0.495 4 1 C3.67 2.32 3.34 3.64 3 5 C1.68 4.67 0.36 4.34 -1 4 C-0.67 2.68 -0.34 1.36 0 0 Z " fill="#2B7FFF" transform="translate(135,132)"/>
<path d="M0 0 C1.32 0 2.64 0 4 0 C4 1.32 4 2.64 4 4 C2.35 3.67 0.7 3.34 -1 3 C-0.67 2.01 -0.34 1.02 0 0 Z " fill="#2B7FFF" transform="translate(206,133)"/>
</svg>
