<?xml version="1.0" encoding="UTF-8"?>
<svg version="1.1" xmlns="http://www.w3.org/2000/svg" width="400" height="400">
<path d="M0 0 C1.8125 0.125 1.8125 0.125 4 1 C7.27239732 5.67485332 7.90382416 10.46186174 7 16 C6.23623047 17.44246094 6.23623047 17.44246094 5.45703125 18.9140625 C2.89584605 24.57534895 3.95448179 30.89554665 4.3125 36.9375 C4.37373047 38.19369141 4.43496094 39.44988281 4.49804688 40.74414062 C4.65060447 43.83049817 4.81835643 46.91524042 5 50 C6.65 50 8.3 50 10 50 C10.02505615 50.85005615 10.0501123 51.7001123 10.07592773 52.57592773 C10.17277103 55.82094663 10.27185636 59.06588273 10.37231445 62.31079102 C10.41483779 63.69813481 10.45654294 65.085504 10.49731445 66.47290039 C10.71365107 73.81499113 10.99226801 81.13844223 11.4765625 88.46875 C12.01135287 96.81735249 12.23838497 105.17371965 12.46484375 113.53515625 C12.5040793 114.96199049 12.54331986 116.3888246 12.58256531 117.81565857 C12.7437285 123.71982286 12.90210492 129.62404045 13.04956055 135.52856445 C13.14121133 139.18588273 13.24069617 142.8429231 13.34482002 146.49990654 C13.4002137 148.51997866 13.44733509 150.54027243 13.49412537 152.56056213 C13.68995557 159.31897701 14.0683521 166.04865891 14.74829102 172.77514648 C14.93815331 174.74196632 14.93815331 174.74196632 15.1318512 176.7485199 C15.69977924 180.10922317 15.69977924 180.10922317 18.23594666 181.90858459 C20.50755501 182.94634642 22.54024666 183.59510233 25 184 C25.33 183.01 25.66 182.02 26 181 C25.175 180.319375 24.35 179.63875 23.5 178.9375 C21 176 21 176 20.375 172.8125 C20.95886638 169.25091509 21.66755142 167.5642604 23.375 164.5 C25.74563968 160.14386658 26.5214307 156.42422704 27.0625 151.5 C28.41352814 139.49756252 32.23614749 132.39263961 41 124 C41.99 123.34 42.98 122.68 44 122 C43.36191406 121.79503906 42.72382813 121.59007812 42.06640625 121.37890625 C41.24011719 121.10949219 40.41382813 120.84007812 39.5625 120.5625 C38.73878906 120.29566406 37.91507812 120.02882813 37.06640625 119.75390625 C35 119 35 119 34 118 C33.95907063 115.66702567 33.95758277 113.33294775 34 111 C33.41992188 110.89042969 32.83984375 110.78085938 32.2421875 110.66796875 C27.40253723 109.6856635 23.34633884 108.45178089 19 106 C19.0506899 103.26274529 19.50572193 101.52278751 21.40527344 99.51367188 C23.35308979 97.86397993 25.34528978 96.29785807 27.375 94.75 C28.83756391 93.60327811 30.29980209 92.45614068 31.76171875 91.30859375 C32.84332275 90.46917236 32.84332275 90.46917236 33.94677734 89.61279297 C37.60174899 86.74183664 41.12492339 83.71443511 44.66796875 80.70703125 C47.13185611 78.90348221 49.06920124 77.85558661 52 77 C54.21313477 77.6875 54.21313477 77.6875 56.44140625 79 C57.26721191 79.47179687 58.09301758 79.94359375 58.94384766 80.4296875 C59.80800293 80.94789063 60.6721582 81.46609375 61.5625 82 C63.35117832 83.04455955 65.14154012 84.08624181 66.93359375 85.125 C67.79968262 85.62902344 68.66577148 86.13304687 69.55810547 86.65234375 C71.65042294 87.80707205 73.69896611 88.79057976 75.91015625 89.6875 C78.92636471 90.91890467 81.44855196 91.97314875 84 94 C85.46711524 97.64342641 85.69846166 101.11547671 86 105 C87.48051402 108.70128505 88.17212219 109.6048765 91.75 111.3125 C95.70874923 110.93185104 96.12967606 110.13262482 98.625 107.1875 C99.44871094 106.09501953 99.44871094 106.09501953 100.2890625 104.98046875 C102.10266685 102.8811596 103.41806113 101.96440009 106 101 C106.99 101 107.98 101 109 101 C107.88820837 104.33537489 106.52588702 105.63707344 104 108 C106.97 108 109.94 108 113 108 C113 108.66 113 109.32 113 110 C110.525 110.99 110.525 110.99 108 112 C108.99 112.66 109.98 113.32 111 114 C111 114.66 111 115.32 111 116 C107.41604315 115.88995839 103.83312083 115.75936703 100.25 115.625 C99.23421875 115.5940625 98.2184375 115.563125 97.171875 115.53125 C96.1921875 115.49257812 95.2125 115.45390625 94.203125 115.4140625 C92.85202637 115.36693115 92.85202637 115.36693115 91.47363281 115.31884766 C88.86938958 114.98316451 87.21956165 114.38310782 85 113 C81.93688701 108.9943907 81.06592832 104.83767469 80 100 C76.60662762 102.1116816 76.60662762 102.1116816 74 105 C73.75919029 107.61510898 73.9379265 110.06932392 74.1015625 112.6875 C74 115 74 115 71.8125 117.5625 C69.12684627 118.93516746 66.98481393 119.65887841 64 120 C63.3125 118.1875 63.3125 118.1875 63 116 C64.4375 114.25 64.4375 114.25 66 113 C57.65690244 111.57989829 50.65645832 110.93738946 43 115 C42.34 115.66 41.68 116.32 41 117 C42.98 117.66 44.96 118.32 47 119 C47 119.66 47 120.32 47 121 C47.66 120.67 48.32 120.34 49 120 C57.21080505 118.78487029 62.55952513 121.7126717 69.015625 126.4921875 C73.68221166 130.27643634 76.7716267 134.00133943 78 140 C78.05572674 141.35956601 78.06283393 142.72178655 78.02734375 144.08203125 C78.01509766 144.84966797 78.00285156 145.61730469 77.99023438 146.40820312 C77.95533304 147.99944567 77.91633146 149.59060405 77.87304688 151.18164062 C77.77688851 157.9523205 78.40690274 163.72935883 83.125 168.9375 C85.38318399 171.7739994 86.43220127 173.59564872 86.5 177.25 C86.07866389 180.4100208 85.74385138 182.38422294 84 185 C84.969375 185.70125 85.93875 186.4025 86.9375 187.125 C89.21910322 189.06354594 90.0176961 190.04070102 91.25 192.875 C90.91801785 197.02477693 89.09943719 198.40169887 86.3203125 201.3359375 C84.73774531 202.99761062 84.73774531 202.99761062 84.875 205.6875 C87.10482035 210.27101962 90.61167383 212.52130943 95.0625 214.75 C107.38546094 221.28837954 121.87415982 230.97636416 128 244 C128 245.32 128 246.64 128 248 C127.34 248 126.68 248 126 248 C124.82285655 246.4123655 123.70967739 244.77718793 122.625 243.125 C116.18582371 234.03990764 107.61059389 227.5445734 98 222 C95.16716641 224.81120891 92.37077684 227.64978722 89.609375 230.53125 C68.04249443 252.82226581 68.04249443 252.82226581 56 258 C55.01 258 54.02 258 53 258 C39.91657247 244.61865761 31.85764717 225.95968832 23.5625 209.4375 C22.98338867 208.28499756 22.40427734 207.13249512 21.80761719 205.94506836 C15.59955993 193.42151365 11.09317698 182.8514308 10.5 168.84375 C10.43956764 167.51281815 10.43956764 167.51281815 10.37791443 166.15499878 C10.2481571 163.27015335 10.12390941 160.38510205 10 157.5 C9.9116767 155.50471398 9.82321552 153.50943407 9.73461914 151.51416016 C9.18226517 138.93397766 8.71393659 126.35341735 8.32641602 113.76708984 C8.03627628 104.49972413 7.57332608 95.25392818 7 86 C5.75633667 86.20363159 5.75633667 86.20363159 4.48754883 86.41137695 C-23.42322876 90.97213813 -23.42322876 90.97213813 -36 92.8125 C-37.23206177 92.99776245 -37.23206177 92.99776245 -38.48901367 93.18676758 C-39.25576416 93.29657959 -40.02251465 93.4063916 -40.8125 93.51953125 C-41.45832031 93.61339111 -42.10414062 93.70725098 -42.76953125 93.80395508 C-45.84929708 94.07464816 -48.91037091 94.02865081 -52 94 C-51.9050748 155.37905491 -51.9050748 155.37905491 -42.75 215.875 C-40.77654404 223.97367767 -40.58206827 231.67421592 -41 240 C-41.07951548 241.8151003 -41.15893746 243.63020469 -41.23828125 245.4453125 C-41.46097983 250.29886906 -41.72168299 255.14933205 -42 260 C-42.66 260 -43.32 260 -44 260 C-44.59103889 253.72021181 -45.08723223 247.50968014 -44.890625 241.203125 C-44.57427163 230.52336489 -45.53071727 221.05504419 -48.00415039 210.65405273 C-55.16437765 180.52849042 -55.31805224 149.48485509 -55.19561768 118.69659424 C-55.18476634 115.25900492 -55.18515079 111.8214555 -55.18575573 108.38385201 C-55.18548045 105.0049635 -55.17994401 101.62609935 -55.17275429 98.24721909 C-55.16963717 96.66642311 -55.16761714 95.08562446 -55.16686058 93.50482559 C-55.15812352 84.80809021 -54.97829023 76.13582564 -54.55200195 67.44873047 C-54.51341411 66.61970781 -54.47482626 65.79068516 -54.43506908 64.9365406 C-54.12136441 59.12136441 -54.12136441 59.12136441 -53 58 C-51.30920433 57.71446333 -49.60880484 57.48527993 -47.90625 57.28125 C-46.87628906 57.15363281 -45.84632812 57.02601563 -44.78515625 56.89453125 C-42.59505208 56.63151042 -40.40494792 56.36848958 -38.21484375 56.10546875 C-37.18488281 55.97785156 -36.15492187 55.85023438 -35.09375 55.71875 C-34.14177734 55.60466797 -33.18980469 55.49058594 -32.20898438 55.37304688 C-30.03160603 55.2247685 -30.03160603 55.2247685 -29 54 C-29.24235407 52.19965547 -29.48781699 50.39969182 -29.74609375 48.6015625 C-30.16361694 44.32355563 -30.01719035 40.05113029 -29.9375 35.7578125 C-29.8028358 33.03863365 -29.8028358 33.03863365 -31 31 C-31.56477703 26.90536652 -31.85950335 24.4129521 -29.68359375 20.8359375 C-25.9795089 16.41092338 -22.20984196 13.45169034 -17 11 C-16.34 11 -15.68 11 -15 11 C-15 11.99 -15 12.98 -15 14 C-16.86328125 15.6484375 -16.86328125 15.6484375 -19.3125 17.375 C-24.10083429 20.90662808 -24.10083429 20.90662808 -27 26 C-26.67981993 27.66924342 -26.34439801 29.33558452 -26 31 C-25.92168326 32.91143363 -25.89211375 34.82527121 -25.90234375 36.73828125 C-25.90556641 37.80498047 -25.90878906 38.87167969 -25.91210938 39.97070312 C-25.92048828 41.07349609 -25.92886719 42.17628906 -25.9375 43.3125 C-25.94201172 44.43462891 -25.94652344 45.55675781 -25.95117188 46.71289062 C-25.96292687 49.4753151 -25.97935923 52.23762998 -26 55 C-24.98421875 54.80664062 -23.9684375 54.61328125 -22.921875 54.4140625 C-14.62941839 52.84306225 -6.3316784 51.35110693 2 50 C1.90388428 49.33991943 1.80776855 48.67983887 1.70874023 47.99975586 C1.27490163 44.98035563 0.85609342 41.95904988 0.4375 38.9375 C0.28603516 37.89916016 0.13457031 36.86082031 -0.02148438 35.79101562 C-1.80706522 22.71059783 -1.80706522 22.71059783 2 17 C2.6300298 11.09810318 2.37705775 5.49694604 0 0 Z M-4.94799805 54.62670898 C-5.87883713 54.76362656 -6.80967621 54.90054413 -7.76872253 55.04161072 C-8.75641129 55.19159012 -9.74410004 55.34156952 -10.76171875 55.49609375 C-11.78932816 55.64909439 -12.81693756 55.80209503 -13.87568665 55.95973206 C-16.04024054 56.28299363 -18.2044764 56.60839105 -20.3684082 56.93579102 C-23.68557506 57.43720903 -27.00380818 57.93103167 -30.32226562 58.42382812 C-32.42715054 58.73913502 -34.53197059 59.05487527 -36.63671875 59.37109375 C-37.63048019 59.51904892 -38.62424164 59.66700409 -39.64811707 59.81944275 C-41.03019096 60.02954735 -41.03019096 60.02954735 -42.44018555 60.24389648 C-43.25037643 60.36603012 -44.06056732 60.48816376 -44.89530945 60.61399841 C-47.1800688 60.98229783 -47.1800688 60.98229783 -50 62 C-50.8410478 65.6464806 -51.11764968 68.99950907 -51.09765625 72.73828125 C-51.09443359 73.80498047 -51.09121094 74.87167969 -51.08789062 75.97070312 C-51.07951172 77.07349609 -51.07113281 78.17628906 -51.0625 79.3125 C-51.05798828 80.43462891 -51.05347656 81.55675781 -51.04882812 82.71289062 C-51.03707313 85.4753151 -51.02064077 88.23762998 -51 91 C-50.02466309 90.82871582 -49.04932617 90.65743164 -48.04443359 90.48095703 C-29.7176585 87.27681464 -11.57823015 84.32701644 7 83 C6.67 73.43 6.34 63.86 6 54 C2.07180617 54 -1.15810886 54.06078433 -4.94799805 54.62670898 Z M44 98 C47 99.33333333 47 99.33333333 50 98 C56.0375061 97.70378758 62.07672561 97.6837168 68 99 C65.40136776 96.15387898 63.47283176 95.12195422 59.546875 94.796875 C53.52359572 94.69592619 49.33357269 95.1554279 44 98 Z M55 135 C53.32742645 136.4515549 51.66208242 137.91144409 50 139.375 C49.071875 140.18710938 48.14375 140.99921875 47.1875 141.8359375 C46.1046875 142.90714844 46.1046875 142.90714844 45 144 C45 144.66 45 145.32 45 146 C45.66 146 46.32 146 47 146 C46.67 147.32 46.34 148.64 46 150 C44.35 150 42.7 150 41 150 C37.94895997 157.62760007 38.50389472 164.15219982 41.02734375 171.79296875 C42.43792352 174.99368188 43.90952508 176.38452447 47 178 C50.689748 178.80222151 50.689748 178.80222151 54 179 C54 179.66 54 180.32 54 181 C51.69 181 49.38 181 47 181 C46.06571202 189.49757166 47.22813386 194.66529735 52.078125 201.72265625 C53.90164229 203.88345011 55.6648046 205.42425974 58 207 C60.0399719 205.63676257 60.0399719 205.63676257 62 204 C62 203.34 62 202.68 62 202 C60.68 201.34 59.36 200.68 58 200 C57.71348983 196.64792113 57.47748778 193.29405987 57.25 189.9375 C57.16878906 188.99455078 57.08757812 188.05160156 57.00390625 187.08007812 C56.59777229 180.60449779 57.36761888 177.35981049 61 172 C64.42031721 161.14432866 62.70795529 146.18744839 58 136 C57.01 135.67 56.02 135.34 55 135 Z M18 186 C20.21456282 193.16214799 23.06121518 199.81216279 26.3125 206.5625 C26.83158936 207.64080078 27.35067871 208.71910156 27.88549805 209.83007812 C31.74824105 217.71944849 35.90254795 225.40379365 40.3125 233 C41.15518433 234.45708374 41.15518433 234.45708374 42.01489258 235.94360352 C47.59119918 246.33209628 47.59119918 246.33209628 56 254 C78.60527073 239.42213805 78.60527073 239.42213805 95 219 C93.76055724 218.13058506 92.50792941 217.27994543 91.25 216.4375 C90.20585937 215.72400391 90.20585937 215.72400391 89.140625 214.99609375 C87.10233061 213.81874999 87.10233061 213.81874999 85.10546875 214.22827148 C82.52265325 215.17496441 81.14533022 216.43918806 79.171875 218.3515625 C78.09486328 219.38216797 78.09486328 219.38216797 76.99609375 220.43359375 C76.25488281 221.15675781 75.51367188 221.87992188 74.75 222.625 C70.40832866 226.8124379 66.06985892 230.99629575 61.578125 235.0234375 C60.9377832 235.59755371 60.29744141 236.17166992 59.63769531 236.76318359 C58 238 58 238 56 238 C54.64648438 236.35791016 54.64648438 236.35791016 53.09375 234.0390625 C52.51947266 233.18352783 51.94519531 232.32799316 51.35351562 231.4465332 C50.74185547 230.51542725 50.13019531 229.58432129 49.5 228.625 C48.87287109 227.67778076 48.24574219 226.73056152 47.59960938 225.75463867 C43.65911463 219.73169912 39.95794144 213.624089 36.5 207.3125 C36.09475098 206.57330322 35.68950195 205.83410645 35.27197266 205.07250977 C33.59240324 201.98629221 31.94349381 198.89017107 30.3359375 195.765625 C27.95837526 191.36649914 26.40121406 188.72035543 21.625 186.875 C20.42875 186.58625 19.2325 186.2975 18 186 Z M38 194 C39.39398235 198.78041068 41.47088079 202.84357212 44.0625 207.0625 C44.45300537 207.70646729 44.84351074 208.35043457 45.24584961 209.01391602 C49.2385429 215.52386333 53.5660249 221.78404909 58 228 C61.53675651 226.47147075 63.99564746 224.3583611 66.8125 221.75 C70.81134073 218.08291494 74.86175264 214.50851407 79 211 C76.70665406 209.47110271 74.4883456 208.10224901 72.0625 206.8125 C71.39347656 206.44769531 70.72445312 206.08289063 70.03515625 205.70703125 C67.5500879 204.84369656 66.42876728 205.05243166 64 206 C63.175 206.680625 62.35 207.36125 61.5 208.0625 C59 210 59 210 55 210 C52.77236184 207.1417574 50.869125 204.23360105 48.97460938 201.15234375 C46.72636059 197.72879379 45.2107887 195.70638608 41.17578125 194.5546875 C40.12777344 194.37164062 39.07976562 194.18859375 38 194 Z " fill="#000000" transform="translate(119,92)"/>
<path d="M0 0 C0.66 0 1.32 0 2 0 C5.57083268 14.05108145 3.00223591 29.36738392 -1 43 C-1.66 43 -2.32 43 -3 43 C-0.43704372 53.29958208 2.78512629 61.71085391 11.8125 67.875 C16.2653302 70.40322776 21.0579491 71.75436012 26 73 C22.2683081 60.36404561 22.2683081 60.36404561 14 51 C13.86722656 51.68707031 13.73445312 52.37414062 13.59765625 53.08203125 C13.42105469 53.98308594 13.24445313 54.88414062 13.0625 55.8125 C12.88847656 56.70582031 12.71445312 57.59914062 12.53515625 58.51953125 C12 61 12 61 11 64 C10.01 64 9.02 64 8 64 C11.03827837 43.15112432 18.92726375 22.91183443 28 4 C28.66 4 29.32 4 30 4 C29.39141768 8.3767794 28.31654083 12.25330059 26.78515625 16.39453125 C26.34623047 17.59787109 25.90730469 18.80121094 25.45507812 20.04101562 C24.99153315 21.29841606 24.52733623 22.55557634 24.0625 23.8125 C19.63573648 35.16852125 19.63573648 35.16852125 17 47 C18.06492715 49.61352675 18.06492715 49.61352675 20.125 51.5 C25.98127449 58.12713969 30.21520946 66.89275191 29.94091797 75.95117188 C29.46270876 81.91901427 27.79253821 86.99932614 25.5 92.5 C25.14325195 93.36874756 24.78650391 94.23749512 24.41894531 95.13256836 C14.45728408 118.89013337 0.01615752 141.52965354 -16.640625 161.15625 C-22.7688306 168.57679828 -25.54756703 176.20319217 -28.39453125 185.265625 C-29.83680002 189.78135469 -31.77797382 193.81622836 -34 198 C-34.99 198 -35.98 198 -37 198 C-35.49075634 193.37165278 -33.83983032 188.80529284 -32.125 184.25 C-31.88136719 183.59773437 -31.63773437 182.94546875 -31.38671875 182.2734375 C-30.87533022 180.9115012 -30.3580391 179.55176943 -29.83544922 178.1940918 C-29.25065525 176.65828135 -28.68620418 175.11464117 -28.13720703 173.56567383 C-25.82128865 167.29162939 -22.73064219 162.43553214 -18.625 157.1875 C-7.24381066 142.17142546 3.11297176 126.62203429 12 110 C10.700625 109.79375 9.40125 109.5875 8.0625 109.375 C-1.88821335 107.09787751 -8.56349373 100.4043949 -14 92 C-14.71875 89.6953125 -14.71875 89.6953125 -15 88 C-15.66 88 -16.32 88 -17 88 C-17.350625 89.2375 -17.70125 90.475 -18.0625 91.75 C-20.93177048 100.34427715 -25.99095195 108.0622312 -31.55859375 115.15625 C-32.50011336 116.36057861 -33.4110133 117.58966041 -34.28515625 118.84375 C-40.73307342 128.01746306 -49.06966616 135.69421654 -57.875 142.5625 C-58.74644653 143.24566284 -58.74644653 143.24566284 -59.63549805 143.94262695 C-62.58731082 146.22765247 -65.57254111 148.40151654 -68.68359375 150.46484375 C-77.88696367 156.77709626 -81.93073688 163.45190733 -86.1328125 173.7421875 C-87.61574604 177.32841772 -89.25683838 180.1885439 -92 183 C-92.66 183 -93.32 183 -94 183 C-93.43579063 179.48404036 -92.55987632 176.88941923 -90.75 173.83203125 C-83.85878853 161.44187342 -81.90352028 151.42385637 -82.0546875 137.3125 C-82.09635379 133.3458695 -81.88729726 129.7560608 -81.0703125 125.875 C-77.79197637 109.72221336 -84.20114091 96.65357326 -90.4732666 82.02407837 C-93.28283037 75.45005278 -95.6828958 68.76226992 -98 62 C-102.72324947 63.40216545 -107.44017882 64.80885789 -112.12109375 66.34765625 C-112.83330078 66.57880127 -113.54550781 66.80994629 -114.27929688 67.0480957 C-115.70612145 67.5121365 -117.13067702 67.98321918 -118.55273438 68.46166992 C-123.66380047 70.11206651 -123.66380047 70.11206651 -127 69 C-126 66 -126 66 -124.03808594 64.94091797 C-123.19536133 64.62783691 -122.35263672 64.31475586 -121.484375 63.9921875 C-120.56269531 63.64542969 -119.64101562 63.29867187 -118.69140625 62.94140625 C-117.72074219 62.58949219 -116.75007812 62.23757812 -115.75 61.875 C-114.31720703 61.33552734 -114.31720703 61.33552734 -112.85546875 60.78515625 C-108.522761 59.17620914 -104.55931082 57.91186216 -100 57 C-100.99 51.555 -100.99 51.555 -102 46 C-99 47 -99 47 -97.85545349 49.20585632 C-97.49508499 50.18037247 -97.13471649 51.15488861 -96.76342773 52.15893555 C-96.14279701 53.81151619 -96.14279701 53.81151619 -95.5096283 55.4974823 C-94.8532412 57.29890434 -94.8532412 57.29890434 -94.18359375 59.13671875 C-93.726465 60.36405228 -93.26933624 61.5913858 -92.7983551 62.85591125 C-91.5805569 66.12634484 -90.37684296 69.40179541 -89.17578125 72.67840576 C-87.95741305 75.99396678 -86.72495312 79.3042779 -85.49414062 82.61523438 C-83.69158592 87.47231635 -81.89397808 92.33118919 -80.10717773 97.1940918 C-79.74760483 98.17258591 -79.38803192 99.15108002 -79.01756287 100.15922546 C-78.29270345 102.18284704 -77.62746136 104.22824283 -77.0035553 106.28523254 C-76.27416675 109.1499298 -76.27416675 109.1499298 -73.8359375 110.2421875 C-71.55729167 110.828125 -69.27864583 111.4140625 -67 112 C-66.34 115.3 -65.68 118.6 -65 122 C-59.72611976 122.50227431 -57.08984305 121.32894202 -53 118 C-52.505 116.515 -52.505 116.515 -52 115 C-50.91460937 115.020625 -49.82921875 115.04125 -48.7109375 115.0625 C-40.9850228 115.19920202 -40.9850228 115.19920202 -33.8828125 112.71484375 C-32.21971513 110.57724684 -31.14817434 108.45737313 -30 106 C-29.05640625 104.27136719 -29.05640625 104.27136719 -28.09375 102.5078125 C-19.8784296 87.26266873 -15.28399945 70.99075838 -10.71484375 54.35644531 C-10.39128906 53.18952148 -10.06773437 52.02259766 -9.734375 50.8203125 C-9.44788086 49.77117676 -9.16138672 48.72204102 -8.86621094 47.64111328 C-8 45 -8 45 -6 42 C-5.34 42 -4.68 42 -4 42 C-3.86722656 41.05898437 -3.73445313 40.11796875 -3.59765625 39.1484375 C-3.42105469 37.90320313 -3.24445313 36.65796875 -3.0625 35.375 C-2.88847656 34.14523438 -2.71445312 32.91546875 -2.53515625 31.6484375 C-2.21939554 29.49573313 -1.86718981 27.34694023 -1.43359375 25.21484375 C-0.80249027 20.53558105 -0.93581397 15.90196369 -1 11.1875 C-1.02538077 9.28521149 -1.04645736 7.38285893 -1.0625 5.48046875 C-1.07410156 4.64410889 -1.08570313 3.80774902 -1.09765625 2.94604492 C-1 1 -1 1 0 0 Z M-6 52 C-6.70146314 54.22481229 -7.38565954 56.45507368 -8.0625 58.6875 C-8.44535156 59.92886719 -8.82820313 61.17023438 -9.22265625 62.44921875 C-10.25646204 67.17147737 -9.82525557 69.47593931 -7.546875 73.68359375 C-1.50751879 82.93956359 3.92875025 89.92945401 14 95 C17.21679578 95.72595368 17.21679578 95.72595368 20 96 C21.00605593 93.39802798 22.00502525 90.79370638 23 88.1875 C23.28617188 87.44951172 23.57234375 86.71152344 23.8671875 85.95117188 C24.13789063 85.23896484 24.40859375 84.52675781 24.6875 83.79296875 C25.06455078 82.81106567 25.06455078 82.81106567 25.44921875 81.80932617 C26.14560906 79.83688857 26.14560906 79.83688857 26 77 C25.23816406 76.78085938 24.47632813 76.56171875 23.69140625 76.3359375 C12.67207303 72.9517228 3.55903556 68.08128111 -2.25390625 57.77734375 C-3.21686432 55.87491438 -4.11510173 53.93996928 -5 52 C-5.33 52 -5.66 52 -6 52 Z M-12 75 C-13.45520592 77.31120941 -14.04834947 78.55964792 -13.74609375 81.3125 C-11.10524895 90.82507184 -3.42375479 99.19713717 4.953125 104.15625 C8.26351528 105.71069413 11.38994193 106.80223513 15 106 C16.81883009 103.6167054 18 102.04181663 18 99 C17.24976563 98.81566406 16.49953125 98.63132812 15.7265625 98.44140625 C3.43473429 94.95820556 -3.38062728 87.96828874 -9.72265625 77.08984375 C-10.14417969 76.40019531 -10.56570313 75.71054688 -11 75 C-11.33 75 -11.66 75 -12 75 Z M-71 114 C-71.02712351 116.39591038 -71.0468982 118.79150957 -71.0625 121.1875 C-71.07087891 121.86103516 -71.07925781 122.53457031 -71.08789062 123.22851562 C-71.10606538 126.95434131 -70.89299392 130.3788042 -70 134 C-64.19657726 132.51194289 -59.82409121 129.40902445 -55 126 C-55.66 125.67 -56.32 125.34 -57 125 C-57.99 125.495 -57.99 125.495 -59 126 C-62.13642783 126.27273286 -64.38079028 126.25103097 -67.3125 125.0625 C-69.98157975 121.80029141 -69.82788884 118.10485124 -70 114 C-70.33 114 -70.66 114 -71 114 Z M-49 117 C-51.475 120.465 -51.475 120.465 -54 124 C-50.63279613 122.60667426 -49.0140476 121.0210714 -47 118 C-47.66 117.67 -48.32 117.34 -49 117 Z M-77 113 C-78.10832252 121.33570302 -78.32775703 129.66828288 -78.5625 138.0625 C-78.60578755 139.5149839 -78.64940474 140.96745801 -78.69335938 142.41992188 C-78.79937254 145.94650991 -78.90092748 149.47320935 -79 153 C-73.66292721 150.13519706 -69.09027119 146.86595641 -64.4375 143 C-63.75075195 142.434021 -63.06400391 141.86804199 -62.35644531 141.28491211 C-60.93615678 140.11074386 -59.51835489 138.93356141 -58.10302734 137.75341797 C-56.72623031 136.60550105 -55.34645206 135.46114808 -53.96337891 134.32080078 C-52.05140093 132.74347804 -50.14923597 131.15512944 -48.25 129.5625 C-47.67822021 129.09134766 -47.10644043 128.62019531 -46.51733398 128.13476562 C-42.88588101 125.05214548 -40.44345244 122.02695196 -38 118 C-42.07331598 118.53252067 -43.90042258 120.60119701 -46.75 123.4375 C-54.41135599 130.62325225 -63.48304591 136.52143337 -73 141 C-73.85731127 134.83312228 -74.28684247 128.71811088 -74.5625 122.5 C-74.60568359 121.5821875 -74.64886719 120.664375 -74.69335938 119.71875 C-74.79833456 117.47927939 -74.90049248 115.23971908 -75 113 C-75.66 113 -76.32 113 -77 113 Z " fill="#1A1A1B" transform="translate(360,135)"/>
<path d="M0 0 C-0.65902299 3.57040303 -2.16229158 6.17732255 -4.0625 9.25 C-4.61035156 10.14203125 -5.15820312 11.0340625 -5.72265625 11.953125 C-6.14417969 12.62859375 -6.56570313 13.3040625 -7 14 C-6.29875 15.03125 -5.5975 16.0625 -4.875 17.125 C-3.6796875 18.8828125 -3.6796875 18.8828125 -3 21 C-4.91543284 29.82509241 -12.16328737 36.0702999 -19.4375 40.875 C-31.79171221 48.18703023 -31.79171221 48.18703023 -37.61328125 47.84765625 C-40.61349368 46.78211435 -41.28551634 45.68607059 -42.8125 42.9375 C-43.44091797 41.83728516 -43.44091797 41.83728516 -44.08203125 40.71484375 C-44.38496094 40.14894531 -44.68789063 39.58304688 -45 39 C-46.32 39.66 -47.64 40.32 -49 41 C-48.67 41.99 -48.34 42.98 -48 44 C-47.28604119 50.81006865 -47.28604119 50.81006865 -49.125 53.875 C-51 55 -51 55 -54 55.75 C-57.3333768 57.138907 -57.55145935 57.48631788 -58.875 60.625 C-59.24625 61.73875 -59.6175 62.8525 -60 64 C-60.66 64 -61.32 64 -62 64 C-62.33 62.68 -62.66 61.36 -63 60 C-63.99 60 -64.98 60 -66 60 C-66.99 60 -67.98 60 -69 60 C-68.39852399 54.58671587 -68.39852399 54.58671587 -66.875 52.34375 C-64.11038977 50.362446 -61.67259001 50.47884109 -58.3125 50.3125 C-56.54326172 50.21388672 -56.54326172 50.21388672 -54.73828125 50.11328125 C-53.38283203 50.05720703 -53.38283203 50.05720703 -52 50 C-52.33 47.03 -52.66 44.06 -53 41 C-54.65 40.67 -56.3 40.34 -58 40 C-56.46459871 35.58572128 -54.11287215 31.89907811 -51.5 28.0625 C-51.06147705 27.41514893 -50.6229541 26.76779785 -50.17114258 26.10083008 C-49.2505542 24.74725519 -48.32708617 23.39563472 -47.40087891 22.04589844 C-46.47312036 20.69096351 -45.55082984 19.33226688 -44.63427734 17.96972656 C-43.33122331 16.03340819 -42.0119089 14.10925567 -40.6875 12.1875 C-40.29175781 11.59525635 -39.89601563 11.0030127 -39.48828125 10.39282227 C-36.31036671 5.85456301 -33.55607065 4.54887304 -28.23266602 3.40576172 C-27.24967529 3.24865723 -26.26668457 3.09155273 -25.25390625 2.9296875 C-24.16916016 2.75566406 -23.08441406 2.58164063 -21.96679688 2.40234375 C-20.84337891 2.22832031 -19.71996094 2.05429688 -18.5625 1.875 C-17.44294922 1.69324219 -16.32339844 1.51148437 -15.16992188 1.32421875 C-10.0446462 0.51512479 -5.20042101 -0.0993496 0 0 Z M-33 19 C-33.66 19.99 -34.32 20.98 -35 22 C-31.97092146 20.55461777 -29.1999532 18.87065408 -26.375 17.0625 C-21.44705873 14.06320241 -16.5851827 12.35470389 -11 11 C-11.33 10.34 -11.66 9.68 -12 9 C-19.64828789 9 -27.58721116 13.91279244 -33 19 Z M-15 25 C-21.54005583 28.47583387 -27.02328242 33.5783441 -32 39 C-31.01 39.495 -31.01 39.495 -30 40 C-22.78144837 36.79324565 -17.25366361 31.78196498 -12 26 C-12.99 25.67 -13.98 25.34 -15 25 Z M-66 56 C-65 58 -65 58 -65 58 Z " fill="#000000" transform="translate(308,124)"/>
<path d="M0 0 C0.99 0 1.98 0 3 0 C3 13.86 3 27.72 3 42 C4.65 42.33 6.3 42.66 8 43 C8.15557373 43.96599121 8.31114746 44.93198242 8.47143555 45.92724609 C12.96282607 76.22655951 12.96282607 76.22655951 23 105 C23 105.99 23 106.98 23 108 C20 107 20 107 18.7890625 105.05859375 C12.71884298 91.3904149 9.242182 77.72913052 7 63 C5.97519531 63.2165625 4.95039062 63.433125 3.89453125 63.65625 C2.53390759 63.93775834 1.17322749 64.21899395 -0.1875 64.5 C-0.86103516 64.64308594 -1.53457031 64.78617187 -2.22851562 64.93359375 C-5.89290919 65.68434755 -9.26919233 66.06757689 -13 66 C-6.78459297 111.54921273 0.53101321 155.96799597 15.28491211 199.64697266 C16 202 16 202 16 204 C15.01 204 14.02 204 13 204 C5.53034171 182.54843759 -1.32621268 161.26350543 -6 139 C-6.25442871 137.80713379 -6.50885742 136.61426758 -6.77099609 135.38525391 C-10.42275627 117.98569072 -13.01061496 100.49742119 -15.3125 82.875 C-15.44173859 81.88863556 -15.57097717 80.90227112 -15.70413208 79.88601685 C-17.12707751 68.93647749 -18.40233082 58.03046027 -19 47 C-16.525 46.505 -16.525 46.505 -14 46 C-15.06884871 42.3081461 -16.15766281 38.62246609 -17.25 34.9375 C-17.70052734 33.37999023 -17.70052734 33.37999023 -18.16015625 31.79101562 C-19.88984873 25.9947057 -21.89498192 21.1727403 -25 16 C-25 15.01 -25 14.02 -25 13 C-20.06289944 15.14429156 -18.2197138 18.19645531 -16 23 C-13.56221744 30.30545842 -11.72985333 37.22577918 -12 45 C-8.04 44.01 -4.08 43.02 0 42 C-0.24363281 39.67388672 -0.24363281 39.67388672 -0.4921875 37.30078125 C-1.07059018 30.92097921 -1.14807123 24.58976534 -1.125 18.1875 C-1.13080078 16.5487793 -1.13080078 16.5487793 -1.13671875 14.87695312 C-1.13542969 13.81798828 -1.13414063 12.75902344 -1.1328125 11.66796875 C-1.13168457 10.72203857 -1.13055664 9.7761084 -1.12939453 8.80151367 C-0.9909188 5.80338352 -0.54797049 2.94853834 0 0 Z M-5.5625 47.4375 C-6.24763672 47.57220703 -6.93277344 47.70691406 -7.63867188 47.84570312 C-11.42708496 48.58861757 -11.42708496 48.58861757 -15 50 C-14.67 53.96 -14.34 57.92 -14 62 C-11.79154015 61.68839539 -9.58323749 61.37567654 -7.375 61.0625 C-5.53035156 60.80146484 -5.53035156 60.80146484 -3.6484375 60.53515625 C-0.4263145 60.06253221 2.78770856 59.53538191 6 59 C5.505 52.565 5.505 52.565 5 46 C1.36442849 46 -2.01765094 46.71645691 -5.5625 47.4375 Z " fill="#000000" transform="translate(35,121)"/>
<path d="M0 0 C0.66 0 1.32 0 2 0 C5.57083268 14.05108145 3.00223591 29.36738392 -1 43 C-1.66 43 -2.32 43 -3 43 C-0.43704372 53.29958208 2.78512629 61.71085391 11.8125 67.875 C16.2653302 70.40322776 21.0579491 71.75436012 26 73 C22.2683081 60.36404561 22.2683081 60.36404561 14 51 C13.80083984 52.03060547 13.80083984 52.03060547 13.59765625 53.08203125 C13.42105469 53.98308594 13.24445313 54.88414062 13.0625 55.8125 C12.88847656 56.70582031 12.71445312 57.59914062 12.53515625 58.51953125 C12 61 12 61 11 64 C10.01 64 9.02 64 8 64 C11.03827837 43.15112432 18.92726375 22.91183443 28 4 C28.66 4 29.32 4 30 4 C29.39141768 8.3767794 28.31654083 12.25330059 26.78515625 16.39453125 C26.34623047 17.59787109 25.90730469 18.80121094 25.45507812 20.04101562 C24.99153315 21.29841606 24.52733623 22.55557634 24.0625 23.8125 C19.63573648 35.16852125 19.63573648 35.16852125 17 47 C18.06492715 49.61352675 18.06492715 49.61352675 20.125 51.5 C25.98127449 58.12713969 30.21520946 66.89275191 29.94091797 75.95117188 C29.46270876 81.91901427 27.79253821 86.99932614 25.5 92.5 C25.14325195 93.36874756 24.78650391 94.23749512 24.41894531 95.13256836 C14.45728408 118.89013337 0.01615752 141.52965354 -16.640625 161.15625 C-22.7688306 168.57679828 -25.54756703 176.20319217 -28.39453125 185.265625 C-29.83680002 189.78135469 -31.77797382 193.81622836 -34 198 C-34.99 198 -35.98 198 -37 198 C-35.49075634 193.37165278 -33.83983032 188.80529284 -32.125 184.25 C-31.88136719 183.59773437 -31.63773437 182.94546875 -31.38671875 182.2734375 C-30.87533022 180.9115012 -30.3580391 179.55176943 -29.83544922 178.1940918 C-29.25065525 176.65828135 -28.68620418 175.11464117 -28.13720703 173.56567383 C-25.82130094 167.29166268 -22.7307047 162.43545329 -18.625 157.1875 C0.2413527 132.30283057 16.08281383 106.67890515 26 77 C25.39414062 76.92523438 24.78828125 76.85046875 24.1640625 76.7734375 C12.71114926 74.97621112 4.85755049 69.22562548 -2 60 C-3.2070022 58.01271356 -4.11537937 56.15626279 -5 54 C-5.19335938 54.59167969 -5.38671875 55.18335938 -5.5859375 55.79296875 C-6.12215677 57.42020842 -6.66538591 59.0451514 -7.21484375 60.66796875 C-7.81082857 62.43813261 -8.38038188 64.21722201 -8.9375 66 C-9.4634375 66.99 -9.4634375 66.99 -10 68 C-12.06640625 68.625 -12.06640625 68.625 -14 69 C-12.69465803 63.65936228 -11.36190927 58.32649345 -10 53 C-9.72671875 51.92621094 -9.4534375 50.85242188 -9.171875 49.74609375 C-8.92953125 48.86050781 -8.6871875 47.97492188 -8.4375 47.0625 C-8.22996094 46.29035156 -8.02242188 45.51820313 -7.80859375 44.72265625 C-7.40833984 43.86994141 -7.40833984 43.86994141 -7 43 C-5.515 42.505 -5.515 42.505 -4 42 C-3.86722656 41.05898437 -3.73445313 40.11796875 -3.59765625 39.1484375 C-3.42105469 37.90320313 -3.24445313 36.65796875 -3.0625 35.375 C-2.88847656 34.14523438 -2.71445312 32.91546875 -2.53515625 31.6484375 C-2.21939554 29.49573313 -1.86718981 27.34694023 -1.43359375 25.21484375 C-0.80249027 20.53558105 -0.93581397 15.90196369 -1 11.1875 C-1.02538077 9.28521149 -1.04645736 7.38285893 -1.0625 5.48046875 C-1.07410156 4.64410889 -1.08570313 3.80774902 -1.09765625 2.94604492 C-1 1 -1 1 0 0 Z " fill="#000000" transform="translate(360,135)"/>
<path d="M0 0 C0.66 1.32 1.32 2.64 2 4 C2.9075 3.9175 3.815 3.835 4.75 3.75 C8 4 8 4 10.125 5.5625 C11.053125 6.7690625 11.053125 6.7690625 12 8 C13.11375 9.3921875 13.11375 9.3921875 14.25 10.8125 C17.74608332 17.23585944 17.06576479 26.09046283 15.19921875 32.9375 C14.27711571 35.15909188 13.45386451 37.0842053 12 39 C11.01 39.33 10.02 39.66 9 40 C8.68804687 40.62519531 8.37609375 41.25039062 8.0546875 41.89453125 C6.77822528 44.44272806 5.550233 45.23693611 3.125 46.6875 C2.44695312 47.10386719 1.76890625 47.52023438 1.0703125 47.94921875 C-1 49 -1 49 -3.1171875 49.453125 C-6.3414816 50.38964196 -7.36033625 53.24770728 -9 56 C-9.66 55.67 -10.32 55.34 -11 55 C-8.67826194 46.80563037 -5.11203301 38.11203301 1 32 C2.98821313 31.60235737 4.98944339 31.26224651 7 31 C6.030625 30.505 5.06125 30.01 4.0625 29.5 C0.82259588 26.85518031 0.56785827 26.59264712 0.125 22.75 C0.08375 21.5125 0.0425 20.275 0 19 C-3.32534757 17.89155081 -5.62182575 18.15545644 -9 19 C-8.75 17.125 -8.75 17.125 -8 15 C-5.9375 13.75 -5.9375 13.75 -4 13 C-5.65 12.34 -7.3 11.68 -9 11 C-13.4630959 14.01560534 -15.26831575 17.03975189 -17 22 C-17.27972656 22.70511719 -17.55945313 23.41023438 -17.84765625 24.13671875 C-19.81281916 29.3741064 -21.01629475 34.4103789 -20 40 C-18.69418644 42.0180755 -17.36363208 44.02053408 -16 46 C-16.15288418 49.82210448 -17.09618471 52.7000535 -19 56 C-19.66 56 -20.32 56 -21 56 C-20.94779297 55.09507812 -20.94779297 55.09507812 -20.89453125 54.171875 C-20.85392578 52.97304687 -20.85392578 52.97304687 -20.8125 51.75 C-20.77769531 50.96109375 -20.74289062 50.1721875 -20.70703125 49.359375 C-21.06790104 46.45317032 -22.22898148 45.2866315 -24 43 C-26.32512399 34.61189446 -23.73118012 27.64685191 -20.8125 19.8125 C-19.81540536 16.90685198 -19.81540536 16.90685198 -20.125 13.375 C-20 10 -20 10 -18.3125 7.625 C-16 6 -16 6 -13.375 5.5 C-12.59125 5.335 -11.8075 5.17 -11 5 C-9.77472052 3.04978917 -9.77472052 3.04978917 -9 1 C-6.04335481 -0.4783226 -3.25770263 -0.06032783 0 0 Z " fill="#000000" transform="translate(316,195)"/>
<path d="M0 0 C1.62566606 0.47690204 3.25051311 0.95659666 4.875 1.4375 C5.77992188 1.70433594 6.68484375 1.97117187 7.6171875 2.24609375 C10 3 10 3 12 4 C13.18015188 6.29675712 14.28760553 8.59728593 15.375 10.9375 C19.99205753 20.57040122 25.90409085 29.25316443 32 38 C35.52275831 36.33428235 38.00711362 34.34543208 40.875 31.6875 C41.75414062 30.88957031 42.63328125 30.09164063 43.5390625 29.26953125 C44.96771443 27.9519967 46.38553279 26.62210993 47.7734375 25.26171875 C49.25 23.875 49.25 23.875 52 22 C55.375 22.1875 55.375 22.1875 58 23 C58 26 58 26 56.75 27.578125 C55.88375 28.40570313 55.88375 28.40570313 55 29.25 C54.35546875 29.86746094 53.7109375 30.48492187 53.046875 31.12109375 C50.49088546 33.46733605 47.89326406 35.75787469 45.265625 38.0234375 C40.77646723 41.93984066 36.39805484 45.98192417 32 50 C28.46202162 48.82067387 28.01700258 47.96971967 25.99609375 44.94140625 C25.4249585 44.08909424 24.85382324 43.23678223 24.26538086 42.35864258 C23.66218018 41.43591553 23.05897949 40.51318848 22.4375 39.5625 C21.81560791 38.61979248 21.19371582 37.67708496 20.55297852 36.70581055 C12.88005486 24.93815894 6.05276913 12.67895849 0 0 Z " fill="#2B7FFF" transform="translate(145,281)"/>
<path d="M0 0 C0.66 0 1.32 0 2 0 C1.37374468 5.76000265 -0.11908522 10.94737001 -1.9375 16.4375 C-3.84355727 22.24842398 -5.71149951 28.01623069 -7 34 C-6.505 34.495 -6.505 34.495 -6 35 C-5.91286169 36.70772358 -5.89299993 38.41898649 -5.90234375 40.12890625 C-5.90556641 41.16337891 -5.90878906 42.19785156 -5.91210938 43.26367188 C-5.92048828 44.35228516 -5.92886719 45.44089844 -5.9375 46.5625 C-5.94201172 47.65498047 -5.94652344 48.74746094 -5.95117188 49.87304688 C-5.96300174 52.58208495 -5.97948457 55.29101599 -6 58 C-6.9295752 58.23021851 -6.9295752 58.23021851 -7.87792969 58.46508789 C-9.24172169 58.80886013 -10.60088956 59.17185442 -11.953125 59.55859375 C-14.27402621 60.05909344 -16.37825324 60.09737863 -18.75 60.0625 C-20.85375 60.0315625 -20.85375 60.0315625 -23 60 C-23.66 64.29 -24.32 68.58 -25 73 C-25.66 73 -26.32 73 -27 73 C-27.45502834 60.2844858 -26.11220075 47.65276252 -25 35 C-23.02 34.505 -23.02 34.505 -21 34 C-23.656239 20.58490385 -23.656239 20.58490385 -28.265625 7.75 C-29 6 -29 6 -29 4 C-28.01 4 -27.02 4 -26 4 C-20.6371618 13.7718119 -17.44790508 22.77407003 -18 34 C-17.4225 33.814375 -16.845 33.62875 -16.25 33.4375 C-13.79307475 32.95976454 -12.35602466 33.24270636 -10 34 C-9.98582031 33.46375 -9.97164062 32.9275 -9.95703125 32.375 C-9.27321594 21.13825116 -5.50078542 9.77917408 0 0 Z M-22 39 C-22.38384509 41.93597539 -22.603843 44.68027373 -22.6875 47.625 C-22.72166016 48.42679688 -22.75582031 49.22859375 -22.79101562 50.0546875 C-22.87356878 52.03596318 -22.93845916 54.01796037 -23 56 C-18.38 55.67 -13.76 55.34 -9 55 C-9 49.39 -9 43.78 -9 38 C-13.4811569 35.75942155 -18.03470035 36.3564669 -22 39 Z " fill="#000000" transform="translate(170,112)"/>
<path d="M0 0 C8.43139525 4.09097284 13.03062227 14.6142128 15.98046875 22.9609375 C15.98046875 24.2809375 15.98046875 25.6009375 15.98046875 26.9609375 C9.48046875 29.9609375 9.48046875 29.9609375 4.98046875 29.9609375 C3.3046875 28.23828125 3.3046875 28.23828125 1.66796875 25.8984375 C-3.72803289 18.40589994 -3.72803289 18.40589994 -11.01953125 12.9609375 C-10.51470867 8.66617827 -9.25035921 6.62361921 -6.20703125 3.5859375 C-5.17642578 2.52246094 -5.17642578 2.52246094 -4.125 1.4375 C-2.01953125 -0.0390625 -2.01953125 -0.0390625 0 0 Z " fill="#1A1C1E" transform="translate(34.01953125,74.0390625)"/>
<path d="M0 0 C0.99 0 1.98 0 3 0 C7.34828154 14.66228219 11.69478321 29.32500623 16 44 C20.29 42.35 24.58 40.7 29 39 C29 35.39741344 28.44958567 32.52374961 27.57714844 29.05810547 C25.19786493 19.54298438 24.5206393 10.77363199 25 1 C25.99 1 26.98 1 28 1 C28.12060791 2.01984985 28.12060791 2.01984985 28.24365234 3.06030273 C28.61607892 6.18661402 28.99549297 9.31204063 29.375 12.4375 C29.50132812 13.50677734 29.62765625 14.57605469 29.7578125 15.67773438 C30.43762999 21.23524237 31.24520108 26.65127758 32.61962891 32.08227539 C33 34 33 34 33 38 C35.64 38 38.28 38 41 38 C40.67 38.99 40.34 39.98 40 41 C37.36251538 41.93123033 34.8259246 42.68578668 32.125 43.375 C25.77338958 45.10082882 19.92075503 47.14619025 14.00390625 50.08203125 C12 51 12 51 10 51 C10.33 53.31 10.66 55.62 11 58 C10.01 57.67 9.02 57.34 8 57 C6.73046875 51.140625 6.73046875 51.140625 7 49 C8.62802783 47.6197533 10.29376926 46.28231518 12 45 C11.74307373 44.18958252 11.48614746 43.37916504 11.22143555 42.54418945 C10.25014129 39.47203142 9.28343098 36.39847528 8.31958008 33.32397461 C7.90533218 32.00570949 7.48937776 30.68797913 7.0715332 29.37084961 C0 7.06701264 0 7.06701264 0 0 Z " fill="#000000" transform="translate(213,129)"/>
<path d="M0 0 C2.31243792 -0.02685412 4.6249627 -0.04632841 6.9375 -0.0625 C8.22527344 -0.07410156 9.51304687 -0.08570312 10.83984375 -0.09765625 C14 0 14 0 15 1 C15.6877284 8.9488608 14.51470531 16.83442611 13.4375 24.69140625 C12.95630323 27.77422447 12.95630323 27.77422447 13 30 C7.76363313 29.44880349 3.06723024 28.51095593 -2 27 C-1.50804657 17.97736473 -0.99820304 8.98382735 0 0 Z " fill="#1A1C1E" transform="translate(330,128)"/>
<path d="M0 0 C0.59765625 2.33984375 0.59765625 2.33984375 1 5 C0.484375 5.845625 -0.03125 6.69125 -0.5625 7.5625 C-1.036875 8.366875 -1.51125 9.17125 -2 10 C-1.33333333 12.16666667 -1.33333333 12.16666667 0 14 C1.25196561 17.75589682 0.53086978 18.98875647 -0.75 22.6875 C-3.23844867 30.34293585 -4.65706414 38.07464365 -6 46 C-6.66 46 -7.32 46 -8 46 C-8.36829199 36.77905986 -7.6404364 28.83793738 -5 20 C-4.3342591 17.83204414 -4.3342591 17.83204414 -4 16 C-4.33 15.67 -4.66 15.34 -5 15 C-8.33181427 22.58014704 -11.54234965 30.08090444 -14 38 C-14.66 37.67 -15.32 37.34 -16 37 C-15.58561042 25.189897 -10.09575303 13.9528003 -4 4 C-8.96287991 3.76156983 -13.67155891 3.74363418 -18.5625 4.6875 C-25.49335704 11.26292848 -23.57822007 27.73194105 -24 37 C-24.66 37 -25.32 37 -26 37 C-27.83475693 33.33048615 -27.18474318 28.97624849 -27.1875 24.9375 C-27.19974609 24.02033203 -27.21199219 23.10316406 -27.22460938 22.15820312 C-27.23887338 15.44936688 -27.10136243 8.41471394 -23.5 2.5625 C-16.30638525 -1.93350922 -8.0715892 -1.13554677 0 0 Z " fill="#000000" transform="translate(124,39)"/>
<path d="M0 0 C0.99 0.33 1.98 0.66 3 1 C4.00197064 3.68575218 4.79825493 6.25823057 5.53125 9.01953125 C5.76427826 9.85273392 5.99730652 10.68593658 6.23739624 11.54438782 C7.00482412 14.29696662 7.75412995 17.05400607 8.5 19.8125 C9.54742587 23.67259739 10.60117598 27.53084838 11.6640625 31.38671875 C11.9330838 32.36423096 12.2021051 33.34174316 12.47927856 34.34887695 C14.25109616 40.66431823 16.29469596 46.81276538 18.5859375 52.95703125 C28.171911 79.13887971 28.171911 79.13887971 21.6875 93.25 C19.95345688 96.62256005 18.10959152 99.8490481 16 103 C15.01 103 14.02 103 13 103 C13.45254751 99.72067022 14.39832019 96.90985932 15.69921875 93.890625 C16.02083984 93.13523437 16.34246094 92.37984375 16.67382812 91.6015625 C17.34579923 90.04269312 18.0331934 88.49037576 18.73632812 86.9453125 C21.27995111 80.85712767 21.03574178 77.18580578 19 71 C18.64349365 69.85418457 18.2869873 68.70836914 17.91967773 67.52783203 C17.0678831 64.80835932 16.1985132 62.09519499 15.31762695 59.38500977 C10.87580101 45.71523964 6.77612522 32.0143483 3.3125 18.0625 C3.14047058 17.37541962 2.96844116 16.68833923 2.79119873 15.98043823 C0 4.77529636 0 4.77529636 0 0 Z " fill="#000000" transform="translate(229,209)"/>
<path d="M0 0 C1.60463449 0.31008884 3.20869231 0.62316287 4.8125 0.9375 C5.70582031 1.11152344 6.59914063 1.28554688 7.51953125 1.46484375 C10 2 10 2 13 3 C12.69475674 6.64647953 12.37959487 10.29203348 12.0625 13.9375 C11.97548828 14.97841797 11.88847656 16.01933594 11.79882812 17.09179688 C11.71181641 18.08115234 11.62480469 19.07050781 11.53515625 20.08984375 C11.456604 21.00628662 11.37805176 21.92272949 11.29711914 22.86694336 C11 25 11 25 10 26 C4.28446891 25.60582544 0.2027777 24.34313959 -5 22 C-4.5496745 19.08189078 -4.09009058 16.16576016 -3.625 13.25 C-3.43550781 12.0125 -3.43550781 12.0125 -3.2421875 10.75 C-3.11328125 9.95078125 -2.984375 9.1515625 -2.8515625 8.328125 C-2.73635254 7.5949707 -2.62114258 6.86181641 -2.50244141 6.10644531 C-1.96401163 3.84912166 -1.1112302 2.02990066 0 0 Z " fill="#1A1E22" transform="translate(325,28)"/>
<path d="M0 0 C0.66 0.33 1.32 0.66 2 1 C2.625 3.5625 2.625 3.5625 3 6 C4.32 5.67 5.64 5.34 7 5 C9.05631934 12.06859773 10.67446055 18.58906184 7.3125 25.4375 C4.06146116 29.0400025 1.77326634 29.8522278 -3 30.25 C-6.13435847 29.98880346 -8.26719214 29.56160449 -11 28 C-11.97557365 25.20358216 -12.11868185 22.61545956 -12.09765625 19.671875 C-12.09282227 18.47304687 -12.09282227 18.47304687 -12.08789062 17.25 C-12.07951172 16.425 -12.07113281 15.6 -12.0625 14.75 C-12.05798828 13.90953125 -12.05347656 13.0690625 -12.04882812 12.203125 C-12.03707961 10.13538599 -12.01914522 8.06768376 -12 6 C-11.01 6 -10.02 6 -9 6 C-8.67 9.63 -8.34 13.26 -8 17 C-7.071875 16.505 -6.14375 16.01 -5.1875 15.5 C-2 14 -2 14 1 14 C0.84402344 13.40832031 0.68804687 12.81664063 0.52734375 12.20703125 C-1.4059754 4.35852373 -1.4059754 4.35852373 0 0 Z M4 11 C5 14 5 14 5 14 Z M4 16 C-0.5069748 17.73345185 -3.9454354 19.09015731 -7 23 C-7 23.99 -7 24.98 -7 26 C-2.97869285 26.27635161 -2.97869285 26.27635161 1 26 C3.05270463 24.15811388 3.05270463 24.15811388 4 22 C2.02 22.33 0.04 22.66 -2 23 C-2 22.01 -2 21.02 -2 20 C0.64 19.67 3.28 19.34 6 19 C5.34 18.01 4.68 17.02 4 16 Z " fill="#000000" transform="translate(109,106)"/>
<path d="M0 0 C7.05588892 0.42640848 13.2740871 1.73603882 19.9375 4.0625 C20.83049805 4.36833008 21.72349609 4.67416016 22.64355469 4.98925781 C29.08197162 7.2351118 35.44129337 9.6628199 41.75 12.25 C42.565896 12.5787915 43.38179199 12.90758301 44.22241211 13.24633789 C46.1872799 14.07745682 48.10033235 15.02905876 50 16 C50.495 17.485 50.495 17.485 51 19 C50.01 20.485 50.01 20.485 49 22 C48.01 22 47.02 22 46 22 C46.495 20.515 46.495 20.515 47 19 C32.47369254 13.48459532 18.01921587 8.02489565 3 4 C0.89436965 7.22821443 -1.20924356 10.45773851 -3.3125 13.6875 C-4.20485352 15.05551758 -4.20485352 15.05551758 -5.11523438 16.45117188 C-5.69208984 17.33740234 -6.26894531 18.22363281 -6.86328125 19.13671875 C-7.39219971 19.94842529 -7.92111816 20.76013184 -8.46606445 21.59643555 C-10.06032935 24.02883413 -10.06032935 24.02883413 -11.50854492 26.80395508 C-12.0007251 27.5286499 -12.49290527 28.25334473 -13 29 C-13.99 29 -14.98 29 -16 29 C-14.62359788 24.372199 -12.68138619 20.33441529 -10.25 16.1875 C-9.89873047 15.58019043 -9.54746094 14.97288086 -9.18554688 14.34716797 C-6.31582805 9.43192814 -3.23833611 4.6804292 0 0 Z " fill="#000000" transform="translate(254,333)"/>
<path d="M0 0 C0.89434157 1.40453643 1.76493192 2.82421869 2.625 4.25 C3.35589844 5.43335937 3.35589844 5.43335937 4.1015625 6.640625 C5 9 5 9 4.3984375 11.04296875 C2.78206966 13.30498073 1.01167021 15.14327787 -1 17.0625 C-3.37442798 19.33653856 -5.16347952 21.24521929 -7 24 C-8.32 24 -9.64 24 -11 24 C-11.86916887 22.59248779 -12.71985149 21.1735479 -13.5625 19.75 C-14.27599609 18.56664062 -14.27599609 18.56664062 -15.00390625 17.359375 C-16 15 -16 15 -15.984375 13.0625 C-14.48343102 9.91766499 -12.13756281 7.66519775 -9.6875 5.25 C-9.20087891 4.74339844 -8.71425781 4.23679687 -8.21289062 3.71484375 C-5.1891678 0.69519054 -4.45294674 0 0 0 Z " fill="#000000" transform="translate(304,66)"/>
<path d="M0 0 C0.99 0 1.98 0 3 0 C7.2762249 9.6594928 8.58118942 19.62763479 10 30 C8.75539217 30.67667998 7.50403104 31.34094719 6.25 32 C5.55390625 32.37125 4.8578125 32.7425 4.140625 33.125 C2 34 2 34 -2 34 C-9.65137615 14.14067278 -9.65137615 14.14067278 -11 5 C-9.93458984 4.58427734 -9.93458984 4.58427734 -8.84765625 4.16015625 C-7.46900391 3.61681641 -7.46900391 3.61681641 -6.0625 3.0625 C-5.14597656 2.70285156 -4.22945313 2.34320313 -3.28515625 1.97265625 C-1.07581467 1.2003782 -1.07581467 1.2003782 0 0 Z M-7 7 C-4.97810834 14.78121942 -2.61369593 22.39772708 0 30 C1.98 29.34 3.96 28.68 6 28 C4.83644139 15.68267066 4.83644139 15.68267066 1 4 C-1.60939857 4 -4.6401989 5.97026861 -7 7 Z " fill="#000000" transform="translate(354,57)"/>
<path d="M0 0 C1.32 0.33 2.64 0.66 4 1 C4.33 7.6 4.66 14.2 5 21 C13.52691006 16.62722561 21.19107828 11.80892172 28 5 C31.125 4.875 31.125 4.875 34 5 C25.63714311 15.91817427 13.88644824 22.54685428 2 29 C-0.82812598 26.17187402 -0.0698193 18.68096676 -0.09765625 14.84375 C-0.09110744 13.06247349 -0.07932828 11.28120906 -0.0625 9.5 C-0.05798828 8.5821875 -0.05347656 7.664375 -0.04882812 6.71875 C-0.03716326 4.47909609 -0.02079614 2.23958455 0 0 Z " fill="#2B7FFF" transform="translate(285,248)"/>
<path d="M0 0 C0.67184618 2.10251861 1.33730968 4.20707763 2 6.3125 C2.37125 7.48425781 2.7425 8.65601562 3.125 9.86328125 C4 13 4 13 4 16 C2.12612523 16.3396019 0.25083303 16.67138691 -1.625 17 C-2.66914063 17.185625 -3.71328125 17.37125 -4.7890625 17.5625 C-7.90574865 17.98715797 -10.85930812 18.07545206 -14 18 C-15.3271261 14.0186217 -15.06915913 10.14954773 -15 6 C-12.87717331 4.99539469 -10.75166979 3.99644398 -8.625 3 C-7.44164062 2.443125 -6.25828125 1.88625 -5.0390625 1.3125 C-2 0 -2 0 0 0 Z " fill="#1A1E20" transform="translate(209,74)"/>
<path d="M0 0 C1.68802734 0.01353516 1.68802734 0.01353516 3.41015625 0.02734375 C4.66119141 0.04474609 4.66119141 0.04474609 5.9375 0.0625 C5.9375 1.0525 5.9375 2.0425 5.9375 3.0625 C-23.95608793 7.95713567 -23.95608793 7.95713567 -37.0625 9.875 C-37.88387451 9.9985083 -38.70524902 10.1220166 -39.55151367 10.24926758 C-44.10732007 10.90173833 -48.46005818 11.1787851 -53.0625 11.0625 C-53.0625 10.0725 -53.0625 9.0825 -53.0625 8.0625 C-44.7149341 5.91039317 -36.31098938 4.35478173 -27.8125 2.9375 C-26.79542969 2.76702148 -25.77835938 2.59654297 -24.73046875 2.42089844 C-16.46820723 1.06629689 -8.38967839 -0.0883124 0 0 Z " fill="#2B7FFF" transform="translate(120.0625,174.9375)"/>
<path d="M0 0 C2.25809954 8.0098625 3.57258771 15.6875679 4 24 C0.30741653 25.51490604 -2.77091493 26.12024234 -6.72265625 26.0625 C-7.52582275 26.05347656 -8.32898926 26.04445313 -9.15649414 26.03515625 C-9.76485107 26.02355469 -10.37320801 26.01195313 -11 26 C-11.67507066 22.93929066 -12.33854922 19.8761791 -13 16.8125 C-13.19078125 15.94818359 -13.3815625 15.08386719 -13.578125 14.19335938 C-13.75859375 13.35224609 -13.9390625 12.51113281 -14.125 11.64453125 C-14.29257813 10.87471924 -14.46015625 10.10490723 -14.6328125 9.31176758 C-15.02550915 6.83939753 -15.06185285 4.49924191 -15 2 C-13.62705778 1.65828994 -12.25149882 1.32708883 -10.875 1 C-10.10929688 0.814375 -9.34359375 0.62875 -8.5546875 0.4375 C-5.66526648 -0.0573244 -2.92602801 -0.06784992 0 0 Z M-11 5 C-10.32418477 11.08233706 -9.26361972 17.01314152 -8 23 C-4.04 22.505 -4.04 22.505 0 22 C0.23268915 15.71739294 -0.59545452 10.11980533 -2 4 C-5.76624671 2.74458443 -7.37188934 3.62938042 -11 5 Z " fill="#000000" transform="translate(152,40)"/>
<path d="M0 0 C2.97 0 5.94 0 9 0 C9.28545428 8.13544686 8.18396883 15.97649696 7 24 C2.545 23.01 2.545 23.01 -2 22 C-1.34 14.74 -0.68 7.48 0 0 Z " fill="#2B7FFF" transform="translate(333,131)"/>
<path d="M0 0 C4.46220568 1.50101656 6.32101806 5.01131402 8.6875 8.8125 C9.09033203 9.42931641 9.49316406 10.04613281 9.90820312 10.68164062 C12.06547063 14.08195674 13.547874 16.97684493 14 21 C12.02 21.66 10.04 22.32 8 23 C7.40832031 22.25234375 6.81664062 21.5046875 6.20703125 20.734375 C5.41683594 19.74953125 4.62664063 18.7646875 3.8125 17.75 C3.03519531 16.77546875 2.25789063 15.8009375 1.45703125 14.796875 C-0.855712 12.16424517 -3.19803053 10.09027918 -6 8 C-4.55746343 4.63408134 -2.66735273 2.48952921 0 0 Z " fill="#2B7FFF" transform="translate(33,78)"/>
<path d="M0 0 C2.73512618 2.47740912 4.50983248 5.24093031 6.4375 8.375 C10.10870123 14.33762213 13.36383187 18.94104367 19.375 22.6875 C20.29023438 23.26886719 21.20546875 23.85023438 22.1484375 24.44921875 C25.04260144 26.02316818 27.84960599 27.05674044 31 28 C30.67 28.99 30.34 29.98 30 31 C20.00856749 30.28632625 14.0162937 26.77414335 7.125 19.5 C-0.79545455 10.18181818 -0.79545455 10.18181818 -1.140625 4.8125 C-0.875 2.875 -0.875 2.875 0 0 Z " fill="#2B7FFF" transform="translate(349,203)"/>
<path d="M0 0 C2.76053168 3.37737615 5.28214651 6.84279606 7.75 10.4375 C13.90435081 18.87418386 19.86394866 22.63215194 30 25 C29.67 25.99 29.34 26.98 29 28 C21.0083583 28.77338468 16.31625004 26.92542014 10 22 C7.37231175 19.51773725 5.13987841 16.90978175 3 14 C2.55398438 13.39929688 2.10796875 12.79859375 1.6484375 12.1796875 C-0.54195083 8.85685351 -1.00455197 7.07169348 -0.75 3.0625 C-0.5025 2.051875 -0.255 1.04125 0 0 Z " fill="#2B7FFF" transform="translate(345,216)"/>
<path d="M0 0 C4.63969753 0.6650761 6.77054286 2.0049461 9.890625 5.3984375 C11 7 11 7 11.125 9.375 C9.5708853 13.00126763 7.85685086 16.5194842 6 20 C1.15340923 19.40895235 -2.60748167 18.02055843 -7 16 C-6.66830805 9.69785303 -3.32676012 5.14783064 0 0 Z M1 5 C-0.32 7.64 -1.64 10.28 -3 13 C-0.67676547 14.62750037 -0.67676547 14.62750037 2 16 C5.15380936 15.26881745 5.15380936 15.26881745 6.75 12.625 C8.37982969 9.98385511 8.37982969 9.98385511 7 7 C4.18490007 4.7226499 4.18490007 4.7226499 1 5 Z " fill="#000000" transform="translate(244,45)"/>
<path d="M0 0 C5.75 -0.125 5.75 -0.125 8 1 C7.34 6.61 6.68 12.22 6 18 C3.36 17.67 0.72 17.34 -2 17 C-3.10030227 13.66035015 -2.87633055 11.34936408 -2.125 7.9375 C-1.94195312 7.08027344 -1.75890625 6.22304688 -1.5703125 5.33984375 C-1 3 -1 3 0 0 Z " fill="#2B7FFF" transform="translate(327,32)"/>
<path d="M0 0 C-1 3 -1 3 -3.0378418 4.05908203 C-4.35522339 4.52870361 -4.35522339 4.52870361 -5.69921875 5.0078125 C-6.66150391 5.35457031 -7.62378906 5.70132813 -8.61523438 6.05859375 C-9.62908203 6.41050781 -10.64292969 6.76242188 -11.6875 7.125 C-12.68201172 7.48464844 -13.67652344 7.84429687 -14.70117188 8.21484375 C-19.44166875 9.89909214 -23.97199708 11.43467088 -29 12 C-29 10.68 -29 9.36 -29 8 C-25.60667609 6.68094674 -22.20993431 5.37092599 -18.8125 4.0625 C-17.85279297 3.68931641 -16.89308594 3.31613281 -15.90429688 2.93164062 C-14.50727539 2.39506836 -14.50727539 2.39506836 -13.08203125 1.84765625 C-12.22843018 1.51773682 -11.3748291 1.18781738 -10.49536133 0.84790039 C-6.54542785 -0.49424998 -4.0261294 -1.34204313 0 0 Z " fill="#2B7FFF" transform="translate(263,193)"/>
<path d="M0 0 C4.62 0 9.24 0 14 0 C14 6 14 6 11.8125 8.9375 C9 11 9 11 6.375 11 C3.7587211 9.89840889 2.57565985 9.36348978 1 7 C0.3125 3.3125 0.3125 3.3125 0 0 Z M4 3 C4.66 4.32 5.32 5.64 6 7 C6.99 7 7.98 7 9 7 C9.66 5.68 10.32 4.36 11 3 C8.69 3 6.38 3 4 3 Z " fill="#000000" transform="translate(163,251)"/>
<path d="M0 0 C0 1.32 0 2.64 0 4 C-2.3736397 4.50734284 -4.74857425 5.00602386 -7.125 5.5 C-7.79015625 5.64308594 -8.4553125 5.78617188 -9.140625 5.93359375 C-13.16056422 6.7612283 -16.89904899 7.15330658 -21 7 C-21 5.68 -21 4.36 -21 3 C-18.81462633 2.49078672 -16.62657569 1.99305563 -14.4375 1.5 C-12.61025391 1.08234375 -12.61025391 1.08234375 -10.74609375 0.65625 C-7.07777293 0.01362446 -3.71497397 -0.11474823 0 0 Z " fill="#2B7FFF" transform="translate(42,180)"/>
<path d="M0 0 C2.95183101 2.95183101 3.08663988 5.95511947 4 10 C-1.94 10.495 -1.94 10.495 -8 11 C-8.33 8.69 -8.66 6.38 -9 4 C-6.03 2.68 -3.06 1.36 0 0 Z " fill="#2B7FFF" transform="translate(206,78)"/>
<path d="M0 0 C0 0.66 0 1.32 0 2 C-0.6290625 2.14695312 -1.258125 2.29390625 -1.90625 2.4453125 C-9.4610946 4.42504587 -15.57733584 7.36600377 -20 14 C-20.99 14 -21.98 14 -23 14 C-21.93995361 8.56726228 -19.35703184 5.8759136 -15.22265625 2.484375 C-10.48387851 -0.68036233 -5.55394881 -1.735609 0 0 Z " fill="#000000" transform="translate(107,80)"/>
<path d="M0 0 C0 0.66 0 1.32 0 2 C-0.89203125 2.44730469 -1.7840625 2.89460938 -2.703125 3.35546875 C-3.87359375 3.96003906 -5.0440625 4.56460938 -6.25 5.1875 C-7.99023438 6.07501953 -7.99023438 6.07501953 -9.765625 6.98046875 C-13.62224923 9.38853002 -15.97147368 11.94294737 -18 16 C-18.66 16 -19.32 16 -20 16 C-20 12.15421965 -19.87128447 10.01785569 -17.328125 7.046875 C-11.74895365 2.05498484 -7.63254736 -0.3550022 0 0 Z " fill="#000000" transform="translate(106,91)"/>
<path d="M0 0 C0.66 0 1.32 0 2 0 C2.41954857 8.53082101 1.07265297 16.40361685 -3 24 C-3.66 24 -4.32 24 -5 24 C-4.41640925 15.68383188 -2.26200586 7.98540674 0 0 Z " fill="#000000" transform="translate(141,205)"/>
<path d="M0 0 C6.81987029 0.43300764 11.91643021 1.90787824 18 5 C18 5.66 18 6.32 18 7 C11.38914524 6.51030705 6.05022986 4.66557258 0 2 C0 1.34 0 0.68 0 0 Z " fill="#000000" transform="translate(283,353)"/>
<path d="M0 0 C-0.33 1.32 -0.66 2.64 -1 4 C-3.99480917 4.8723412 -6.63575911 5.10829766 -9.75 5.0625 C-10.54921875 5.05347656 -11.3484375 5.04445312 -12.171875 5.03515625 C-12.77515625 5.02355469 -13.3784375 5.01195312 -14 5 C-14 3.68 -14 2.36 -14 1 C-9.32798795 -0.20568053 -4.78503708 -0.09382426 0 0 Z " fill="#2B7FFF" transform="translate(161,167)"/>
<path d="M0 0 C0.99 0 1.98 0 3 0 C2.52450066 2.62571335 2.04477433 5.2505304 1.5625 7.875 C1.42779297 8.62136719 1.29308594 9.36773437 1.15429688 10.13671875 C0.11328125 15.7734375 0.11328125 15.7734375 -1 18 C-1.66 18 -2.32 18 -3 18 C-4.35032223 14.27311064 -3.63396009 11.64240144 -2.625 7.875 C-2.34914063 6.82054687 -2.07328125 5.76609375 -1.7890625 4.6796875 C-1 2 -1 2 0 0 Z " fill="#000000" transform="translate(372,128)"/>
<path d="M0 0 C0.66 0 1.32 0 2 0 C2 6.27 2 12.54 2 19 C1.01 19.33 0.02 19.66 -1 20 C-3 6 -3 6 0 0 Z " fill="#000000" transform="translate(152,104)"/>
<path d="M0 0 C6.20988129 0.44356295 10.60540561 1.91532502 16 5 C16 5.99 16 6.98 16 8 C12.41448703 7.36802109 9.14587576 6.43658076 5.75 5.125 C4.87859375 4.79757812 4.0071875 4.47015625 3.109375 4.1328125 C1 3 1 3 0 0 Z " fill="#000000" transform="translate(277,364)"/>
<path d="M0 0 C0.99 0.33 1.98 0.66 3 1 C4.203125 3.8359375 4.203125 3.8359375 5.25 7.375 C5.60578125 8.53773438 5.9615625 9.70046875 6.328125 10.8984375 C7 14 7 14 6 17 C1.67488672 13.08680227 0.12016048 8.24299561 -0.1875 2.5 C-0.125625 1.675 -0.06375 0.85 0 0 Z " fill="#000000" transform="translate(219,126)"/>
<path d="M0 0 C4.28359404 1.7511548 5.30105853 3.90404366 7.18359375 7.95703125 C8.11195958 10.28016679 8.68962315 12.51698523 9 15 C8.01 15 7.02 15 6 15 C4.98965502 13.25595212 3.99207578 11.50450439 3 9.75 C2.1646875 8.28820312 2.1646875 8.28820312 1.3125 6.796875 C0 4 0 4 0 0 Z " fill="#000000" transform="translate(13,124)"/>
<path d="M0 0 C5.05361483 1.13270677 9.52719669 2.27268091 14 5 C14.33 5.99 14.66 6.98 15 8 C9.22621075 7.5188509 5.04140164 5.81532819 0 3 C0 2.01 0 1.02 0 0 Z " fill="#000000" transform="translate(282,358)"/>
<path d="M0 0 C3 1 3 1 4.6875 3.5625 C6.28057068 7.73482797 6.22913445 10.57006738 6 15 C5.01 15.33 4.02 15.66 3 16 C2.49411853 14.08487728 1.99551609 12.16783078 1.5 10.25 C1.2215625 9.18265625 0.943125 8.1153125 0.65625 7.015625 C0 4 0 4 0 0 Z " fill="#000000" transform="translate(367,149)"/>
<path d="M0 0 C0.66 0.33 1.32 0.66 2 1 C0.1643002 10.9127789 0.1643002 10.9127789 -3 15 C-3.66 15 -4.32 15 -5 15 C-4.56826496 8.84777564 -3.34594658 5.18082051 0 0 Z " fill="#000000" transform="translate(379,130)"/>
<path d="M0 0 C0.99 0 1.98 0 3 0 C2.22095672 10.55808656 2.22095672 10.55808656 0 15 C-0.66 15 -1.32 15 -2 15 C-2.21755666 9.5610835 -2.10428384 5.12919186 0 0 Z " fill="#000000" transform="translate(158,107)"/>
<path d="M0 0 C0 0.99 0 1.98 0 3 C-6.5 6 -6.5 6 -11 6 C-11 4.68 -11 3.36 -11 2 C-7.17010894 0.19769832 -4.21878192 -0.19622241 0 0 Z " fill="#2B7FFF" transform="translate(244,189)"/>
<path d="M0 0 C0.99 0.33 1.98 0.66 3 1 C4.65049717 5.43028188 5.22973141 9.29050618 5 14 C4.01 13.67 3.02 13.34 2 13 C0.01165038 8.60470084 -0.19118486 4.77962147 0 0 Z " fill="#000000" transform="translate(224,125)"/>
<path d="M0 0 C0.66 0 1.32 0 2 0 C1.48474397 5.28137429 -0.25477117 8.57221156 -3 13 C-3.66 13 -4.32 13 -5 13 C-4.56744475 7.59305933 -3.41778487 4.24633878 0 0 Z " fill="#000000" transform="translate(383,135)"/>
<path d="M0 0 C0.66 0 1.32 0 2 0 C2.34615998 5.65394631 1.43425238 9.03006806 -1 14 C-1.66 14 -2.32 14 -3 14 C-2.88512252 12.41590006 -2.75765492 10.83271037 -2.625 9.25 C-2.55539063 8.36828125 -2.48578125 7.4865625 -2.4140625 6.578125 C-2.00149945 4.00933618 -1.28839043 2.24158985 0 0 Z " fill="#000000" transform="translate(164,109)"/>
<path d="M0 0 C3 2 3 2 3.68359375 3.828125 C4.02479789 6.17021759 4.09729516 8.38392907 4.0625 10.75 C4.05347656 11.54921875 4.04445312 12.3484375 4.03515625 13.171875 C4.01775391 14.07679688 4.01775391 14.07679688 4 15 C3.34 15 2.68 15 2 15 C-0.59227518 10.13948404 -0.18689553 5.34728867 0 0 Z " fill="#000000" transform="translate(230,123)"/>
<path d="M0 0 C0.66 0 1.32 0 2 0 C3.12256131 2.24512262 3.13413762 3.51456649 3.125 6 C3.12757813 6.70125 3.13015625 7.4025 3.1328125 8.125 C3 10 3 10 2 12 C1.34 12 0.68 12 0 12 C-1.29449495 8.11651516 -1.13203312 5.09302664 -1 1 C-0.67 0.67 -0.34 0.34 0 0 Z " fill="#000000" transform="translate(169,237)"/>
<path d="M0 0 C3.40843742 2.88406243 4.86591384 4.3708265 5.8125 8.8125 C5.9053125 10.3903125 5.9053125 10.3903125 6 12 C3 11 3 11 1.796875 9.2578125 C1.45140625 8.55398437 1.1059375 7.85015625 0.75 7.125 C0.39421875 6.42632812 0.0384375 5.72765625 -0.328125 5.0078125 C-1 3 -1 3 0 0 Z " fill="#000000" transform="translate(19,118)"/>
<path d="M0 0 C0.99 0 1.98 0 3 0 C2.69078116 1.45903258 2.37751201 2.91720722 2.0625 4.375 C1.88847656 5.18710938 1.71445312 5.99921875 1.53515625 6.8359375 C1 9 1 9 0 11 C-0.99 11 -1.98 11 -3 11 C-2.69217504 9.35328588 -2.37860766 7.70764424 -2.0625 6.0625 C-1.88847656 5.14597656 -1.71445312 4.22945312 -1.53515625 3.28515625 C-1 1 -1 1 0 0 Z " fill="#000000" transform="translate(302,212)"/>
<path d="M0 0 C0.66 0 1.32 0 2 0 C1.67 3.3 1.34 6.6 1 10 C0.01 10.33 -0.98 10.66 -2 11 C-2.28571429 3.57142857 -2.28571429 3.57142857 0 0 Z " fill="#000000" transform="translate(233,145)"/>
<path d="M0 0 C0.99 0 1.98 0 3 0 C4.60355101 3.50776784 5.22036864 6.14354879 5 10 C2 9 2 9 0.8125 6.6875 C0 4 0 4 0 0 Z " fill="#000000" transform="translate(24,115)"/>
<path d="M0 0 C-0.875 3.875 -0.875 3.875 -2 5 C-3.99958364 5.04080783 -6.00045254 5.04254356 -8 5 C-8.33 3.68 -8.66 2.36 -9 1 C-2.25 0 -2.25 0 0 0 Z " fill="#000000" transform="translate(307,225)"/>
<path d="M0 0 C1.98 0.495 1.98 0.495 4 1 C3.67 2.32 3.34 3.64 3 5 C1.68 5 0.36 5 -1 5 C-0.67 3.35 -0.34 1.7 0 0 Z " fill="#000000" transform="translate(310,215)"/>
<path d="M0 0 C1.32 0.33 2.64 0.66 4 1 C3.67 2.65 3.34 4.3 3 6 C2.01 6 1.02 6 0 6 C0 4.02 0 2.04 0 0 Z " fill="#000000" transform="translate(175,237)"/>
</svg>
