<?xml version="1.0" encoding="UTF-8" standalone="no"?>
<!-- Created with Inkscape (http://www.inkscape.org/) -->

<svg
   width="1001.4389mm"
   height="649.06042mm"
   viewBox="0 0 1001.4389 649.06042"
   version="1.1"
   id="svg1"
   xml:space="preserve"
   xmlns:inkscape="http://www.inkscape.org/namespaces/inkscape"
   xmlns:sodipodi="http://sodipodi.sourceforge.net/DTD/sodipodi-0.dtd"
   xmlns="http://www.w3.org/2000/svg"
   xmlns:svg="http://www.w3.org/2000/svg"><sodipodi:namedview
     id="namedview1"
     pagecolor="#ffffff"
     bordercolor="#666666"
     borderopacity="1.0"
     inkscape:showpageshadow="2"
     inkscape:pageopacity="0.0"
     inkscape:pagecheckerboard="0"
     inkscape:deskcolor="#d1d1d1"
     inkscape:document-units="mm"
     inkscape:zoom="3.0262266"
     inkscape:cx="6145.4419"
     inkscape:cy="1763.4172"
     inkscape:window-width="1664"
     inkscape:window-height="900"
     inkscape:window-x="0"
     inkscape:window-y="30"
     inkscape:window-maximized="0"
     inkscape:current-layer="g6413"><inkscape:page
       x="0"
       y="1.7928863e-21"
       width="1001.4389"
       height="649.06042"
       id="page2"
       margin="0"
       bleed="0" /></sodipodi:namedview><defs
     id="defs1" /><g
     inkscape:label="Layer 1"
     inkscape:groupmode="layer"
     id="layer1"
     transform="translate(-690.76982,-104.0923)"><g
       id="g6413"
       transform="matrix(9.9461238,0,0,7.0594616,-3469.1629,-968.03441)"><path
         style="fill:#f1f1f1;stroke:none"
         d="m 432.53413,239.31489 0.26459,0.26458 z"
         id="path10153"
         inkscape:export-filename="help.svg"
         inkscape:export-xdpi="96"
         inkscape:export-ydpi="96" /><path
         style="fill:#c7c7c7;stroke:none"
         d="m 432.18136,239.40308 0.17639,0.0882 z"
         id="path10152" /><path
         style="fill:#f1f1f1;stroke:none"
         d="m 431.74038,239.31489 0.26459,0.26458 z"
         id="path10151" /><path
         style="fill:#515151;stroke:none"
         d="m 430.94663,239.0503 0.26459,0.26459 z"
         id="path10135" /><path
         style="fill:#616161;stroke:none"
         d="m 430.68205,239.0503 0.26458,0.26459 z"
         id="path10134" /><path
         style="fill:#8d8d8d;stroke:none"
         d="m 430.41747,239.0503 0.26458,0.26459 z"
         id="path10133" /><path
         style="fill:#c7c7c7;stroke:none"
         d="m 430.15288,239.0503 0.26459,0.26459 z"
         id="path10132" /><path
         style="fill:#272727;stroke:none"
         d="m 429.8883,238.78572 0.26458,0.26458 z"
         id="path10118" /><path
         style="fill:#616161;stroke:none"
         d="m 429.62372,238.78572 0.26458,0.26458 z"
         id="path10117" /><path
         style="fill:#a9a9a9;stroke:none"
         d="m 498.41539,238.52114 0.26458,0.26458 -0.26458,-0.26458 m -69.05626,0.26458 0.26459,0.26458 z"
         id="path10116" /><path
         style="fill:#454545;stroke:none"
         d="m 432.53413,238.52114 0.26459,0.26458 z"
         id="path10104" /><path
         style="fill:#535353;stroke:none"
         d="m 432.18136,238.60933 0.17639,0.0882 z"
         id="path10103" /><path
         style="fill:#272727;stroke:none"
         d="m 429.09455,238.52114 0.26458,0.26458 z"
         id="path10102" /><path
         style="fill:#6f6f6f;stroke:none"
         d="m 428.82997,238.52114 0.26458,0.26458 z"
         id="path10101" /><path
         style="fill:#e3e3e3;stroke:none"
         d="m 428.56538,238.52114 0.26459,0.26458 z"
         id="path10100" /><path
         style="fill:#f1f1f1;stroke:none"
         d="m 431.21122,238.25655 0.26458,0.26459 z"
         id="path10084" /><path
         style="fill:#c7c7c7;stroke:none"
         d="m 430.94663,238.25655 0.26459,0.26459 z"
         id="path10083" /><path
         style="fill:#8d8d8d;stroke:none"
         d="m 430.68205,238.25655 0.26458,0.26459 z"
         id="path10082" /><path
         style="fill:#717171;stroke:none"
         d="m 430.41747,238.25655 0.26458,0.26459 z"
         id="path10081" /><path
         style="fill:#292929;stroke:none"
         d="m 430.15288,238.25655 0.26459,0.26459 z"
         id="path10080" /><path
         style="fill:#6f6f6f;stroke:none"
         d="m 428.3008,238.25655 0.26458,0.26459 z"
         id="path10079" /><path
         style="fill:#e3e3e3;stroke:none"
         d="m 428.03622,238.25655 0.26458,0.26459 z"
         id="path10078" /><path
         style="fill:#d5d5d5;stroke:none"
         d="m 429.8883,237.99197 0.26458,0.26458 z"
         id="path10062" /><path
         style="fill:#7d7d7d;stroke:none"
         d="m 429.62372,237.99197 0.26458,0.26458 z"
         id="path10061" /><path
         style="fill:#292929;stroke:none"
         d="m 429.35913,237.99197 0.26459,0.26458 z"
         id="path10060" /><path
         style="fill:#272727;stroke:none"
         d="m 428.03622,237.99197 0.26458,0.26458 z"
         id="path10059" /><path
         style="fill:#8d8d8d;stroke:none"
         d="m 498.15081,237.72739 0.26458,0.26458 -0.26458,-0.26458 m 1.32291,0 0.26459,0.26458 -0.26459,-0.26458 m -71.70209,0.26458 0.26459,0.26458 z"
         id="path10058" /><path
         style="fill:#ababab;stroke:none"
         d="m 429.09455,237.72739 0.26458,0.26458 z"
         id="path10042" /><path
         style="fill:#353535;stroke:none"
         d="m 428.82997,237.72739 0.26458,0.26458 z"
         id="path10041" /><path
         style="fill:#454545;stroke:none"
         d="m 427.50705,237.72739 0.26458,0.26458 z"
         id="path10040" /><path
         style="fill:#d5d5d5;stroke:none"
         d="m 427.24247,237.72739 0.26458,0.26458 z"
         id="path10039" /><path
         style="fill:#ababab;stroke:none"
         d="m 428.56538,237.4628 0.26459,0.26459 z"
         id="path10024" /><path
         style="fill:#353535;stroke:none"
         d="m 428.3008,237.4628 0.26458,0.26459 z"
         id="path10023" /><path
         style="fill:#999999;stroke:none"
         d="m 426.97788,237.4628 0.26459,0.26459 z"
         id="path10022" /><path
         style="fill:#f1f1f1;stroke:none"
         d="m 428.3008,237.19822 0.26458,0.26458 z"
         id="path10011" /><path
         style="fill:#8d8d8d;stroke:none"
         d="m 428.03622,237.19822 0.26458,0.26458 z"
         id="path10010" /><path
         style="fill:#6f6f6f;stroke:none"
         d="m 426.7133,237.19822 0.26458,0.26458 z"
         id="path10009" /><path
         style="fill:#c7c7c7;stroke:none"
         d="m 427.77163,236.93364 0.26459,0.26458 -0.26459,-0.26458 m 10.31876,0 0.26458,0.26458 z"
         id="path10000" /><path
         style="fill:#353535;stroke:none"
         d="m 427.50705,236.93364 0.26458,0.26458 z"
         id="path9999" /><path
         style="fill:#515151;stroke:none"
         d="m 426.44872,236.93364 0.26458,0.26458 z"
         id="path9998" /><path
         style="fill:#f1f1f1;stroke:none"
         d="m 426.18413,236.93364 0.26459,0.26458 z"
         id="path9997" /><path
         style="fill:#e3e3e3;stroke:none"
         d="m 505.55914,229.26072 0.26458,0.26458 -0.26458,-0.26458 m -84.13751,0.26458 0.26459,0.26459 z"
         id="path9737" /><path
         style="fill:#272727;stroke:none"
         d="m 506.35289,226.87947 0.26458,0.26458 -0.26458,-0.26458 m -85.46042,0.26458 0.26458,0.26459 z"
         id="path9693" /><path
         style="fill:#515151;stroke:none"
         d="m 490.21331,220.79405 0.26458,0.26458 -0.26458,-0.26458 m 17.4625,0 0.26458,0.26458 z"
         id="path9536" /><path
         style="fill:#7f7f7f;stroke:none"
         d="m 507.94039,219.73572 0.26459,0.26458 -0.26459,-0.26458 m -69.05625,0.26458 0.26458,0.26458 z"
         id="path9515" /><path
         style="fill:#515151;stroke:none"
         d="m 489.68414,218.94197 0.26458,0.26458 -0.26458,-0.26458 m 0.79375,0 0.26458,0.26458 -0.26458,-0.26458 m 17.72709,0 0.26458,0.26458 -0.26458,-0.26458 m 0.79375,0 0.26458,0.26458 z"
         id="path9504" /><path
         style="fill:#8d8d8d;stroke:none"
         d="m 489.68414,218.67738 0.26458,0.26459 -0.26458,-0.26459 m 18.52084,0 0.26458,0.26459 z"
         id="path9501" /><path
         style="fill:#515151;stroke:none"
         d="m 509.35151,215.4142 0.0882,0.17637 -0.0882,-0.17637 m -88.98821,0.0882 0.26458,0.26459 z"
         id="path9423" /><path
         style="fill:#8d8d8d;stroke:none"
         d="m 509.26331,214.97322 0.26458,0.26458 -0.26458,-0.26458 m -88.90001,0.26458 0.26458,0.26458 -0.26458,-0.26458 m 18.34445,0.1764 0.0882,0.17637 -0.0882,-0.17637 m 0.70555,-0.1764 0.26459,0.26458 z"
         id="path9416" /><path
         style="fill:#6f6f6f;stroke:none"
         d="m 490.47789,214.44405 0.26458,0.26458 -0.26458,-0.26458 m 17.72709,0 0.26458,0.26458 z"
         id="path9394" /><path
         style="fill:#616161;stroke:none"
         d="m 508.99873,214.17947 0.26458,0.26458 -0.26458,-0.26458 m -88.37085,0.26458 0.26459,0.26458 z"
         id="path9387" /><path
         style="fill:#d5d5d5;stroke:none"
         d="m 509.26331,210.73988 0.26458,0.26459 -0.26458,-0.26459 m -86.51876,0.26459 0.26458,0.26458 z"
         id="path9178" /><path
         style="fill:#8d8d8d;stroke:none"
         d="m 509.52789,209.41697 0.26459,0.26458 -0.26459,-0.26458 m -85.72501,0.26458 0.26459,0.26458 z"
         id="path9114" /><path
         style="fill:#f1f1f1;stroke:none"
         d="m 508.73414,208.62322 0.26459,0.26458 -0.26459,-0.26458 m -84.93126,0.26458 0.26459,0.26458 z"
         id="path9062" /><path
         style="fill:#2b7fff;fill-opacity:1;stroke:none"
         d="m 460.84455,243.8128 c 2.04924,-1.4475 5.22047,-4.67524 5.94966,-7.14375 0.48987,-1.65833 0.13576,-3.83671 0.13576,-5.55625 0,-3.50457 0.21573,-7.08716 -0.0237,-10.58333 -0.19535,-2.85261 -1.36369,-7.57622 -0.56551,-10.29507 0.29793,-1.01483 1.56579,-1.80932 2.17669,-2.66952 -1.12995,-0.76776 -3.57947,-2.48 -4.73126,-0.64471 -0.48587,0.7742 0.23058,2.14389 0.14352,3.02596 -0.20986,2.12625 -1.17469,4.30257 -1.76226,6.35 -1.35301,4.71472 -2.6887,9.47549 -3.65129,14.28751 -0.44511,2.22513 -1.16048,4.5933 -0.75966,6.87916 0.38882,2.21737 1.96825,4.43327 3.08803,6.35 z"
         id="path8698" /><path
         style="fill:#000000;fill-opacity:1;stroke:#000000;stroke-width:0.11934;stroke-dasharray:none;stroke-opacity:1"
         d="m 508.46956,208.09405 c 3.64771,-0.89863 8.18196,-0.56773 10.31875,-4.23333 -1.3934,0.6201 -2.49337,1.69405 -3.96875,2.18281 -1.88164,0.62334 -5.09002,0.3393 -6.35,2.05052 z"
         id="path8474" /><path
         style="fill:#f1f1f1;stroke:none"
         d="m 423.80288,202.80238 0.26459,0.26459 -0.26459,-0.26459 m 29.36876,0 0.26458,0.26459 z"
         id="path8289" /><path
         style="fill:#000000;fill-opacity:1;stroke:#000000;stroke-width:0.11934;stroke-dasharray:none;stroke-opacity:1"
         d="m 516.67164,202.27322 -3.43958,2.64583 c 1.31904,-0.13583 3.77726,-0.98229 3.43958,-2.64583 z"
         id="path8244" /><path
         style="fill:#000000;fill-opacity:1;stroke:#000000;stroke-width:0.11934;stroke-linecap:round;stroke-linejoin:round;stroke-dasharray:none;stroke-opacity:1"
         d="m 512.43831,203.33155 c 1.41092,-0.14545 2.33212,-0.71772 3.175,-1.85208 z"
         id="path8132" /><path
         style="fill:#000000;fill-opacity:1;stroke:#000000;stroke-width:0.11934;stroke-linecap:round;stroke-linejoin:round;stroke-dasharray:none;stroke-opacity:1"
         d="m 439.67789,213.6503 -2.91042,-2.11667 c 0.28932,-0.91493 0.97394,-2.95382 0.25723,-3.79869 -0.76535,-0.90221 -5.8101,-0.18786 -7.1364,-0.36013 -1.06512,-0.13834 -4.80139,-1.35532 -5.40048,-0.2511 -0.53532,0.98667 -0.15476,2.30838 -0.7321,3.29626 -1.1682,1.9989 -2.80074,2.81363 -3.26972,5.347 -1.73485,9.37145 2.85577,26.66711 15.48772,22.90238 3.40165,-1.0138 6.40964,-3.1335 9.26042,-5.1753 v 5.02709 h 0.26458 c 0,-3.66121 0.56383,-4.98139 2.64583,-7.9375 -4.54155,2.11487 -7.55328,6.28211 -12.7,7.63168 -11.81872,3.09906 -16.01099,-13.80055 -14.16766,-22.44835 0.47213,-2.21497 1.91601,-2.88713 3.05822,-4.59714 0.66986,-1.00284 0.64273,-2.69975 0.79069,-3.86953 3.61613,0.93555 7.67782,1.48053 11.37708,0.79375 -0.11961,5.79507 -6.41351,3.70417 -10.58333,3.70417 v 0.26458 c 2.08893,0.54044 4.45247,0.91743 6.61458,0.77007 1.23368,-0.0841 3.06048,-0.86129 4.23232,-0.40933 1.69916,0.65536 2.03878,2.56244 2.12708,4.13718 0.18308,3.26526 -0.13426,6.27094 -0.27398,9.525 h 0.26459 c 0.81779,-1.92548 1.11026,-4.52691 1.003,-6.61459 -0.0729,-1.41985 -0.78729,-3.42598 -0.15822,-4.7625 0.92646,-1.96834 3.09475,-3.71302 4.71147,-5.09874 5.94962,-5.09957 12.20983,-6.6202 19.57916,-8.39501 0.35354,0.91151 1.30994,2.38381 1.0763,3.38018 -0.36709,1.56551 -4.78806,1.92099 -6.10338,2.17607 l 2.64583,-4.7625 c -1.55815,1.28777 -3.4996,3.84205 -3.96875,5.82084 l 8.46667,-1.80472 7.9375,4.18597 -0.79375,-7.40834 h -0.52916 l 0.52916,6.35 -6.35,-4.23333 c 1.90825,-0.56132 3.83973,-2.61278 5.82084,-2.69952 1.59193,-0.0697 3.6846,1.38316 5.02708,2.13381 4.54443,2.54104 10.68703,7.46475 12.15613,12.73654 0.75333,2.7033 -0.98491,6.68074 -1.04363,9.52501 h 0.52917 c 0.60363,-4.67417 0.97817,-10.2026 2.87755,-14.55209 0.8278,-1.89561 2.30325,-2.35991 3.44897,-3.83523 0.75604,-0.97355 0.96696,-2.67116 1.34639,-3.83769 2.79195,1.32141 5.69868,2.3955 8.46667,3.7697 0.85493,0.42444 2.42372,0.8906 2.82365,1.8429 0.43042,1.02491 -0.48859,2.28829 -0.33236,3.38324 0.18323,1.28408 0.7556,2.3634 0.63757,3.70416 -0.16713,1.89866 -0.85723,3.74004 -1.38906,5.55625 -2.14115,7.31213 -7.44884,18.73071 -16.82105,17.94186 -4.43519,-0.3733 -4.63724,-4.61617 -7.67292,-6.56477 1.06318,3.06667 2.38125,4.54271 2.38125,7.9375 h 0.26459 l 0.26458,-3.175 c 4.52719,4.12895 11.14458,1.88505 15.07084,-2.12054 4.38705,-4.47572 8.49578,-13.48628 8.67306,-19.83988 0.0355,-1.27161 -0.56772,-2.3698 -0.69942,-3.59188 -0.12545,-1.164 1.03944,-2.63314 0.47139,-3.71621 -0.55747,-1.06291 -2.37996,-1.6159 -3.40754,-2.06461 -2.96462,-1.29455 -6.05323,-3.28653 -9.26041,-3.85647 -0.39319,1.20838 -0.64772,2.84283 -1.35967,3.89628 -0.55078,0.81497 -1.62343,1.19896 -2.28816,1.93619 -1.54335,1.7117 -2.25382,4.35296 -2.43759,6.60295 h -0.26458 c -2.25096,-5.37805 -7.17317,-9.6836 -12.17084,-12.47196 -1.45657,-0.81267 -3.57406,-2.18905 -5.29166,-2.19833 -1.98483,-0.0107 -4.91805,2.30299 -6.61459,3.29321 -0.36347,-1.11515 -0.76117,-3.35682 -1.91149,-3.91649 -1.51182,-0.73556 -5.00485,0.52762 -6.55518,0.93584 -6.14339,1.61762 -15.15916,5.9025 -17.99166,11.97648 z"
         id="path7988" /><path
         style="fill:#a9a9a9;stroke:none"
         d="m 513.23206,199.89197 0.26458,0.26458 -0.26458,-0.26458 m -94.98543,0.26458 0.26459,0.26458 z"
         id="path7951" /><path
         style="fill:#000000;stroke:#000000;stroke-width:0.11934;stroke-dasharray:none;stroke-opacity:1"
         d="m 499.20914,203.33155 c 3.38663,-2.37588 5.90377,-2.21771 9.78959,-3.175 -2.93332,-1.23087 -8.79571,-0.14313 -9.78959,3.175 z"
         id="path7949" /><path
         style="fill:#000000;fill-opacity:1;stroke:#000000;stroke-width:0.11934;stroke-linecap:round;stroke-linejoin:round;stroke-dasharray:none;stroke-opacity:1"
         d="m 514.02581,199.62738 c -1.60743,1.18606 -3.00577,1.95157 -5.02708,2.11667 v 0.26458 c 1.63039,0.48084 5.22231,-0.0734 5.02708,-2.38125 z"
         id="path7930" /><path
         style="fill:#000000;fill-opacity:1;stroke:#000000;stroke-width:0.11934;stroke-linecap:round;stroke-linejoin:round;stroke-dasharray:none;stroke-opacity:1"
         d="m 418.51122,199.62738 c 0.96403,4.778 7.25394,2.78868 8.73125,6.35 h 0.26458 c -0.15509,-2.82483 -2.69738,-2.3829 -4.7625,-3.26421 -1.71862,-0.73344 -2.88544,-1.84079 -4.23333,-3.08579 z"
         id="path7908" /><path
         style="fill:#000000;fill-opacity:1;stroke:#000000;stroke-width:0.11934;stroke-linecap:round;stroke-linejoin:round;stroke-dasharray:none;stroke-opacity:1"
         d="m 435.17997,199.09822 0.52916,6.87916 h 0.26459 c 1.03876,-1.9817 1.41027,-5.52626 -0.79375,-6.87916 z"
         id="path7890" /><path
         style="fill:#000000;fill-opacity:1;stroke:#000000;stroke-width:0.11934;stroke-linecap:round;stroke-linejoin:round;stroke-dasharray:none;stroke-opacity:1"
         d="m 420.89247,198.30447 c 0.92459,1.7811 2.4844,2.96875 4.49791,3.175 v -0.26459 z"
         id="path7843" /><path
         style="fill:#000000;fill-opacity:1;stroke:#000000;stroke-width:0.11934;stroke-linecap:round;stroke-linejoin:round;stroke-dasharray:none;stroke-opacity:1"
         d="m 428.3008,196.98155 c 0.66235,1.34648 1.946,2.06969 3.43958,1.85208 z"
         id="path7786" /><path
         style="fill:#000000;fill-opacity:1;stroke:#000000;stroke-width:0.11934;stroke-linecap:round;stroke-linejoin:round;stroke-dasharray:none;stroke-opacity:1"
         d="m 424.33205,196.98155 c 0.7542,1.44966 2.00085,2.65749 3.70417,2.64583 z"
         id="path7782" /><path
         style="fill:#f1f1f1;stroke:none"
         d="m 471.95705,196.45238 0.26459,0.26459 -0.26459,-0.26459 m -47.88958,0.26459 0.26458,0.26458 z"
         id="path7770" /><path
         style="fill:#000000;fill-opacity:1;stroke:#000000;stroke-width:0.11934;stroke-linecap:round;stroke-linejoin:round;stroke-dasharray:none;stroke-opacity:1"
         d="m 432.79872,195.92322 c 0.67805,2.47406 -2.60944,5.33179 0.52916,6.61458 -1.42165,-2.64971 2.1489,-4.57407 -0.52916,-6.61458 z"
         id="path7746" /><path
         style="fill:#c7c7c7;stroke:none"
         d="m 473.27997,193.80655 0.26459,0.26458 -0.26459,-0.26458 m -10.84792,0.26458 0.26459,0.26459 z"
         id="path7711" /><path
         style="fill:#000000;fill-opacity:1;stroke:#000000;stroke-width:0.11934;stroke-linecap:round;stroke-linejoin:round;stroke-dasharray:none;stroke-opacity:1"
         d="m 469.84039,192.21905 c -1.45282,1.25445 -2.10444,1.06769 -3.70417,0.26458 0.72439,2.07934 4.18694,2.1308 3.70417,-0.26458 z"
         id="path7658" /><path
         style="fill:#2b7fff;fill-opacity:1;stroke:none"
         d="m 500.81093,190.32756 c -1.50196,0.45334 -1.10179,2.97719 0.50732,2.66237 1.74054,-0.34053 1.24281,-3.19061 -0.50732,-2.66237 z"
         id="path7600" /><path
         style="fill:#2b7fff;fill-opacity:1;stroke:none"
         d="m 433.38811,187.39346 c -1.46924,0.61287 -0.55486,3.01733 0.96299,2.49701 1.67006,-0.5725 0.69099,-3.18694 -0.96299,-2.49701 z"
         id="path7480" /><path
         style="fill:#b5dbff;stroke:none"
         d="m 504.50081,186.92738 0.26458,0.26458 -0.26458,-0.26458 m -71.70209,0.26458 0.26458,0.26459 z"
         id="path7478" /><path
         style="fill:#000000;fill-opacity:1;stroke:#000000;stroke-width:0.11934;stroke-linecap:round;stroke-linejoin:round;stroke-dasharray:none;stroke-opacity:1"
         d="m 471.1633,186.13363 -0.26458,1.85208 c 1.00486,-0.33347 1.05282,-0.87994 0.79375,-1.85208 z"
         id="path7442" /><path
         style="fill:#000000;fill-opacity:1;stroke:#000000;stroke-width:0.11934;stroke-linecap:round;stroke-linejoin:round;stroke-dasharray:none;stroke-opacity:1"
         d="m 466.13622,186.13363 -0.26458,2.11667 c 0.71905,-0.70664 0.88268,-1.2836 0.26458,-2.11667 z"
         id="path7437" /><path
         style="fill:#000000;fill-opacity:1;stroke:#000000;stroke-width:0.11934;stroke-linecap:round;stroke-linejoin:round;stroke-dasharray:none;stroke-opacity:1"
         d="m 467.9883,185.86905 -0.52916,4.7625 h 0.26458 l 0.79375,-4.7625 z"
         id="path7422" /><path
         style="fill:#000000;fill-opacity:1;stroke:#000000;stroke-width:0.11934;stroke-linecap:round;stroke-linejoin:round;stroke-dasharray:none;stroke-opacity:1"
         d="m 464.28414,184.54613 c -1.26901,2.86642 -2.25963,7.21972 -1.37886,10.31875 0.54784,1.92762 1.85675,3.35243 2.43719,5.29167 h 0.26458 l -2.16464,-6.87917 z"
         id="path7358" /><path
         style="fill:#000000;fill-opacity:1;stroke:#000000;stroke-width:0.11934;stroke-linecap:round;stroke-linejoin:round;stroke-dasharray:none;stroke-opacity:1"
         d="m 470.10497,184.81071 h 2.91042 c -0.59692,-1.6235 -2.2945,-1.60999 -2.91042,0 z"
         id="path7298" /><path
         style="fill:#000000;fill-opacity:1;stroke:#000000;stroke-width:0.11934;stroke-linecap:round;stroke-linejoin:round;stroke-dasharray:none;stroke-opacity:1"
         d="m 465.07789,185.0753 2.38125,-0.52917 c -0.64217,-1.59603 -1.99577,-0.7996 -2.38125,0.52917 z"
         id="path7294" /><path
         style="fill:#43a5ff;stroke:none"
         d="m 510.05706,182.95863 0.26458,0.26458 -0.26458,-0.26458 m -79.37501,0.26458 0.26458,0.26459 z"
         id="path7266" /><path
         style="fill:#5fb3ff;stroke:none"
         d="m 491.27164,178.46071 0.26458,0.26459 -0.26458,-0.26459 m 2.11667,0 0.26458,0.26459 -0.26458,-0.26459 m 9.26041,0 0.26459,0.26459 z"
         id="path7096" /><path
         style="fill:#2b7fff;fill-opacity:1;stroke:none"
         d="m 492.09397,178.42131 c -1.62226,0.49769 -0.87527,3.01548 0.74986,2.51008 1.64062,-0.51023 0.87823,-3.00955 -0.74986,-2.51008 z"
         id="path7082" /><path
         style="fill:#b5dbff;stroke:none"
         d="m 493.38831,177.1378 0.26458,0.26458 -0.26458,-0.26458 m 10.58333,0 0.26458,0.26458 z"
         id="path7041" /><path
         style="fill:#2b7fff;fill-opacity:1;stroke:none"
         d="m 502.64872,179.25446 c 1.03302,-0.24195 1.88447,-0.87339 2.91042,-1.13509 2.33144,-0.5947 4.58921,1.38027 3.53043,3.78073 -1.39264,3.15739 -7.00956,2.7997 -6.44085,7.40853 1.00811,-0.89544 1.6034,-2.17915 2.67054,-3.00616 2.30701,-1.78789 5.24686,-1.83308 5.47521,-5.46051 0.30443,-4.83609 -6.30846,-5.49216 -8.14575,-1.5875 z"
         id="path7016" /><path
         style="fill:#2b7fff;fill-opacity:1;stroke:none"
         d="m 426.7133,180.57738 h 0.26458 c 0.50041,-1.56496 3.73152,-6.39937 4.83967,-2.38002 0.74965,2.71901 -3.07032,5.71378 0.98117,7.93627 -0.11467,-1.31339 -0.88177,-2.65158 -0.72373,-3.96875 0.23961,-1.99701 2.18921,-3.50549 0.60899,-5.54461 -2.61425,-3.37344 -7.47119,0.37769 -5.97068,3.95711 z"
         id="path6951" /><path
         style="fill:#2b7fff;fill-opacity:1;stroke:none"
         d="m 443.4386,173.12964 c -1.49302,0.48584 -0.82974,3.0461 0.70964,2.69299 1.67809,-0.38492 0.98107,-3.24315 -0.70964,-2.69299 z"
         id="path6895" /><path
         style="fill:#000000;fill-opacity:1;stroke:none"
         d="m 463.75497,173.43363 c -2.38994,-1.90772 -4.45515,-0.56841 -3.96875,2.38125 -1.99034,-0.53 -2.04418,1.17536 -1.37579,2.64583 0.97343,2.14158 2.93402,4.55552 5.07996,5.55625 v -1.5875 l 2.64583,0.79375 -0.26458,-1.5875 3.175,1.05834 -0.26459,-1.32292 c 1.38309,0.47095 4.05183,1.2468 4.71126,2.6736 0.44798,0.96927 0.0493,2.10811 0.69739,3.067 0.57515,0.85098 1.76658,0.76374 2.42923,1.51401 1.60252,1.81441 -2.16318,2.00571 -3.07537,2.00581 l -3.43959,10.05417 h 0.52917 l 3.43958,-9.26042 c 2.51379,-0.007 4.42903,-0.92539 3.43959,-3.70417 1.63411,-1.24399 0.21604,-3.49328 -0.20538,-5.02708 -1.13108,-4.11666 -6.01174,-7.02242 -9.05504,-9.76182 -1.67912,-1.51145 -3.64034,-1.89339 -4.49792,0.5014 z"
         id="path6852" /><path
         style="fill:#43a5ff;stroke:none"
         d="m 498.94456,170.25863 0.26458,0.26458 -0.26458,-0.26458 m -56.35626,0.26458 0.26459,0.26459 z"
         id="path6829" /><path
         style="fill:#c1e1ff;stroke:none"
         d="m 499.73831,169.72946 0.26458,0.26459 -0.26458,-0.26459 m -57.41459,0.26459 0.26458,0.26458 z"
         id="path6822" /><path
         style="fill:#8fc9ff;stroke:none"
         d="m 444.70497,164.4378 0.26458,0.26458 -0.26458,-0.26458 m 24.07708,0 0.26459,0.26458 z"
         id="path6731" /><path
         style="fill:#2b7fff;fill-opacity:1;stroke:none"
         d="m 469.60439,164.39839 c -1.62687,0.49911 -0.87028,3.01724 0.73658,2.65298 1.6984,-0.38501 0.96549,-3.17515 -0.73658,-2.65298 z"
         id="path6723" /><path
         style="fill:#45a7ff;stroke:none"
         d="m 500.00289,163.37946 0.26458,0.26459 -0.26458,-0.26459 m -57.15,0.26459 0.26458,0.26458 z"
         id="path6710" /><path
         style="fill:#9bcfff;stroke:none"
         d="m 442.85289,163.37946 0.26458,0.26459 -0.26458,-0.26459 m 47.625,0 0.26458,0.26459 z"
         id="path6708" /><path
         style="fill:#2b7fff;fill-opacity:1;stroke:none"
         d="m 490.21331,165.23155 1.05833,0.26458 c 1.81436,-3.49709 7.40042,-4.2608 7.59901,0.79375 0.14594,3.71444 -4.25483,2.52963 -5.28982,4.79129 -0.3305,0.7222 -1.4148,5.61263 -0.40444,5.81287 1.20674,0.23915 1.94037,-4.20766 2.064,-5.04791 1.04897,-0.048 1.98916,-0.24537 2.9094,-0.78191 7.39168,-4.30962 -1.90754,-15.08375 -6.70931,-8.73166 -0.6431,0.85073 -0.98425,1.87627 -1.22717,2.89899 z"
         id="path6634" /><path
         style="fill:#d9edff;stroke:none"
         d="m 496.29872,160.20446 0.26459,0.26459 -0.26459,-0.26459 m -50.8,0.26459 0.26458,0.26458 z"
         id="path6628" /><path
         style="fill:#51abff;stroke:none"
         d="m 473.80914,156.23571 0.26458,0.26459 -0.26458,-0.26459 m -31.75,0.26459 0.26458,0.26458 z"
         id="path6537" /><path
         style="fill:#9bcfff;stroke:none"
         d="m 448.9383,155.97113 0.26459,0.26458 -0.26459,-0.26458 m 18.52084,0 0.26458,0.26458 z"
         id="path6529" /><path
         style="fill:#b5dbff;stroke:none"
         d="m 449.99664,153.06071 0.26458,0.26458 -0.26458,-0.26458 m 18.52083,0 -0.26458,0.52917 z"
         id="path6448" /><path
         style="fill:#2b7fff;fill-opacity:1;stroke:none"
         d="m 469.04664,157.82321 c -0.17462,-0.94391 -0.44061,-2.01003 0.19639,-2.84978 0.88374,-1.165 2.82766,-0.69634 3.11294,0.74455 0.32875,1.66041 -1.54968,1.94014 -2.24365,3.00862 -0.64945,0.99995 -0.27193,2.97255 -0.27193,4.1237 h 0.79375 c 0.12493,-0.98766 0.12807,-2.28711 0.72556,-3.11968 0.94512,-1.31696 2.49806,-1.88024 2.57724,-3.75949 0.0955,-2.26675 -2.93898,-3.9224 -4.86254,-2.82631 -1.77416,1.01096 -1.78006,3.75883 -0.0278,4.67839 z"
         id="path6443" /><path
         style="fill:#2b7fff;fill-opacity:1;stroke:none"
         d="m 440.73622,157.82321 c 1.83044,-0.31682 2.29534,-2.96807 4.23333,-3.70559 1.87418,-0.71324 4.79135,0.54785 3.9661,2.91184 -0.77947,2.23285 -3.20774,3.38195 -4.73208,5.03096 -2.33744,2.5286 -2.38285,6.46797 -1.0861,9.52113 h 0.52917 c 0.69861,-2.3635 -0.0689,-4.90379 1.32148,-7.14375 2.02003,-3.25431 6.90039,-4.58077 5.99682,-9.26042 -0.60463,-3.13146 -4.50619,-4.00787 -7.05372,-2.75995 -2.06199,1.01008 -3.0749,3.21506 -3.175,5.40578 z"
         id="path6417" /></g></g></svg>
