<svg width="995" height="995" viewBox="0 0 995 995" fill="none" xmlns="http://www.w3.org/2000/svg">
<path d="M479.311 587.918C479.908 587.734 480.819 587.321 481.331 587C481.844 586.682 482.963 586.112 483.819 585.734C484.674 585.358 485.794 584.799 486.306 584.49C486.819 584.184 487.938 583.627 488.794 583.256C490.938 582.326 500.679 577.747 502 577.048C502.594 576.734 503.224 576.478 503.398 576.478C503.995 576.478 503.721 579.958 503.077 580.605C502.721 580.958 502.186 582.622 501.883 584.304C501.582 585.985 500.91 588.62 500.39 590.159C499.873 591.699 499.149 594.147 498.786 595.602C497.5 600.716 496.756 603.569 495.654 607.572C493.617 614.987 493.055 617.188 492.393 620.32C492.032 622.029 491.217 625.039 490.577 627.009C489.938 628.977 489.406 631.215 489.393 631.984C489.353 634.472 487.256 641.354 486.458 641.621C485.861 641.82 485.674 639.474 485.64 631.409C485.595 621.41 485.309 618.193 483.893 611.925C483.548 610.385 482.988 607.587 482.652 605.706C481.846 601.166 480.794 597.323 479.381 593.776C477.931 590.132 477.911 588.351 479.311 587.918Z" fill="#339CFE"/>
<path d="M314.462 595.55C314.689 595.321 315.104 595.134 315.385 595.134C316.042 595.134 317.778 599.273 317.778 600.838C317.778 601.865 318.907 604.447 320.997 608.194C321.286 608.706 321.85 609.825 322.256 610.681C323.875 614.087 327.064 617.338 329.825 618.392C332.352 619.358 332.8 619.37 334.442 618.519C337.235 617.077 338.039 614.487 337.034 610.179C336.581 608.231 335.698 605.972 335.076 605.156C334.454 604.341 333.947 603.445 333.947 603.166C333.947 601.943 330.056 597.057 327.88 595.55C325.945 594.209 324.711 593.876 321.325 593.784C317.93 593.689 317.156 593.48 317.156 592.652C317.156 591.174 324.154 585.184 325.877 585.184C326.275 585.184 327.293 584.64 328.141 583.973C330.017 582.495 334.992 581.627 335.969 582.605C336.957 583.592 334.924 585.64 332.482 586.12C329.474 586.712 327.106 587.751 327.106 588.48C327.106 588.843 328.303 590.279 329.765 591.669C332.937 594.689 337.678 600.368 337.678 601.147C337.678 601.45 338.168 602.39 338.768 603.236C339.365 604.082 340.178 606.313 340.574 608.194C342.121 615.549 343.101 616.308 347.447 613.519C351.907 610.651 352.175 610.231 351.795 606.716C351.501 603.995 349.84 600.04 346.695 594.58C346.355 593.985 344.884 592.082 343.429 590.346C340.556 586.911 340.079 585.184 342.006 585.184C343.33 585.184 343.292 585.147 347.163 590.159C350.484 594.458 350.934 595.194 353.17 599.933C354.964 603.736 355.287 605.258 355.155 609.313C355.076 611.798 352.334 614.537 347.471 616.994C334.228 623.686 332.499 624.106 327.688 621.79C322.845 619.46 321.912 618.499 319.017 612.858C318.315 611.49 317.505 609.95 317.218 609.437C315.166 605.776 314.047 602.184 314.047 599.264C314.047 597.448 314.233 595.776 314.462 595.55Z" fill="#161416"/>
<path d="M87.0625 842.019C86.0575 853.344 85.4978 857.444 85.1695 858.436C84.3262 860.998 84.4705 866.528 85.5078 871.247C85.9978 873.471 86.4157 876.269 86.4406 877.466C86.463 878.662 87.0227 880.762 87.6843 882.13C88.346 883.498 88.8958 884.978 88.9082 885.421C88.9181 885.861 89.4455 886.98 90.0748 887.908C90.7067 888.833 92.0201 890.809 93.0001 892.296C96.5921 897.754 104.594 902.711 113.246 904.833C119.547 906.378 120.616 906.365 142.098 904.435C143.136 904.343 144.17 904.249 145.208 904.156C144.626 904.684 144.044 905.209 143.462 905.736C142.504 906.604 141.193 907.316 140.549 907.316C139.904 907.316 137.051 907.873 134.208 908.554C123.557 911.109 111.659 909.9 102.298 905.313C96.806 902.622 96.3384 902.301 93.2812 899.104C88.5152 894.119 87.6346 892.769 84.264 885.239C80.3487 876.5 80.197 851.832 83.978 838.909C84.6297 836.686 85.3088 833.957 85.4904 832.845C85.5998 832.173 85.7093 831.499 85.8187 830.825C86.856 831.653 87.8908 832.484 88.9281 833.312C88.9281 833.519 88.9281 833.728 88.9281 833.934C88.3535 836.066 87.7341 837.014 87.1819 837.419C86.4282 837.969 86.3486 838.365 86.8585 838.999C87.3535 839.611 87.3485 840.141 86.8386 840.929C86.453 841.529 86.3436 842.019 86.5998 842.019C86.754 842.019 86.9082 842.019 87.0625 842.019Z" fill="#28B3FE"/>
<path d="M705.301 73.0678C705.798 72.8763 707.256 73.1574 708.537 73.6947C711.348 74.8688 714.507 74.4285 717.644 72.4211C720.969 70.2943 723.748 67.0531 723.972 65.0332C724.228 62.7248 725.728 62.093 725.728 64.2919C725.728 66.4735 723.338 70.8788 721.136 72.7594C717.226 76.0976 716.251 76.4832 711.689 76.4857C707.808 76.4906 707.119 76.309 705.843 74.9509C704.686 73.7196 704.577 73.3439 705.301 73.0678Z" fill="#161416"/>
<path d="M874.214 44.5959C874.806 44.0635 876.08 43.4317 877.048 43.1904C879.694 42.5288 882.941 38.8025 884.018 35.1881C884.796 32.5738 884.829 31.5166 884.207 29.0838C883.794 27.4645 883.627 25.9695 883.839 25.7555C884.548 25.0491 885.55 26.1759 885.55 27.6809C885.55 28.4993 885.856 29.8425 886.231 30.6634C887.164 32.7156 885.443 39.3174 883.319 41.8447C880.597 45.0784 874.478 47.7251 873.476 46.1033C873.292 45.8073 873.625 45.1282 874.214 44.5959Z" fill="#161416"/>
<path d="M881.351 50.2724C884.764 50.1082 885.56 50.3147 887.684 51.9365C889.326 53.1902 889.876 54.2001 890.44 57.006C890.955 59.5756 890.96 60.7323 890.453 61.3418C889.401 62.6104 888.659 61.7398 888.659 59.2299C888.659 54.8544 883.557 50.1256 880.217 51.4092C879.729 51.5957 879.331 51.439 879.331 51.0609C879.331 50.6828 880.242 50.3271 881.351 50.2724Z" fill="#161416"/>
<path d="M725.935 72.9434C726.676 71.5056 727.631 70.3166 728.061 70.3017C729.196 70.2594 729.012 71.4086 727.594 73.212C725.245 76.197 726.631 80.5278 730.613 82.6596C731.775 83.2814 732.531 85.1968 731.616 85.1968C731.104 85.1968 726.972 83.4183 726.972 83.1994C726.972 83.0924 726.412 81.4705 725.728 79.5999C724.268 75.6025 724.248 76.2095 725.935 72.9434Z" fill="#161416"/>
<path d="M858.521 137.36C858.852 137.32 861.399 137.25 864.185 137.205C869.155 137.126 869.307 137.076 872.224 134.604C873.861 133.218 875.585 131.121 876.055 129.939C877.018 127.534 877.548 127.594 877.578 130.111C877.602 132.203 874.505 136.233 871.404 138.151C868.399 140.009 860.727 140.238 859.008 138.524C858.411 137.924 858.192 137.399 858.521 137.36Z" fill="#161416"/>
<path d="M862.046 145.009C864.242 145.327 867.516 150.133 867.516 153.038C867.516 155.633 865.317 159.802 863.939 159.814C862.894 159.824 862.959 158.464 864.075 156.986C866.068 154.352 864.605 147.305 861.889 146.441C860.225 145.914 860.352 144.762 862.046 145.009Z" fill="#161416"/>
<path d="M878.466 135.723C878.657 135.298 879.189 134.947 879.652 134.947C880.115 134.947 880.669 134.382 880.888 133.693C881.107 133.004 881.565 132.613 881.903 132.822C882.286 133.059 882.184 133.596 881.637 134.23C880.222 135.872 879.344 140.394 880.048 142.409C880.383 143.374 881.759 144.927 883.105 145.857C884.45 146.79 885.55 147.795 885.55 148.091C885.55 149.27 882.627 148.471 880.595 146.735C878.572 145.006 878.428 144.631 878.279 140.698C878.194 138.389 878.277 136.151 878.466 135.723Z" fill="#161416"/>
<path d="M710.365 82.7095C711.766 82.7095 714.024 85.595 714.094 87.4755C714.271 92.1645 713.855 94.5823 712.669 95.7688C711.985 96.4529 711.144 97.0126 710.803 97.0126C709.806 97.0126 710.087 95.04 711.271 93.7316C712.905 91.9232 712.728 87.0477 710.94 84.6273C709.955 83.2965 709.781 82.7095 710.365 82.7095Z" fill="#161416"/>
<path d="M891.1 33.9194C891.525 33.6583 892.057 34.2229 892.453 35.3597C893.259 37.6706 895.664 39.3248 898.871 39.7725C901.863 40.1879 902.443 41.4068 899.915 41.9615C897.987 42.3869 895.246 41.4018 892.557 39.3198C890.973 38.091 890.027 34.5836 891.1 33.9194Z" fill="#161416"/>
<path d="M893.891 53.0956C895.027 50.531 898.861 47.6007 900.313 48.1877C901.296 48.5857 901.266 48.6852 900.037 49.1603C898.346 49.8121 895.759 53.7125 895.189 56.4686C894.953 57.6104 894.445 58.4163 894.045 58.2845C892.985 57.9387 892.908 55.3169 893.891 53.0956Z" fill="#161416"/>
<path d="M718.186 92.0201C720.295 89.9132 722.44 89.2615 725.422 89.8212C728.382 90.3759 728.168 91.4156 725.094 91.4156C723.037 91.4156 722.109 91.8609 719.878 93.9156C717.674 95.9479 717.094 96.229 716.783 95.4205C716.231 93.9803 716.231 93.9753 718.186 92.0201Z" fill="#161416"/>
<path d="M265.901 660.158C267.354 658.707 267.804 659.357 268.242 663.551C268.458 665.628 268.934 667.881 269.294 668.558C270.105 670.07 269.595 671.003 267.958 671.003C265.379 671.003 263.732 662.327 265.901 660.158Z" fill="#161416"/>
<path d="M870.961 155.623C872.125 154.511 873.506 153.561 874.028 153.509C874.55 153.459 875.289 153.389 875.667 153.354C876.048 153.32 874.928 154.608 873.18 156.22C871.433 157.829 870.003 159.439 870.003 159.795C870.003 160.153 869.722 160.444 869.381 160.444C868.013 160.444 868.968 157.526 870.961 155.623Z" fill="#161416"/>
<path d="M428.161 637.929C429.845 639.932 430.203 641.775 428.907 641.775C427.512 641.775 426.606 640.362 426.606 638.183C426.606 637.481 426.606 636.782 426.606 636.083C427.124 636.698 427.643 637.315 428.161 637.929Z" fill="#28B3FE"/>
<path d="M434.691 689.659C435.106 689.037 435.519 688.416 435.934 687.794C436.496 688.756 436.215 689.177 435.676 689.348C435.347 689.453 435.019 689.555 434.691 689.659Z" fill="#339CFE"/>
<path d="M659.792 329.489C659.971 319.343 660.324 310.835 660.573 310.587C661.488 309.674 677.627 309.139 706.087 309.082C729.258 309.037 735.37 309.189 735.773 309.826C736.051 310.266 736.285 319.39 736.29 330.101C736.295 340.882 736.559 350.056 736.877 350.655C737.195 351.25 737.773 368.772 738.161 389.595C738.549 410.418 739.116 427.925 739.422 428.497C739.73 429.071 740.273 447.28 740.628 468.961C740.986 490.644 741.551 509.363 741.884 510.559C742.218 511.756 742.762 529.245 743.093 549.426C743.454 571.59 743.952 586.978 744.35 588.289C744.762 589.657 745.006 599.512 745.006 614.875C745.006 638.457 744.964 639.33 743.762 640.531C742.546 641.748 741.688 641.775 703.771 641.775C673.12 641.775 664.792 641.608 663.926 640.974C662.911 640.233 662.784 637.464 662.25 604.438C661.924 584.264 661.391 567.486 661.028 565.906C660.638 564.22 660.329 550.904 660.252 532.397C660.138 505.632 660.24 501.627 661.053 501.216C661.566 500.96 663.665 499.992 665.717 499.07C667.769 498.147 669.869 497.132 670.381 496.818C670.894 496.505 671.734 496.094 672.247 495.908C673.819 495.336 678.65 493.119 681.077 491.856C682.341 491.199 683.697 490.659 684.087 490.659C684.478 490.659 685.51 490.1 686.381 489.416C687.249 488.731 688.585 488.172 689.348 488.172C690.112 488.172 691.403 487.654 692.219 487.023C693.035 486.391 694.478 485.684 695.428 485.453C697.582 484.926 703.467 480.886 705.079 478.829C705.741 477.983 707.089 475.749 708.069 473.869C708.666 472.729 709.261 471.588 709.858 470.448C709.84 464.436 709.828 458.426 709.813 452.414C709.771 435.392 709.694 434.196 708.42 431.091C707.679 429.283 707.072 427.009 707.072 426.037C707.072 424.449 704.5 417.95 703.239 416.353C702.965 416.007 701.318 413.905 699.58 411.681C697.838 409.46 696.015 407.418 695.525 407.141C695.035 406.868 694.634 406.348 694.634 405.985C694.634 405.199 692.055 402.38 691.321 402.363C691.04 402.358 689.983 401.53 688.978 400.522C686.766 398.311 681.799 394.896 680.767 394.876C680.356 394.871 679.321 394.316 678.466 393.647C677.61 392.978 676.152 392.423 675.222 392.418C674.294 392.408 672.197 391.95 670.565 391.396C668.381 390.654 666.481 390.49 663.391 390.776C661.991 390.908 660.588 391.037 659.188 391.169C659.235 383.963 659.28 376.759 659.324 369.553C659.401 357.665 659.61 339.636 659.792 329.489Z" fill="#339CFE"/>
<path d="M535.9 281.04C535.957 273.458 536.014 265.876 536.071 258.297C536.658 257.735 537.243 257.173 537.83 256.61C538.417 256.051 539.001 255.489 539.589 254.926C544.544 254.707 549.499 254.486 554.454 254.267C562.63 253.904 569.797 253.352 570.379 253.041C571.553 252.409 616.278 250.867 617.686 251.407C618.42 251.688 618.659 255.2 619.029 271.21C619.278 281.913 619.723 291.124 620.022 291.682C620.32 292.239 620.878 307.204 621.258 324.942C621.654 343.131 622.218 357.68 622.559 358.317C622.912 358.978 623.218 369.297 623.295 383.189C623.34 391.102 623.385 399.017 623.43 406.93C622.716 407.117 622.002 407.303 621.288 407.49C620.111 407.796 618.579 408.445 617.885 408.932C617.191 409.418 616.191 409.816 615.664 409.816C615.136 409.816 613.661 410.375 612.385 411.059C611.109 411.743 609.709 412.303 609.276 412.303C608.841 412.303 607.443 412.863 606.166 413.547C604.89 414.231 603.525 414.791 603.134 414.791C602.458 414.791 599.711 415.957 594.202 418.584C592.833 419.236 591.294 419.771 590.781 419.771C590.269 419.773 589.008 420.33 587.983 421.009C586.958 421.688 585.645 422.246 585.065 422.248C584.485 422.251 583.085 422.785 581.956 423.437C580.824 424.089 579.008 424.805 577.921 425.032C576.831 425.258 575.608 425.845 575.202 426.335C574.794 426.828 574.083 427.228 573.62 427.228C572.829 427.228 570.098 428.34 564.352 430.999C562.983 431.633 561.105 432.33 560.18 432.549C559.252 432.768 558.17 433.34 557.772 433.817C557.374 434.298 556.67 434.691 556.208 434.691C555.384 434.691 551.558 436.292 547.25 438.444C546.054 439.041 544.183 439.72 543.096 439.949C542.006 440.18 540.783 440.77 540.377 441.26C539.969 441.753 538.87 442.153 537.937 442.153C536.27 442.153 536.233 442.063 535.837 437.394C535.464 432.994 535.504 333.638 535.9 281.04Z" fill="#339CFE"/>
<path d="M540.258 597.848C540.312 584.761 540.365 571.675 540.419 558.588C541.608 558.023 542.8 557.456 543.989 556.891C545.954 555.959 547.981 554.946 548.494 554.638C549.006 554.332 550.126 553.777 550.981 553.406C551.837 553.036 554.775 551.663 557.511 550.357C560.247 549.051 563.185 547.782 564.041 547.541C564.896 547.3 566.016 546.737 566.528 546.292C567.041 545.847 568.22 545.292 569.145 545.061C570.073 544.83 571.155 544.247 571.553 543.77C571.951 543.29 572.732 542.897 573.289 542.894C573.846 542.894 575.217 542.335 576.339 541.65C577.458 540.969 578.717 540.404 579.137 540.394C579.555 540.389 580.597 539.835 581.453 539.165C582.309 538.496 583.523 537.942 584.152 537.937C584.784 537.927 586.01 537.362 586.881 536.678C587.749 535.994 588.851 535.434 589.329 535.434C589.806 535.434 592.319 534.33 594.908 532.982C597.497 531.633 600.408 530.355 601.376 530.143C602.343 529.932 603.453 529.375 603.841 528.905C604.229 528.434 605.351 527.877 606.328 527.661C607.306 527.444 608.442 526.867 608.848 526.377C609.256 525.885 610.184 525.479 610.913 525.469C611.641 525.464 612.935 524.91 613.791 524.24C614.646 523.571 615.766 523.017 616.278 523.007C616.791 522.997 618.052 522.432 619.077 521.753C620.101 521.074 621.318 520.517 621.775 520.514C622.236 520.512 623.323 519.95 624.193 519.265C625.061 518.581 626.464 518.022 627.31 518.022C627.825 518.022 628.338 518.022 628.85 518.022C628.775 538.121 628.701 558.222 628.626 578.321C628.417 635.208 628.342 638.683 627.295 639.73C626.265 640.76 624.022 640.857 596.823 641.046C570.436 641.228 559.252 640.899 544.598 639.511C542.091 639.272 540.875 638.862 540.556 638.141C540.305 637.576 540.171 619.442 540.258 597.848Z" fill="#339CFE"/>
<path d="M428.459 385.563C428.566 378.205 428.676 370.844 428.783 363.486C431.166 363.324 433.551 363.163 435.934 363.001C447.335 362.227 503.316 361.531 504.186 362.15C504.751 362.553 504.962 365.337 504.962 372.309C504.962 377.593 505.239 382.428 505.574 383.058C505.94 383.737 506.338 396.913 506.559 415.51C506.766 432.728 507.169 448.218 507.455 449.927C507.935 452.795 507.848 453.17 506.331 454.77C505.425 455.722 503.98 456.675 503.114 456.884C502.251 457.096 500.876 457.785 500.06 458.416C499.244 459.048 498.209 459.566 497.761 459.566C497.311 459.566 492.522 461.787 487.117 464.506C481.712 467.22 476.53 469.628 475.605 469.851C474.677 470.075 473.61 470.635 473.229 471.09C472.849 471.548 471.737 472.098 470.759 472.314C469.782 472.531 468.66 473.088 468.272 473.558C467.884 474.028 466.762 474.585 465.784 474.802C464.807 475.018 463.685 475.575 463.297 476.045C462.909 476.515 461.787 477.073 460.809 477.289C459.832 477.506 458.71 478.063 458.322 478.533C457.934 479.003 456.812 479.56 455.834 479.777C454.857 479.993 453.735 480.55 453.347 481.02C452.959 481.49 451.837 482.048 450.859 482.264C449.882 482.481 448.76 483.038 448.372 483.508C447.984 483.978 446.862 484.535 445.884 484.752C444.907 484.968 443.785 485.525 443.397 485.995C443.009 486.465 441.887 487.023 440.909 487.239C439.932 487.456 438.81 488.013 438.422 488.483C438.034 488.953 436.897 489.515 435.9 489.734C434.9 489.953 433.919 490.396 433.723 490.717C433.347 491.324 429.35 493.147 428.397 493.147C427.835 493.147 427.875 425.552 428.459 385.563Z" fill="#339CFE"/>
<path d="M328.94 437.987C329.196 417.537 329.477 410.303 330.044 409.739C331.034 408.749 403.343 407.92 404.594 408.883C405.119 409.286 405.51 411.681 405.714 415.723C406.642 434.325 407.184 453.864 407.4 476.287C407.609 498.164 407.52 501.46 406.706 501.841C406.194 502.082 405.214 502.604 404.53 503C403.846 503.398 402.587 504 401.731 504.341C400.876 504.681 399.756 505.244 399.244 505.584C398.731 505.928 397.612 506.487 396.756 506.828C395.901 507.169 394.781 507.731 394.269 508.074C393.756 508.42 392.916 508.855 392.403 509.042C390.921 509.582 385.963 511.873 384.941 512.492C384.428 512.801 383.309 513.363 382.453 513.741C381.597 514.117 380.478 514.676 379.966 514.985C379.453 515.291 378.334 515.85 377.478 516.228C376.622 516.604 375.503 517.164 374.991 517.472C374.063 518.027 373.506 518.291 368.15 520.693C366.61 521.383 364.931 522.186 364.419 522.477C363.906 522.768 362.787 523.313 361.931 523.691C361.076 524.067 359.956 524.626 359.444 524.935C358.931 525.241 357.812 525.8 356.956 526.178C356.101 526.554 354.981 527.114 354.469 527.422C353.956 527.728 352.837 528.288 351.981 528.666C351.126 529.042 350.006 529.601 349.494 529.91C348.981 530.216 347.862 530.775 347.006 531.153C346.151 531.529 345.031 532.089 344.519 532.397C344.006 532.703 342.887 533.293 342.031 533.703C341.176 534.116 339.81 534.952 338.994 535.566C338.178 536.176 337.116 536.678 336.636 536.678C336.156 536.678 335.004 537.225 334.079 537.892C333.151 538.561 331.666 539.28 330.78 539.492C330.243 539.618 329.703 539.745 329.166 539.875C329.032 537.526 328.897 535.181 328.76 532.835C328.318 525.146 328.4 481.279 328.94 437.987Z" fill="#339CFE"/>
<path d="M444.651 919.897C444.969 919.124 445.407 916.604 445.626 914.301C445.842 912 446.549 908.032 447.195 905.487C447.842 902.945 448.372 899.831 448.372 898.57C448.372 897.311 448.795 895.082 449.31 893.617C449.827 892.157 450.409 889.393 450.606 887.478C450.802 885.562 451.476 881.617 452.101 878.709C453.203 873.575 453.81 870.309 455.217 861.919C455.591 859.695 456.173 856.757 456.506 855.389C456.842 854.021 457.401 851.083 457.747 848.859C458.096 846.636 458.931 842.439 459.61 839.531C460.287 836.623 460.834 833.405 460.824 832.377C460.817 831.35 461.369 828.554 462.053 826.161C462.737 823.768 463.297 820.77 463.297 819.499C463.297 818.228 463.732 815.907 464.262 814.343C464.794 812.778 465.486 809.48 465.799 807.015C466.11 804.547 466.797 801 467.319 799.129C467.844 797.259 468.272 794.679 468.272 793.398C468.272 792.117 468.705 789.794 469.235 788.237C469.762 786.679 470.453 783.242 470.772 780.597C471.088 777.953 471.774 774.416 472.297 772.737C472.819 771.058 473.247 768.618 473.247 767.317C473.247 766.016 473.672 763.7 474.19 762.172C474.707 760.648 475.404 757.349 475.732 754.844C476.063 752.342 476.759 748.919 477.277 747.24C477.797 745.561 478.222 743.146 478.222 741.877C478.222 740.606 478.642 738.372 479.157 736.912C479.672 735.454 480.359 731.927 480.682 729.076C481.008 726.226 481.555 723.36 481.903 722.711C482.252 722.062 482.796 719.606 483.117 717.256C483.811 712.151 485.304 704.375 486.983 697.122C487.654 694.214 488.197 691.092 488.187 690.182C488.179 689.271 488.729 686.751 489.408 684.585C490.087 682.416 490.647 679.488 490.652 678.08C490.657 676.672 491.219 673.767 491.903 671.625C492.587 669.483 493.147 666.657 493.147 665.347C493.147 664.036 493.572 661.712 494.09 660.185C494.607 658.66 495.301 655.285 495.632 652.685C495.96 650.088 496.503 647.454 496.833 646.835C497.164 646.215 497.724 643.419 498.075 640.621C498.425 637.822 498.993 635.009 499.336 634.367C499.679 633.725 500.137 631.561 500.351 629.559C500.565 627.556 501.271 624.139 501.918 621.965C502.567 619.79 503.097 617.131 503.097 616.054C503.097 614.977 503.657 612.141 504.341 609.748C505.025 607.355 505.584 604.639 505.584 603.709C505.584 602.778 506.032 600.699 506.579 599.085C507.129 597.47 507.826 594.592 508.129 592.689C509.037 586.975 510.318 583.008 511.251 583.008C512.405 583.008 512.146 592.44 510.883 596.378C510.388 597.918 509.821 600.716 509.622 602.597C509.42 604.477 508.736 608.256 508.099 610.992C507.46 613.728 506.637 617.786 506.266 620.009C505.234 626.198 504.4 630.395 503.052 636.178C502.375 639.086 501.828 642.365 501.838 643.464C501.846 644.563 501.428 646.713 500.91 648.24C500.393 649.765 499.699 653.14 499.368 655.74C499.04 658.337 498.49 660.988 498.147 661.63C497.801 662.272 497.246 664.993 496.908 667.677C496.572 670.361 495.868 674.088 495.343 675.958C494.821 677.829 494.388 680.207 494.383 681.244C494.378 682.281 493.818 684.903 493.139 687.072C492.46 689.239 491.903 692.072 491.903 693.368C491.903 694.662 491.51 696.838 491.028 698.201C490.547 699.567 489.858 703.099 489.495 706.052C489.135 709.005 488.562 711.937 488.227 712.567C487.891 713.196 487.326 715.999 486.975 718.798C486.625 721.596 486.057 724.41 485.714 725.052C485.371 725.693 484.926 727.857 484.727 729.86C484.53 731.862 483.839 735.88 483.192 738.787C482.087 743.745 481.398 747.15 479.983 754.645C479.657 756.354 478.849 760.163 478.187 763.105C477.523 766.048 476.978 769.327 476.978 770.391C476.978 771.453 476.553 773.575 476.035 775.103C475.518 776.627 474.824 780.003 474.493 782.602C474.165 785.199 473.605 787.866 473.254 788.525C472.901 789.184 472.446 791.485 472.242 793.639C472.038 795.794 471.341 799.333 470.695 801.507C470.045 803.679 469.516 806.515 469.516 807.803C469.516 809.092 469.098 811.333 468.585 812.786C468.073 814.238 467.406 817.281 467.103 819.549C466.493 824.124 465.083 831.472 463.257 839.596C462.595 842.539 462.053 845.757 462.053 846.75C462.053 847.74 461.493 850.509 460.809 852.902C460.125 855.295 459.566 858.257 459.566 859.486C459.566 860.715 459.15 863.095 458.64 864.774C458.13 866.453 457.548 869.645 457.344 871.869C457.138 874.093 456.553 877.431 456.041 879.286C455.531 881.145 454.889 884.503 454.618 886.749C454.344 888.998 453.678 893.075 453.14 895.811C451.847 902.368 451.011 906.808 450.213 911.358C449.183 917.241 447.611 923.95 447.051 924.843C446.668 925.462 446.27 925.494 445.437 924.977C444.161 924.186 443.812 921.935 444.651 919.897Z" fill="#161416"/>
<path d="M520.412 581.824C521.243 581.311 521.664 582.846 522.358 588.96C522.646 591.503 523.186 595.398 523.557 597.622C525.345 608.345 526.251 614.552 526.746 619.407C527.042 622.328 527.596 626.106 527.977 627.803C528.357 629.502 528.937 633.972 529.263 637.733C529.591 641.494 530.129 645.412 530.459 646.439C530.79 647.466 531.345 651.573 531.691 655.568C532.039 659.563 532.601 663.563 532.939 664.456C533.28 665.346 533.845 669.874 534.198 674.513C534.549 679.152 535.106 683.448 535.434 684.062C535.763 684.677 536.32 688.973 536.671 693.612C537.024 698.251 537.576 702.744 537.902 703.597C538.225 704.45 538.79 708.617 539.153 712.853C539.519 717.091 540.098 721.512 540.439 722.676C540.78 723.843 541.327 728.245 541.656 732.464C541.984 736.681 542.529 741.158 542.867 742.414C543.205 743.668 543.772 748.531 544.128 753.22C544.484 757.909 545.049 762.471 545.387 763.356C545.725 764.245 546.297 768.921 546.66 773.752C547.024 778.582 547.583 783.023 547.904 783.622C548.225 784.222 548.767 788.627 549.108 793.415C549.451 798.201 550.014 802.865 550.359 803.773C550.705 804.681 551.262 809.251 551.601 813.927C551.936 818.604 552.491 823.387 552.829 824.561C553.168 825.733 553.732 830.72 554.081 835.643C554.431 840.566 554.986 845.098 555.315 845.713C555.643 846.327 556.22 851.232 556.596 856.615C556.974 862.001 557.543 867.098 557.867 867.946C558.19 868.794 558.737 873.473 559.083 878.341C559.429 883.212 559.984 888.139 560.314 889.296C560.645 890.453 561.212 895.749 561.571 901.067C561.934 906.385 562.518 911.651 562.874 912.771C563.232 913.888 563.57 917.106 563.625 919.922C563.725 924.733 563.65 925.051 562.384 925.231C560.775 925.459 560.551 924.835 559.971 918.509C559.737 915.945 559.299 913.378 558.999 912.805C558.698 912.231 558.168 907.803 557.822 902.962C557.476 898.122 556.916 893.644 556.578 893.012C556.24 892.381 555.683 887.948 555.342 883.159C554.999 878.373 554.436 873.709 554.091 872.801C553.745 871.894 553.195 867.463 552.869 862.958C552.543 858.454 551.867 852.668 551.364 850.103C550.862 847.538 550.295 842.414 550.098 838.72C549.904 835.024 549.466 831.477 549.123 830.837C548.78 830.198 548.22 825.76 547.879 820.972C547.536 816.186 546.981 811.542 546.643 810.654C546.305 809.766 545.75 804.88 545.409 799.796C545.068 794.711 544.501 789.796 544.151 788.873C543.8 787.95 543.235 783.321 542.897 778.587C542.559 773.854 541.996 769.232 541.648 768.314C541.3 767.399 540.72 762.449 540.36 757.314C539.999 752.18 539.427 747.245 539.086 746.349C538.745 745.454 538.205 740.855 537.89 736.128C537.571 731.4 537.031 727.007 536.688 726.367C536.342 725.726 535.78 721.241 535.434 716.4C535.089 711.559 534.534 707.089 534.201 706.467C533.867 705.845 533.305 701.54 532.954 696.9C532.601 692.261 532.029 687.721 531.686 686.814C531.34 685.906 530.788 681.906 530.457 677.928C530.126 673.948 529.437 668.732 528.925 666.339C528.412 663.946 527.989 660.436 527.982 658.543C527.977 656.65 527.435 652.033 526.778 648.282C526.124 644.531 525.412 638.414 525.198 634.69C524.987 630.964 524.549 627.425 524.226 626.823C523.902 626.218 523.348 621.713 522.989 616.805C522.631 611.898 521.942 605.084 521.457 601.664C520.119 592.236 519.596 582.329 520.412 581.824Z" fill="#161416"/>
<path d="M454.123 564.05C454.976 564.06 461.309 572.595 462.459 575.279C462.852 576.197 463.481 577.142 463.857 577.373C464.232 577.605 464.541 578.224 464.541 578.749C464.541 579.274 465.1 580.413 465.784 581.284C466.468 582.152 467.028 583.411 467.028 584.082C467.028 584.751 467.588 586.01 468.272 586.881C468.956 587.749 469.516 588.995 469.516 589.647C469.516 590.298 470.075 591.928 470.759 593.269C471.443 594.609 472.003 596.393 472.003 597.234C472.003 598.074 472.563 600.067 473.247 601.664C473.931 603.261 474.491 605.554 474.491 606.761C474.491 607.97 475.07 611.35 475.777 614.278C476.948 619.131 477.048 621.124 476.864 636.753C476.69 651.605 476.506 654.359 475.486 657.322C473.376 663.463 473.279 663.637 472.152 663.416C471.274 663.247 471.08 662.56 471.115 659.797C471.143 657.921 471.536 654.988 471.993 653.279C473.053 649.312 473.578 621.925 472.675 617.696C472.327 616.059 471.737 613.183 471.366 611.303C470.053 604.669 468.063 597.577 466.712 594.729C466.202 593.652 465.784 592.291 465.784 591.704C465.784 591.119 465.262 589.622 464.62 588.378C463.981 587.134 462.829 584.577 462.063 582.697C461.297 580.816 460.419 578.856 460.113 578.344C459.807 577.831 459.25 576.712 458.872 575.856C458.496 575 457.951 573.881 457.66 573.369C456.051 570.535 453.347 565.013 453.347 564.563C453.347 564.277 453.698 564.045 454.123 564.05Z" fill="#161416"/>
<path d="M415.4 597.169C416.077 597.644 417.291 598.987 418.099 600.159C418.907 601.328 421.781 605.405 424.487 609.219C427.191 613.032 430.385 617.771 431.581 619.746C434.308 624.246 439.046 634.014 439.708 636.489C439.979 637.516 440.631 639.613 441.156 641.153C443.297 647.461 444.817 656.737 444.466 661.379C444.103 666.172 443.176 668.752 441.957 668.349C441.472 668.187 441.081 665.451 440.812 660.381C440.589 656.133 439.959 650.939 439.414 648.837C438.867 646.735 438.422 644.352 438.422 643.541C438.422 642.73 437.862 641.024 437.178 639.748C436.494 638.472 435.934 636.999 435.934 636.479C435.934 635.959 435.211 634.069 434.327 632.28C429.514 622.532 427.663 619.298 419.611 606.582C414.067 597.828 413.029 595.51 415.4 597.169Z" fill="#161416"/>
<path d="M436.531 564.041C437.223 564.041 444.957 573.588 446.81 576.729C450.235 582.535 451.964 585.796 453.272 588.916C454.058 590.796 455.2 593.455 455.807 594.823C456.414 596.191 457.207 598.711 457.568 600.42C457.929 602.129 458.521 604.649 458.884 606.017C461.2 614.763 461.628 618.144 460.862 621.576C459.76 626.497 457.735 625.81 457.71 620.507C457.702 619.581 457.28 617.213 456.767 615.246C456.255 613.276 455.822 610.532 455.807 609.151C455.792 607.768 455.352 605.52 454.827 604.151C454.302 602.783 453.623 600.46 453.312 598.987C453.004 597.517 452.325 595.706 451.805 594.963C451.285 594.221 450.859 593.144 450.859 592.57C450.859 591.993 449.509 588.906 447.857 585.712C444.141 578.51 443.282 577.073 439.198 571.185C436.156 566.797 435.126 564.041 436.531 564.041Z" fill="#161416"/>
<path d="M426.027 579.871C426.392 579.647 427.721 580.642 428.979 582.087C432.519 586.145 439.633 597.846 439.686 599.699C439.698 600.097 440.248 601.54 440.909 602.908C441.571 604.276 442.121 606.015 442.133 606.771C442.143 607.527 442.68 609.487 443.322 611.124C444.763 614.788 445.345 623.805 444.168 624.203C443.093 624.569 440.939 619.631 440.924 616.768C440.914 615.497 440.35 613.039 439.666 611.303C438.982 609.567 438.422 607.525 438.422 606.761C438.422 606 437.862 604.333 437.178 603.057C436.494 601.781 435.934 600.405 435.934 600.002C435.934 598.592 430.696 588.57 428.042 584.903C425.173 580.943 424.999 580.508 426.027 579.871Z" fill="#161416"/>
<path d="M675.356 276.734C671.438 274.742 647.253 258.884 643.031 255.541C641.487 254.315 639.8 253.131 639.288 252.907C638.775 252.685 635.977 250.8 633.069 248.718C630.161 246.633 626.803 244.263 625.606 243.447C624.41 242.631 621.89 240.837 620.009 239.462C618.129 238.084 615.049 235.91 613.169 234.629C611.288 233.347 609.415 232.012 609.007 231.661C608.602 231.313 607.258 230.328 606.022 229.472C604.788 228.616 602.279 226.798 600.448 225.43C598.617 224.062 596.503 222.522 595.746 222.009C594.99 221.497 592.796 219.898 590.868 218.455C588.938 217.012 586.242 215.054 584.873 214.107C583.505 213.156 582.247 212.229 582.075 212.047C581.903 211.865 579.665 210.184 577.1 208.313C574.538 206.44 572.018 204.575 571.503 204.167C567.14 200.699 558.392 193.995 556.339 192.542C554.944 191.555 552.257 189.528 550.372 188.035C548.484 186.543 546.484 184.971 545.929 184.543C542.812 182.142 541.447 181.038 538.812 178.789C537.211 177.421 534.815 175.672 533.489 174.901C532.686 174.436 531.885 173.971 531.081 173.503C532.325 172.466 533.569 171.431 534.813 170.394C540.024 174.491 544.151 177.717 547.347 180.207C550.544 182.699 554.359 185.742 555.829 186.973C557.3 188.202 559.518 189.898 560.762 190.742C562.006 191.585 564.508 193.438 566.324 194.861C571.21 198.687 587.545 210.833 591.714 213.738C593.082 214.691 594.341 215.629 594.513 215.818C594.684 216.01 596.224 217.129 597.933 218.311C599.642 219.49 601.182 220.614 601.353 220.808C601.525 221.004 603.622 222.522 606.017 224.181C608.413 225.84 613.308 229.323 616.9 231.917C620.492 234.514 624.688 237.472 626.228 238.494C627.768 239.514 629.166 240.506 629.338 240.693C629.721 241.116 633.601 243.862 635.012 244.708C636.25 245.452 643.066 250.078 643.952 250.775C645.683 252.138 652.618 256.892 656.431 259.322C659.038 260.984 671.277 269.235 672.558 270.192C673.242 270.702 674.431 271.546 675.202 272.063C675.667 272.376 676.132 272.69 676.6 273.003C676.185 274.247 675.772 275.491 675.356 276.734Z" fill="#161416"/>
<path d="M687.794 269.272C689.209 267.585 689.63 266.613 689.64 266.023C689.652 265.434 690.184 263.755 690.826 262.292C691.465 260.829 692.331 258.653 692.749 257.456C693.164 256.26 694.013 254.021 694.634 252.481C695.256 250.941 696.105 248.703 696.52 247.506C696.938 246.31 697.804 244.133 698.443 242.671C699.085 241.208 699.609 239.496 699.609 238.867C699.609 238.238 700.169 237.011 700.853 236.143C701.537 235.273 702.097 234.089 702.097 233.512C702.097 232.934 702.5 231.718 702.995 230.81C703.487 229.905 704.632 227.343 705.537 225.119C706.443 222.895 707.716 219.88 708.37 218.417C709.025 216.955 709.559 215.38 709.559 214.918C709.559 214.455 709.96 213.743 710.452 213.335C710.945 212.93 711.532 211.706 711.763 210.617C711.992 209.53 712.711 207.766 713.358 206.701C714.005 205.634 714.539 204.234 714.547 203.592C714.557 202.948 715.109 201.721 715.778 200.866C716.447 200.01 717 198.714 717.009 197.988C717.017 197.259 717.442 196.316 717.955 195.891C718.467 195.465 718.888 194.799 718.888 194.411C718.888 194.023 719.587 192.391 720.442 190.784C721.298 189.177 722.002 187.5 722.009 187.058C722.019 186.615 722.572 185.553 723.241 184.697C723.91 183.841 724.462 182.55 724.472 181.826C724.479 181.102 725.044 179.799 725.728 178.931C726.412 178.06 726.972 176.941 726.972 176.443C726.972 175.943 727.532 174.824 728.216 173.956C728.9 173.085 729.464 171.859 729.472 171.227C729.482 170.598 730.034 169.384 730.703 168.528C731.372 167.672 731.925 166.521 731.934 165.968C731.942 165.416 732.507 164.252 733.191 163.384C733.875 162.513 734.434 161.394 734.434 160.896C734.434 160.396 734.994 159.277 735.678 158.409C736.362 157.538 736.922 156.419 736.922 155.921C736.922 155.421 737.482 154.302 738.166 153.434C738.85 152.563 739.409 151.444 739.409 150.946C739.409 150.446 739.969 149.327 740.653 148.459C741.337 147.588 741.902 146.501 741.909 146.044C741.919 145.583 742.472 144.509 743.141 143.653C743.81 142.797 744.362 141.646 744.372 141.093C744.379 140.541 744.874 139.404 745.474 138.566C746.071 137.725 747.128 135.939 747.822 134.594C748.516 133.25 749.67 131.029 750.387 129.661C751.103 128.293 752.014 126.474 752.414 125.619C752.815 124.763 753.548 123.435 754.048 122.664C754.352 122.198 754.653 121.733 754.956 121.266C755.994 122.094 757.028 122.925 758.066 123.753C748.347 143.273 745.151 149.359 744.693 149.872C744.235 150.384 743.671 151.563 743.439 152.489C743.208 153.417 742.643 154.484 742.185 154.864C741.73 155.245 741.181 156.354 740.964 157.334C740.748 158.314 740.188 159.434 739.72 159.822C739.253 160.21 738.693 161.329 738.477 162.309C738.26 163.289 737.686 164.424 737.193 164.829C736.701 165.237 736.3 165.916 736.3 166.334C736.3 166.755 735.601 168.414 734.745 170.023C733.89 171.633 733.186 173.282 733.178 173.692C733.168 174.1 732.616 175.135 731.947 175.991C731.278 176.846 730.726 178.137 730.716 178.861C730.708 179.585 730.144 180.889 729.459 181.757C728.775 182.627 728.216 183.747 728.216 184.244C728.216 184.744 727.656 185.864 726.972 186.732C726.288 187.602 725.728 188.861 725.728 189.53C725.728 190.202 725.238 191.421 724.639 192.241C723.412 193.925 720.818 199.565 720.778 200.634C720.766 201.02 720.353 201.669 719.86 202.077C719.368 202.482 718.773 203.706 718.537 204.796C718.298 205.883 717.517 208.032 716.801 209.572C716.082 211.112 714.96 213.629 714.311 215.169C713.659 216.709 712.604 219.002 711.965 220.266C711.326 221.532 710.803 223.014 710.803 223.564C710.803 224.114 710.278 225.596 709.634 226.862C708.992 228.126 708.037 230.141 707.512 231.337C706.987 232.534 705.833 235.156 704.95 237.166C704.065 239.173 703.341 241.136 703.341 241.529C703.341 241.919 702.781 243.282 702.097 244.559C701.413 245.835 700.851 247.369 700.848 247.969C700.846 248.571 700.289 249.902 699.609 250.927C698.93 251.951 698.373 253.506 698.371 254.379C698.368 255.25 698.092 256.237 697.756 256.571C697.172 257.158 695.846 260.643 693.336 268.182C692.94 269.376 692.542 270.568 692.147 271.759C690.697 270.931 689.244 270.1 687.794 269.272Z" fill="#161416"/>
<path d="M774.856 107.584C776.326 107.584 778.344 107.025 780.292 106.341C782.237 105.657 784.739 105.097 785.851 105.097C786.961 105.097 789.289 104.537 791.025 103.853C792.761 103.169 795.018 102.609 796.037 102.609C797.06 102.609 799.488 102.05 801.435 101.366C803.38 100.682 805.883 100.122 806.995 100.122C808.104 100.122 810.433 99.5622 812.169 98.8781C813.905 98.194 816.129 97.6344 817.111 97.6344C818.094 97.6344 820.674 97.0772 822.84 96.3981C825.009 95.719 827.375 95.1593 828.101 95.1543C828.828 95.1518 831.171 94.5872 833.313 93.9031C835.454 93.219 838.016 92.6594 839.006 92.6594C839.996 92.6594 842.397 92.0997 844.345 91.4156C846.29 90.7315 848.593 90.1768 849.459 90.1818C850.327 90.1843 852.854 89.6545 855.078 89.0002C860.384 87.4406 867.085 85.8038 870.841 85.1521C872.503 84.866 875.02 84.2292 876.438 83.7392C878.913 82.8835 881.172 82.3487 888.659 80.8412C890.54 80.4607 893.759 79.6074 895.811 78.9433C897.863 78.2766 900.522 77.7219 901.719 77.707C902.915 77.6921 905.015 77.2568 906.383 76.7394C907.751 76.222 910.41 75.5677 912.291 75.2842C914.171 75.0031 917.529 74.3414 919.753 73.8141C930.009 71.3813 934.056 71.1649 934.056 73.0504C934.056 73.9558 927.82 76.4906 925.589 76.4906C924.758 76.4906 922.484 77.0503 920.537 77.7344C918.592 78.4184 916.35 78.9781 915.562 78.9781C914.773 78.9781 912.534 79.5378 910.587 80.2219C908.642 80.9059 906.278 81.4656 905.338 81.4656C904.398 81.4656 902.288 81.9258 900.652 82.488C899.015 83.0526 895.858 83.8685 893.634 84.3038C891.411 84.7392 888.403 85.3983 886.948 85.769C885.495 86.1371 883.117 86.7416 881.665 87.1122C880.209 87.4804 877.62 88.0674 875.911 88.4182C874.202 88.7714 871.103 89.5873 869.028 90.2365C866.951 90.8858 864.496 91.4156 863.571 91.4156C862.645 91.4156 860.297 91.9753 858.349 92.6594C856.404 93.3434 853.902 93.9031 852.79 93.9031C851.68 93.9031 849.352 94.4628 847.616 95.1469C845.879 95.8309 843.551 96.3906 842.442 96.3906C841.33 96.3906 838.827 96.9503 836.882 97.6344C834.934 98.3184 832.661 98.8781 831.83 98.8781C830.994 98.8781 828.539 99.4353 826.372 100.114C824.203 100.793 821.731 101.366 820.875 101.386C820.019 101.405 818.201 101.828 816.833 102.326C815.465 102.823 812.428 103.537 810.087 103.91C807.744 104.283 804.885 104.985 803.731 105.465C802.58 105.948 800.781 106.341 799.736 106.341C798.692 106.341 796.244 106.9 794.296 107.584C792.351 108.268 789.898 108.828 788.849 108.828C787.799 108.828 785.346 109.388 783.401 110.072C781.453 110.756 779.212 111.316 778.416 111.316C777.62 111.316 776.635 111.594 776.224 111.937C775.976 112.144 775.727 112.353 775.478 112.559C775.272 110.9 775.063 109.244 774.856 107.584Z" fill="#161416"/>
<path d="M434.691 299.122C437.638 296.47 440.225 292.923 442.345 289.528C444.462 286.132 447.036 282.115 448.061 280.6C450.755 276.62 451.944 274.772 452.991 272.929C453.501 272.033 455.538 268.844 457.518 265.842C459.499 262.839 461.755 259.374 462.531 258.143C463.307 256.909 464.212 255.481 464.543 254.969C464.877 254.456 467.038 251.108 469.352 247.531C471.665 243.954 474.011 240.315 474.565 239.447C475.118 238.579 477.217 235.36 479.229 232.29C481.239 229.226 483.025 226.427 483.197 226.072C483.369 225.721 484.612 223.751 485.958 221.698C487.306 219.646 489.965 215.597 491.866 212.701C493.769 209.806 495.463 207.149 495.634 206.793C496.013 206.015 497.284 204.03 501.808 197.154C503.714 194.259 505.413 191.602 505.584 191.247C506.012 190.363 510.124 184.12 514.097 178.324C515.199 176.717 516.301 175.11 517.4 173.503C518.437 174.125 519.472 174.747 520.509 175.369C514.002 185.234 511.975 188.383 511.803 188.729C511.632 189.077 510.651 190.595 509.627 192.105C506.579 196.58 505.671 197.98 504.696 199.697C503.798 201.274 499.189 208.348 494.08 215.98C492.712 218.024 491.145 220.427 490.597 221.32C489.707 222.768 483.973 231.663 480.734 236.623C480.063 237.648 478.981 239.33 478.329 240.355C477.677 241.38 475.496 244.728 473.483 247.797C471.473 250.862 469.687 253.66 469.516 254.016C469.344 254.367 468.108 256.337 466.767 258.389C465.426 260.441 463.252 263.799 461.939 265.852C460.628 267.904 459.006 270.424 458.339 271.448C457.673 272.473 456.596 274.155 455.946 275.18C455.295 276.205 452.976 279.819 450.79 283.207C448.606 286.592 446.183 290.371 445.407 291.602C443.447 294.707 443.016 295.373 441.233 298.06C440.37 299.358 439.666 300.828 439.666 301.326C439.666 301.627 439.666 301.93 439.666 302.231C438.007 301.194 436.35 300.159 434.691 299.122Z" fill="#161416"/>
<path d="M282.331 344.519C293.033 335.604 298.978 330.688 302.45 327.845C305.92 325.002 309.614 321.853 310.656 320.848C311.699 319.845 312.826 319.022 313.161 319.022C313.497 319.022 314.743 318.107 315.93 316.987C317.728 315.291 323.059 310.686 327.084 307.348C329.673 305.204 343.85 292.943 345.947 291.038C347.263 289.841 349.372 287.963 350.628 286.866C351.887 285.769 355.921 282.199 359.598 278.936C361.827 276.958 364.056 274.981 366.284 273.003C367.113 273.832 367.944 274.662 368.772 275.491C366.469 277.66 364.16 279.729 362.155 281.491C357.8 285.314 345.907 295.938 344.506 297.256C343.962 297.769 342.312 299.169 340.84 300.366C339.367 301.562 335.454 304.92 332.141 307.828C328.83 310.736 324.917 314.094 323.447 315.291C321.977 316.487 318.49 319.368 315.701 321.689C312.91 324.012 310.348 326.116 310.005 326.365C309.661 326.614 307.005 328.706 304.097 331.012C296.07 337.382 285.538 345.123 283.844 345.897C282.573 346.474 282.331 346.419 282.331 345.551C282.331 345.208 282.331 344.862 282.331 344.519Z" fill="#161416"/>
<path d="M517.4 173.503C517.37 171.334 516.95 170.162 516.447 169.498C515.087 167.697 515.35 162.538 517.002 158.715C518.437 155.392 521.43 152.981 524.121 152.981C526.253 152.981 530.77 155.648 532.541 157.951C534.084 159.959 534.345 160.916 534.564 165.327C534.646 167.016 534.728 168.705 534.813 170.394C533.569 171.431 532.325 172.466 531.081 173.503C526.206 174.57 524.644 174.737 524.467 174.56C524.29 174.384 523.328 174.493 522.328 174.804C521.723 174.993 521.116 175.18 520.509 175.369C519.472 174.747 518.437 174.125 517.4 173.503Z" fill="#28B3FE"/>
<path d="M775.478 112.559C774.588 117.599 773.588 119.845 771.232 122.096C769.471 123.783 769.133 123.86 763.727 123.808C761.839 123.79 759.954 123.77 758.066 123.753C757.028 122.925 755.994 122.094 754.956 121.266C755.919 118.81 756.208 116.641 756.215 114.863C756.24 109.634 757.15 106.86 759.578 104.629C762.682 101.778 765.167 101.893 770.095 105.109C772.2 106.485 774.132 107.604 774.389 107.597C774.545 107.592 774.702 107.589 774.856 107.584C775.063 109.243 775.272 110.9 775.478 112.559Z" fill="#339CFE"/>
<path d="M366.284 273.003C366.769 265.071 368.742 258.805 371.16 257.509C371.854 257.138 373.881 256.834 375.662 256.834C378.453 256.834 379.279 257.14 381.59 259.033C384.319 261.272 385.513 263.859 385.595 267.717C385.617 268.742 385.898 270.073 386.222 270.67C386.416 271.033 386.612 271.396 386.806 271.759C386.184 273.003 385.563 274.247 384.941 275.491C383.406 275.491 382.249 276.05 381.379 276.734C379.162 278.478 373.431 278.438 371.259 276.662C370.404 275.963 369.496 275.414 369.24 275.441C369.083 275.458 368.926 275.473 368.772 275.491C367.944 274.662 367.113 273.832 366.284 273.003Z" fill="#28B3FE"/>
<path d="M421.009 299.744C423.994 299.744 425.664 299.269 426.646 298.689C428.193 297.776 428.855 297.734 431.561 298.378C432.604 298.624 433.648 298.873 434.691 299.122C436.35 300.159 438.007 301.194 439.666 302.231C439.957 312.582 439.802 313.562 438.673 315.087C436.788 317.636 432.9 319.733 430.648 319.417C423.952 318.472 421.221 315.271 420.9 307.982C420.788 305.502 420.49 303.473 420.233 303.473C420.077 303.475 419.92 303.475 419.766 303.475C420.181 302.231 420.594 300.988 421.009 299.744Z" fill="#28B3FE"/>
<path d="M676.6 273.003C678.065 273.003 679.538 272.342 680.819 271.533C682.1 270.725 684.192 269.886 685.471 269.667C686.244 269.536 687.018 269.404 687.794 269.272C689.244 270.1 690.697 270.931 692.147 271.759C696.806 280.147 697.067 283.083 693.557 287.679C692.784 288.692 692.01 289.704 691.239 290.717C689.784 290.779 688.329 290.841 686.873 290.901C680.045 291.189 677.222 288.891 676.869 282.749C676.759 280.861 676.374 278.737 676.013 278.025C675.794 277.595 675.575 277.165 675.356 276.734C675.772 275.491 676.185 274.247 676.6 273.003Z" fill="#339CFE"/>
<path d="M386.806 271.759C387.53 272.59 390.117 274.819 393.025 277.249C395.933 279.682 398.739 282.03 399.259 282.468C402.306 285.025 408.475 289.995 409.736 290.906C410.547 291.493 411.806 292.448 412.535 293.032C413.263 293.617 415.467 295.366 417.432 296.92C418.626 297.861 419.818 298.801 421.009 299.744C420.594 300.987 420.181 302.231 419.766 303.475C416.544 300.823 414.985 299.634 414.221 299.122C412.129 297.716 399.48 287.533 394.229 283.025C391.687 280.844 388.555 278.254 387.274 277.274C386.495 276.68 385.717 276.085 384.941 275.491C385.563 274.247 386.184 273.003 386.806 271.759Z" fill="#161416"/>
<path d="M209.572 677.222C218.798 674.794 221.054 674.685 240.666 674.687C253.847 674.687 263.319 674.951 265.23 675.369C266.939 675.739 270.998 676.329 274.247 676.675C277.496 677.018 282.473 677.844 285.309 678.505C288.142 679.167 291.08 679.704 291.839 679.699C294.824 679.679 312.087 685.498 315.913 687.814C316.425 688.122 317.965 688.938 319.333 689.625C321.955 690.938 322.074 691.015 327.955 694.945C332.499 697.985 346.588 711.492 350.981 717.022C354.842 721.882 357.456 725.639 360.066 730.081C360.77 731.278 361.889 733.096 362.556 734.123C364.205 736.666 366.033 739.917 367.24 742.454C367.792 743.616 368.64 744.964 369.128 745.451C369.615 745.939 370.016 746.638 370.016 747.004C370.016 747.673 371.725 751.553 373.794 755.578C374.953 757.829 376.824 761.916 378.918 766.772C381.331 772.364 382.162 773.831 383.294 774.493C384.214 775.03 384.59 774.931 385.16 774.001C385.553 773.361 388.729 768.463 392.217 763.118C395.707 757.775 399.137 752.352 399.836 751.071C400.261 750.292 400.684 749.514 401.109 748.737C401.316 748.531 401.525 748.322 401.731 748.116C402.353 747.078 402.975 746.044 403.597 745.006C406.129 745.531 406.562 745.964 406.373 746.566C406.276 746.877 406.181 747.185 406.084 747.494C404.147 751.108 403.239 752.708 402.813 753.379C400.025 757.802 393.07 768.63 392.062 770.12C391.396 771.105 390.567 772.364 390.227 772.918C389.886 773.471 388.555 775.491 387.274 777.408C384.585 781.423 384.493 782.112 386.184 785.428C386.868 786.769 387.431 788.368 387.431 788.98C387.433 789.59 387.891 790.93 388.446 791.958C389.003 792.985 389.669 794.803 389.928 796C390.642 799.293 392.403 806.35 393.749 811.323C395.018 816.012 395.134 824.014 393.94 824.407C392.729 824.805 391.316 821.178 390.876 816.542C390.635 813.987 390.152 811.368 389.809 810.726C389.465 810.082 388.926 807.748 388.612 805.54C388.301 803.331 387.627 800.716 387.115 799.726C386.602 798.736 386.184 797.341 386.184 796.622C386.184 795.903 385.739 794.458 385.197 793.408C384.655 792.358 383.846 790.202 383.401 788.62C382.207 784.363 381.214 781.662 379.899 779.085C379.252 777.821 378.722 776.339 378.722 775.789C378.722 775.239 378.2 773.757 377.56 772.493C374.991 767.406 373.744 764.553 373.744 763.759C373.747 763.302 373.187 762.215 372.503 761.344C371.819 760.476 371.259 759.357 371.259 758.857C371.259 758.359 370.7 757.24 370.016 756.369C369.332 755.501 368.772 754.382 368.772 753.882C368.772 753.384 368.212 752.265 367.528 751.394C366.844 750.526 366.284 749.419 366.284 748.939C366.284 748.459 365.784 747.307 365.172 746.379C363.22 743.424 362.551 742.26 361.538 740.031C360.993 738.835 360.347 737.715 360.103 737.544C359.857 737.372 358.844 735.693 357.852 733.812C356.859 731.932 355.038 728.992 353.805 727.283C352.571 725.574 351.444 723.857 351.305 723.472C350.544 721.382 336.482 706.796 329.775 701.139C324.303 696.522 310.475 688.416 308.072 688.416C307.612 688.416 306.321 687.858 305.201 687.174C304.079 686.49 302.381 685.933 301.423 685.931C300.465 685.928 298.873 685.51 297.883 684.998C296.893 684.485 294.319 683.809 292.162 683.495C290.005 683.179 286.57 682.478 284.533 681.938C282.495 681.396 279.836 680.951 278.625 680.948C277.413 680.943 273.205 680.374 269.272 679.68C263.441 678.655 258.275 678.356 241.288 678.065C227.895 677.836 218.679 677.948 215.48 678.379C211.266 678.943 210.433 678.906 210.04 678.132C209.883 677.829 209.726 677.525 209.572 677.222Z" fill="#28B3FE"/>
<path d="M436.556 838.287C433.905 842.797 432.852 844.546 432.507 845.083C429.987 848.994 429.131 850.178 426.629 853.202C425.076 855.078 423.527 856.986 423.186 857.446C419.211 862.762 407.791 872.18 400.731 875.966C395.468 878.786 394.406 879.264 389.605 880.973C384.756 882.699 384.314 882.747 372.192 882.724C362.043 882.709 359.411 882.523 357.889 881.714C356.864 881.169 355.043 880.538 353.847 880.309C351.571 879.876 346.979 878.097 343.275 876.217C342.078 875.61 340.399 874.789 339.544 874.393C336.126 872.811 334.141 871.605 331.666 869.608C330.24 868.456 328.82 867.516 328.509 867.516C326.887 867.516 305.079 846.143 304.152 843.643C304.01 843.262 302.331 840.996 300.42 838.608C296.838 834.131 296.672 833.892 294.284 829.82C293.505 828.492 292.323 826.566 291.657 825.539C290.005 822.992 288.473 820.305 287.02 817.402C286.349 816.064 285.47 814.547 285.067 814.034C284.132 812.845 279.811 804.288 277.692 799.42C276.797 797.368 275.67 795.129 275.185 794.445C274.7 793.761 274.287 792.642 274.272 791.958C274.252 791.274 273.682 789.876 273.003 788.848C272.324 787.821 271.762 786.562 271.757 786.05C271.752 785.537 271.06 783.717 270.217 782.008C268.555 778.625 268.292 777.018 269.299 776.393C270.364 775.734 271.642 777.254 273.695 781.615C274.764 783.883 276.132 786.719 276.739 787.916C277.346 789.112 278.481 791.493 279.259 793.201C280.767 796.512 282.048 799.139 284.115 803.151C284.821 804.52 285.56 806.059 285.759 806.572C285.958 807.084 286.801 808.624 287.635 809.992C288.465 811.36 289.463 813.179 289.848 814.034C290.234 814.89 290.796 816.009 291.097 816.522C291.398 817.034 292.219 818.435 292.92 819.631C293.619 820.828 294.811 822.857 295.57 824.141C302.398 835.72 314.736 850.414 325.552 859.847C330.208 863.906 338.949 870.045 342.218 871.55C343.312 872.053 344.628 872.732 345.141 873.058C345.653 873.381 347.752 874.259 349.805 875.008C351.857 875.754 354.476 876.762 355.625 877.249C361.232 879.62 381.381 879.719 386.729 877.401C388.227 876.754 389.853 876.222 390.343 876.222C391.425 876.222 401.204 871.127 404.219 868.991C412.067 863.431 420.636 854.819 426.641 846.454C429.188 842.907 431.76 839.34 432.357 838.526C432.72 838.031 433.084 837.539 433.447 837.044C434.484 837.459 435.519 837.872 436.556 838.287Z" fill="#28B3FE"/>
<path d="M433.447 837.044C433.952 835.357 434.785 833.748 435.623 832.38C436.462 831.012 437.444 829.193 437.805 828.337C438.168 827.482 439.014 825.594 439.686 824.139C442.867 817.266 444.128 814.004 445.884 808.127C446.496 806.074 447.285 803.557 447.636 802.53C448.494 800.012 449.583 795.726 450.322 791.958C450.658 790.249 451.337 787.547 451.832 785.958C452.327 784.368 452.892 781.709 453.091 780.05C453.287 778.391 453.984 774.744 454.64 771.948C455.297 769.152 455.834 765.906 455.834 764.74C455.834 763.573 456.255 761.242 456.77 759.563C457.285 757.884 457.969 753.431 458.29 749.67C458.61 745.909 459.277 740.869 459.77 738.477C460.262 736.084 460.852 729.417 461.078 723.666C461.307 717.917 461.757 712.512 462.083 711.656C462.409 710.801 462.675 706.796 462.675 702.754C462.675 697.142 462.466 695.234 461.784 694.669C461.284 694.256 457.399 693.706 452.924 693.42C448.539 693.139 443.593 692.53 441.932 692.07C438.914 691.231 438.909 691.234 437.404 693.087C436.574 694.109 435.352 696.065 434.688 697.433C434.021 698.801 433.221 700.341 432.907 700.853C432.594 701.366 432.022 702.485 431.636 703.341C431.25 704.196 430.258 706.015 429.432 707.383C428.606 708.751 427.499 710.85 426.972 712.047C426.442 713.243 424.997 715.902 423.758 717.955C422.517 720.007 420.818 722.945 419.982 724.484C419.146 726.024 417.845 728.325 417.092 729.599C416.34 730.872 414.786 733.641 413.641 735.753C412.497 737.865 411.303 739.899 410.99 740.277C410.676 740.656 409.796 741.964 409.03 743.188C408.263 744.412 407.288 745.879 406.86 746.454C406.602 746.8 406.343 747.148 406.084 747.494C406.181 747.185 406.276 746.877 406.373 746.566C406.562 745.964 406.129 745.531 403.597 745.006C406.594 740.263 410.676 733.412 413.726 728.009C414.338 726.925 415.945 724.079 417.296 721.686C418.646 719.293 420.206 716.353 420.761 715.156C421.318 713.96 421.987 712.84 422.253 712.669C422.519 712.497 423.181 711.378 423.726 710.181C424.27 708.985 425.034 707.445 425.422 706.761C425.81 706.077 426.683 704.398 427.36 703.03C428.037 701.662 429.089 699.562 429.696 698.366C430.305 697.169 431.119 695.49 431.509 694.634C431.897 693.779 432.773 692.308 433.454 691.371C433.865 690.799 434.278 690.229 434.691 689.659C435.019 689.555 435.347 689.453 435.676 689.348C436.215 689.177 436.497 688.756 435.934 687.794C437.594 687.794 439.25 687.794 440.909 687.794C441.325 688 441.738 688.209 442.153 688.416C449.14 689.341 454.073 689.751 457.62 689.923C467.262 690.393 466.949 689.988 466.615 701.599C466.466 706.833 466.075 712.233 465.745 713.602C465.416 714.97 464.881 721.427 464.558 727.952C464.235 734.477 463.697 740.534 463.364 741.412C463.031 742.287 462.454 746.285 462.08 750.292C461.707 754.302 461.15 758.048 460.844 758.62C460.541 759.19 460.103 761.75 459.874 764.304C459.643 766.859 458.921 770.926 458.267 773.341C457.613 775.757 457.086 778.416 457.093 779.249C457.11 780.801 455.329 788.796 453.362 796C452.755 798.224 451.974 801.162 451.628 802.53C450.994 805.022 450.631 806.151 448.223 813.102C445.422 821.181 442.728 827.619 440.937 830.514C440.302 831.541 439.755 832.718 439.725 833.128C439.693 833.541 438.967 834.872 438.111 836.084C437.594 836.817 437.074 837.551 436.556 838.287C435.519 837.872 434.484 837.459 433.447 837.044ZM438.006 689.319C435.72 689.893 436.902 690.721 440.598 691.137C447.442 691.908 455.72 692.853 459.255 693.266C460.498 693.411 461.742 693.557 462.986 693.702C462.978 696.811 462.973 699.92 462.966 703.03C462.956 708.161 462.715 714.947 462.434 718.111C462.1 721.815 462.138 723.862 462.531 723.862C463.274 723.862 463.919 720.882 463.921 717.41C463.924 715.999 464.324 714.084 464.809 713.151C466.11 710.659 466.371 692.901 465.12 692.107C463.998 691.398 462.352 691.152 452.725 690.269C448.449 689.876 443.755 689.408 442.295 689.231C440.832 689.055 438.904 689.095 438.006 689.319Z" fill="#28B8F4"/>
<path d="M152.071 914.778C152.506 912.213 153.285 908.015 153.797 905.45C155.792 895.47 156.329 891.833 157.939 877.466C158.305 874.217 158.899 869.04 159.26 865.961C160.143 858.444 159.653 810.199 158.66 807.194C158.267 805.997 157.665 800.443 157.324 794.848C156.986 789.256 156.551 784.426 156.359 784.117C155.812 783.227 156.708 781.075 157.625 781.075C158.772 781.075 160.752 788.177 161.613 795.378C162.001 798.627 162.581 803.246 162.899 805.639C163.643 811.241 163.668 862.822 162.929 868.137C162.618 870.361 162.058 874.978 161.685 878.398C160.446 889.714 156.949 908.796 154.792 916.022C154.128 918.246 153.591 920.435 153.593 920.887C153.608 922.019 151.461 921.519 151.359 920.368C151.315 919.86 151.633 917.343 152.071 914.778Z" fill="#28B3FE"/>
<path d="M309.072 966.394C311 963.478 311.559 962.262 311.559 961.812C311.559 961.359 312.119 960.483 312.803 959.864C313.487 959.245 314.047 958.237 314.047 957.628C314.047 957.018 314.355 956.327 314.731 956.093C315.109 955.859 315.833 954.794 316.34 953.725C316.848 952.655 317.833 950.8 318.527 949.603C319.221 948.407 320.243 946.446 320.798 945.25C321.35 944.053 322.298 942.407 322.9 941.591C323.504 940.775 323.997 939.675 323.997 939.151C323.997 938.623 325.059 935.932 326.355 933.171C327.653 930.41 329.375 926.33 330.181 924.106C330.987 921.882 332.166 918.867 332.798 917.405C333.429 915.942 333.947 914.363 333.947 913.897C333.947 913.43 334.499 911.828 335.176 910.338C335.855 908.845 336.422 906.927 336.442 906.072C336.462 905.216 337.016 903.398 337.678 902.03C338.34 900.661 338.89 899.002 338.902 898.341C338.912 897.681 339.449 895.443 340.091 893.366C340.735 891.291 341.715 887.843 342.268 885.704C342.603 884.411 342.939 883.115 343.275 881.819C343.69 881.612 344.103 881.403 344.519 881.197C345.486 881.737 345.648 882.508 345.501 883.256C345.355 884.005 344.641 887.697 343.912 891.458C343.183 895.219 342.041 899.977 341.377 902.03C340.71 904.082 340.156 906.46 340.146 907.316C340.133 908.171 339.584 909.99 338.922 911.358C338.26 912.726 337.71 914.487 337.698 915.268C337.688 916.052 337.118 917.79 336.434 919.131C335.75 920.472 335.191 921.992 335.191 922.509C335.191 923.377 334.586 924.872 331.375 931.947C330.738 933.352 330.216 934.924 330.216 935.439C330.216 935.954 329.656 937.088 328.972 937.957C328.288 938.827 327.728 940.086 327.728 940.755C327.728 941.424 327.168 942.685 326.484 943.553C325.8 944.424 325.241 945.543 325.241 946.041C325.241 946.541 324.681 947.66 323.997 948.528C323.313 949.399 322.753 950.518 322.753 951.016C322.753 951.516 322.263 952.59 321.664 953.406C321.067 954.222 319.878 956.125 319.022 957.638C316.373 962.319 314.577 964.744 311.84 967.326C310.962 968.155 310.084 968.986 309.206 969.814C309.184 969.244 309.161 968.675 309.139 968.105C309.117 967.533 309.094 966.963 309.072 966.394Z" fill="#28B8F4"/>
<path d="M85.8187 830.825C87.264 826.718 87.6844 825.114 87.6844 824.611C87.6844 824.109 88.2117 822.293 88.8535 820.577C89.4977 818.86 90.3634 816.475 90.7763 815.278C91.1917 814.082 92.0922 811.701 92.7763 809.992C93.4628 808.283 94.4304 805.574 94.9279 803.977C95.4254 802.38 96.2389 800.736 96.7339 800.326C97.2289 799.915 97.6344 798.95 97.6344 798.184C97.6344 797.418 98.194 796.077 98.8781 795.209C99.5622 794.338 100.122 793.219 100.122 792.722C100.122 792.222 100.682 791.102 101.366 790.234C102.05 789.363 102.609 788.244 102.609 787.747C102.609 787.247 103.099 786.145 103.699 785.299C105.97 782.08 107.47 779.491 107.527 778.685C107.557 778.227 108.164 777.107 108.87 776.197C109.577 775.289 111.413 772.866 112.95 770.814C114.485 768.762 116.425 766.819 117.258 766.496C118.619 765.971 118.773 766.068 118.736 767.429C118.713 768.264 117.88 770.349 116.885 772.058C113.149 778.471 112.495 779.568 111.316 781.386C110.651 782.413 109.189 784.995 108.067 787.127C106.945 789.261 105.706 791.301 105.313 791.662C104.918 792.023 104.413 793.055 104.186 793.955C103.96 794.856 103.234 796.281 102.57 797.124C101.908 797.965 101.361 799.246 101.353 799.97C101.346 800.694 100.791 801.985 100.122 802.841C99.4527 803.696 98.898 804.9 98.8905 805.515C98.8831 806.132 98.3557 807.671 97.7189 808.935C97.0821 810.201 95.9105 813.054 95.1195 815.278C94.3309 817.502 93.1718 820.631 92.5499 822.233C91.9255 823.835 91.4131 825.795 91.4106 826.586C91.4106 827.38 91.0126 828.785 90.5301 829.711C90.0475 830.636 89.4878 831.825 89.2888 832.352C89.1694 832.673 89.0475 832.994 88.9281 833.313C87.8908 832.484 86.856 831.653 85.8187 830.825Z" fill="#28B8F4"/>
<path d="M438.006 689.319C438.904 689.095 440.832 689.055 442.295 689.231C443.755 689.408 448.449 689.876 452.725 690.269C462.352 691.152 463.998 691.398 465.12 692.107C466.371 692.901 466.11 710.659 464.809 713.151C464.324 714.084 463.924 715.999 463.921 717.41C463.919 720.882 463.274 723.862 462.531 723.862C462.138 723.862 462.1 721.815 462.434 718.111C462.715 714.947 462.956 708.161 462.966 703.03C462.974 699.92 462.978 696.811 462.986 693.702C461.742 693.557 460.498 693.411 459.255 693.266C455.72 692.853 447.442 691.908 440.598 691.137C436.902 690.721 435.72 689.893 438.006 689.319Z" fill="#339CFE"/>
<path d="M88.9281 833.934C88.8908 837.066 88.4704 838.887 87.9704 839.999C87.667 840.67 87.366 841.345 87.0625 842.019C86.9083 842.019 86.754 842.019 86.5998 842.019C86.3436 842.019 86.4531 841.529 86.8386 840.929C87.3486 840.141 87.3535 839.611 86.8585 838.999C86.3486 838.365 86.4282 837.969 87.1819 837.419C87.7341 837.014 88.3535 836.066 88.9281 833.934Z" fill="#28B8F4"/>
<path d="M326.437 566.498C327.069 564.474 329.728 560.255 331.124 559.056C331.716 558.548 333.832 557.292 335.825 556.267C337.817 555.242 341.914 552.747 344.929 550.728C347.944 548.705 351.673 546.389 353.218 545.579C354.76 544.768 356.444 543.855 356.956 543.546C357.469 543.238 358.309 542.812 358.822 542.601C359.334 542.39 360.874 541.534 362.242 540.703C363.61 539.872 365.429 538.875 366.284 538.489C367.14 538.104 368.399 537.487 369.083 537.116C369.767 536.745 371.307 535.927 372.503 535.295C373.7 534.666 375.938 533.435 377.478 532.561C379.018 531.686 382.095 530.007 384.319 528.828C386.543 527.649 388.781 526.435 389.294 526.129C389.806 525.825 390.647 525.4 391.159 525.188C391.672 524.977 393.212 524.121 394.58 523.291C395.948 522.46 397.766 521.462 398.622 521.077C399.478 520.691 400.736 520.074 401.42 519.704C402.104 519.333 403.644 518.52 404.841 517.895C406.037 517.271 407.438 516.485 407.95 516.146C408.462 515.811 409.582 515.248 410.438 514.898C411.293 514.547 413.112 513.604 414.48 512.801C415.848 512 419.766 509.883 423.186 508.097C432.243 503.368 433.041 502.95 434.069 502.371C434.581 502.08 435.701 501.537 436.556 501.159C437.412 500.784 438.531 500.224 439.044 499.915C439.556 499.609 440.676 499.05 441.531 498.672C442.387 498.296 443.506 497.736 444.019 497.428C444.531 497.122 445.651 496.562 446.506 496.184C447.362 495.809 448.481 495.249 448.994 494.94C449.506 494.634 450.626 494.062 451.481 493.669C452.337 493.279 456.394 491.344 460.498 489.368C464.603 487.391 468.72 485.587 469.645 485.359C470.573 485.127 471.64 484.565 472.021 484.11C472.401 483.652 473.513 483.102 474.491 482.886C475.468 482.67 476.605 482.093 477.01 481.602C477.418 481.11 478.207 480.707 478.764 480.705C479.321 480.702 480.617 480.145 481.642 479.466C482.667 478.787 483.928 478.222 484.441 478.212C484.953 478.202 486.072 477.647 486.928 476.978C487.784 476.309 488.998 475.754 489.627 475.749C490.259 475.739 491.485 475.175 492.356 474.491C493.224 473.807 494.351 473.247 494.856 473.247C495.363 473.247 496.794 472.702 498.037 472.038C499.281 471.371 501.978 470.095 504.03 469.197C506.082 468.299 508.502 467.165 509.41 466.675C510.321 466.185 511.437 465.78 511.898 465.77C512.36 465.765 513.435 465.21 514.291 464.541C515.146 463.872 516.36 463.317 516.99 463.312C517.621 463.302 518.848 462.737 519.718 462.053C520.587 461.369 521.922 460.809 522.686 460.809C523.45 460.809 524.785 460.25 525.654 459.566C526.524 458.882 527.783 458.322 528.452 458.322C529.124 458.322 530.382 457.762 531.25 457.078C532.121 456.394 533.347 455.83 533.979 455.82C534.609 455.815 535.822 455.26 536.678 454.591C537.534 453.922 538.653 453.369 539.166 453.362C539.678 453.357 541.218 452.815 542.586 452.16C546.519 450.28 552.536 447.586 559.377 444.646C560.745 444.059 563.123 442.989 564.663 442.27C566.202 441.551 568.22 440.783 569.145 440.564C570.073 440.345 571.155 439.773 571.553 439.295C571.951 438.815 572.871 438.417 573.6 438.407C574.329 438.402 575.622 437.847 576.478 437.178C577.334 436.509 578.453 435.957 578.966 435.949C579.478 435.944 581.157 435.34 582.697 434.611C584.237 433.88 586.615 432.79 587.983 432.191C589.351 431.591 591.669 430.509 593.132 429.785C594.597 429.064 596.276 428.467 596.863 428.457C597.453 428.452 598.632 427.897 599.488 427.228C600.343 426.559 601.547 426.004 602.164 425.999C602.778 425.989 604.318 425.435 605.584 424.766C606.848 424.094 609.283 422.945 610.992 422.208C616.507 419.843 619.019 418.731 621.875 417.395C623.415 416.676 625.432 415.908 626.357 415.689C627.285 415.47 628.367 414.898 628.765 414.42C629.163 413.94 629.944 413.547 630.502 413.549C631.425 413.549 632.872 412.928 639.288 409.776C640.484 409.189 642.355 408.517 643.442 408.288C644.531 408.057 645.753 407.468 646.16 406.977C646.568 406.485 647.302 406.084 647.79 406.084C648.28 406.084 649.715 405.552 650.979 404.903C658.707 400.93 658.439 401.01 664.337 400.925C669.192 400.856 670.448 401.055 672.548 402.219C673.911 402.978 675.292 403.597 675.612 403.597C676.672 403.597 684.525 409.219 687.62 412.189C691.154 415.584 694.677 419.915 696.062 422.564C699.152 428.477 700.853 432.288 700.853 433.288C700.853 433.912 701.413 436.014 702.097 437.962C703.129 440.897 703.341 443.094 703.341 450.859C703.341 458.625 703.129 460.822 702.097 463.757C701.413 465.705 700.853 467.949 700.853 468.747C700.853 470.727 699.154 473.869 698.08 473.869C697.6 473.869 697.022 473.289 696.796 472.58C696.236 470.819 697.06 464.091 698.159 461.431C698.662 460.215 699.221 456.066 699.425 452.026C699.761 445.375 699.652 444.31 698.055 438.656C697.1 435.278 695.801 431.539 695.167 430.348C694.532 429.154 694.013 427.955 694.013 427.678C694.013 427.231 691.704 423.671 690.898 422.875C690.726 422.703 689.766 421.445 688.764 420.077C686.535 417.032 685.264 415.766 681.264 412.594C676.841 409.084 674.262 407.328 673.53 407.328C673.185 407.328 671.983 406.769 670.861 406.087C668.133 404.423 661.901 404.381 658.69 406.002C657.424 406.642 654.989 407.783 653.28 408.54C651.571 409.296 649.051 410.453 647.683 411.109C646.315 411.768 644.914 412.306 644.573 412.303C644.233 412.301 642.832 412.823 641.464 413.462C640.096 414.104 637.576 415.243 635.867 416C634.158 416.753 631.723 417.91 630.459 418.569C629.193 419.226 627.698 419.766 627.136 419.766C626.574 419.766 625.402 420.325 624.532 421.009C623.664 421.694 622.415 422.253 621.758 422.253C621.104 422.253 619.532 422.778 618.266 423.422C616.034 424.554 612.858 426.007 607.418 428.382C605.962 429.017 603.515 430.136 601.975 430.87C600.435 431.606 598.928 432.206 598.624 432.206C598.318 432.203 596.779 432.805 595.204 433.539C593.627 434.275 591.077 435.432 589.538 436.111C587.998 436.788 585.62 437.855 584.252 438.479C582.883 439.104 581.005 439.793 580.08 440.012C579.152 440.23 578.07 440.803 577.672 441.28C577.274 441.76 576.493 442.153 575.936 442.156C575.379 442.156 574.008 442.715 572.886 443.399C571.767 444.081 570.411 444.641 569.876 444.641C569.341 444.641 568.19 445.2 567.319 445.884C566.451 446.569 565.202 447.128 564.546 447.128C563.891 447.128 562.319 447.678 561.053 448.347C559.789 449.019 557.354 450.168 555.645 450.904C553.936 451.638 551.417 452.728 550.048 453.325C548.68 453.922 546.302 454.959 544.763 455.628C543.223 456.297 540.564 457.481 538.855 458.262C537.146 459.041 534.626 460.175 533.258 460.78C527.32 463.411 525.004 464.434 522.375 465.578C520.835 466.247 518.318 467.381 516.778 468.095C514.054 469.362 510.689 470.884 504.963 473.439C503.423 474.125 501.744 474.924 501.231 475.215C500.719 475.506 499.599 476.045 498.744 476.414C494.271 478.341 491.891 479.413 488.732 480.916C486.816 481.829 484.961 482.575 484.61 482.575C484.259 482.575 483.622 482.996 483.197 483.508C482.772 484.02 481.871 484.441 481.197 484.441C480.523 484.441 479.262 485 478.391 485.684C477.523 486.369 476.404 486.928 475.904 486.928C475.406 486.928 474.287 487.488 473.416 488.172C472.548 488.856 471.289 489.416 470.618 489.416C469.948 489.416 468.69 489.975 467.819 490.659C466.951 491.344 465.752 491.903 465.155 491.903C464.558 491.903 463.732 492.311 463.317 492.811C462.901 493.311 461.959 493.893 461.22 494.107C460.078 494.433 434.631 506.9 431.427 508.704C430.828 509.04 429.847 509.597 429.248 509.943C428.651 510.286 427.462 510.875 426.606 511.254C425.751 511.629 424.631 512.189 424.119 512.497C423.206 513.045 421.629 513.801 419.766 514.582C419.253 514.796 417.713 515.654 416.345 516.485C414.977 517.316 413.159 518.313 412.303 518.699C411.447 519.084 410.328 519.651 409.816 519.962C409.303 520.271 407.763 521.077 406.395 521.753C405.027 522.43 403.487 523.266 402.975 523.611C402.463 523.957 401.343 524.527 400.488 524.878C399.632 525.228 397.813 526.171 396.445 526.974C395.077 527.775 391.159 529.892 387.739 531.678C378.682 536.407 377.884 536.825 376.856 537.405C375.911 537.939 374.2 538.745 372.503 539.457C371.991 539.671 370.451 540.529 369.083 541.36C367.715 542.191 365.896 543.188 365.041 543.574C364.185 543.959 363.066 544.526 362.553 544.835C362.041 545.141 360.921 545.7 360.066 546.079C359.21 546.454 358.091 547.014 357.578 547.322C356.678 547.862 355.173 548.583 353.225 549.412C352.713 549.628 350.335 550.84 347.939 552.103C342.606 554.919 341.887 556.645 345.546 557.854C348.817 558.934 358.481 568.692 362.451 574.924C364.192 577.66 365.857 580.18 366.148 580.525C367.08 581.635 371.426 590.963 372.953 595.134C375.66 602.532 377.389 610.975 377.441 617.074C377.483 621.813 378.274 622.718 380.881 621.012C381.722 620.46 382.737 620.009 383.14 620.009C383.901 620.009 387.946 618.261 391.903 616.219C393.169 615.567 394.567 615.03 395.013 615.02C395.458 615.015 396.522 614.46 397.378 613.791C398.234 613.122 399.353 612.562 399.866 612.547C400.378 612.532 401.497 611.972 402.353 611.303C403.209 610.634 404.283 610.079 404.741 610.074C405.201 610.064 406.291 609.497 407.164 608.813C408.373 607.861 408.948 607.731 409.592 608.266C410.689 609.176 410.679 611.572 409.574 612.487C408.129 613.689 402.726 616.273 401.659 616.276C401.107 616.278 399.943 616.838 399.075 617.522C398.204 618.206 397.037 618.766 396.478 618.766C395.918 618.766 394.366 619.325 393.025 620.009C391.684 620.694 390.227 621.263 389.784 621.273C389.344 621.286 387.863 621.835 386.495 622.497C385.127 623.159 383.369 623.708 382.587 623.721C380.078 623.756 376.869 625.497 373.978 628.385C371.048 631.318 369.829 631.646 363.488 631.206C359.446 630.927 353.225 625.808 353.225 622.761C353.225 620.549 354.491 620.9 357.936 624.064C363.486 629.161 369.128 629.507 372.15 624.937C373.595 622.753 373.747 621.945 373.732 616.447C373.725 613.104 373.463 609.39 373.15 608.194C370.341 597.425 369.152 594.075 365.968 587.983C361.623 579.672 361.006 578.64 358.675 575.769C357.389 574.182 356.334 572.665 356.334 572.396C356.334 571.595 346.076 561.979 343.606 560.464C338.641 557.421 332.574 559.538 330.096 565.182C329.392 566.777 328.425 569.342 327.937 570.881C327.452 572.421 326.912 573.68 326.736 573.68C326.161 573.68 325.927 568.123 326.437 566.498Z" fill="#161416"/>
<path d="M476.202 574.252C478.167 573.349 480.267 572.361 480.864 572.055C481.463 571.752 482.513 571.222 483.197 570.881C483.881 570.541 485.07 569.936 485.839 569.541C486.61 569.145 487.659 568.633 488.172 568.404C488.684 568.172 490.279 567.376 491.714 566.635C493.152 565.891 494.647 565.284 495.037 565.284C495.428 565.284 496.46 564.725 497.331 564.041C498.199 563.357 499.318 562.797 499.818 562.797C500.316 562.797 501.435 562.237 502.306 561.553C503.174 560.869 504.487 560.309 505.219 560.309C505.953 560.309 507.214 559.844 508.027 559.275C510.316 557.673 514.977 555.419 516.858 555.006C517.793 554.802 518.878 554.25 519.266 553.78C519.654 553.31 520.776 552.752 521.753 552.536C522.731 552.32 523.868 551.742 524.273 551.252C524.681 550.76 525.415 550.359 525.902 550.359C526.392 550.359 527.967 549.753 529.405 549.009C530.84 548.267 532.434 547.471 532.947 547.24C533.459 547.011 534.439 546.534 535.123 546.183C535.808 545.83 537.524 544.947 538.939 544.218C540.355 543.491 541.85 542.897 542.26 542.897C542.673 542.897 543.723 542.337 544.593 541.653C545.462 540.969 546.581 540.409 547.081 540.409C547.578 540.409 548.698 539.85 549.568 539.166C550.437 538.482 551.772 537.922 552.536 537.922C553.3 537.922 554.613 537.38 555.454 536.718C556.297 536.054 557.722 535.327 558.623 535.101C559.523 534.875 560.583 534.298 560.981 533.82C561.379 533.34 562.334 532.947 563.1 532.947C563.866 532.947 565.185 532.405 566.026 531.743C566.869 531.079 568.294 530.352 569.195 530.126C570.095 529.9 571.155 529.323 571.553 528.845C571.951 528.365 572.871 527.967 573.6 527.957C574.329 527.952 575.622 527.397 576.478 526.728C577.334 526.059 578.453 525.499 578.966 525.484C579.478 525.47 580.597 524.91 581.453 524.241C582.309 523.572 583.523 523.017 584.152 523.012C584.784 523.002 586.01 522.437 586.881 521.753C587.749 521.069 588.868 520.509 589.368 520.509C589.866 520.509 590.985 519.95 591.856 519.266C592.724 518.582 593.826 518.022 594.304 518.022C594.781 518.022 597.323 516.903 599.95 515.534C602.577 514.166 605.189 513.047 605.754 513.047C606.321 513.047 607.472 512.505 608.313 511.843C609.156 511.179 610.582 510.452 611.482 510.226C612.383 510 613.442 509.423 613.84 508.945C614.238 508.465 615.159 508.067 615.888 508.057C616.616 508.052 617.91 507.497 618.766 506.828C619.621 506.159 620.741 505.599 621.253 505.584C621.766 505.57 622.885 505.01 623.741 504.341C624.596 503.672 625.81 503.117 626.44 503.112C627.071 503.102 628.298 502.537 629.168 501.853C630.037 501.169 631.156 500.609 631.656 500.609C632.153 500.609 633.273 500.05 634.143 499.366C635.012 498.682 636.325 498.122 637.056 498.122C637.788 498.122 639.054 497.657 639.865 497.087C642.233 495.43 646.974 493.152 648.066 493.149C648.618 493.147 649.782 492.587 650.65 491.903C651.521 491.219 652.436 490.659 652.688 490.659C653.255 490.659 657.862 488.567 662.143 486.369C662.74 486.06 664.63 485.179 666.339 484.406C668.048 483.632 669.869 482.764 670.381 482.473C671.6 481.782 673.707 480.856 677.533 479.331C679.242 478.65 681.762 477.598 683.13 476.991C686.814 475.359 689.771 474.488 690.371 474.859C691.351 475.463 690.916 476.772 689.505 477.483C688.734 477.869 686.145 479.311 683.752 480.69C681.359 482.065 678.699 483.5 677.844 483.881C676.988 484.262 675.869 484.826 675.356 485.135C674.844 485.441 673.724 485.998 672.869 486.369C672.013 486.739 669.075 488.112 666.339 489.418C663.603 490.724 660.665 491.993 659.809 492.234C658.954 492.475 657.834 493.037 657.322 493.483C656.809 493.928 655.63 494.483 654.705 494.714C653.777 494.945 652.695 495.527 652.297 496.005C651.899 496.485 651.173 496.878 650.685 496.878C649.924 496.878 647.101 498.167 643.641 500.097C643.128 500.386 642.009 500.923 641.153 501.296C637.865 502.731 633.962 504.547 633.069 505.06C632.556 505.353 631.437 505.898 630.581 506.269C629.726 506.639 626.788 507.995 624.052 509.276C621.315 510.559 617.398 512.378 615.345 513.316C613.293 514.256 611.194 515.278 610.681 515.592C610.169 515.905 609.049 516.447 608.194 516.796C606.042 517.679 602.475 519.34 601.353 519.982C600.841 520.278 599.721 520.83 598.866 521.211C598.01 521.592 596.294 522.43 595.05 523.072C593.806 523.716 592.45 524.241 592.04 524.241C591.627 524.241 590.577 524.8 589.707 525.484C588.839 526.169 587.719 526.728 587.219 526.728C586.722 526.728 585.602 527.288 584.732 527.972C583.864 528.656 582.545 529.216 581.804 529.216C581.065 529.216 580.192 529.472 579.869 529.788C578.806 530.815 571.874 534.191 570.827 534.191C570.264 534.191 569.115 534.733 568.274 535.395C567.431 536.059 566.006 536.785 565.105 537.012C564.205 537.238 563.145 537.815 562.747 538.293C562.349 538.773 561.471 539.166 560.797 539.166C560.123 539.166 558.862 539.725 557.991 540.409C557.123 541.094 556.004 541.653 555.504 541.653C555.006 541.653 553.887 542.213 553.016 542.897C552.148 543.581 550.889 544.141 550.218 544.141C549.548 544.141 548.29 544.7 547.419 545.384C546.551 546.069 545.432 546.628 544.932 546.628C544.434 546.628 543.315 547.188 542.444 547.872C541.576 548.556 540.474 549.116 539.996 549.116C539.519 549.116 537.006 550.22 534.417 551.568C531.828 552.917 528.917 554.195 527.949 554.407C526.982 554.618 525.872 555.175 525.484 555.645C525.096 556.116 523.974 556.673 522.997 556.889C522.019 557.106 520.883 557.683 520.477 558.173C520.069 558.665 519.335 559.066 518.848 559.066C518.084 559.066 515.263 560.354 511.803 562.285C511.291 562.573 510.171 563.118 509.316 563.498C508.46 563.879 506.744 564.717 505.5 565.359C504.256 566.003 502.9 566.528 502.49 566.528C502.077 566.528 501.027 567.088 500.157 567.772C499.289 568.456 498.169 569.016 497.669 569.016C497.172 569.016 496.052 569.575 495.182 570.259C494.314 570.944 492.955 571.503 492.167 571.503C491.378 571.503 490.595 571.725 490.426 571.998C490.04 572.625 482.777 576.217 480.709 576.804C479.854 577.048 478.734 577.612 478.222 578.058C477.709 578.503 476.543 579.055 475.63 579.282C474.341 579.605 473.822 579.416 473.297 578.438C472.19 576.369 472.468 575.966 476.202 574.252Z" fill="#161416"/>
<path d="M61.5358 753.121C63.287 751.369 67.9983 749.362 70.3938 749.347C71.5231 749.337 73.5703 748.822 74.9434 748.2C76.314 747.576 79.1125 746.877 81.1597 746.646C83.2094 746.412 86.2591 745.81 87.9381 745.305C89.6172 744.797 92.152 744.384 93.5698 744.384C95.6693 744.384 96.515 744.004 98.1344 742.332C99.2289 741.205 100.122 739.939 100.122 739.519C100.122 739.099 101.149 736.793 102.405 734.395C105.137 729.181 112.04 722.295 116.641 720.199C118.33 719.427 120.271 718.49 120.955 718.111C121.639 717.731 123.596 717.199 125.305 716.925C128.925 716.345 129.972 715.221 129.972 711.925C129.972 710.622 130.532 708.51 131.216 707.234C131.9 705.958 132.464 704.351 132.472 703.662C132.479 702.973 133.034 701.709 133.703 700.853C134.372 699.998 134.927 699 134.934 698.634C134.947 697.983 138.977 692.127 140.683 690.281C142.954 687.824 150.613 682.197 151.688 682.197C151.969 682.197 153.454 681.498 154.984 680.642C155.912 680.125 156.837 679.607 157.765 679.088C157.668 676.535 157.568 673.983 157.471 671.431C157.178 663.829 157.19 663.745 159.143 659.772C161.879 654.195 162.523 653.153 164.563 651.006C167.016 648.419 172.434 644.884 173.938 644.884C174.618 644.884 175.692 644.315 176.322 643.616C177.436 642.387 177.436 642.181 176.334 636.569C175.707 633.39 175.361 629.972 175.563 628.974C177.098 621.338 177.809 618.733 178.697 617.462C179.262 616.659 179.722 615.624 179.722 615.161C179.722 614.699 181.292 612.234 183.212 609.684C186.167 605.756 186.632 604.788 186.252 603.356C185.187 599.348 185.264 594.025 186.475 588.097C187.162 584.739 187.985 581.66 188.306 581.257C188.627 580.851 189.227 579.471 189.64 578.19C190.052 576.906 190.63 575.856 190.921 575.856C191.214 575.856 191.647 575.242 191.886 574.493C192.408 572.851 196.276 567.663 199.216 564.663C202.231 561.583 211.129 555.591 213.604 554.969C214.437 554.76 215.442 554.198 215.84 553.72C216.238 553.24 217.301 552.844 218.199 552.844C219.097 552.842 220.674 552.394 221.698 551.849C224.293 550.471 232.347 549.054 239.733 548.675C246.703 548.317 255.954 549.663 260.324 551.673C261.73 552.317 263.314 552.847 263.847 552.847C265.6 552.847 271.396 556.093 274.247 558.673C275.787 560.063 277.841 562.578 278.814 564.26C280.369 566.941 280.59 567.964 280.635 572.672C280.665 575.62 280.585 580.132 280.461 582.697C280.269 586.655 280.441 587.689 281.593 589.538C282.339 590.734 282.956 592.274 282.963 592.958C282.995 595.396 285.553 599.811 288.737 602.928C294.49 608.562 296.674 612.537 296.371 616.816C296.174 619.569 295.157 621.253 293.692 621.253C292.975 621.253 292.883 620.87 293.276 619.542C294.209 616.415 293.816 613.549 292.035 610.527C289.717 606.584 287.926 606.45 287.931 610.214C287.936 613.51 288.973 617.35 290.408 619.388C291.232 620.557 291.339 621.198 290.844 621.972C290.376 622.703 290.411 624.688 290.96 628.813C292.411 639.673 292.49 644.85 291.266 648.611C290.654 650.494 289.398 652.812 288.48 653.76C284.866 657.484 273.744 659.332 268.513 657.076C267.242 656.526 265.538 656.078 264.725 656.078C263.24 656.078 261.188 654.374 261.188 653.143C261.188 651.929 262.817 651.832 267.153 652.785C278.498 655.28 284.408 654.051 287.177 648.616C288.423 646.175 288.57 645.141 288.331 640.531C287.926 632.638 286.747 622.883 285.438 616.589C284.799 613.51 284 609.592 283.662 607.883C281.906 598.965 278.729 588.916 277.667 588.916C277.207 588.916 274.123 591.645 270.814 594.98C264.381 601.465 263.344 603.577 266.013 604.761C269.551 606.331 267.814 609.888 264.098 608.686C260.29 607.453 258.451 607.48 256.329 608.803C253.389 610.639 252.247 613.773 252.7 618.766C253.034 622.435 253.287 623.014 255.441 625.039C259.504 628.86 265.889 628.84 269.573 624.994C272.346 622.101 274.157 622.651 272.978 626.027C272.623 627.054 271.225 628.566 269.754 629.519C267.653 630.882 266.434 631.203 263.364 631.203C259.406 631.203 258.078 631.872 258.078 633.87C258.078 634.937 255.598 640.467 253.449 644.193C252.282 646.218 243.213 655.31 241.288 656.389C240.432 656.867 238.753 657.752 237.556 658.354C236.36 658.956 234.959 659.767 234.447 660.153C230.733 662.949 217.445 665.048 209.261 664.13C203.918 663.531 202.468 664.257 201.453 668.048C200.734 670.732 198.669 676.142 197.714 677.844C194.682 683.244 193.003 685.52 189.781 688.582C185.632 692.528 179.13 695.878 175.623 695.878C172.133 695.878 171.018 697.56 170.996 702.873C170.981 706.022 170.61 708.134 169.772 709.87C169.11 711.239 168.543 712.778 168.508 713.291C168.473 713.803 167.486 715.482 166.309 717.022C165.135 718.562 163.877 720.38 163.513 721.064C162.767 722.475 155.422 728.216 154.367 728.216C153.986 728.216 152.7 728.79 151.511 729.492C150.138 730.303 147.698 730.907 144.817 731.146C139.35 731.606 137.974 732.698 136.509 737.738C135.959 739.626 135.104 741.509 134.606 741.922C134.109 742.332 133.703 743.133 133.703 743.7C133.703 745.193 126.775 751.546 122.97 753.538C119.243 755.494 114.059 756.68 106.065 757.412C100.515 757.919 100.495 757.929 98.0523 760.635C91.6569 767.732 85.6347 773.511 83.5029 774.593C82.2119 775.252 80.4881 776.279 79.6722 776.876C78.8563 777.476 77.1374 777.966 75.8539 777.966C73.5803 777.966 73.4087 777.799 69.3192 771.593C67.0108 768.085 64.6004 764.459 63.9661 763.533C63.3293 762.605 62.8094 761.563 62.8094 761.215C62.8094 760.869 62.2522 759.668 61.5681 758.546C60.006 755.984 59.9985 754.658 61.5358 753.121ZM185.951 635.245C185.175 634.081 184.699 632.328 184.692 630.581C184.675 626.368 184.142 624.984 182.545 624.984C180.697 624.984 179.127 626.825 178.695 629.497C178.187 632.611 181.16 639.156 183.329 639.7C185.048 640.131 186.784 639.325 187.033 637.977C187.122 637.502 186.635 636.27 185.951 635.245ZM203.754 568.1C202.948 566.996 202.818 567.018 200.692 568.643C194.975 573.001 190.072 586.145 192.448 590.737C193.274 592.336 193.801 592.684 195.149 592.53C196.595 592.363 196.896 591.955 197.348 589.538C198.577 582.988 200.301 576.824 201.172 575.861C201.689 575.292 202.109 574.54 202.109 574.192C202.109 573.844 202.669 572.914 203.353 572.125C204.816 570.436 204.895 569.66 203.754 568.1Z" fill="#161416"/>
<path d="M771.67 219.654C771.981 190.572 772.219 183.306 772.881 182.898C773.334 182.62 788.722 182.185 807.074 181.933C825.425 181.682 840.919 181.222 841.499 180.911C843.18 180.01 849.668 180.234 851.106 181.239C852.374 182.127 852.392 182.63 852.81 230.116C853.046 257.004 853.484 278.565 853.802 279.16C854.12 279.754 854.675 306.853 855.066 340.703C855.446 373.968 856.011 401.848 856.319 402.659C856.628 403.468 857.19 428.964 857.566 459.314C857.944 489.662 858.483 514.937 858.767 515.48C859.598 517.074 860.886 590.271 860.528 615.612C860.242 635.934 860.076 638.977 859.21 639.611C858.498 640.131 847.703 640.459 820.962 640.775C784.254 641.208 777.757 641.046 776.864 639.671C775.64 637.793 775.391 630.855 773.605 548.805C773.257 532.728 772.729 511.602 772.436 501.853C771.744 478.777 771.167 266.523 771.67 219.654Z" fill="#339CFE"/>
</svg>
