<?xml version="1.0" encoding="UTF-8" standalone="no"?>
<svg
   version="1.1"
   width="400"
   height="400"
   id="svg33"
   sodipodi:docname="insight.svg"
   inkscape:version="1.4.1 (93de688d, 2025-03-30)"
   xmlns:inkscape="http://www.inkscape.org/namespaces/inkscape"
   xmlns:sodipodi="http://sodipodi.sourceforge.net/DTD/sodipodi-0.dtd"
   xmlns="http://www.w3.org/2000/svg"
   xmlns:svg="http://www.w3.org/2000/svg">
  <defs
     id="defs33" />
  <sodipodi:namedview
     id="namedview33"
     pagecolor="#ffffff"
     bordercolor="#666666"
     borderopacity="1.0"
     inkscape:showpageshadow="2"
     inkscape:pageopacity="0.0"
     inkscape:pagecheckerboard="0"
     inkscape:deskcolor="#d1d1d1"
     showgrid="false"
     inkscape:zoom="1.4961709"
     inkscape:cx="177.78718"
     inkscape:cy="283.0559"
     inkscape:window-width="1504"
     inkscape:window-height="780"
     inkscape:window-x="0"
     inkscape:window-y="30"
     inkscape:window-maximized="0"
     inkscape:current-layer="svg33" />
  <path
     d="M0 0 C1.29550781 0.00322266 2.59101563 0.00644531 3.92578125 0.00976562 C5.28906317 0.01812027 6.65234442 0.02658521 8.015625 0.03515625 C9.39452965 0.04017457 10.77343604 0.0447369 12.15234375 0.04882812 C15.52348159 0.06061532 18.89453128 0.0770699 22.265625 0.09765625 C23.60334156 10.99450624 23.57470381 21.96855456 23.765625 32.9296875 C23.80625626 35.08738418 23.84727993 37.24507351 23.88867188 39.40275574 C23.99686857 45.08769943 24.1006051 50.7727151 24.203125 56.45776367 C24.36556146 65.4304746 24.53405678 74.40307449 24.70336533 83.37565804 C24.74487908 85.57873184 24.78617183 87.78180981 24.8272438 89.98489189 C25.09609204 104.36563597 25.42092696 118.74339665 25.8203125 133.12109375 C26.14137194 144.70162395 26.43217216 156.2769562 26.39599609 167.86303711 C26.39025801 170.05002762 26.39622235 172.2368409 26.40234375 174.42382812 C26.40168814 175.84244836 26.40041792 177.26106849 26.3984375 178.6796875 C26.39730957 179.89889893 26.39618164 181.11811035 26.39501953 182.37426758 C26.265625 185.09765625 26.265625 185.09765625 25.265625 186.09765625 C22.67203178 186.18617154 20.10522809 186.2129157 17.51171875 186.1953125 C16.73627213 186.19389755 15.9608255 186.1924826 15.16188049 186.19102478 C12.67559006 186.1854097 10.1893884 186.17285471 7.703125 186.16015625 C6.02148567 186.15514319 4.33984494 186.15057995 2.65820312 186.14648438 C-1.47269066 186.13543538 -5.60351776 186.1181607 -9.734375 186.09765625 C-10.13558309 177.43326876 -10.45226099 168.7666371 -10.734375 160.09765625 C-10.77044861 158.99883118 -10.77044861 158.99883118 -10.80725098 157.87780762 C-11.8172847 126.48188541 -11.84193388 95.07742559 -11.85731125 63.66859818 C-11.85936762 60.35953783 -11.86312832 57.05048296 -11.86721802 53.74142456 C-11.87313557 48.44911463 -11.87317812 43.15683405 -11.86875725 37.86452293 C-11.86772503 35.89100347 -11.86826581 33.91748245 -11.87051582 31.943964 C-11.88023866 21.60956226 -11.77677237 11.38967716 -10.734375 1.09765625 C-7.07276756 0.09788527 -3.80706342 -0.01669765 0 0 Z "
     fill="#2B7FFF"
     transform="translate(320.734375,71.90234375)"
     id="path1" />
  <path
     d="M0 0 C2.15337555 2.15337555 1.30846399 7.06975465 1.38891602 10.06079102 C1.41832275 11.01415344 1.44772949 11.96751587 1.47802734 12.94976807 C1.57488764 16.13435524 1.66457917 19.31909947 1.75390625 22.50390625 C1.81944874 24.73511084 1.88528489 26.96630683 1.95140076 29.19749451 C2.08980988 33.90623613 2.22470559 38.61506232 2.35717773 43.32397461 C2.52448878 49.26221756 2.70013856 55.20017667 2.87833595 61.13810158 C3.62398579 86.10352293 4.17725517 111.0224349 4 136 C-7.22 136 -18.44 136 -30 136 C-30.59794369 127.6287883 -31.15925656 119.37836519 -31.31640625 111.0078125 C-31.33718735 110.05099579 -31.35796844 109.09417908 -31.37937927 108.10836792 C-31.44368011 105.11396994 -31.50319098 102.11950056 -31.5625 99.125 C-31.6057995 97.06900365 -31.64941695 95.01301396 -31.69335938 92.95703125 C-31.79923472 87.97142341 -31.90082085 82.98574536 -32 78 C-31.24323975 77.65219482 -31.24323975 77.65219482 -30.47119141 77.29736328 C-28.18699923 76.24445645 -25.90599306 75.18481832 -23.625 74.125 C-22.8309375 73.76019531 -22.036875 73.39539063 -21.21875 73.01953125 C-20.45820313 72.66503906 -19.69765625 72.31054688 -18.9140625 71.9453125 C-18.2123291 71.62062988 -17.5105957 71.29594727 -16.78759766 70.96142578 C-14.51753152 69.7405134 -13.22819387 68.67434214 -12.390625 66.19921875 C-11.04565764 58.6270525 -11.49859971 50.91910177 -15 44 C-19.96290437 37.99227365 -24.39029824 35.96235104 -32 35 C-32.0291189 30.45834687 -32.0468389 25.9167179 -32.0625 21.375 C-32.07087891 20.08980469 -32.07925781 18.80460937 -32.08789062 17.48046875 C-32.09111328 16.23652344 -32.09433594 14.99257812 -32.09765625 13.7109375 C-32.10289307 12.56931152 -32.10812988 11.42768555 -32.11352539 10.25146484 C-32.00283445 7.08118114 -31.59566756 4.11231146 -31 1 C-26.95841399 0.83133892 -22.91671968 0.66542437 -18.875 0.5 C-17.73289062 0.45230469 -16.59078125 0.40460938 -15.4140625 0.35546875 C-14.30546875 0.31035156 -13.196875 0.26523438 -12.0546875 0.21875 C-10.53077393 0.1559082 -10.53077393 0.1559082 -8.97607422 0.09179688 C-5.9771381 -0.00070517 -2.99963398 -0.08512696 0 0 Z "
     fill="#2B7FFF"
     transform="translate(296,123)"
     id="path2" />
  <path
     d="M0 0 C1.97391222 1.64492685 2.8563446 2.71268921 4 5 C3.95875 6.051875 3.9175 7.10375 3.875 8.1875 C4.03330826 13.01590179 5.11877626 17.18845121 8.6875 20.625 C10 22 10 22 10.25 24.625 C10 27 10 27 9 28 C8.75579878 30.77665837 8.61611813 33.55216999 8.4765625 36.3359375 C7.94520223 39.30632852 7.45138655 40.2869134 5 42 C1.8125 42.1875 1.8125 42.1875 -1 42 C-1 43.98 -1 45.96 -1 48 C-0.17757812 48.08636719 0.64484375 48.17273438 1.4921875 48.26171875 C14.278728 49.87111011 23.30762101 54.34180112 32 64 C36.94070349 70.88291107 40.81272654 78.1646194 44 86 C47.4973837 81.89017123 50.18381123 77.52694156 52.875 72.875 C53.31118652 72.12742432 53.74737305 71.37984863 54.19677734 70.60961914 C57.57369932 64.79783764 60.84602924 58.93613195 64 53 C65.39572052 52.97263293 66.79160221 52.95344011 68.1875 52.9375 C69.35345703 52.92009766 69.35345703 52.92009766 70.54296875 52.90234375 C73.12112711 53.00481427 75.48655731 53.43302447 78 54 C78.89189884 77.35453622 76.33727871 106.5626718 59.73828125 124.50390625 C53.78145795 129.63079012 47.48318864 133.15245473 39.5625 133.125 C38.82128906 133.12757813 38.08007812 133.13015625 37.31640625 133.1328125 C34.80356914 132.98873752 32.45442369 132.54542749 30 132 C29.76925781 133.01578125 29.53851563 134.0315625 29.30078125 135.078125 C26.62694646 146.50497186 23.70726076 157.83460882 16 167 C15.34 167 14.68 167 14 167 C14.62085307 162.65402849 16.29781091 159.12504131 18.25 155.25 C22.21826335 147.11737025 24.68283915 138.7240572 27 130 C26.18208984 129.52433594 26.18208984 129.52433594 25.34765625 129.0390625 C11.80106194 120.65638363 2.05184386 106.05582415 -3 91 C-3 90.01 -3 89.02 -3 88 C-2.01 88 -1.02 88 0 88 C0.49628906 89.02738281 0.99257812 90.05476563 1.50390625 91.11328125 C12.38360044 113.51861439 12.38360044 113.51861439 32 128 C38.74835631 130.00661352 44.8507049 129.27491195 51 126 C63.29367694 117.945522 67.70435956 103.99783591 70.8359375 90.359375 C73.09101512 79.32958941 74.07676511 68.20915777 75 57 C72.03 56.67 69.06 56.34 66 56 C65.72978027 56.88300781 65.45956055 57.76601563 65.18115234 58.67578125 C64.07328975 61.79373433 62.79288606 64.35451965 61.1015625 67.1875 C60.53953125 68.13367188 59.9775 69.07984375 59.3984375 70.0546875 C58.81320313 71.02664063 58.22796875 71.99859375 57.625 73 C57.0475 73.97195313 56.47 74.94390625 55.875 75.9453125 C53.53606487 79.86489785 51.21091761 83.7542964 48.578125 87.484375 C46.69291409 89.96461396 46.69291409 89.96461396 47.125 93.25 C47.558125 95.10625 47.558125 95.10625 48 97 C48.38308378 98.76910218 48.75775686 100.54004177 49.125 102.3125 C49.31320313 103.15425781 49.50140625 103.99601562 49.6953125 104.86328125 C50 107 50 107 49 109 C48.34 109 47.68 109 47 109 C46.6596875 107.741875 46.319375 106.48375 45.96875 105.1875 C40.86472075 86.9291257 34.06828464 68.42295117 18 57 C4.39885244 50.00275818 -11.14577572 50.73342369 -26 51 C-26 50.01 -26 49.02 -26 48 C-21.37540756 46.82299952 -16.92133538 46.88591588 -12.1875 46.9375 C-11.39923828 46.94201172 -10.61097656 46.94652344 -9.79882812 46.95117188 C-7.86585239 46.96288688 -5.93291607 46.98082002 -4 47 C-4 45.02 -4 43.04 -4 41 C-4.66 41 -5.32 41 -6 41 C-6 40.01 -6 39.02 -6 38 C-2.7 38 0.6 38 4 38 C4.34659834 30.14377105 3.1771346 23.54221628 1 16 C-1.35953094 18.35953094 -1.49141413 19.77895617 -2 23 C-3.65 22.67 -5.3 22.34 -7 22 C-7 23.65 -7 25.3 -7 27 C-3.94736336 27.98120464 -2.05263664 27.98120464 1 27 C0.3125 28.9375 0.3125 28.9375 -1 31 C-3.625 31.75 -3.625 31.75 -6 32 C-6.0928125 32.804375 -6.0928125 32.804375 -6.1875 33.625 C-7.87310434 38.55215115 -10.8715046 41.34894496 -15.25 43.875 C-19.65742459 45.19722738 -23.44343109 45.27897361 -28 45 C-28.2475 45.886875 -28.495 46.77375 -28.75 47.6875 C-30.07356898 51.19495779 -31.3940536 53.31959799 -34 56 C-34.825 56.2475 -35.65 56.495 -36.5 56.75 C-40.10207644 58.55103822 -40.52050754 61.18202275 -41.9765625 64.8046875 C-43.41327312 67.88648662 -45.06670629 69.32383217 -48 71 C-51.3125 71.75 -51.3125 71.75 -54 72 C-54.309375 73.36125 -54.309375 73.36125 -54.625 74.75 C-56.37554064 78.88764151 -58.02746348 79.97625498 -62 82 C-63.11375 82.103125 -64.2275 82.20625 -65.375 82.3125 C-69.95749805 83.18159446 -71.86348266 85.18407237 -75.10546875 88.40625 C-77.11027039 90.09276355 -78.44281768 90.59175803 -81 91 C-81.8722879 89.78362621 -82.72220494 88.55119108 -83.5625 87.3125 C-84.03816406 86.62800781 -84.51382813 85.94351563 -85.00390625 85.23828125 C-86.25659681 82.42341188 -85.84953408 80.90469438 -85 78 C-84.13117188 77.87625 -83.26234375 77.7525 -82.3671875 77.625 C-75.66006536 76.61089079 -75.66006536 76.61089079 -70.046875 73.16015625 C-69.1042848 71.76957675 -68.19827513 70.35344055 -67.33203125 68.9140625 C-65.83283582 66.7597934 -64.65673117 66.05380056 -62.3125 64.9375 C-58.1426498 62.49853101 -57.70533773 60.41837503 -56 56 C-53.28528652 52.79803025 -51.29298926 50.47699881 -47 50 C-47.226875 49.13375 -47.45375 48.2675 -47.6875 47.375 C-48.07298955 43.21171284 -47.33977382 41.43166826 -45 38 C-42.3125 36.625 -42.3125 36.625 -40 36 C-40.03480469 35.33613281 -40.06960937 34.67226563 -40.10546875 33.98828125 C-40.13253906 33.10527344 -40.15960938 32.22226563 -40.1875 31.3125 C-40.23970703 30.00732422 -40.23970703 30.00732422 -40.29296875 28.67578125 C-39.9403057 25.45479206 -38.67192236 23.74703193 -37 21 C-36.40109903 18.12184143 -36.40109903 18.12184143 -36.125 15.125 C-35.29608906 9.63936178 -34.09516332 5.83787557 -30 2 C-21.32306428 -4.34233418 -9.38518418 -5.39148878 0 0 Z M-32 11 C-31 14 -31 14 -31 14 Z M-37 31 C-36 33 -36 33 -36 33 Z "
     fill="#000000"
     transform="translate(110,223)"
     id="path3" />
  <path
     d="M0 0 C1.05824235 3.17472706 1.19387315 5.60189865 1.29711914 8.94018555 C1.3570681 10.77174446 1.3570681 10.77174446 1.41822815 12.64030457 C1.45681442 13.95912125 1.4954007 15.27793793 1.53515625 16.63671875 C1.5781746 18.00007858 1.62159121 19.36342589 1.66539001 20.72676086 C1.77950397 24.31215084 1.88820688 27.89768524 1.99578857 31.48327637 C2.10655868 35.14325026 2.22243881 38.80306195 2.33789062 42.46289062 C2.56359887 49.64177801 2.78359164 56.82082562 3 64 C-1.94594023 66.14083676 -6.8938786 68.27695968 -11.84375 70.40869141 C-13.52823102 71.13492889 -15.21215332 71.86246371 -16.89550781 72.59130859 C-19.31170141 73.63718745 -21.7298494 74.67842261 -24.1484375 75.71875 C-25.28132706 76.21091003 -25.28132706 76.21091003 -26.43710327 76.7130127 C-31.77225659 79 -31.77225659 79 -34 79 C-34.80269604 72.8794427 -35.08120553 66.85659324 -35.0625 60.6875 C-35.06117065 59.87137741 -35.05984131 59.05525482 -35.05847168 58.21440125 C-35.01745044 47.07823836 -34.74950287 35.94551905 -34.5 24.8125 C-34.45163541 22.58659261 -34.40345725 20.36068116 -34.35546875 18.13476562 C-34.23912086 12.75646189 -34.12050063 7.37821222 -34 2 C-30.48740075 1.66469132 -26.97423544 1.33571288 -23.4609375 1.0078125 C-22.47343506 0.91346924 -21.48593262 0.81912598 -20.46850586 0.72192383 C-13.61418596 0.08636735 -6.8855861 -0.26147795 0 0 Z "
     fill="#2B7FFF"
     transform="translate(249,100)"
     id="path4" />
  <path
     d="M0 0 C0.75015275 5.34037317 1.16012207 10.53998975 1.125 15.9375 C1.12306641 16.68241699 1.12113281 17.42733398 1.11914062 18.19482422 C1.0396132 29.13647186 0.49930611 40.07103909 0 51 C-9.20942734 51.76646963 -18.26347202 52.11781466 -27.5 51.625 C-28.33055908 51.58189697 -29.16111816 51.53879395 -30.0168457 51.49438477 C-35.8645388 51.1354612 -35.8645388 51.1354612 -37 50 C-37.08843793 47.55169574 -37.11528752 45.13179401 -37.09765625 42.68359375 C-37.0962413 41.95253922 -37.09482635 41.22148468 -37.09336853 40.46827698 C-37.08775408 38.12464368 -37.07519922 35.78110461 -37.0625 33.4375 C-37.05748686 31.85221492 -37.05292363 30.26692834 -37.04882812 28.68164062 C-37.03777997 24.7877239 -37.02050572 20.89387795 -37 17 C-28.10718588 12.46436387 -19.16764472 8.09698677 -10.0625 4 C-9.18045898 3.60240479 -8.29841797 3.20480957 -7.38964844 2.79516602 C-1.13271521 0 -1.13271521 0 0 0 Z "
     fill="#2B7FFF"
     transform="translate(253,207)"
     id="path5" />
  <path
     d="M0 0 C10.56 0 21.12 0 32 0 C32.33 12.54 32.66 25.08 33 38 C26.67233307 41.34462395 20.34213521 44.68304793 14 48 C13.33033203 48.350625 12.66066406 48.70125 11.97070312 49.0625 C10.31762384 49.92403969 8.65906159 50.77503741 7 51.625 C6.0925 52.09164062 5.185 52.55828125 4.25 53.0390625 C2 54 2 54 -1 54 C-1.02546371 47.59538629 -1.0429145 41.19078576 -1.05493164 34.78613281 C-1.05994424 32.60969556 -1.06675603 30.43326164 -1.07543945 28.25683594 C-1.08764004 25.11913221 -1.09325918 21.98147321 -1.09765625 18.84375 C-1.10281754 17.87884644 -1.10797882 16.91394287 -1.11329651 15.9197998 C-1.11340981 14.53927429 -1.11340981 14.53927429 -1.11352539 13.13085938 C-1.115746 12.33143921 -1.11796661 11.53201904 -1.12025452 10.70837402 C-0.96105895 7.12296911 -0.4451529 3.56122317 0 0 Z "
     fill="#2B7FFF"
     transform="translate(172,145)"
     id="path6" />
  <path
     d="M0 0 C1.19388403 25.76376337 1.19388403 25.76376337 1 38 C-6.87210459 42.25274616 -14.77211409 46.44855748 -22.75 50.5 C-23.42869141 50.84998047 -24.10738281 51.19996094 -24.80664062 51.56054688 C-27.73118279 53.03318868 -29.67906749 54 -33 54 C-33.02487768 47.91683239 -33.04294361 41.83369497 -33.05493164 35.75048828 C-33.05993387 33.68472782 -33.06673776 31.61897085 -33.07543945 29.55322266 C-33.08768625 26.56932712 -33.09326956 23.58547875 -33.09765625 20.6015625 C-33.10281754 19.69072906 -33.10797882 18.77989563 -33.11329651 17.84146118 C-33.11381176 11.8373137 -32.70735635 5.96192475 -32 0 C-27.41701735 -0.19683437 -22.83360802 -0.38085996 -18.25 -0.5625 C-16.29707031 -0.64661133 -16.29707031 -0.64661133 -14.3046875 -0.73242188 C-12.42910156 -0.80493164 -12.42910156 -0.80493164 -10.515625 -0.87890625 C-9.36352539 -0.9260376 -8.21142578 -0.97316895 -7.02441406 -1.02172852 C-4.43687478 -1.00313867 -2.44649046 -0.77962196 0 0 Z "
     fill="#2B7FFF"
     transform="translate(164,164)"
     id="path7" />
  <path
     d="M0 0 C0 0.99 0 1.98 0 3 C-7.47562719 4.80926182 -14.95151126 6.61745878 -22.42772198 8.42430782 C-25.89945062 9.26338963 -29.37109077 10.10283389 -32.8425293 10.94311523 C-36.83616313 11.90977992 -40.83018029 12.87485224 -44.82421875 13.83984375 C-46.06709152 14.14091537 -47.30996429 14.441987 -48.59049988 14.75218201 C-49.75132584 15.032397 -50.91215179 15.312612 -52.1081543 15.60131836 C-53.12741501 15.84780624 -54.14667572 16.09429413 -55.19682312 16.34825134 C-57.0549606 16.78027496 -58.92769148 17.1539712 -60.80964661 17.46632385 C-61.53246323 17.64243698 -62.25527985 17.81855011 -63 18 C-63.309375 18.639375 -63.61875 19.27875 -63.9375 19.9375 C-64.288125 20.618125 -64.63875 21.29875 -65 22 C-65.90492188 22.17660156 -66.80984375 22.35320313 -67.7421875 22.53515625 C-72.74690757 24.78548002 -73.94993688 28.66866977 -76.1875 33.5 C-76.65091797 34.46454102 -77.11433594 35.42908203 -77.59179688 36.42285156 C-90.63912102 61.17944051 -90.63912102 61.17944051 -96 88 C-96.66 88.66 -97.32 89.32 -98 90 C-100.9375 90 -100.9375 90 -104 89 C-104.391875 88.10410156 -104.78375 87.20820312 -105.1875 86.28515625 C-107.64502816 81.83088646 -110.80803178 80.06606538 -115.0625 77.4375 C-116.69466093 76.38975425 -118.32481293 75.33887359 -119.953125 74.28515625 C-120.78908203 73.74648926 -121.62503906 73.20782227 -122.48632812 72.65283203 C-126.51052437 70.00677448 -130.41612798 67.20476739 -134.3125 64.375 C-135.05725586 63.83423828 -135.80201172 63.29347656 -136.56933594 62.73632812 C-152.6895532 50.96465512 -152.6895532 50.96465512 -158.54296875 45.72265625 C-160.87138769 43.8682021 -160.87138769 43.8682021 -163.54296875 43.37890625 C-167.24131039 44.31378116 -168.44589143 46.84194669 -170.3125 49.9375 C-170.92786621 50.90852661 -170.92786621 50.90852661 -171.55566406 51.89916992 C-172.49993667 53.39097767 -173.43671057 54.88754702 -174.36767578 56.38769531 C-176.21666615 59.34674362 -178.10376883 62.27941788 -179.99609375 65.2109375 C-187.8050284 77.3179731 -187.8050284 77.3179731 -195.43359375 89.5390625 C-195.91111084 90.31588379 -196.38862793 91.09270508 -196.88061523 91.89306641 C-198.28973952 94.54535486 -198.77070129 97.01911672 -199 100 C-199.33 100.33 -199.66 100.66 -200 101 C-202.33944736 100.71269945 -204.6739143 100.38063221 -207 100 C-207.34224609 98.64648438 -207.34224609 98.64648438 -207.69140625 97.265625 C-209.2070076 93.4834079 -210.70331261 92.16258032 -213.9375 89.75 C-214.81277344 89.08484375 -215.68804687 88.4196875 -216.58984375 87.734375 C-220.67680887 84.51981999 -220.67680887 84.51981999 -225.75 84.4375 C-229.97331299 85.64854075 -232.12663905 87.76688668 -235.04296875 90.953125 C-238.97412958 95.06475828 -243.54776585 98.47460386 -248 102 C-248.85827393 102.6815918 -248.85827393 102.6815918 -249.73388672 103.37695312 C-251.50480147 104.77902775 -253.28221435 106.17234939 -255.0625 107.5625 C-255.90288818 108.22536011 -255.90288818 108.22536011 -256.76025391 108.90161133 C-260.76775801 112 -260.76775801 112 -263 112 C-261.5045292 108.40278644 -259.47293692 106.36902779 -256.5625 103.8125 C-255.66660156 103.02488281 -254.77070313 102.23726563 -253.84765625 101.42578125 C-251.09357737 99.07971405 -248.30818783 96.78090363 -245.5 94.5 C-241.78344376 91.47071589 -238.07472696 88.43685179 -234.4375 85.3125 C-233.22900391 84.28576172 -233.22900391 84.28576172 -231.99609375 83.23828125 C-229.66916702 80.62902682 -228.99553352 78.31535813 -228 75 C-226.125 73.9375 -226.125 73.9375 -224 74 C-221.29321522 75.43300371 -220.20923709 76.39084177 -219.20703125 79.30859375 C-217.66205251 82.75354635 -215.67928129 84.49777027 -212.8125 86.9375 C-211.89082031 87.75089844 -210.96914062 88.56429687 -210.01953125 89.40234375 C-207.06175851 91.2877769 -207.06175851 91.2877769 -203.55859375 90.8828125 C-198.27807776 88.89096921 -195.95892291 83.5607593 -193.25 78.9375 C-192.02809436 76.93313597 -190.80542912 74.92923482 -189.58203125 72.92578125 C-188.98084473 71.92627441 -188.3796582 70.92676758 -187.76025391 69.89697266 C-185.23969197 65.74870803 -182.59657525 61.68531723 -179.9375 57.625 C-178.69235326 55.71347958 -177.44989603 53.80045339 -176.21533203 51.88208008 C-175.35550926 50.55054657 -174.48567941 49.22545016 -173.60888672 47.9050293 C-173.15658691 47.21062744 -172.70428711 46.51622559 -172.23828125 45.80078125 C-171.82747314 45.17856689 -171.41666504 44.55635254 -170.9934082 43.9152832 C-169.32565848 40.69987486 -169.25141345 37.58264167 -169 34 C-168 33 -168 33 -165.625 32.75 C-163 33 -163 33 -161.1875 34.1875 C-159.63321794 36.55982525 -159.77462812 38.22041345 -160 41 C-159.43120117 41.26176025 -158.86240234 41.52352051 -158.27636719 41.79321289 C-155.81926103 43.09581647 -153.77158609 44.59953365 -151.578125 46.30859375 C-150.72557129 46.96778809 -149.87301758 47.62698242 -148.99462891 48.30615234 C-147.6360376 49.36116943 -147.6360376 49.36116943 -146.25 50.4375 C-137.97703757 56.80033333 -129.60320078 62.90922456 -120.92480469 68.70458984 C-118.87685592 70.08287703 -116.84808289 71.48674907 -114.8203125 72.89453125 C-113.46378869 73.82588073 -112.10702617 74.75688264 -110.75 75.6875 C-109.81921631 76.33984619 -109.81921631 76.33984619 -108.86962891 77.00537109 C-105.52697612 79.27244073 -104.16752871 80 -100 80 C-99.83636963 79.40356689 -99.67273926 78.80713379 -99.50415039 78.19262695 C-97.62508414 71.614938 -95.20807343 65.43630358 -92.4375 59.1875 C-91.78865845 57.71047607 -91.78865845 57.71047607 -91.12670898 56.20361328 C-88.03517735 49.21517897 -84.83790525 42.2790345 -81.5625 35.375 C-81.14991943 34.50512451 -80.73733887 33.63524902 -80.31225586 32.73901367 C-78.73770079 29.45833869 -77.16168672 26.26886402 -75.28515625 23.1484375 C-73.55621278 20.25810647 -72.87143014 17.23674052 -72 14 C-71 13 -71 13 -69.13397217 12.99339294 C-68.32502502 13.0283638 -67.51607788 13.06333466 -66.68261719 13.09936523 C-60.54800225 13.15368936 -55.0067555 11.8813453 -49.078125 10.41015625 C-47.97450623 10.14617538 -46.87088745 9.88219452 -45.73382568 9.61021423 C-42.23656757 8.77155127 -38.74327022 7.91760585 -35.25 7.0625 C-31.74173544 6.21420789 -28.2327269 5.3690821 -24.72332764 4.52549744 C-22.54773195 4.00140093 -20.37292606 3.47401179 -18.19903564 2.94288635 C-6.08888277 0 -6.08888277 0 0 0 Z "
     fill="#000000"
     transform="translate(376,28)"
     id="path8" />
  <path
     d="M0 0 C5.01240103 3.36006257 9.06242025 7.18726076 11 13 C12.20896572 19.16777427 12.37577207 24.05468417 10 30 C7.59688898 31.67819124 5.69621989 32.74487186 3.0546875 33.875 C2.34553192 34.20322754 1.63637634 34.53145508 0.9057312 34.86962891 C-0.61200992 35.57117653 -2.13436482 36.26281358 -3.6607666 36.9453125 C-6.73269453 38.33034915 -9.76390462 39.79403605 -12.7986908 41.25823975 C-16.81444879 43.19252713 -20.84568447 45.09415859 -24.875 47 C-25.72830902 47.40375854 -26.58161804 47.80751709 -27.46078491 48.22351074 C-34.78673679 51.68972069 -34.78673679 51.68972069 -38.07591248 53.24432373 C-43.2616757 55.69708376 -48.43935134 58.1658546 -53.60943604 60.65148926 C-56.76207214 62.16609336 -59.9182353 63.67324797 -63.07501221 65.17919922 C-64.56083647 65.89027429 -66.04502911 66.60476927 -67.52752686 67.32275391 C-69.57277785 68.31271555 -71.62342117 69.29050803 -73.67578125 70.265625 C-74.82989502 70.82024414 -75.98400879 71.37486328 -77.1730957 71.94628906 C-80 73 -80 73 -83 72 C-82 69 -82 69 -78.75415039 67.16918945 C-77.2903195 66.4732695 -75.82099303 65.78884339 -74.34765625 65.11328125 C-73.55292404 64.73891434 -72.75819183 64.36454742 -71.93937683 63.97883606 C-69.31822214 62.74691884 -66.69052339 61.52968666 -64.0625 60.3125 C-62.24858243 59.46366964 -60.43510942 58.61388866 -58.62207031 57.76318359 C-54.9061319 56.02117948 -51.18768391 54.28470272 -47.46728516 52.55224609 C-42.36848305 50.17569627 -37.28184604 47.77419303 -32.19921875 45.36328125 C-29.93432881 44.29044022 -27.66931483 43.21786151 -25.40426636 42.14535522 C-23.98780514 41.47445694 -22.57155929 40.8031037 -21.1555481 40.1312561 C2.33040707 29 2.33040707 29 7 29 C7.96898372 17.18264768 7.96898372 17.18264768 3 7 C0.4880758 4.98848484 -1.85497341 3.73418775 -5 3 C-8.91001333 3.66282897 -12.25689385 5.35026755 -15.8125 7.0625 C-18.12496761 8.10944654 -20.43747029 9.15631562 -22.75 10.203125 C-24.05621709 10.80745121 -25.36219664 11.41229104 -26.66796875 12.01757812 C-31.4981004 14.24354609 -36.37263041 16.36439458 -41.25 18.484375 C-69.0263912 30.57854353 -96.44229096 43.06359692 -122.90966797 57.85302734 C-125.57161494 59.31364716 -128.26955268 60.67251423 -131 62 C-130.62488281 62.46148437 -130.24976563 62.92296875 -129.86328125 63.3984375 C-123.89130831 71.01007052 -119.07921655 78.05553874 -120 88 C-119.32453125 87.6390625 -118.6490625 87.278125 -117.953125 86.90625 C-116.61507812 86.21015625 -116.61507812 86.21015625 -115.25 85.5 C-114.36828125 85.0359375 -113.4865625 84.571875 -112.578125 84.09375 C-110 83 -110 83 -106 83 C-106 83.99 -106 84.98 -106 86 C-106.97582031 86.40992188 -107.95164063 86.81984375 -108.95703125 87.2421875 C-110.24225575 87.78629714 -111.52740825 88.33057689 -112.8125 88.875 C-113.45509766 89.14441406 -114.09769531 89.41382813 -114.75976562 89.69140625 C-117.71490408 90.94695731 -120.31915767 92.21277178 -123 94 C-128.44444444 93.55555556 -128.44444444 93.55555556 -131 91 C-131 90.01 -131 89.02 -131 88 C-128.61435923 88.57584432 -126.33317216 89.22227595 -124 90 C-122.31324578 84.91647178 -124.06599508 80.80698325 -126 76 C-127.68096329 72.68751353 -129.43721223 69.70414057 -132 67 C-135.20287857 65.79205082 -135.20287857 65.79205082 -138 66 C-138.66 67.65 -139.32 69.3 -140 71 C-140.66 70.67 -141.32 70.34 -142 70 C-142.0625 67.375 -142.0625 67.375 -141 64 C-134.11463775 57.93952643 -124.90441687 54.06135762 -116.8125 49.8125 C-116.10081665 49.43739288 -115.3891333 49.06228577 -114.65588379 48.67581177 C-110.39746996 46.43137256 -106.13369213 44.19745798 -101.86505127 41.97253418 C-100.22395505 41.11678174 -98.58427639 40.25831197 -96.94482422 39.39941406 C-79.04130527 30.05930258 -60.49615285 22.07803906 -42 14 C-41.25711731 13.67547852 -40.51423462 13.35095703 -39.74884033 13.01660156 C-19.9368179 4.36636626 -19.9368179 4.36636626 -12 1 C-11.12400146 0.62020996 -10.24800293 0.24041992 -9.34545898 -0.15087891 C-5.75304477 -1.45143232 -3.66949642 -1.05731253 0 0 Z "
     fill="#000000"
     transform="translate(272,161)"
     id="path9" />
  <path
     d="M0 0 C11.8667665 8.41884682 18.75378756 19.18720822 24.19140625 32.5546875 C27.68878995 28.44485873 30.37521748 24.08162906 33.06640625 19.4296875 C33.50259277 18.68211182 33.9387793 17.93453613 34.38818359 17.16430664 C37.76510557 11.35252514 41.03743549 5.49081945 44.19140625 -0.4453125 C45.58712677 -0.47267957 46.98300846 -0.49187239 48.37890625 -0.5078125 C49.15621094 -0.51941406 49.93351562 -0.53101563 50.734375 -0.54296875 C53.31253336 -0.44049823 55.67796356 -0.01228803 58.19140625 0.5546875 C59.08330509 23.90922372 56.52868496 53.1173593 39.9296875 71.05859375 C33.9728642 76.18547762 27.67459489 79.70714223 19.75390625 79.6796875 C18.64208984 79.68355469 18.64208984 79.68355469 17.5078125 79.6875 C14.99497539 79.54342502 12.64582994 79.10011499 10.19140625 78.5546875 C9.96066406 79.57046875 9.72992188 80.58625 9.4921875 81.6328125 C6.81835271 93.05965936 3.89866701 104.38929632 -3.80859375 113.5546875 C-4.46859375 113.5546875 -5.12859375 113.5546875 -5.80859375 113.5546875 C-5.18774068 109.20871599 -3.51078284 105.67972881 -1.55859375 101.8046875 C2.4096696 93.67205775 4.8742454 85.2787447 7.19140625 76.5546875 C6.37349609 76.07902344 6.37349609 76.07902344 5.5390625 75.59375 C-8.00753181 67.21107113 -17.75674989 52.61051165 -22.80859375 37.5546875 C-22.80859375 36.5646875 -22.80859375 35.5746875 -22.80859375 34.5546875 C-21.81859375 34.5546875 -20.82859375 34.5546875 -19.80859375 34.5546875 C-19.31230469 35.58207031 -18.81601563 36.60945313 -18.3046875 37.66796875 C-7.42499331 60.07330189 -7.42499331 60.07330189 12.19140625 74.5546875 C18.93976256 76.56130102 25.04211115 75.82959945 31.19140625 72.5546875 C43.48508319 64.5002095 47.89576581 50.55252341 51.02734375 36.9140625 C53.28242137 25.88427691 54.26817136 14.76384527 55.19140625 3.5546875 C52.22140625 3.2246875 49.25140625 2.8946875 46.19140625 2.5546875 C45.78607666 3.87919922 45.78607666 3.87919922 45.37255859 5.23046875 C44.264696 8.34842183 42.98429231 10.90920715 41.29296875 13.7421875 C40.7309375 14.68835938 40.16890625 15.63453125 39.58984375 16.609375 C38.71199219 18.06730469 38.71199219 18.06730469 37.81640625 19.5546875 C37.23890625 20.52664063 36.66140625 21.49859375 36.06640625 22.5 C33.72747112 26.41958535 31.40232386 30.3089839 28.76953125 34.0390625 C26.88432034 36.51930146 26.88432034 36.51930146 27.31640625 39.8046875 C27.60515625 41.0421875 27.89390625 42.2796875 28.19140625 43.5546875 C28.57449003 45.32378968 28.94916311 47.09472927 29.31640625 48.8671875 C29.50460938 49.70894531 29.6928125 50.55070312 29.88671875 51.41796875 C30.19140625 53.5546875 30.19140625 53.5546875 29.19140625 55.5546875 C28.53140625 55.5546875 27.87140625 55.5546875 27.19140625 55.5546875 C26.85109375 54.2965625 26.51078125 53.0384375 26.16015625 51.7421875 C21.056127 33.4838132 14.25969089 14.97763867 -1.80859375 3.5546875 C-15.40974131 -3.44255432 -30.95436947 -2.71188881 -45.80859375 -2.4453125 C-45.80859375 -3.4353125 -45.80859375 -4.4253125 -45.80859375 -5.4453125 C-32.210593 -8.55629422 -12.23523051 -7.19218767 0 0 Z "
     fill="#2B7FFF"
     transform="translate(129.80859375,276.4453125)"
     id="path10" />
  <path
     d="M0 0 C0.99 0 1.98 0 3 0 C2.35083384 6.62006316 1.31226272 13.06360419 0.0222168 19.58666992 C-0.17632904 20.60603134 -0.37487488 21.62539276 -0.57943726 22.67564392 C-1.23319768 26.0279172 -1.89202024 29.3791749 -2.55078125 32.73046875 C-3.01095226 35.08621863 -3.47075945 37.44203961 -3.93022156 39.79792786 C-5.14048113 45.99933852 -6.35483582 52.19993963 -7.5703125 58.40032959 C-9.50554018 68.27524263 -11.43505331 78.15127243 -13.36360741 88.02749062 C-14.03116641 91.44262219 -14.70077209 94.8573473 -15.37068176 98.27201843 C-18.02504368 111.82875337 -20.5667368 125.40182929 -23 139 C-23.99 139 -24.98 139 -26 139 C-25.50298814 127.95075081 -23.31177131 117.25371047 -21.2109375 106.42578125 C-20.82511708 104.41457182 -20.4397609 102.40327328 -20.05484009 100.39189148 C-19.24666356 96.17594838 -18.43430055 91.96084171 -17.61865234 87.74633789 C-16.59375205 82.44994939 -15.57700954 77.15203909 -14.5631218 71.85353279 C-9.96678395 47.84523968 -5.21228787 23.8827539 0 0 Z "
     fill="#000000"
     transform="translate(204,234)"
     id="path11" />
  <path
     d="M0 0 C0.66 0 1.32 0 2 0 C3.83550488 7.58855704 4.9373705 15.18871735 5.953125 22.92578125 C6.13564455 24.29652111 6.31841561 25.6672275 6.50141907 27.03790283 C6.98938491 30.70355155 7.47156203 34.36993742 7.95177078 38.03660965 C8.25071699 40.31797157 8.55087569 42.59917127 8.85128784 44.88034058 C11.5542438 65.4252963 14.15704944 85.98032993 16.5625 106.5625 C16.75410706 108.17809311 16.75410706 108.17809311 16.94958496 109.82632446 C17.30818479 112.86390871 17.65771489 115.90238569 18.00390625 118.94140625 C18.10657303 119.8062262 18.20923981 120.67104614 18.3150177 121.56207275 C18.99925743 127.72418765 19.1057233 133.80304808 19 140 C18.34 140 17.68 140 17 140 C15.60867773 133.45440666 14.5141482 126.94024806 13.71899414 120.29711914 C13.55022011 118.92620872 13.55022011 118.92620872 13.3780365 117.52760315 C13.01003878 114.53056082 12.64750457 111.53288641 12.28515625 108.53515625 C12.02645066 106.41691073 11.76744742 104.29870154 11.50816345 102.18052673 C10.96542034 97.74018045 10.42519221 93.29953822 9.88696289 88.85864258 C9.20698417 83.24854125 8.52247058 77.63900597 7.83631325 72.02965736 C3.15076194 33.71652723 3.15076194 33.71652723 1.12109375 15.68359375 C1.00121597 14.62962906 0.8813382 13.57566437 0.75782776 12.48976135 C0.65397263 11.5475322 0.55011749 10.60530304 0.44311523 9.63452148 C0.35601791 8.84818832 0.26892059 8.06185516 0.17918396 7.25169373 C-0.01385979 4.82583265 -0.0304784 2.43251188 0 0 Z "
     fill="#000000"
     transform="translate(208,233)"
     id="path12" />
  <path
     d="M0 0 C2.5625 1.4375 2.5625 1.4375 3.890625 4.22265625 C5.77319634 7.84264739 7.73515126 9.73287323 10.875 12.3125 C11.79925781 13.09367187 12.72351563 13.87484375 13.67578125 14.6796875 C16.98680265 16.69587103 18.76324096 16.69507688 22.5625 16.4375 C24.5 17.5625 24.5 17.5625 25.5625 19.4375 C25.12771739 24.87228261 25.12771739 24.87228261 23.5625 26.4375 C21.22305264 26.15019945 18.8885857 25.81813221 16.5625 25.4375 C16.22025391 24.08398438 16.22025391 24.08398438 15.87109375 22.703125 C14.3554924 18.9209079 12.85918739 17.60008032 9.625 15.1875 C8.74972656 14.52234375 7.87445313 13.8571875 6.97265625 13.171875 C2.88569113 9.95731999 2.88569113 9.95731999 -2.1875 9.875 C-6.41081299 11.08604075 -8.56413905 13.20438668 -11.48046875 16.390625 C-15.41162958 20.50225828 -19.98526585 23.91210386 -24.4375 27.4375 C-25.00968262 27.89189453 -25.58186523 28.34628906 -26.17138672 28.81445312 C-27.94230147 30.21652775 -29.71971435 31.60984939 -31.5 33 C-32.06025879 33.44190674 -32.62051758 33.88381348 -33.19775391 34.33911133 C-37.20525801 37.4375 -37.20525801 37.4375 -39.4375 37.4375 C-37.9420292 33.84028644 -35.91043692 31.80652779 -33 29.25 C-32.10410156 28.46238281 -31.20820312 27.67476562 -30.28515625 26.86328125 C-27.53107737 24.51721405 -24.74568783 22.21840363 -21.9375 19.9375 C-18.22094376 16.90821589 -14.51222696 13.87435179 -10.875 10.75 C-10.06933594 10.06550781 -9.26367188 9.38101563 -8.43359375 8.67578125 C-6.10758613 6.06755744 -5.44220736 3.74794129 -4.4375 0.4375 C-2.4375 -0.5625 -2.4375 -0.5625 0 0 Z "
     fill="#2B7FFF"
     transform="translate(152.4375,102.5625)"
     id="path13" />
  <path
     d="M0 0 C0.99 0 1.98 0 3 0 C1.76217129 4.14319869 0.14431348 7.80662912 -1.86914062 11.60668945 C-7.67403721 22.57311543 -12.47024306 34.52540348 -9.49609375 47.13671875 C-7.93296381 51.39736437 -6.0141217 53.10747251 -2 55 C0.66853296 55.36225681 3.14041429 55.59800431 5.8125 55.6875 C6.50537109 55.72166016 7.19824219 55.75582031 7.91210938 55.79101562 C9.60752849 55.87286344 11.30373458 55.93812365 13 56 C13 56.66 13 57.32 13 58 C6.84681049 60.05106317 -0.41621119 59.81593331 -6.5625 57.875 C-10.40537448 54.91894271 -12.47775134 51.56674599 -14 47 C-15.49553172 30.52778632 -10.38788221 15.52664345 -1.5078125 1.671875 C-1.01023437 1.12015625 -0.51265625 0.5684375 0 0 Z "
     fill="#2B7FFF"
     transform="translate(46,307)"
     id="path14" />
  <path
     d="M0 0 C0 0.99 0 1.98 0 3 C-7.45802708 4.81062142 -14.91661304 6.61892455 -22.37590981 8.42430782 C-25.83991157 9.26278089 -29.30371954 10.10203733 -32.76708984 10.94311523 C-36.75301013 11.91105717 -40.73976163 12.87553517 -44.7265625 13.83984375 C-46.58312973 14.29145119 -46.58312973 14.29145119 -48.47720337 14.75218201 C-49.6379538 15.032397 -50.79870422 15.312612 -51.99462891 15.60131836 C-53.52018906 15.97105019 -53.52018906 15.97105019 -55.0765686 16.34825134 C-58.03909259 17.00871529 -61.00206572 17.52874167 -64 18 C-64.33 16.68 -64.66 15.36 -65 14 C-57.93307329 12.31992367 -50.86563472 10.6420187 -43.79754448 8.96684361 C-40.51516828 8.18883181 -37.23296944 7.41008799 -33.95117188 6.62963867 C-30.17361958 5.7316842 -26.39546634 4.83629811 -22.6171875 3.94140625 C-20.85905228 3.52260948 -20.85905228 3.52260948 -19.06539917 3.09535217 C-17.964711 2.83515793 -16.86402283 2.57496368 -15.72998047 2.30688477 C-14.28436234 1.96380028 -14.28436234 1.96380028 -12.80953979 1.61378479 C-8.46387853 0.66441195 -4.45899667 0 0 0 Z "
     fill="#000000"
     transform="translate(376,28)"
     id="path15" />
  <path
     d="M0 0 C0.99 0.99 1.98 1.98 3 3 C2.46375 3.79277344 1.9275 4.58554688 1.375 5.40234375 C-4.99415067 14.86706852 -11.16252387 24.45454988 -17.2890625 34.07788086 C-21.12555801 40.09846824 -25.00881787 46.08068341 -29 52 C-29.99 51.67 -30.98 51.34 -32 51 C-30.68959645 47.45669391 -29.13116791 44.43867487 -27.05078125 41.2890625 C-26.456604 40.38422119 -25.86242676 39.47937988 -25.25024414 38.54711914 C-24.61078857 37.58281982 -23.97133301 36.61852051 -23.3125 35.625 C-21.96340769 33.57430688 -20.61445367 31.52352278 -19.265625 29.47265625 C-18.21858398 27.88541748 -18.21858398 27.88541748 -17.15039062 26.26611328 C-13.60232649 20.87714848 -10.08368581 15.46904849 -6.5625 10.0625 C-5.29310659 8.11579553 -4.0235882 6.16917254 -2.75390625 4.22265625 C-2.22095947 3.40547119 -1.6880127 2.58828613 -1.13891602 1.74633789 C-0.76307373 1.17004639 -0.38723145 0.59375488 0 0 Z "
     fill="#000000"
     transform="translate(207,69)"
     id="path16" />
  <path
     d="M0 0 C0.99 0.33 1.98 0.66 3 1 C6.27477883 19.7130219 6.80968843 40.93162671 0 59 C-0.66 59 -1.32 59 -2 59 C-1.87625 57.741875 -1.7525 56.48375 -1.625 55.1875 C-1.53605469 54.28257812 -1.44710937 53.37765625 -1.35546875 52.4453125 C-1.08169871 49.79184907 -0.79101813 47.14237592 -0.48828125 44.4921875 C1.20870944 29.46363792 0.87499419 15.07802486 0 0 Z "
     fill="#2B7FFF"
     transform="translate(62,313)"
     id="path17" />
  <path
     d="M0 0 C4.40808917 1.8734379 6.73723457 5.32508986 8.625 9.625 C8.5 12.0625 8.5 12.0625 6.5625 14.8125 C2.51963377 17.78276906 0.50522409 18.141948 -4.5 18.0625 C-7.47620129 16.10447284 -8.37798296 14.31183918 -9.9375 11.125 C-10.5 8.0625 -10.5 8.0625 -9.4375 5.375 C-6.68000436 2.08379553 -4.40691263 0.11017282 0 0 Z M-2.5 3.0625 C-2.5 3.7225 -2.5 4.3825 -2.5 5.0625 C-1.84 5.0625 -1.18 5.0625 -0.5 5.0625 C0.57525194 7.71478812 1.59456151 10.34618454 2.5 13.0625 C3.49 12.7325 4.48 12.4025 5.5 12.0625 C4.07240635 6.8711142 4.07240635 6.8711142 0.5 3.0625 C-0.49 3.0625 -1.48 3.0625 -2.5 3.0625 Z M-7.5 6.0625 C-6.37302957 11.03161366 -6.37302957 11.03161366 -3.5 15.0625 C-2.51 15.0625 -1.52 15.0625 -0.5 15.0625 C-0.97645208 10.77443127 -2.15902484 8.79602513 -5.5 6.0625 C-6.16 6.0625 -6.82 6.0625 -7.5 6.0625 Z "
     fill="#000000"
     transform="translate(135.5,232.9375)"
     id="path18" />
  <path
     d="M0 0 C-2.31 8.91 -4.62 17.82 -7 27 C-7.66 27 -8.32 27 -9 27 C-9.20496094 25.75863281 -9.40992188 24.51726562 -9.62109375 23.23828125 C-9.89318572 21.59634697 -10.16532355 19.95442028 -10.4375 18.3125 C-10.63956055 17.08756836 -10.63956055 17.08756836 -10.84570312 15.83789062 C-11.50304282 11.87781978 -12.17566296 7.92960669 -13 4 C-11.40233897 3.13372601 -9.79660056 2.28233535 -8.1875 1.4375 C-7.29417969 0.96183594 -6.40085938 0.48617187 -5.48046875 -0.00390625 C-3 -1 -3 -1 0 0 Z "
     fill="#2B7FFF"
     transform="translate(204,232)"
     id="path19" />
  <path
     d="M0 0 C0.66 0.33 1.32 0.66 2 1 C2 4 2 4 0.7421875 5.40234375 C0.12601563 5.90894531 -0.49015625 6.41554688 -1.125 6.9375 C-1.85332031 7.5459375 -2.58164063 8.154375 -3.33203125 8.78125 C-4.21246094 9.5134375 -5.09289062 10.245625 -6 11 C-7.08949086 11.94532829 -8.17658022 12.89342885 -9.26171875 13.84375 C-28.90561132 31 -28.90561132 31 -33 31 C-31.5045292 27.40278644 -29.47293692 25.36902779 -26.5625 22.8125 C-25.66660156 22.02488281 -24.77070312 21.23726562 -23.84765625 20.42578125 C-20.20012098 17.31862157 -16.48699852 14.29832833 -12.76171875 11.28515625 C-8.38293809 7.66197848 -4.18693378 3.84180691 0 0 Z "
     fill="#000000"
     transform="translate(146,109)"
     id="path20" />
  <path
     d="M0 0 C0.66 0 1.32 0 2 0 C10.56897814 10.12440321 11.70917958 24.20617317 10.6875 36.875 C10 40 10 40 7 42 C7.03480469 41.00742187 7.06960937 40.01484375 7.10546875 38.9921875 C7.39711201 26.98273451 6.32565528 15.65287532 0.76953125 4.76953125 C0 3 0 3 0 0 Z "
     fill="#000000"
     transform="translate(182,226)"
     id="path21" />
  <path
     d="M0 0 C0.66 0 1.32 0 2 0 C3.59974462 2.17875667 5.06262823 4.34265568 6.5 6.625 C7.10521484 7.55119141 7.10521484 7.55119141 7.72265625 8.49609375 C11.19673353 13.9422545 13.30291495 18.79214686 13.125 25.375 C13.10695312 26.24898438 13.08890625 27.12296875 13.0703125 28.0234375 C13.03550781 29.00183594 13.03550781 29.00183594 13 30 C12.01 29.67 11.02 29.34 10 29 C9.92523438 28.26136719 9.85046875 27.52273438 9.7734375 26.76171875 C8.56806347 17.46143088 5.1511775 10.72676624 0 3 C0 2.01 0 1.02 0 0 Z "
     fill="#000000"
     transform="translate(166,239)"
     id="path22" />
  <path
     d="M0 0 C0.99 0 1.98 0 3 0 C8.62035657 6.19117403 12.14330447 14.19481301 12.1875 22.5625 C12.125625 23.696875 12.06375 24.83125 12 26 C11.01 25.67 10.02 25.34 9 25 C8.26171875 22.41015625 8.26171875 22.41015625 7.6875 19.0625 C6.48078226 13.17164136 4.54808745 8.89265556 1.20703125 3.92578125 C0 2 0 2 0 0 Z "
     fill="#000000"
     transform="translate(174,226)"
     id="path25" />
  <path
     d="M0 0 C2.80362763 -0.22732116 4.46186517 -0.34081872 6.875 1.1875 C8 3 8 3 7.75 5.5625 C7 8 7 8 6 10 C3.6875 10.3125 3.6875 10.3125 1 10 C-0.9375 7.8125 -0.9375 7.8125 -2 5 C-1.1875 2.1875 -1.1875 2.1875 0 0 Z "
     fill="#2B7FFF"
     transform="translate(208,61)"
     id="path27" />
  <path
     d="M0 0 C2.625 0.5625 2.625 0.5625 5 2 C6.0625 4.375 6.0625 4.375 6 7 C4.3125 9.375 4.3125 9.375 2 11 C-0.1875 10.875 -0.1875 10.875 -2 10 C-3.39431504 7.21136993 -3.25660094 5.07921132 -3 2 C-2.01 1.34 -1.02 0.68 0 0 Z "
     fill="#2B7FFF"
     transform="translate(150,102)"
     id="path28" />
  <path
     d="M0 0 C1.2375 0.1546875 1.2375 0.1546875 2.5 0.3125 C4.6387261 3.52058915 4.97730962 4.58948497 4.5 8.3125 C1.5 10.3125 1.5 10.3125 -0.5625 10.0625 C-2.5 9.3125 -2.5 9.3125 -4.5 7.3125 C-4.75 4.8125 -4.75 4.8125 -4.5 2.3125 C-2.5 0.3125 -2.5 0.3125 0 0 Z "
     fill="#2B7FFF"
     transform="translate(307.5,40.6875)"
     id="path29" />
  <path
     d="M0 0 C5.875 0.875 5.875 0.875 7 2 C7.1875 4.9375 7.1875 4.9375 7 8 C6.34 8.66 5.68 9.32 5 10 C1.875 9.625 1.875 9.625 -1 9 C-1.80967438 6.08517222 -2.21845993 4.53886783 -1.0625 1.6875 C-0.711875 1.130625 -0.36125 0.57375 0 0 Z "
     fill="#2B7FFF"
     transform="translate(273,108)"
     id="path30" />
  <path
     d="M0 0 C3.87800743 1.24650239 5.26559128 3.61915354 7.1171875 7.1328125 C9.17301144 11.4809711 10.28377245 15.17586829 10 20 C9.01 20 8.02 20 7 20 C6.61908203 18.67935547 6.61908203 18.67935547 6.23046875 17.33203125 C5.88628906 16.17058594 5.54210937 15.00914062 5.1875 13.8125 C4.85105469 12.66394531 4.51460937 11.51539063 4.16796875 10.33203125 C3.07989607 7.22793093 1.7235089 4.78033097 0 2 C0 1.34 0 0.68 0 0 Z "
     fill="#000000"
     transform="translate(170,232)"
     id="path31" />
  <path
     d="M0 0 C3.75730247 1.6281644 6.616823 4.01401917 9.75 6.625 C11.22726563 7.85089844 11.22726563 7.85089844 12.734375 9.1015625 C13.85585937 10.04128906 13.85585937 10.04128906 15 11 C14.01 12.485 14.01 12.485 13 14 C11.20724155 12.54300902 9.41582771 11.08436345 7.625 9.625 C6.62726563 8.81289062 5.62953125 8.00078125 4.6015625 7.1640625 C2 5 2 5 0 3 C0 2.01 0 1.02 0 0 Z "
     fill="#1A1A1B"
     transform="translate(155,109)"
     id="path32" />
  <path
     d="M0 0 C2.1385485 2.1385485 2.42655063 3.13275314 3 6 C2.01 6 1.02 6 0 6 C0 4.02 0 2.04 0 0 Z "
     fill="#2B7FFF"
     transform="translate(171,253)"
     id="path33" />
</svg>
