<?xml version="1.0" encoding="UTF-8"?>
<svg version="1.1" xmlns="http://www.w3.org/2000/svg" width="400" height="400">
<path d="M0 0 C2.6875 0.125 2.6875 0.125 6 1 C6.680625 1.969375 7.36125 2.93875 8.0625 3.9375 C9.88331719 6.40441361 10.81987091 6.95361059 13.8515625 7.734375 C16.11044343 8.04120192 18.3724473 8.32572149 20.63671875 8.58984375 C26.62522064 9.32014886 32.78106517 10.16361967 37.0625 14.75 C39.17685656 18.29666262 39.75434653 20.90577552 40 25 C40.8971875 25.12375 40.8971875 25.12375 41.8125 25.25 C44.66931115 26.22947811 45.46221001 27.43701668 47 30 C50.14032563 40.00172203 47.78144012 51.49718421 43.625 60.8125 C39.29996004 69.06745282 32.60309739 76.50623633 25.1796875 82.140625 C22.61458334 83.94835797 22.61458334 83.94835797 22.1875 87.75 C22.0946875 89.35875 22.0946875 89.35875 22 91 C22.99 90.34 23.98 89.68 25 89 C37.07718439 87.45823178 49.39131106 94.97464279 58.625 101.99609375 C73.04509971 114.27570991 86.31929804 134.08093356 88.234375 153.359375 C88.25 155.3125 88.25 155.3125 88 158 C87.01 158.33 86.02 158.66 85 159 C85.33 159.66 85.66 160.32 86 161 C86.09611752 162.62268991 86.12982352 164.24947306 86.125 165.875 C86.12757813 166.73867188 86.13015625 167.60234375 86.1328125 168.4921875 C86.01023921 170.80665971 85.64966445 172.78289116 85 175 C84.01 175 83.02 175 82 175 C82.33 170.38 82.66 165.76 83 161 C81.39125 161.61875 79.7825 162.2375 78.125 162.875 C69.51941333 165.99328557 61.08908275 167.22093576 52 168 C52 171.63 52 175.26 52 179 C50.02 179 48.04 179 46 179 C46 175.37 46 171.74 46 168 C44.02 167.67 42.04 167.34 40 167 C39.97273073 164.64575325 39.95303281 162.29183038 39.9375 159.9375 C39.92589844 158.62652344 39.91429687 157.31554687 39.90234375 155.96484375 C39.99497641 152.20395786 40.25313263 148.68736405 41 145 C41.66 144.67 42.32 144.34 43 144 C44.1482685 146.296537 44.11561175 147.58313167 44.09765625 150.1328125 C44.09282227 151.34130859 44.09282227 151.34130859 44.08789062 152.57421875 C44.07532227 153.83685547 44.07532227 153.83685547 44.0625 155.125 C44.05798828 155.97449219 44.05347656 156.82398438 44.04882812 157.69921875 C44.03702874 159.79950909 44.01909306 161.8997633 44 164 C56.81832875 164.66103873 68.77387654 161.93009411 80.5234375 156.98828125 C83 156 83 156 85 156 C81.06079771 140.52726794 75.50941994 127.25694473 65 115 C64.49339844 114.33871094 63.98679687 113.67742187 63.46484375 112.99609375 C56.24720028 103.93413844 45.95497862 97.53625721 35 94 C34.64228516 95.09054688 34.64228516 95.09054688 34.27734375 96.203125 C32.81030539 99.41535578 31.07966163 101.28657088 28.5625 103.75 C27.78003906 104.52859375 26.99757813 105.3071875 26.19140625 106.109375 C24 108 24 108 21 109 C20.505 109.721875 20.01 110.44375 19.5 111.1875 C17 113 17 113 14.54296875 112.81640625 C12.60840461 112.43266918 10.67859181 112.02430549 8.75390625 111.59375 C3.15974063 110.38763202 -0.8133832 110.81616135 -6 113 C-7.65 113 -9.3 113 -11 113 C-11.495 105.575 -11.495 105.575 -12 98 C-20.30465934 100.37275981 -26.58689948 103.3459592 -33.6015625 108.390625 C-36 110 -36 110 -38 110 C-37.98428955 110.57741943 -37.9685791 111.15483887 -37.95239258 111.74975586 C-37.50590809 130.77150204 -39.16788686 146.58685524 -47 164 C-43.37 163.01 -39.74 162.02 -36 161 C-35.86722656 159.79601562 -35.73445313 158.59203125 -35.59765625 157.3515625 C-35.4194698 155.77601915 -35.2410735 154.20049953 -35.0625 152.625 C-34.97548828 151.8309375 -34.88847656 151.036875 -34.79882812 150.21875 C-34.11328125 144.2265625 -34.11328125 144.2265625 -33 142 C-32.34 142 -31.68 142 -31 142 C-30.7829359 154.34853548 -31.43308003 166.66798292 -32 179 C-32.99 178.67 -33.98 178.34 -35 178 C-35 173.71 -35 169.42 -35 165 C-43.415 166.98 -43.415 166.98 -52 169 C-52.33 168.01 -52.66 167.02 -53 166 C-52.67 165.34 -52.34 164.68 -52 164 C-52.76183594 164.04640625 -53.52367187 164.0928125 -54.30859375 164.140625 C-61.32171178 164.38577769 -67.1376725 164.15586781 -73 160 C-79.13083518 153.80324186 -81.28794496 147.29919204 -81.4375 138.625 C-81.27903002 115.6336465 -66.9441916 93.51078694 -55.24438477 74.57177734 C-51.46592686 68.27647731 -49.52460631 63.02793429 -48.4609375 55.73046875 C-47.65366089 50.94838101 -45.44882399 48.44882399 -42.0625 45.0625 C-40 44 -40 44 -37.375 44.125 C-35 45 -35 45 -33 48 C-32.66666667 54.33333333 -32.66666667 54.33333333 -34 57 C-34.66 57 -35.32 57 -36 57 C-36.495 52.545 -36.495 52.545 -37 48 C-41.25417 48.57538514 -41.25417 48.57538514 -43.0625 52.25 C-44.66336698 55.68644754 -45.33505715 58.83426761 -45.9375 62.5625 C-47.6095175 70.45914789 -51.62111312 76.79139365 -55.66552734 83.703125 C-73.69509013 113.12606163 -73.69509013 113.12606163 -76.45703125 146.34765625 C-74.64188816 151.71285821 -72.10336099 155.56355835 -67.4375 158.75 C-61.90937005 160.76022907 -55.66380556 161.88793519 -50 160 C-44.08304927 149.17630964 -41.61697175 135.63834676 -42.20825195 123.41088867 C-42.71903482 112.51697863 -39.69159858 104.34275202 -35.1640625 94.52539062 C-33.97306949 91.94157526 -32.82572024 89.3418285 -31.6875 86.734375 C-29.82314818 82.47487172 -27.92248785 78.23356367 -26 74 C-25.01 74 -24.02 74 -23 74 C-25.64157846 84.07101788 -29.8714587 93.46898428 -34 103 C-32.98421875 102.45730469 -31.9684375 101.91460937 -30.921875 101.35546875 C-20.27675376 95.77846377 -10.28784704 91.29108575 2 92 C2 90.35 2 88.7 2 87 C1.154375 86.95875 0.30875 86.9175 -0.5625 86.875 C-5.1929754 85.69633353 -7.9643094 83.67356989 -11 80 C-13.17211273 75.71896327 -14.02907116 71.36917206 -14.5 66.625 C-15.00896377 62.93501268 -15.22611716 62.19599058 -18 60 C-19.96691879 54.09924362 -19.88818984 48.11882841 -17.125 42.5 C-15.886425 40.26139036 -14.83006809 38.83006809 -13 37 C-10.20428024 36.64157439 -8.65171494 36.54138578 -6.3125 38.1875 C-5 40 -5 40 -4.0625 42.625 C-3.2501999 45.19124685 -3.2501999 45.19124685 -0.875 45.8125 C-0.25625 45.874375 0.3625 45.93625 1 46 C1.37125 44.6078125 1.37125 44.6078125 1.75 43.1875 C3.08016166 39.79558777 3.75139995 38.57789145 7 37 C9.5625 36.9375 9.5625 36.9375 12 38 C14.44959548 41.71662762 15.39144165 44.56366125 15 49 C15.99 48.67 16.98 48.34 18 48 C17.505 46.453125 17.505 46.453125 17 44.875 C16.0284808 41.51573291 15.82883229 38.50893798 16 35 C15.47921875 35.15855469 14.9584375 35.31710938 14.421875 35.48046875 C7.03183721 37.06575105 -1.69699525 37.33373248 -8.3203125 33.33984375 C-12.50718095 30.00008589 -15.93812134 25.96941262 -18 21 C-18.29888997 18.26946281 -18.13585901 15.7624666 -18 13 C-17 12 -17 12 -13.9375 11.9375 C-12.4834375 11.9684375 -12.4834375 11.9684375 -11 12 C-11.020625 11.030625 -11.04125 10.06125 -11.0625 9.0625 C-11 6 -11 6 -10 5 C-8.6078125 5.12375 -8.6078125 5.12375 -7.1875 5.25 C-3.7940683 5.34140124 -3.7940683 5.34140124 -1.625 2.5 C-1.08875 1.675 -0.5525 0.85 0 0 Z M-12 40 C-15.66365958 44.22729951 -16.18669772 49.57687576 -16 55 C-14.75951748 58.05414156 -14.75951748 58.05414156 -13 60 C-11.35 58.35 -9.7 56.7 -8 55 C-8.33 54.01 -8.66 53.02 -9 52 C-9 52.66 -9 53.32 -9 54 C-10.32 54 -11.64 54 -13 54 C-12.67 51.36 -12.34 48.72 -12 46 C-9 47 -9 47 -7.8125 49.0625 C-7.544375 49.701875 -7.27625 50.34125 -7 51 C-6.95875 49.741875 -6.9175 48.48375 -6.875 47.1875 C-6.84019531 46.12595703 -6.84019531 46.12595703 -6.8046875 45.04296875 C-6.86745538 42.68640281 -6.86745538 42.68640281 -9 40 C-9.99 40 -10.98 40 -12 40 Z M7 40 C3.21350984 45.24283253 2.65743757 49.60550132 3 56 C3.88064927 58.35369807 3.88064927 58.35369807 5 60 C8.16115776 58.63016497 8.9927092 58.0109362 11 55 C11.53412989 52.40013079 11.53412989 52.40013079 11.75 49.5625 C11.84796875 48.61503906 11.9459375 47.66757813 12.046875 46.69140625 C11.99749793 43.8563396 11.46829693 42.38880616 10 40 C9.01 40 8.02 40 7 40 Z M-4 49 C-4.99 53.95 -5.98 58.9 -7 64 C-5.35 64.33 -3.7 64.66 -2 65 C-2 65.66 -2 66.32 -2 67 C-4.31 66.67 -6.62 66.34 -9 66 C-9.33 65.01 -9.66 64.02 -10 63 C-10.99 63.495 -10.99 63.495 -12 64 C-9.97194569 74.84518459 -9.97194569 74.84518459 -3 83 C-0.60797012 84.0615233 1.39723059 84.53150151 4 85 C4 87.97 4 90.94 4 94 C1.525 94.495 1.525 94.495 -1 95 C-1.33 96.98 -1.66 98.96 -2 101 C5.30882804 101.57075447 12.6564064 101.01799304 19 97 C20.35022711 93.26241482 20.07228461 89.43951113 20 85.5 C19.9418069 78.61866649 20.36290885 71.84872983 21 65 C22.093125 65.04125 23.18625 65.0825 24.3125 65.125 C28.08892229 65.32074666 28.08892229 65.32074666 31 63 C32.08568503 61.15732132 32.08568503 61.15732132 32 59 C29.27042741 54.71067164 25.07171324 53.8437227 20.4375 52.515625 C17.76300694 51.86202761 17.76300694 51.86202761 14 52 C13.80664062 52.55429688 13.61328125 53.10859375 13.4140625 53.6796875 C13.15367187 54.40414062 12.89328125 55.12859375 12.625 55.875 C12.24214844 56.95394531 12.24214844 56.95394531 11.8515625 58.0546875 C11 60 11 60 9 62 C5.875 62.125 5.875 62.125 3 62 C1.32889958 59.03821227 0.67317248 56.62928808 0.375 53.25 C0.30023438 52.45078125 0.22546875 51.6515625 0.1484375 50.828125 C0.09945312 50.22484375 0.05046875 49.6215625 0 49 C-1.32 49 -2.64 49 -4 49 Z M22.9375 93.9375 C21.9784375 94.9584375 21.9784375 94.9584375 21 96 C21.5881668 99.02485781 22.24070528 102.01386614 23 105 C23.44730469 104.46890625 23.89460938 103.9378125 24.35546875 103.390625 C27.66714638 99.52111681 30.85557544 96.01412695 35 93 C28.70877581 91.64804406 28.70877581 91.64804406 22.9375 93.9375 Z M-5 95 C-6.65 95.33 -8.3 95.66 -10 96 C-7.38058783 97.74627478 -5.96175123 98.38722388 -3 99 C-3.66 97.68 -4.32 96.36 -5 95 Z " fill="#000000" transform="translate(302,153)"/>
<path d="M0 0 C1.32 0 2.64 0 4 0 C4 7.26 4 14.52 4 22 C-3.92 22 -11.84 22 -20 22 C-19.99476318 23.8987085 -19.98952637 25.79741699 -19.98413086 27.75366211 C-19.96778101 34.13971841 -19.95641546 40.52576966 -19.94818783 46.91184139 C-19.94304428 50.77074832 -19.93610914 54.6296319 -19.92456055 58.48852539 C-19.91341908 62.23631062 -19.9076597 65.98407391 -19.90512276 69.73187447 C-19.90332308 71.1374604 -19.89981579 72.54304561 -19.89426994 73.94862175 C-19.84372193 87.3347986 -20.46394341 100.59858537 -21 114 C9.36 114 39.72 114 71 114 C71 102.45 71 90.9 71 79 C69.515 79.495 69.515 79.495 68 80 C66.6541773 80.11267166 65.3038221 80.17583033 63.95361328 80.20532227 C62.73425583 80.2352401 62.73425583 80.2352401 61.49026489 80.26576233 C60.6091806 80.28247482 59.72809631 80.29918732 58.8203125 80.31640625 C57.89773651 80.33718735 56.97516052 80.35796844 56.02462769 80.37937927 C54.0592718 80.42268639 52.09386479 80.46372294 50.12841797 80.50268555 C47.1987542 80.56103115 44.2693246 80.6265205 41.33984375 80.69335938 C35.56020425 80.82067256 29.7804062 80.91551658 24 81 C22.99932495 81.0166571 21.9986499 81.03331421 20.96765137 81.05047607 C18.03833367 81.0956579 15.10923075 81.12626816 12.1796875 81.15234375 C11.28428253 81.16745499 10.38887756 81.18256622 9.46633911 81.19813538 C7.30990855 81.20900989 5.1534367 81.11411125 3 81 C0.16992998 78.16992998 0.64754074 75.38047148 0.5859375 71.5859375 C0.56657135 70.85629791 0.5472052 70.12665833 0.5272522 69.37490845 C0.46741578 67.04172498 0.42105577 64.70849227 0.375 62.375 C0.33682386 60.79424918 0.29777235 59.21351924 0.2578125 57.6328125 C0.16171122 53.7553777 0.07769588 49.87784551 0 46 C3.62302413 43.70228123 6.51300246 43.83828958 10.734375 44.0234375 C12.02988281 44.075 13.32539062 44.1265625 14.66015625 44.1796875 C16.02344857 44.24455938 17.38672972 44.30966653 18.75 44.375 C20.12886502 44.43327558 21.50777153 44.49057808 22.88671875 44.546875 C26.25822808 44.68833693 29.62918214 44.84292159 33 45 C33 35.76 33 26.52 33 17 C36.43437112 15.28281444 40.38425892 15.7540854 44.16796875 15.68359375 C45.10343536 15.66272202 46.03890198 15.64185028 47.00271606 15.62034607 C50.06422484 15.5539822 53.12581745 15.49525132 56.1875 15.4375 C57.22200287 15.41665344 58.25650574 15.39580688 59.32235718 15.37432861 C72.65169969 15.10608887 85.98033985 14.89968956 99.3125 14.875 C100.60244873 14.87040771 101.89239746 14.86581543 103.22143555 14.86108398 C104.38199463 14.86309814 105.54255371 14.8651123 106.73828125 14.8671875 C107.73899658 14.86831543 108.73971191 14.86944336 109.77075195 14.87060547 C112 15 112 15 113 16 C113.10291849 19.04405714 113.13938482 22.06478545 113.1328125 25.109375 C113.13485939 26.55690407 113.13485939 26.55690407 113.13694763 28.03367615 C113.13900944 31.27248325 113.13255458 34.51120181 113.125 37.75 C113.12378143 38.86468658 113.12256287 39.97937317 113.12130737 41.12783813 C113.09677904 60.48343493 112.87224674 79.83476283 112.5625 99.1875 C112.5429425 100.45372192 112.52338501 101.71994385 112.50323486 103.02453613 C112.24497899 119.36552375 111.74409979 135.67357514 111 152 C121.56 152 132.12 152 143 152 C143 147.38 143 142.76 143 138 C143.11327983 134.94867514 143.24287261 131.9193209 143.4375 128.875 C143.47681641 128.16085938 143.51613281 127.44671875 143.55664062 126.7109375 C143.76014955 123.35460569 144.12247955 120.24151683 145 117 C150.53588533 116.97535225 156.071739 116.95716504 161.60766602 116.94506836 C163.4924373 116.94002756 165.37720465 116.93319502 167.26196289 116.92456055 C169.96501636 116.91248383 172.66801831 116.90676932 175.37109375 116.90234375 C176.64296791 116.89460182 176.64296791 116.89460182 177.9405365 116.88670349 C179.96071068 116.88650805 181.98077934 116.93793789 184 117 C184.33 117.33 184.66 117.66 185 118 C184.94525941 120.67046341 184.82672027 123.30847217 184.66015625 125.97265625 C184.59144569 127.16912025 184.59144569 127.16912025 184.52134705 128.38975525 C184.37331372 130.94765158 184.21798357 133.50504676 184.0625 136.0625 C183.96110913 137.79228967 183.86019138 139.52210715 183.75976562 141.25195312 C183.51200757 145.50164461 183.25770279 149.75090044 183 154 C181.68 154.33 180.36 154.66 179 155 C178.97229305 152.31242568 178.95283299 149.62515336 178.9375 146.9375 C178.92912109 146.20466797 178.92074219 145.47183594 178.91210938 144.71679688 C178.87982745 137.06597977 179.48624182 129.70637272 180 122 C169.77 122 159.54 122 149 122 C149.0309375 125.7125 149.0309375 125.7125 149.0625 129.5 C149.135199 152.729602 149.135199 152.729602 147 157 C133.47 157 119.94 157 106 157 C105.8972673 126.60253549 105.94721876 96.21600721 106.40571976 65.82175827 C106.43731562 63.69988214 106.46735828 61.5779889 106.49703979 59.45608521 C106.55355586 55.4536943 106.61789506 51.45146969 106.68359375 47.44921875 C106.70031128 46.27847809 106.71702881 45.10773743 106.73425293 43.90151978 C106.8712954 36.2373159 107.33130765 28.63592899 108 21 C107.44528519 21.01252808 106.89057037 21.02505615 106.31904602 21.03796387 C100.42800797 21.17054182 94.53690258 21.29977143 88.64575195 21.42724609 C86.46116358 21.47492846 84.27659231 21.52340236 82.09204102 21.57275391 C67.72374902 21.89667675 53.37218109 22.05036244 39 22 C38.67 31.24 38.34 40.48 38 50 C27.44 50 16.88 50 6 50 C6.495 56.93 6.495 56.93 7 64 C7.03604055 67.67613573 7.06744246 71.32813291 7 75 C7.84667236 74.96970703 8.69334473 74.93941406 9.56567383 74.90820312 C26.56477935 74.31554239 43.55220632 73.89454262 60.5625 73.875 C61.33510162 73.87250244 62.10770325 73.87000488 62.90371704 73.86743164 C65.08299401 73.86161053 67.2621282 73.86298461 69.44140625 73.8671875 C71.30841187 73.86887939 71.30841187 73.86887939 73.21313477 73.87060547 C76 74 76 74 77 75 C77.09795311 76.37609882 77.12798088 77.75713882 77.12939453 79.13671875 C77.13254669 80.01432861 77.13569885 80.89193848 77.13894653 81.79614258 C77.13591019 83.2273645 77.13591019 83.2273645 77.1328125 84.6875 C77.13376923 85.66033936 77.13472595 86.63317871 77.13571167 87.63549805 C77.13639358 89.696778 77.13453853 91.75806008 77.13037109 93.81933594 C77.125023 96.98637688 77.13031572 100.153276 77.13671875 103.3203125 C77.13605797 105.31770865 77.13477681 107.31510471 77.1328125 109.3125 C77.13483673 110.26664795 77.13686096 111.2207959 77.13894653 112.20385742 C77.13421829 113.52027222 77.13421829 113.52027222 77.12939453 114.86328125 C77.12859894 115.63969971 77.12780334 116.41611816 77.12698364 117.21606445 C77 119 77 119 76 120 C72.90565762 120.10600402 69.83351169 120.14677455 66.73852539 120.14526367 C65.76623489 120.14862228 64.7939444 120.1519809 63.79219055 120.15544128 C60.56066632 120.16498262 57.32919371 120.16689597 54.09765625 120.16796875 C51.86185179 120.17117907 49.62604754 120.17454296 47.39024353 120.17805481 C42.69676221 120.18405402 38.00329934 120.18589389 33.30981445 120.18530273 C27.28235892 120.18520105 21.25502104 120.19885576 15.22759342 120.21607494 C10.60806226 120.22716883 5.98855977 120.22922275 1.36901665 120.22869301 C-0.85383065 120.22987698 -3.0766786 120.23432192 -5.29951286 120.24202538 C-8.40280377 120.25177292 -11.5058362 120.24896804 -14.60913086 120.24291992 C-15.53544312 120.24853943 -16.46175537 120.25415894 -17.4161377 120.25994873 C-18.25885727 120.25575424 -19.10157684 120.25155975 -19.96983337 120.24723816 C-20.70412536 120.24778293 -21.43841734 120.24832769 -22.19496059 120.24888897 C-24 120 -24 120 -26 118 C-26.24291992 115.03735352 -26.24291992 115.03735352 -26.23046875 111.12890625 C-26.2304184 110.40344604 -26.23036804 109.67798584 -26.23031616 108.93054199 C-26.22663005 106.47437119 -26.20746487 104.01858907 -26.1875 101.5625 C-26.17988748 99.82674312 -26.17265472 98.09098454 -26.16577148 96.35522461 C-26.08242777 80.26238504 -25.84305665 64.16996122 -25.5933876 48.0789299 C-25.56241759 46.05711972 -25.5328503 44.03529267 -25.50350952 42.01345825 C-25.44655914 38.20807863 -25.38265929 34.40288394 -25.31640625 30.59765625 C-25.29967865 29.43907104 -25.28295105 28.28048584 -25.26571655 27.08679199 C-25.24578644 26.03342651 -25.22585632 24.98006104 -25.20532227 23.89477539 C-25.18977798 22.96951553 -25.1742337 22.04425568 -25.15821838 21.09095764 C-25 19 -25 19 -24 18 C-22.21928754 17.91273777 -20.4351686 17.89300959 -18.65234375 17.90234375 C-17.57275391 17.90556641 -16.49316406 17.90878906 -15.38085938 17.91210938 C-13.67639648 17.92467773 -13.67639648 17.92467773 -11.9375 17.9375 C-10.22723633 17.94426758 -10.22723633 17.94426758 -8.48242188 17.95117188 C-5.65492582 17.9630024 -2.82745655 17.9809385 0 18 C0 12.06 0 6.12 0 0 Z " fill="#2B7FFF" transform="translate(48,96)"/>
<path d="M0 0 C0.66 0 1.32 0 2 0 C2 3.63 2 7.26 2 11 C1.01 11 0.02 11 -1 11 C-1 9.68 -1 8.36 -1 7 C-4.14656903 7.30536699 -7.29208482 7.62048532 -10.4375 7.9375 C-11.33533203 8.02451172 -12.23316406 8.11152344 -13.15820312 8.20117188 C-14.01220703 8.28818359 -14.86621094 8.37519531 -15.74609375 8.46484375 C-16.93223267 8.58267212 -16.93223267 8.58267212 -18.14233398 8.70288086 C-20.01103348 8.81551499 -20.01103348 8.81551499 -21 10 C-21.0507778 11.87261766 -21.0277978 13.74724138 -20.97753906 15.61987305 C-20.94699432 16.85042419 -20.91644958 18.08097534 -20.88497925 19.34881592 C-20.84528701 20.73645284 -20.80549856 22.12408702 -20.765625 23.51171875 C-20.72711668 24.98129163 -20.68905347 26.45087622 -20.65139771 27.92047119 C-20.54588566 31.9859068 -20.43388893 36.0511425 -20.32085419 40.11637497 C-20.20196885 44.43043289 -20.08891036 48.74464372 -19.97509766 53.05883789 C-19.74438594 61.76346841 -19.50761946 70.46792556 -19.26895714 79.17234135 C-19.04639407 87.29258225 -18.82596541 95.41287941 -18.60644531 103.53320312 C-17.74595857 135.35570056 -16.87599765 167.17792541 -16 199 C-0.16 199 15.68 199 32 199 C31.96039927 187.85556675 31.96039927 187.85556675 31.90991211 176.71118164 C31.90699286 175.31917395 31.90444433 173.92716541 31.90234375 172.53515625 C31.89722778 171.80615112 31.89211182 171.077146 31.88684082 170.3260498 C31.88652989 168.55029924 31.93771485 166.77465792 32 165 C33.97829072 163.02170928 37.82327027 163.74496068 40.53515625 163.68359375 C41.28840683 163.66281265 42.04165741 163.64203156 42.81773376 163.62062073 C45.2325599 163.55504575 47.64749798 163.49620379 50.0625 163.4375 C51.69597529 163.3943223 53.3294391 163.35070827 54.96289062 163.30664062 C58.97514718 163.19853203 62.98748424 163.09951886 67 163 C67 153.76 67 144.52 67 135 C46.87 135 26.74 135 6 135 C5.67 145.56 5.34 156.12 5 167 C4.34 167 3.68 167 3 167 C3 155.45 3 143.9 3 132 C25.11 132 47.22 132 70 132 C70 143.22 70 154.44 70 166 C65.59473772 166.73421038 61.70605892 167.17457609 57.2890625 167.31640625 C56.16709473 167.35451416 55.04512695 167.39262207 53.88916016 167.43188477 C52.4819873 167.47498779 51.07481445 167.51809082 49.625 167.5625 C42.880625 167.7790625 42.880625 167.7790625 36 168 C35.34 178.23 34.68 188.46 34 199 C56.77 199 79.54 199 103 199 C103 190.75 103 182.5 103 174 C103.11262839 166.19175439 103.24108836 158.38531217 103.40234375 150.578125 C103.44490127 148.44781719 103.4873435 146.31750707 103.52967834 144.18719482 C103.6179311 139.77742923 103.7080801 135.36770758 103.79956055 130.95800781 C103.91586612 125.34049993 104.0264586 119.7228954 104.13556576 114.10524368 C104.22135445 109.72803393 104.31057271 105.35089894 104.40075874 100.97377777 C104.44295812 98.90239502 104.48402707 96.83098889 104.5238781 94.75955963 C104.57999931 91.86468625 104.6408804 88.969948 104.70288086 86.07519531 C104.71798706 85.24483765 104.73309326 84.41447998 104.74865723 83.55895996 C104.90450613 76.65539262 105.46771543 69.91969941 106 63 C81.91 63 57.82 63 33 63 C33 62.34 33 61.68 33 61 C44.55 61 56.1 61 68 61 C67.67 60.34 67.34 59.68 67 59 C66.84558791 56.89625004 66.75007361 54.78804881 66.68359375 52.6796875 C66.64548584 51.54772949 66.60737793 50.41577148 66.56811523 49.24951172 C66.50346069 47.08412842 66.50346069 47.08412842 66.4375 44.875 C66.2209375 38.006875 66.2209375 38.006875 66 31 C79.2 31 92.4 31 106 31 C106.33 31.99 106.66 32.98 107 34 C94.79 34 82.58 34 70 34 C70 42.91 70 51.82 70 61 C74.455 60.505 74.455 60.505 79 60 C81.47956173 59.9254448 83.96074716 59.89160497 86.44140625 59.90234375 C87.42112648 59.90446617 87.42112648 59.90446617 88.42063904 59.90663147 C90.46797648 59.9121441 92.51519669 59.92467865 94.5625 59.9375 C95.96679527 59.94252634 97.3710923 59.94708724 98.77539062 59.95117188 C102.18364141 59.96288408 105.59178977 59.98017052 109 60 C109.09094937 76.16871394 108.81537894 92.31025513 108.37890625 108.47265625 C108.3139118 110.94029913 108.24904925 113.40794548 108.18431091 115.87559509 C108.04925533 120.99597591 107.91198256 126.11629134 107.77319336 131.23657227 C107.59562498 137.79767271 107.42474587 144.35892897 107.25558567 150.92025089 C107.12391009 155.99287577 106.988251 161.06538823 106.85142326 166.13787651 C106.78668555 168.55916216 106.72330543 170.9804845 106.66131783 173.40184212 C106.57464723 176.76810252 106.48249331 180.13416962 106.38891602 183.50024414 C106.36445908 184.49498749 106.34000214 185.48973083 106.31480408 186.51461792 C106.28818695 187.43208298 106.26156982 188.34954803 106.23414612 189.29481506 C106.21294488 190.0875586 106.19174364 190.88030214 106.16989994 191.69706821 C106 194 106 194 105 199 C117.54 199 130.08 199 143 199 C143 189.1 143 179.2 143 169 C147.888125 168.67 152.77625 168.34 157.8125 168 C159.35139893 167.89558594 160.89029785 167.79117188 162.47583008 167.68359375 C164.29183716 167.56177734 164.29183716 167.56177734 166.14453125 167.4375 C167.38565674 167.35371094 168.62678223 167.26992188 169.90551758 167.18359375 C171.93436568 167.06322343 173.96758429 167 176 167 C176 158.75 176 150.5 176 142 C176.66 142 177.32 142 178 142 C179.25406138 147.78645644 179.11186913 153.48868116 179.0625 159.375 C179.05798828 160.39722656 179.05347656 161.41945313 179.04882812 162.47265625 C179.037103 164.98183194 179.02069176 167.4908849 179 170 C176.0471528 171.4764236 173.31551017 171.22272939 170.0234375 171.31640625 C168.76966309 171.35451416 167.51588867 171.39262207 166.22412109 171.43188477 C164.62391113 171.47498779 163.02370117 171.51809082 161.375 171.5625 C156.30125 171.706875 151.2275 171.85125 146 172 C146 183.22 146 194.44 146 206 C145.01 206 144.02 206 143 206 C143 204.35 143 202.7 143 201 C142.30430656 201.06943723 141.60861313 201.13887445 140.89183807 201.21041584 C132.68480038 201.96891536 124.53763158 202.18134822 116.29882812 202.23706055 C114.86513957 202.24994839 113.43145428 202.2632038 111.99777222 202.27679443 C108.14299288 202.31204013 104.28819151 202.34145957 100.43335152 202.36918616 C98.02177705 202.38678789 95.6102157 202.40564802 93.19865417 202.42493629 C84.77797381 202.49221579 76.35727311 202.55461195 67.93652344 202.61254883 C60.09507627 202.66663512 52.25377185 202.73176552 44.41245317 202.80188721 C37.66405577 202.86173484 30.91562724 202.91379964 24.16712141 202.95981437 C20.14293626 202.98739319 16.11883697 203.01815618 12.09474182 203.05682945 C8.31902417 203.09286027 4.54336206 203.11922352 0.7675209 203.1381073 C-0.61763492 203.14668631 -2.00277425 203.15873308 -3.38786697 203.17449379 C-5.27749953 203.19545819 -7.16726935 203.20272004 -9.05700684 203.20927429 C-10.11438805 203.2171934 -11.17176926 203.22511251 -12.26119232 203.2332716 C-15.05166092 202.9955999 -16.67292992 202.53011254 -19 201 C-20.67856354 197.64287292 -20.36178787 193.84435281 -20.51538086 190.14501953 C-20.556482 189.21617006 -20.59758314 188.28732059 -20.63992977 187.33032417 C-21.16962136 174.78504019 -21.455475 162.23214492 -21.75390625 149.6796875 C-21.78632941 148.33806283 -21.81883622 146.99644019 -21.85142326 145.65481949 C-22.02253878 138.60913108 -22.19110113 131.56338707 -22.35717773 124.51757812 C-22.49212001 118.79515187 -22.63087245 113.07283335 -22.77319336 107.35058594 C-24.12554405 52.89624647 -24.12554405 52.89624647 -24.26008415 28.44101334 C-24.27146417 26.58944237 -24.28761672 24.73789372 -24.30887032 22.88640976 C-24.33547863 20.39687644 -24.34272024 17.90811355 -24.34350586 15.41845703 C-24.35441442 14.69959446 -24.36532299 13.98073189 -24.37656212 13.2400856 C-24.35730804 10.3437219 -24.32795629 8.45654241 -22.60882568 6.06336975 C-20.51211001 4.67752413 -19.05507803 4.57231805 -16.55078125 4.48828125 C-15.70322266 4.45283203 -14.85566406 4.41738281 -13.98242188 4.38085938 C-13.10134766 4.35830078 -12.22027344 4.33574219 -11.3125 4.3125 C-9.97348633 4.26125977 -9.97348633 4.26125977 -8.60742188 4.20898438 C-6.40507329 4.12654352 -4.20312062 4.05738449 -2 4 C-1.34 2.68 -0.68 1.36 0 0 Z " fill="#000000" transform="translate(34,96)"/>
<path d="M0 0 C2.375 0.875 2.375 0.875 4.375 3.875 C4.70833333 10.20833333 4.70833333 10.20833333 3.375 12.875 C2.715 12.875 2.055 12.875 1.375 12.875 C0.88 8.42 0.88 8.42 0.375 3.875 C-3.87917 4.45038514 -3.87917 4.45038514 -5.6875 8.125 C-7.28836698 11.56144754 -7.96005715 14.70926761 -8.5625 18.4375 C-10.2345175 26.33414789 -14.24611312 32.66639365 -18.29052734 39.578125 C-36.32009013 69.00106163 -36.32009013 69.00106163 -39.08203125 102.22265625 C-37.26688816 107.58785821 -34.72836099 111.43855835 -30.0625 114.625 C-24.53437005 116.63522907 -18.28880556 117.76293519 -12.625 115.875 C-6.70804927 105.05130964 -4.24197175 91.51334676 -4.83325195 79.28588867 C-5.34403482 68.39197863 -2.31659858 60.21775202 2.2109375 50.40039062 C3.40193051 47.81657526 4.54927976 45.2168285 5.6875 42.609375 C7.55185182 38.34987172 9.45251215 34.10856367 11.375 29.875 C12.365 29.875 13.355 29.875 14.375 29.875 C11.73342154 39.94601788 7.5035413 49.34398428 3.375 58.875 C4.39078125 58.33230469 5.4065625 57.78960937 6.453125 57.23046875 C15.70639862 52.38501976 24.68751737 47.875 35.375 47.875 C35.87 51.835 35.87 51.835 36.375 55.875 C43.38520479 56.32727128 49.22936762 55.5209208 55.375 51.875 C55.705 50.885 56.035 49.895 56.375 48.875 C59.40032745 46.35389379 61.59107955 45.00042727 65.5 44.375 C83.13365413 46.65031021 97.67013918 57.2945269 108.5 70.9375 C117.23611319 82.42109696 126.751768 99.07474396 125.375 113.875 C124.385 114.205 123.395 114.535 122.375 114.875 C122.705 115.535 123.035 116.195 123.375 116.875 C123.47111752 118.49768991 123.50482352 120.12447306 123.5 121.75 C123.50257813 122.61367188 123.50515625 123.47734375 123.5078125 124.3671875 C123.38523921 126.68165971 123.02466445 128.65789116 122.375 130.875 C121.385 130.875 120.395 130.875 119.375 130.875 C119.705 126.255 120.035 121.635 120.375 116.875 C118.76625 117.49375 117.1575 118.1125 115.5 118.75 C106.89441333 121.86828557 98.46408275 123.09593576 89.375 123.875 C89.375 127.505 89.375 131.135 89.375 134.875 C87.395 134.875 85.415 134.875 83.375 134.875 C83.375 131.245 83.375 127.615 83.375 123.875 C81.395 123.545 79.415 123.215 77.375 122.875 C77.34773073 120.52075325 77.32803281 118.16683038 77.3125 115.8125 C77.30089844 114.50152344 77.28929687 113.19054687 77.27734375 111.83984375 C77.36997641 108.07895786 77.62813263 104.56236405 78.375 100.875 C79.035 100.545 79.695 100.215 80.375 99.875 C81.5232685 102.171537 81.49061175 103.45813167 81.47265625 106.0078125 C81.46782227 107.21630859 81.46782227 107.21630859 81.46289062 108.44921875 C81.45032227 109.71185547 81.45032227 109.71185547 81.4375 111 C81.43298828 111.84949219 81.42847656 112.69898438 81.42382812 113.57421875 C81.41202874 115.67450909 81.39409306 117.7747633 81.375 119.875 C94.19332875 120.53603873 106.14887654 117.80509411 117.8984375 112.86328125 C120.375 111.875 120.375 111.875 122.375 111.875 C118.43579771 96.40226794 112.88441994 83.13194473 102.375 70.875 C101.86839844 70.21371094 101.36179687 69.55242187 100.83984375 68.87109375 C93.62220028 59.80913844 83.32997862 53.41125721 72.375 49.875 C72.13652344 50.60203125 71.89804687 51.3290625 71.65234375 52.078125 C70.18530539 55.29035578 68.45466163 57.16157088 65.9375 59.625 C65.15503906 60.40359375 64.37257813 61.1821875 63.56640625 61.984375 C61.375 63.875 61.375 63.875 58.375 64.875 C57.88 65.596875 57.385 66.31875 56.875 67.0625 C54.375 68.875 54.375 68.875 51.91796875 68.69140625 C49.98340461 68.30766918 48.05359181 67.89930549 46.12890625 67.46875 C40.53474063 66.26263202 36.5616168 66.69116135 31.375 68.875 C29.725 68.875 28.075 68.875 26.375 68.875 C25.88 61.45 25.88 61.45 25.375 53.875 C17.07034066 56.24775981 10.78810052 59.2209592 3.7734375 64.265625 C1.375 65.875 1.375 65.875 -0.625 65.875 C-0.60928955 66.45241943 -0.5935791 67.02983887 -0.57739258 67.62475586 C-0.13090809 86.64650204 -1.79288686 102.46185524 -9.625 119.875 C-5.995 118.885 -2.365 117.895 1.375 116.875 C1.50777344 115.67101562 1.64054687 114.46703125 1.77734375 113.2265625 C1.9555302 111.65101915 2.1339265 110.07549953 2.3125 108.5 C2.44301758 107.30890625 2.44301758 107.30890625 2.57617188 106.09375 C3.26171875 100.1015625 3.26171875 100.1015625 4.375 97.875 C5.035 97.875 5.695 97.875 6.375 97.875 C6.5920641 110.22353548 5.94191997 122.54298292 5.375 134.875 C4.385 134.545 3.395 134.215 2.375 133.875 C2.375 129.585 2.375 125.295 2.375 120.875 C-3.235 122.195 -8.845 123.515 -14.625 124.875 C-14.955 123.885 -15.285 122.895 -15.625 121.875 C-15.295 121.215 -14.965 120.555 -14.625 119.875 C-15.38683594 119.92140625 -16.14867187 119.9678125 -16.93359375 120.015625 C-23.94671178 120.26077769 -29.7626725 120.03086781 -35.625 115.875 C-41.75583518 109.67824186 -43.91294496 103.17419204 -44.0625 94.5 C-43.90403002 71.5086465 -29.5691916 49.38578694 -17.86938477 30.44677734 C-14.09092686 24.15147731 -12.14960631 18.90293429 -11.0859375 11.60546875 C-10.27866089 6.82338101 -8.07382399 4.32382399 -4.6875 0.9375 C-2.625 -0.125 -2.625 -0.125 0 0 Z M60.3125 49.8125 C59.3534375 50.8334375 59.3534375 50.8334375 58.375 51.875 C58.9631668 54.89985781 59.61570528 57.88886614 60.375 60.875 C60.82230469 60.34390625 61.26960938 59.8128125 61.73046875 59.265625 C65.04214638 55.39611681 68.23057544 51.88912695 72.375 48.875 C66.08377581 47.52304406 66.08377581 47.52304406 60.3125 49.8125 Z M32.375 50.875 C30.725 51.205 29.075 51.535 27.375 51.875 C29.99441217 53.62127478 31.41324877 54.26222388 34.375 54.875 C33.715 53.555 33.055 52.235 32.375 50.875 Z " fill="#000000" transform="translate(264.625,197.125)"/>
<path d="M0 0 C0.99 0.33 1.98 0.66 3 1 C3 2.32 3 3.64 3 5 C3.94036763 4.99631283 4.88073526 4.99262566 5.84959888 4.98882675 C28.70811974 4.90011326 51.56661833 4.83433734 74.42527485 4.79275131 C85.47946088 4.77210719 96.53353334 4.74395128 107.58764648 4.69824219 C117.21999965 4.65843103 126.85227058 4.63258066 136.48470372 4.62364602 C141.58722464 4.61842156 146.68951028 4.60610389 151.79195595 4.57707977 C156.59112952 4.55000101 161.38997009 4.54153968 166.1892128 4.54756927 C167.95372131 4.54646565 169.71824056 4.53846696 171.48268318 4.5231781 C173.88615203 4.50336752 176.28835247 4.50802722 178.69184875 4.51898193 C179.39515377 4.50733057 180.09845878 4.4956792 180.82307607 4.48367476 C183.98406097 4.52280026 185.59193621 4.61583161 187.93853664 6.82501984 C189.50446589 10.03367045 189.27962586 12.67822599 189.17285156 16.23339844 C189.15538879 16.95621002 189.13792603 17.67902161 189.11993408 18.42373657 C189.05830053 20.81961424 188.97457547 23.21418369 188.890625 25.609375 C188.84258517 27.29490547 188.79587561 28.98047432 188.75042725 30.66607666 C188.62648722 35.12240246 188.48366337 39.57793615 188.3371582 44.03356934 C188.19464713 48.47516447 188.07103111 52.91727887 187.9453125 57.359375 C187.43065904 75.24513269 186.81476808 93.12517179 186 111 C185.01 110.67 184.02 110.34 183 110 C183.33 107.69 183.66 105.38 184 103 C161.23 103 138.46 103 115 103 C114.67 116.2 114.34 129.4 114 143 C113.01 142.67 112.02 142.34 111 142 C110.97532668 136.19759432 110.95715276 130.39521902 110.94506836 124.59277344 C110.9400319 122.61783313 110.93320249 120.64289657 110.92456055 118.66796875 C110.91246492 115.83332395 110.9067649 112.99872834 110.90234375 110.1640625 C110.89460182 108.83430893 110.89460182 108.83430893 110.88670349 107.47769165 C110.88612829 101.22774341 110.88612829 101.22774341 112 99 C119.36092735 99.11919422 126.72174633 99.24395662 134.08251953 99.37231445 C136.57859234 99.41521721 139.07468618 99.45691624 141.57080078 99.49731445 C155.73519883 99.727422 169.86391445 100.04612438 184 101 C183.99476318 99.9790625 183.98952637 98.958125 183.98413086 97.90625 C183.96106412 92.93751476 183.94756596 87.96877739 183.9375 83 C183.93555634 82.08226807 183.93361267 81.16453613 183.93161011 80.21899414 C183.90531233 62.17754691 184.2505807 44.15169686 184.73217773 26.1171875 C184.75694183 25.12062134 184.78170593 24.12405518 184.80722046 23.09729004 C184.85391952 21.22209093 184.90491253 19.34699228 184.96084595 17.4720459 C185.21898809 13.10190374 185.21898809 13.10190374 184 9 C161.23 8.67 138.46 8.34 115 8 C115 17.24 115 26.48 115 36 C114.87198236 40.92867913 114.7330047 45.82957366 114.5 50.75 C114.335 54.4625 114.17 58.175 114 62 C123.9 62 133.8 62 144 62 C144.33 52.1 144.66 42.2 145 32 C145.99 32 146.98 32 148 32 C148.02784744 34.50008123 148.04722847 36.99983176 148.0625 39.5 C148.07087891 40.17675781 148.07925781 40.85351562 148.08789062 41.55078125 C148.12339411 49.43255387 147.49586266 57.06619737 147 65 C135.12 65 123.24 65 111 65 C110.85929182 46.28581151 111.46437001 27.74704969 112 9 C76.03 8.67 40.06 8.34 3 8 C3 17.24 3 26.48 3 36 C0.48269618 38.51730382 -7.21158949 37.82415429 -10 38 C-15.28 38 -20.56 38 -26 38 C-26 57.8 -26 77.6 -26 98 C-21.71 97.835 -17.42 97.67 -13 97.5 C3.3366775 96.91543639 19.65490029 96.89462096 36 97 C36 97.66 36 98.32 36 99 C14.40562504 100.78058881 -7.34022389 101.22933881 -29 101 C-30.70840336 79.02730449 -29.64191606 56.99981723 -29 35 C-27.4359765 34.83285164 -25.87161742 34.66884191 -24.30712891 34.50610352 C-23.43601471 34.41442398 -22.56490051 34.32274445 -21.66738892 34.22828674 C-17.56676015 33.8773371 -13.48735994 33.89302356 -9.375 33.9375 C-8.15490234 33.94426758 -8.15490234 33.94426758 -6.91015625 33.95117188 C-4.94007102 33.96276061 -2.97002464 33.98068603 -1 34 C-1.01160156 32.80246094 -1.02320312 31.60492188 -1.03515625 30.37109375 C-1.10231552 20.19331689 -0.84918299 10.14470396 0 0 Z " fill="#000000" transform="translate(66,95)"/>
<path d="M0 0 C20.26654425 7.23624426 34.44003717 22.47918807 43.67822266 41.47460938 C47.47822742 49.65558686 51.16525918 58.27033884 50.3125 67.4375 C48.8275 67.9325 48.8275 67.9325 47.3125 68.4375 C47.6425 69.0975 47.9725 69.7575 48.3125 70.4375 C48.40861752 72.06018991 48.44232352 73.68697306 48.4375 75.3125 C48.44136719 76.60800781 48.44136719 76.60800781 48.4453125 77.9296875 C48.32273921 80.24415971 47.96216445 82.22039116 47.3125 84.4375 C46.3225 84.4375 45.3325 84.4375 44.3125 84.4375 C44.6425 79.8175 44.9725 75.1975 45.3125 70.4375 C43.70375 71.05625 42.095 71.675 40.4375 72.3125 C31.83191333 75.43078557 23.40158275 76.65843576 14.3125 77.4375 C14.3125 81.0675 14.3125 84.6975 14.3125 88.4375 C12.3325 88.4375 10.3525 88.4375 8.3125 88.4375 C8.3125 84.8075 8.3125 81.1775 8.3125 77.4375 C6.3325 77.1075 4.3525 76.7775 2.3125 76.4375 C2.28523073 74.08325325 2.26553281 71.72933038 2.25 69.375 C2.23839844 68.06402344 2.22679687 66.75304687 2.21484375 65.40234375 C2.30747641 61.64145786 2.56563263 58.12486405 3.3125 54.4375 C4.3025 53.9425 4.3025 53.9425 5.3125 53.4375 C6.4607685 55.734037 6.42811175 57.02063167 6.41015625 59.5703125 C6.40693359 60.37597656 6.40371094 61.18164062 6.40039062 62.01171875 C6.39201172 62.85347656 6.38363281 63.69523437 6.375 64.5625 C6.37048828 65.41199219 6.36597656 66.26148438 6.36132812 67.13671875 C6.34952874 69.23700909 6.33159306 71.3372633 6.3125 73.4375 C19.13082875 74.09853873 31.08637654 71.36759411 42.8359375 66.42578125 C45.3125 65.4375 45.3125 65.4375 47.3125 65.4375 C43.37329771 49.96476794 37.82191994 36.69444473 27.3125 24.4375 C26.80589844 23.77621094 26.29929687 23.11492187 25.77734375 22.43359375 C17.96682939 12.62727229 6.39009618 5.59576759 -5.6875 2.4375 C-10.51277094 2.11464124 -12.65463935 2.82159039 -16.6875 5.4375 C-17.6775 5.4375 -18.6675 5.4375 -19.6875 5.4375 C-16.62896767 -3.738097 -7.46416411 -2.24800771 0 0 Z " fill="#2B7FFF" transform="translate(339.6875,243.5625)"/>
<path d="M0 0 C2.375 0.875 2.375 0.875 4.375 3.875 C4.70833333 10.20833333 4.70833333 10.20833333 3.375 12.875 C2.715 12.875 2.055 12.875 1.375 12.875 C0.88 8.42 0.88 8.42 0.375 3.875 C-3.87917 4.45038514 -3.87917 4.45038514 -5.6875 8.125 C-7.28836698 11.56144754 -7.96005715 14.70926761 -8.5625 18.4375 C-10.2345175 26.33414789 -14.24611312 32.66639365 -18.29052734 39.578125 C-36.32009013 69.00106163 -36.32009013 69.00106163 -39.08203125 102.22265625 C-37.26688816 107.58785821 -34.72836099 111.43855835 -30.0625 114.625 C-24.4272923 116.67416644 -18.5880154 116.875 -12.625 116.875 C-12.955 117.865 -13.285 118.855 -13.625 119.875 C-21.58572533 120.31794608 -28.91806997 120.71588901 -35.625 115.875 C-41.75149402 109.66928408 -43.9128264 103.18106865 -44.0625 94.5 C-43.90403002 71.5086465 -29.5691916 49.38578694 -17.86938477 30.44677734 C-14.09092686 24.15147731 -12.14960631 18.90293429 -11.0859375 11.60546875 C-10.27866089 6.82338101 -8.07382399 4.32382399 -4.6875 0.9375 C-2.625 -0.125 -2.625 -0.125 0 0 Z " fill="#000000" transform="translate(264.625,197.125)"/>
<path d="M0 0 C2.47641581 2.47641581 2.2817495 3.96902279 2.32958984 7.35595703 C2.3239502 8.08411621 2.31831055 8.81227539 2.3125 9.5625 C2.30686035 10.31901855 2.3012207 11.07553711 2.29541016 11.85498047 C2.00180618 25.90436697 -1.25868817 38.23533584 -7 51 C-3.37 50.01 0.26 49.02 4 48 C4.19916016 46.19402344 4.19916016 46.19402344 4.40234375 44.3515625 C4.5805302 42.77601915 4.7589265 41.20049953 4.9375 39.625 C5.02451172 38.8309375 5.11152344 38.036875 5.20117188 37.21875 C5.88671875 31.2265625 5.88671875 31.2265625 7 29 C7.66 29 8.32 29 9 29 C9.2170641 41.34853548 8.56691997 53.66798292 8 66 C6.515 65.505 6.515 65.505 5 65 C5 60.71 5 56.42 5 52 C-0.61 53.32 -6.22 54.64 -12 56 C-13 53 -13 53 -12.14453125 50.9765625 C-11.48517578 49.81253906 -11.48517578 49.81253906 -10.8125 48.625 C-3.86472069 35.32772237 -2.00947232 20.90724068 -1.34106445 6.1159668 C-1.09990151 1.09990151 -1.09990151 1.09990151 0 0 Z " fill="#2B7FFF" transform="translate(262,266)"/>
<path d="M0 0 C0.99 0 1.98 0 3 0 C0.35842154 10.07101788 -3.8714587 19.46898428 -8 29 C-6.98421875 28.45730469 -5.9684375 27.91460937 -4.921875 27.35546875 C4.33139862 22.51001976 13.31251737 18 24 18 C24.495 21.96 24.495 21.96 25 26 C24.34 26 23.68 26 23 26 C22.34 24.68 21.68 23.36 21 22 C9.3306727 25.00981209 -0.23863969 28.88234144 -10 36 C-10.66 36 -11.32 36 -12 36 C-12.66 37.32 -13.32 38.64 -14 40 C-14.66 40 -15.32 40 -16 40 C-13.70392443 31.06859881 -10.02562348 22.78075194 -6.3125 14.375 C-5.69934317 12.97549102 -5.08670901 11.57575293 -4.47460938 10.17578125 C-2.98908311 6.78119428 -1.49652968 3.38975294 0 0 Z " fill="#2B7FFF" transform="translate(276,227)"/>
<path d="M0 0 C5.09459883 2.73598826 8.1667679 5.5003037 10 11 C11.41664693 20.4502903 7.58644385 27.64258263 2.42578125 35.3515625 C1.95527344 35.89554688 1.48476563 36.43953125 1 37 C0.34 37 -0.32 37 -1 37 C-0.44036835 33.35603486 0.5089932 30.89740297 2.5 27.8125 C5.27545048 22.97159799 6.32282151 18.58291323 6 13 C4.81158085 9.36871925 3.71742079 7.63301835 0.875 5.125 C-3.14882796 3.55045863 -6.74199901 3.15148531 -11 4 C-13.75569447 6.18159145 -15.43588747 7.87177494 -17 11 C-17.54366163 18.87677204 -16.6941878 26.3156482 -15 34 C-15.66 34 -16.32 34 -17 34 C-21.04754654 24.9833673 -22.92006622 16.0802097 -19.875 6.4375 C-14.49170108 -0.5607886 -8.16011537 -1.81335897 0 0 Z " fill="#2B7FFF" transform="translate(335,97)"/>
<path d="M0 0 C5.63281599 -0.2396943 10.54538831 0.61470179 16 2 C17.42615079 7.51643049 16.60579944 11.95014039 14 17 C10.50389253 19.02774234 8.47904335 19.34565878 4.54296875 18.42578125 C2.3134878 17.70602756 0.15792562 16.9101455 -2 16 C-3.13314263 11.89517207 -2.78328091 9.24049263 -1.5625 5.1875 C-1.27503906 4.21167969 -0.98757813 3.23585937 -0.69140625 2.23046875 C-0.46324219 1.49441406 -0.23507812 0.75835937 0 0 Z M5 4 C8.5527864 6.1490712 8.5527864 6.1490712 11 6 C10.67 6.66 10.34 7.32 10 8 C7.36 7.67 4.72 7.34 2 7 C1.67 8.98 1.34 10.96 1 13 C4.6441774 15.4294516 6.71241272 15.16179575 11 15 C8.1575146 13.42726432 8.1575146 13.42726432 5 13 C5 12.01 5 11.02 5 10 C7.64 10.33 10.28 10.66 13 11 C12.67 9.35 12.34 7.7 12 6 C12.66 6 13.32 6 14 6 C14 5.34 14 4.68 14 4 C11.03 4 8.06 4 5 4 Z " fill="#000000" transform="translate(317,133)"/>
<path d="M0 0 C2.35546875 0.13671875 2.35546875 0.13671875 5 1 C6.80078125 3.14453125 6.80078125 3.14453125 8.3125 5.8125 C8.82425781 6.68519531 9.33601563 7.55789062 9.86328125 8.45703125 C11 11 11 11 11 15 C8.5625 14.625 8.5625 14.625 6 14 C5.67 13.34 5.34 12.68 5 12 C4.67 15.63 4.34 19.26 4 23 C2.68 23.33 1.36 23.66 0 24 C-0.66 20.37 -1.32 16.74 -2 13 C-2.99 13.99 -3.98 14.98 -5 16 C-5.99 16 -6.98 16 -8 16 C-7.68553475 9.86792766 -4.31543778 4.31543778 0 0 Z " fill="#000000" transform="translate(49,67)"/>
<path d="M0 0 C2.754893 0.3585544 3.79992099 0.77321255 5.66796875 2.890625 C6.42013672 4.05851562 6.42013672 4.05851562 7.1875 5.25 C7.95126953 6.40242188 7.95126953 6.40242188 8.73046875 7.578125 C10.04280589 10.08166046 10.59035531 12.2163903 11 15 C6.125 14.125 6.125 14.125 5 13 C4.96261719 13.69867188 4.92523438 14.39734375 4.88671875 15.1171875 C4.82097656 16.02726562 4.75523437 16.93734375 4.6875 17.875 C4.62949219 18.77992188 4.57148438 19.68484375 4.51171875 20.6171875 C4 23 4 23 1 25 C-1.39763185 22.60236815 -1.34280586 21.66726502 -1.625 18.375 C-1.69976562 17.55773437 -1.77453125 16.74046875 -1.8515625 15.8984375 C-1.92503906 14.95871094 -1.92503906 14.95871094 -2 14 C-2.99 14.66 -3.98 15.32 -5 16 C-5.99 16 -6.98 16 -8 16 C-7.50506533 11.24583878 -6.27876594 8.44779417 -3.4375 4.625 C-2.79683594 3.75101562 -2.15617188 2.87703125 -1.49609375 1.9765625 C-1.00238281 1.32429688 -0.50867188 0.67203125 0 0 Z " fill="#000000" transform="translate(194,300)"/>
<path d="M0 0 C0.99 0 1.98 0 3 0 C2.88930176 0.59385498 2.77860352 1.18770996 2.66455078 1.79956055 C-0.2985541 18.13672101 -1.68648881 34.24630935 -2.40380859 50.80737305 C-2.43822556 51.58655594 -2.47264252 52.36573883 -2.50810242 53.16853333 C-2.57126879 54.63545619 -2.63013244 56.10257309 -2.68391418 57.56987 C-2.81889424 60.83150076 -3.02626169 63.87223453 -4 67 C-4.66 67 -5.32 67 -6 67 C-6.27587477 44.08753893 -6.31093026 22.21079826 0 0 Z " fill="#2B7FFF" transform="translate(299,266)"/>
<path d="M0 0 C2.68777802 -0.0544207 5.37443212 -0.09387266 8.0625 -0.125 C8.81466797 -0.14175781 9.56683594 -0.15851563 10.34179688 -0.17578125 C15.29327709 -0.21865121 19.30414451 0.41600625 24 2 C24 2.99 24 3.98 24 5 C23 6 23 6 21.23413086 6.11352539 C20.48526611 6.10828857 19.73640137 6.10305176 18.96484375 6.09765625 C18.15595703 6.09443359 17.34707031 6.09121094 16.51367188 6.08789062 C15.66353516 6.07951172 14.81339844 6.07113281 13.9375 6.0625 C13.08349609 6.05798828 12.22949219 6.05347656 11.34960938 6.04882812 C9.23304337 6.03700373 7.11651315 6.01906769 5 6 C4.93941406 6.68707031 4.87882813 7.37414062 4.81640625 8.08203125 C4.73261719 8.98308594 4.64882812 9.88414062 4.5625 10.8125 C4.48128906 11.70582031 4.40007812 12.59914063 4.31640625 13.51953125 C4 16 4 16 3 19 C2.01 19 1.02 19 0 19 C-1.47899501 16.04200997 -1.13178874 13.3516424 -1.125 10.0625 C-1.12757813 8.81597656 -1.13015625 7.56945312 -1.1328125 6.28515625 C-1 3 -1 3 0 0 Z " fill="#2B7FFF" transform="translate(195,274)"/>
<path d="M0 0 C3.26954202 0.56371414 4.82575883 1.49962266 7 4 C7.7425 3.649375 8.485 3.29875 9.25 2.9375 C12.1322726 1.95490707 13.21176345 1.9673198 16 3 C14.3341708 9.16356805 11.12194714 14.48259656 8 20 C7.34 20 6.68 20 6 20 C6.59924224 15.80530429 7.57499941 11.99000166 9 8 C7.35 8 5.7 8 4 8 C4 11.3 4 14.6 4 18 C3.34 18 2.68 18 2 18 C0.59545452 11.88019467 -0.23268915 6.28260706 0 0 Z " fill="#000000" transform="translate(322,112)"/>
<path d="M0 0 C0.99 0 1.98 0 3 0 C0.95430322 7.55494115 -1.82414065 14.60431646 -5 21.75 C-5.43828125 22.75160156 -5.8765625 23.75320312 -6.328125 24.78515625 C-7.53564446 27.53117188 -8.76338365 30.26699198 -10 33 C-10.53625 34.20140625 -11.0725 35.4028125 -11.625 36.640625 C-13 39 -13 39 -16 40 C-13.70392443 31.06859881 -10.02562348 22.78075194 -6.3125 14.375 C-5.69934317 12.97549102 -5.08670901 11.57575293 -4.47460938 10.17578125 C-2.98908311 6.78119428 -1.49652968 3.38975294 0 0 Z " fill="#1A1B1C" transform="translate(276,227)"/>
<path d="M0 0 C2.75 2.5 2.75 2.5 5 5 C5.99 5.33 6.98 5.66 8 6 C8 6.99 8 7.98 8 9 C4.76280569 8.64031174 3.36091691 8.3970086 1.125 5.9375 C-0.95875186 3.69340301 -0.95875186 3.69340301 -4.4375 3.375 C-8.18622958 4.03267186 -8.65471986 4.26325791 -10.9375 7 C-11.618125 7.99 -12.29875 8.98 -13 10 C-13.66 9.34 -14.32 8.68 -15 8 C-13.61430622 4.71809368 -12.46977155 2.4045255 -9.75 0.0625 C-5.99753045 -1.38731778 -3.85404289 -1.10115511 0 0 Z " fill="#000000" transform="translate(279,214)"/>
<path d="M0 0 C8.25 0 16.5 0 25 0 C25 0.66 25 1.32 25 2 C22.44276771 3.27861615 20.63262898 3.11336609 17.7734375 3.09765625 C16.7421875 3.09443359 15.7109375 3.09121094 14.6484375 3.08789062 C13.02808594 3.07532227 13.02808594 3.07532227 11.375 3.0625 C9.74304688 3.05573242 9.74304688 3.05573242 8.078125 3.04882812 C5.38536211 3.03701776 2.69270812 3.02054778 0 3 C0 2.01 0 1.02 0 0 Z " fill="#000000" transform="translate(309,302)"/>
<path d="M0 0 C2.3125 1.375 2.3125 1.375 3.125 3.5 C3.186875 4.11875 3.24875 4.7375 3.3125 5.375 C2.260625 5.1275 1.20875 4.88 0.125 4.625 C-3.6977368 4.00246262 -3.6977368 4.00246262 -6.5 6.125 C-8.81627476 8.37068449 -8.81627476 8.37068449 -10.6875 11.375 C-11.6775 11.375 -12.6675 11.375 -13.6875 11.375 C-12.04934724 6.16269577 -9.07962539 3.09434012 -4.6875 -0.0625 C-2.6875 -0.625 -2.6875 -0.625 0 0 Z " fill="#000000" transform="translate(289.6875,183.625)"/>
<path d="M0 0 C-1.38339992 4.21002246 -3.30081702 6.7067203 -6.4375 9.8125 C-7.21996094 10.60269531 -8.00242187 11.39289063 -8.80859375 12.20703125 C-11 14 -11 14 -14 14 C-12.66445565 10.02119078 -11.01381696 7.65301487 -8 4.75 C-6.948125 3.72132813 -6.948125 3.72132813 -5.875 2.671875 C-3.81008923 0.8306629 -2.7842857 0 0 0 Z " fill="#2B7FFF" transform="translate(337,247)"/>
<path d="M0 0 C0.99 0.33 1.98 0.66 3 1 C3 2.65 3 4.3 3 6 C5.31 6 7.62 6 10 6 C9.67 6.99 9.34 7.98 9 9 C7.02 9 5.04 9 3 9 C2.67 10.32 2.34 11.64 2 13 C1.34 13 0.68 13 0 13 C0 8.71 0 4.42 0 0 Z " fill="#000000" transform="translate(209,289)"/>
<path d="M0 0 C2.95061143 -0.31898502 4.44098326 -0.4433581 6.8125 1.4375 C8.56430583 5.21771259 8.41218815 8.8939719 8 13 C7.67 13.66 7.34 14.32 7 15 C6.34 15 5.68 15 5 15 C4.93941406 14.37351563 4.87882812 13.74703125 4.81640625 13.1015625 C4.73261719 12.28429687 4.64882813 11.46703125 4.5625 10.625 C4.48128906 9.81289062 4.40007812 9.00078125 4.31640625 8.1640625 C4.10909886 5.95727195 4.10909886 5.95727195 3 4 C0.98330173 2.86649466 0.98330173 2.86649466 -1 2 C-0.67 1.34 -0.34 0.68 0 0 Z " fill="#000000" transform="translate(268,193)"/>
<path d="M0 0 C-1.0477268 3.37600856 -2.11226633 4.06476904 -5.25 5.875 C-9.47793077 7.14337923 -11.12930332 7.02750779 -15 5 C-15.33 4.01 -15.66 3.02 -16 2 C-15.39671875 2.02320313 -14.7934375 2.04640625 -14.171875 2.0703125 C-13.37265625 2.08835938 -12.5734375 2.10640625 -11.75 2.125 C-10.56664062 2.15980469 -10.56664062 2.15980469 -9.359375 2.1953125 C-5.80423468 1.9010128 -3.63322075 0 0 0 Z " fill="#000000" transform="translate(314,222)"/>
<path d="M0 0 C0.66 0.33 1.32 0.66 2 1 C2.027193 2.58323688 2.04648306 4.16661062 2.0625 5.75 C2.07410156 6.63171875 2.08570313 7.5134375 2.09765625 8.421875 C2.00826198 10.7818838 1.66912821 12.74498524 1 15 C0.01 15 -0.98 15 -2 15 C-1.85973717 12.68715544 -1.71264442 10.37472409 -1.5625 8.0625 C-1.48128906 6.77472656 -1.40007812 5.48695313 -1.31640625 4.16015625 C-1 1 -1 1 0 0 Z " fill="#000000" transform="translate(386,313)"/>
<path d="M0 0 C0.66 0 1.32 0 2 0 C2.05447047 1.41623216 2.09300508 2.83308191 2.125 4.25 C2.14820313 5.03890625 2.17140625 5.8278125 2.1953125 6.640625 C1.9828378 9.20731941 1.28654105 10.7916067 0 13 C-0.66 12.67 -1.32 12.34 -2 12 C-1.85962479 10.18706911 -1.71255111 8.3746557 -1.5625 6.5625 C-1.48128906 5.55316406 -1.40007812 4.54382813 -1.31640625 3.50390625 C-1 1 -1 1 0 0 Z " fill="#2B7FFF" transform="translate(333,74)"/>
<path d="M0 0 C4.25177923 0.47241991 6.29969203 2.84964071 9 6 C9 6.99 9 7.98 9 9 C4.5937814 7.65365543 2.56922298 5.80625626 0 2 C0 1.34 0 0.68 0 0 Z " fill="#2B7FFF" transform="translate(304,86)"/>
<path d="M0 0 C-0.33 0.99 -0.66 1.98 -1 3 C-3.06640625 3.94921875 -3.06640625 3.94921875 -5.5625 4.6875 C-6.38878906 4.93886719 -7.21507812 5.19023438 -8.06640625 5.44921875 C-8.70449219 5.63097656 -9.34257812 5.81273438 -10 6 C-10 4.68 -10 3.36 -10 2 C-6.49223216 0.39644899 -3.85645121 -0.22036864 0 0 Z " fill="#2B7FFF" transform="translate(359,92)"/>
<path d="M0 0 C3.63 0 7.26 0 11 0 C11 0.99 11 1.98 11 3 C7.37 3 3.74 3 0 3 C0 2.01 0 1.02 0 0 Z " fill="#2B7FFF" transform="translate(353,115)"/>
<path d="M0 0 C0.99 0.33 1.98 0.66 3 1 C3 4.3 3 7.6 3 11 C2.01 11 1.02 11 0 11 C0 7.37 0 3.74 0 0 Z " fill="#000000" transform="translate(351,321)"/>
<path d="M0 0 C0.99 0 1.98 0 3 0 C3.1875 3.375 3.1875 3.375 3 7 C2.01 7.66 1.02 8.32 0 9 C-1 8 -1 8 -1.125 5.0625 C-1 2 -1 2 0 0 Z " fill="#000000" transform="translate(308,199)"/>
<path d="M0 0 C2.97 0 5.94 0 9 0 C8.67 0.99 8.34 1.98 8 3 C5.03 3 2.06 3 -1 3 C-0.67 2.01 -0.34 1.02 0 0 Z " fill="#2B7FFF" transform="translate(296,114)"/>
<path d="M0 0 C2.64 0.66 5.28 1.32 8 2 C8 2.66 8 3.32 8 4 C2.25 4.125 2.25 4.125 0 3 C0 2.01 0 1.02 0 0 Z " fill="#000000" transform="translate(317,151)"/>
</svg>
