<svg width="792" height="154" viewBox="0 0 792 154" fill="none" xmlns="http://www.w3.org/2000/svg">
<path d="M128.832 115.445C125.873 115.445 123.396 115.135 121.4 114.516C119.404 113.897 117.753 113.277 116.445 112.658C115.138 112.039 114.002 111.729 113.039 111.729C111.387 111.729 110.183 112.796 109.426 114.929H105.4C105.606 113.14 105.744 111.282 105.813 109.355C105.882 107.359 105.916 105.157 105.916 102.748C105.985 100.271 105.985 97.4151 105.916 94.1806H109.839C110.94 99.8925 112.97 104.194 115.929 107.084C118.888 109.905 122.742 111.316 127.49 111.316C130.862 111.316 133.443 110.594 135.232 109.148C137.09 107.703 138.019 105.708 138.019 103.161C138.019 100.684 137.022 98.6538 135.026 97.071C133.099 95.4882 129.692 94.0086 124.806 92.6323C118.544 90.7742 113.968 88.4 111.077 85.5097C108.187 82.6194 106.742 79.0065 106.742 74.671C106.742 69.9914 108.29 66.2753 111.387 63.5226C114.484 60.7011 118.647 59.2903 123.877 59.2903C126.63 59.2903 128.935 59.6 130.794 60.2194C132.72 60.7699 134.338 61.3892 135.645 62.0774C136.953 62.6968 138.123 63.0065 139.155 63.0065C139.843 63.0065 140.428 62.7656 140.91 62.2839C141.391 61.7333 141.804 60.9075 142.148 59.8065H146.174C146.037 61.3204 145.933 62.9032 145.865 64.5548C145.796 66.1376 145.727 67.9957 145.658 70.129C145.658 72.1935 145.692 74.7742 145.761 77.871H141.735C140.841 73.2602 138.948 69.6817 136.058 67.1355C133.168 64.5892 129.692 63.3161 125.632 63.3161C122.811 63.3161 120.609 63.9699 119.026 65.2774C117.443 66.5849 116.652 68.443 116.652 70.8516C116.652 73.329 117.718 75.428 119.852 77.1484C121.985 78.8 125.667 80.3828 130.897 81.8968C136.884 83.5484 141.219 85.7161 143.903 88.4C146.587 91.0151 147.929 94.5247 147.929 98.929C147.929 104.09 146.209 108.151 142.768 111.11C139.396 114 134.751 115.445 128.832 115.445ZM186.685 115.445C181.73 115.445 177.291 114.447 173.369 112.452C169.515 110.387 166.452 107.29 164.181 103.161C161.979 99.0323 160.878 93.7677 160.878 87.3677C160.878 80.9677 161.979 75.7032 164.181 71.5742C166.452 67.3763 169.515 64.2796 173.369 62.2839C177.291 60.2882 181.764 59.2903 186.788 59.2903C191.812 59.2903 196.25 60.2882 200.104 62.2839C203.958 64.2796 206.986 67.3763 209.188 71.5742C211.459 75.7032 212.594 80.9677 212.594 87.3677C212.594 93.7677 211.459 99.0323 209.188 103.161C206.986 107.29 203.923 110.387 200.001 112.452C196.147 114.447 191.708 115.445 186.685 115.445ZM186.788 111.419C190.435 111.419 193.429 109.527 195.769 105.742C198.108 101.888 199.278 95.7634 199.278 87.3677C199.278 78.9032 198.074 72.7785 195.665 68.9935C193.326 65.1398 190.366 63.2129 186.788 63.2129C183.072 63.2129 180.009 65.1398 177.601 68.9935C175.261 72.7785 174.091 78.9032 174.091 87.3677C174.091 95.7634 175.261 101.888 177.601 105.742C180.009 109.527 183.072 111.419 186.788 111.419ZM291.377 114V109.974C293.924 109.905 295.678 109.355 296.642 108.323C297.605 107.222 298.087 105.295 298.087 102.542V77.3548C298.087 73.4323 297.33 70.4731 295.816 68.4774C294.371 66.4817 292.203 65.4839 289.313 65.4839C286.835 65.4839 284.461 66.2409 282.19 67.7548C279.988 69.2688 278.061 71.7118 276.41 75.0839L275.894 71.471C277.752 67.2043 280.332 64.1075 283.635 62.1806C286.939 60.2538 290.517 59.2903 294.371 59.2903C299.601 59.2903 303.592 60.9419 306.345 64.2452C309.167 67.5484 310.577 72.2968 310.577 78.4903V102.542C310.577 105.295 311.334 107.222 312.848 108.323C314.431 109.355 317.184 109.905 321.106 109.974V114C320.074 113.931 318.629 113.897 316.771 113.897C314.982 113.828 313.02 113.759 310.887 113.69C308.754 113.622 306.655 113.587 304.59 113.587C302.044 113.587 299.532 113.656 297.055 113.794C294.577 113.862 292.685 113.931 291.377 114ZM221.906 114V109.974C225.829 109.905 228.547 109.355 230.061 108.323C231.575 107.222 232.332 105.295 232.332 102.542V73.8452C232.332 70.5419 231.541 68.2366 229.958 66.929C228.444 65.5527 225.76 64.8301 221.906 64.7613V60.7355C223.352 60.8043 224.797 60.8731 226.242 60.9419C227.687 61.0108 229.167 61.0452 230.681 61.0452C233.365 61.0452 235.876 60.9419 238.216 60.7355C240.625 60.4602 242.861 60.0817 244.926 59.6V102.542C244.926 105.295 245.408 107.222 246.371 108.323C247.334 109.355 249.055 109.905 251.532 109.974V114C250.087 113.931 248.195 113.862 245.855 113.794C243.584 113.656 241.175 113.587 238.629 113.587C235.739 113.587 232.711 113.656 229.545 113.794C226.448 113.862 223.902 113.931 221.906 114ZM258.552 114V109.974C261.098 109.905 262.818 109.355 263.713 108.323C264.676 107.222 265.158 105.295 265.158 102.542V77.3548C265.158 73.4323 264.435 70.4731 262.99 68.4774C261.545 66.4817 259.377 65.4839 256.487 65.4839C254.078 65.4839 251.842 66.172 249.777 67.5484C247.713 68.9247 245.924 70.9548 244.41 73.6387V69.2C246.061 66.0344 248.401 63.5914 251.429 61.871C254.457 60.1505 257.863 59.2903 261.648 59.2903C266.81 59.2903 270.767 60.9419 273.519 64.2452C276.341 67.4796 277.752 72.1591 277.752 78.2839V102.542C277.752 105.295 278.233 107.222 279.197 108.323C280.16 109.355 281.915 109.905 284.461 109.974V114C283.291 113.931 281.468 113.862 278.99 113.794C276.513 113.656 274.07 113.587 271.661 113.587C269.184 113.587 266.706 113.656 264.229 113.794C261.752 113.862 259.859 113.931 258.552 114ZM354.81 115.445C349.855 115.445 345.416 114.447 341.494 112.452C337.64 110.387 334.577 107.29 332.306 103.161C330.104 99.0323 329.003 93.7677 329.003 87.3677C329.003 80.9677 330.104 75.7032 332.306 71.5742C334.577 67.3763 337.64 64.2796 341.494 62.2839C345.416 60.2882 349.889 59.2903 354.913 59.2903C359.937 59.2903 364.375 60.2882 368.229 62.2839C372.083 64.2796 375.111 67.3763 377.313 71.5742C379.584 75.7032 380.719 80.9677 380.719 87.3677C380.719 93.7677 379.584 99.0323 377.313 103.161C375.111 107.29 372.048 110.387 368.126 112.452C364.272 114.447 359.833 115.445 354.81 115.445ZM354.913 111.419C358.56 111.419 361.554 109.527 363.894 105.742C366.233 101.888 367.403 95.7634 367.403 87.3677C367.403 78.9032 366.199 72.7785 363.79 68.9935C361.451 65.1398 358.491 63.2129 354.913 63.2129C351.197 63.2129 348.134 65.1398 345.726 68.9935C343.386 72.7785 342.216 78.9032 342.216 87.3677C342.216 95.7634 343.386 101.888 345.726 105.742C348.134 109.527 351.197 111.419 354.913 111.419ZM415.197 115.445C409.898 115.445 405.906 113.966 403.223 111.006C400.608 107.978 399.3 103.471 399.3 97.4839V64.7613H387.532V60.7355H399.3V45.4581C401.709 45.4581 403.945 45.3204 406.01 45.0452C408.074 44.7011 410.001 44.2538 411.79 43.7032V60.7355H428.306V64.7613H411.79V100.684C411.79 103.574 412.375 105.708 413.545 107.084C414.715 108.46 416.47 109.148 418.81 109.148C421.012 109.148 422.835 108.46 424.281 107.084C425.795 105.708 426.999 103.643 427.894 100.89L431.094 102.129C429.786 106.74 427.859 110.112 425.313 112.245C422.767 114.378 419.395 115.445 415.197 115.445ZM436.281 114V109.974C440.273 109.905 442.991 109.355 444.436 108.323C445.95 107.222 446.707 105.295 446.707 102.542V73.8452C446.707 70.6108 445.916 68.3054 444.333 66.929C442.75 65.5527 440.066 64.8301 436.281 64.7613V60.7355C438.002 60.8043 439.55 60.8731 440.927 60.9419C442.303 61.0108 443.783 61.0452 445.365 61.0452C450.595 61.0452 455.241 60.5634 459.301 59.6V101.819C459.301 104.778 460.299 106.877 462.294 108.116C464.29 109.286 467.765 109.905 472.72 109.974V114C471.481 113.931 469.761 113.897 467.559 113.897C465.426 113.828 463.086 113.759 460.54 113.69C458.062 113.622 455.653 113.587 453.314 113.587C449.873 113.587 446.57 113.656 443.404 113.794C440.238 113.862 437.864 113.931 436.281 114ZM477.572 78.9032C475.92 78.9032 474.578 78.4559 473.546 77.5613C472.583 76.6667 472.101 75.4624 472.101 73.9484C472.101 72.9849 472.273 72.1247 472.617 71.3677C473.03 70.6108 473.408 69.8882 473.752 69.2C474.097 68.5118 474.269 67.8237 474.269 67.1355C474.269 65.6903 473.236 64.9677 471.172 64.9677C469.658 64.9677 468.075 65.3462 466.423 66.1032C464.841 66.8602 463.361 67.8925 461.985 69.2C460.677 70.4387 459.679 71.8839 458.991 73.5355L458.785 69.2C460.505 66.1032 462.776 63.6946 465.598 61.9742C468.488 60.1849 471.516 59.2903 474.681 59.2903C477.916 59.2903 480.462 60.2194 482.32 62.0774C484.247 63.9355 485.21 66.4817 485.21 69.7161C485.21 72.4688 484.488 74.7054 483.043 76.4258C481.666 78.0774 479.843 78.9032 477.572 78.9032ZM508.177 115.445C503.567 115.445 499.919 114.241 497.235 111.832C494.552 109.424 493.21 106.189 493.21 102.129C493.21 98.9634 493.932 96.3828 495.377 94.3871C496.891 92.3914 498.853 90.8086 501.261 89.6387C503.67 88.4 506.182 87.4022 508.797 86.6452C511.481 85.8194 513.992 85.0624 516.332 84.3742C518.741 83.686 520.702 82.8602 522.216 81.8968C523.73 80.9333 524.487 79.6258 524.487 77.9742V73.1226C524.487 69.957 523.592 67.5484 521.803 65.8968C520.083 64.2452 517.502 63.4194 514.061 63.4194C511.515 63.4194 509.416 63.7979 507.765 64.5548C506.182 65.243 505.39 66.1376 505.39 67.2387C505.39 67.9269 505.631 68.6839 506.113 69.5097C506.595 70.3355 507.076 71.1957 507.558 72.0903C508.109 72.9849 508.384 73.9484 508.384 74.9806C508.384 76.4258 507.799 77.5957 506.629 78.4903C505.528 79.3849 504.083 79.8323 502.294 79.8323C500.16 79.8323 498.44 79.2129 497.132 77.9742C495.894 76.6667 495.274 74.9118 495.274 72.7097C495.274 70.0946 496.238 67.7892 498.165 65.7935C500.16 63.729 502.844 62.1462 506.216 61.0452C509.657 59.8753 513.545 59.2903 517.881 59.2903C522.423 59.2903 526.104 59.9441 528.926 61.2516C531.747 62.4903 533.812 64.5204 535.119 67.3419C536.427 70.1634 537.081 73.8796 537.081 78.4903V105.329C537.081 106.981 537.322 108.185 537.803 108.942C538.354 109.63 539.18 109.974 540.281 109.974C541.313 109.974 542.345 109.733 543.377 109.252C544.41 108.77 545.442 108.151 546.474 107.394L548.229 110.697C546.44 112.211 544.478 113.381 542.345 114.206C540.212 115.032 537.769 115.445 535.016 115.445C528.134 115.445 524.659 112.52 524.59 106.671C522.595 109.63 520.22 111.832 517.468 113.277C514.715 114.723 511.618 115.445 508.177 115.445ZM513.752 108.323C515.816 108.323 517.777 107.841 519.635 106.877C521.494 105.845 523.111 104.366 524.487 102.439V83.5484C523.868 84.6495 522.835 85.5785 521.39 86.3355C519.945 87.0925 518.328 87.8495 516.539 88.6065C514.818 89.2946 513.132 90.1204 511.481 91.0839C509.829 92.0473 508.453 93.2516 507.352 94.6968C506.319 96.1419 505.803 98 505.803 100.271C505.803 102.817 506.491 104.813 507.868 106.258C509.313 107.634 511.274 108.323 513.752 108.323ZM580.049 115.445C574.957 115.445 570.552 114.344 566.836 112.142C563.189 109.871 560.367 106.671 558.372 102.542C556.376 98.3441 555.378 93.3892 555.378 87.6774C555.378 81.828 556.41 76.7699 558.475 72.5032C560.608 68.2366 563.602 64.9677 567.456 62.6968C571.378 60.4258 575.989 59.2903 581.288 59.2903C585.21 59.2903 588.651 59.8753 591.61 61.0452C594.638 62.2151 597.013 63.8667 598.733 66C600.453 68.0645 601.314 70.4387 601.314 73.1226C601.314 75.6688 600.557 77.7677 599.043 79.4194C597.529 81.0022 595.499 81.7935 592.952 81.7935C591.094 81.7935 589.58 81.3118 588.41 80.3484C587.241 79.3161 586.656 78.0086 586.656 76.4258C586.656 74.9806 587 73.7419 587.688 72.7097C588.445 71.6774 589.167 70.714 589.856 69.8194C590.613 68.8559 590.991 67.8925 590.991 66.929C590.991 65.8968 590.337 65.071 589.03 64.4516C587.791 63.8323 586.14 63.5226 584.075 63.5226C579.12 63.5226 575.301 65.5183 572.617 69.5097C569.933 73.4323 568.591 79.0065 568.591 86.2323C568.591 93.5269 569.899 99.1011 572.514 102.955C575.198 106.809 579.017 108.735 583.972 108.735C587.206 108.735 590.028 107.875 592.436 106.155C594.914 104.366 596.978 101.751 598.63 98.3097L602.243 100.477C600.453 105.295 597.632 109.011 593.778 111.626C589.924 114.172 585.348 115.445 580.049 115.445ZM608.809 114V109.974C612.869 109.768 615.622 109.148 617.067 108.116C618.581 107.084 619.338 105.226 619.338 102.542V47.4194C619.338 44.1161 618.547 41.8108 616.964 40.5032C615.381 39.1269 612.663 38.4043 608.809 38.3355V34.3097C610.529 34.3785 612.078 34.4473 613.454 34.5161C614.899 34.5849 616.31 34.6194 617.686 34.6194C622.71 34.6194 627.458 34.1376 631.931 33.1742V102.542C631.931 105.226 632.413 107.084 633.377 108.116C634.409 109.148 636.336 109.768 639.157 109.974V114C637.643 113.931 635.613 113.862 633.067 113.794C630.59 113.656 628.147 113.587 625.738 113.587C622.641 113.587 619.476 113.656 616.241 113.794C613.007 113.862 610.529 113.931 608.809 114ZM646.899 114V109.974C649.583 109.699 651.235 109.148 651.854 108.323C652.473 107.428 652.301 105.914 651.338 103.781L647.312 94.2839C646.142 91.6688 644.835 89.8796 643.39 88.9161C641.944 87.8839 639.914 87.3677 637.299 87.3677H630.177V83.3419H638.641C640.774 83.3419 642.564 82.9978 644.009 82.3097C645.523 81.6215 646.934 80.4172 648.241 78.6968L650.512 75.7032C651.682 74.1892 652.405 72.8129 652.68 71.5742C653.024 70.2667 652.886 69.1312 652.267 68.1677C651.716 67.1355 650.684 66.3441 649.17 65.7935C647.725 65.1742 645.833 64.8301 643.493 64.7613V60.7355C645.557 60.8043 647.828 60.8731 650.306 60.9419C652.852 61.0108 655.57 61.0452 658.46 61.0452C660.319 61.0452 662.005 61.0452 663.519 61.0452C665.101 60.9763 666.615 60.9419 668.06 60.9419C669.506 60.8731 670.951 60.8043 672.396 60.7355V64.7613C669.919 65.243 667.751 65.8968 665.893 66.7226C664.035 67.4796 662.383 68.4774 660.938 69.7161C659.493 70.9548 658.013 72.5376 656.499 74.4645L648.757 84.7871L646.796 82.1032C649.205 82.3785 651.166 82.8946 652.68 83.6516C654.263 84.4086 655.639 85.5785 656.809 87.1613C658.048 88.7441 659.252 90.9118 660.422 93.6645L663.828 101.2C664.792 103.333 665.79 105.019 666.822 106.258C667.854 107.428 669.127 108.288 670.641 108.839C672.224 109.389 674.22 109.768 676.628 109.974V114C674.22 113.931 672.121 113.897 670.331 113.897C668.542 113.828 666.925 113.794 665.48 113.794C664.103 113.725 662.693 113.69 661.248 113.69C659.045 113.69 656.878 113.725 654.744 113.794C652.68 113.794 650.065 113.862 646.899 114ZM707.234 115.445C702.141 115.445 697.703 114.344 693.918 112.142C690.202 109.871 687.311 106.637 685.247 102.439C683.251 98.2409 682.253 93.2516 682.253 87.471C682.253 81.5527 683.285 76.4946 685.35 72.2968C687.483 68.0989 690.511 64.8989 694.434 62.6968C698.356 60.4258 702.967 59.2903 708.266 59.2903C712.946 59.2903 716.937 60.1849 720.24 61.9742C723.544 63.6946 726.055 66.4129 727.776 70.129C729.565 73.8452 730.391 78.6624 730.253 84.5806H691.027L690.821 80.6581H718.382C718.451 77.286 718.107 74.2925 717.35 71.6774C716.662 69.0624 715.526 66.9979 713.944 65.4839C712.361 63.9699 710.331 63.2129 707.853 63.2129C704.688 63.2129 701.935 64.6925 699.595 67.6516C697.255 70.5419 695.879 75.1527 695.466 81.4839L695.673 81.7935C695.604 82.4817 695.535 83.2043 695.466 83.9613C695.466 84.7183 695.466 85.5785 695.466 86.5419C695.466 93.5613 696.808 99.0323 699.492 102.955C702.176 106.809 706.064 108.735 711.156 108.735C714.597 108.735 717.591 107.91 720.137 106.258C722.752 104.538 724.954 101.888 726.744 98.3097L730.356 100.477C728.43 105.226 725.47 108.908 721.479 111.523C717.488 114.138 712.739 115.445 707.234 115.445ZM739.656 114V109.974C743.648 109.905 746.366 109.355 747.811 108.323C749.325 107.222 750.082 105.295 750.082 102.542V73.8452C750.082 70.6108 749.291 68.3054 747.708 66.929C746.125 65.5527 743.441 64.8301 739.656 64.7613V60.7355C741.377 60.8043 742.925 60.8731 744.302 60.9419C745.678 61.0108 747.158 61.0452 748.74 61.0452C753.97 61.0452 758.616 60.5634 762.676 59.6V101.819C762.676 104.778 763.674 106.877 765.669 108.116C767.665 109.286 771.14 109.905 776.095 109.974V114C774.856 113.931 773.136 113.897 770.934 113.897C768.801 113.828 766.461 113.759 763.915 113.69C761.437 113.622 759.028 113.587 756.689 113.587C753.248 113.587 749.945 113.656 746.779 113.794C743.613 113.862 741.239 113.931 739.656 114ZM780.947 78.9032C779.295 78.9032 777.953 78.4559 776.921 77.5613C775.958 76.6667 775.476 75.4624 775.476 73.9484C775.476 72.9849 775.648 72.1247 775.992 71.3677C776.405 70.6108 776.783 69.8882 777.127 69.2C777.472 68.5118 777.644 67.8237 777.644 67.1355C777.644 65.6903 776.611 64.9677 774.547 64.9677C773.033 64.9677 771.45 65.3462 769.798 66.1032C768.216 66.8602 766.736 67.8925 765.36 69.2C764.052 70.4387 763.054 71.8839 762.366 73.5355L762.16 69.2C763.88 66.1032 766.151 63.6946 768.973 61.9742C771.863 60.1849 774.891 59.2903 778.056 59.2903C781.291 59.2903 783.837 60.2194 785.695 62.0774C787.622 63.9355 788.585 66.4817 788.585 69.7161C788.585 72.4688 787.863 74.7054 786.418 76.4258C785.041 78.0774 783.218 78.9032 780.947 78.9032Z" fill="white"/>
<rect x="21" y="61" width="66" height="20" rx="10" fill="#2563EF"/>
<rect y="95" width="66" height="20" rx="10" fill="#2563EF"/>
</svg>
