<?xml version="1.0" encoding="UTF-8" standalone="no"?>
<svg
   width="1031"
   height="1031"
   viewBox="0 0 1031 1031"
   fill="none"
   version="1.1"
   id="svg46"
   sodipodi:docname="moneyloss.svg"
   inkscape:version="1.4.1 (93de688d, 2025-03-30)"
   xmlns:inkscape="http://www.inkscape.org/namespaces/inkscape"
   xmlns:sodipodi="http://sodipodi.sourceforge.net/DTD/sodipodi-0.dtd"
   xmlns="http://www.w3.org/2000/svg"
   xmlns:svg="http://www.w3.org/2000/svg">
  <defs
     id="defs46" />
  <sodipodi:namedview
     id="namedview46"
     pagecolor="#ffffff"
     bordercolor="#666666"
     borderopacity="1.0"
     inkscape:showpageshadow="2"
     inkscape:pageopacity="0.0"
     inkscape:pagecheckerboard="0"
     inkscape:deskcolor="#d1d1d1"
     inkscape:zoom="0.87951528"
     inkscape:cx="557.12505"
     inkscape:cy="182.48688"
     inkscape:window-width="1552"
     inkscape:window-height="758"
     inkscape:window-x="0"
     inkscape:window-y="30"
     inkscape:window-maximized="0"
     inkscape:current-layer="svg46" />
  <path
     d="M101.12 280.355C101.61 279.581 102.358 279.656 106.007 280.855C108.376 281.633 111.142 282.698 112.155 283.221C113.162 283.742 114.657 284.18 115.472 284.19C116.286 284.203 118.114 284.773 119.531 285.458C120.949 286.144 122.777 286.713 123.591 286.726C124.406 286.737 125.89 287.17 126.888 287.685C127.885 288.201 130.409 288.902 132.494 289.242C134.579 289.582 137.118 290.18 138.136 290.572C139.151 290.964 141.762 291.559 143.935 291.892C146.106 292.224 149.915 292.943 152.395 293.487C154.874 294.034 158.065 294.479 159.483 294.479C160.9 294.482 164.236 294.928 166.893 295.474C173.275 296.786 203.349 297.49 209.744 296.477C212.226 296.085 216.719 295.472 219.732 295.113C226.869 294.263 237.2 292.106 241.537 290.554C243.429 289.879 245.749 289.319 246.692 289.312C247.636 289.304 249.669 288.721 251.216 288.023C252.76 287.319 254.482 286.747 255.038 286.747C255.598 286.747 257.307 286.167 258.835 285.458C260.364 284.749 262.869 283.589 264.397 282.881C265.926 282.172 267.403 281.592 267.678 281.592C267.954 281.592 268.916 281.012 269.818 280.303C270.717 279.594 271.839 279.014 272.305 279.014C273.888 279.014 281.592 273.318 281.592 272.151C281.592 271.042 279.509 269.996 277.285 269.985C275.46 269.975 268.287 267.825 262.905 265.671C252.786 261.619 243.901 253.977 242.643 248.247C242.391 247.102 241.919 246.002 241.592 245.798C240.584 245.174 240.932 243.187 242.259 241.986C242.952 241.36 245.489 240.156 247.896 239.313C251.682 237.986 253.466 237.78 261.108 237.777C268.431 237.774 270.506 237.996 273.215 239.063C275.014 239.772 277.161 240.352 277.983 240.352C278.811 240.352 280.223 240.932 281.123 241.641C282.025 242.349 283.12 242.929 283.561 242.929C284.827 242.929 289.569 247.092 290.621 249.131C291.149 250.152 291.961 251.386 292.428 251.876C293.211 252.706 293.219 260.137 292.44 267.075C292.082 270.253 293.487 270.519 315.133 271.346C339.565 272.282 371.943 271.349 395.324 269.032C400.994 268.472 408.098 267.604 411.111 267.106C414.124 266.609 418.473 266.021 420.777 265.802C423.081 265.58 426.849 265.011 429.154 264.537C434.963 263.333 440.183 262.338 446.23 261.273C449.065 260.773 452.98 259.954 454.929 259.449C469.278 255.742 472.327 255.317 472.327 257.039C472.327 258.358 470.36 259.513 467.427 259.915C465.741 260.145 462.893 260.755 461.097 261.268C456.065 262.707 440.585 265.49 421.171 268.452C412.797 269.728 388.576 272.38 380.826 272.867C377.459 273.078 372.384 273.408 369.549 273.599C337.356 275.756 321.705 275.61 293.028 272.883C291.363 272.723 289.698 272.566 288.033 272.408C287.072 273.295 286.11 274.182 285.149 275.068C283.564 276.53 281.989 277.726 281.651 277.726C281.316 277.726 280.636 278.128 280.143 278.62C278.37 280.396 266.065 286.177 257.75 289.144C254.458 290.319 252.074 291.067 240.996 294.387C238.692 295.075 235.504 295.82 233.908 296.039C232.313 296.255 229.124 296.856 226.82 297.374C216.005 299.792 191.756 301.343 179.933 300.374C167.535 299.359 158.795 298.413 154.65 297.639C152.701 297.276 148.93 296.593 146.273 296.121C139.084 294.848 127.694 291.961 121.465 289.837C120.4 289.474 118.227 288.783 116.632 288.301C108.273 285.778 100.515 282.618 100.533 281.749C100.538 281.486 100.803 280.86 101.12 280.355ZM289.497 254.85C289.067 253.139 286.819 249.981 284.976 248.507C282.641 246.638 277.785 244.218 276.37 244.218C275.664 244.218 274.156 243.726 273.022 243.123C269.771 241.396 254.634 241.117 250.407 242.71C246.414 244.213 245.656 245.334 246.79 248.074C247.757 250.404 255.52 258.394 256.817 258.394C257.281 258.394 258.046 258.784 258.521 259.258C258.997 259.732 261.266 260.92 263.562 261.895C265.859 262.872 268.609 264.039 269.673 264.49C270.738 264.941 272.622 265.519 273.862 265.771C275.102 266.024 278.048 266.836 280.409 267.575C284.528 268.869 284.778 268.877 286.425 267.797C287.371 267.179 288.554 265.689 289.056 264.488C289.938 262.374 290.162 257.503 289.497 254.85Z"
     fill="#151617"
     id="path1" />
  <path
     d="M717.349 123.22C717.798 122.854 725.561 122.238 734.742 121.838C743.864 121.442 752.035 120.849 752.898 120.519C753.764 120.189 758.187 119.735 762.731 119.508C767.275 119.282 774.866 118.539 779.596 117.864C784.328 117.186 789.403 116.629 790.872 116.627C792.344 116.624 796.303 116.194 799.669 115.668C803.035 115.142 808.835 114.41 812.557 114.036C816.279 113.663 821.063 112.956 823.189 112.464C825.315 111.974 828.939 111.379 831.244 111.147C833.548 110.915 837.028 110.34 838.976 109.871C844.69 108.497 849.742 108.072 850.266 108.923C851.289 110.577 848.704 111.632 841.458 112.516C837.435 113.005 832.112 113.725 829.633 114.111C827.153 114.495 822.222 115.191 818.678 115.65C815.134 116.111 811.799 116.663 811.268 116.874C810.737 117.086 807.982 117.529 805.146 117.861C802.311 118.191 796.656 118.921 792.581 119.48C777.32 121.578 765.615 123.029 758.429 123.71C754.354 124.096 749.135 124.671 746.831 124.986C741.632 125.697 718.3 126.017 717.287 125.39C716.323 124.795 716.346 124.04 717.349 123.22Z"
     fill="#151617"
     id="path2" />
  <path
     d="M403.379 702.369C393.223 703.423 389.775 703.995 389.164 704.322C388.553 704.65 385.339 705.219 382.022 705.591C378.707 705.959 374.689 706.665 373.093 707.158C371.498 707.653 367.227 708.212 363.598 708.405C359.971 708.599 356.378 709.091 355.615 709.501C353.849 710.447 321.476 711.385 306.4 710.929C297.742 710.666 294.17 710.271 289.358 709.044C286.012 708.191 282.821 707.101 282.27 706.619C281.721 706.137 280.641 705.552 279.87 705.317C278.213 704.812 273.859 700.17 273.859 698.905C273.859 698.417 273.207 696.608 272.411 694.878C270.985 691.796 270.96 691.296 271.006 668.217C271.047 646.499 271.158 644.218 272.455 638.426C273.228 634.975 273.859 631.289 273.859 630.232C273.859 629.178 274.439 626.843 275.148 625.044C275.857 623.245 276.437 620.897 276.437 619.822C276.437 618.749 276.78 617.236 277.197 616.463C277.615 615.69 278.324 613.605 278.769 611.834C279.788 607.787 281.414 602.98 282.968 599.413C283.628 597.897 284.172 596.158 284.174 595.547C284.177 594.936 284.754 593.565 285.458 592.503C286.162 591.441 286.739 589.954 286.742 589.198C286.744 588.443 287.154 587.49 287.649 587.077C288.146 586.665 288.742 585.544 288.974 584.582C289.402 582.806 295.776 569.865 298.242 565.761C298.99 564.521 301.268 560.897 303.31 557.707C305.351 554.516 307.315 551.415 307.676 550.814C312.731 542.394 340.297 513.015 343.212 512.941C343.612 512.93 344.284 512.508 344.707 511.997C345.127 511.489 346.305 510.891 347.318 510.667C348.331 510.443 349.509 509.845 349.929 509.337C350.352 508.827 351.378 508.412 352.205 508.412C353.035 508.412 355.185 507.832 356.984 507.123C359.636 506.077 361.773 505.834 368.309 505.834C375.093 505.834 376.763 506.038 378.892 507.123C380.282 507.832 382.261 508.412 383.29 508.412C384.321 508.412 385.854 508.927 386.7 509.559C387.545 510.19 389.798 511.536 391.708 512.549C395.744 514.688 395.878 514.791 401.629 520.116C404.033 522.343 407.304 526.096 408.902 528.454C410.498 530.813 412.374 533.256 413.07 533.885C413.763 534.517 414.333 535.393 414.333 535.839C414.333 538.679 429.71 547.031 435.072 547.103C436.247 547.118 438.368 547.58 439.786 548.126C441.203 548.672 445.48 549.384 449.289 549.709C451.599 549.904 453.908 550.1 456.217 550.296C456.431 550.51 456.648 550.727 456.862 550.941C458.153 552.492 458.114 561.501 456.8 564.957C456.488 565.777 455.96 572.458 455.625 579.803C455.29 587.149 454.704 593.975 454.326 594.969C453.947 595.967 453.344 600.122 452.985 604.205C452.63 608.285 452.07 612.123 451.743 612.734C451.416 613.342 450.946 616.435 450.699 619.603C450.452 622.773 449.988 625.871 449.668 626.492C449.348 627.111 447.887 628.23 446.42 628.977C443.825 630.302 443.655 630.307 439.837 629.255C437.683 628.66 434.847 627.616 433.538 626.93C430.535 625.366 427.076 625.314 425.87 626.82C423.916 629.26 422.143 632.516 422.102 633.743C422.078 634.452 421.617 635.877 421.078 636.911C419.885 639.197 418.418 645.46 417.416 652.546C416.64 658.023 417.032 662.637 419.076 672.083C420.096 676.805 422.522 683.514 423.736 684.971C424.179 685.502 424.738 686.723 424.978 687.682C425.218 688.644 425.821 689.765 426.316 690.177C426.813 690.59 427.221 691.907 427.221 693.105C427.221 693.829 427.221 694.556 427.221 695.281C426.362 696.139 425.501 697 424.643 697.858C422.983 697.858 420.952 698.294 419.06 698.825C417.913 699.147 416.769 699.469 415.622 699.791C414.977 700.005 414.333 700.222 413.689 700.436C410.467 700.866 407.245 701.294 404.023 701.724C403.809 701.938 403.593 702.155 403.379 702.369ZM410.426 696.995C409.041 697.912 408.039 698.866 408.196 699.121C408.632 699.825 415.671 699.103 418.117 698.103C419.313 697.613 421.104 697.214 422.096 697.214C423.282 697.214 424.365 696.629 425.241 695.515C426.88 693.433 426.885 693.224 425.329 691.324C424.259 690.017 423.901 689.914 422.782 690.595C421.962 691.095 421.336 691.154 421.091 690.757C420.524 689.839 419.488 689.984 419.488 690.981C419.488 692.229 416.869 694.402 414.764 694.899C413.761 695.136 411.807 696.08 410.426 696.995ZM448.645 551.724C446.946 553.126 447.859 553.696 451.248 553.348C452.385 553.229 453.519 553.113 454.655 552.995C454.57 553.732 454.483 554.469 454.398 555.206C454.256 556.42 454.344 559.037 454.591 561.019C455.194 565.851 456.302 564.692 456.96 558.542C457.362 554.794 457.269 553.678 456.488 552.817C455.338 551.546 449.797 550.773 448.645 551.724ZM450.684 601.248C450.049 601.777 449.774 603.462 449.774 606.836C449.774 610.831 449.926 611.543 450.647 610.945C451.542 610.202 452.611 602.143 451.954 601.083C451.748 600.748 451.202 600.82 450.684 601.248ZM453.016 584.34C452.673 584.933 452.382 587.435 452.369 589.902C452.354 593.887 452.459 594.281 453.315 593.426C454.573 592.168 455.496 579.077 454.377 578.383C453.653 577.937 453.307 579.461 453.539 582.085C453.596 582.734 453.362 583.75 453.016 584.34Z"
     fill="#109DFD"
     id="path3"
     style="fill:#2b7fff;fill-opacity:1" />
  <path
     d="M408.052 513.087C409.17 512.201 424.679 513.75 428.994 515.175C431.852 516.119 434.046 516.242 443.17 515.966C450.573 515.745 454.957 515.317 457.125 514.606C458.865 514.033 461.329 513.562 462.602 513.551C463.875 513.546 466.179 512.966 467.726 512.263C469.27 511.562 471.383 510.989 472.422 510.989C473.461 510.989 475.448 510.409 476.837 509.701C479.91 508.133 484.083 508.015 485.521 509.456C486.096 510.03 486.732 511.33 486.934 512.34C487.137 513.353 487.702 514.515 488.191 514.92C488.681 515.327 489.083 516.42 489.086 517.351C489.088 518.281 489.666 519.915 490.369 520.977C491.073 522.039 491.653 523.635 491.658 524.521C491.663 525.408 492.243 527.003 492.947 528.065C493.65 529.127 494.228 530.535 494.23 531.189C494.233 531.844 494.656 533.295 495.169 534.411C496.267 536.806 498.594 543.358 499.318 546.108C499.602 547.17 500.293 548.93 500.855 550.015C502.435 553.062 502.989 559.493 501.759 560.513C500.295 561.727 469.747 561.3 468.236 560.044C467.386 559.338 467.172 557.949 467.172 553.121C467.172 551.108 467.172 549.095 467.172 547.082C466.28 546.438 465.388 545.791 464.499 545.144C463.027 544.079 461.068 543.208 460.146 543.208C459.223 543.208 456.442 542.628 453.962 541.919C451.483 541.211 448.65 540.631 447.665 540.631C446.681 540.631 444.224 540.051 442.209 539.342C440.191 538.633 437.662 538.043 436.587 538.032C435.51 538.02 433.471 537.45 432.053 536.764C430.636 536.079 429.107 535.509 428.659 535.496C427.471 535.465 423.388 532.7 420.777 530.158C418.439 527.882 417.862 527.191 414.702 522.897C413.666 521.487 412.441 519.897 411.982 519.366C407.781 514.513 407.273 513.703 408.052 513.087Z"
     fill="#109DFD"
     id="path4"
     style="fill:#2b7fff;fill-opacity:1" />
  <path
     d="M282.558 749.643C283.089 749.436 283.888 749.411 284.329 749.583C284.772 749.756 287.121 753.772 289.546 758.512C298.108 775.24 301.109 780.096 306.22 785.516C308.784 788.235 317.95 795.95 320.352 797.414C320.935 797.767 322.718 798.973 324.316 800.089C325.915 801.208 327.801 802.306 328.513 802.533C329.224 802.757 330.155 803.365 330.585 803.884C331.015 804.402 331.871 804.824 332.49 804.824C333.108 804.824 334.351 805.404 335.25 806.113C336.152 806.822 337.312 807.402 337.828 807.402C338.346 807.402 339.459 807.938 340.305 808.595C341.15 809.25 342.565 809.953 343.452 810.152C345.31 810.575 350.166 812.24 354.525 813.951C356.185 814.601 358.296 815.134 359.213 815.134C360.133 815.134 363.123 815.694 365.861 816.379C375.513 818.789 405.508 818.671 420.777 816.16C431.082 814.464 440.193 813.106 445.263 812.505C447.921 812.191 451.4 811.611 452.996 811.216C456.336 810.392 470.242 808.915 484.248 807.899C503.832 806.479 525.078 810.417 544.175 819.006C545.592 819.642 547.476 820.48 548.363 820.867C549.25 821.253 550.41 821.831 550.941 822.148C551.472 822.467 552.631 823.055 553.518 823.454C554.405 823.854 556.289 824.885 557.707 825.746C559.124 826.607 560.921 827.602 561.699 827.96C562.477 828.316 564.576 829.635 566.364 830.893C568.151 832.148 569.795 833.177 570.014 833.177C570.236 833.177 571.759 834.272 573.404 835.613C575.048 836.953 577.553 838.832 578.971 839.788C581.708 841.634 601.57 861.346 602.756 863.395C604.684 866.723 608.831 871.842 610.587 873.053C611.669 873.803 613.301 874.417 614.208 874.417C616.175 874.417 625.294 871.584 627.719 870.223C628.663 869.695 629.902 869.262 630.475 869.262C631.049 869.262 633.171 868.682 635.186 867.973C637.204 867.264 639.524 866.684 640.344 866.684C642.581 866.684 649.628 863.573 651.463 861.777C652.932 860.338 653.064 859.753 652.974 855.163C652.907 851.918 652.43 849.003 651.628 846.969C649.765 842.239 647.599 835.561 647.576 834.466C647.563 833.935 646.994 832.339 646.308 830.921C645.622 829.504 645.053 827.942 645.04 827.447C645.03 826.955 644.409 825.215 643.661 823.581C642.914 821.949 641.782 819.452 641.148 818.034C637.524 809.933 632.104 799.806 628.732 794.836C623.67 787.375 621.603 784.498 619.012 781.305C617.577 779.534 616.061 777.647 615.646 777.116C615.231 776.585 611.739 772.861 607.885 768.845C591.567 751.826 568.419 736.196 542.886 724.953C541.115 724.172 538.94 723.151 538.053 722.684C537.166 722.218 535.427 721.53 534.187 721.159C532.947 720.785 529.903 719.733 527.421 718.818C514.051 713.893 502.486 710.48 487.147 706.931C475.801 704.307 454.199 700.41 451.062 700.423C449.823 700.43 446.343 700 443.33 699.469C440.317 698.938 436.636 698.456 435.146 698.399C431.824 698.273 430.888 697.742 431.2 696.17C431.378 695.275 431.943 694.989 433.358 695.074C436.391 695.255 447.116 696.551 451.707 697.294C460.684 698.74 463.803 699.276 468.461 700.165C471.118 700.673 474.745 701.345 476.515 701.662C485.787 703.312 514.621 710.995 519.044 712.996C520.106 713.475 521.81 714.076 522.828 714.328C523.846 714.583 527.024 715.766 529.893 716.957C532.759 718.148 535.352 719.122 535.653 719.122C535.952 719.122 537.849 719.885 539.865 720.818C541.881 721.749 545.414 723.38 547.719 724.442C554.044 727.357 560.624 730.662 563.506 732.366C564.924 733.206 566.955 734.35 568.017 734.91C569.078 735.469 570.965 736.466 572.205 737.126C574.391 738.286 584.059 745.042 591.76 750.787C600.256 757.125 614.515 770.742 620.34 778.083C621.466 779.5 623.709 782.323 625.325 784.356C626.943 786.39 628.266 788.163 628.266 788.3C628.266 788.434 629.498 790.419 631.003 792.713C636.728 801.422 644.744 816.405 646.623 821.9C648.463 827.285 649.587 830.321 650.2 831.566C650.548 832.275 651.244 834.306 651.744 836.076C654.193 844.739 655.157 847.791 655.855 849.082C656.28 849.869 656.618 853.047 656.618 856.281C656.618 858.212 656.618 860.143 656.618 862.073C655.494 863.058 654.371 864.04 653.247 865.024C651.391 866.646 649.344 867.973 648.695 867.973C648.045 867.973 646.153 868.517 644.494 869.182C642.834 869.844 640.024 870.679 638.253 871.035C634.784 871.734 632.016 872.631 627.943 874.378C622.536 876.698 616.878 878.283 614.009 878.283C610.115 878.283 605.607 875.043 602.48 869.994C600.23 866.362 576.811 842.198 575.543 842.198C575.172 842.198 572.679 840.458 570.001 838.332C567.326 836.205 564.975 834.466 564.779 834.466C564.581 834.466 563.635 833.924 562.676 833.264C559.624 831.164 553.91 827.602 551.907 826.553C541.525 821.111 532.096 817.346 523.555 815.227C520.719 814.526 516.371 813.436 513.889 812.804C510.358 811.907 506.02 811.606 493.913 811.42C479.309 811.198 474.116 811.487 462.661 813.157C451.9 814.727 443.397 815.905 438.819 816.459C436.162 816.781 432.682 817.369 431.087 817.761C429.491 818.155 425.867 818.72 423.032 819.019C420.197 819.318 415.122 820.011 411.756 820.557C403.27 821.939 371.191 822.006 367.155 820.65C365.636 820.14 362.51 819.439 360.206 819.091C356.458 818.526 353.362 817.694 347.803 815.753C346.826 815.413 345.086 814.804 343.936 814.4C342.784 813.998 340.648 813.126 339.191 812.467C337.735 811.807 336.25 811.268 335.889 811.268C335.529 811.268 334.887 810.853 334.464 810.343C334.044 809.832 332.871 809.237 331.861 809.015C330.853 808.794 329.379 808.049 328.585 807.363C327.794 806.675 326.801 806.113 326.378 806.113C325.956 806.113 325.085 805.533 324.443 804.824C323.801 804.115 322.912 803.536 322.468 803.536C322.023 803.536 320.257 802.443 318.54 801.108C316.824 799.77 314.55 798.131 313.488 797.463C311.169 796.004 299.634 784.843 299.634 784.057C299.634 783.753 298.516 781.99 297.147 780.14C295.781 778.289 294.464 776.152 294.224 775.392C293.982 774.631 293.361 773.66 292.843 773.229C292.325 772.799 291.902 772.02 291.902 771.5C291.902 770.979 291.322 769.817 290.613 768.915C289.904 768.015 289.324 766.855 289.324 766.337C289.324 765.822 288.744 764.662 288.036 763.76C287.327 762.86 286.747 761.7 286.747 761.182C286.747 760.667 286.167 759.507 285.458 758.605C284.749 757.705 284.169 756.545 284.169 756.027C284.169 755.512 283.589 754.352 282.881 753.45C281.347 751.501 281.234 750.15 282.558 749.643Z"
     fill="#151617"
     id="path5" />
  <path
     d="M115.707 864.107C116.176 862.867 116.575 861.318 116.596 860.663C116.616 860.009 117.176 857.544 117.838 855.186C119.279 850.067 120.392 845.716 121.496 840.909C121.942 838.961 122.746 835.625 123.279 833.499C123.813 831.373 124.426 828.834 124.643 827.862C124.893 826.72 125.452 826.089 126.207 826.089C127.566 826.089 134.154 827.792 143.44 830.545C147.021 831.605 151.732 832.777 153.913 833.148C156.091 833.517 159.684 834.156 161.898 834.566C164.153 834.981 172.739 835.337 181.392 835.37C197.684 835.435 201.493 834.96 209.757 831.826C211.535 831.151 213.275 830.594 213.623 830.586C213.969 830.576 214.979 830.004 215.866 829.311C216.752 828.617 217.84 828.045 218.281 828.035C220.856 827.991 230.637 818.196 233.091 813.204C233.527 812.317 234.138 811.155 234.447 810.624C235.599 808.636 237.738 803.742 238.947 800.314C239.635 798.365 240.555 795.754 240.994 794.514C241.432 793.275 242.128 791.099 242.538 789.681C243.221 787.328 243.679 785.965 246.128 779.049C246.569 777.81 247.314 775.343 247.788 773.572C248.265 771.801 249.082 769.046 249.608 767.451C250.136 765.855 251.193 762.375 251.961 759.718C252.729 757.061 253.654 754.017 254.018 752.952C254.384 751.888 255.044 749.424 255.484 747.475C255.925 745.526 256.763 742.544 257.34 740.848C257.92 739.152 258.394 736.894 258.394 735.832C258.394 734.77 258.845 732.824 259.397 731.507C259.949 730.188 260.665 727.226 260.99 724.922C261.312 722.618 262.021 718.558 262.565 715.901C263.106 713.243 263.547 710.117 263.549 708.954C263.549 706.542 265.06 705.534 266.508 706.985C267.246 707.722 267.315 708.681 266.843 711.743C266.521 713.851 265.91 718.042 265.488 721.056C265.068 724.069 264.168 728.564 263.49 731.043C262.812 733.523 262.258 736.113 262.258 736.796C262.261 737.946 260.467 744.549 258.92 749.086C258.559 750.15 257.884 752.47 257.417 754.241C256.954 756.012 256.149 758.623 255.631 760.04C255.113 761.458 254.028 764.793 253.219 767.451C251.868 771.889 250.863 774.92 248.734 780.982C248.298 782.222 247.644 784.398 247.275 785.815C246.906 787.233 246.102 789.844 245.489 791.615C244.873 793.385 244.048 795.78 243.651 796.932C242.192 801.167 241.383 803.273 240.238 805.835C239.592 807.273 239.063 808.902 239.063 809.451C239.063 810 238.483 811.188 237.774 812.088C237.066 812.99 236.486 814.057 236.486 814.459C236.486 814.861 235.326 816.758 233.908 818.678C232.49 820.599 231.331 822.338 231.331 822.547C231.331 823.161 225.005 829.311 224.374 829.311C224.057 829.311 223.286 829.875 222.665 830.563C222.041 831.251 220.711 831.994 219.709 832.215C218.709 832.435 217.541 833.03 217.121 833.54C216.698 834.051 215.793 834.466 215.11 834.466C214.427 834.466 212.94 834.955 211.806 835.551C210.672 836.149 208.44 836.845 206.844 837.097C189.25 839.881 189.56 839.858 179.162 839.074C173.654 838.657 168.424 838.218 167.537 838.1C166.651 837.981 164.042 837.667 161.738 837.401C155.696 836.711 141.384 833.148 134.167 830.543C128.205 828.388 126.795 828.901 126.045 833.499C125.815 834.917 125.076 838.252 124.403 840.909C123.73 843.567 122.55 848.642 121.782 852.186C121.014 855.73 119.975 860.104 119.475 861.908C118.117 866.8 118.292 867.589 121.302 870.179C122.81 871.478 124.478 872.912 125.009 873.37C128.494 876.365 139.502 884.869 142.729 887.054C146.412 889.552 158.766 897.006 160.127 897.552C160.483 897.694 163.785 899.243 167.468 900.996C171.151 902.751 175.644 904.695 177.456 905.316C179.265 905.94 182.776 907.182 185.258 908.074C191.364 910.278 201.702 913.079 203.718 913.079C204.623 913.079 208.087 913.654 211.419 914.358C216.484 915.427 220.01 915.639 232.944 915.647C246.499 915.657 248.968 915.497 252.917 914.368C255.397 913.659 258.647 913.079 260.139 913.079C261.634 913.079 264.328 912.499 266.127 911.791C267.926 911.082 270.086 910.502 270.931 910.502C271.774 910.502 273.818 909.922 275.47 909.213C277.122 908.504 279.105 907.922 279.873 907.919C280.641 907.917 282.141 907.339 283.203 906.636C284.265 905.932 285.551 905.355 286.061 905.352C288.984 905.339 307.369 895.581 316.308 889.297C322.943 884.631 335.302 873.481 339.093 868.736C340.421 867.076 341.885 865.282 342.346 864.751C348.597 857.555 356.28 845.892 361.216 836.11C364.183 830.228 365.435 828.344 366.374 828.344C368.521 828.344 368.139 830.803 364.966 837.445C363.293 840.945 361.757 843.953 361.548 844.131C361.342 844.309 360.667 845.469 360.048 846.709C358.687 849.436 358.012 850.508 354.891 854.874C353.561 856.733 352.473 858.441 352.473 858.673C352.473 859.274 344.019 869.484 343.009 870.1C342.545 870.383 342.163 870.917 342.163 871.283C342.163 872.852 326.608 886.593 320.958 890.016C319.685 890.787 317.473 892.361 316.045 893.513C314.615 894.666 312.731 895.929 311.857 896.32C310.983 896.715 309.207 897.674 307.913 898.452C301.511 902.308 298.964 903.633 292.639 906.393C288.868 908.043 284.602 909.93 283.162 910.589C281.718 911.249 280.043 911.791 279.435 911.791C278.826 911.791 277.251 912.262 275.934 912.834C274.615 913.409 272.522 914.113 271.282 914.396C270.042 914.68 267.722 915.355 266.127 915.896C264.531 916.438 261.487 917.165 259.361 917.51C257.234 917.855 254.19 918.435 252.595 918.801C248.028 919.85 221.397 919.693 217.27 918.595C215.386 918.093 211.904 917.492 209.538 917.257C207.169 917.023 203.782 916.43 202.012 915.938C200.241 915.445 196.034 914.288 192.668 913.365C186.616 911.705 185.072 911.177 174.901 907.272C167.641 904.486 148.784 894.898 146.222 892.691C145.662 892.209 144.995 891.815 144.737 891.815C143.116 891.815 124.437 877.693 118.725 872.149C114.48 868.027 114.351 867.687 115.707 864.107Z"
     fill="#151617"
     id="path6" />
  <path
     d="M528.547 549.464C536.945 543.156 551.142 528.869 555.83 522.013C563.382 510.961 565.243 507.814 569.952 498.102C575.651 486.348 578.004 480.933 578.009 479.559C578.012 478.948 578.589 477.577 579.293 476.515C579.997 475.453 580.574 473.917 580.577 473.108C580.579 472.296 581.162 470.494 581.871 469.105C582.579 467.716 583.159 465.976 583.159 465.239C583.159 464.501 583.739 462.762 584.448 461.372C585.157 459.983 585.747 458.037 585.757 457.047C585.77 456.06 586.34 454.091 587.026 452.673C587.711 451.256 588.281 449.56 588.294 448.908C588.304 448.253 588.861 445.789 589.528 443.43C593.237 430.342 595.268 417.024 596.676 396.613C597.702 381.756 598.941 376.627 603.46 368.531C604.797 366.136 611.017 360.419 613.654 359.164C615.87 358.105 617.956 358.272 617.956 359.51C617.956 359.855 616.878 360.953 615.561 361.945C610.896 365.461 605.073 372.067 605.063 373.856C605.06 374.323 604.483 375.575 603.779 376.637C603.076 377.699 602.498 379.323 602.496 380.24C602.493 381.158 602.055 383.333 601.521 385.073C600.988 386.813 600.266 393.128 599.913 399.108C599.562 405.088 599.001 411.034 598.666 412.317C598.33 413.604 597.864 416.831 597.629 419.488C597.397 422.145 596.815 425.772 596.338 427.543C595.861 429.313 595.268 432.504 595.021 434.631C594.773 436.757 594.034 440.381 593.376 442.683C592.719 444.987 592.181 447.596 592.181 448.482C592.181 449.372 591.624 451.836 590.941 453.962C590.258 456.089 589.057 460.004 588.268 462.661C587.482 465.319 586.299 468.852 585.641 470.512C584.984 472.172 584.448 473.858 584.448 474.255C584.448 474.904 583.404 477.477 580.914 482.959C580.432 484.021 579.337 486.488 578.481 488.436C576.321 493.357 575.53 495.047 574.857 496.169C574.538 496.7 573.955 497.859 573.561 498.746C571.447 503.507 565.944 512.381 557.575 524.521C554.546 528.916 532.952 550.721 529.112 553.263C523.335 557.085 522.609 557.474 521.962 557.072C520.402 556.111 521.709 554.601 528.547 549.464Z"
     fill="#151617"
     id="path7" />
  <path
     d="M301.341 463.321C302.207 460.674 303.338 458.042 303.854 457.473C304.369 456.903 304.789 456.143 304.789 455.782C304.789 454.411 312.64 447.714 316.208 446.042C320.543 444.01 324.814 443.804 334.121 445.181C341.227 446.23 344.315 445.583 347.978 442.273C350.483 440.01 353.762 433.979 353.762 431.633C353.762 430.955 354.197 429.355 354.734 428.076C355.267 426.795 355.971 424.267 356.29 422.457C357.265 416.972 360.126 409.423 363.884 402.412C365.618 399.177 374.472 390.834 377.926 389.179C386.174 385.231 388.798 384.697 400.018 384.694C407.343 384.692 411.132 384.952 412.583 385.558C413.722 386.032 415.738 386.625 417.063 386.872C418.388 387.122 420.707 387.885 422.218 388.571C425.751 390.174 430.033 390.2 432.62 388.628C433.726 387.958 435.577 387.208 436.732 386.963C437.886 386.72 439.714 386.079 440.794 385.54C442.111 384.885 443.541 384.705 445.137 384.991C449.078 385.702 455.772 387.896 456.834 388.824C457.38 389.303 458.47 389.891 459.254 390.128C460.037 390.368 462.357 392.399 464.409 394.644C470.028 400.791 471.726 407.108 469.358 413.031C467.587 417.452 466.546 416.398 466.664 410.307C466.785 403.943 465.695 401.389 460.942 396.889C456.287 392.481 453.148 390.718 447.196 389.174C443.773 388.285 441.425 388.44 438.541 389.739C437.1 390.386 434.822 391.401 433.481 391.994C430.046 393.509 425.7 393.311 420.455 391.399C412.408 388.465 411.573 388.334 400.752 388.285C390.88 388.239 389.806 388.352 386.576 389.759C384.653 390.597 382.645 391.54 382.114 391.857C381.583 392.174 380.424 392.785 379.537 393.213C376.954 394.466 371.647 399.175 369.549 402.077C368.487 403.549 367.317 405.095 366.953 405.515C365.977 406.637 363.08 412.841 361.634 416.911C359.097 424.035 357.628 428.862 357.608 430.12C357.595 430.829 357.025 432.569 356.339 433.987C355.654 435.404 355.084 436.827 355.071 437.152C355.007 438.917 350.71 444.144 347.774 446.029C344.614 448.055 344.156 448.16 338.635 448.116C335.436 448.088 330.675 447.694 328.054 447.235C323.811 446.495 322.876 446.529 319.512 447.549C314.094 449.189 308.867 454.068 305.733 460.409C304.939 462.017 304.142 463.625 303.349 465.234C303.428 467.633 303.508 470.03 303.586 472.43C303.854 480.557 303.253 481.675 301.057 477.152C299.227 473.386 299.307 469.528 301.341 463.321Z"
     fill="#151617"
     id="path8" />
  <path
     d="M455.107 632.42C455.607 632.227 458.406 632.691 461.326 633.449C466.105 634.686 467.912 634.797 479.309 634.552C487.8 634.369 493.362 633.941 496.169 633.261C498.473 632.699 501.808 631.946 503.579 631.583C513.126 629.632 526.758 624.58 534.831 619.997C535.362 619.695 536.378 619.121 537.087 618.724C540.275 616.93 547.574 612.623 549.33 611.496C550.392 610.816 552.278 609.692 553.518 608.996C554.758 608.303 557.704 606.192 560.065 604.308C562.423 602.424 565.034 600.447 565.864 599.916C570.104 597.204 590.892 574.55 590.892 572.635C590.892 572.45 592.346 570.107 594.119 567.426C597.191 562.787 601.251 554.786 604.447 547.074C605.256 545.126 606.323 543.095 606.821 542.564C607.62 541.708 607.826 541.734 608.602 542.78C609.367 543.814 609.182 544.628 607.13 549.224C602.875 558.761 593.369 574.589 588.688 579.937C587.915 580.824 586.479 582.749 585.505 584.216C583.657 586.989 565.88 604.663 563.23 606.357C562.4 606.888 560.186 608.555 558.307 610.063C556.431 611.568 554.717 612.801 554.5 612.801C554.284 612.801 552.536 613.96 550.618 615.378C548.701 616.796 546.945 617.956 546.721 617.956C546.494 617.956 545.574 618.535 544.672 619.244C543.773 619.953 542.613 620.533 542.095 620.533C541.579 620.533 540.419 621.113 539.517 621.822C538.618 622.531 537.435 623.111 536.888 623.111C536.344 623.111 535.442 623.523 534.883 624.028C533.929 624.886 532.437 625.523 525.65 627.961C524.142 628.503 522.33 629.214 521.622 629.541C520.24 630.183 513.008 632.544 506.974 634.323C504.943 634.921 500.883 635.83 497.952 636.341C495.022 636.851 491.32 637.55 489.725 637.895C488.129 638.238 482.186 638.514 476.515 638.503C467.994 638.49 465.2 638.235 460.406 637.032C455.491 635.8 454.576 635.364 454.4 634.173C454.287 633.4 454.601 632.614 455.107 632.42Z"
     fill="#151617"
     id="path9" />
  <path
     d="M343.882 485C344.666 484.214 346.073 484.552 350.107 486.498C355.777 489.233 360.417 489.988 364.327 488.81C368.193 487.647 371.472 485.397 374.382 481.91C380.978 474.01 386.63 468.033 388.295 467.2C389.326 466.682 390.63 465.883 391.197 465.419C391.837 464.893 394.999 464.432 399.574 464.195C413.348 463.483 418.199 461.362 421.354 454.676C423.514 450.098 425.932 441.93 425.95 439.141C425.958 438.08 426.535 435.054 427.236 432.419C427.937 429.785 428.52 426.885 428.53 425.976C428.543 425.066 429.112 423.161 429.798 421.743C430.484 420.326 431.053 418.82 431.066 418.398C431.077 417.975 431.716 416.524 432.481 415.176C436.154 408.714 441.82 405.312 448.908 405.312C451.998 405.312 453.13 405.557 453.411 406.286C454.119 408.137 452.38 409.178 448.567 409.181C444.523 409.183 441.781 410.482 438.425 413.988C436.11 416.405 432.376 423.419 432.376 425.349C432.376 426.071 432.053 427.262 431.662 427.994C431.27 428.726 430.566 431.388 430.1 433.912C426.257 454.601 424.28 459.975 418.998 464.094C416.418 466.105 409.253 467.52 404.701 466.914C399.105 466.172 397.386 467.442 391.326 476.788C389.837 479.088 386.821 484.534 384.625 488.89C381.753 494.594 380.31 496.813 379.478 496.813C377.49 496.813 377.511 495.73 379.586 491.21C380.692 488.8 382.328 485.23 383.217 483.281C384.107 481.333 385.089 479.301 385.398 478.771C386.89 476.211 388.527 472.724 388.329 472.525C387.927 472.126 384.743 474.033 383.179 475.611C382.333 476.464 380.176 479.131 378.38 481.544C374.531 486.709 373.127 487.895 368.134 490.207C361.574 493.241 351.937 492.148 345.225 487.611C343.426 486.397 343.106 485.776 343.882 485Z"
     fill="#151617"
     id="path10" />
  <path
     d="M422.762 501.968C423.841 500.373 425.287 498.47 425.973 497.738C427.569 496.037 427.548 494.826 425.891 492.717C423.648 489.867 426.151 488.524 429.228 490.926C430.074 491.586 432.504 492.962 434.631 493.986C438.059 495.635 439.193 495.846 444.619 495.846C450.135 495.846 451.114 495.656 454.532 493.926C461.151 490.573 463.174 485.895 463.981 472.079C464.502 463.117 464.656 462.321 466.316 459.924C467.293 458.514 468.538 457.189 469.082 456.98C469.626 456.772 471.329 455.753 472.866 454.715C475.505 452.934 475.636 452.702 475.229 450.529C474.992 449.266 474.242 447.524 473.564 446.66C472.884 445.797 472.327 444.701 472.327 444.224C472.327 443.75 471.747 442.412 471.041 441.252C470.332 440.09 469.752 438.701 469.752 438.165C469.749 437.628 469.169 436.108 468.461 434.785C467.752 433.463 467.169 431.873 467.167 431.252C467.164 430.628 466.587 429.249 465.883 428.187C464.432 425.996 464.2 423.602 465.398 423.171C466.589 422.746 468.461 423.893 468.461 425.048C468.461 425.599 469.041 426.788 469.749 427.69C470.458 428.589 471.041 429.94 471.043 430.69C471.046 431.44 471.623 432.925 472.327 433.986C473.03 435.048 473.608 436.391 473.61 436.969C473.616 437.992 475.943 443.758 477.83 447.41C478.348 448.413 478.771 450.48 478.771 452.003C478.771 454.375 478.466 455.006 476.678 456.37C475.526 457.246 473.982 458.156 473.247 458.388C472.51 458.62 471.121 459.635 470.154 460.64C468.499 462.37 468.368 462.96 467.827 471.105C466.857 485.668 465.86 488.599 460.117 493.761C457.888 495.767 455.882 496.875 453.073 497.656C448.181 499.014 440.412 499.076 437.306 497.78C433.798 496.313 431.566 496.55 429.721 498.586C427.337 501.215 424.643 505.015 424.643 505.747C424.643 506.564 422.29 507.337 421.426 506.803C420.375 506.154 420.681 505.046 422.762 501.968Z"
     fill="#151617"
     id="path11" />
  <path
     d="M462.476 566.841C462.769 566.663 465.177 566.756 467.829 567.053C476.987 568.078 498.213 568.514 503.36 567.782C508.628 567.032 516.291 564.792 518.382 563.393C519.08 562.923 520.273 562.539 521.034 562.539C521.792 562.539 523.152 561.959 524.052 561.251C524.954 560.542 526.129 559.962 526.663 559.962C527.197 559.962 529.47 558.949 531.715 557.709C533.96 556.469 536.522 555.157 537.409 554.791C539.643 553.866 539.968 553.699 542.886 551.938C544.303 551.085 546.334 549.923 547.396 549.358C549.788 548.085 551.129 547.255 554.737 544.806C556.294 543.749 558.173 542.535 558.913 542.108C560.591 541.136 571.112 532.452 574.138 529.54C575.378 528.344 577.698 525.795 579.293 523.874C584.837 517.191 586.538 515.5 587.706 515.5C590.874 515.5 589.701 517.284 579.669 527.743C575.081 532.527 564.042 542.211 559.872 545.108C558.325 546.183 555.82 547.933 554.302 549.002C552.781 550.067 551.304 550.941 551.018 550.941C550.732 550.941 549.971 551.521 549.33 552.229C548.688 552.938 547.817 553.518 547.396 553.518C546.971 553.518 546.035 554.031 545.311 554.66C544.587 555.286 540.411 557.565 536.03 559.722C524.194 565.55 520.451 566.986 510.023 569.687C503.257 571.439 502.267 571.525 488.325 571.543C480.178 571.553 472.195 571.249 470.283 570.854C468.393 570.468 465.837 569.95 464.599 569.705C462.481 569.285 461.236 567.607 462.476 566.841Z"
     fill="#151617"
     id="path12" />
  <path
     d="M495.684 501.221C497.192 500.017 500.135 497.88 502.228 496.473C504.319 495.065 506.834 493.117 507.816 492.143C508.798 491.166 509.84 490.359 510.134 490.349C510.427 490.338 511.667 489.323 512.892 488.093C514.116 486.864 515.33 485.859 515.59 485.859C516.036 485.859 524.439 476.513 527.565 472.538C539.025 457.97 542.497 453.047 548.255 443.198C551 438.507 552.232 436.09 555.418 429.154C557.83 423.901 558.768 423.058 559.884 425.14C560.348 426.009 559.82 427.517 557.681 431.424C556.134 434.249 554.286 437.724 553.577 439.141C550.595 445.098 539.079 464.058 536.746 466.85C536.153 467.558 535.517 468.574 535.331 469.105C534.684 470.966 523.119 483.255 514.825 490.898C507.507 497.638 502.945 501.159 495.988 505.432C492.078 507.834 491.823 504.311 495.684 501.221Z"
     fill="#151617"
     id="path13" />
  <path
     d="M557.482 390.88C557.738 384.537 558.24 378.014 558.601 376.382C558.964 374.75 559.439 371.24 559.66 368.582C560.173 362.402 563.818 350.785 567.004 345.166C567.638 344.047 568.803 341.988 569.594 340.591C571.28 337.614 576.192 331.209 576.79 331.209C577.017 331.209 577.561 331.642 578.002 332.173C578.664 332.972 578.198 333.871 575.231 337.498C570.994 342.679 567.308 349.658 566.462 354.102C566.127 355.865 565.56 358.077 565.202 359.017C564.844 359.961 564.359 362.569 564.125 364.817C563.89 367.064 563.148 371.129 562.475 373.846C561.503 377.769 561.251 381.153 561.251 390.293C561.251 399.667 561.065 402.069 560.248 403.234C559.696 404.023 558.98 404.667 558.658 404.667C557.292 404.667 557.044 401.768 557.482 390.88Z"
     fill="#151617"
     id="path14" />
  <path
     d="M611.396 531.488C611.636 530.89 613.958 527.957 616.556 524.967C619.152 521.98 621.647 518.843 622.098 518C622.551 517.157 623.832 514.827 624.948 512.822C626.064 510.819 626.977 508.61 626.977 507.917C626.977 507.221 627.557 505.914 628.266 505.015C628.974 504.113 629.554 502.953 629.554 502.437C629.554 501.919 630.078 500.806 630.719 499.96C631.361 499.115 632.792 496.625 633.9 494.421C635.751 490.748 641.937 481.294 644.249 478.611C645.264 477.43 647.285 477.098 647.852 478.018C648.035 478.314 646.094 481.317 643.542 484.694C640.988 488.07 638.287 492.107 637.542 493.663C636.797 495.218 635.562 497.795 634.802 499.391C634.039 500.986 633.418 502.643 633.418 503.079C633.421 503.855 631.217 509.113 630.103 510.989C629.786 511.52 629.083 512.928 628.539 514.116C627.995 515.304 627.271 516.608 626.933 517.015C626.595 517.423 624.984 519.784 623.358 522.266C619.783 527.715 615.102 533.3 613.306 534.262C612.303 534.798 611.862 534.756 611.44 534.091C610.806 533.091 610.803 532.96 611.396 531.488Z"
     fill="#151617"
     id="path15" />
  <path
     d="M329.693 476.265C333.487 469.932 337.64 468.185 350.54 467.481C356.909 467.136 358.291 466.857 360.373 465.502C362.917 463.844 366.649 459.22 366.649 457.723C366.649 457.238 367.593 455.233 368.742 453.266C369.894 451.3 371.139 449.163 371.503 448.518C373.856 444.384 382.612 441.144 384.687 443.644C385.336 444.428 385.262 444.678 384.282 445.01C377.171 447.426 373.704 450.704 369.595 458.898C365.193 467.687 365.144 467.754 361.927 469.466C359.175 470.932 358.324 471.038 349.238 471.038C343.318 471.038 338.949 471.322 338.093 471.76C335.418 473.131 332.469 476.479 331.822 478.879C331.116 481.51 329.515 483.505 328.58 482.928C327.469 482.24 327.995 479.098 329.693 476.265Z"
     fill="#151617"
     id="path16" />
  <path
     d="M569.653 394.035C569.945 393.326 570.202 391.682 570.225 390.383C570.285 387.308 574.922 378.341 578.373 374.627C580.494 372.343 581.417 371.807 583.206 371.815C584.42 371.82 585.809 372.075 586.291 372.379C587.858 373.374 587.923 378.24 586.417 382.114C585.66 384.063 584.889 387.687 584.703 390.169C584.214 396.755 583.966 397.579 582.484 397.579C580.494 397.579 580.265 395.907 581.52 390.558C582.152 387.865 583.067 383.968 583.559 381.9C584.739 376.916 584.69 376.315 583.095 376.315C579.979 376.315 575.118 384.063 574.058 390.723C573.321 395.352 571.512 397.837 570.022 396.27C569.429 395.646 569.303 394.883 569.653 394.035Z"
     fill="#151617"
     id="path17" />
  <path
     d="M592.258 491.98C592.596 490.918 593.119 488.163 593.423 485.859C595.586 469.52 598.307 462.081 605.896 451.789C609.251 447.235 615.767 440.752 616.989 440.752C619.131 440.752 617.873 443.603 614.177 447.132C610.048 451.075 605.068 457.563 605.068 459.004C605.068 459.501 604.488 460.648 603.779 461.548C603.071 462.45 602.48 463.576 602.47 464.053C602.457 464.527 601.888 466.076 601.202 467.494C600.516 468.912 599.947 470.59 599.934 471.221C599.923 471.85 599.485 473.389 598.965 474.639C597.988 476.974 596.292 487.903 595.444 497.323C594.913 503.239 593.972 505.02 592.459 502.973C591.41 501.548 591.291 495.042 592.258 491.98Z"
     fill="#151617"
     id="path18" />
  <path
     d="M577.729 356.076C579.644 350.849 583.427 343.908 586.433 340.106C587.469 338.799 588.314 337.521 588.314 337.268C588.314 336.58 594.975 330.572 595.743 330.567C596.106 330.567 596.903 329.984 597.508 329.276C598.813 327.752 600.101 327.629 601.179 328.925C601.82 329.701 600.908 330.866 595.903 335.65C589.247 342.011 583.845 349.305 581.863 354.602C580.185 359.087 579.105 360.517 577.775 360.007C576.527 359.53 576.525 359.363 577.729 356.076Z"
     fill="#151617"
     id="path19" />
  <path
     d="M312.192 478.126C314.751 467.156 315.326 465.739 318.515 462.54C320.213 460.836 321.958 459.439 322.389 459.439C322.819 459.439 324.255 458.859 325.577 458.151C328.466 456.602 332.655 456.465 334.062 457.875C335.993 459.805 334.637 461.429 331.515 460.924C329.27 460.558 323.747 462.764 321.208 465.038C317.641 468.231 314.455 476.002 314.455 481.508C314.455 483.451 314.215 483.926 313.236 483.926C312.29 483.926 310.919 482.405 311.298 481.779C311.336 481.719 311.736 480.075 312.192 478.126Z"
     fill="#151617"
     id="path20" />
  <path
     d="M615.971 463.95C617.458 459.945 619.598 455.973 620.809 454.967C621.366 454.506 621.822 453.859 621.822 453.532C621.822 451.864 633.957 441.397 635.89 441.397C638.841 441.397 638.086 443.101 633.743 446.225C628.588 449.934 624.729 454.998 620.58 463.502C618.262 468.249 617.587 469.144 616.44 468.979C614.716 468.734 614.61 467.607 615.971 463.95Z"
     fill="#151617"
     id="path21" />
  <path
     d="M591.565 357.628C595.281 352.37 602.308 344.875 605.321 342.957C609.695 340.171 613.718 338.276 614.574 338.598C616.303 339.248 615.36 341.511 612.641 343.23C606.45 347.138 604.975 348.249 601.328 351.728C599.227 353.733 596.289 357.058 594.797 359.115C592.763 361.922 591.745 362.811 590.732 362.659C588.688 362.358 588.83 361.497 591.565 357.628Z"
     fill="#151617"
     id="path22" />
  <path
     d="M443.799 472.682C444.317 470.641 447.08 466.63 448.645 465.648C449.441 465.146 451.617 464.599 453.478 464.437C459.622 463.896 459.625 467.125 453.483 468.164C450.15 468.729 448.021 471.002 447.487 474.567C446.956 478.1 447.235 479.425 448.686 480.312C449.671 480.912 450.163 480.644 451.81 478.611C454.057 475.83 455.573 475.479 455.573 477.737C455.573 479.371 452.173 482.84 449.848 483.58C448.274 484.08 444.907 482.446 443.992 480.74C443.322 479.485 443.214 474.984 443.799 472.682Z"
     fill="#151617"
     id="path23" />
  <path
     d="M629.245 471.038C630.467 469.089 631.743 466.873 632.08 466.112C632.418 465.352 632.928 464.625 633.217 464.502C633.506 464.375 636.307 461.445 639.444 457.991C643.638 453.367 645.553 451.707 646.692 451.707C647.545 451.707 648.241 452.07 648.239 452.511C648.239 452.954 646.063 455.478 643.406 458.114C640.748 460.754 638.576 463.133 638.576 463.398C638.576 463.666 637.632 465.236 636.483 466.886C633.8 470.729 632.421 472.855 631.168 475.064C630.091 476.971 628.982 477.296 627.75 476.064C626.722 475.036 626.701 475.103 629.245 471.038Z"
     fill="#151617"
     id="path24" />
  <path
     d="M410.426 696.995C411.807 696.08 413.761 695.136 414.764 694.899C416.869 694.402 419.488 692.229 419.488 690.981C419.488 689.984 420.524 689.839 421.091 690.757C421.336 691.154 421.963 691.095 422.782 690.595C423.901 689.914 424.259 690.017 425.329 691.324C426.886 693.224 426.88 693.433 425.241 695.515C424.365 696.629 423.282 697.214 422.097 697.214C421.104 697.214 419.313 697.613 418.117 698.103C415.671 699.103 408.632 699.825 408.196 699.121C408.039 698.866 409.042 697.912 410.426 696.995Z"
     fill="#2AACFE"
     id="path25"
     style="fill:#2b7fff;fill-opacity:1" />
  <path
     d="M443.01 428.832C445.309 424.29 447.127 421.944 449.629 420.282C454.07 417.333 455.171 419.442 451.202 423.295C448.392 426.022 445.263 431.623 445.263 433.927C445.263 435.68 443.585 437.721 442.451 437.348C441.005 436.873 441.314 432.177 443.01 428.832Z"
     fill="#151617"
     id="path26" />
  <path
     d="M453.277 428.759C454.699 428.213 454.836 428.404 456.609 433.468C458.411 438.611 458.517 440.008 457.14 440.536C455.725 441.08 454.808 439.948 453.784 436.399C452.215 430.966 452.099 429.21 453.277 428.759Z"
     fill="#151617"
     id="path27" />
  <path
     d="M448.645 551.724C449.797 550.773 455.339 551.546 456.488 552.817C457.269 553.678 457.362 554.794 456.96 558.542C456.303 564.692 455.194 565.851 454.591 561.019C454.344 559.036 454.256 556.42 454.398 555.206C454.483 554.469 454.571 553.732 454.656 552.995C453.519 553.113 452.385 553.229 451.248 553.348C447.859 553.696 446.946 553.126 448.645 551.724Z"
     fill="#2AACFE"
     id="path28"
     style="fill:#2b7fff;fill-opacity:1;stroke:#2b7fff;stroke-opacity:1" />
  <path
     d="M453.016 584.34C453.362 583.75 453.596 582.734 453.539 582.084C453.307 579.461 453.653 577.937 454.377 578.383C455.496 579.077 454.573 592.168 453.315 593.425C452.459 594.281 452.354 593.887 452.369 589.902C452.382 587.435 452.673 584.933 453.016 584.34Z"
     fill="#2AACFE"
     id="path29"
     style="fill:#2b7fff;fill-opacity:1;stroke:#2b7fff;stroke-opacity:1" />
  <path
     d="M450.684 601.248C451.202 600.82 451.748 600.748 451.954 601.083C452.611 602.143 451.542 610.203 450.647 610.945C449.926 611.543 449.774 610.831 449.774 606.836C449.774 603.462 450.049 601.777 450.684 601.248Z"
     fill="#2AACFE"
     id="path30"
     style="fill:#2b7fff;fill-opacity:1;stroke:#2b7fff;stroke-opacity:1" />
  <path
     d="M671.232 165.555C671.524 165.527 673.792 165.383 676.271 165.233C678.751 165.081 682.177 164.669 683.883 164.313C685.589 163.957 692.693 163.367 699.67 163.001C706.647 162.635 713.225 162.073 714.29 161.751C715.354 161.429 720.522 160.844 725.777 160.449C731.03 160.058 735.995 159.483 736.809 159.174C737.624 158.864 740.431 158.413 743.044 158.173C745.658 157.931 749.972 157.207 752.63 156.565C755.287 155.921 759.628 155.204 762.275 154.97C764.922 154.735 767.574 154.284 768.167 153.967C768.762 153.65 771.959 153.088 775.276 152.719C778.59 152.351 783.189 151.642 785.493 151.142C787.797 150.645 791.713 149.923 794.192 149.544C801.419 148.441 811.804 146.418 812.521 145.974C812.884 145.75 815.286 145.183 817.861 144.711C820.439 144.242 825.444 143.064 828.988 142.098C832.532 141.128 836.685 140.082 838.213 139.773C839.742 139.463 842.353 138.786 844.013 138.27C852.848 135.52 854.596 135.174 855.16 136.064C855.915 137.254 855.864 137.734 854.926 138.337C853.846 139.03 849.093 140.337 844.943 141.085C843.085 141.42 840.041 142.116 838.177 142.631C836.314 143.144 832.179 144.16 828.988 144.886C825.797 145.611 819.998 146.943 816.101 147.845C812.204 148.748 806.837 149.954 804.18 150.523C797.746 151.908 789.689 153.678 782.562 155.276C779.356 155.995 776.052 156.583 775.219 156.583C774.387 156.583 771.211 157.145 768.162 157.831C761.834 159.253 749.867 161.004 741.353 161.751C738.162 162.032 733.67 162.607 731.366 163.032C729.061 163.455 723.118 164.202 718.156 164.692C713.194 165.184 706.959 165.865 704.302 166.208C699.057 166.888 680.377 168.28 674.661 168.419C671.444 168.496 671.098 168.37 670.91 167.053C670.797 166.257 670.941 165.581 671.232 165.555Z"
     fill="#151617"
     id="path31" />
  <path
     d="M521.024 204.267C524.021 200.901 526.833 197.705 527.269 197.163C533.336 189.673 534.978 187.678 535.798 186.815C536.329 186.253 536.764 185.469 536.764 185.075C536.764 184.678 537.143 184.124 537.607 183.84C538.071 183.557 540.386 180.861 542.752 177.848C545.118 174.834 547.422 171.924 547.871 171.378C548.317 170.832 550.861 167.496 553.518 163.968C559.635 155.851 561.41 153.918 562.22 154.503C563.094 155.135 566.406 159.607 566.406 160.156C566.406 160.395 567.565 161.978 568.983 163.671C570.401 165.365 571.561 166.95 571.561 167.195C571.561 168.254 580.169 178.126 587.131 185.046C596.299 194.166 614.28 209.404 619.309 212.322C619.92 212.677 621.75 213.907 623.376 215.061C633.173 221.998 634.503 222.897 637.503 224.59C638.509 225.158 641.591 227.152 644.354 229.021C647.115 230.892 649.772 232.625 650.257 232.875C650.744 233.122 652.301 234.027 653.718 234.88C655.136 235.738 657.311 237.037 658.551 237.769C659.791 238.501 661.675 239.664 662.74 240.352C663.804 241.04 665.688 242.203 666.928 242.935C668.168 243.667 670.343 244.966 671.761 245.819C673.179 246.674 674.918 247.693 675.627 248.084C676.336 248.476 677.97 249.432 679.259 250.211C680.548 250.989 683.739 252.871 686.347 254.389C688.958 255.907 691.528 257.415 692.059 257.742C692.59 258.07 695.451 259.699 698.415 261.364C700.209 262.371 702.005 263.379 703.802 264.39C703.647 271.176 703.493 277.963 703.338 284.749C703.083 295.949 702.603 307.723 702.271 310.911C701.938 314.099 701.369 320.626 701.008 325.409C700.077 337.74 700.356 337.008 696.626 337.008C694.876 337.008 692.247 336.444 690.68 335.735C689.133 335.031 687.141 334.451 686.249 334.446C685.36 334.436 683.548 333.851 682.226 333.142C680.903 332.433 679.457 331.853 679.011 331.856C678.568 331.856 677.045 331.302 675.627 330.621C674.21 329.941 672.325 329.072 671.439 328.691C670.552 328.309 669.392 327.742 668.861 327.43C668.33 327.116 666.011 325.948 663.706 324.832C661.402 323.716 659.082 322.566 658.551 322.275C658.02 321.986 656.713 321.296 655.652 320.739C649.386 317.455 645.873 315.501 645.019 314.826C644.488 314.403 643.329 313.71 642.442 313.285C641.555 312.857 640.063 312.004 639.122 311.388C638.181 310.769 635.542 309.189 633.258 307.875C630.975 306.558 628.737 305.034 628.284 304.49C627.833 303.947 627.196 303.501 626.871 303.501C626.546 303.501 625.495 302.965 624.536 302.307C619.17 298.642 610.741 293.191 610.434 293.191C610.239 293.191 608.695 292.031 607.001 290.613C605.308 289.195 603.741 288.036 603.519 288.036C603.295 288.036 601.405 286.804 599.318 285.298C597.23 283.79 594.877 282.123 594.085 281.592C593.297 281.061 591.116 279.393 589.237 277.885C587.361 276.38 585.641 275.148 585.415 275.148C585.041 275.148 580.688 272.065 579.937 271.269C579.76 271.081 577.44 269.346 574.782 267.416C572.125 265.485 569.805 263.75 569.627 263.562C569.45 263.374 567.702 262.029 565.746 260.572C563.787 259.119 559.717 255.783 556.701 253.167C553.686 250.548 550.111 247.535 548.757 246.473C545.695 244.066 527.297 225.737 522.805 220.624C516.518 213.458 515.5 212.149 515.539 211.27C515.559 210.785 518.029 207.633 521.024 204.267ZM546.43 194.601C545.494 196.993 544.989 197.79 544.7 197.916C544.18 198.143 538.195 205.329 536.458 207.811C535.963 208.52 534.38 210.476 532.939 212.159C532.066 213.18 531.194 214.201 530.321 215.221C530.321 219.956 534.463 223.126 537.571 220.768C538.192 220.296 543.033 214.435 548.33 207.739C553.626 201.045 558.338 195.096 558.799 194.521C559.261 193.944 560.22 192.735 560.928 191.83C562.483 189.848 563.328 188.82 566.908 184.554C571.445 179.141 571.764 175.023 567.774 173.37C566.032 172.649 565.614 172.713 564.016 173.955C563.026 174.721 559.101 179.247 555.291 184.01C552.982 186.895 550.673 189.781 548.363 192.668C547.719 193.313 547.074 193.957 546.43 194.601ZM664.351 271.604C663.665 270.186 663.095 268.555 663.085 267.978C663.072 267.4 662.639 266.578 662.121 266.148C661.603 265.717 660.979 264.74 660.74 263.975C660.348 262.74 658.09 259.369 656.296 257.345C655.943 256.946 654.927 255.67 654.041 254.51C651.767 251.536 639.591 239.362 635.047 235.519C632.949 233.748 630.31 231.501 629.183 230.526C628.052 229.55 626.851 228.753 626.508 228.753C626.167 228.753 625.363 228.173 624.722 227.464C624.08 226.756 623.201 226.176 622.768 226.176C622.335 226.176 621.636 225.761 621.216 225.255C620.796 224.75 619.092 223.621 617.432 222.75C610.522 219.126 608.063 217.77 607.388 217.206C606.993 216.881 605.803 216.404 604.743 216.147C603.681 215.889 601.797 215.175 600.557 214.561C596.879 212.739 592.132 211.278 587.706 210.608C585.425 210.262 583.051 209.711 582.435 209.378C579.522 207.821 572.437 209.442 568.661 212.533C567.599 213.404 566.04 215.265 565.199 216.67C563.838 218.948 563.707 219.791 563.975 224.472C564.251 229.269 564.743 230.921 567.171 235.197C567.473 235.728 568.133 237.058 568.635 238.148C569.14 239.241 570.004 240.507 570.558 240.965C571.11 241.424 571.561 242.135 571.561 242.548C571.561 243.875 583.938 256.129 590.247 261.052C597.965 267.068 604.769 271.821 608.612 273.88C609.321 274.259 611.061 275.277 612.478 276.143C613.896 277.009 615.979 278.148 617.108 278.679C618.234 279.208 619.324 279.911 619.53 280.244C619.734 280.576 620.75 281.035 621.786 281.262C622.819 281.489 623.997 282.071 624.399 282.558C624.801 283.046 626.054 283.636 627.183 283.876C628.309 284.113 630.137 284.858 631.243 285.528C632.346 286.198 633.805 286.747 634.48 286.747C635.158 286.747 636.315 287.17 637.052 287.688C638.217 288.5 644.62 289.92 652.107 291.02C655.974 291.587 661.719 288.335 664.286 284.126C666.067 281.205 666.098 275.22 664.351 271.604ZM688.491 264.034C687.087 261.505 683.751 261.549 681.584 264.124C680.287 265.666 679.95 266.941 679.627 271.516C679.414 274.555 678.939 277.599 678.578 278.275C678.215 278.95 677.733 282.368 677.504 285.865C677.274 289.363 676.676 293.964 676.176 296.09C675.676 298.217 675.006 303.217 674.686 307.202C674.364 311.187 673.73 315.481 673.271 316.744C672.57 318.685 672.591 319.308 673.413 320.775C673.949 321.729 675.228 322.914 676.259 323.409C677.867 324.185 678.362 324.18 679.779 323.386C682.215 322.023 683.13 319.504 683.705 312.599C683.986 309.189 684.677 304.279 685.239 301.686C685.801 299.093 686.272 295.325 686.288 293.309C686.303 291.294 686.594 288.342 686.935 286.747C689.198 276.133 689.86 266.49 688.491 264.034ZM541.932 181.062C539.551 182.338 540.891 184.111 544.556 184.531C546.242 184.724 546.703 185.049 546.538 185.928C546.262 187.413 544.68 189.954 542.626 192.209C540.824 194.184 540.084 198.467 541.546 198.467C542.78 198.467 549.196 189.58 548.765 188.459C548.523 187.828 549.245 187.09 550.954 186.219C553.92 184.704 555.742 182.255 555.266 180.425C555.08 179.716 555.191 178.976 555.513 178.778C555.833 178.58 556.096 177.871 556.096 177.203C556.096 175.404 557.317 174.979 557.908 176.574C558.361 177.801 558.518 177.845 559.248 176.966C560.305 175.69 559.645 174.626 557.797 174.626C557.003 174.626 556.067 174.34 555.719 173.992C554.57 172.842 547.647 174.404 545.827 176.226C545.286 176.765 544.744 177.306 544.203 177.848C544.883 177.848 545.567 177.848 546.247 177.848C547.368 177.848 548.477 178.154 548.708 178.531C548.948 178.92 549.928 179.036 550.987 178.804C553.441 178.265 554.634 179.007 553.072 180.1C551.704 181.059 545.2 181.611 544.028 180.868C543.592 180.593 542.649 180.68 541.932 181.062Z"
     fill="#109DFD"
     id="path32"
     style="fill:#2b7fff;fill-opacity:1" />
  <path
     d="M640.23 204.483C641.447 204.017 646.241 204.514 652.43 205.754C662.26 207.723 685.288 209.267 688.837 208.192C690.077 207.819 696.322 207.234 702.712 206.893C709.101 206.553 715.153 205.963 716.156 205.581C717.161 205.2 720.744 204.599 724.118 204.249C727.492 203.901 731.528 203.182 733.087 202.651C734.647 202.122 737.077 201.689 738.492 201.689C739.905 201.689 742.712 201.109 744.73 200.401C746.746 199.692 749.287 199.112 750.375 199.112C751.462 199.112 754.004 198.532 756.019 197.823C758.038 197.114 760.553 196.534 761.613 196.534C762.669 196.534 765.007 195.954 766.806 195.246C768.605 194.537 770.863 193.957 771.825 193.957C772.786 193.957 775.312 193.398 777.438 192.712C779.565 192.026 782.465 191.176 783.882 190.82C790.945 189.057 792.501 188.637 795.481 187.701C797.252 187.147 800.298 186.33 802.247 185.889C804.196 185.449 806.66 184.789 807.724 184.42C808.789 184.052 810.817 183.469 812.235 183.124C813.652 182.781 815.681 182.209 816.745 181.85C824.076 179.394 827.243 178.492 828.53 178.492C829.342 178.492 831.143 177.912 832.533 177.203C833.922 176.494 835.868 175.904 836.858 175.891C837.845 175.878 839.378 175.456 840.265 174.948C841.152 174.44 842.366 174.017 842.966 174.004C843.995 173.984 870.551 199.797 870.551 200.818C870.551 201.081 872.113 202.906 874.02 204.875C875.927 206.844 880.765 212.079 884.771 216.51C888.779 220.941 892.398 224.853 892.815 225.209C894.282 226.454 900.192 234.638 900.171 235.398C900.153 236.169 896.089 239.437 893.109 241.079C892.225 241.566 890.81 242.471 889.962 243.089C889.114 243.71 887.951 244.223 887.379 244.231C886.807 244.239 885.614 244.813 884.727 245.507C883.84 246.2 882.727 246.775 882.25 246.783C881.776 246.79 880.649 247.376 879.747 248.084C878.848 248.793 877.541 249.373 876.847 249.373C876.154 249.373 874.85 249.953 873.948 250.662C873.048 251.371 871.692 251.951 870.937 251.951C870.182 251.951 868.483 252.531 867.161 253.239C865.839 253.948 864.244 254.528 863.617 254.528C862.991 254.528 861.395 255.108 860.073 255.817C858.751 256.526 857.045 257.106 856.287 257.106C855.526 257.106 853.712 257.649 852.256 258.314C850.799 258.979 848.449 259.817 847.031 260.178C845.613 260.536 843.585 261.121 842.52 261.48C835.231 263.92 832.027 264.838 830.785 264.838C829.999 264.838 827.888 265.418 826.089 266.127C824.29 266.836 822.032 267.416 821.07 267.416C820.109 267.416 817.583 267.98 815.457 268.668C813.33 269.356 810.139 270.204 808.368 270.55C806.598 270.898 803.987 271.47 802.569 271.826C796.556 273.331 788.187 275.109 785.493 275.455C783.898 275.661 781.434 276.241 780.016 276.749C778.598 277.254 776.297 277.682 774.902 277.697C773.508 277.713 770.317 278.28 767.814 278.955C765.311 279.63 761.303 280.362 758.906 280.584C756.509 280.806 753.754 281.29 752.785 281.667C751.813 282.04 748.156 282.62 744.658 282.955C741.16 283.29 737.735 283.865 737.047 284.234C736.358 284.602 732.273 285.169 727.969 285.497C723.664 285.824 719.177 286.409 717.994 286.798C714.073 288.095 714.042 288.01 713.834 275.019C713.73 268.532 713.501 262.792 713.323 262.261C712.828 260.781 716.648 260.678 720.945 262.054C724.053 263.052 726.863 263.227 739.743 263.222C750.401 263.219 755.553 262.975 757.135 262.395C758.373 261.944 762.089 261.294 765.394 260.951C768.696 260.608 771.977 260.018 772.683 259.642C773.387 259.266 775.727 258.673 777.882 258.325C780.037 257.977 782.617 257.271 783.614 256.755C784.612 256.24 786.181 255.817 787.099 255.817C788.014 255.817 789.903 255.237 791.293 254.528C792.682 253.819 794.306 253.239 794.901 253.239C796.089 253.239 798.659 252.116 808.368 247.347C815.624 243.785 816.026 243.548 820.738 240.179C824.272 237.653 828.723 232.32 829.911 229.194C831.445 225.155 830.442 221.99 826.388 218.093C824.31 216.092 819.985 213.288 818.977 213.288C818.472 213.288 816.604 212.734 814.825 212.056C813.047 211.378 808.835 210.453 805.469 210.002C797.326 208.906 776.168 208.499 773.25 209.381C772.01 209.757 766.935 210.334 761.973 210.664C757.012 210.997 751.068 211.705 748.764 212.247C746.46 212.785 742.98 213.525 741.031 213.891C736.727 214.695 732.654 215.714 728.788 216.946C727.193 217.456 724.855 218.134 723.589 218.456C722.326 218.778 720.442 219.484 719.401 220.026C718.362 220.57 717.151 221.015 716.71 221.018C714.785 221.026 704.279 227.145 700.634 230.377C695.709 234.751 692.384 240.7 693.007 244.022C693.319 245.685 693.165 246.262 692.324 246.584C691.729 246.814 690.77 246.659 690.2 246.241C689.628 245.824 688.144 245.02 686.904 244.455C685.664 243.891 684.504 243.203 684.326 242.929C684.148 242.656 682.989 241.963 681.749 241.391C680.509 240.821 678.625 239.782 677.56 239.081C676.496 238.38 674.723 237.292 673.617 236.663C662.936 230.586 663.794 231.717 663.129 222.809C662.42 213.332 661.381 211.128 657.476 210.839C655.051 210.659 654.744 210.824 653.443 213.033C652.316 214.943 652.162 215.755 652.675 217.092C653.693 219.745 654.19 224.075 653.523 224.487C653.188 224.694 651.721 224 650.262 222.943C648.803 221.884 647.476 221.021 647.313 221.021C647.151 221.021 645.718 220.144 644.13 219.072C640.89 216.884 640.153 215.213 639.656 208.896C639.411 205.795 639.547 204.746 640.23 204.483ZM880.716 228.678C878.492 226.333 875.077 222.567 873.128 220.314C869.994 216.69 858.184 203.63 854.748 199.986C854.047 199.246 851.879 196.8 849.931 194.557C842.884 186.443 841.198 184.936 839.175 184.936C836.801 184.936 834.466 187.281 834.466 189.668C834.466 191.312 839.623 197.63 847.998 206.246C849.237 207.522 851.848 210.419 853.797 212.685C856.862 216.247 866.968 227.405 873.605 234.552C874.757 235.792 875.7 237.029 875.703 237.303C875.706 237.573 876.695 238.267 877.904 238.844C879.977 239.834 880.227 239.821 882.255 238.64C883.946 237.656 884.443 236.913 884.583 235.166C884.74 233.215 884.266 232.418 880.716 228.678Z"
     fill="#109DFD"
     id="path33"
     style="fill:#2b7fff;fill-opacity:1" />
  <path
     d="M704.039 240.996C704.565 239.756 706.217 237.834 707.709 236.723C711.065 234.228 718.687 230.042 719.872 230.042C720.357 230.042 721.834 229.462 723.156 228.753C724.478 228.044 726.216 227.459 727.015 227.451C727.814 227.444 729.729 226.861 731.275 226.163C732.819 225.459 734.848 224.889 735.786 224.897C736.722 224.9 739.371 224.34 741.676 223.65C743.98 222.959 747.895 222.106 750.375 221.753C752.854 221.399 756.625 220.755 758.751 220.32C761.357 219.789 769.974 219.523 785.171 219.51C806.719 219.49 807.907 219.551 811.835 220.899C814.096 221.675 816.289 222.309 816.709 222.309C817.127 222.309 818.292 223.165 819.294 224.214C821.05 226.044 821.081 226.181 820.065 227.73C818.191 230.588 816.547 231.887 808.368 236.98C807.072 237.79 806.01 238.298 801.28 240.372C799.863 240.994 797.316 242.115 795.625 242.862C793.932 243.607 792.079 244.218 791.506 244.218C790.934 244.218 789.274 244.762 787.818 245.427C785.364 246.548 782.859 247.319 777.116 248.721C775.876 249.023 772.83 249.767 770.35 250.376C767.871 250.987 763.375 251.719 760.362 252.005C757.349 252.291 753.29 252.85 751.341 253.247C747.055 254.121 729.636 253.765 721.378 252.636C718.187 252.201 714.122 251.288 712.344 250.608C710.565 249.93 708.841 249.373 708.513 249.373C708.183 249.373 706.812 248.61 705.464 247.675C702.76 245.801 702.505 244.605 704.039 240.996Z"
     fill="#109DFD"
     id="path34"
     style="fill:#2b7fff;fill-opacity:1" />
  <path
     d="M574.228 220.289C575.509 219.005 576.027 218.938 581.698 219.337C585.788 219.626 588.605 220.183 590.281 221.039C591.652 221.737 593.211 222.309 593.748 222.309C594.284 222.309 596.109 222.92 597.802 223.665C599.495 224.413 602.039 225.534 603.457 226.155C609.293 228.717 609.146 228.635 618.278 234.475C626.515 239.744 643.545 255.551 648.205 262.261C653.656 270.101 654.242 271.181 655.953 276.553C656.541 278.398 655.904 279.674 653.868 280.739C652.386 281.512 642.782 280.118 640.186 278.751C639.124 278.192 637.818 277.731 637.287 277.726C636.756 277.72 635.449 277.14 634.387 276.437C633.325 275.733 631.84 275.156 631.09 275.153C630.34 275.151 628.99 274.568 628.09 273.859C627.188 273.151 626.028 272.571 625.513 272.571C624.995 272.571 623.881 272.053 623.036 271.416C622.19 270.782 620.775 269.913 619.889 269.483C616.29 267.735 611.11 264.64 609.86 263.487C609.128 262.812 608.318 262.261 608.06 262.261C607.8 262.261 606.019 261.101 604.101 259.683C602.184 258.265 600.382 257.098 600.101 257.088C599.82 257.08 597.707 255.348 595.402 253.239C593.098 251.131 591.036 249.399 590.817 249.391C589.108 249.316 575.427 233.3 575.427 231.372C575.427 231.073 574.855 229.562 574.153 228.018C572.496 224.369 572.519 221.995 574.228 220.289Z"
     fill="#109DFD"
     id="path35"
     style="fill:#2b7fff;fill-opacity:1" />
  <path
     d="M541.932 181.062C542.649 180.68 543.592 180.593 544.028 180.868C545.2 181.611 551.703 181.059 553.072 180.1C554.634 179.007 553.441 178.265 550.987 178.804C549.928 179.036 548.948 178.92 548.708 178.531C548.476 178.154 547.368 177.848 546.247 177.848C545.566 177.848 544.883 177.848 544.203 177.848C544.744 177.306 545.286 176.765 545.827 176.226C547.647 174.404 554.57 172.842 555.719 173.992C556.067 174.34 557.003 174.626 557.797 174.626C559.645 174.626 560.305 175.69 559.248 176.966C558.518 177.845 558.361 177.801 557.908 176.574C557.317 174.979 556.096 175.404 556.096 177.203C556.096 177.871 555.833 178.58 555.513 178.778C555.191 178.976 555.08 179.716 555.266 180.425C555.742 182.255 553.92 184.704 550.953 186.219C549.245 187.09 548.523 187.828 548.765 188.459C549.196 189.58 542.78 198.468 541.546 198.468C540.084 198.468 540.824 194.184 542.626 192.209C544.68 189.954 546.262 187.413 546.538 185.928C546.703 185.049 546.242 184.724 544.556 184.531C540.891 184.111 539.551 182.338 541.932 181.062Z"
     fill="#2AACFE"
     id="path36"
     style="fill:#2b7fff;fill-opacity:1;stroke:#2b7fff;stroke-opacity:1" />
  <path
     d="M913.08 267.416C915.863 259.758 916.595 258.237 919.802 253.446C922.838 248.909 930.416 244.151 937.244 242.496C947.474 240.012 949.68 240.019 960.441 242.561C965.947 243.862 968.617 245.208 976.136 250.479C978.048 251.822 982.698 256.456 984.157 258.474C988.02 263.823 989.301 266.101 992.624 273.537C994.119 276.878 996.186 286.853 996.196 290.773C996.199 291.794 996.201 292.814 996.204 293.835C995.99 295.338 995.774 296.843 995.56 298.346C995.129 300.493 994.701 302.642 994.271 304.789C993.84 305.648 993.413 306.509 992.982 307.367C990.951 311.612 989.943 313.597 989.43 314.514C988 317.079 979.989 324.121 978.504 324.121C978.128 324.121 976.664 324.77 975.251 325.564C972.932 326.871 971.811 327.01 963.609 327.015C955.505 327.02 954.165 326.858 951.044 325.51C945.749 323.219 941.453 320.901 937.888 318.417C934.705 316.2 926.895 308.702 925.645 306.666C925.292 306.088 924.137 304.343 923.08 302.787C920.477 298.949 919.701 297.66 918.851 295.768C918.454 294.881 917.572 293.085 916.892 291.776C916.214 290.464 915.657 288.858 915.657 288.208C915.657 287.556 915.077 285.376 914.368 283.357C913.428 280.677 913.08 278.04 913.08 273.553C913.08 271.509 913.08 269.462 913.08 267.416ZM977.527 313.3C977.252 312.135 976.579 310.684 976.032 310.078C975.486 309.473 974.842 308.179 974.597 307.199C974.352 306.222 973.893 305.261 973.579 305.068C972.545 304.429 972.976 303.019 975.262 299.544C977.932 295.49 978.033 294.077 975.963 289.708C973.643 284.814 969.14 281.28 963.972 280.301C962.189 279.963 960.23 279.424 959.619 279.105C959.008 278.788 955.374 278.316 951.541 278.061C945.669 277.669 944.314 277.37 942.906 276.161C940.716 274.277 941.221 272.138 944.669 268.689C947.123 266.235 947.404 266.127 951.371 266.127C954.845 266.127 955.817 266.385 957.423 267.738C959.668 269.625 963.609 269.967 964.238 268.331C965.024 266.284 964.586 264.918 962.619 263.261C959.536 260.668 957.552 259.851 953.487 259.51C951.433 259.34 949.672 259.09 949.572 258.959C948.43 257.454 946.587 253.85 946.587 253.123C946.587 251.86 943.234 248.729 941.881 248.729C941.28 248.729 940.216 249.301 939.514 250.002C938.246 251.27 938.246 251.288 939.52 254.35C940.221 256.044 941.272 258.273 941.857 259.307C942.906 261.163 942.894 261.206 940.726 263.207C936.736 266.885 934.988 270.045 934.994 273.571C934.996 277.179 936.197 279.416 939.659 282.27C942.038 284.231 944.492 284.77 957.382 286.151C962.289 286.68 963.841 287.128 966.161 288.693C967.71 289.737 969.334 291.459 969.772 292.518C970.457 294.17 970.395 294.737 969.339 296.554C968.321 298.302 967.367 298.882 963.841 299.9C962.421 300.31 960.998 300.722 959.578 301.132C958.111 300.642 956.644 300.155 955.175 299.665C952.758 298.859 950.136 297.614 949.355 296.9C947.577 295.273 943.494 295.018 942.551 296.474C941.381 298.286 942.582 300.738 945.654 302.812C947.268 303.898 948.873 304.789 949.221 304.789C949.574 304.789 950.997 305.369 952.386 306.078C954.356 307.083 956.186 307.367 960.691 307.367C967.042 307.367 968.076 307.854 968.808 311.182C969.035 312.225 969.638 313.424 970.148 313.844C970.658 314.267 971.073 314.996 971.073 315.463C971.073 316.525 973.563 318.321 975.038 318.321C976.151 318.321 978.218 316.659 978.094 315.86C978.061 315.617 977.803 314.468 977.527 313.3ZM990.528 302.696C989.781 305.086 989.234 308.06 989.314 309.3C989.363 310.053 989.412 310.803 989.461 311.555C989.809 310.803 990.157 310.053 990.505 309.3C993.49 302.851 994.41 300.281 994.057 299.361C993.211 297.16 991.856 298.444 990.528 302.696Z"
     fill="#109DFD"
     id="path37"
     style="fill:#2b7fff;fill-opacity:1" />
  <path
     d="M899.218 281.914C899.7 280.496 900.128 278.612 900.169 277.726C900.264 275.751 904.801 266.632 905.865 266.276C906.437 266.086 906.636 268.279 906.636 274.798C906.636 282.306 906.821 283.943 907.924 286.102C908.633 287.492 909.216 289.293 909.218 290.103C909.221 290.915 909.798 292.451 910.502 293.513C911.206 294.575 911.783 295.835 911.786 296.309C911.788 296.786 912.371 297.913 913.079 298.815C913.788 299.714 914.368 300.861 914.368 301.359C914.368 301.859 915.528 303.836 916.946 305.756C918.363 307.676 919.523 309.488 919.523 309.785C919.523 311.048 931.181 322.128 935.31 324.788C946.301 331.869 952.59 334.075 963.895 334.817C968.359 335.108 968.315 335.776 963.663 338.127C956.657 341.663 947.337 342.707 941.512 340.604C939.96 340.044 938.071 339.586 937.311 339.586C935.795 339.586 932.282 337.794 922.719 332.147C921.24 331.271 910.502 320.584 910.502 319.984C910.502 319.731 909.811 318.602 908.966 317.473C906.896 314.705 902.769 307.06 902.764 305.98C902.764 305.503 902.285 304.24 901.705 303.178C899.411 298.98 897.875 285.863 899.218 281.914Z"
     fill="#109DFD"
     id="path38"
     style="fill:#2b7fff;fill-opacity:1" />
  <path
     d="M990.528 302.696C991.856 298.444 993.211 297.16 994.057 299.361C994.41 300.281 993.49 302.851 990.505 309.3C990.157 310.053 989.809 310.803 989.461 311.555C989.412 310.803 989.363 310.053 989.314 309.3C989.234 308.06 989.781 305.086 990.528 302.696Z"
     fill="#2AACFE"
     id="path39" />
  <path
     d="M993.626 306.723C993.412 306.936 993.196 307.153 992.982 307.367C993.412 306.509 993.84 305.648 994.271 304.789C994.271 305.22 994.271 305.648 994.271 306.078C994.057 306.292 993.84 306.509 993.626 306.723Z"
     fill="#2AACFE"
     id="path40" />
  <path
     d="M370.861 127.264C373.629 118.98 376.446 114.629 383.174 108.255C387.891 103.786 395.871 98.5894 398.018 98.5894C398.52 98.5894 399.85 98.1151 400.969 97.5377C403.002 96.4861 411.196 94.9783 418.542 94.303C421.174 94.0607 423.558 94.2798 425.911 94.9783C427.821 95.5479 430.378 96.0119 431.587 96.0119C432.798 96.0119 434.556 96.4372 435.5 96.9578C436.44 97.4785 438.224 98.3574 439.464 98.909C446.766 102.159 454.555 109.822 455.839 115.021C456.104 116.085 456.767 117.452 457.316 118.062C458.104 118.936 458.326 120.965 458.372 127.728C458.437 136.896 458.63 136.089 454.052 145.595C451.261 151.395 439.755 162.009 431.731 166.187C427.873 168.197 424.793 169.473 423.805 169.473C423.169 169.471 421.718 169.968 420.584 170.574C418.903 171.476 407.206 173.373 403.379 173.365C399.391 173.357 390.46 171.744 388.682 170.71C387.512 170.027 386.158 169.471 385.679 169.471C384.8 169.471 378.478 164.844 377.282 163.323C374.431 159.707 372.281 155.805 370.724 151.428C368.598 145.459 368.665 133.837 370.861 127.264ZM450.717 119.191C449.534 118.207 446.498 118.204 444.668 119.184C443.943 119.573 442 120.14 440.353 120.449C437.44 120.993 437.278 120.936 434.564 118.434C428.463 112.809 420.573 113.822 414.511 121.006C412.214 123.728 409.178 129.104 409.178 130.45C409.178 130.924 408.606 132.576 407.905 134.12C407.201 135.667 406.621 137.664 406.616 138.566C406.606 139.463 405.789 141.175 404.794 142.366C403.167 144.314 402.752 144.487 400.667 144.095C397.175 143.44 395.002 140.249 395.002 135.77C395.002 133.246 395.36 131.813 396.291 130.633C396.999 129.731 397.579 128.71 397.579 128.365C397.579 128.017 398.304 127.259 399.19 126.679C402.038 124.813 401.062 120.498 397.796 120.498C394.778 120.498 389.674 126.749 388.602 131.754C388.295 133.185 387.713 133.783 386.282 134.138C380.225 135.646 377.838 136.342 377.119 136.806C376.096 137.471 376.073 140.618 377.088 141.634C378.094 142.639 382.449 142.577 385.419 141.515C387.697 140.701 387.8 140.734 389.447 142.799C390.375 143.964 391.136 145.198 391.136 145.541C391.136 146.582 395.783 149.874 398.92 151.054C401.814 152.142 401.93 152.137 405.015 150.668C408.467 149.028 413.034 143.721 413.042 141.35C413.044 140.59 413.617 138.706 414.318 137.162C415.021 135.615 415.601 133.736 415.606 132.984C415.63 130.945 418.604 125.996 421.156 123.756C422.805 122.31 424.032 121.789 425.793 121.797C429.582 121.813 430.064 122.444 430.332 127.733C430.669 134.463 429.744 137.185 425.589 141.672C422.037 145.51 421.233 147.76 422.839 149.366C424.62 151.147 426.994 150.232 430.535 146.402C434.884 141.693 437.054 137.278 438.152 130.903C438.716 127.62 439.203 127.228 443.353 126.736C445.065 126.535 447.642 125.767 449.086 125.032C451.227 123.939 451.707 123.357 451.707 121.854C451.707 120.841 451.261 119.642 450.717 119.191Z"
     fill="#109DFD"
     id="path41"
     style="fill:#2b7fff;fill-opacity:1" />
  <path
     d="M386.465 177.177C387.084 177.523 389.865 178.42 392.643 179.165C398.822 180.827 408.126 180.979 413.119 179.497C414.977 178.943 417.539 178.492 418.81 178.492C420.078 178.492 422.2 177.912 423.522 177.203C424.844 176.494 426.378 175.914 426.929 175.914C427.79 175.914 430.837 174.535 434.309 172.571C434.84 172.27 436 171.664 436.886 171.223C439.863 169.741 443.735 167.035 445.745 165.024C446.843 163.926 447.993 163.027 448.302 163.027C449.132 163.027 454.284 157.622 454.284 156.753C454.284 156.341 454.674 155.771 455.148 155.488C457.839 153.884 464.543 141.311 464.659 137.646C464.695 136.543 464.922 134.927 465.164 134.053C465.602 132.484 465.623 132.491 467.089 134.865C468.435 137.038 468.571 138.028 468.571 145.502C468.571 152.33 468.352 154.235 467.293 156.611C465.236 161.223 464.594 162.589 463.509 164.638C462.179 167.151 449.506 179.781 448.312 179.781C447.81 179.781 446.871 180.361 446.23 181.069C445.588 181.778 444.717 182.358 444.297 182.358C443.871 182.358 442.858 182.938 442.041 183.647C441.224 184.356 440.087 184.936 439.515 184.936C438.946 184.936 437.397 185.516 436.074 186.224C434.752 186.933 433.1 187.513 432.401 187.513C431.705 187.513 429.664 188.093 427.865 188.802C425.063 189.905 423.076 190.091 414.006 190.091C402.863 190.091 402.631 190.044 395.324 186.366C392.082 184.735 388.153 181.518 386.707 179.314C385.042 176.773 384.996 176.358 386.465 177.177Z"
     fill="#109DFD"
     id="path42"
     style="fill:#2b7fff;fill-opacity:1" />
  <path
     d="M32.3373 914.368C32.6827 913.128 33.2523 910.229 33.6029 907.924C33.956 905.62 34.8014 901.705 35.487 899.225C36.1726 896.746 36.732 893.929 36.732 892.967C36.7294 892.006 37.3093 889.748 38.0181 887.949C38.727 886.15 39.3069 884.039 39.3069 883.253C39.3069 881.959 40.1987 878.861 42.9644 870.551C43.4953 868.955 44.1423 866.491 44.4026 865.073C44.6629 863.656 45.364 861.568 45.9594 860.434C46.5522 859.3 47.0394 857.766 47.0394 857.024C47.0394 856.284 47.6193 854.542 48.3281 853.153C49.037 851.763 49.6169 850.023 49.6169 849.286C49.6169 848.549 50.1968 846.809 50.9056 845.42C51.6145 844.031 52.1944 842.291 52.1944 841.554C52.1944 840.817 52.7743 839.077 53.4831 837.688C54.192 836.298 54.7719 834.713 54.7719 834.167C54.7719 833.62 55.3518 832.089 56.0606 830.767C56.7695 829.445 57.3494 827.968 57.3494 827.486C57.3494 827.004 57.7515 825.841 58.2438 824.898C58.7361 823.957 59.4475 822.408 59.8238 821.452C61.1667 818.06 63.2158 817.387 71.8272 817.506C78.0003 817.593 80.3098 817.89 83.0007 818.952C84.8668 819.686 86.8592 820.289 87.4262 820.289C87.9959 820.289 89.6506 820.836 91.1069 821.501C92.5658 822.166 95.3521 823.364 97.3006 824.161C99.2492 824.957 102.368 826.331 104.229 827.215C105.355 827.749 106.482 828.285 107.611 828.821C107.603 830.03 107.595 831.239 107.587 832.448C107.575 834.443 107.136 837.816 106.616 839.943C106.092 842.069 105.381 846.564 105.033 849.931C104.685 853.297 103.976 857.212 103.458 858.63C102.938 860.047 102.499 862.151 102.484 863.303C102.469 864.457 101.876 866.483 101.167 867.806C100.458 869.128 99.8781 870.976 99.8781 871.912C99.8781 872.85 99.4889 873.938 99.0173 874.329C98.5404 874.724 97.8161 876.17 97.4063 877.541C96.2696 881.33 91.7642 885.815 88.6016 886.302C82.029 887.31 76.2786 889.018 74.5465 890.472C72.9201 891.841 71.438 893.828 68.4997 898.581C68.0615 899.29 67.1362 901.071 66.4454 902.537C65.7546 904.004 64.8757 905.398 64.4916 905.636C64.1076 905.873 63.7931 906.592 63.7931 907.231C63.7931 907.87 63.2132 909.133 62.5044 910.033C61.7956 910.935 61.2079 912.206 61.2002 912.858C61.1924 913.512 60.6202 914.77 59.9269 915.657C59.2335 916.544 58.6613 917.887 58.6536 918.639C58.6459 919.394 58.2309 920.348 57.7334 920.76C57.2386 921.173 56.6354 922.294 56.3957 923.255C56.156 924.214 55.5864 925.436 55.125 925.967C54.6662 926.498 53.9419 928.021 53.5141 929.349C53.0888 930.679 52.4908 931.766 52.1867 931.766C51.8851 931.766 51.4598 932.32 51.2459 932.998C49.9777 936.999 43.3587 942.677 39.9332 942.703C37.5052 942.721 33.5075 939.798 33.5075 938.004C33.5075 937.496 33.0719 936.718 32.541 936.277C31.7574 935.627 31.5873 933.699 31.6388 926.049C31.6775 920.866 31.9894 915.608 32.3373 914.368Z"
     fill="#151617"
     id="path43" />
  <path
     d="M897.547 113.088C897.779 110.961 898.287 108.642 898.679 107.933C899.071 107.224 899.872 105.628 900.463 104.389C902.396 100.319 903.246 99.1229 906.734 95.5608C910.765 91.4445 919.093 85.7018 921.028 85.7018C921.529 85.7018 923.279 85.109 924.918 84.3821C927.606 83.1939 928.929 83.0856 938.37 83.2893C946.51 83.4645 949.561 83.779 952.064 84.6992C957.925 86.8514 964.428 90.2331 968.261 93.1199C972.991 96.6845 978.736 101.94 978.775 102.737C978.793 103.069 979.355 103.938 980.025 104.67C980.695 105.402 982.022 107.595 982.976 109.544C983.93 111.492 985.025 113.668 985.409 114.376C986.18 115.794 987.659 122.385 988.239 126.975C988.466 128.767 988.206 131.486 987.574 133.955C987.005 136.18 986.538 138.517 986.538 139.149C986.538 139.783 985.958 141.038 985.249 141.938C984.541 142.84 983.961 143.982 983.961 144.474C983.961 146.727 973.298 156.583 970.862 156.583C970.426 156.583 969.39 157.06 968.558 157.642C962.926 161.586 937.277 161.545 931.622 157.586C930.836 157.034 929.802 156.583 929.325 156.583C928.361 156.583 917.471 151.24 915.863 149.977C911.979 146.93 903.749 138.515 903.048 136.878C902.581 135.785 901.749 134.52 901.195 134.061C900.643 133.602 900.192 132.816 900.192 132.313C900.192 131.811 899.648 130.326 898.983 129.012C897.591 126.254 896.924 118.841 897.547 113.088ZM978.437 137.736C977.909 136.76 977.164 135.963 976.785 135.963C976.403 135.963 975.256 135.311 974.238 134.515C973.218 133.715 971.501 132.383 970.424 131.55C968.707 130.226 968.514 129.764 968.875 127.841C969.444 124.797 967.114 119.22 964.431 117.212C957.572 112.08 949.242 112.864 936.921 119.797C934.888 120.941 931.037 122.431 930.112 122.431C929.578 122.431 928.428 121.962 927.555 121.39C926.204 120.506 925.967 119.849 925.967 117.006C925.967 110.985 930.081 107.51 937.385 107.358C941.571 107.27 943.96 105.417 942.767 103.185C941.821 101.417 938.8 99.8781 936.274 99.8781C935.174 99.8781 932.326 100.705 929.947 101.718C925.029 103.811 924.562 103.742 919.446 100.146C916.299 97.932 915.933 97.8238 914.466 98.6563C911.27 100.473 911.206 101.641 914.159 104.26C915.639 105.572 917.74 107.317 918.83 108.142C920.332 109.278 920.67 109.897 920.24 110.719C918.219 114.57 918.791 122.091 921.315 124.831C925.805 129.705 930.037 130.785 934.859 128.285C936.171 127.604 937.968 126.736 938.854 126.357C939.741 125.973 940.901 125.413 941.432 125.109C946.845 122.006 948.649 121.485 953.971 121.475C957.258 121.47 959.704 121.761 960.158 122.215C960.57 122.627 961.06 124.308 961.245 125.955C961.544 128.602 961.371 129.164 959.743 130.865C956.031 134.741 952.912 136.012 946.546 136.247C942.102 136.409 940.434 136.729 939.47 137.6C937.586 139.306 937.834 141.657 939.983 142.435C940.955 142.788 942.375 143.394 943.133 143.781C944.174 144.312 945.754 144.211 949.577 143.376C956.103 141.948 957.487 141.335 961.665 138.012C964.008 136.151 965.385 136.442 970.284 139.845C974.205 142.567 976.777 143.056 978.437 141.394C979.659 140.172 979.659 139.989 978.437 137.736Z"
     fill="#109DFD"
     id="path44"
     style="fill:#2b7fff;fill-opacity:1" />
  <path
     d="M891.841 134.19C892.158 133.393 892.539 132.741 892.684 132.741C892.831 132.741 893.761 134.409 894.746 136.448C896.996 141.087 901.156 146.165 906.607 150.915C911.051 154.789 919.17 160.449 920.278 160.449C920.639 160.449 921.704 160.862 922.647 161.367C926.743 163.563 930.434 164.986 933.578 165.581C935.437 165.934 937.602 166.568 938.388 166.988C939.233 167.442 943.793 167.873 949.487 168.037C958.201 168.293 959.487 168.184 962.56 166.963C964.434 166.215 966.606 165.602 967.393 165.599C968.176 165.597 969.687 165.019 970.751 164.316C971.816 163.612 973.148 163.035 973.713 163.032C974.277 163.029 975.264 162.447 975.906 161.738C976.548 161.029 977.427 160.449 977.86 160.449C978.293 160.449 979.009 160.014 979.45 159.483C982.319 156.026 980.363 161.681 977.264 165.8C973.437 170.891 965.663 177.203 963.225 177.203C962.895 177.203 961.279 177.817 959.632 178.567C956.959 179.786 955.479 179.93 945.829 179.92C936.372 179.909 934.475 179.726 930.655 178.461C920.26 175.017 915.229 172.667 910.824 169.197C909.407 168.084 907.494 166.695 906.574 166.115C904.615 164.88 900.192 160.797 900.192 160.225C900.192 160.009 899.032 158.302 897.617 156.436C896.202 154.567 895.042 152.694 895.04 152.271C895.037 151.848 894.485 150.544 893.808 149.371C893.075 148.101 892.405 145.288 892.15 142.407C891.916 139.749 891.619 137.138 891.493 136.607C891.367 136.076 891.524 134.989 891.841 134.19Z"
     fill="#109DFD"
     id="path45"
     style="fill:#2b7fff;fill-opacity:1" />
  <path
     d="M621.319 894.204C621.786 893.57 622.773 892.699 623.518 892.271C627.415 890.026 630.072 888.428 631.81 887.286C632.872 886.585 634.614 885.554 635.676 884.992C636.738 884.43 639.06 883.134 640.831 882.111C642.602 881.085 644.777 879.93 645.664 879.544C646.548 879.154 647.708 878.456 648.241 877.987C648.772 877.52 650.131 876.943 651.257 876.703C652.386 876.463 653.654 875.853 654.074 875.342C654.548 874.773 656.036 874.417 657.953 874.417C660.979 874.417 663.83 875.556 668.516 878.636C671.312 880.477 682.561 880.286 686.298 878.337C687.716 877.6 689.44 876.994 690.128 876.994C690.816 876.994 692.621 876.451 694.136 875.786C697.667 874.239 700.193 873.352 707.934 870.937C714.336 868.942 719.401 869.855 722.288 873.525C725.484 877.59 723.04 883.281 714.687 891.227C708.583 897.037 708.524 897.086 704.624 899.596C703.206 900.509 700.307 902.39 698.18 903.775C693.471 906.842 693.378 906.899 687.21 910.502C684.481 912.097 681.192 914.041 679.903 914.819C678.614 915.6 677.125 916.42 676.594 916.639C676.063 916.858 675.192 917.317 674.661 917.657C674.13 918 672.606 918.747 671.279 919.319C669.949 919.894 668.861 920.588 668.861 920.861C668.861 921.134 667.774 921.706 666.444 922.132C665.116 922.559 663.593 923.284 663.062 923.742C662.531 924.201 661.309 924.773 660.35 925.013C659.389 925.253 658.268 925.856 657.855 926.351C657.443 926.848 656.809 927.256 656.448 927.256C655.778 927.256 651.685 929.065 647.509 931.209C643.597 933.215 641.537 932.82 637.82 929.349C635.011 926.725 633.062 924.016 630.17 918.719C629.83 918.098 629.263 917.082 628.905 916.461C628.549 915.842 627.933 914.61 627.539 913.724C627.144 912.837 626.276 911.059 625.611 909.77C624.943 908.481 624.397 907.033 624.397 906.548C624.394 906.066 623.923 904.8 623.35 903.736C622.778 902.671 622.077 900.934 621.788 899.87C621.5 898.805 621.085 897.357 620.868 896.648C620.649 895.939 620.853 894.838 621.319 894.204Z"
     fill="#151617"
     id="path46" />
</svg>
