<?xml version="1.0" encoding="UTF-8"?>
<svg version="1.1" xmlns="http://www.w3.org/2000/svg" width="400" height="400">
<path d="M0 0 C1.36125 0.61875 1.36125 0.61875 2.75 1.25 C5.66666413 0.00072715 5.66666413 0.00072715 8.75 -1.75 C16.27076562 -3.61932325 24.11768836 -2.89973546 30.8125 1.0625 C32.97881162 3.5083357 33.48146771 5.02761257 33.75 8.25 C34.5853125 8.18039063 34.5853125 8.18039063 35.4375 8.109375 C41.49166374 7.82302942 45.7316365 8.79417241 50.75 12.25 C54.07780602 15.30798391 55.03016952 18.0520454 56.125 22.3125 C57.46782736 27.31490083 59.30137618 28.56228978 63.75 31.25 C67.41464822 37.60205691 67.30320093 43.31317005 66 50.25 C65.401947 54.38788019 66.75030157 56.69261011 68.74609375 60.24609375 C71.07443525 64.89371706 71.16489865 68.9616305 69.5625 73.9375 C67.86912318 77.03229213 66.07443868 79.60494909 63.75 82.25 C64.554375 82.91 65.35875 83.57 66.1875 84.25 C69.50148924 88.12979228 69.49577025 90.25014825 69.75 95.25 C70.4925 95.3325 71.235 95.415 72 95.5 C75.45896732 96.44335472 76.65650231 97.33405679 78.75 100.25 C79.37011262 102.95265751 79.56437415 105.46561228 79.75 108.25 C80.513125 108.188125 81.27625 108.12625 82.0625 108.0625 C84.75 108.25 84.75 108.25 86.390625 109.49609375 C88.51388918 112.23559265 88.22196822 114.53802324 88.1015625 117.8984375 C87.37649929 122.74830473 85.16097711 126.02969548 81.4375 129.25 C77.80622601 130.60117172 75.46940111 130.21428918 71.75 129.25 C69.8125 127.875 69.8125 127.875 68.75 126.25 C68.75 125.26 68.75 124.27 68.75 123.25 C67.698125 123.311875 66.64625 123.37375 65.5625 123.4375 C60.66476066 123.19662757 58.4027981 121.84580506 54.9375 118.5 C53.26565353 115.3322909 53.48894841 112.77419648 53.75 109.25 C54.08 108.59 54.41 107.93 54.75 107.25 C54.028125 107.20875 53.30625 107.1675 52.5625 107.125 C48.72838845 105.9321653 46.74274467 103.61517972 44.75 100.25 C44.14560712 97.78593673 43.75 95.76971065 43.75 93.25 C42.43 93.58 41.11 93.91 39.75 94.25 C40.07613281 94.81589844 40.40226562 95.38179688 40.73828125 95.96484375 C41.84514385 98.4649002 41.98802807 100.09776443 41.9375 102.8125 C41.93105469 103.57691406 41.92460937 104.34132813 41.91796875 105.12890625 C41.75 107.25 41.75 107.25 40.75 110.25 C41.83152518 113.07606822 41.83152518 113.07606822 43.49609375 116.16015625 C44.08583984 117.31451172 44.67558594 118.46886719 45.28320312 119.65820312 C45.91737732 120.8766101 46.55215015 122.09470567 47.1875 123.3125 C48.42072752 125.69652934 49.6467409 128.0840333 50.87109375 130.47265625 C51.4220874 131.53234619 51.97308105 132.59203613 52.54077148 133.68383789 C53.75 136.25 53.75 136.25 53.75 138.25 C51.92480469 138.05249023 51.92480469 138.05249023 49.75 137.25 C48.28613281 135.14868164 48.28613281 135.14868164 46.953125 132.41015625 C46.46972656 131.42982422 45.98632812 130.44949219 45.48828125 129.43945312 C44.75158203 127.89161133 44.75158203 127.89161133 44 126.3125 C43.49339844 125.28447266 42.98679687 124.25644531 42.46484375 123.19726562 C38.75 115.57232353 38.75 115.57232353 38.75 113.25 C37.76 113.745 37.76 113.745 36.75 114.25 C37.12125 115.301875 37.4925 116.35375 37.875 117.4375 C38.81360935 121.52715501 38.84560239 122.72557779 36.75 126.25 C36.04875 126.8275 35.3475 127.405 34.625 128 C32.38922964 130.68292443 32.58494222 131.38282123 32.75 134.75 C32.95138889 138.97222222 32.95138889 138.97222222 30.9375 141.75 C26.51117741 144.78519263 21.93625985 144.77865215 16.75 144.25 C13.78087118 142.86019502 12.05342972 141.55342972 9.75 139.25 C9.27949219 140.21421875 8.80898438 141.1784375 8.32421875 142.171875 C7.69552821 143.44802296 7.06660993 144.72405874 6.4375 146 C6.12876953 146.63421875 5.82003906 147.2684375 5.50195312 147.921875 C2.14409829 154.70827634 2.14409829 154.70827634 -0.25 157.25 C-1.24 157.25 -2.23 157.25 -3.25 157.25 C-2.61941917 153.85870554 -1.29954641 151.65144533 0.625 148.8125 C7.47776049 137.47399533 7.23954901 126.81629503 4.75 114.25 C4.13635511 111.89609213 3.45697511 109.57850527 2.75 107.25 C1.63625 107.745 1.63625 107.745 0.5 108.25 C-6.06772912 110.00139443 -13.26194209 110.51548286 -19.625 107.75 C-27.13133525 103.29603344 -30.70973903 95.28917882 -33.25 87.25 C-33.25 86.59 -33.25 85.93 -33.25 85.25 C-34.19875 85.146875 -35.1475 85.04375 -36.125 84.9375 C-39.25 84.25 -39.25 84.25 -41.25 81.25 C-41.15611374 76.74345949 -40.04927176 73.73218109 -38 69.75 C-33.89142191 61.24619883 -32.55092883 51.73173856 -30.74316406 42.52734375 C-30.25 40.25 -30.25 40.25 -29.25 37.25 C-30.8278125 37.3428125 -30.8278125 37.3428125 -32.4375 37.4375 C-37.662756 37.1805202 -39.86688291 35.63311709 -43.5 32 C-46.26068133 27.66178648 -46.63973698 24.05696238 -45.5625 19.0625 C-43.85755376 15.40904378 -41.87251302 13.06125651 -38.25 11.25 C-36.79280253 11.14872759 -35.3341349 11.06786674 -33.875 11 C-29.97713959 10.60570176 -29.97713959 10.60570176 -27 8 C-26.4225 7.0925 -25.845 6.185 -25.25 5.25 C-18.23364077 -2.71451588 -9.52102152 -5.12670389 0 0 Z M0.75 5.25 C1.75 7.25 1.75 7.25 1.75 7.25 Z M-24.25 29.25 C-28.86102697 42.34835922 -28.86102697 42.34835922 -29.9375 56 C-29.72658257 60.92140663 -32.39910209 65.00023963 -34.76049805 69.15136719 C-36.90374351 73.02395237 -37.81412117 75.82677719 -37.25 80.25 C-35.48863645 82.43331689 -35.48863645 82.43331689 -33.3046875 82.4453125 C-30.27734375 82.34765625 -30.27734375 82.34765625 -27.25 82.25 C-26.92 82.91 -26.59 83.57 -26.25 84.25 C-28.23 84.745 -28.23 84.745 -30.25 85.25 C-27.71373321 93.89636405 -24.48292827 99.74668501 -17.25 105.25 C-12.91983687 107.41508157 -7.32760107 106.88951676 -2.80078125 105.49609375 C-0.54229867 104.51831267 1.59840706 103.44349397 3.75 102.25 C4.843125 101.651875 5.93625 101.05375 7.0625 100.4375 C9.5438944 98.41776037 10.42225686 97.33416964 11.875 94.625 C13.7932805 91.1720951 14.33350931 90.6818073 17.75 89.25 C17.07453125 88.88648438 16.3990625 88.52296875 15.703125 88.1484375 C9.04402677 84.39547751 5.22111802 81.66335407 2.75 74.25 C2.49656234 69.68812214 2.74830823 66.37848928 4.75 62.25 C4.13125 61.693125 3.5125 61.13625 2.875 60.5625 C-0.41479925 56.98242434 -1.35757418 53.97416859 -1.4375 49.1875 C-1.29654097 46.22736028 -1.02613013 44.03785944 -0.25 41.25 C-1.10722656 41.28480469 -1.96445312 41.31960937 -2.84765625 41.35546875 C-9.45246952 41.51183975 -14.47083756 41.58907163 -20.25 38.25 C-23.01223278 35.48776722 -22.82856291 33.04293383 -23.25 29.25 C-23.58 29.25 -23.91 29.25 -24.25 29.25 Z M5.75 104.25 C5.87117188 104.80945313 5.99234375 105.36890625 6.1171875 105.9453125 C7.66192241 113.33627492 8.73680354 120.76959209 9.75 128.25 C11.07 126.93 12.39 125.61 13.75 124.25 C13.42 123.59 13.09 122.93 12.75 122.25 C11.43113578 118.29340734 11.48481868 115.42660573 11.75 111.25 C12.141875 110.528125 12.53375 109.80625 12.9375 109.0625 C13.205625 108.464375 13.47375 107.86625 13.75 107.25 C12.61250805 104.46491684 12.61250805 104.46491684 10.75 102.25 C8.42642489 102.06509993 8.42642489 102.06509993 5.75 104.25 Z " fill="#000000" transform="translate(302.25,77.75)"/>
<path d="M0 0 C25.150165 -0.24417636 25.150165 -0.24417636 28.71801758 2.15551758 C30.60908412 4.87633413 30.24340199 6.92321607 30.07421875 10.19921875 C30.01943359 11.40771484 29.96464844 12.61621094 29.90820312 13.86132812 C29.79895508 15.7552832 29.79895508 15.7552832 29.6875 17.6875 C29.62626953 18.96173828 29.56503906 20.23597656 29.50195312 21.54882812 C29.34851627 24.70018516 29.1806358 27.85010392 29 31 C30.00095703 31.04463379 31.00191406 31.08926758 32.03320312 31.13525391 C42.43046486 31.64619015 52.69303703 32.68382684 63.01123047 34.046875 C65.4974666 34.37466599 67.98488713 34.69188978 70.47265625 35.0078125 C75.32118348 35.63097257 80.16192545 36.30051037 85 37 C85.79519043 37.11347778 86.59038086 37.22695557 87.40966797 37.34387207 C89.72428563 37.68233926 92.03400124 38.04396237 94.34375 38.4140625 C95.02908813 38.51343109 95.71442627 38.61279968 96.42053223 38.71517944 C102.52970868 39.74431261 107.13240972 42.55015087 111.125 47.25 C111.80949219 48.03117187 111.80949219 48.03117187 112.5078125 48.828125 C116.56414732 54.73210971 118.7429873 60.77733112 120.1875 67.75 C120.35185547 68.471875 120.51621094 69.19375 120.68554688 69.9375 C122.87202663 80.06435362 123.1515955 90.34648232 123.09765625 100.671875 C123.09553383 102.24452118 123.09553383 102.24452118 123.09336853 103.84893799 C123.08783676 107.14932286 123.07529772 110.44963615 123.0625 113.75 C123.05747616 116.00781151 123.05291481 118.2656241 123.04882812 120.5234375 C123.03788982 126.01564882 123.0212215 131.50781929 123 137 C123.65591629 137.35399872 124.31183258 137.70799744 124.98762512 138.07272339 C168.03618742 161.31821224 168.03618742 161.31821224 171 171 C171.1722175 173.86103267 170.93604017 176.28490211 170 179 C164.35982959 185.32382743 156.07788969 186.4286293 148.0546875 186.94921875 C143.64747095 187.0224845 139.35853263 186.62678014 135 186 C136.45594755 187.31514604 137.91483579 188.62703717 139.375 189.9375 C140.18710938 190.66839844 140.99921875 191.39929688 141.8359375 192.15234375 C143.85924167 194.02989471 143.85924167 194.02989471 146 195 C146 195.99 146 196.98 146 198 C142.00168715 197.47060666 139.86137412 196.44359235 136.875 193.75 C136.21242187 193.16734375 135.54984375 192.5846875 134.8671875 191.984375 C133 190 133 190 131.87890625 187.5234375 C128.8888944 183.50774591 124.66346981 182.55238796 120.0625 180.875 C103.93545834 174.62146816 80.0482007 165.16065061 68.73535156 151.46948242 C66.09407789 149.23287209 63.00386335 148.72530496 59.70703125 147.95703125 C59.00100266 147.78370773 58.29497406 147.61038422 57.56755066 147.43180847 C55.31816192 146.88202773 53.06553797 146.34710696 50.8125 145.8125 C49.28426832 145.44173025 47.75627018 145.06999649 46.22851562 144.69726562 C42.48829221 143.78698028 38.74509919 142.89000287 35 142 C35.00523682 142.67466309 35.01047363 143.34932617 35.01586914 144.04443359 C35.03688746 147.1546126 35.04973824 150.26477658 35.0625 153.375 C35.07087891 154.43589844 35.07925781 155.49679688 35.08789062 156.58984375 C35.1079424 163.12672204 34.8058078 169.51174824 34 176 C35.03125 176.350625 36.0625 176.70125 37.125 177.0625 C47.67203472 181.08578954 58.668776 185.337552 64 196 C64.52113171 201.22840334 64.64273534 205.64036754 62.375 210.4375 C55.2822888 218.09016209 44.11635529 221.62545498 33.80859375 222.16796875 C32.13990234 222.17763672 32.13990234 222.17763672 30.4375 222.1875 C28.76494141 222.20876953 28.76494141 222.20876953 27.05859375 222.23046875 C24.11508623 222.00867189 22.4793808 221.5337001 20 220 C20 219.67 20 219.34 20 219 C21.72283203 218.96132813 21.72283203 218.96132813 23.48046875 218.921875 C34.96791251 218.54847105 47.99377428 218.05820196 57 210 C59.64201025 205.94891762 60.70236884 202.8162435 60 198 C54.71531038 187.43062076 43.53036598 183.58860201 33 180 C31.56392988 179.55361419 30.12506 179.11614056 28.68359375 178.6875 C27.97396484 178.47617432 27.26433594 178.26484863 26.53320312 178.04711914 C25.17829954 177.6529912 23.81901149 177.27350914 22.45507812 176.91186523 C17.51257792 175.50254006 14.65516062 173.4792732 11 170 C10.67 169.34 10.34 168.68 10 168 C9.67 179.22 9.34 190.44 9 202 C8.01 202 7.02 202 6 202 C6 188.8 6 175.6 6 162 C6.99 162 7.98 162 9 162 C9 161.01 9 160.02 9 159 C8.1028125 158.6596875 8.1028125 158.6596875 7.1875 158.3125 C4.27748097 156.56648858 3.3199607 155.12622271 2 152 C2.16999195 147.15522938 3.12263274 144.75308773 6 141 C6.11992322 138.42177379 6.11992322 138.42177379 6 136 C4.98164062 135.75354736 3.96328125 135.50709473 2.9140625 135.25317383 C-0.89897691 134.32634284 -4.70713138 133.38063459 -8.51416016 132.42944336 C-10.15580992 132.02201368 -11.79870577 131.61956858 -13.44287109 131.22241211 C-27.05806419 127.92814711 -37.1911919 124.45326628 -45.21875 112.12890625 C-46.31869882 110.12483284 -47.18238152 108.13489269 -48 106 C-48.2990625 105.23171875 -48.598125 104.4634375 -48.90625 103.671875 C-55.08017372 84.12111657 -51.30793261 62.53729179 -42.28857422 44.65771484 C-39.05190863 38.64292373 -34.90770362 33.7447923 -30 29 C-29.34 28.34 -28.68 27.68 -28 27 C-22.26929515 25.94624812 -17.00975562 26.00810858 -11.23046875 26.5234375 C-10.42764969 26.58906891 -9.62483063 26.65470032 -8.79768372 26.72232056 C-7.11585457 26.86145177 -5.4343466 27.00451727 -3.75317383 27.15136719 C-1.17793872 27.37583339 1.39812144 27.58732881 3.97460938 27.796875 C5.61464656 27.93414247 7.25462306 28.07213743 8.89453125 28.2109375 C9.66328079 28.27453461 10.43203033 28.33813171 11.22407532 28.40365601 C14.32209698 28.67766501 17.03730759 29.01243586 20 30 C20 28.68 20 27.36 20 26 C18.91460937 25.93941406 17.82921875 25.87882812 16.7109375 25.81640625 C15.26561514 25.73193936 13.82030318 25.64729449 12.375 25.5625 C11.66214844 25.52318359 10.94929688 25.48386719 10.21484375 25.44335938 C6.08196318 25.19690319 2.07730976 24.76529947 -2 24 C-2.0544207 21.31222198 -2.09387266 18.62556788 -2.125 15.9375 C-2.14175781 15.18533203 -2.15851562 14.43316406 -2.17578125 13.65820312 C-2.21865121 8.70672291 -1.58399375 4.69585549 0 0 Z M2 3 C2 3.33 2 3.66 2 4 C8.6 4.66 15.2 5.32 22 6 C21.67 5.34 21.34 4.68 21 4 C16.69185156 2.98368605 12.53608185 2.89248896 8.125 2.9375 C6.97257812 2.94652344 5.82015625 2.95554687 4.6328125 2.96484375 C3.76398438 2.97644531 2.89515625 2.98804687 2 3 Z M-31.48828125 34.7578125 C-31.98714844 35.49773437 -32.48601563 36.23765625 -33 37 C-33.59167969 37.82242188 -34.18335938 38.64484375 -34.79296875 39.4921875 C-45.93301714 55.88159772 -50.14303415 74.94510253 -47.53125 94.51171875 C-45.564699 104.40300206 -41.64933374 114.12440837 -33.47070312 120.46142578 C-30.72245698 122.17283361 -28.22126245 123.0436522 -25.1171875 123.95703125 C-23.39568481 124.46375366 -23.39568481 124.46375366 -21.6394043 124.98071289 C-15.67545603 126.65103449 -9.68904735 128.22090155 -3.6875 129.75 C-2.45837891 130.06582031 -1.22925781 130.38164062 0.03710938 130.70703125 C3.0240466 131.47410462 6.0116666 132.23838758 9 133 C9.33 134.32 9.66 135.64 10 137 C12.43679341 135.80297868 14.83130112 134.55260885 17.22265625 133.265625 C28.77420042 127.1468808 41.06077689 122.25593669 54 120 C54 120.66 54 121.32 54 122 C52.49373047 122.34611328 52.49373047 122.34611328 50.95703125 122.69921875 C34.41874513 126.49399061 34.41874513 126.49399061 20 135 C25.42514688 136.2672294 30.85118838 137.53053005 36.27807617 138.7902832 C38.12207407 139.2189056 39.96582802 139.64857896 41.80932617 140.0793457 C44.46729283 140.70023178 47.12612928 141.31726652 49.78515625 141.93359375 C50.60210464 142.12529648 51.41905304 142.31699921 52.26075745 142.51451111 C56.82934848 143.56907349 61.34795583 144.40999791 66 145 C65.79503906 144.01 65.59007813 143.02 65.37890625 142 C65.10661239 140.66669902 64.83448598 139.33336382 64.5625 138 C64.36043945 137.02740234 64.36043945 137.02740234 64.15429688 136.03515625 C58.31852958 107.28332712 62.80969618 77.24317711 78 52 C80.47577943 48.78283472 83.10807528 45.845388 86 43 C86.66 42.34 87.32 41.68 88 41 C68.36397482 38.26412379 48.73463127 35.91307348 29 34 C28.66036313 39.41599502 28.36599653 44.83164407 28.12451172 50.25292969 C28.04219667 52.0690257 27.95279915 53.88481599 27.85595703 55.70019531 C27.72629426 58.27920201 27.63908799 60.8564343 27.5625 63.4375 C27.51609375 64.23518799 27.4696875 65.03287598 27.421875 65.85473633 C27.30676356 68.40265331 27.30676356 68.40265331 28 72 C30.79371412 74.51246096 30.79371412 74.51246096 34 76 C37.28721434 79.0605099 37.72119511 82.42680469 38.0625 86.75 C37.96741032 90.17322839 36.97432748 92.23594153 35 95 C31.11403778 98.64308958 26.74557405 98.50222726 21.6640625 98.3515625 C17.8799122 97.85218783 15.75320535 96.61201533 13 94 C10.6724265 90.08544457 10.5360203 86.48513712 11 82 C12.04545104 79.25357185 13.25224045 77.45631072 15 75 C15.86262451 74.61996826 16.72524902 74.23993652 17.61401367 73.84838867 C20.44987841 72.09349012 20.44987841 72.09349012 20.56762695 68.0793457 C20.56683605 66.44461044 20.53862389 64.80974136 20.48828125 63.17578125 C20.48120651 62.31438034 20.47413177 61.45297943 20.46684265 60.56547546 C20.43884839 57.81360087 20.37610323 55.06375967 20.3125 52.3125 C20.28742352 50.44729501 20.26460921 48.58205813 20.24414062 46.71679688 C20.18900551 42.14374752 20.10270033 37.5722185 20 33 C15.69989403 32.56388064 11.39897946 32.13713981 7.09716797 31.71826172 C5.64054622 31.57519208 4.18415334 31.42976837 2.72802734 31.28173828 C-15.96971726 27.99093054 -15.96971726 27.99093054 -31.48828125 34.7578125 Z M80.4375 53.9375 C68.66157697 71.28679847 61.84138602 94.98525799 64 116 C64.94134465 118.75197983 64.94134465 118.75197983 66 121 C67.485 120.505 67.485 120.505 69 120 C68.67 119.67 68.34 119.34 68 119 C66.43549009 95.02087696 70.59952493 69.06948483 86.5078125 50.375 C89.23703848 47.86011114 91.58787433 47.05547846 95.25 46.5625 C100.2132297 47.14154346 103.34004339 48.59431406 107 52 C121.94715827 72.77925361 118.56767775 111.09016296 116 135 C116.99 135 117.98 135 119 135 C119.07719938 128.08479111 119.12907167 121.16969655 119.16479492 114.25415039 C119.17971536 111.91035816 119.20005896 109.56659301 119.22631836 107.22290039 C120.00835199 74.6862776 120.00835199 74.6862776 105.74609375 46.5234375 C102.1428859 43.3796991 98.90522451 42.45218646 94.0703125 42.6484375 C87.51294495 43.76195274 84.1157331 48.89376899 80.4375 53.9375 Z M103 63 C104 65 104 65 104 65 Z M104 65 C105 68 105 68 105 68 Z M105 68 C105.06566162 68.86310791 105.13132324 69.72621582 105.19897461 70.61547852 C105.94878513 81.05292361 106.30450455 91.4776272 106.5625 101.9375 C106.60584289 103.60352285 106.64946122 105.26953856 106.69335938 106.93554688 C106.79873508 110.95695634 106.90042956 114.97844278 107 119 C107.33 119 107.66 119 108 119 C108.0497947 113.34408826 108.08590496 107.68830687 108.10986328 102.03222656 C108.11986133 100.11195652 108.13346421 98.19170147 108.15087891 96.27148438 C108.17540192 93.49605589 108.18654531 90.72083035 108.1953125 87.9453125 C108.20563507 87.1001004 108.21595764 86.25488831 108.22659302 85.38406372 C108.22769815 79.38442107 107.36770397 73.83709421 106 68 C105.67 68 105.34 68 105 68 Z M9 142 C6.17188864 144.82811136 5.15687627 146.14589586 4.4375 150.0625 C4.7466909 153.22113059 4.7466909 153.22113059 7.5 155.375 C8.325 155.91125 9.15 156.4475 10 157 C11.175625 155.7934375 11.175625 155.7934375 12.375 154.5625 C15.97149938 151.05163156 15.97149938 151.05163156 18.9453125 150.90234375 C20.96354167 150.93489583 22.98177083 150.96744792 25 151 C25.33 153.31 25.66 155.62 26 158 C26.66 157.67 27.32 157.34 28 157 C28.84298574 154.61915122 28.84298574 154.61915122 29 152 C28.34 151.01 27.68 150.02 27 149 C23.43230448 148.26393501 23.43230448 148.26393501 20 148 C20 143.71 20 139.42 20 135 C15.78594666 135 12.08939055 139.37703609 9 142 Z M109.66015625 141.42578125 C108.43103516 141.72806641 107.20191406 142.03035156 105.93554688 142.34179688 C104.65744141 142.66212891 103.37933594 142.98246094 102.0625 143.3125 C92.40362846 145.71094452 82.74384482 147.97421944 73 150 C91.00747159 164.50928949 111.71652426 175.7428198 134 182 C134.66386719 182.20625 135.32773438 182.4125 136.01171875 182.625 C145.28211759 184.37344458 155.82383667 183.97896708 164 179 C165.77190909 177.64555699 165.77190909 177.64555699 167 176 C167.21314391 172.3765535 166.73539673 170.02422943 164.59765625 167.046875 C158.98078515 161.01437919 152.12368732 157.00630515 145 153 C143.58654297 152.19828369 143.58654297 152.19828369 142.14453125 151.38037109 C138.93843938 149.57072141 135.72148796 147.78208434 132.5 146 C131.44876953 145.41130127 130.39753906 144.82260254 129.31445312 144.21606445 C128.31349609 143.67038818 127.31253906 143.12471191 126.28125 142.5625 C125.38470703 142.06878906 124.48816406 141.57507813 123.56445312 141.06640625 C118.69038304 139.03956523 114.64963711 140.18179243 109.66015625 141.42578125 Z M14.6875 155.5 C13.8521875 156.7375 13.8521875 156.7375 13 158 C15.64 158 18.28 158 21 158 C21.66 156.68 22.32 155.36 23 154 C21.95657219 152.76163834 21.95657219 152.76163834 19.6875 152.625 C16.7449581 152.74643757 16.7449581 152.74643757 14.6875 155.5 Z M21 160 C19.45976004 160.06950541 17.91665012 160.08452357 16.375 160.0625 C15.14910156 160.04896484 15.14910156 160.04896484 13.8984375 160.03515625 C12.95871094 160.01775391 12.95871094 160.01775391 12 160 C11.65092305 163.75257718 11.72988137 165.56588078 13.75 168.8125 C15.98530733 171.35217123 15.98530733 171.35217123 20 172 C20 169.03 20 166.06 20 163 C21.32 162.34 22.64 161.68 24 161 C24.33 160.34 24.66 159.68 25 159 C22.9254644 158.8509288 22.9254644 158.8509288 21 160 Z " fill="#000000" transform="translate(61,100)"/>
<path d="M0 0 C12.29422138 8.45406831 15.787102 34.70538604 18.4609375 48.42578125 C19.60437376 54.77123223 20.33699527 61.03919546 20.375 67.5 C20.38917969 68.61117187 20.40335938 69.72234375 20.41796875 70.8671875 C20.1875 73.625 20.1875 73.625 18.1875 75.625 C17.07568359 75.15320313 17.07568359 75.15320313 15.94140625 74.671875 C0.36210792 68.34099734 -22.3652849 60.922215 -38.75 67.125 C-39.760625 67.62 -40.77125 68.115 -41.8125 68.625 C-41.62816406 69.3365625 -41.44382812 70.048125 -41.25390625 70.78125 C-40.77034483 73.89658375 -41.09046797 76.05580518 -41.75 79.125 C-42.51084351 82.7125535 -42.92555191 85.95413795 -42.8125 89.625 C-42.01585937 89.93953125 -41.21921875 90.2540625 -40.3984375 90.578125 C-34.80418193 92.83760535 -29.64917754 94.99749184 -24.8125 98.625 C-25.3075 100.11 -25.3075 100.11 -25.8125 101.625 C-26.61945313 101.30789063 -27.42640625 100.99078125 -28.2578125 100.6640625 C-45.68184125 93.96820432 -63.45868783 88.18804379 -81.2890625 82.67578125 C-82.07921249 82.43078384 -82.86936249 82.18578644 -83.68345642 81.93336487 C-87.54377416 80.73733244 -91.40654542 79.55070598 -95.2746582 78.38012695 C-96.69230861 77.94380975 -98.10987461 77.50721822 -99.52734375 77.0703125 C-100.76605225 76.69406738 -102.00476074 76.31782227 -103.28100586 75.93017578 C-107.12901301 74.50802257 -110.31218821 72.74859546 -113.8125 70.625 C-113.70550781 69.64660156 -113.59851563 68.66820312 -113.48828125 67.66015625 C-112.2952415 56.75819435 -112.2952415 56.75819435 -115.8125 46.625 C-119.54240903 44.0673481 -124.37976656 44.07578645 -128.8125 43.625 C-128.8125 42.635 -128.8125 41.645 -128.8125 40.625 C-125.01803021 39.79021665 -122.47944904 39.40722072 -118.75 40.625 C-114.2178633 43.71071009 -110.56474859 47.36825424 -108.8125 52.625 C-108.71830663 54.41467404 -108.68259002 56.20785563 -108.6875 58 C-108.68363281 59.40378906 -108.68363281 59.40378906 -108.6796875 60.8359375 C-108.80808559 63.53229747 -109.21061291 65.99771509 -109.8125 68.625 C-108.04494474 69.46526396 -106.27332737 70.29698722 -104.5 71.125 C-103.51386719 71.5890625 -102.52773437 72.053125 -101.51171875 72.53125 C-98.83449874 73.81277472 -98.83449874 73.81277472 -95.8125 73.625 C-95.52117187 72.64402344 -95.22984375 71.66304688 -94.9296875 70.65234375 C-82.77175164 30.34077846 -82.77175164 30.34077846 -69.00390625 22.609375 C-63.12736487 20.27250474 -56.79036174 20.05686591 -50.55639648 19.45922852 C-37.1897089 18.0664884 -28.5986754 13.08093372 -19.9609375 2.8671875 C-14.72978159 -2.59223703 -6.81288436 -3.1673936 0 0 Z " fill="#2B7FFF" transform="translate(357.8125,220.375)"/>
<path d="M0 0 C6.64213183 3.72210029 9.62785418 8.32254246 12.06640625 15.42578125 C18.42904235 38.07956251 18.74759637 63.92603046 15.9453125 87.16015625 C6.51182271 85.83355102 -2.48335131 83.15094123 -11.58276367 80.41943359 C-14.14041954 79.65319626 -16.70177117 78.90034474 -19.26367188 78.1484375 C-20.89346469 77.66355137 -22.52303082 77.17790246 -24.15234375 76.69140625 C-25.29909325 76.35538391 -25.29909325 76.35538391 -26.4690094 76.01257324 C-31.82489869 74.38994506 -31.82489869 74.38994506 -34.0546875 72.16015625 C-34.28965035 69.6518515 -34.38665755 67.29509989 -34.3671875 64.78515625 C-34.36227295 64.03564697 -34.3573584 63.2861377 -34.35229492 62.51391602 C-33.91557991 40.74311301 -29.34430016 19.45436043 -14.765625 2.75390625 C-10.4894727 -1.22935891 -5.53950214 -2.26424517 0 0 Z M1.9453125 16.16015625 C2.9453125 18.16015625 2.9453125 18.16015625 2.9453125 18.16015625 Z M2.9453125 18.16015625 C3.9453125 21.16015625 3.9453125 21.16015625 3.9453125 21.16015625 Z M3.9453125 21.16015625 C4.01097412 22.02326416 4.07663574 22.88637207 4.14428711 23.77563477 C4.89409763 34.21307986 5.24981705 44.63778345 5.5078125 55.09765625 C5.55115539 56.7636791 5.59477372 58.42969481 5.63867188 60.09570312 C5.74404758 64.11711259 5.84574206 68.13859903 5.9453125 72.16015625 C6.2753125 72.16015625 6.6053125 72.16015625 6.9453125 72.16015625 C6.9951072 66.50424451 7.03121746 60.84846312 7.05517578 55.19238281 C7.06517383 53.27211277 7.07877671 51.35185772 7.09619141 49.43164062 C7.12071442 46.65621214 7.13185781 43.8809866 7.140625 41.10546875 C7.15094757 40.26025665 7.16127014 39.41504456 7.17190552 38.54421997 C7.17301065 32.54457732 6.31301647 26.99725046 4.9453125 21.16015625 C4.6153125 21.16015625 4.2853125 21.16015625 3.9453125 21.16015625 Z " fill="#2B7FFF" transform="translate(162.0546875,146.83984375)"/>
<path d="M0 0 C25.15132011 -0.24418757 25.15132011 -0.24418757 28.71801758 2.15625 C30.60983173 4.87706137 30.24286108 6.9080554 30.07421875 10.1875 C30.01943359 11.43426514 29.96464844 12.68103027 29.90820312 13.96557617 C29.8346648 15.31038572 29.76109647 16.65519363 29.6875 18 C29.5600168 20.74582024 29.44278284 23.49206357 29.32421875 26.23828125 C29.29343231 26.91474197 29.26264587 27.5912027 29.23092651 28.28816223 C28.99520208 33.59358146 28.93833989 38.8783913 29 44.1875 C29.0855969 53.48249867 28.58159421 62.72564944 28 72 C29.15242188 72.41572266 29.15242188 72.41572266 30.328125 72.83984375 C33.95091733 74.41289831 36.11110242 76.59853693 38 80 C39.45115895 84.61351112 39.62736973 88.52654742 37.375 92.875 C33.75117371 97.64319249 33.75117371 97.64319249 30 99 C24.67847777 99.65095073 20.40544644 99.6525287 15.5 97.375 C11.68816005 93.75375204 10.22563485 90.77284522 9.5625 85.5625 C10.12952624 80.94528634 11.29772367 78.79779377 14 75 C14.85811279 74.65155029 15.71622559 74.30310059 16.6003418 73.9440918 C19.15437205 72.28132701 19.15437205 72.28132701 19.47671509 69.95889282 C19.67818888 67.17773334 19.71810032 64.43304483 19.70703125 61.64453125 C19.72215256 60.62775803 19.73727386 59.6109848 19.75285339 58.56340027 C19.7958733 55.3128771 19.80458239 52.06327999 19.8125 48.8125 C19.83563311 46.61000117 19.86099596 44.40752455 19.88867188 42.20507812 C19.95166495 36.80337679 19.98648595 31.40203941 20 26 C18.91460937 25.93941406 17.82921875 25.87882812 16.7109375 25.81640625 C15.26561514 25.73193936 13.82030318 25.64729449 12.375 25.5625 C11.66214844 25.52318359 10.94929688 25.48386719 10.21484375 25.44335938 C6.08196318 25.19690319 2.07730976 24.76529947 -2 24 C-2.0544207 21.31222198 -2.09387266 18.62556788 -2.125 15.9375 C-2.14175781 15.18533203 -2.15851562 14.43316406 -2.17578125 13.65820312 C-2.21865121 8.70672291 -1.58399375 4.69585549 0 0 Z M2 3 C2 3.33 2 3.66 2 4 C8.6 4.66 15.2 5.32 22 6 C21.67 5.34 21.34 4.68 21 4 C16.69185156 2.98368605 12.53608185 2.89248896 8.125 2.9375 C6.97257812 2.94652344 5.82015625 2.95554687 4.6328125 2.96484375 C3.76398438 2.97644531 2.89515625 2.98804687 2 3 Z " fill="#2B7FFF" transform="translate(61,100)"/>
<path d="M0 0 C0.99 0.33 1.98 0.66 3 1 C3.01417969 1.6290625 3.02835938 2.258125 3.04296875 2.90625 C3.40254008 9.35909769 4.51786102 14.18465644 9 19 C16.62149822 24.98498019 26.07702074 27.17210218 35.6015625 26.93359375 C37.11532471 26.89625122 37.11532471 26.89625122 38.65966797 26.8581543 C40.68369755 26.78731806 42.70688186 26.68196518 44.72705078 26.53833008 C50.015622 26.32465496 53.20315397 26.57784767 57.30078125 30.1015625 C58.56024838 31.37547674 59.79459607 32.67481462 61 34 C62.08105167 35.09732008 63.16304288 36.19371557 64.24609375 37.2890625 C64.76413574 37.83151611 65.28217773 38.37396973 65.81591797 38.93286133 C84.08626359 57.99816778 109.19661247 76.27891386 136.609375 77.203125 C149.64354907 77.40246674 160.72596291 77.00954022 171 68 C182.91998335 54.3462009 184.942835 35.28018597 187 18 C187.99 18 188.98 18 190 18 C190.93588943 36.30183781 186.53419702 55.4203913 175 70 C172.52920351 72.4253217 169.98940677 74.26367163 167 76 C166.33484375 76.38800781 165.6696875 76.77601563 164.984375 77.17578125 C150.2155661 84.69693393 132.16067298 82.57529486 116.94287109 77.66845703 C95.89667467 70.42738065 64.30915068 52.61830135 54 32 C53.30551758 31.98541748 52.61103516 31.97083496 51.89550781 31.95581055 C48.67984235 31.88030164 45.46510173 31.78398946 42.25 31.6875 C41.15816406 31.66494141 40.06632812 31.64238281 38.94140625 31.61914062 C25.41205104 31.17883617 13.19664952 28.6529208 3.4453125 18.87890625 C0.20468226 14.66608694 -0.23974246 10.90828197 -0.125 5.6875 C-0.10695312 4.61886719 -0.08890625 3.55023438 -0.0703125 2.44921875 C-0.04710937 1.64097656 -0.02390625 0.83273437 0 0 Z " fill="#000000" transform="translate(179,284)"/>
<path d="M0 0 C5.38165492 2.57971609 5.38165492 2.57971609 6.67578125 5.16796875 C6.9343826 9.21938994 6.98019679 10.71134544 4.67578125 14.16796875 C5.66578125 15.65296875 5.66578125 15.65296875 6.67578125 17.16796875 C6.55078125 20.66796875 6.55078125 20.66796875 5.67578125 24.16796875 C3.73828125 25.79296875 3.73828125 25.79296875 1.67578125 27.16796875 C1.36640625 27.99296875 1.05703125 28.81796875 0.73828125 29.66796875 C-0.69229078 33.03402059 -1.95946821 33.77818048 -5.32421875 35.16796875 C-11.01390597 35.70984372 -14.35738596 35.24267476 -19.32421875 32.16796875 C-21.32421875 30.16796875 -21.32421875 30.16796875 -21.44921875 27.79296875 C-21.40796875 26.92671875 -21.36671875 26.06046875 -21.32421875 25.16796875 C-21.11340024 21.37219918 -21.11340024 21.37219918 -22.13671875 18.73046875 C-22.32421875 16.16796875 -22.32421875 16.16796875 -20.01171875 13.41796875 C-17.32421875 11.16796875 -17.32421875 11.16796875 -15.32421875 10.16796875 C-15.67484375 9.59046875 -16.02546875 9.01296875 -16.38671875 8.41796875 C-17.32421875 6.16796875 -17.32421875 6.16796875 -17.26171875 4.10546875 C-14.1491299 -2.32721488 -5.87797532 -2.10421637 0 0 Z " fill="#000000" transform="translate(287.32421875,188.83203125)"/>
<path d="M0 0 C0.66 0.66 1.32 1.32 2 2 C1.69964844 2.4846875 1.39929688 2.969375 1.08984375 3.46875 C-2.6039943 9.97992215 -2.12744507 13.67812722 -0.25 20.875 C1.44575566 23.75778462 2.81304228 24.07932333 6 25 C7.03995117 25.34490479 8.07990234 25.68980957 9.15136719 26.04516602 C13.40588127 27.1006979 17.04369705 27.20596925 21.390625 27.08984375 C23.00390312 27.06941242 24.6171845 27.0492383 26.23046875 27.02929688 C28.73598628 26.98601397 31.24127547 26.93768855 33.74658203 26.88354492 C57.77298382 26.40263785 57.77298382 26.40263785 66.62890625 33.64453125 C70.72223955 37.69121688 71.22714048 41.63269395 71.4375 47.1875 C71.22493218 54.64437917 70.08756072 61.50361207 65.0234375 67.23828125 C59.7750501 72 59.7750501 72 57 72 C56.95875 73.010625 56.9175 74.02125 56.875 75.0625 C56.12759247 79.92064891 53.82042728 82.98111334 50 86 C43.32882243 89.46106548 36.44732911 90.67690546 29 91 C29.495 89.515 29.495 89.515 30 88 C32.41806939 87.21584186 34.71397893 86.59940647 37.1875 86.0625 C43.00357424 84.79714921 48.79379644 83.41337154 52.2421875 78.078125 C52.45101562 77.47484375 52.65984375 76.8715625 52.875 76.25 C53.24625 75.1775 53.6175 74.105 54 73 C53.11248047 73.05220703 53.11248047 73.05220703 52.20703125 73.10546875 C48.47183571 73.23342814 45.55121744 73.19522284 42 71.9375 C40 70 40 70 38.9375 66.5625 C39 63 39 63 40.5625 60.5625 C43.75595412 58.51541402 45.26326502 58.3273877 49 59 C52.12714224 60.83565426 54.56078794 62.83922528 55.875 66.3125 C55.91625 66.869375 55.9575 67.42625 56 68 C61.55431976 65.61957725 63.83404738 61.39822039 66 56 C67.46161911 50.22482204 67.44799087 45.17137942 65.015625 39.6875 C62.47139931 35.46017116 58.57033722 33.44913131 54 32 C49.25294264 31.01290584 44.6802306 30.91126856 39.85546875 31.0078125 C38.27539711 31.02533403 36.69531856 31.04224181 35.11523438 31.05859375 C32.65336534 31.08944976 30.1918511 31.12491786 27.73022461 31.17138672 C7.28078307 31.53629906 7.28078307 31.53629906 0.125 25.625 C-0.926875 24.325625 -0.926875 24.325625 -2 23 C-2.598125 22.29875 -3.19625 21.5975 -3.8125 20.875 C-5.69711021 16.3122595 -5.66879481 11.85943463 -5 7 C-3.79324389 4.20054326 -2.16571384 2.16571384 0 0 Z M44 62 C43.34 62.66 42.68 63.32 42 64 C42.0950739 66.0480428 42.0950739 66.0480428 43 68 C46.08888522 70.05925681 46.70935927 70.2390374 50.1875 70.125 C51.445625 70.08375 52.70375 70.0425 54 70 C52.74337038 66.12539202 51.60395437 64.0139745 48 62 C46.68 62 45.36 62 44 62 Z " fill="#000000" transform="translate(153,56)"/>
<path d="M0 0 C3.8144954 3.44021297 8.66122117 8.28976933 9.3125 13.5 C9 16 9 16 7.6875 17.75 C6 19 6 19 3 20 C2.71125 21.27875 2.4225 22.5575 2.125 23.875 C1.45668307 26.82938515 1.16924425 27.82546687 -1 30.0625 C-5.50544487 31.47045152 -9.45357861 31.21286321 -14 30 C-17.05628124 28.23864916 -19.39608155 26.20783691 -21 23 C-21.49941548 17.83937339 -21.49941548 17.83937339 -21 15 C-18.4555019 12.09200217 -17.04601863 11.09297943 -13.1875 10.75 C-12.465625 10.8325 -11.74375 10.915 -11 11 C-10.9175 9.741875 -10.835 8.48375 -10.75 7.1875 C-10.37925366 4.31802487 -10.21692316 3.25709411 -8.3125 1 C-5.05057264 -0.41056318 -3.53222047 -0.76185147 0 0 Z " fill="#000000" transform="translate(263,169)"/>
<path d="M0 0 C1.13824219 0.17144531 2.27648437 0.34289063 3.44921875 0.51953125 C6.3125 1.1875 6.3125 1.1875 8.3125 3.1875 C8.76539101 6.58357871 8.6365168 10.01470563 8.625 13.4375 C8.64111328 14.37980469 8.65722656 15.32210937 8.67382812 16.29296875 C8.67758644 21.65232405 8.42440805 25.61073593 5.3125 30.1875 C1.8772952 32.47763653 0.327169 32.36592973 -3.6875 32.1875 C-5.00979189 29.54291621 -4.78427194 27.50988699 -4.75 24.5625 C-4.74097656 23.55960938 -4.73195312 22.55671875 -4.72265625 21.5234375 C-4.71105469 20.75257812 -4.69945312 19.98171875 -4.6875 19.1875 C-6.6675 19.1875 -8.6475 19.1875 -10.6875 19.1875 C-11.0175 17.5375 -11.3475 15.8875 -11.6875 14.1875 C-16.3075 14.1875 -20.9275 14.1875 -25.6875 14.1875 C-26.0175 12.5375 -26.3475 10.8875 -26.6875 9.1875 C-18.31562354 2.4682537 -11.02913353 -1.74806107 0 0 Z M-20.8125 8.9375 C-21.43125 9.68 -22.05 10.4225 -22.6875 11.1875 C-15.29914713 12.16763142 -15.29914713 12.16763142 -8.625 9.69921875 C-7.15701819 7.92663072 -5.91150263 6.13357612 -4.6875 4.1875 C-4.0275 3.5275 -3.3675 2.8675 -2.6875 2.1875 C-9.33951914 1.86677765 -16.05387996 4.1652839 -20.8125 8.9375 Z M0.3125 15.1875 C-1.56823859 18.19668175 -1.91605579 20.41660316 -1.8125 23.9375 C-1.79445312 24.73671875 -1.77640625 25.5359375 -1.7578125 26.359375 C-1.73460937 26.96265625 -1.71140625 27.5659375 -1.6875 28.1875 C-0.0375 27.8575 1.6125 27.5275 3.3125 27.1875 C5.41825375 21.65989641 6.69101209 17.11752267 6.3125 11.1875 C3.9934061 11.1875 1.9256284 13.77109458 0.3125 15.1875 Z " fill="#000000" transform="translate(169.6875,34.8125)"/>
<path d="M0 0 C0.495 0.495 0.99 0.99 1.5 1.5 C1.25 3.375 1.25 3.375 0.5 5.5 C-2.08152302 7.22101535 -3.34918025 7.5 -6.5 7.5 C-6.39055736 10.85817665 -6.39055736 10.85817665 -5.5 14.5 C-3.85704805 15.86244796 -2.19175663 17.19864875 -0.5 18.5 C-0.125 21.1875 -0.125 21.1875 -0.5 23.5 C-1.5 24.5 -1.5 24.5 -4.8125 24.9375 C-13.17025962 24.83246532 -21.6811824 19.0768896 -28.0625 14.01171875 C-29.5 12.5 -29.5 12.5 -30.6875 9.3125 C-30.5 6.5 -30.5 6.5 -29.22143555 4.91088867 C-26.34709802 2.55508147 -22.82831006 1.81313038 -19.3125 0.8125 C-18.58224609 0.58755859 -17.85199219 0.36261719 -17.09960938 0.13085938 C-11.51499125 -1.49654484 -5.25664823 -3.15398894 0 0 Z M-18.5 3.5 C-14.56393081 6.12404613 -11.07409061 5.86302306 -6.5 5.5 C-4.490755 4.16641006 -4.490755 4.16641006 -3.5 2.5 C-9.1932495 1.31390635 -12.92567486 1.83748198 -18.5 3.5 Z M-16.5 16.5 C-14.2991151 18.97859908 -12.43627031 20.11210366 -9.3125 21.1875 C-8.59707031 21.43886719 -7.88164063 21.69023437 -7.14453125 21.94921875 C-6.60183594 22.13097656 -6.05914062 22.31273437 -5.5 22.5 C-5.17 21.18 -4.84 19.86 -4.5 18.5 C-8.6205746 16.50214565 -11.95194365 16.32164485 -16.5 16.5 Z " fill="#000000" transform="translate(66.5,304.5)"/>
<path d="M0 0 C4.8406534 3.14811725 8.3102609 6.38434967 10 12 C10.23046875 14.71875 10.23046875 14.71875 10.1875 17.5 C10.18105469 18.4178125 10.17460937 19.335625 10.16796875 20.28125 C10.00378988 22.93865687 9.58734999 25.40626246 9 28 C21.92204798 34.35375284 34.93542136 38.50118635 48.84179688 42.15771484 C53.93492251 43.51603917 58.9978435 44.97723799 64.0625 46.4375 C65.80333141 46.93638641 67.54421118 47.43510412 69.28515625 47.93359375 C70.51105469 48.28550781 71.73695313 48.63742187 73 49 C72.9690625 47.8140625 72.938125 46.628125 72.90625 45.40625 C72.90625 41.57253483 73.48756133 38.21227512 74.5 34.5 C74.7784375 33.4584375 75.056875 32.416875 75.34375 31.34375 C75.5603125 30.5703125 75.776875 29.796875 76 29 C76.66 29 77.32 29 78 29 C77.855625 30.0725 77.71125 31.145 77.5625 32.25 C76.8615969 37.81717318 76.43811078 43.4070964 76 49 C76.79664063 49.31453125 77.59328125 49.6290625 78.4140625 49.953125 C84.00831807 52.21260535 89.16332246 54.37249184 94 58 C93.67 58.99 93.34 59.98 93 61 C92.19304687 60.68289063 91.38609375 60.36578125 90.5546875 60.0390625 C73.13065875 53.34320432 55.35381217 47.56304379 37.5234375 42.05078125 C36.73328751 41.80578384 35.94313751 41.56078644 35.12904358 41.30836487 C31.26872584 40.11233244 27.40595458 38.92570598 23.5378418 37.75512695 C22.12019139 37.31880975 20.70262539 36.88221822 19.28515625 36.4453125 C17.42709351 35.88094482 17.42709351 35.88094482 15.53149414 35.30517578 C11.68348699 33.88302257 8.50031179 32.12359546 5 30 C5.10699219 29.02160156 5.21398437 28.04320312 5.32421875 27.03515625 C6.5172585 16.13319435 6.5172585 16.13319435 3 6 C-0.72990903 3.4423481 -5.56726656 3.45078645 -10 3 C-10 2.01 -10 1.02 -10 0 C-6.64913151 -1.67543424 -3.44801897 -1.08504094 0 0 Z " fill="#1A1B1C" transform="translate(239,261)"/>
<path d="M0 0 C10.125 2.25 10.125 2.25 14 4 C14.02932572 7.18748029 14.04690739 10.37492528 14.0625 13.5625 C14.07087891 14.45775391 14.07925781 15.35300781 14.08789062 16.27539062 C14.1262111 26.73687898 14.1262111 26.73687898 13 31 C10.8203125 32.77734375 10.8203125 32.77734375 8.125 33.9375 C7.24070312 34.33839844 6.35640625 34.73929687 5.4453125 35.15234375 C3 36 3 36 0 36 C0 24.12 0 12.24 0 0 Z " fill="#000000" transform="translate(81,279)"/>
<path d="M0 0 C0.66 0 1.32 0 2 0 C2.27972656 0.58007812 2.55945313 1.16015625 2.84765625 1.7578125 C6.99158255 9.83247275 12.45801324 14.21727669 20 19 C19.67 19.66 19.34 20.32 19 21 C11.77359068 19.3740579 7.04936008 14.57483703 2.5625 8.9375 C0.93572669 5.87916617 0.32684101 3.43183062 0 0 Z " fill="#000000" transform="translate(185,284)"/>
<path d="M0 0 C0.33 0.99 0.66 1.98 1 3 C-0.6396875 3.309375 -0.6396875 3.309375 -2.3125 3.625 C-6.2285659 4.65663938 -6.2285659 4.65663938 -7.9375 8.125 C-8.288125 9.07375 -8.63875 10.0225 -9 11 C-9.66 11 -10.32 11 -11 11 C-11.46707789 6.98313013 -11.32150834 5.43498188 -8.875 2.125 C-5.56501812 -0.32150834 -4.01686987 -0.46707789 0 0 Z " fill="#000000" transform="translate(291,167)"/>
<path d="M0 0 C2.54110939 0.34339316 4.54461398 0.72351563 6.75 2.0625 C8.75905654 5.17653764 8.69965807 8.33582847 9 12 C8.01 12 7.02 12 6 12 C5.566875 10.88625 5.13375 9.7725 4.6875 8.625 C3.30088881 4.82487666 3.30088881 4.82487666 0 3 C0 2.01 0 1.02 0 0 Z " fill="#000000" transform="translate(285,121)"/>
<path d="M0 0 C1.32 0 2.64 0 4 0 C4.125 3.375 4.125 3.375 4 7 C3.34 7.66 2.68 8.32 2 9 C0.68 9 -0.64 9 -2 9 C-2.25 3.375 -2.25 3.375 0 0 Z " fill="#000000" transform="translate(283,133)"/>
<path d="M0 0 C0.66 0 1.32 0 2 0 C2 2.64 2 5.28 2 8 C1.01 7.67 0.02 7.34 -1 7 C-0.67 4.69 -0.34 2.38 0 0 Z " fill="#000000" transform="translate(68,246)"/>
</svg>
