<svg width="1005" height="1005" viewBox="0 0 1005 1005" fill="none" xmlns="http://www.w3.org/2000/svg">
<path d="M353.024 309.058C353.551 309.048 354.843 309.814 355.893 310.766C357.436 312.161 364.302 317.967 365.564 318.942C365.732 319.075 365.36 319.469 364.732 319.819C363.652 320.424 363.647 320.52 364.682 321.66C365.72 322.806 365.689 323.025 364.079 326.313C362.114 330.323 360.144 331.077 360.051 327.851C360.011 326.371 360.348 325.801 361.526 325.354C363.649 324.547 363.473 322.906 361.217 322.457C358.798 321.974 356.803 319.778 356.484 317.251C356.34 316.133 355.785 314.545 355.245 313.721C354.705 312.897 354.263 311.889 354.263 311.485C354.263 311.078 353.768 310.372 353.162 309.912C352.255 309.221 352.23 309.073 353.024 309.058Z" fill="#31A2FD"/>
<path d="M329.424 284.463C330.258 283.629 331.637 276.237 331.715 272.184C331.786 268.604 331.562 267.27 330.738 266.36C330.112 265.669 329.756 264.443 329.876 263.398C329.944 262.802 330.012 262.21 330.08 261.614C330.482 262.21 330.886 262.802 331.288 263.398C333.097 266.066 334.208 272.765 333.768 278.33C333.439 282.475 333.158 283.332 331.658 284.747C330.708 285.644 329.751 286.199 329.532 285.983C329.067 285.518 329.022 284.865 329.424 284.463Z" fill="#31A2FD"/>
<path d="M364.941 327.253C362.998 331.391 361.878 333.441 361.195 334.477C360.514 335.512 359.483 337.21 358.908 338.245C357.943 339.979 353.381 345.989 348.436 352.026C342.66 359.084 330.831 369.501 323.429 374.048C322.869 374.393 321.165 375.521 319.648 376.551C318.13 377.584 315.173 379.259 313.08 380.279C311.809 380.895 310.537 381.513 309.269 382.131C306.455 379.852 303.643 377.576 300.832 375.3C296.189 371.543 290.978 367.232 289.252 365.722C287.525 364.21 285.641 362.639 285.066 362.23C284.49 361.82 283.433 360.993 282.719 360.396C282.003 359.795 278.94 357.298 275.913 354.843C272.885 352.391 270.104 349.996 269.729 349.521C267.858 347.145 263.586 347.373 258.255 350.129C257.2 350.675 255.83 351.132 255.207 351.142C254.587 351.155 252.946 351.71 251.564 352.378C250.182 353.046 248.275 353.602 247.328 353.614C246.378 353.624 243.976 354.177 241.989 354.84C239.999 355.504 236.678 356.237 234.605 356.468C232.532 356.702 229.14 357.338 227.067 357.883C223.964 358.697 219.469 358.863 201.628 358.818C187.958 358.783 178.684 358.496 176.503 358.041C174.604 357.644 170.503 356.938 167.395 356.468C164.287 356.001 160.893 355.313 159.858 354.943C158.82 354.574 156.278 354.006 154.205 353.687C152.132 353.366 149.165 352.702 147.609 352.215C146.054 351.725 142.381 350.667 139.444 349.863C136.507 349.059 132.944 347.883 131.522 347.25C130.102 346.617 128.326 346.097 127.575 346.097C126.823 346.097 125.582 345.69 124.818 345.19C124.052 344.69 122.296 344.004 120.914 343.662C117.766 342.883 113.06 341.268 108.98 339.562C107.254 338.841 104.708 337.786 103.327 337.215C101.945 336.647 99.4623 335.585 97.8141 334.856C96.1634 334.13 94.4323 333.534 93.965 333.534C93.4977 333.534 92.7866 333.137 92.3846 332.652C91.9826 332.17 90.8897 331.585 89.9525 331.354C87.8747 330.838 67.9857 320.899 64.0688 318.414C62.5135 317.429 60.3955 316.188 59.3578 315.658C58.3202 315.128 56.6267 314.14 55.5891 313.467C54.5514 312.794 51.6294 311.025 49.0968 309.54C43.0542 306 43.8255 306.472 36.1172 301.593C34.7353 300.719 32.4037 298.867 30.9339 297.48C30.0445 296.638 29.1551 295.799 28.2656 294.957C28.2656 292.219 28.2656 289.48 28.2656 286.742C28.2656 281.382 28.5998 277.237 29.2279 274.822C29.7606 272.79 30.3636 269.408 30.5746 267.31C30.7857 265.214 31.4816 262.147 32.1248 260.491C32.7655 258.838 33.2906 256.795 33.2906 255.956C33.2906 255.112 33.8132 253.215 34.4514 251.737C35.0896 250.26 36.2604 247.215 37.0493 244.969C38.901 239.713 40.6372 235.715 42.0995 233.348C42.7401 232.313 43.2879 231.039 43.3155 230.522C43.3456 230.004 43.921 228.874 44.5969 228.009C45.2727 227.145 45.8305 225.979 45.838 225.416C45.8456 224.854 46.2451 224.07 46.7225 223.673C47.2023 223.276 48.5314 221.12 49.6771 218.884C50.8254 216.648 51.9686 214.819 52.2198 214.819C52.4711 214.819 52.8504 214.279 53.059 213.618C53.5288 212.133 56.9132 207.517 64.7823 197.621C70.4731 190.463 82.7567 177.601 89.5932 171.641C96.5102 165.611 109.942 155.288 112.429 154.092C112.942 153.843 114.897 152.567 116.771 151.253C118.645 149.941 120.512 148.866 120.922 148.866C121.329 148.866 122.173 148.3 122.798 147.609C123.424 146.918 124.278 146.353 124.695 146.353C125.115 146.353 126.143 145.813 126.984 145.152C129.002 143.564 143.057 136.484 145.228 135.961C146.165 135.735 147.258 135.155 147.66 134.67C148.062 134.188 148.851 133.788 149.413 133.788C149.976 133.786 151.283 133.271 152.32 132.64C153.358 132.009 155.195 131.303 156.403 131.07C157.612 130.836 159.448 130.263 160.486 129.798C161.521 129.333 164.207 128.301 166.453 127.502C168.699 126.703 171.827 125.507 173.405 124.841C175.405 123.999 177.86 123.615 181.511 123.575C183.254 123.557 185 123.537 186.744 123.52C192.47 129.366 198.196 135.213 203.922 141.062C240.15 178.056 251.577 189.304 261.614 197.857C265.119 200.844 268.579 203.801 276.207 210.341C279.048 212.779 282.159 215.263 283.116 215.864C284.073 216.462 285.352 217.452 285.958 218.062C287.488 219.6 294.98 225.102 302.455 230.175C305.902 232.517 309.306 234.964 310.02 235.617C310.733 236.268 311.58 236.806 311.904 236.808C312.407 236.813 315.211 239.142 323.484 246.421C324.349 247.182 325.969 249.215 327.09 250.938C328.208 252.665 329.55 254.629 330.072 255.303C330.595 255.979 331.022 257.026 331.022 257.629C331.022 258.232 331.306 259.448 331.65 260.328C331.859 260.863 332.07 261.395 332.278 261.928C332.487 262.137 332.698 262.348 332.906 262.556C334.399 269.614 334.964 273.006 335.125 274.646C335.223 275.641 335.321 276.636 335.419 277.631C335.21 278.468 334.999 279.307 334.791 280.144C334.163 282.865 333.534 285.588 332.906 288.309C333.115 288.518 333.326 288.729 333.534 288.938C338.24 293.563 340.713 295.862 342.067 297.03C343.421 298.199 347.353 301.686 350.808 304.779C354.263 307.872 358.22 311.374 359.602 312.563C360.983 313.751 363.667 316.198 365.564 318.005C366.714 319.098 367.863 320.19 369.013 321.286C368.544 321.788 368.074 322.291 367.604 322.796C366.83 323.625 366.197 324.685 366.197 325.15C366.197 325.432 366.197 325.715 366.197 325.997C365.777 326.416 365.36 326.834 364.941 327.253ZM328.037 353.539C325.502 351.21 321.603 348.557 317.517 346.383C316.482 345.833 314.502 344.707 313.12 343.881C310.869 342.534 308.854 341.431 304.955 339.399C304.264 339.039 302.284 338.105 300.558 337.321C298.832 336.537 296.427 335.399 295.219 334.791C292.206 333.281 288.282 332.71 286.239 333.487C284.41 334.18 284.154 335.16 285.214 337.431C285.9 338.904 290.877 342.328 292.334 342.328C292.777 342.328 293.651 342.893 294.277 343.584C294.902 344.275 295.917 344.841 296.535 344.841C297.151 344.841 297.822 345.107 298.025 345.434C298.226 345.76 300.291 347.006 302.616 348.205C304.937 349.403 308.11 351.109 309.666 351.999C311.221 352.886 313.198 353.901 314.063 354.252C314.927 354.604 316.057 355.159 316.575 355.491C318.557 356.755 324.067 359.177 325.856 359.571C329.645 360.403 331.11 356.358 328.037 353.539ZM341.906 338.069C341.728 337.63 339.984 336.248 338.029 335.002C336.077 333.758 334.336 332.562 334.163 332.348C333.582 331.625 329.225 328.509 328.796 328.509C328.562 328.509 327.019 327.379 325.369 325.997C323.718 324.615 322.183 323.484 321.959 323.484C321.733 323.484 320.783 322.964 319.846 322.329C311.804 316.859 310.12 315.947 308.065 315.947C306.193 315.947 305.729 316.258 304.854 318.09C303.884 320.125 303.897 320.311 305.116 321.864C306.721 323.901 311.741 327.612 323.831 335.693C335.399 343.424 336.775 344.213 338.715 344.213C341.434 344.213 343.092 341.019 341.906 338.069ZM357.853 325.688C357.089 324.655 356.036 323.384 355.516 322.861C354.632 321.977 344.039 313.058 342.645 312.025C342.298 311.766 339.695 309.716 336.863 307.47C334.029 305.224 331.504 303.384 331.251 303.384C330.997 303.384 330.143 302.779 329.356 302.038C327.218 300.03 322.354 299.719 320.5 301.47C319.723 302.204 319.088 303.349 319.088 304.015C319.088 305.136 325.1 311.547 326.153 311.55C326.414 311.55 327.135 312.06 327.761 312.683C328.756 313.681 336.62 320.04 341.072 323.449C352.069 331.871 352.898 332.399 355.21 332.464C359.267 332.58 360.541 329.313 357.853 325.688ZM329.424 284.463C329.022 284.865 329.067 285.518 329.532 285.983C329.751 286.199 330.708 285.644 331.658 284.747C333.158 283.332 333.439 282.475 333.768 278.33C334.208 272.765 333.097 266.066 331.288 263.398C330.886 262.802 330.482 262.21 330.08 261.614C330.012 262.21 329.944 262.802 329.876 263.398C329.756 264.443 330.112 265.669 330.738 266.36C331.562 267.27 331.786 268.604 331.715 272.184C331.637 276.237 330.258 283.629 329.424 284.463ZM353.024 309.058C352.23 309.073 352.255 309.221 353.162 309.912C353.768 310.372 354.263 311.078 354.263 311.485C354.263 311.889 354.705 312.897 355.245 313.721C355.785 314.545 356.34 316.133 356.484 317.251C356.803 319.778 358.798 321.974 361.217 322.457C363.473 322.907 363.649 324.547 361.526 325.354C360.348 325.801 360.011 326.371 360.051 327.851C360.144 331.077 362.114 330.323 364.079 326.313C365.689 323.025 365.72 322.806 364.682 321.66C363.647 320.52 363.652 320.424 364.732 319.819C365.36 319.469 365.732 319.075 365.564 318.942C364.302 317.967 357.436 312.161 355.893 310.766C354.843 309.814 353.551 309.048 353.024 309.058Z" fill="#369FFF"/>
<path d="M472.978 358.659C476.358 354.373 478.659 352.323 480.267 351.34C481.878 350.356 483.955 349.041 484.883 348.418C486.204 347.531 488.32 347.212 494.691 346.939C506.425 346.434 510.246 345.182 515.196 340.218C517.309 338.095 519.344 335.891 519.721 335.316C520.505 334.11 521.233 333.193 525.08 328.572C526.01 327.452 526.939 326.334 527.871 325.215C527.037 324.457 526.203 323.695 525.369 322.937C523.992 321.683 521.512 319.527 519.857 318.145C514.146 313.377 511.342 310.166 511.359 308.409C511.364 307.892 512.048 306.196 512.879 304.641C513.708 303.085 514.834 300.965 515.377 299.93C515.922 298.895 517.188 296.774 518.191 295.219C519.196 293.663 520.884 290.978 521.944 289.252C523.007 287.525 524.291 285.546 524.801 284.855C525.309 284.164 526.856 281.902 528.236 279.83C529.615 277.757 531.881 274.365 533.268 272.292C534.655 270.219 536.502 267.393 537.374 266.011C539.482 262.659 539.894 262.021 541.745 259.232C542.617 257.921 543.328 256.642 543.328 256.391C543.328 256.137 544.248 254.521 545.368 252.795C546.491 251.069 547.904 248.675 548.507 247.471C549.11 246.268 549.843 244.858 550.137 244.341C550.986 242.848 553.175 238.522 553.951 236.803C554.341 235.939 555.343 234.102 556.177 232.72C557.011 231.338 558.127 229.218 558.657 228.009C559.559 225.947 561.672 222.17 563.923 218.598C565.77 215.665 568.453 210.296 568.453 209.53C568.453 209.11 569.38 207.726 570.511 206.455C572.415 204.314 572.828 204.141 576.056 204.141C579.606 204.141 584.651 205.819 588.078 208.138C590.407 209.716 592.809 209.1 593.294 206.801C593.493 205.857 594.169 204.093 594.797 202.884C595.425 201.676 596.551 199.271 597.297 197.545C598.04 195.819 599.043 193.839 599.523 193.148C600.003 192.457 600.576 191.186 600.797 190.322C601.231 188.626 603.51 183.983 605.884 179.958C606.701 178.576 607.656 176.739 608.01 175.875C608.364 175.011 608.932 173.88 609.271 173.362C609.822 172.526 610.646 171.001 612.832 166.767C613.188 166.076 613.862 164.805 614.326 163.941C614.791 163.076 615.688 161.38 616.319 160.172C616.95 158.963 617.776 157.408 618.158 156.717C618.54 156.026 619.319 154.471 619.894 153.262C620.467 152.054 621.505 149.933 622.196 148.552C622.887 147.17 624.017 144.908 624.708 143.527C625.399 142.145 626.618 139.743 627.419 138.187C628.218 136.632 629.361 134.371 629.957 133.162C630.552 131.954 631.364 130.399 631.758 129.708C632.155 129.017 638.444 116.58 645.735 102.07C653.027 87.5606 659.363 75.2669 659.815 74.7468C660.268 74.2293 660.848 73.0986 661.102 72.2343C661.355 71.37 661.921 70.2394 662.358 69.7218C662.795 69.2043 663.36 68.0736 663.614 67.2093C663.868 66.345 664.406 65.2144 664.805 64.6968C665.207 64.1793 665.978 62.7647 666.524 61.5562C667.348 59.7196 670.124 54.3428 673.167 48.6797C673.539 47.9887 674.162 46.7174 674.551 45.8531C674.941 44.9888 675.948 43.1522 676.787 41.7703C677.626 40.3884 678.491 38.8332 678.704 38.3156C678.918 37.798 679.363 36.9488 679.689 36.4312C680.016 35.9136 680.679 34.6398 681.159 33.6047C681.641 32.5695 682.777 31.0243 683.689 30.1701C684.996 28.9465 685.566 28.7631 686.413 29.2957C687.993 30.2932 688.056 31.8233 686.586 33.6901C685.87 34.5996 685.285 35.8961 685.285 36.5744C685.285 37.2503 684.719 38.5216 684.028 39.401C683.337 40.2779 682.772 41.6271 682.772 42.3984C682.772 43.1697 682.277 44.4913 681.672 45.3355C681.069 46.1822 679.915 48.4108 679.114 50.2877C678.31 52.167 677.157 54.6946 676.551 55.9031C675.046 58.898 673.513 62.1793 672.74 64.0687C672.385 64.933 671.815 66.0636 671.466 66.5812C671.122 67.0988 670.554 68.2294 670.21 69.0937C669.865 69.958 669.328 71.0886 669.011 71.6062C668.694 72.1238 667.727 74.1036 666.86 76.0031C663.519 83.3346 632.386 145.461 631.607 146.353C631.155 146.871 630.577 148.001 630.324 148.866C630.07 149.73 629.504 150.861 629.067 151.378C628.63 151.896 628.065 153.026 627.811 153.891C627.557 154.755 627 155.886 626.572 156.403C626.145 156.921 625.384 158.192 624.879 159.23C624.371 160.267 623.655 161.679 623.284 162.37C622.912 163.061 622.289 164.333 621.899 165.197C621.51 166.061 620.502 167.898 619.663 169.28C618.824 170.662 617.96 172.217 617.746 172.734C617.532 173.252 617.103 174.101 616.796 174.619C616.487 175.136 615.271 177.398 614.093 179.644C612.914 181.89 611.035 185.279 609.915 187.176C608.794 189.073 607.616 191.194 607.291 191.887C606.967 192.581 606.023 194.279 605.189 195.661C604.357 197.043 603.088 199.163 602.372 200.372C601.656 201.58 600.392 203.701 599.563 205.083C595.184 212.394 595.101 212.834 597.804 214.404C601.995 216.834 604.158 218.138 605.827 219.233C606.862 219.917 608.56 220.909 609.595 221.439C610.631 221.969 612.751 223.236 614.306 224.251C615.862 225.268 617.698 226.394 618.389 226.753C619.08 227.112 620.917 228.238 622.472 229.256C624.027 230.271 626.148 231.537 627.183 232.067C628.218 232.597 629.917 233.59 630.952 234.27C631.987 234.951 633.663 235.974 634.675 236.544C635.685 237.112 637.874 238.534 639.537 239.703C641.198 240.873 642.781 241.828 643.052 241.828C643.321 241.828 644.951 242.753 646.67 243.886C648.388 245.016 650.705 246.32 651.815 246.78C652.928 247.24 654.162 248.009 654.562 248.491C654.961 248.974 655.775 249.366 656.371 249.366C656.966 249.366 657.964 249.931 658.589 250.622C659.215 251.313 660.232 251.878 660.848 251.878C661.463 251.878 662.134 252.147 662.338 252.474C662.541 252.803 664.466 253.961 666.617 255.046C668.765 256.134 670.948 257.386 671.466 257.83C671.983 258.275 673.114 258.848 673.978 259.102C674.843 259.355 675.973 259.921 676.491 260.358C677.008 260.795 678.139 261.36 679.003 261.614C679.868 261.868 680.998 262.433 681.516 262.87C682.033 263.307 683.164 263.873 684.028 264.127C684.893 264.38 686.023 264.923 686.541 265.33C687.058 265.737 688.365 266.481 689.44 266.983C697.857 270.905 700.872 272.423 702.171 273.383C702.995 273.993 704.136 274.491 704.709 274.491C705.279 274.491 707.917 275.621 710.57 277.003C713.223 278.385 715.794 279.516 716.281 279.516C716.769 279.516 717.517 279.94 717.947 280.458C719.208 281.975 722.125 281.629 723.414 279.805C724.035 278.928 726.098 276.114 727.997 273.553C729.896 270.991 732.102 267.963 732.899 266.825C735.225 263.501 744.017 251.242 746.773 247.481C748.165 245.582 750.092 242.896 751.052 241.514C752.014 240.132 752.944 238.861 753.117 238.687C753.293 238.514 755.265 235.971 757.504 233.034C762.966 225.861 766.659 221.113 768.25 219.216C768.971 218.351 770.674 216.231 772.034 214.505C775.267 210.397 809.118 167.875 813.04 162.998C817.882 156.973 818.404 156.403 819.07 156.403C820.409 156.403 819.563 158.33 815.779 163.895C813.618 167.069 811.568 170.136 811.224 170.709C810.879 171.282 809.528 173.174 808.224 174.913C806.04 177.825 802.709 182.674 801.161 185.196C800.809 185.769 799.679 187.483 798.648 189.003C797.618 190.523 796.493 192.199 796.149 192.726C795.804 193.254 794.737 194.837 793.782 196.244C792.827 197.651 791.008 200.357 789.742 202.256C788.478 204.156 786.548 206.842 785.455 208.223C784.362 209.605 783.352 211.045 783.212 211.424C783.074 211.801 781.913 213.356 780.639 214.879C777.694 218.389 768.184 230.57 766.941 232.424C766.423 233.195 764.227 236.122 762.062 238.926C757.652 244.637 757.77 244.489 753.436 249.768C751.71 251.873 749.871 254.242 749.353 255.034C748.348 256.571 745.826 259.644 742.758 263.074C741.72 264.232 740.63 265.611 740.331 266.137C739.64 267.363 738.886 268.255 734.346 273.234C732.298 275.481 729.592 278.448 728.334 279.83C726.364 281.99 726.158 282.488 726.864 283.382C727.738 284.495 734.685 287.053 736.828 287.053C738.386 287.053 743.705 289.89 744.801 291.304C746.182 293.091 745.76 298.515 743.994 301.676C743.12 303.239 741.989 304.864 741.482 305.286C740.974 305.706 740.56 306.427 740.56 306.884C740.56 307.344 740.168 307.945 739.688 308.221C738.72 308.779 734.248 314.266 731.6 318.145C728.592 322.552 706.4 344.604 695.963 353.556C694.754 354.594 690.855 358.016 687.297 361.162C683.739 364.31 680.347 367.282 679.76 367.77C677.875 369.332 674.433 372.227 668.828 376.965C665.823 379.508 661.632 382.857 659.516 384.412C657.401 385.968 654.773 388.475 653.675 389.988C651.705 392.699 651.632 392.734 647.911 392.751C643.818 392.769 636.964 391.297 634.04 389.772C633.032 389.247 631.783 388.814 631.266 388.809C630.748 388.804 629.474 388.239 628.439 387.553C627.404 386.867 626.07 386.304 625.474 386.302C624.49 386.297 620.379 384.523 618.075 383.106C617.558 382.784 616.427 382.244 615.563 381.9C614.698 381.556 613.568 381.003 613.05 380.671C610.219 378.865 605.163 376.903 604.158 377.219C603.523 377.423 602.817 378.345 602.588 379.272C602.359 380.199 601.797 381.541 601.334 382.254C600.633 383.337 600.641 383.953 601.375 386.023C603.46 391.89 604.382 396.287 604.086 398.922C603.518 403.922 602.236 407.296 599.774 410.279C596.297 414.487 596.498 416.035 600.993 419.587C605.957 423.515 612.362 427.753 613.329 427.753C613.774 427.753 614.857 428.318 615.733 429.009C616.613 429.7 617.711 430.271 618.176 430.281C618.638 430.286 619.723 430.846 620.588 431.522C621.452 432.198 622.668 432.758 623.291 432.763C623.912 432.773 625.467 433.313 626.746 433.969C630.798 436.047 635.037 437.803 635.994 437.803C636.504 437.803 637.979 438.368 639.268 439.059C640.557 439.75 642.188 440.316 642.894 440.316C643.6 440.316 644.833 440.775 645.637 441.338C646.441 441.901 648.057 442.607 649.233 442.909C649.944 443.092 650.655 443.273 651.366 443.456C651.886 444.421 652.408 445.383 652.929 446.348C653.788 447.939 655.393 450.27 656.499 451.526C657.167 452.288 657.835 453.051 658.506 453.813C657.682 453.948 656.858 454.084 656.034 454.22C654.677 454.443 653.353 454.516 652.622 454.134C652.212 452.798 651.044 452.21 649.76 451.971C648.476 451.73 646.409 450.989 645.165 450.32C643.921 449.655 642.477 449.107 641.954 449.104C641.431 449.102 640.152 448.539 639.117 447.853C638.082 447.167 636.668 446.602 635.977 446.597C635.286 446.592 633.871 446.027 632.836 445.341C631.801 444.655 630.351 444.092 629.615 444.089C628.879 444.087 627.934 443.667 627.512 443.157C627.087 442.65 625.711 442.059 624.449 441.843C623.191 441.63 621.392 440.916 620.454 440.258C619.52 439.597 618.241 439.059 617.613 439.059C616.985 439.059 615.912 438.675 615.231 438.208C614.55 437.738 612.932 437.009 611.638 436.587C610.342 436.167 609.281 435.612 609.281 435.358C609.281 435.105 608.362 434.421 607.241 433.841C604.106 432.22 603.204 431.582 596.43 426.178C592.963 423.409 589.134 420.454 587.925 419.613C586.717 418.768 585.586 417.889 585.413 417.658C585.239 417.429 583.428 416.351 581.388 415.266C579.345 414.181 577.368 413.042 576.991 412.733C576.614 412.424 575.174 411.859 573.792 411.472C572.41 411.088 570.732 410.354 570.061 409.842C569.39 409.329 568.36 408.909 567.775 408.909C567.187 408.909 565.473 408.352 563.968 407.668C562.461 406.982 560.215 406.417 558.974 406.412C557.732 406.402 555.047 405.774 553.006 405.012C549.358 403.651 548.773 403.628 518.203 403.678C498.726 403.708 485.601 403.985 483.074 404.417C480.126 404.92 478.807 404.92 478.197 404.412C477.091 403.495 478.265 402.01 480.121 401.977C480.857 401.967 482.164 401.55 483.028 401.058C483.893 400.565 485.352 400.148 486.277 400.138C487.199 400.126 490.309 399.578 493.186 398.92C497.518 397.93 501.932 397.661 518.831 397.362C541.708 396.957 556.818 397.598 560.423 399.126C561.71 399.671 563.546 400.126 564.506 400.136C565.468 400.148 567.385 400.704 568.767 401.372C570.149 402.04 571.807 402.595 572.451 402.608C573.094 402.618 574.649 403.158 575.905 403.806C577.162 404.455 580.076 405.862 582.383 406.932C584.689 408 586.754 409.166 586.973 409.522C587.8 410.859 590.212 410.151 591.727 408.125C595.832 402.631 596.091 402.04 596.091 398.178C596.091 395.653 595.676 393.601 594.835 391.95C594.144 390.596 593.578 388.475 593.578 387.239C593.578 386.003 594.144 383.882 594.835 382.528C595.525 381.174 596.091 379.674 596.091 379.197C596.091 378.717 596.669 377.802 597.377 377.161C599.392 375.337 598.757 373.056 595.777 371.403C593.199 369.976 590.762 368.549 586.355 365.888C584.973 365.056 583.418 364.162 582.9 363.908C582.383 363.652 580.292 362.295 578.257 360.893C576.222 359.491 573.82 357.893 572.918 357.338C566.25 353.242 554.32 345.079 548.426 340.579C546.484 339.097 544.333 337.476 543.642 336.974C542.951 336.471 540.042 334.218 537.178 331.964C531.03 327.125 530.949 327.135 526.927 333.333C523.444 338.695 519.078 344.109 516.186 346.65C513.334 349.152 507.206 351.122 502.261 351.122C498.794 351.122 491.92 352.843 489.31 354.366C488.792 354.667 487.661 355.265 486.797 355.695C483.865 357.154 480.207 359.767 478.358 361.73C477.141 363.016 475.91 363.684 474.745 363.684C473.101 363.684 472.978 363.508 472.978 361.172C472.978 360.335 472.978 359.496 472.978 358.659ZM732.866 299.141C731.467 298.02 726.819 295.847 725.821 295.847C725.289 295.847 723.796 295.282 722.507 294.591C721.218 293.9 719.814 293.334 719.384 293.334C718.957 293.334 717.681 292.769 716.548 292.081C715.417 291.392 714.035 290.824 713.477 290.824C712.92 290.824 711.744 290.257 710.867 289.566C709.987 288.875 708.716 288.309 708.04 288.309C707.364 288.309 706.091 287.744 705.214 287.053C704.334 286.362 703.204 285.797 702.701 285.797C702.196 285.797 701.066 285.232 700.189 284.541C699.309 283.85 698.179 283.284 697.676 283.284C697.171 283.284 696.086 282.779 695.262 282.159C694.438 281.541 693.058 280.696 692.194 280.279C691.33 279.865 690.199 279.269 689.681 278.958C689.164 278.649 688.033 278.068 687.169 277.674C686.305 277.277 685.033 276.611 684.342 276.192C683.651 275.774 680.576 274.018 677.508 272.292C674.441 270.566 670.908 268.549 669.657 267.815C668.406 267.079 665.617 265.536 663.456 264.388C661.298 263.24 659.531 262.094 659.531 261.843C659.531 261.591 658.896 261.192 658.119 260.953C657.34 260.717 656.27 260.144 655.74 259.679C655.21 259.217 653.112 257.948 651.077 256.863C649.042 255.778 646.981 254.494 646.499 254.011C646.019 253.529 645.313 253.134 644.931 253.134C644.552 253.134 643.743 252.685 643.137 252.134C642.527 251.584 641.18 250.665 640.142 250.094C637.826 248.815 630.492 244.418 628.221 242.946C627.304 242.351 625.565 241.283 624.356 240.572C623.148 239.861 621.409 238.793 620.492 238.198C619.575 237.605 617.002 236.067 614.776 234.786C612.55 233.502 610.369 232.017 609.927 231.487C609.487 230.957 608.804 230.522 608.405 230.522C608.008 230.522 606.141 229.507 604.256 228.266C602.375 227.027 600.118 225.605 599.246 225.107C598.375 224.61 596.812 223.645 595.777 222.964C594.742 222.283 592.902 221.271 591.694 220.716C590.485 220.158 589.355 219.494 589.181 219.241C588.855 218.763 586.475 217.409 583.164 215.819C582.099 215.309 580.865 214.452 580.418 213.912C578.709 211.854 574.735 213.387 574.735 216.103C574.735 216.761 574.116 218.648 573.358 220.298C571.169 225.077 564.021 239.391 562.451 242.142C561.664 243.524 559.853 246.916 558.428 249.68C557.001 252.443 555.283 255.554 554.604 256.589C553.929 257.624 552.941 259.323 552.411 260.358C551.881 261.393 550.615 263.513 549.597 265.069C548.577 266.624 547.547 268.32 547.306 268.837C547.067 269.355 546.396 270.486 545.818 271.35C545.243 272.214 543.386 275.041 541.695 277.631C540.004 280.222 538.414 282.624 538.16 282.97C536.846 284.759 531.316 291.887 530.623 292.684C530.183 293.189 529.54 294.091 529.195 294.689C528.851 295.284 526.095 298.437 523.073 301.693C520.047 304.95 517.575 307.897 517.575 308.241C517.575 308.824 522.135 312.178 522.927 312.178C523.123 312.178 524.814 313.309 526.683 314.691C528.552 316.072 530.251 317.203 530.457 317.203C530.66 317.203 533.055 318.969 535.778 321.128C540.004 324.482 551.665 333.376 555.127 335.889C555.72 336.318 557.232 337.449 558.489 338.401C559.745 339.351 561.411 340.554 562.187 341.072C562.966 341.589 564.34 342.594 565.242 343.303C566.144 344.014 569.426 346.238 572.536 348.245C575.647 350.253 578.895 352.423 579.76 353.072C580.624 353.722 582.179 354.677 583.214 355.197C584.249 355.717 585.948 356.71 586.983 357.398C588.018 358.089 589.998 359.215 591.38 359.903C594.025 361.222 595.322 361.976 598.108 363.818C599.043 364.436 600.206 364.941 600.691 364.941C601.176 364.941 602.294 365.506 603.171 366.197C604.05 366.888 605.181 367.453 605.683 367.453C606.188 367.453 607.319 368.018 608.196 368.709C609.075 369.4 610.314 369.971 610.952 369.981C611.588 369.986 612.814 370.546 613.678 371.222C614.543 371.898 615.849 372.458 616.585 372.463C617.321 372.473 618.266 372.895 618.688 373.405C619.113 373.913 620.49 374.513 621.751 374.737C623.01 374.96 624.924 375.674 626.002 376.322C627.077 376.973 628.572 377.503 629.324 377.503C630.072 377.503 631.796 378.068 633.15 378.759C634.504 379.45 636.039 380.016 636.56 380.016C637.082 380.016 638.577 380.561 639.884 381.227C644.632 383.651 653.14 383.473 654.117 380.928C654.308 380.425 654.81 380.016 655.23 380.016C656.029 380.016 672.521 363.456 695.02 340.064C702.274 332.519 713.935 320.527 720.932 313.409C727.927 306.294 733.65 300.314 733.65 300.121C733.65 299.927 733.298 299.485 732.866 299.141Z" fill="#161416"/>
<path d="M26.6351 652.672C27.4944 651.959 28.8185 651.554 37.0595 649.469C41.19 648.426 48.2602 646.386 51.5064 645.303C53.0616 644.783 55.3228 644.145 56.5314 643.886C57.7399 643.625 59.6343 642.941 60.7398 642.363C61.8453 641.788 63.5463 641.316 64.5186 641.316C65.4909 641.316 67.3401 640.75 68.629 640.059C69.918 639.368 71.6139 638.803 72.3978 638.803C73.1817 638.803 74.8776 638.238 76.1665 637.547C77.4555 636.856 79.1489 636.288 79.9252 636.286C80.7041 636.283 82.189 635.72 83.2267 635.034C84.2643 634.348 85.7593 633.786 86.5482 633.783C87.3396 633.781 89.0959 633.213 90.4501 632.522C91.8043 631.831 93.4224 631.266 94.0455 631.266C94.6686 631.266 96.2339 630.7 97.5228 630.009C98.8117 629.318 100.319 628.753 100.874 628.753C101.427 628.753 102.771 628.344 103.859 627.844C106.332 626.708 112.678 624.477 115.522 623.741C116.703 623.434 118.54 622.776 119.605 622.278C120.67 621.778 122.389 621.08 123.427 620.723C128.213 619.082 129.886 618.447 132.291 617.359C133.71 616.716 135.409 616.191 136.067 616.191C136.725 616.191 138.318 615.625 139.607 614.934C140.896 614.243 142.451 613.678 143.062 613.678C143.675 613.678 145.228 613.113 146.517 612.422C147.805 611.731 149.358 611.163 149.964 611.161C150.569 611.158 151.911 610.595 152.949 609.909C153.986 609.223 155.539 608.658 156.403 608.653C157.268 608.648 158.82 608.083 159.858 607.397C160.893 606.711 162.277 606.148 162.928 606.146C163.584 606.143 165.277 605.615 166.697 604.972C169.144 603.864 170.202 603.462 176.189 601.354C177.571 600.867 179.453 600.05 180.367 599.535C181.285 599.023 182.563 598.603 183.204 598.603C183.847 598.603 185.428 598.038 186.717 597.347C188.005 596.656 189.556 596.088 190.161 596.086C190.769 596.083 192.113 595.52 193.149 594.834C194.184 594.148 195.568 593.586 196.219 593.583C196.875 593.581 198.568 593.053 199.988 592.41C201.407 591.767 203.56 590.887 204.769 590.458C205.977 590.028 208.098 589.272 209.48 588.779C210.862 588.287 212.842 587.5 213.877 587.028C217.402 585.43 222.691 583.528 223.625 583.523C224.135 583.521 225.404 582.958 226.439 582.272C227.474 581.586 228.715 581.023 229.195 581.021C229.678 581.018 231.231 580.49 232.65 579.847C235.097 578.739 236.155 578.337 242.142 576.229C243.524 575.742 245.406 574.925 246.321 574.41C247.238 573.898 248.373 573.478 248.843 573.478C249.313 573.478 250.753 572.913 252.042 572.222C253.33 571.531 254.888 570.966 255.506 570.966C256.122 570.966 257.29 570.498 258.109 569.925C258.926 569.355 260.468 568.707 261.541 568.488C264.275 567.928 264.315 566.333 261.664 563.4C257.752 559.074 258.089 558.509 270.408 548.71C274.209 545.687 277.747 542.886 278.272 542.486C282.669 539.132 283.953 538.318 285.403 537.954C286.317 537.723 287.222 537.286 287.41 536.977C287.601 536.67 288.852 536.419 290.194 536.419C291.536 536.419 292.787 536.67 292.978 536.977C293.166 537.286 294.028 537.713 294.892 537.929C295.754 538.147 297.666 539.177 299.136 540.22C300.608 541.263 302.857 542.806 304.131 543.647C305.407 544.491 307.322 546.034 308.392 547.082C311.027 549.657 311.605 549.602 317.517 546.215C326.2 541.238 331.879 535.09 337.009 525.105C337.713 523.738 338.632 522.276 339.052 521.856C339.472 521.437 339.821 520.512 339.831 519.804C339.836 519.098 340.396 517.811 341.072 516.947C341.748 516.083 342.308 514.758 342.313 514C342.323 513.243 342.602 512.455 342.939 512.248C343.273 512.04 344.132 510.681 344.843 509.226C347.426 503.952 348.23 502.839 353.24 497.623C358.926 491.699 364.687 487.611 373.106 483.526C373.971 483.106 376.26 481.734 378.194 480.475C382.458 477.702 384.458 477.124 385.97 478.229C387.644 479.453 386.792 483.498 384.694 484.297C383.847 484.619 383.156 485.119 383.156 485.407C383.156 485.699 382.237 486.417 381.116 487.003C379.993 487.588 378.224 488.631 377.189 489.319C376.154 490.005 374.327 491.02 373.134 491.571C369.571 493.219 362.878 497.832 360.79 500.083C357.971 503.118 353.142 510.027 351.413 513.492C350.898 514.527 350.223 515.801 349.911 516.319C349.602 516.836 348.584 518.957 347.652 521.03C346.72 523.102 345.718 525.223 345.426 525.741C340.426 534.635 337.316 538.577 330.359 544.848C325.56 549.172 324.263 550.069 320.188 551.888C318.148 552.798 317.831 553.222 317.831 555.029C317.831 556.564 318.248 557.391 319.402 558.147C320.266 558.712 320.972 559.546 320.972 560.001C320.972 561.33 324.125 563.428 326.123 563.428C327.879 563.428 332.763 565.129 335.989 566.863C340.376 569.219 346.097 575.506 346.097 577.965C346.097 578.445 346.662 579.89 347.353 581.179C348.343 583.028 348.609 584.724 348.609 589.204C348.609 593.643 348.336 595.422 347.353 597.347C346.662 598.701 346.097 600.128 346.097 600.52C346.097 600.912 345.532 601.95 344.841 602.829C343.23 604.877 343.23 608.477 344.841 610.537C345.517 611.402 346.077 612.444 346.082 612.857C346.107 614.078 348.665 618.06 349.823 618.68C350.579 619.085 351.439 618.887 352.735 618.01C353.748 617.326 355.426 616.354 356.461 615.849C357.496 615.346 359.617 614.203 361.172 613.309C362.727 612.414 365.898 610.703 368.222 609.505C370.546 608.306 372.611 607.06 372.812 606.734C373.016 606.407 373.614 606.141 374.144 606.141C374.674 606.141 375.825 605.575 376.704 604.884C377.581 604.193 378.712 603.628 379.217 603.628C379.719 603.628 380.85 603.063 381.729 602.372C382.606 601.681 383.737 601.116 384.242 601.116C384.744 601.116 385.875 600.55 386.754 599.859C387.631 599.168 388.842 598.603 389.445 598.603C390.048 598.603 390.905 598.163 391.352 597.626C391.799 597.086 393.033 596.244 394.098 595.751C395.164 595.261 396.458 594.611 396.975 594.309C397.493 594.008 399.754 593.176 402 592.468C405.47 591.37 408.327 591.123 421.03 590.829C434.416 590.523 436.017 590.593 436.366 591.503C436.846 592.754 434.459 594.834 432.542 594.834C431.798 594.834 430.138 595.4 428.851 596.088C426.962 597.101 424.557 597.45 416.299 597.91C406.362 598.462 401.57 599.357 396.975 601.51C395.767 602.078 393.505 603.111 391.95 603.806C390.395 604.5 388.699 605.314 388.181 605.613C387.664 605.912 386.109 606.713 384.727 607.397C383.345 608.08 381.79 608.879 381.272 609.176C379.616 610.12 377.244 611.369 375.305 612.316C374.27 612.821 372.996 613.588 372.478 614.022C371.961 614.454 370.104 615.613 368.353 616.598C366.602 617.583 363.916 619.231 362.386 620.261C358.888 622.613 357.589 623.409 355.109 624.731C352.24 626.261 351.511 628.241 352.755 631.132C354.087 634.238 354.692 645.961 353.68 649.029C352.813 651.655 349.162 655.134 347.273 655.134C346.562 655.134 345.263 655.7 344.383 656.391C343.507 657.082 342.248 657.647 341.59 657.647C340.931 657.647 339.286 658.212 337.931 658.903C336.577 659.594 334.929 660.159 334.268 660.159C333.605 660.159 331.828 660.612 330.316 661.162C328.803 661.715 324.6 662.561 320.972 663.044C317.344 663.526 313.49 664.091 312.407 664.3C309.404 664.875 307.382 663.245 306.869 659.833C306.641 658.3 306.168 656.873 305.822 656.657C305.475 656.443 303.583 657.504 301.618 659.016C299.653 660.526 296.774 662.576 295.219 663.571C293.664 664.566 291.626 665.903 290.691 666.539C289.754 667.177 288.739 667.697 288.433 667.697C288.126 667.697 287.365 668.262 286.739 668.953C286.114 669.644 285.36 670.209 285.061 670.209C284.568 670.209 281.159 672.101 275.219 675.674C273.956 676.435 272.566 677.214 272.134 677.403C271.704 677.591 270.996 677.903 270.566 678.091C270.134 678.279 268.649 679.124 267.267 679.963C265.885 680.802 263.765 681.978 262.556 682.576C261.348 683.174 259.933 684.003 259.416 684.415C258.898 684.827 256.778 686.056 254.705 687.146C252.632 688.237 249.805 689.804 248.424 690.631C247.042 691.458 245.486 692.309 244.969 692.523C244.451 692.736 243.602 693.181 243.084 693.51C242.567 693.837 241.152 694.598 239.944 695.201C238.735 695.804 237.039 696.756 236.175 697.317C233.653 698.955 229.082 701.548 227.381 702.304C226.517 702.691 225.386 703.261 224.869 703.575C224.351 703.887 222.796 704.701 221.414 705.384C220.032 706.068 218.407 706.912 217.804 707.261C217.198 707.61 216.208 708.181 215.603 708.53C215 708.877 213.799 709.472 212.934 709.854C212.07 710.233 210.94 710.799 210.422 711.11C209.904 711.419 208.774 711.985 207.909 712.367C207.045 712.746 205.915 713.301 205.397 713.6C204.879 713.899 202.194 715.299 199.43 716.708C196.666 718.12 193.98 719.542 193.463 719.866C192.945 720.193 191.814 720.743 190.95 721.087C190.086 721.432 188.955 721.994 188.438 722.344C187.92 722.688 186.789 723.261 185.925 723.615C185.061 723.969 183.224 724.924 181.842 725.741C177.659 728.208 173.147 730.401 171.348 730.843C170.41 731.072 169.333 731.64 168.948 732.102C168.564 732.562 167.443 733.117 166.453 733.336C165.463 733.554 164.318 734.135 163.908 734.632C163.496 735.13 162.835 735.534 162.441 735.534C162.046 735.534 160.669 736.1 159.381 736.791C158.092 737.482 156.727 738.047 156.348 738.047C155.969 738.047 154.941 738.612 154.062 739.303C153.185 739.994 152.054 740.559 151.549 740.559C151.047 740.559 149.916 741.125 149.037 741.816C148.16 742.507 146.886 743.072 146.21 743.072C145.534 743.072 144.263 743.637 143.383 744.328C142.507 745.019 141.293 745.584 140.693 745.584C140.092 745.584 139.255 745.996 138.836 746.501C138.416 747.006 137.464 747.594 136.718 747.805C134.758 748.363 130.562 750.32 123.781 753.84C121.876 754.825 119.944 755.634 119.485 755.634C119.027 755.634 117.605 756.18 116.329 756.843C114.115 757.996 111.284 759.275 105.369 761.798C103.9 762.423 101.284 763.576 99.5579 764.36C97.8318 765.142 95.146 766.348 93.5907 767.036C92.0355 767.727 89.719 768.835 88.4401 769.501C87.1638 770.164 85.8095 770.709 85.4301 770.709C85.0533 770.709 82.9905 771.526 80.8448 772.526C71.3626 776.938 68.212 778.247 67.0763 778.247C65.3603 778.247 65.8779 776.282 67.8426 775.345C68.7044 774.933 72.9405 772.913 77.2595 770.855C84.3673 767.468 152.052 733.823 154.675 732.374C155.28 732.039 156.27 731.482 156.876 731.132C157.479 730.786 158.68 730.19 159.544 729.808C160.408 729.429 161.539 728.864 162.056 728.552C162.574 728.243 163.705 727.678 164.569 727.296C165.433 726.916 166.564 726.351 167.081 726.04C167.599 725.731 168.73 725.165 169.594 724.783C170.458 724.404 171.589 723.846 172.106 723.542C172.624 723.238 174.038 722.474 175.247 721.844C176.455 721.213 178.081 720.361 178.86 719.949C180.398 719.135 182.166 718.243 183.885 717.417C184.488 717.125 185.689 716.507 186.553 716.042C187.418 715.578 189.113 714.681 190.322 714.05C191.53 713.419 192.945 712.625 193.463 712.284C193.98 711.944 195.111 711.377 195.975 711.027C196.839 710.676 198.817 709.661 200.372 708.771C202.794 707.387 206.02 705.666 217.017 699.889C218.052 699.344 219.326 698.668 219.844 698.382C220.361 698.098 221.776 697.344 222.984 696.706C226.168 695.028 232.042 691.794 236.773 689.116C239.034 687.837 241.311 686.578 241.828 686.322C242.346 686.063 243.901 685.164 245.283 684.322C246.665 683.478 248.926 682.217 250.308 681.516C251.69 680.815 253.951 679.566 255.333 678.742C256.715 677.918 259.541 676.342 261.614 675.239C263.687 674.136 266.797 672.415 268.524 671.418C270.25 670.418 272.513 669.169 273.549 668.644C274.584 668.119 276.564 667.003 277.945 666.164C279.327 665.328 281.307 664.199 282.342 663.659C283.377 663.117 285.076 662.117 286.111 661.433C287.146 660.752 288.985 659.619 290.194 658.916C293.586 656.938 294.764 656.22 296.606 655.001C297.543 654.386 298.701 653.878 299.179 653.878C299.658 653.878 300.56 653.313 301.186 652.622C301.812 651.931 302.689 651.366 303.136 651.366C304.641 651.366 309.678 647.511 310.663 645.61C312.339 642.363 310.864 626.678 308.279 620.273C306.402 615.623 306.201 615.306 304.894 614.949C302.932 614.412 298.827 611.465 296.43 608.877C292.438 604.568 291.917 603.266 291.576 596.756C291.47 594.756 291.367 592.757 291.262 590.757C288.835 588.274 286.405 585.794 283.975 583.315C279.968 579.219 275.893 575.3 274.92 574.601C273.187 573.36 273.074 573.357 269.581 574.44C267.617 575.051 265.453 575.93 264.772 576.398C264.091 576.865 262.958 577.249 262.26 577.252C261.559 577.254 260.137 577.817 259.102 578.503C258.067 579.189 256.647 579.752 255.951 579.754C255.255 579.757 253.632 580.325 252.343 581.016C251.054 581.707 249.504 582.274 248.898 582.277C248.29 582.279 246.946 582.842 245.911 583.528C244.876 584.214 243.461 584.779 242.77 584.784C242.079 584.789 240.665 585.355 239.63 586.041C238.595 586.727 237.175 587.289 236.479 587.292C235.783 587.294 234.16 587.862 232.871 588.553C231.582 589.244 230.032 589.812 229.427 589.814C228.819 589.817 227.474 590.38 226.439 591.066C225.404 591.752 224.02 592.314 223.369 592.317C222.713 592.319 221.02 592.847 219.6 593.49C217.153 594.598 216.095 595 210.108 597.108C208.726 597.596 206.844 598.412 205.93 598.927C205.013 599.44 203.771 599.859 203.171 599.859C202.57 599.859 200.92 600.384 199.5 601.028C197.05 602.136 196.179 602.467 190.95 604.266C189.742 604.681 187.706 605.555 186.43 606.208C185.151 606.862 183.455 607.399 182.661 607.402C181.865 607.404 180.365 607.967 179.33 608.653C178.295 609.339 176.875 609.902 176.179 609.904C175.483 609.907 173.86 610.475 172.571 611.166C171.282 611.857 169.589 612.424 168.812 612.427C168.034 612.429 166.546 612.992 165.511 613.678C164.476 614.364 162.921 614.929 162.056 614.934C161.192 614.939 159.639 615.505 158.602 616.191C157.564 616.877 156.004 617.439 155.129 617.442C154.258 617.444 152.913 617.887 152.147 618.424C151.378 618.962 149.408 619.778 147.765 620.238C143.961 621.304 141.079 622.326 137.7 623.806C136.223 624.454 134.381 624.984 133.607 624.984C132.833 624.984 131.148 625.55 129.859 626.241C128.57 626.932 127.077 627.497 126.545 627.497C126.012 627.497 124.467 628.062 123.113 628.753C121.758 629.444 120.062 630.009 119.344 630.009C118.625 630.009 116.929 630.575 115.575 631.266C114.221 631.957 112.525 632.522 111.806 632.522C111.088 632.522 109.392 633.087 108.038 633.778C106.683 634.469 104.987 635.034 104.269 635.034C103.55 635.034 101.854 635.6 100.5 636.291C99.1459 636.982 97.4499 637.547 96.7314 637.547C96.0128 637.547 94.3168 638.112 92.9626 638.803C91.6084 639.494 89.7416 640.059 88.817 640.059C87.8899 640.059 85.9728 640.589 84.5533 641.238C83.1312 641.886 80.8398 642.705 79.4579 643.054C78.076 643.403 76.0987 643.974 75.061 644.321C74.0234 644.667 71.7621 645.429 70.036 646.014C68.31 646.594 65.6241 647.31 64.0689 647.599C62.5136 647.888 60.1921 648.574 58.9057 649.119C57.6218 649.662 55.8655 650.109 55.0038 650.109C54.142 650.109 52.0038 650.675 50.2501 651.366C48.4964 652.057 46.2628 652.622 45.2829 652.622C44.3055 652.622 41.8433 653.152 39.8107 653.8C37.7806 654.451 33.8636 655.087 31.1074 655.215C26.909 655.411 26.0673 655.288 25.8989 654.448C25.7884 653.898 26.12 653.099 26.6351 652.672ZM340.758 583.528C340.265 582.664 339.848 581.463 339.838 580.86C339.811 579.558 332.663 572.222 331.421 572.222C330.949 572.222 329.766 571.594 328.788 570.827C327.218 569.591 326.334 569.441 321.083 569.513C316.135 569.584 314.859 569.815 313.377 570.908C312.399 571.631 311.332 572.222 311.002 572.222C309.799 572.222 303.96 577.355 302.284 579.885C300.668 582.327 300.56 582.918 300.588 589.136C300.613 595.068 300.782 596.04 302.158 598.236C304.299 601.656 307.193 604.437 310.734 606.482C313.321 607.977 314.593 608.256 319.716 608.46C325.439 608.688 325.849 608.613 329.756 606.633C332.07 605.462 334.148 603.925 334.567 603.073C334.974 602.249 335.557 601.4 335.866 601.188C337.811 599.847 341.72 590.204 341.677 586.847C341.667 585.885 341.25 584.392 340.758 583.528Z" fill="#161416"/>
<path d="M324.517 379.191C325.57 378.141 326.309 378.531 337.931 386.282C340.869 388.242 345.469 391.377 348.155 393.251C350.841 395.126 353.705 397.086 354.516 397.603C356.22 398.691 360.383 401.6 368.396 407.309C371.506 409.525 375.604 412.399 377.503 413.698C384.368 418.389 384.898 419.497 382.571 424.298C380.229 429.13 378.76 433.341 378.76 435.215C378.76 437.999 382.466 444.288 388.043 450.974C388.483 451.501 390.483 454.056 392.483 456.647C402.993 470.265 429.13 502.681 432.236 505.955C440.223 514.369 442.645 517.605 441.879 518.844C441.017 520.238 438.924 519.256 432.17 514.296C427.417 510.806 416.234 499.186 404.196 485.227C401.513 482.116 398.935 479.347 398.463 479.071C397.99 478.795 397.603 478.254 397.603 477.867C397.603 477.48 397.179 476.719 396.661 476.171C396.144 475.624 394.239 473.34 392.433 471.094C390.626 468.848 388.79 466.785 388.35 466.508C387.913 466.232 387.553 465.712 387.553 465.353C387.553 464.993 385.857 462.609 383.785 460.051C381.712 457.496 380.016 455.23 380.016 455.016C380.016 454.803 379.305 453.74 378.436 452.654C377.566 451.569 376.649 450.396 376.395 450.052C376.142 449.705 375.157 448.381 374.207 447.109C373.255 445.838 372.478 444.532 372.478 444.205C372.478 443.881 371.88 442.263 371.149 440.61C369.169 436.132 369.679 428.934 372.378 423.296C373.471 421.017 374.363 418.844 374.363 418.467C374.363 418.093 371.988 416.203 369.089 414.274C366.187 412.344 363.466 410.346 363.044 409.836C362.622 409.326 362.009 408.909 361.68 408.909C361.353 408.909 359.562 407.708 357.697 406.241C355.833 404.771 352.816 402.497 350.989 401.191C337.545 391.553 324.655 381.463 324.294 380.289C324.178 379.925 324.281 379.43 324.517 379.191Z" fill="#161416"/>
<path d="M564.619 273.862C565.257 272.654 566.122 270.935 566.539 270.046C567.561 267.853 573.961 259.868 575.259 259.159C575.835 258.848 577.36 257.767 578.649 256.762C583.553 252.933 586.352 251.878 591.613 251.878C596.279 251.878 596.603 251.974 599.055 254.072C601.113 255.835 601.879 257.119 602.935 260.602C604.133 264.539 604.166 265.099 603.314 266.73C602.801 267.714 602.377 269.255 602.374 270.149C602.372 271.543 601.048 274.511 597.523 281.018C596.251 283.367 589.133 290.822 588.164 290.822C587.666 290.822 587.096 291.244 586.897 291.757C586.701 292.272 585.425 292.993 584.061 293.359C582.694 293.729 581.423 294.437 581.229 294.937C580.963 295.633 579.624 295.847 575.543 295.847C570.526 295.847 570.056 295.731 567.76 293.91C566.413 292.844 565.312 291.606 565.312 291.161C565.312 290.714 564.888 289.995 564.37 289.566C562.89 288.337 563.074 276.785 564.619 273.862ZM581.292 278.119C580.131 275.976 578.563 275.119 575.812 275.119C572.069 275.119 569.963 276.234 568.79 278.84C567.817 280.995 567.802 281.418 568.644 283.048C570.219 286.096 571.956 287.242 575.096 287.307C577.649 287.36 578.212 287.103 580.121 285.021C582.45 282.48 582.739 280.782 581.292 278.119ZM593.724 262.426C592.875 260.441 589.071 258.159 586.608 258.159C584.774 258.159 583.802 258.639 582.021 260.421C580.777 261.664 579.759 263.134 579.759 263.684C579.759 265.28 582.88 269.35 585.204 270.787C587.639 272.29 589.234 272.071 591.897 269.868C593.746 268.34 594.661 264.616 593.724 262.426Z" fill="#31A2FD"/>
<path d="M371.83 326.625C372.508 326.625 374.558 327.894 376.383 329.441C380.302 332.768 379.842 332.384 388.191 339.318C391.814 342.326 395.201 345.152 395.721 345.599C399.55 348.883 410.123 357.237 411.261 357.875C413.306 359.021 414.055 358.865 416.472 356.8C417.668 355.777 419.01 354.931 419.454 354.916C419.902 354.903 421.374 354.325 422.728 353.634C424.839 352.556 426.432 352.378 433.853 352.378C442.818 352.378 446.162 353.044 453.263 356.24C454.682 356.881 456.175 357.403 456.582 357.403C456.989 357.403 458.087 357.873 459.024 358.448C470.91 365.74 478.267 373.282 476.413 376.28C475.704 377.425 471.179 376.42 468.958 374.624C467.888 373.757 465.918 372.144 464.584 371.043C463.25 369.94 461.413 368.679 460.501 368.24C459.592 367.802 457.715 366.752 456.333 365.908C454.951 365.064 453.396 364.194 452.878 363.978C452.361 363.76 450.773 363.041 449.353 362.378C447.934 361.715 446.097 361.162 445.27 361.149C444.446 361.139 443.064 360.722 442.2 360.23C439.989 358.966 430.13 358.999 426.138 360.282C422.602 361.418 415.289 364.903 414.809 365.677C414.633 365.963 413.399 366.197 412.07 366.197C408.821 366.197 405.894 363.838 391.086 349.275C378.95 337.341 370.594 328.359 370.594 327.251C370.594 326.906 371.149 326.625 371.83 326.625Z" fill="#161416"/>
<path d="M574.622 300C574.903 299.824 576.529 299.498 578.232 299.271C579.935 299.045 581.777 298.467 582.322 297.982C582.868 297.498 584.167 297.103 585.207 297.103C586.305 297.103 587.581 296.575 588.239 295.847C588.865 295.156 589.712 294.591 590.121 294.591C590.973 294.591 594.794 291.52 597.88 288.36C601.759 284.385 605.465 277.89 606.153 273.862C606.91 269.438 608.993 262.966 609.739 262.717C610.648 262.416 614.244 266.282 614.706 268.061C614.909 268.843 614.965 271.388 614.829 273.714C614.452 280.242 611.193 286.279 604.666 292.533C597.576 299.327 591.528 302.04 582.27 302.573C579.677 302.721 576.78 302.548 575.83 302.186C574.129 301.54 573.619 300.621 574.622 300Z" fill="#161416"/>
<path d="M480.787 422.221C481.976 421.178 483.599 420.14 484.4 419.914C485.199 419.688 486.704 419.128 487.739 418.67C489.536 417.876 491.945 417.183 498.005 415.723C499.573 415.344 505.043 415.168 510.882 415.306C519.892 415.522 521.329 415.708 523.701 416.954C526.685 418.525 526.869 418.942 525.221 420.432C524.261 421.298 522.515 421.477 514.698 421.497C509.138 421.512 503.412 421.896 500.616 422.442C498.025 422.947 493.784 423.62 491.194 423.934C476.903 425.668 476.868 425.663 480.787 422.221Z" fill="#161416"/>
<path d="M435.007 538.542C437.396 536.974 450.341 537.625 454.009 539.497C455.433 540.22 456.961 540.816 457.408 540.818C457.853 540.818 459.707 541.951 461.526 543.331C463.348 544.71 464.991 545.841 465.179 545.841C465.677 545.841 474.164 554.569 476.747 557.732C477.955 559.215 480.584 562.305 482.583 564.596C484.586 566.89 487.435 570.604 488.917 572.85C494.794 581.747 494.925 582.272 491.299 582.272C489.136 582.272 488.448 581.812 484.49 577.719C482.068 575.214 479.373 572.033 478.503 570.652C477.634 569.27 475.963 566.956 474.792 565.508C473.621 564.061 471.815 561.808 470.78 560.499C466.735 555.391 464.476 553.242 459.968 550.227C457.393 548.506 454.916 547.097 454.464 547.097C454.014 547.097 452.411 546.539 450.906 545.856C449.398 545.17 446.843 544.604 445.225 544.599C442.778 544.587 442.215 544.808 441.863 545.913C441.584 546.793 441.886 547.843 442.763 549.026C443.489 550.011 444.084 551.15 444.084 551.557C444.084 551.966 444.622 553.459 445.278 554.878C445.934 556.298 447.228 559.298 448.152 561.544C449.077 563.79 450.275 566.616 450.813 567.825C451.353 569.034 452.28 571.154 452.881 572.536C453.479 573.918 455.112 577.45 456.509 580.387C457.906 583.325 459.25 586.433 459.494 587.297C459.737 588.161 460.305 589.292 460.755 589.809C461.205 590.327 461.765 591.518 461.999 592.453C462.232 593.39 462.82 594.483 463.303 594.885C463.787 595.287 464.184 596.01 464.184 596.493C464.184 597.88 467.245 603.525 470.727 608.565C474.908 614.618 481.018 621.492 486.483 626.296C493.128 632.135 493.92 632.901 495.219 634.761C497.965 638.69 499.317 642.125 499.95 646.77C500.97 654.24 500.736 654.137 515.48 653.655C522.1 653.438 528.203 652.999 529.045 652.68C529.884 652.361 534.642 651.79 539.62 651.413C544.597 651.037 549.798 650.318 551.18 649.818C552.562 649.318 555.024 648.896 556.652 648.881C558.28 648.866 561.046 648.288 562.8 647.597C564.554 646.906 566.895 646.336 568.006 646.328C569.114 646.318 571.255 645.755 572.762 645.072C574.267 644.388 576.046 643.828 576.712 643.828C577.38 643.828 578.973 643.298 580.254 642.647C581.538 641.999 583.485 641.275 584.583 641.037C585.684 640.801 586.92 640.2 587.33 639.705C587.742 639.208 588.44 638.803 588.88 638.803C589.651 638.803 596.319 635.487 597.646 634.446C598.882 633.477 603.151 633.06 604.812 633.748C606.789 634.567 609.904 639.808 609.925 642.351C609.93 643.336 610.495 645.373 611.181 646.881C611.864 648.386 612.422 650.029 612.422 650.531C612.422 651.034 612.942 652.773 613.575 654.391C615.304 658.795 616.831 663.32 617.51 666.051C617.844 667.39 618.532 669.079 619.037 669.802C619.545 670.526 619.959 671.8 619.959 672.636C619.959 673.471 620.485 675.317 621.128 676.737C621.771 678.156 622.593 680.164 622.954 681.202C623.897 683.908 625.025 687.237 625.613 689.053C626.743 692.535 627.731 695.146 628.841 697.601C629.484 699.02 630.009 700.641 630.009 701.199C630.009 702.563 636.766 709.153 638.16 709.153C638.766 709.153 639.982 709.718 640.858 710.409C641.738 711.1 642.836 711.671 643.298 711.678C643.763 711.688 644.848 712.246 645.713 712.922C646.577 713.598 647.677 714.155 648.16 714.166C649.815 714.191 655.451 718.459 658.672 722.128C664.345 728.59 668.948 734.821 670.483 738.12C671.029 739.288 672.147 741.376 672.968 742.758C674.574 745.464 676.903 750.109 679.423 755.634C680.29 757.534 681.257 759.514 681.574 760.031C681.89 760.549 682.435 761.679 682.79 762.544C683.144 763.408 683.887 765.104 684.445 766.312C685 767.521 685.94 769.642 686.536 771.023C687.129 772.405 688.222 774.807 688.963 776.362C689.706 777.918 690.315 779.614 690.315 780.131C690.317 780.649 690.88 781.92 691.566 782.958C692.252 783.995 692.817 785.407 692.822 786.098C692.827 786.789 693.392 788.201 694.078 789.239C694.764 790.277 695.327 791.515 695.329 791.998C695.332 792.478 695.86 794.033 696.503 795.452C697.146 796.872 698.025 799.023 698.455 800.231C698.885 801.44 699.641 803.56 700.133 804.942C700.626 806.324 701.41 808.301 701.874 809.339C702.337 810.377 703.008 812.07 703.364 813.108C705.101 818.17 705.631 819.59 706.719 822.075C707.367 823.552 707.897 825.331 707.897 826.027C707.897 826.721 708.462 828.399 709.153 829.753C709.844 831.107 710.409 832.663 710.409 833.208C710.409 833.753 710.975 835.308 711.666 836.662C712.357 838.017 712.922 839.713 712.922 840.431C712.922 841.15 713.487 842.846 714.178 844.2C714.869 845.554 715.437 847.451 715.44 848.416C715.44 849.378 715.902 851.014 716.462 852.052C717.025 853.089 717.706 854.926 717.98 856.134C718.253 857.343 718.914 859.604 719.452 861.159C721.502 867.104 722.452 870.37 722.99 873.31C723.294 874.983 723.824 876.689 724.168 877.104C724.512 877.518 725.211 879.684 725.721 881.915C727.148 888.179 727.974 891.297 729.296 895.392C729.964 897.465 730.509 899.877 730.509 900.754C730.509 901.628 731.04 903.889 731.688 905.779C732.334 907.666 733.045 910.844 733.266 912.839C733.6 915.869 733.494 916.532 732.63 916.864C732.062 917.085 731.15 916.982 730.607 916.64C729.359 915.854 726.803 911.442 726.768 910.012C726.753 909.417 726.211 907.721 725.562 906.244C724.917 904.766 724.067 902.638 723.678 901.515C721.856 896.254 721.464 895.224 720.371 892.812C719.728 891.392 719.193 889.696 719.181 889.043C719.171 888.39 718.615 886.724 717.947 885.342C717.279 883.96 716.713 882.264 716.691 881.573C716.668 880.883 716.103 879.187 715.434 877.805C714.766 876.423 714.201 874.727 714.178 874.036C714.156 873.345 713.59 871.649 712.922 870.267C712.254 868.885 711.698 866.966 711.688 866.004C711.676 865.039 711.1 863.142 710.409 861.788C709.719 860.433 709.153 858.737 709.153 858.019C709.153 857.3 708.588 855.604 707.897 854.25C707.206 852.896 706.638 850.999 706.636 850.034C706.636 849.072 706.173 847.436 705.613 846.398C705.05 845.361 704.369 843.524 704.096 842.316C703.822 841.107 703.116 838.703 702.525 836.977C701.935 835.25 700.972 832.421 700.387 830.695C699.799 828.969 698.834 826.14 698.241 824.414C697.648 822.688 696.782 820.002 696.319 818.447C695.855 816.892 695.128 814.63 694.701 813.422C694.277 812.213 693.442 809.809 692.85 808.083C692.257 806.357 691.415 803.952 690.98 802.744C690.546 801.535 689.905 799.699 689.553 798.661C689.204 797.623 688.382 795.731 687.729 794.453C687.076 793.176 686.538 791.48 686.536 790.684C686.533 789.89 685.97 788.392 685.284 787.355C684.599 786.317 684.033 784.905 684.031 784.214C684.026 783.523 683.491 782.086 682.842 781.021C682.192 779.955 681.468 778.209 681.234 777.139C681.001 776.068 680.403 774.857 679.905 774.445C679.408 774.033 679.003 773.315 679.003 772.848C679.003 770.129 659.999 732.846 657.745 731.14C657.514 730.967 656.506 729.693 655.504 728.311C652.876 724.685 647.454 719.608 644.13 717.658C641.389 716.052 638.828 715.168 631.344 713.241C627.806 712.329 625.286 710.13 623.422 706.327C622.912 705.289 622.208 704.018 621.856 703.5C621.505 702.982 620.932 701.852 620.588 700.987C620.243 700.123 619.703 698.993 619.382 698.475C618.035 696.284 616.191 692.086 616.191 691.206C616.191 690.686 615.653 689.493 614.992 688.556C614.334 687.621 613.62 685.822 613.407 684.561C613.191 683.302 612.6 681.925 612.093 681.503C611.583 681.078 611.163 679.991 611.161 679.084C611.158 678.177 610.595 676.586 609.909 675.548C609.224 674.511 608.661 673.091 608.658 672.39C608.656 671.689 608.264 670.559 607.786 669.878C606.975 668.722 606.008 665.722 604.246 658.903C603.844 657.348 602.972 654.24 602.307 651.994C601.641 649.748 601.101 647.167 601.106 646.26C601.121 643.821 599.651 642.836 597.862 644.087C597.078 644.637 596.051 645.084 595.578 645.084C595.106 645.084 594 645.65 593.121 646.341C592.244 647.032 590.784 647.599 589.882 647.602C588.978 647.604 587.39 648.167 586.355 648.853C585.32 649.539 583.764 650.109 582.9 650.119C582.036 650.129 580.099 650.695 578.591 651.378C577.086 652.062 575.106 652.634 574.194 652.649C573.282 652.665 571.405 653.099 570.023 653.612C568.642 654.127 565.39 654.946 562.8 655.428C560.21 655.911 556.818 656.597 555.263 656.948C553.707 657.303 550.315 657.863 547.725 658.197C545.135 658.531 541.743 659.104 540.188 659.471C538.632 659.835 527.816 660.328 516.148 660.561C509.078 660.705 502.008 660.848 494.935 660.988C494.807 661.504 494.679 662.019 494.548 662.534C494.015 664.654 494.701 675.797 495.49 677.83C495.842 678.739 496.44 681.707 496.814 684.425C497.191 687.144 497.887 690.498 498.359 691.88C498.832 693.262 499.513 695.807 499.869 697.533C500.681 701.465 501.678 705.244 503.201 710.138C503.852 712.236 504.384 714.686 504.384 715.58C504.384 716.475 504.942 719 505.623 721.188C506.548 724.155 506.957 727.813 507.236 735.534C507.615 746.094 507.136 751.835 505.44 756.891C502.673 765.147 502.221 767.451 501.372 777.619C500.867 783.664 500.467 790.448 500.485 792.694C500.545 800.4 502.475 820.407 503.43 823.218C503.955 824.763 504.377 826.796 504.369 827.733C504.337 830.914 509.842 853.119 512.967 862.416C513.49 863.971 514.123 866.373 514.377 867.755C514.63 869.137 515.314 871.172 515.894 872.277C516.472 873.383 516.949 875.079 516.949 876.046C516.952 877.013 517.414 878.651 517.975 879.689C518.537 880.727 519.221 882.563 519.492 883.772C519.766 884.98 520.472 887.385 521.062 889.111C521.653 890.837 522.618 893.666 523.211 895.392C524.316 898.618 526.258 904.839 528.404 912.038C529.075 914.284 530.045 917.392 530.562 918.947C531.08 920.502 531.708 922.904 531.959 924.286C532.21 925.668 532.859 928.07 533.404 929.625C533.949 931.18 534.688 933.866 535.044 935.592C535.401 937.318 535.979 939.863 536.328 941.245C537.675 946.579 539.562 955.886 540.147 960.089C540.487 962.506 541.09 966.418 541.492 968.78C542.27 973.34 541.7 976.106 539.979 976.106C538.763 976.106 535.791 972.353 535.791 970.815C535.791 970.111 535.263 968.117 534.615 966.383C532.527 960.778 531.311 957.004 530.766 954.436C530.472 953.054 529.788 951.077 529.246 950.039C528.703 949.001 528.253 947.449 528.243 946.584C528.233 945.72 527.668 943.783 526.982 942.275C526.298 940.77 525.741 938.992 525.741 938.326C525.741 937.658 525.175 936.004 524.484 934.65C523.793 933.296 523.228 931.394 523.228 930.426C523.228 929.457 522.663 927.61 521.972 926.321C521.281 925.032 520.711 923.339 520.701 922.56C520.696 921.781 520.13 919.914 519.444 918.407C518.761 916.902 518.203 915.07 518.203 914.336C518.203 913.603 517.668 911.585 517.012 909.852C516.356 908.118 515.54 905.568 515.198 904.186C514.854 902.804 514.289 900.827 513.942 899.789C511.53 892.596 510.663 889.538 510.646 888.169C510.633 887.304 510.078 885.468 509.409 884.086C508.741 882.704 508.186 880.948 508.173 880.184C508.163 879.418 507.588 877.36 506.897 875.606C506.206 873.853 505.631 871.511 505.621 870.4C505.608 869.29 505.053 867.252 504.384 865.87C503.716 864.488 503.161 862.501 503.148 861.451C503.138 860.403 502.563 857.936 501.872 855.971C501.181 854.004 500.616 851.602 500.616 850.632C500.616 849.662 500.05 847.258 499.359 845.293C498.668 843.326 498.103 840.806 498.103 839.693C498.103 838.577 497.55 835.25 496.872 832.296C496.194 829.344 495.362 824.665 495.018 821.902C494.674 819.138 494.116 815.321 493.782 813.422C493.445 811.522 493.149 802.734 493.123 793.892C493.088 781.415 493.287 777.129 494.005 774.734C494.518 773.038 495.118 769.956 495.342 767.883C495.566 765.81 496.279 762.928 496.925 761.478C497.573 760.031 498.103 758.107 498.103 757.207C498.103 756.305 498.638 754.524 499.292 753.247C501.977 747.991 503.015 743.323 501.942 741.318C501.57 740.622 501.093 737.974 500.882 735.436C500.673 732.899 499.96 729.198 499.302 727.21C498.643 725.221 498.091 722.678 498.076 721.557C498.06 720.434 497.636 718.387 497.133 717.005C496.631 715.623 495.91 712.555 495.533 710.191C495.156 707.824 494.45 704.937 493.963 703.771C493.478 702.608 493.078 700.799 493.078 699.754C493.078 698.706 492.535 696.226 491.875 694.236C491.211 692.249 490.488 689.272 490.262 687.616C490.038 685.96 489.448 683.639 488.953 682.453C488.458 681.269 488.053 679.33 488.053 678.146C488.053 676.963 487.518 674.197 486.862 672.003C485.315 666.81 484.629 658.107 485.619 656.222C486.676 654.212 487.37 653.898 490.764 653.888C495.262 653.873 496.36 653.082 495.839 650.233C495.606 648.956 494.89 647.162 494.246 646.245C493.603 645.326 493.078 644.142 493.078 643.612C493.078 643.079 492.784 642.464 492.425 642.243C492.066 642.019 491.031 640.662 490.123 639.228C489.216 637.791 483.93 632.117 478.38 626.62C472.827 621.123 467.998 616.128 467.649 615.52C467.297 614.914 466.091 613.105 464.968 611.505C463.848 609.902 462.928 608.437 462.928 608.249C462.928 608.063 462.363 607.191 461.672 606.311C460.981 605.435 460.416 604.304 460.416 603.799C460.416 603.296 459.85 602.166 459.159 601.286C458.468 600.41 457.903 599.279 457.903 598.774C457.903 598.271 457.338 597.141 456.647 596.261C455.956 595.385 455.391 594.113 455.391 593.435C455.391 592.759 454.825 591.488 454.134 590.608C453.443 589.731 452.878 588.601 452.878 588.096C452.878 587.593 452.313 586.463 451.622 585.583C450.931 584.706 450.366 583.357 450.366 582.586C450.366 581.815 449.8 580.465 449.109 579.589C448.418 578.709 447.853 577.438 447.853 576.762C447.853 576.084 447.288 574.812 446.597 573.935C445.906 573.056 445.338 571.817 445.336 571.179C445.333 570.544 444.77 569.174 444.084 568.139C443.399 567.104 442.833 565.689 442.828 564.998C442.823 564.307 442.258 562.893 441.572 561.858C440.886 560.823 440.323 559.581 440.321 559.102C440.318 558.619 439.791 557.066 439.147 555.647C438.039 553.2 437.72 552.361 435.909 547.097C435.492 545.888 434.758 544.097 434.278 543.12C433.045 540.605 433.183 539.735 435.007 538.542Z" fill="#161416"/>
<path d="M515.585 669.267C516.753 668.099 519.454 671.991 519.457 674.852C519.459 675.85 519.989 677.83 520.638 679.249C521.751 681.684 522.273 683.375 523.773 689.367C524.117 690.749 524.683 693.01 525.03 694.392C525.374 695.774 525.959 698.106 526.326 699.575C528.08 706.565 528.291 707.409 530.487 716.377C531.08 718.794 531.783 722.793 532.049 725.261C532.318 727.731 532.851 730.338 533.235 731.057C534.127 732.725 534.527 740.409 535.198 768.825C535.763 792.694 537.14 813.937 538.285 816.457C538.652 817.263 539.223 820.532 539.552 823.721C539.883 826.909 540.584 830.552 541.112 831.813C541.64 833.077 542.072 835.115 542.072 836.343C542.072 837.572 542.637 840.185 543.328 842.152C544.019 844.117 544.584 846.444 544.584 847.318C544.584 848.195 545.125 850.607 545.783 852.68C546.444 854.752 547.574 858.285 548.298 860.531C549.019 862.777 549.619 865.32 549.629 866.184C549.642 867.049 550.197 868.885 550.866 870.267C551.534 871.649 552.089 873.282 552.102 873.898C552.112 874.513 552.574 876.069 553.129 877.352C553.682 878.639 554.501 881.104 554.948 882.83C555.788 886.071 556.539 888.327 558.396 893.194C560.024 897.46 561.564 902.05 562.172 904.447C562.471 905.628 563.124 907.465 563.622 908.53C564.121 909.595 564.82 911.314 565.177 912.352C566.817 917.138 567.453 918.811 568.541 921.213C569.184 922.633 569.709 924.2 569.709 924.693C569.709 925.185 570.275 926.7 570.966 928.055C571.656 929.409 572.224 931.095 572.227 931.798C572.229 932.504 572.792 933.926 573.478 934.964C574.164 936.002 574.729 937.414 574.734 938.105C574.739 938.796 575.305 940.208 575.991 941.245C576.676 942.283 577.239 943.665 577.242 944.318C577.244 944.971 577.769 946.667 578.41 948.087C582.915 958.087 583.415 964.8 579.654 964.8C578.501 964.8 573.481 958.569 573.476 957.132C573.476 956.687 572.91 955.396 572.219 954.265C571.531 953.132 570.966 951.856 570.966 951.428C570.966 950.999 570.4 949.594 569.709 948.305C569.018 947.016 568.453 945.544 568.453 945.032C568.453 944.524 567.855 942.755 567.121 941.105C563.468 932.866 563.647 933.316 561.476 926.957C561.091 925.834 560.245 923.869 559.591 922.59C558.938 921.314 558.403 919.819 558.403 919.268C558.403 918.718 557.838 917.16 557.147 915.806C556.456 914.452 555.891 912.834 555.891 912.211C555.891 911.585 555.325 910.022 554.634 908.734C553.943 907.445 553.378 905.952 553.378 905.42C553.378 904.887 552.813 903.342 552.122 901.987C551.431 900.633 550.863 898.877 550.861 898.086C550.858 897.297 550.295 895.802 549.609 894.764C548.923 893.726 548.361 892.091 548.358 891.128C548.356 890.164 547.788 888.267 547.097 886.912C546.406 885.558 545.841 883.862 545.841 883.144C545.841 882.425 545.275 880.729 544.584 879.375C543.893 878.021 543.328 876.227 543.328 875.385C543.328 874.546 542.77 872.626 542.087 871.121C541.401 869.614 540.836 867.448 540.831 866.307C540.821 865.164 540.285 863.044 539.637 861.597C538.989 860.147 538.263 857.609 538.024 855.953C537.786 854.298 537.185 851.976 536.69 850.79C536.195 849.607 535.791 847.667 535.791 846.484C535.791 845.3 535.255 842.534 534.6 840.341C533.946 838.145 533.248 834.821 533.049 832.954C532.848 831.087 532.278 827.698 531.778 825.416C531.278 823.138 530.557 818.731 530.173 815.62C529.791 812.51 529.215 808.412 528.894 806.512C528.572 804.613 528.14 793.731 527.931 782.33C527.725 770.928 527.283 760.471 526.952 759.089C526.622 757.707 526.102 750.639 525.796 743.386C525.492 736.132 524.949 729.449 524.59 728.54C524.233 727.628 523.64 724.185 523.273 720.891C522.904 717.598 522.301 714.103 521.929 713.128C521.557 712.151 520.992 709.06 520.673 706.259C520.354 703.457 519.668 699.957 519.148 698.485C518.628 697.01 518.203 694.48 518.203 692.862C518.203 691.244 517.658 687.676 516.992 684.933C515.836 680.184 514.917 669.935 515.585 669.267Z" fill="#161416"/>
<path d="M541.454 677.101C541.703 676.697 542.411 676.465 543.027 676.586C543.841 676.744 544.542 678.249 545.612 682.144C546.419 685.081 547.082 688.249 547.087 689.186C547.092 690.123 547.662 692.324 548.353 694.078C549.044 695.832 549.609 698.234 549.609 699.417C549.609 700.601 550.175 703.003 550.866 704.756C551.557 706.51 552.122 708.789 552.122 709.819C552.122 710.852 552.687 713.304 553.378 715.271C554.069 717.236 554.647 719.703 554.662 720.751C554.677 721.801 555.102 723.788 555.604 725.17C556.107 726.552 556.828 729.62 557.205 731.984C557.582 734.351 558.288 737.238 558.775 738.404C559.26 739.567 559.659 741.366 559.659 742.401C559.659 743.434 560.225 745.715 560.916 747.469C561.607 749.222 562.172 751.491 562.172 752.514C562.172 753.536 562.7 755.999 563.345 757.989C563.991 759.976 564.815 763.016 565.179 764.742C566.162 769.395 567.137 773.086 568.496 777.305C569.164 779.377 569.719 781.92 569.73 782.958C569.742 783.995 570.297 785.973 570.966 787.355C571.634 788.737 572.194 790.714 572.214 791.752C572.234 792.789 572.807 794.867 573.493 796.375C574.177 797.88 574.734 799.797 574.734 800.633C574.734 801.47 575.197 803.206 575.757 804.49C576.32 805.776 577.003 807.957 577.275 809.339C577.546 810.721 578.189 813.123 578.707 814.678C579.222 816.233 580.119 818.919 580.692 820.645C581.269 822.371 581.993 825.002 582.307 826.487C582.619 827.974 583.305 829.803 583.83 830.552C584.355 831.303 584.784 832.635 584.784 833.514C584.784 834.391 585.35 836.165 586.041 837.454C586.732 838.743 587.297 840.439 587.297 841.223C587.297 842.007 587.862 843.703 588.553 844.991C589.244 846.28 589.812 847.831 589.814 848.439C589.817 849.044 590.38 850.386 591.066 851.423C591.752 852.461 592.314 853.878 592.317 854.574C592.319 855.27 592.887 856.893 593.578 858.182C594.269 859.471 594.834 860.943 594.834 861.456C594.834 862.345 596.133 865.544 598.671 870.895C599.327 872.277 599.862 873.727 599.862 874.116C599.859 874.875 602.495 881.114 603.985 883.867C604.48 884.787 604.889 886.058 604.899 886.694C604.905 887.332 605.465 888.561 606.141 889.425C606.817 890.289 607.377 891.505 607.382 892.126C607.392 892.749 608.002 894.445 608.744 895.895C611.99 902.251 612.422 903.241 612.427 904.312C612.429 904.932 612.992 906.289 613.678 907.327C614.364 908.364 614.927 909.641 614.929 910.163C614.932 910.686 615.5 912.168 616.191 913.457C616.882 914.746 617.447 916.218 617.447 916.731C617.447 917.583 618.065 919.108 621.301 926.238C621.944 927.658 622.472 929.323 622.472 929.939C622.472 930.555 622.995 932.22 623.635 933.64C625.198 937.115 626.846 941.954 627.504 945.014C627.801 946.396 628.489 948.411 629.037 949.494C630.246 951.893 629.803 953.245 627.399 954.486C625.703 955.363 625.432 955.335 623.708 954.107C622.683 953.378 621.691 952.024 621.5 951.097C621.306 950.17 620.65 947.996 620.035 946.27C617.583 939.363 616.713 936.766 616.248 934.964C615.98 933.926 615.294 932.175 614.721 931.07C614.148 929.964 613.676 928.55 613.673 927.929C613.671 927.306 613.108 925.952 612.422 924.914C611.736 923.876 611.173 922.522 611.171 921.907C611.168 921.289 610.6 919.673 609.909 918.319C609.218 916.964 608.653 915.409 608.653 914.864C608.653 914.319 608.115 913.105 607.455 912.168C606.796 911.233 606.083 909.435 605.869 908.173C605.653 906.915 605.063 905.538 604.555 905.116C604.045 904.691 603.626 903.746 603.623 903.01C603.621 902.276 603.058 900.827 602.372 899.789C601.686 898.751 601.123 897.513 601.121 897.03C601.116 896.209 600.043 893.638 597.284 887.855C596.626 886.473 596.088 884.998 596.088 884.573C596.091 883.754 594.214 879.3 592.257 875.481C591.601 874.204 591.066 872.727 591.066 872.202C591.066 871.32 590.458 869.81 587.211 862.662C586.568 861.242 586.041 859.675 586.041 859.182C586.041 858.69 585.475 857.175 584.784 855.82C584.093 854.466 583.528 852.84 583.528 852.207C583.528 851.577 582.963 849.951 582.272 848.597C581.581 847.243 581.016 845.687 581.016 845.142C581.016 844.597 580.45 843.042 579.759 841.687C579.068 840.333 578.503 838.637 578.503 837.919C578.503 837.2 577.938 835.504 577.247 834.15C576.556 832.796 575.991 831.117 575.991 830.424C575.991 829.728 575.455 827.949 574.805 826.472C574.152 824.994 573.332 822.655 572.988 821.273C572.641 819.892 572.076 817.914 571.729 816.877C571.383 815.839 570.621 813.578 570.039 811.852C569.456 810.125 568.737 807.387 568.446 805.769C568.154 804.151 567.601 802.244 567.22 801.53C566.838 800.819 566.227 798.616 565.863 796.633C565.496 794.653 564.797 792.264 564.313 791.324C563.825 790.385 563.428 788.764 563.428 787.724C563.428 786.684 562.863 784.397 562.172 782.644C561.481 780.89 560.916 778.679 560.916 777.732C560.916 776.782 560.35 774.395 559.659 772.43C558.968 770.463 558.403 768.214 558.406 767.428C558.406 766.642 557.863 764.019 557.195 761.602C556.529 759.185 555.702 755.649 555.356 753.75C555.011 751.851 554.441 749.165 554.092 747.783C553.479 745.358 552.624 741.182 551.396 734.592C551.074 732.866 550.25 729.05 549.564 726.112C548.881 723.175 548.328 719.939 548.338 718.919C548.346 717.899 547.81 714.65 547.145 711.696C546.481 708.744 545.635 704.49 545.263 702.244C544.893 699.998 544.323 696.606 543.999 694.706C543.672 692.807 543.112 689.415 542.753 687.169C542.394 684.923 541.851 681.905 541.549 680.46C541.248 679.016 541.205 677.506 541.454 677.101Z" fill="#161416"/>
<path d="M565.725 669.38C566.657 668.446 567.099 669.094 567.687 672.25C568.923 678.878 571.569 688.618 573.534 693.777C574.194 695.51 574.734 697.412 574.734 698C574.734 698.588 575.3 700.349 575.991 701.912C576.682 703.477 577.812 706.035 578.503 707.6C579.194 709.163 579.77 710.789 579.78 711.211C579.79 711.635 580.493 713.394 581.345 715.12C582.194 716.846 582.89 718.58 582.895 718.97C582.898 719.359 583.305 720.015 583.802 720.427C584.297 720.839 584.88 721.982 585.099 722.972C585.317 723.962 585.88 725.092 586.355 725.484C586.83 725.876 587.392 727.007 587.611 727.997C587.83 728.987 588.392 730.117 588.867 730.509C589.342 730.901 589.905 732.032 590.124 733.022C590.342 734.012 590.897 735.132 591.36 735.517C591.82 735.901 592.39 736.979 592.623 737.911C592.86 738.846 593.382 739.997 593.787 740.469C594.556 741.368 600.586 752.305 601.802 755.006C602.189 755.871 602.761 757.001 603.075 757.519C603.387 758.036 604.201 759.592 604.884 760.973C605.568 762.355 606.367 763.911 606.663 764.428C607.827 766.463 609.113 769.066 611.166 773.536C611.957 775.262 612.852 777.101 613.148 777.619C613.445 778.136 614.007 779.267 614.397 780.131C615.54 782.656 617.532 787.136 618.872 790.181C619.555 791.737 620.643 794.053 621.291 795.332C621.942 796.608 622.472 798.118 622.472 798.689C622.472 799.259 622.997 800.472 623.64 801.392C624.283 802.309 625 804.09 625.228 805.352C625.459 806.611 626.062 807.987 626.57 808.409C627.08 808.834 627.497 809.643 627.497 810.211C627.497 810.776 628.062 812.296 628.753 813.585C629.444 814.874 630.009 816.289 630.009 816.726C630.009 817.166 630.575 818.578 631.266 819.866C631.957 821.155 632.525 822.706 632.527 823.314C632.53 823.919 633.092 825.261 633.778 826.298C634.464 827.336 635.027 828.718 635.029 829.371C635.032 830.024 635.56 831.72 636.203 833.14C637.311 835.585 637.713 836.642 639.821 842.63C640.308 844.012 641.125 845.891 641.64 846.808C642.152 847.728 642.572 849.001 642.572 849.645C642.572 850.288 643.137 851.868 643.828 853.157C644.519 854.446 645.084 856.001 645.084 856.612C645.084 857.222 645.65 858.778 646.341 860.066C647.032 861.355 647.597 863.051 647.597 863.835C647.597 864.619 648.162 866.315 648.853 867.604C649.544 868.893 650.112 870.586 650.115 871.365C650.117 872.144 650.68 873.626 651.366 874.664C652.052 875.702 652.614 877.197 652.617 877.986C652.619 878.777 653.187 880.533 653.878 881.888C654.569 883.242 655.134 884.938 655.134 885.656C655.134 886.375 655.7 888.071 656.391 889.425C657.082 890.779 657.657 892.252 657.67 892.699C657.68 893.144 658.235 894.638 658.903 896.02C659.572 897.402 660.127 899.103 660.137 899.799C660.149 900.495 660.725 902.118 661.416 903.407C662.107 904.696 662.672 906.259 662.672 906.877C662.672 907.497 663.237 909.113 663.928 910.467C664.619 911.821 665.184 913.512 665.184 914.221C665.184 914.929 665.75 916.565 666.441 917.854C667.132 919.143 667.697 920.753 667.697 921.434C667.697 922.113 668.262 924.103 668.953 925.856C669.644 927.61 670.209 929.811 670.209 930.748C670.209 931.685 670.833 934.19 671.594 936.316C672.76 939.564 672.848 940.338 672.147 941.183C670.554 943.1 666.441 942.107 666.441 939.806C666.441 939.326 665.875 938.213 665.184 937.333C664.494 936.456 663.928 935.276 663.928 934.713C663.928 934.15 663.363 932.635 662.672 931.346C661.981 930.057 661.413 928.507 661.411 927.899C661.408 927.293 660.845 925.952 660.159 924.914C659.474 923.876 658.901 922.464 658.886 921.773C658.873 921.083 658.315 919.387 657.647 918.005C656.979 916.623 656.413 914.927 656.391 914.236C656.368 913.545 655.803 911.849 655.134 910.467C654.466 909.085 653.901 907.389 653.878 906.698C653.856 906.008 653.29 904.312 652.622 902.93C651.954 901.548 651.388 899.852 651.366 899.161C651.343 898.47 650.778 896.774 650.109 895.392C649.441 894.01 648.876 892.314 648.853 891.623C648.831 890.933 648.265 889.237 647.597 887.855C646.929 886.473 646.373 884.82 646.363 884.181C646.351 883.543 645.931 882.129 645.431 881.041C644.426 878.855 642.376 873.069 641.057 868.697C640.105 865.554 639.168 862.863 637.547 858.647C636.949 857.092 636.11 854.83 635.68 853.622C633.61 847.785 633.027 846.253 632.18 844.419C631.678 843.331 631.266 842.11 631.266 841.71C631.266 840.763 629.022 835.122 627.457 832.14C626.788 830.864 626.241 829.306 626.241 828.678C626.241 828.05 625.675 826.482 624.984 825.193C624.294 823.904 623.726 822.354 623.723 821.746C623.721 821.14 623.158 819.799 622.472 818.761C621.786 817.723 621.223 816.485 621.221 816.002C621.216 815.115 619.555 811.218 617.387 807.015C616.728 805.739 616.191 804.241 616.191 803.686C616.191 802.734 615.736 801.709 612.512 795.395C611.771 793.945 611.166 792.294 611.166 791.726C611.166 791.159 610.6 789.975 609.909 789.096C609.219 788.219 608.653 786.87 608.653 786.098C608.653 785.327 608.088 783.978 607.397 783.101C606.706 782.222 606.141 780.95 606.141 780.275C606.141 779.599 605.575 778.325 604.884 777.448C604.194 776.569 603.623 775.33 603.613 774.694C603.608 774.056 603.048 772.83 602.372 771.966C601.696 771.101 601.136 769.971 601.126 769.453C601.116 768.936 600.545 767.664 599.859 766.627C599.174 765.589 598.611 764.363 598.608 763.898C598.606 763.436 598.038 762.338 597.347 761.458C596.656 760.581 596.086 759.265 596.076 758.534C596.071 757.803 595.51 756.499 594.834 755.634C594.159 754.77 593.598 753.725 593.593 753.313C593.583 752.898 592.915 751.313 592.103 749.788C591.292 748.263 590.453 746.481 590.239 745.828C590.023 745.175 589.573 744.218 589.239 743.7C588.905 743.182 588.011 741.343 587.252 739.617C586.493 737.891 585.345 735.449 584.699 734.193C584.056 732.936 583.528 731.547 583.528 731.102C583.528 730.658 583.079 729.796 582.528 729.19C581.981 728.582 581.257 726.876 580.925 725.396C580.594 723.919 579.993 722.309 579.589 721.824C578.888 720.979 578.315 719.633 576.601 714.806C576.172 713.598 575.335 711.337 574.742 709.781C572.82 704.749 571.511 700.729 570.956 698.161C570.659 696.779 570.008 694.513 569.514 693.123C569.016 691.734 568.406 689.048 568.154 687.156C567.903 685.262 567.33 682.018 566.883 679.945C565.747 674.699 565.22 669.885 565.725 669.38Z" fill="#161416"/>
<path d="M588.521 653.584C588.837 653.388 589.322 653.589 589.601 654.024C590.453 655.366 592.322 660.983 592.322 662.202C592.322 662.833 592.887 664.458 593.578 665.813C594.269 667.167 594.835 669.069 594.835 670.036C594.835 671.006 595.4 672.853 596.091 674.141C596.782 675.43 597.347 677.126 597.347 677.91C597.347 678.694 597.912 680.39 598.603 681.679C599.294 682.968 599.86 684.382 599.86 684.82C599.86 685.259 600.425 686.671 601.116 687.96C601.807 689.249 602.372 690.606 602.372 690.973C602.372 691.628 605.053 697.867 606.138 699.731C606.437 700.249 607.621 702.462 608.766 704.651C609.912 706.839 611.201 708.922 611.636 709.281C612.068 709.641 612.422 710.186 612.422 710.492C612.422 711.392 615.952 716.005 619.673 719.967C622.774 723.271 628.025 727.957 635.708 734.278C640.047 737.848 642.572 740.348 642.572 741.072C642.572 741.446 642.941 741.979 643.389 742.255C643.841 742.532 645.183 744.029 646.373 745.584C647.564 747.14 648.708 748.552 648.916 748.725C649.125 748.898 649.657 749.728 650.102 750.569C650.544 751.411 651.167 752.401 651.484 752.768C652.109 753.491 652.635 754.486 657.24 763.684C658.916 767.029 660.582 770.322 660.941 771.001C664.049 776.865 665.172 779.274 665.506 780.792C665.717 781.762 666.282 782.88 666.755 783.272C667.227 783.664 667.792 784.794 668.011 785.784C668.23 786.774 668.81 787.918 669.308 788.33C669.805 788.742 670.21 789.46 670.21 789.927C670.21 790.749 671.755 794.447 673.988 798.975C674.584 800.184 675.272 802.02 675.518 803.053C675.765 804.088 676.285 805.322 676.679 805.796C677.395 806.661 678.026 808.156 679.9 813.422C680.453 814.977 681.325 816.997 681.837 817.914C682.352 818.834 682.772 819.967 682.772 820.437C682.772 820.907 683.297 822.276 683.938 823.482C684.576 824.685 685.29 826.703 685.523 827.964C685.757 829.223 686.362 830.6 686.872 831.022C687.38 831.447 687.8 832.534 687.802 833.441C687.805 834.348 688.367 835.939 689.053 836.977C689.739 838.014 690.302 839.356 690.304 839.961C690.307 840.569 690.875 842.12 691.566 843.409C692.257 844.697 692.822 846.265 692.822 846.891C692.822 847.519 693.272 848.898 693.819 849.959C694.367 851.019 695.184 853.197 695.633 854.795C696.083 856.396 696.797 858.695 697.224 859.903C697.649 861.112 698.48 863.516 699.068 865.242C699.659 866.968 700.631 869.797 701.231 871.523C701.829 873.25 702.676 876.079 703.111 877.805C703.545 879.531 704.236 881.563 704.643 882.317C705.05 883.071 705.395 884.485 705.407 885.458C705.417 886.43 705.972 888.357 706.641 889.739C707.309 891.121 707.864 892.877 707.874 893.641C707.887 894.407 708.462 896.465 709.153 898.219C709.844 899.972 710.41 902.234 710.41 903.244C710.41 904.254 710.975 906.515 711.666 908.269C712.357 910.022 712.922 912.264 712.922 913.251C712.922 914.238 713.457 916.844 714.113 919.037C716.377 926.635 716.304 933.394 713.96 933.394C712.183 933.394 709.784 929.874 709.123 926.296C708.759 924.329 708.053 921.738 707.553 920.54C707.05 919.339 706.641 917.512 706.641 916.477C706.641 915.444 706.075 913.163 705.385 911.409C704.694 909.656 704.118 907.314 704.106 906.204C704.096 905.093 703.54 903.055 702.872 901.673C702.204 900.292 701.648 898.535 701.638 897.772C701.626 897.005 701.05 894.947 700.36 893.194C699.669 891.44 699.103 889.299 699.103 888.435C699.103 887.571 698.538 885.754 697.847 884.4C697.156 883.046 696.586 881.29 696.578 880.498C696.568 879.709 696.005 877.83 695.322 876.322C694.639 874.817 694.078 872.976 694.078 872.229C694.078 871.486 693.513 869.822 692.822 868.534C692.131 867.245 691.561 865.551 691.553 864.772C691.543 863.993 690.98 862.127 690.297 860.619C689.614 859.114 689.053 857.413 689.053 856.84C689.053 856.27 688.488 854.747 687.797 853.459C687.106 852.17 686.541 850.537 686.541 849.831C686.541 849.125 685.975 847.439 685.285 846.084C684.594 844.73 684.028 843.253 684.028 842.803C684.028 842.351 683.503 840.999 682.862 839.793C682.224 838.59 681.511 836.572 681.277 835.311C681.043 834.052 680.438 832.675 679.928 832.253C679.42 831.828 679.003 830.773 679.003 829.909C679.003 829.04 678.468 827.449 677.815 826.371C677.162 825.296 676.435 823.515 676.204 822.417C675.971 821.316 675.378 820.083 674.88 819.67C674.383 819.258 673.976 818.321 673.973 817.585C673.971 816.851 673.408 815.402 672.722 814.364C672.036 813.326 671.473 812.088 671.471 811.605C671.466 810.718 669.805 806.822 667.637 802.618C666.978 801.342 666.441 799.832 666.441 799.264C666.441 798.696 665.875 797.513 665.185 796.633C664.494 795.756 663.928 794.407 663.928 793.636C663.928 792.865 663.363 791.515 662.672 790.639C661.981 789.759 661.416 788.488 661.416 787.812C661.416 787.136 660.85 785.862 660.16 784.985C659.469 784.106 658.903 783.086 658.903 782.719C658.903 782.094 657.906 779.679 655.114 773.536C654.486 772.154 653.775 770.317 653.534 769.453C653.293 768.589 652.851 767.574 652.552 767.199C652.253 766.82 651.117 764.843 650.032 762.803C648.944 760.76 646.75 757.149 645.157 754.778C643.562 752.403 641.788 749.753 641.21 748.881C639.939 746.959 631.726 738.994 626.196 734.318C618.902 728.15 610.191 718.974 607.078 714.178C603.329 708.404 599.043 699.797 598.254 696.46C598.033 695.523 597.455 694.43 596.973 694.028C596.488 693.626 596.091 692.551 596.091 691.636C596.091 690.724 595.525 688.922 594.835 687.634C594.144 686.345 593.578 684.729 593.578 684.043C593.578 683.357 593.156 681.732 592.636 680.428C592.119 679.126 591.299 675.94 590.809 673.35C590.322 670.76 589.646 667.508 589.307 666.127C588.387 662.368 587.862 653.991 588.521 653.584Z" fill="#161416"/>
<path d="M651.366 443.456C652.735 443.037 653.328 441.976 653.571 440.828C654.031 438.642 656.717 435.291 658.009 435.291C658.426 435.291 659.998 434.733 661.503 434.049C663.765 433.022 665.634 432.803 672.214 432.793C677.892 432.781 680.33 432.552 680.684 431.994C680.96 431.562 681.088 428.753 680.973 425.751C680.727 419.309 681.49 416.537 684.036 414.655C688.096 411.656 690.829 412.256 695.962 417.278C699.043 420.293 699.711 421.216 700.487 423.527C700.862 424.643 701.472 425.942 701.844 426.411C702.216 426.884 702.879 428.228 703.324 429.396C703.766 430.565 704.49 432.477 704.932 433.642C706.244 437.105 710.211 441.406 713.733 443.182C719.452 446.067 725.562 447.298 736.876 447.851C742.625 448.132 747.911 448.675 748.622 449.054C749.335 449.436 752.124 449.918 754.818 450.127C757.514 450.335 761.82 451.039 764.39 451.692C766.958 452.345 770.209 452.878 771.616 452.878C773.021 452.878 776.144 453.443 778.561 454.134C780.978 454.825 784.121 455.391 785.546 455.391C786.973 455.391 789.362 455.823 790.859 456.35C792.354 456.878 795.57 457.556 798.005 457.858C803.025 458.481 811.163 460.016 817.191 461.481C819.437 462.029 823.11 462.677 825.356 462.923C827.602 463.169 830.791 463.835 832.444 464.405C834.097 464.976 836.675 465.441 838.175 465.441C839.675 465.441 842.135 465.875 843.645 466.408C845.152 466.941 848.084 467.546 850.162 467.75C852.237 467.956 856.031 468.654 858.591 469.297C861.152 469.941 864.295 470.466 865.574 470.466C866.855 470.466 869.674 471.031 871.837 471.722C874.001 472.413 877.086 472.978 878.691 472.978C880.299 472.978 883.159 473.415 885.048 473.95C886.938 474.486 890.603 475.177 893.194 475.488C895.784 475.8 899.741 476.483 901.987 477.006C904.234 477.531 907.492 477.97 909.231 477.981C910.97 477.993 913.937 478.423 915.826 478.938C917.716 479.453 923.027 480.159 927.632 480.513C932.235 480.862 936.582 481.46 937.291 481.842C938.074 482.259 945.308 482.704 955.637 482.97C972.151 483.397 972.78 483.46 975.483 484.953C978.885 486.827 979.89 489.046 978.679 492C978.224 493.111 977.578 495.151 977.244 496.533C976.415 499.957 974.38 507.045 972.918 511.608C972.252 513.681 971.709 516.027 971.709 516.821C971.709 517.615 971.312 519.035 970.825 519.974C970.34 520.914 969.654 523.231 969.302 525.125C968.951 527.017 968.219 529.416 967.679 530.452C967.136 531.487 966.689 533.042 966.689 533.906C966.687 534.771 966.144 537.172 965.483 539.245C964.825 541.318 963.694 544.851 962.971 547.097C962.25 549.343 961.659 551.785 961.659 552.524C961.659 553.263 961.099 555.102 960.416 556.607C959.732 558.114 959.169 560.092 959.159 561.004C959.152 561.916 958.586 563.895 957.903 565.4C957.22 566.908 956.657 568.845 956.647 569.709C956.639 570.574 956.099 572.976 955.443 575.048C954.79 577.121 953.629 581.219 952.865 584.156C952.102 587.093 950.941 591.191 950.288 593.264C949.632 595.337 949.087 597.739 949.074 598.603C949.064 599.467 948.509 601.304 947.84 602.686C947.172 604.068 946.617 606.085 946.607 607.171C946.594 608.256 946.024 610.377 945.341 611.882C944.657 613.389 944.094 615.412 944.084 616.379C944.077 617.346 943.627 619 943.082 620.05C942.537 621.105 941.856 623.278 941.564 624.889C941.034 627.813 939.856 631.512 937.688 637.034C937.054 638.652 936.534 640.64 936.534 641.449C936.534 642.258 936.137 643.486 935.652 644.177C935.17 644.868 934.444 646.662 934.039 648.162C933.793 649.072 933.549 649.981 933.303 650.891C931.846 650.748 930.389 650.604 928.931 650.459C926.527 650.222 923.366 649.489 921.909 648.828C920.452 648.165 918.515 647.62 917.603 647.609C916.688 647.602 914.711 647.037 913.206 646.353C911.698 645.67 909.831 645.107 909.053 645.097C908.274 645.089 906.58 644.519 905.291 643.828C904.002 643.137 902.306 642.572 901.523 642.572C900.739 642.572 899.043 642.007 897.754 641.316C896.465 640.625 894.699 640.054 893.832 640.044C892.962 640.039 891.02 639.474 889.513 638.788C888.008 638.105 886.229 637.547 885.563 637.547C884.895 637.547 883.242 636.982 881.887 636.291C880.533 635.6 878.837 635.034 878.119 635.034C877.4 635.034 875.704 634.469 874.35 633.778C872.996 633.087 871.094 632.522 870.126 632.522C869.157 632.522 867.31 631.957 866.021 631.266C864.732 630.575 863.001 630.009 862.172 630.009C861.345 630.009 859.436 629.452 857.931 628.768C856.423 628.082 854.556 627.517 853.778 627.512C852.999 627.502 851.305 626.932 850.016 626.241C848.727 625.55 847.024 624.984 846.23 624.984C845.439 624.984 843.738 624.525 842.454 623.967C841.167 623.407 839.127 622.723 837.919 622.444C836.71 622.168 834.306 621.467 832.58 620.884C826.361 618.794 825.625 618.562 822.53 617.761C820.803 617.314 818.339 616.495 817.052 615.942C815.768 615.387 814.143 614.934 813.439 614.934C812.736 614.934 811.105 614.369 809.816 613.678C808.527 612.987 806.681 612.422 805.711 612.422C804.744 612.422 802.842 611.857 801.487 611.166C800.133 610.475 798.236 609.907 797.271 609.907C796.309 609.904 794.673 609.44 793.636 608.877C792.598 608.311 790.621 607.631 789.239 607.364C786.674 606.869 782.757 605.588 777.503 603.525C775.885 602.892 773.976 602.372 773.259 602.372C772.546 602.372 770.905 601.807 769.616 601.116C768.327 600.425 766.631 599.859 765.848 599.859C765.064 599.859 763.368 599.294 762.079 598.603C760.79 597.912 759.094 597.347 758.31 597.347C757.526 597.347 755.83 596.782 754.541 596.091C753.252 595.4 751.486 594.829 750.619 594.819C749.75 594.814 747.808 594.249 746.3 593.563C744.795 592.88 743.017 592.322 742.351 592.322C741.682 592.322 740.029 591.757 738.675 591.066C737.321 590.375 735.564 589.807 734.773 589.804C733.984 589.802 732.489 589.239 731.451 588.553C730.414 587.867 728.916 587.304 728.122 587.302C727.328 587.299 725.773 586.827 724.668 586.254C723.562 585.681 721.811 584.99 720.773 584.714C718.092 584.008 711.703 581.739 709.372 580.669C708.284 580.169 706.869 579.757 706.231 579.754C705.593 579.752 704.223 579.189 703.186 578.503C702.148 577.817 700.628 577.254 699.804 577.252C698.982 577.249 697.427 576.717 696.349 576.071C693.51 574.365 689.405 573.883 687.312 575.011C686.37 575.518 684.01 577.43 682.068 579.259C680.129 581.091 677.897 583.011 677.114 583.528C676.33 584.046 674.945 585.036 674.041 585.727C670.501 588.425 665.898 589.809 660.461 589.809C656.629 589.809 655.087 589.566 654.506 588.867C654.076 588.35 653.368 587.925 652.933 587.925C652.499 587.925 651.358 586.895 650.398 585.636C648.798 583.541 648.647 582.87 648.597 577.629C648.564 574.483 648.68 570.636 648.853 569.081C648.959 568.139 649.062 567.197 649.167 566.255C647.074 566.25 644.979 566.245 642.886 566.24C635.162 566.22 632.585 565.285 628.811 561.134C626.05 558.099 626.04 558.074 626.047 553.378C626.06 547.245 627.341 545.245 635.818 538.142C639.584 534.987 640.371 533.034 638.157 532.331C637.456 532.107 635.308 530.547 633.384 528.866C631.461 527.18 629.632 525.65 629.321 525.459C629.13 525.344 628.941 525.228 628.753 525.112C628.544 522.809 628.333 520.507 628.125 518.203C631.092 512.605 632.296 510.869 632.71 510.733C633.125 510.598 634.17 510 635.034 509.407C635.899 508.814 637.655 508.136 638.939 507.902C640.223 507.668 641.436 507.211 641.637 506.884C642.135 506.08 640.924 503.907 638.399 501.085C636.386 498.834 636.291 498.505 636.291 493.792C636.291 492.146 636.291 490.5 636.291 488.857C637.18 487.938 638.069 487.018 638.959 486.098C641.589 483.382 644.825 481.207 647.28 480.506C649.089 479.988 649.187 478.156 647.494 476.486C644.305 473.342 643.828 472.232 643.828 467.968C643.828 464.285 644.037 463.589 645.768 461.488C646.835 460.192 648.544 458.702 649.564 458.174C650.584 457.647 651.69 456.521 652.021 455.675C652.222 455.162 652.421 454.647 652.622 454.134C653.353 454.516 654.677 454.443 656.034 454.22C656.858 454.084 657.682 453.948 658.506 453.813C657.835 453.051 657.167 452.288 656.499 451.526C655.393 450.27 653.788 447.939 652.928 446.348C652.408 445.383 651.886 444.421 651.366 443.456ZM709.975 459.159C709.623 458.174 707.96 456.647 707.241 456.647C707.01 456.647 706.115 457.283 705.251 458.059C704.387 458.838 703.015 459.898 702.201 460.416C700.842 461.282 699.726 462.348 695.623 466.697C693.942 468.478 689.053 475.684 687.681 478.398C687.181 479.39 686.473 480.767 686.106 481.458C683.588 486.219 682.772 488.025 682.772 488.847C682.772 489.362 682.367 490.121 681.87 490.533C681.372 490.943 680.789 492.179 680.571 493.279C680.35 494.377 679.644 496.972 678.998 499.045C678.352 501.118 677.365 504.369 676.805 506.269C675.548 510.52 674.388 528.17 674.795 536.838C675.066 542.652 675.257 543.446 676.89 545.632C680.666 550.677 683.126 551.393 685.536 548.147C686.777 546.476 686.857 545.567 686.897 532.758C686.922 524.283 687.201 518.522 687.636 517.497C688.02 516.59 688.52 513.764 688.746 511.216C688.975 508.668 689.701 504.957 690.362 502.967C691.023 500.98 691.566 498.751 691.566 498.013C691.566 497.274 692.091 495.51 692.734 494.091C693.377 492.671 694.256 490.518 694.686 489.309C696.4 484.495 696.947 483.219 698.003 481.609C698.608 480.686 699.103 479.536 699.103 479.051C699.103 478.568 699.611 477.498 700.226 476.674C700.844 475.85 701.693 474.471 702.113 473.606C703.967 469.785 706.934 464.961 708.6 463.064C710.47 460.931 710.537 460.74 709.975 459.159Z" fill="#369FFF"/>
<path d="M628.753 525.112C622.472 525.112 619.02 525.537 617.032 526.055C615.042 526.572 612.555 526.994 611.505 526.987C609.706 526.979 604.374 528.376 597.975 530.537C596.42 531.06 593.892 531.753 592.355 532.072C589.558 532.66 586.34 533.597 583.684 534.6C581.875 535.286 581.815 537.78 583.528 540.979C584.219 542.268 584.789 543.959 584.799 544.738C584.804 545.516 585.37 547.386 586.056 548.893C586.739 550.398 587.297 552.436 587.297 553.423C587.297 554.411 587.822 556.569 588.468 558.222C589.111 559.878 589.84 563.054 590.083 565.282C590.329 567.511 590.812 569.86 591.156 570.506C591.5 571.149 592.053 574.415 592.382 577.759C592.711 581.106 593.415 586.033 593.95 588.714C595.299 595.493 595.442 625.115 594.138 627.841C593.191 629.821 590.817 630.637 589.581 629.409C588.779 628.615 587.601 616.593 586.624 599.231C586.232 592.287 585.49 585.588 584.779 582.586C584.126 579.822 583.448 575.855 583.269 573.767C583.093 571.682 582.513 568.936 581.98 567.664C581.45 566.393 581.016 564.506 581.016 563.471C581.016 562.436 580.553 560.235 579.988 558.581C579.425 556.928 578.609 554.021 578.179 552.122C577.749 550.222 577.104 547.818 576.744 546.783C576.385 545.748 575.817 543.768 575.483 542.386C574.739 539.328 573.704 536.353 572.144 532.791C571.496 531.313 570.966 529.509 570.966 528.781C570.966 528.055 570.435 526.577 569.785 525.502C569.137 524.424 568.423 522.51 568.199 521.251C567.976 519.989 567.375 518.613 566.868 518.188C566.358 517.766 565.938 516.821 565.936 516.085C565.933 515.349 565.37 513.899 564.684 512.864C563.998 511.829 563.436 510.457 563.433 509.819C563.431 509.183 562.898 507.912 562.25 506.992C561.602 506.075 560.878 504.427 560.639 503.329C560.401 502.229 559.82 501.008 559.345 500.616C558.87 500.224 558.308 499.091 558.089 498.103C557.87 497.116 557.315 495.993 556.853 495.608C556.393 495.224 555.823 494.146 555.589 493.209C555.355 492.274 554.793 491.083 554.335 490.566C553.881 490.048 552.207 487.101 550.614 484.016C549.024 480.933 547.298 477.943 546.78 477.372C546.263 476.802 545.841 476.023 545.841 475.644C545.841 475.264 545.396 474.506 544.851 473.963C544.305 473.418 543.388 471.845 542.808 470.468C542.459 469.634 542.107 468.8 541.758 467.966C542.316 467.963 542.876 467.961 543.434 467.958C544.778 467.953 545.8 468.855 548.602 472.506C552.67 477.812 556.73 483.566 557.355 484.912C557.597 485.43 558.617 487.126 559.619 488.681C560.624 490.236 562.458 493.485 563.697 495.905C564.933 498.324 566.28 500.867 566.684 501.558C567.091 502.249 567.91 503.804 568.506 505.012C569.101 506.221 570.159 508.342 570.853 509.723C574.094 516.178 574.626 517.392 575.021 519.258C575.254 520.359 575.83 521.58 576.305 521.972C576.78 522.364 577.34 523.444 577.551 524.371C578.526 528.65 581.503 529.547 586.787 527.153C590.578 525.437 597.138 523.394 600.488 522.884C602.043 522.648 603.859 522.168 604.525 521.816C605.193 521.467 607.935 520.934 610.623 520.633C613.309 520.331 617.133 519.663 619.12 519.145C621.11 518.628 623.949 518.203 625.432 518.203C626.329 518.203 627.228 518.203 628.125 518.203C628.334 520.507 628.545 522.809 628.753 525.112Z" fill="#161416"/>
<path d="M466.958 464.722C469.659 463.493 471.059 465.426 471.8 471.415C472.136 474.109 472.664 476.79 472.976 477.37C473.287 477.953 473.832 480.664 474.189 483.397C474.546 486.131 475.267 489.754 475.792 491.45C476.317 493.146 476.747 495.442 476.747 496.55C476.747 497.661 477.312 500.337 478.003 502.5C478.694 504.663 479.262 507.314 479.262 508.392C479.264 509.47 479.712 511.201 480.252 512.236C480.794 513.271 481.526 515.671 481.877 517.562C482.229 519.457 482.915 521.773 483.4 522.713C483.887 523.653 484.289 525.213 484.299 526.18C484.304 527.148 484.87 529.17 485.556 530.678C486.239 532.183 486.797 534.09 486.797 534.914C486.797 535.74 487.35 538.039 488.023 540.027C488.822 542.381 489.437 546.63 489.787 552.202C490.372 561.521 490.053 566.642 488.862 567.034C488.005 567.317 487.819 566.581 486.87 559.031C485.694 549.722 484.953 545.853 483.975 543.969C483.455 542.959 483.023 541.343 483.013 540.376C483.008 539.409 482.443 537.386 481.757 535.879C481.073 534.374 480.516 532.542 480.516 531.808C480.516 531.075 479.98 529.057 479.325 527.324C478.669 525.59 477.852 523.04 477.511 521.658C477.166 520.276 476.601 518.296 476.254 517.261C474.322 511.502 473.043 506.897 472.702 504.475C472.488 502.972 471.898 500.935 471.39 499.952C470.883 498.97 470.466 497.191 470.466 496.003C470.466 494.812 469.928 492.043 469.272 489.847C468.616 487.651 467.898 483.646 467.672 480.95C467.448 478.252 467.013 475.383 466.704 474.571C466.398 473.76 465.951 471.383 465.714 469.29C465.295 465.599 465.333 465.463 466.958 464.722Z" fill="#161416"/>
<path d="M515.678 461.365C516.884 460.622 518.814 462.375 521.03 466.235C523.984 471.38 524.587 472.36 525.896 474.154C526.502 474.983 527.002 476.116 527.012 476.674C527.017 477.232 527.577 478.395 528.253 479.259C528.929 480.124 529.489 481.209 529.494 481.671C529.504 482.136 530.075 483.234 530.766 484.114C531.456 484.99 532.022 486.229 532.022 486.865C532.022 487.5 532.557 489.229 533.213 490.706C533.866 492.184 534.896 495.558 535.502 498.204C536.572 502.887 536.569 503.07 535.378 505.113C533.255 508.759 528.728 507.839 528.077 503.633C527.901 502.492 527.278 500.143 526.693 498.417C524.17 490.978 523.723 489.465 523.213 486.644C522.919 485.005 522.236 483.033 521.695 482.264C521.155 481.493 520.716 480.287 520.716 479.581C520.716 478.875 520.15 477.244 519.459 475.955C518.768 474.667 518.203 473.214 518.203 472.729C518.203 472.244 517.5 470.335 516.638 468.486C515.017 465.001 514.613 462.024 515.678 461.365Z" fill="#161416"/>
<path d="M486.905 459.901C487.659 460.011 488.716 460.85 489.262 461.767C492.704 467.564 496.847 475.121 496.847 475.609C496.847 476.156 497.452 477.448 500.525 483.465C501.266 484.917 501.872 486.553 501.872 487.103C501.872 487.654 502.437 489.211 503.128 490.566C503.819 491.92 504.384 493.679 504.384 494.475C504.384 495.272 504.919 496.92 505.57 498.138C506.409 499.701 506.824 502.008 506.985 505.98C507.196 511.264 507.135 511.608 505.955 511.608C504.538 511.608 501.676 506.673 500.306 501.872C499.864 500.317 499.198 498.196 498.827 497.161C497.726 494.083 496.188 489.154 495.578 486.757C495.264 485.526 494.575 483.686 494.048 482.674C493.518 481.659 493.083 480.232 493.081 479.501C493.081 478.769 492.553 477.498 491.91 476.674C491.267 475.85 490.548 474.566 490.314 473.82C490.081 473.074 489.475 472.121 488.97 471.702C488.465 471.282 488.053 470.476 488.053 469.908C488.053 469.343 487.488 467.822 486.797 466.534C486.106 465.245 485.541 463.179 485.541 461.943C485.541 459.996 485.721 459.727 486.905 459.901Z" fill="#161416"/>
<path d="M482.85 443.213C484.644 441.406 488.282 440.828 499.987 440.492C511.163 440.167 512.758 440.258 518.203 441.527C525.158 443.147 527.158 444.213 526.879 446.15C526.474 448.944 524.793 449.15 505.955 448.707C489.86 448.33 488.128 448.185 485.548 446.971C482.84 445.695 481.807 444.26 482.85 443.213Z" fill="#161416"/>
<path d="M440.188 478.159C440.306 477.383 440.62 476.747 440.888 476.747C441.155 476.747 442.014 477.383 442.795 478.159C444.469 479.82 451.622 489.689 451.622 490.337C451.622 490.581 452.057 491.262 452.589 491.85C453.122 492.437 454.83 495.397 456.391 498.425C458.536 502.596 459.313 504.894 459.594 507.912C459.898 511.176 459.79 511.962 458.983 512.269C457.715 512.756 455.391 511.515 455.391 510.349C455.391 509.583 452.911 504.42 451.019 501.244C450.71 500.726 450.28 499.877 450.067 499.359C449.853 498.842 448.994 497.287 448.162 495.905C447.328 494.523 445.996 492.294 445.207 490.953C444.416 489.608 443.476 488.013 443.117 487.407C442.758 486.799 442.084 485.842 441.617 485.282C440.647 484.114 439.871 480.247 440.188 478.159Z" fill="#161416"/>
<path d="M313.819 576.443C315.409 574.855 318.459 577.762 318.459 580.867C318.459 582.322 321.6 585.412 323.08 585.412C323.68 585.412 324.939 585.018 325.871 584.536C326.803 584.053 328.69 583.558 330.065 583.438C332.042 583.259 332.607 583.44 332.778 584.304C333.012 585.485 330.58 587.968 327.597 589.591C326.58 590.146 325.369 590.975 324.909 591.437C323.758 592.586 319.726 593.264 318.53 592.51C317.99 592.169 317.324 590.809 317.05 589.485C316.774 588.164 316.226 586.691 315.829 586.214C315.434 585.737 314.914 584.159 314.673 582.709C314.434 581.259 314.042 579.357 313.804 578.486C313.565 577.609 313.57 576.692 313.819 576.443Z" fill="#33B5F6"/>
</svg>
